%TF.GenerationSoftware,KiCad,Pcbnew,7.0.10*%
%TF.CreationDate,2024-01-28T14:28:33+00:00*%
%TF.ProjectId,Microll,4d696372-6f6c-46c2-9e6b-696361645f70,rev?*%
%TF.SameCoordinates,PX6422c40PY7f13bd0*%
%TF.FileFunction,Copper,L2,Bot*%
%TF.FilePolarity,Positive*%
%FSLAX46Y46*%
G04 Gerber Fmt 4.6, Leading zero omitted, Abs format (unit mm)*
G04 Created by KiCad (PCBNEW 7.0.10) date 2024-01-28 14:28:33*
%MOMM*%
%LPD*%
G01*
G04 APERTURE LIST*
G04 Aperture macros list*
%AMFreePoly0*
4,1,19,0.550000,-0.750000,0.000000,-0.750000,0.000000,-0.744911,-0.071157,-0.744911,-0.207708,-0.704816,-0.327430,-0.627875,-0.420627,-0.520320,-0.479746,-0.390866,-0.500000,-0.250000,-0.500000,0.250000,-0.479746,0.390866,-0.420627,0.520320,-0.327430,0.627875,-0.207708,0.704816,-0.071157,0.744911,0.000000,0.744911,0.000000,0.750000,0.550000,0.750000,0.550000,-0.750000,0.550000,-0.750000,
$1*%
%AMFreePoly1*
4,1,19,0.000000,0.744911,0.071157,0.744911,0.207708,0.704816,0.327430,0.627875,0.420627,0.520320,0.479746,0.390866,0.500000,0.250000,0.500000,-0.250000,0.479746,-0.390866,0.420627,-0.520320,0.327430,-0.627875,0.207708,-0.704816,0.071157,-0.744911,0.000000,-0.744911,0.000000,-0.750000,-0.550000,-0.750000,-0.550000,0.750000,0.000000,0.750000,0.000000,0.744911,0.000000,0.744911,
$1*%
G04 Aperture macros list end*
%TA.AperFunction,ComponentPad*%
%ADD10C,0.475000*%
%TD*%
%TA.AperFunction,ComponentPad*%
%ADD11R,1.000000X1.000000*%
%TD*%
%TA.AperFunction,ComponentPad*%
%ADD12O,1.000000X1.000000*%
%TD*%
%TA.AperFunction,ComponentPad*%
%ADD13O,1.100000X2.100000*%
%TD*%
%TA.AperFunction,ComponentPad*%
%ADD14O,1.100000X2.600000*%
%TD*%
%TA.AperFunction,ComponentPad*%
%ADD15C,0.500000*%
%TD*%
%TA.AperFunction,SMDPad,CuDef*%
%ADD16R,0.500000X1.600000*%
%TD*%
%TA.AperFunction,SMDPad,CuDef*%
%ADD17FreePoly0,270.000000*%
%TD*%
%TA.AperFunction,SMDPad,CuDef*%
%ADD18R,1.500000X1.000000*%
%TD*%
%TA.AperFunction,SMDPad,CuDef*%
%ADD19FreePoly1,270.000000*%
%TD*%
%TA.AperFunction,SMDPad,CuDef*%
%ADD20FreePoly0,0.000000*%
%TD*%
%TA.AperFunction,SMDPad,CuDef*%
%ADD21R,1.000000X1.500000*%
%TD*%
%TA.AperFunction,SMDPad,CuDef*%
%ADD22FreePoly1,0.000000*%
%TD*%
%TA.AperFunction,ViaPad*%
%ADD23C,0.800000*%
%TD*%
%TA.AperFunction,ViaPad*%
%ADD24C,0.350000*%
%TD*%
%TA.AperFunction,Conductor*%
%ADD25C,0.150000*%
%TD*%
%TA.AperFunction,Conductor*%
%ADD26C,0.250000*%
%TD*%
G04 APERTURE END LIST*
D10*
%TO.P,U1,TP,TP*%
%TO.N,GND*%
X14450000Y27950000D03*
X14450000Y26850000D03*
X15000000Y28500000D03*
X15000000Y27400000D03*
X15000000Y26300000D03*
X15550000Y27950000D03*
X15550000Y26850000D03*
X16100000Y28500000D03*
X16100000Y27400000D03*
X16100000Y26300000D03*
X16650000Y27950000D03*
X16650000Y26850000D03*
%TD*%
D11*
%TO.P,J3,1,Pin_1*%
%TO.N,USART_RX*%
X-1200000Y7670000D03*
D12*
%TO.P,J3,2,Pin_2*%
%TO.N,USART_TX*%
X-1200000Y8940000D03*
%TO.P,J3,3,Pin_3*%
%TO.N,/ADC1_IN0*%
X-1200000Y10210000D03*
%TO.P,J3,4,Pin_4*%
%TO.N,/ADC1_IN1*%
X-1200000Y11480000D03*
%TO.P,J3,5,Pin_5*%
%TO.N,/PA8*%
X-1200000Y12750000D03*
%TO.P,J3,6,Pin_6*%
%TO.N,/PB15*%
X-1200000Y14020000D03*
%TO.P,J3,7,Pin_7*%
%TO.N,/PB14*%
X-1200000Y15290000D03*
%TO.P,J3,8,Pin_8*%
%TO.N,/PB13*%
X-1200000Y16560000D03*
%TD*%
D11*
%TO.P,J1,1,Pin_1*%
%TO.N,/GPIO1*%
X30000000Y32060000D03*
D12*
%TO.P,J1,2,Pin_2*%
%TO.N,/GPIO2*%
X30000000Y30790000D03*
%TO.P,J1,3,Pin_3*%
%TO.N,/GPIO3*%
X30000000Y29520000D03*
%TO.P,J1,4,Pin_4*%
%TO.N,/Tx*%
X30000000Y28250000D03*
%TO.P,J1,5,Pin_5*%
%TO.N,/Rx*%
X30000000Y26980000D03*
%TO.P,J1,6,Pin_6*%
%TO.N,/GPIO7*%
X30000000Y25710000D03*
%TO.P,J1,7,Pin_7*%
%TO.N,/GPIO8*%
X30000000Y24440000D03*
%TO.P,J1,8,Pin_8*%
%TO.N,/GPIO10*%
X30000000Y23170000D03*
%TD*%
D13*
%TO.P,J4,S1,SHIELD*%
%TO.N,unconnected-(J4-SHIELD-PadS1)*%
X17430000Y4625000D03*
D14*
X17430000Y-735000D03*
D13*
X26070000Y4625000D03*
D14*
X26070000Y-735000D03*
%TD*%
D11*
%TO.P,J2,1,Pin_1*%
%TO.N,SDA*%
X13330000Y-500000D03*
D12*
%TO.P,J2,2,Pin_2*%
%TO.N,SCL*%
X12060000Y-500000D03*
%TO.P,J2,3,Pin_3*%
%TO.N,/PB5*%
X10790000Y-500000D03*
%TO.P,J2,4,Pin_4*%
%TO.N,/PB4*%
X9520000Y-500000D03*
%TO.P,J2,5,Pin_5*%
%TO.N,/PB3*%
X8250000Y-500000D03*
%TO.P,J2,6,Pin_6*%
%TO.N,/PD3*%
X6980000Y-500000D03*
%TO.P,J2,7,Pin_7*%
%TO.N,CAN_TX*%
X5710000Y-500000D03*
%TO.P,J2,8,Pin_8*%
%TO.N,CAN_RX*%
X4440000Y-500000D03*
%TD*%
D11*
%TO.P,J5,1,Pin_1*%
%TO.N,/PA2*%
X0Y32000000D03*
D12*
%TO.P,J5,2,Pin_2*%
%TO.N,/PA3*%
X0Y30730000D03*
%TO.P,J5,3,Pin_3*%
%TO.N,/DAC1_OUT1*%
X0Y29460000D03*
%TO.P,J5,4,Pin_4*%
%TO.N,SPI_SCK*%
X0Y28190000D03*
%TO.P,J5,5,Pin_5*%
%TO.N,SPI_MISO*%
X0Y26920000D03*
%TO.P,J5,6,Pin_6*%
%TO.N,SPI_MOSI*%
X0Y25650000D03*
%TO.P,J5,7,Pin_7*%
%TO.N,/PB0*%
X0Y24380000D03*
%TO.P,J5,8,Pin_8*%
%TO.N,/PB1*%
X0Y23110000D03*
%TD*%
D15*
%TO.P,U2,7,PAD*%
%TO.N,GND*%
X7650000Y17682500D03*
D16*
X7650000Y18232500D03*
D15*
X7650000Y18782500D03*
%TD*%
D17*
%TO.P,JP1,1,A*%
%TO.N,+3.3V*%
X15000000Y33300000D03*
D18*
%TO.P,JP1,2,C*%
%TO.N,Net-(JP1-C)*%
X15000000Y32000000D03*
D19*
%TO.P,JP1,3,B*%
%TO.N,GND*%
X15000000Y30700000D03*
%TD*%
D20*
%TO.P,JP2,1,A*%
%TO.N,+3.3V*%
X-700000Y3350000D03*
D21*
%TO.P,JP2,2,C*%
%TO.N,Net-(JP2-C)*%
X600000Y3350000D03*
D22*
%TO.P,JP2,3,B*%
%TO.N,GND*%
X1900000Y3350000D03*
%TD*%
D23*
%TO.N,GND*%
X7800000Y21650000D03*
X21937500Y11150000D03*
X24700000Y6150000D03*
X16700000Y14850000D03*
X13500000Y29250000D03*
X11000000Y8550000D03*
X12037347Y13287347D03*
X18800000Y6050000D03*
X13400000Y14850000D03*
%TO.N,+5V*%
X19800000Y8050000D03*
X10100000Y13350000D03*
D24*
%TO.N,/D+*%
X21750000Y5589372D03*
X22000606Y4218480D03*
D23*
%TO.N,SDA*%
X12600000Y27250000D03*
X10200000Y4450000D03*
X12600000Y22850000D03*
X14543398Y8668092D03*
%TO.N,SCL*%
X10900000Y27250000D03*
X13700000Y19450000D03*
X14652500Y22850000D03*
%TO.N,+3.3V*%
X13200000Y33250000D03*
X-500000Y4550000D03*
%TO.N,Net-(D1-RK)*%
X19800000Y9850000D03*
X14300000Y6050000D03*
%TO.N,Net-(JP1-C)*%
X13200000Y32000000D03*
%TO.N,/GPIO7*%
X18100000Y25710000D03*
%TO.N,/GPIO8*%
X18100000Y24709997D03*
%TO.N,/ADC1_IN0*%
X10900000Y9650000D03*
X-100000Y10210000D03*
%TO.N,/ADC1_IN1*%
X11055292Y10637778D03*
X-100000Y11480000D03*
%TO.N,Net-(JP2-C)*%
X600000Y4550000D03*
%TO.N,STM32_USB-*%
X-1000000Y6450000D03*
X14292295Y10677174D03*
X18487347Y12562653D03*
X25300000Y17150000D03*
%TO.N,STM32_USB+*%
X-1000000Y5439515D03*
X18500000Y11550000D03*
X25300000Y14050000D03*
X14565103Y9715103D03*
%TO.N,/Blue*%
X16000000Y2550000D03*
X27800000Y2550000D03*
%TD*%
D25*
%TO.N,GND*%
X7650000Y18782500D02*
X7650000Y17682500D01*
%TO.N,+5V*%
X19800000Y8050000D02*
X20700000Y8950000D01*
X11074997Y12375003D02*
X10100000Y13350000D01*
X20700000Y8950000D02*
X20700000Y9904595D01*
X20079595Y10525000D02*
X17625000Y10525000D01*
X17625000Y10525000D02*
X15774997Y12375003D01*
X15774997Y12375003D02*
X11074997Y12375003D01*
X20700000Y9904595D02*
X20079595Y10525000D01*
%TO.N,/D+*%
X21750000Y4469086D02*
X21750000Y5589372D01*
X22000606Y4218480D02*
X21750000Y4469086D01*
D26*
%TO.N,SDA*%
X14543398Y8668092D02*
X14543398Y8418398D01*
X10575000Y4450000D02*
X10200000Y4450000D01*
X14543398Y8418398D02*
X10575000Y4450000D01*
X12600000Y27250000D02*
X12600000Y22850000D01*
%TO.N,SCL*%
X13952500Y22150000D02*
X11200000Y22150000D01*
X10900000Y22450000D02*
X10900000Y27250000D01*
X9375000Y12925000D02*
X10324997Y11975003D01*
X13700000Y19450000D02*
X9375000Y15125000D01*
X15290103Y8140103D02*
X12060000Y4910000D01*
X10324997Y11975003D02*
X14019771Y11975003D01*
X14019771Y11975003D02*
X15290103Y10704671D01*
X12060000Y4910000D02*
X12060000Y-500000D01*
X11200000Y22150000D02*
X10900000Y22450000D01*
X15290103Y10704671D02*
X15290103Y8140103D01*
X9375000Y15125000D02*
X9375000Y12925000D01*
X14652500Y22850000D02*
X13952500Y22150000D01*
%TO.N,+3.3V*%
X-500000Y4550000D02*
X-700000Y4350000D01*
X15000000Y33300000D02*
X13250000Y33300000D01*
X13250000Y33300000D02*
X13200000Y33250000D01*
X-700000Y4350000D02*
X-700000Y3650000D01*
%TO.N,Net-(D1-RK)*%
X17700000Y9850000D02*
X19800000Y9850000D01*
X14300000Y6050000D02*
X14300000Y6450000D01*
X14300000Y6450000D02*
X17700000Y9850000D01*
%TO.N,unconnected-(J4-SHIELD-PadS1)*%
X26070000Y-735000D02*
X17430000Y-735000D01*
%TO.N,Net-(JP1-C)*%
X13200000Y32000000D02*
X15000000Y32000000D01*
%TO.N,/GPIO7*%
X18100000Y25710000D02*
X30000000Y25710000D01*
%TO.N,/GPIO8*%
X18100000Y24709997D02*
X18369997Y24440000D01*
X18369997Y24440000D02*
X30000000Y24440000D01*
%TO.N,/ADC1_IN0*%
X-60000Y10250000D02*
X-100000Y10210000D01*
X10900000Y9650000D02*
X10300000Y10250000D01*
X10300000Y10250000D02*
X-60000Y10250000D01*
%TO.N,/ADC1_IN1*%
X11055292Y10637778D02*
X10243070Y11450000D01*
X10243070Y11450000D02*
X-70000Y11450000D01*
X-70000Y11450000D02*
X-100000Y11480000D01*
%TO.N,Net-(JP2-C)*%
X600000Y3650000D02*
X600000Y4550000D01*
%TO.N,STM32_USB-*%
X25300000Y17150000D02*
X25300000Y16450000D01*
X24750000Y15900000D02*
X21824694Y15900000D01*
X13840103Y9626499D02*
X13840103Y10224982D01*
X13840103Y10224982D02*
X14292295Y10677174D01*
X10263101Y6049497D02*
X13840103Y9626499D01*
X25300000Y16450000D02*
X24750000Y15900000D01*
X-599497Y6049497D02*
X10263101Y6049497D01*
X21824694Y15900000D02*
X18487347Y12562653D01*
X-1000000Y6450000D02*
X-599497Y6049497D01*
%TO.N,STM32_USB+*%
X18500000Y11837653D02*
X18500000Y11550000D01*
X22011090Y15450000D02*
X19212347Y12651257D01*
X-1033568Y5439515D02*
X-873586Y5599497D01*
X19212347Y12651257D02*
X19212347Y12262348D01*
X24800000Y15450000D02*
X22011090Y15450000D01*
X25300000Y14950000D02*
X24800000Y15450000D01*
X25300000Y14050000D02*
X25300000Y14950000D01*
X18787652Y11837653D02*
X18500000Y11837653D01*
X-873586Y5599497D02*
X10449497Y5599497D01*
X19212347Y12262348D02*
X18787652Y11837653D01*
X10449497Y5599497D02*
X14565103Y9715103D01*
%TO.N,/Blue*%
X27800000Y2550000D02*
X16100000Y2550000D01*
X16100000Y2550000D02*
X16000000Y2550000D01*
%TD*%
%TA.AperFunction,Conductor*%
%TO.N,GND*%
G36*
X13492921Y11329818D02*
G01*
X13538676Y11277014D01*
X13548620Y11207856D01*
X13533269Y11163503D01*
X13465116Y11045459D01*
X13465116Y11045458D01*
X13421660Y10911714D01*
X13406621Y10865430D01*
X13396437Y10768533D01*
X13388696Y10694883D01*
X13362111Y10630269D01*
X13355770Y10622964D01*
X13330040Y10595564D01*
X13330039Y10595562D01*
X13320387Y10578006D01*
X13309713Y10561756D01*
X13297432Y10545921D01*
X13297427Y10545914D01*
X13280078Y10505824D01*
X13274941Y10495338D01*
X13253906Y10457076D01*
X13248925Y10437675D01*
X13242624Y10419272D01*
X13234665Y10400880D01*
X13234664Y10400877D01*
X13227831Y10357739D01*
X13225463Y10346308D01*
X13214604Y10304011D01*
X13214603Y10304000D01*
X13214603Y10283966D01*
X13213076Y10264567D01*
X13209943Y10244788D01*
X13209943Y10244787D01*
X13214053Y10201308D01*
X13214603Y10189639D01*
X13214603Y9936952D01*
X13194918Y9869913D01*
X13178284Y9849271D01*
X10040329Y6711316D01*
X9979006Y6677831D01*
X9952648Y6674997D01*
X-36173Y6674997D01*
X-103212Y6694682D01*
X-148967Y6747486D01*
X-154104Y6760679D01*
X-172819Y6818279D01*
X-172822Y6818285D01*
X-219054Y6898362D01*
X-235527Y6966263D01*
X-227850Y7003692D01*
X-205909Y7062517D01*
X-199500Y7122127D01*
X-199501Y8217872D01*
X-205909Y8277483D01*
X-256204Y8412331D01*
X-262233Y8420385D01*
X-286649Y8485846D01*
X-273105Y8549475D01*
X-273517Y8549645D01*
X-272594Y8551876D01*
X-272323Y8553147D01*
X-271186Y8555273D01*
X-213976Y8743868D01*
X-194659Y8940000D01*
X-213976Y9136132D01*
X-218032Y9149504D01*
X-218656Y9219371D01*
X-181408Y9278484D01*
X-118115Y9308075D01*
X-99372Y9309500D01*
X-5356Y9309500D01*
X-5354Y9309500D01*
X179803Y9348856D01*
X352730Y9425849D01*
X505864Y9537108D01*
X505866Y9537108D01*
X505866Y9537110D01*
X505871Y9537112D01*
X547616Y9583475D01*
X607101Y9620121D01*
X639764Y9624500D01*
X9885570Y9624500D01*
X9952609Y9604815D01*
X9998364Y9552011D01*
X10008889Y9513466D01*
X10014326Y9461744D01*
X10014327Y9461741D01*
X10072818Y9281723D01*
X10072821Y9281716D01*
X10167467Y9117784D01*
X10214227Y9065852D01*
X10294129Y8977112D01*
X10447265Y8865852D01*
X10447270Y8865849D01*
X10620192Y8788858D01*
X10620197Y8788856D01*
X10805354Y8749500D01*
X10805355Y8749500D01*
X10994644Y8749500D01*
X10994646Y8749500D01*
X11179803Y8788856D01*
X11352730Y8865849D01*
X11505871Y8977112D01*
X11632533Y9117784D01*
X11727179Y9281716D01*
X11785674Y9461744D01*
X11805460Y9650000D01*
X11785674Y9838256D01*
X11744545Y9964838D01*
X11742550Y10034679D01*
X11770327Y10086129D01*
X11787825Y10105562D01*
X11882471Y10269494D01*
X11940966Y10449522D01*
X11960752Y10637778D01*
X11940966Y10826034D01*
X11882471Y11006062D01*
X11827335Y11101561D01*
X11791573Y11163503D01*
X11775100Y11231404D01*
X11797953Y11297430D01*
X11852874Y11340621D01*
X11898960Y11349503D01*
X13425882Y11349503D01*
X13492921Y11329818D01*
G37*
%TD.AperFunction*%
%TA.AperFunction,Conductor*%
G36*
X5893039Y40729815D02*
G01*
X5938794Y40677011D01*
X5950000Y40625500D01*
X5950000Y34650000D01*
X23950000Y34650000D01*
X23950000Y38193670D01*
X28745710Y38193670D01*
X28775925Y37970613D01*
X28775926Y37970610D01*
X28845483Y37756535D01*
X28952146Y37558322D01*
X28952148Y37558319D01*
X29092489Y37382337D01*
X29092491Y37382336D01*
X29092492Y37382334D01*
X29262004Y37234235D01*
X29455236Y37118785D01*
X29665976Y37039693D01*
X29887450Y36999500D01*
X29887453Y36999500D01*
X30056148Y36999500D01*
X30056155Y36999500D01*
X30224188Y37014623D01*
X30224192Y37014624D01*
X30441160Y37074504D01*
X30441162Y37074505D01*
X30441170Y37074507D01*
X30643973Y37172171D01*
X30826078Y37304478D01*
X30981632Y37467175D01*
X31105635Y37655032D01*
X31194103Y37862012D01*
X31244191Y38081463D01*
X31254290Y38306330D01*
X31224075Y38529387D01*
X31154517Y38743464D01*
X31047852Y38941681D01*
X30907508Y39117666D01*
X30737996Y39265765D01*
X30544764Y39381215D01*
X30426775Y39425497D01*
X30334023Y39460308D01*
X30112550Y39500500D01*
X30112547Y39500500D01*
X29943845Y39500500D01*
X29905399Y39497040D01*
X29775813Y39485378D01*
X29775807Y39485377D01*
X29558839Y39425497D01*
X29558826Y39425492D01*
X29356033Y39327833D01*
X29356025Y39327829D01*
X29173927Y39195527D01*
X29173925Y39195526D01*
X29018366Y39032824D01*
X28894363Y38844967D01*
X28805899Y38637996D01*
X28805895Y38637983D01*
X28755810Y38418543D01*
X28755808Y38418532D01*
X28748217Y38249500D01*
X28745710Y38193670D01*
X23950000Y38193670D01*
X23950000Y40625500D01*
X23969685Y40692539D01*
X24022489Y40738294D01*
X24074000Y40749500D01*
X29996249Y40749500D01*
X30003735Y40749274D01*
X30027834Y40747817D01*
X30098669Y40743532D01*
X30099066Y40743507D01*
X30302818Y40730153D01*
X30317032Y40728390D01*
X30448459Y40704305D01*
X30450007Y40704009D01*
X30612440Y40671699D01*
X30625102Y40668477D01*
X30759678Y40626541D01*
X30762645Y40625575D01*
X30912220Y40574801D01*
X30923244Y40570462D01*
X31054556Y40511363D01*
X31058416Y40509543D01*
X31197458Y40440975D01*
X31206764Y40435880D01*
X31331185Y40360665D01*
X31335926Y40357650D01*
X31463643Y40272311D01*
X31471225Y40266820D01*
X31586211Y40176735D01*
X31591487Y40172360D01*
X31706550Y40071453D01*
X31712472Y40065906D01*
X31815904Y39962474D01*
X31821451Y39956552D01*
X31922358Y39841489D01*
X31926741Y39836203D01*
X32016818Y39721227D01*
X32022309Y39713645D01*
X32107648Y39585928D01*
X32110663Y39581187D01*
X32185878Y39456766D01*
X32190973Y39447460D01*
X32259519Y39308464D01*
X32261383Y39304511D01*
X32320458Y39173250D01*
X32324801Y39162217D01*
X32375573Y39012647D01*
X32376539Y39009680D01*
X32418470Y38875122D01*
X32421702Y38862422D01*
X32453976Y38700168D01*
X32454328Y38698328D01*
X32478386Y38567046D01*
X32480151Y38552805D01*
X32493498Y38349172D01*
X32493538Y38348550D01*
X32499274Y38253736D01*
X32499500Y38246248D01*
X32499500Y3753D01*
X32499274Y-3735D01*
X32493538Y-98548D01*
X32493498Y-99170D01*
X32480151Y-302803D01*
X32478386Y-317044D01*
X32454328Y-448326D01*
X32453976Y-450166D01*
X32421702Y-612420D01*
X32418470Y-625120D01*
X32376539Y-759678D01*
X32375573Y-762645D01*
X32324801Y-912215D01*
X32320458Y-923248D01*
X32261383Y-1054509D01*
X32259519Y-1058462D01*
X32190973Y-1197458D01*
X32185878Y-1206764D01*
X32110663Y-1331185D01*
X32107648Y-1335926D01*
X32022309Y-1463643D01*
X32016818Y-1471225D01*
X31926741Y-1586201D01*
X31922358Y-1591487D01*
X31821451Y-1706550D01*
X31815904Y-1712472D01*
X31712472Y-1815904D01*
X31706550Y-1821451D01*
X31591487Y-1922358D01*
X31586201Y-1926741D01*
X31471225Y-2016818D01*
X31463643Y-2022309D01*
X31335926Y-2107648D01*
X31331185Y-2110663D01*
X31206764Y-2185878D01*
X31197458Y-2190973D01*
X31058462Y-2259519D01*
X31054509Y-2261383D01*
X30923248Y-2320458D01*
X30912215Y-2324801D01*
X30762645Y-2375573D01*
X30759678Y-2376539D01*
X30625120Y-2418470D01*
X30612420Y-2421702D01*
X30450166Y-2453976D01*
X30448326Y-2454328D01*
X30317044Y-2478386D01*
X30302803Y-2480151D01*
X30099170Y-2493498D01*
X30098548Y-2493538D01*
X30003736Y-2499274D01*
X29996248Y-2499500D01*
X26836298Y-2499500D01*
X26769259Y-2479815D01*
X26723504Y-2427011D01*
X26713560Y-2357853D01*
X26742585Y-2294297D01*
X26757634Y-2279646D01*
X26816410Y-2231410D01*
X26831357Y-2213197D01*
X26947685Y-2071450D01*
X27045232Y-1888954D01*
X27105300Y-1690934D01*
X27120500Y-1536608D01*
X27120500Y-56330D01*
X28745710Y-56330D01*
X28775925Y-279387D01*
X28775926Y-279390D01*
X28845483Y-493465D01*
X28952146Y-691678D01*
X28952148Y-691681D01*
X29092489Y-867663D01*
X29092491Y-867664D01*
X29092492Y-867666D01*
X29262004Y-1015765D01*
X29455236Y-1131215D01*
X29631740Y-1197458D01*
X29665976Y-1210307D01*
X29887450Y-1250500D01*
X29887453Y-1250500D01*
X30056148Y-1250500D01*
X30056155Y-1250500D01*
X30224188Y-1235377D01*
X30312939Y-1210883D01*
X30441160Y-1175496D01*
X30441162Y-1175495D01*
X30441170Y-1175493D01*
X30643973Y-1077829D01*
X30826078Y-945522D01*
X30981632Y-782825D01*
X31105635Y-594968D01*
X31194103Y-387988D01*
X31244191Y-168537D01*
X31254290Y56330D01*
X31224075Y279387D01*
X31154517Y493464D01*
X31047852Y691681D01*
X30907508Y867666D01*
X30737996Y1015765D01*
X30544764Y1131215D01*
X30426775Y1175497D01*
X30334023Y1210308D01*
X30112550Y1250500D01*
X30112547Y1250500D01*
X29943845Y1250500D01*
X29905399Y1247040D01*
X29775813Y1235378D01*
X29775807Y1235377D01*
X29558839Y1175497D01*
X29558826Y1175492D01*
X29356033Y1077833D01*
X29356025Y1077829D01*
X29173927Y945527D01*
X29173925Y945526D01*
X29018366Y782824D01*
X28894363Y594967D01*
X28805899Y387996D01*
X28805895Y387983D01*
X28755810Y168543D01*
X28755808Y168532D01*
X28745880Y-52539D01*
X28745710Y-56330D01*
X27120500Y-56330D01*
X27120500Y66608D01*
X27105300Y220934D01*
X27045232Y418954D01*
X26947685Y601450D01*
X26895702Y664791D01*
X26816410Y761411D01*
X26656452Y892683D01*
X26656453Y892683D01*
X26656450Y892685D01*
X26473954Y990232D01*
X26275934Y1050300D01*
X26275932Y1050301D01*
X26275934Y1050301D01*
X26070000Y1070583D01*
X25864067Y1050301D01*
X25666043Y990231D01*
X25582400Y945522D01*
X25483550Y892685D01*
X25483548Y892684D01*
X25483547Y892683D01*
X25323589Y761411D01*
X25192317Y601453D01*
X25192315Y601450D01*
X25188850Y594967D01*
X25094769Y418957D01*
X25034699Y220933D01*
X25019500Y66605D01*
X25019500Y14500D01*
X24999815Y-52539D01*
X24947011Y-98294D01*
X24895500Y-109500D01*
X18604500Y-109500D01*
X18537461Y-89815D01*
X18491706Y-37011D01*
X18480500Y14500D01*
X18480500Y66605D01*
X18465300Y220933D01*
X18458809Y242331D01*
X18405232Y418954D01*
X18307685Y601450D01*
X18255702Y664791D01*
X18176410Y761411D01*
X18016452Y892683D01*
X18016453Y892683D01*
X18016450Y892685D01*
X17833954Y990232D01*
X17635934Y1050300D01*
X17635932Y1050301D01*
X17635934Y1050301D01*
X17430000Y1070583D01*
X17224067Y1050301D01*
X17026043Y990231D01*
X16942400Y945522D01*
X16843550Y892685D01*
X16843548Y892684D01*
X16843547Y892683D01*
X16683589Y761411D01*
X16552317Y601453D01*
X16552315Y601450D01*
X16548850Y594967D01*
X16454769Y418957D01*
X16394699Y220933D01*
X16379500Y66605D01*
X16379500Y-1536604D01*
X16394699Y-1690932D01*
X16394700Y-1690934D01*
X16454768Y-1888954D01*
X16552315Y-2071450D01*
X16552317Y-2071452D01*
X16683589Y-2231410D01*
X16742366Y-2279646D01*
X16781701Y-2337392D01*
X16783572Y-2407236D01*
X16747385Y-2467005D01*
X16684629Y-2497721D01*
X16663702Y-2499500D01*
X3752Y-2499500D01*
X-3736Y-2499274D01*
X-98550Y-2493538D01*
X-99172Y-2493498D01*
X-302805Y-2480151D01*
X-317046Y-2478386D01*
X-448328Y-2454328D01*
X-450168Y-2453976D01*
X-612422Y-2421702D01*
X-625122Y-2418470D01*
X-759680Y-2376539D01*
X-762647Y-2375573D01*
X-912217Y-2324801D01*
X-923250Y-2320458D01*
X-1054511Y-2261383D01*
X-1058464Y-2259519D01*
X-1197460Y-2190973D01*
X-1206766Y-2185878D01*
X-1331187Y-2110663D01*
X-1335928Y-2107648D01*
X-1463645Y-2022309D01*
X-1471227Y-2016818D01*
X-1586203Y-1926741D01*
X-1591489Y-1922358D01*
X-1706552Y-1821451D01*
X-1712474Y-1815904D01*
X-1815906Y-1712472D01*
X-1821453Y-1706550D01*
X-1835150Y-1690932D01*
X-1922360Y-1591487D01*
X-1926743Y-1586201D01*
X-2016820Y-1471225D01*
X-2022311Y-1463643D01*
X-2107650Y-1335926D01*
X-2110665Y-1331185D01*
X-2164377Y-1242335D01*
X-2185881Y-1206762D01*
X-2190975Y-1197458D01*
X-2259543Y-1058416D01*
X-2261363Y-1054556D01*
X-2320462Y-923244D01*
X-2324803Y-912215D01*
X-2368726Y-782823D01*
X-2375575Y-762645D01*
X-2376541Y-759678D01*
X-2397731Y-691678D01*
X-2418477Y-625102D01*
X-2421699Y-612440D01*
X-2454009Y-450007D01*
X-2454305Y-448459D01*
X-2478390Y-317032D01*
X-2480153Y-302818D01*
X-2493507Y-99066D01*
X-2493540Y-98535D01*
X-2493555Y-98294D01*
X-2496093Y-56330D01*
X-1254290Y-56330D01*
X-1224075Y-279387D01*
X-1224074Y-279390D01*
X-1154517Y-493465D01*
X-1047854Y-691678D01*
X-1047852Y-691681D01*
X-907511Y-867663D01*
X-907509Y-867664D01*
X-907508Y-867666D01*
X-737996Y-1015765D01*
X-544764Y-1131215D01*
X-368260Y-1197458D01*
X-334024Y-1210307D01*
X-112550Y-1250500D01*
X-112547Y-1250500D01*
X56148Y-1250500D01*
X56155Y-1250500D01*
X224188Y-1235377D01*
X312939Y-1210883D01*
X441160Y-1175496D01*
X441162Y-1175495D01*
X441170Y-1175493D01*
X643973Y-1077829D01*
X826078Y-945522D01*
X981632Y-782825D01*
X1105635Y-594968D01*
X1194103Y-387988D01*
X1244191Y-168537D01*
X1254290Y56330D01*
X1224075Y279387D01*
X1154517Y493464D01*
X1047852Y691681D01*
X907508Y867666D01*
X737996Y1015765D01*
X544764Y1131215D01*
X426775Y1175497D01*
X334023Y1210308D01*
X112550Y1250500D01*
X112547Y1250500D01*
X-56155Y1250500D01*
X-94601Y1247040D01*
X-224187Y1235378D01*
X-224193Y1235377D01*
X-441161Y1175497D01*
X-441174Y1175492D01*
X-643967Y1077833D01*
X-643975Y1077829D01*
X-826073Y945527D01*
X-826075Y945526D01*
X-981634Y782824D01*
X-1105637Y594967D01*
X-1194101Y387996D01*
X-1194105Y387983D01*
X-1244190Y168543D01*
X-1244192Y168532D01*
X-1254120Y-52539D01*
X-1254290Y-56330D01*
X-2496093Y-56330D01*
X-2499274Y-3735D01*
X-2499500Y3751D01*
X-2499500Y8940000D01*
X-2205341Y8940000D01*
X-2186025Y8743871D01*
X-2186024Y8743868D01*
X-2133200Y8569730D01*
X-2128813Y8555271D01*
X-2127679Y8553150D01*
X-2127420Y8551906D01*
X-2126482Y8549641D01*
X-2126912Y8549464D01*
X-2113436Y8484747D01*
X-2137767Y8420386D01*
X-2143795Y8412334D01*
X-2143798Y8412329D01*
X-2194092Y8277483D01*
X-2198309Y8238256D01*
X-2200499Y8217877D01*
X-2200500Y8217865D01*
X-2200500Y7122130D01*
X-2200499Y7122124D01*
X-2194092Y7062517D01*
X-2143798Y6927672D01*
X-2143794Y6927665D01*
X-2121857Y6898362D01*
X-2057546Y6812454D01*
X-1942331Y6726204D01*
X-1942330Y6726204D01*
X-1937608Y6722669D01*
X-1895737Y6666735D01*
X-1888598Y6610441D01*
X-1905184Y6452623D01*
X-1905460Y6450000D01*
X-1885674Y6261744D01*
X-1885673Y6261741D01*
X-1827179Y6081715D01*
X-1783903Y6006758D01*
X-1767430Y5938857D01*
X-1783902Y5882759D01*
X-1827180Y5807799D01*
X-1885673Y5627775D01*
X-1885674Y5627771D01*
X-1905460Y5439515D01*
X-1885674Y5251259D01*
X-1885673Y5251256D01*
X-1827182Y5071238D01*
X-1827179Y5071231D01*
X-1732533Y4907299D01*
X-1616551Y4778488D01*
X-1605871Y4766627D01*
X-1456444Y4658062D01*
X-1413778Y4602732D01*
X-1407578Y4556497D01*
X-1405460Y4556497D01*
X-1405460Y4550002D01*
X-1405460Y4550000D01*
X-1401774Y4514926D01*
X-1389668Y4399744D01*
X-1402238Y4331014D01*
X-1419275Y4305582D01*
X-1507089Y4204237D01*
X-1507104Y4204217D01*
X-1584898Y4083167D01*
X-1584911Y4083144D01*
X-1645002Y3951562D01*
X-1645880Y3948120D01*
X-1685179Y3814283D01*
X-1685182Y3814273D01*
X-1705642Y3671962D01*
X-1705642Y3615603D01*
X-1705647Y3615586D01*
X-1705647Y3084444D01*
X-1705642Y3084397D01*
X-1705642Y3028038D01*
X-1689861Y2918278D01*
X-1686442Y2894501D01*
X-1686442Y2894498D01*
X-1685181Y2885724D01*
X-1644633Y2747632D01*
X-1644628Y2747619D01*
X-1584911Y2616857D01*
X-1584898Y2616834D01*
X-1507104Y2495784D01*
X-1507101Y2495780D01*
X-1507097Y2495774D01*
X-1507092Y2495769D01*
X-1507088Y2495763D01*
X-1504276Y2492518D01*
X-1412943Y2387113D01*
X-1412940Y2387110D01*
X-1304170Y2292861D01*
X-1243693Y2253995D01*
X-1183222Y2215132D01*
X-1183220Y2215132D01*
X-1183216Y2215129D01*
X-1052300Y2155342D01*
X-914345Y2114835D01*
X-771889Y2094353D01*
X-771886Y2094353D01*
X-150000Y2094353D01*
X-78039Y2099500D01*
X-65987Y2103040D01*
X-15449Y2104393D01*
X-15196Y2106738D01*
X1387Y2104956D01*
X52127Y2099500D01*
X1147872Y2099501D01*
X1207483Y2105909D01*
X1342331Y2156204D01*
X1457546Y2242454D01*
X1543796Y2357669D01*
X1594091Y2492517D01*
X1600500Y2552127D01*
X1600499Y4147872D01*
X1594091Y4207483D01*
X1589989Y4218480D01*
X1543797Y4342329D01*
X1543795Y4342332D01*
X1520176Y4373883D01*
X1495758Y4439347D01*
X1496120Y4461144D01*
X1505460Y4550000D01*
X1485674Y4738256D01*
X1461816Y4811681D01*
X1459822Y4881520D01*
X1495902Y4941353D01*
X1558603Y4972181D01*
X1579748Y4973997D01*
X9252744Y4973997D01*
X9319783Y4954312D01*
X9365538Y4901508D01*
X9375482Y4832350D01*
X9370675Y4811679D01*
X9318438Y4650910D01*
X9314326Y4638256D01*
X9294540Y4450000D01*
X9314326Y4261744D01*
X9314327Y4261741D01*
X9372818Y4081723D01*
X9372821Y4081716D01*
X9467467Y3917784D01*
X9560669Y3814273D01*
X9594129Y3777112D01*
X9747265Y3665852D01*
X9747270Y3665849D01*
X9920192Y3588858D01*
X9920197Y3588856D01*
X10105354Y3549500D01*
X10105355Y3549500D01*
X10294644Y3549500D01*
X10294646Y3549500D01*
X10479803Y3588856D01*
X10652730Y3665849D01*
X10805871Y3777112D01*
X10932533Y3917784D01*
X10932537Y3917793D01*
X10936352Y3923041D01*
X10936822Y3922700D01*
X10956711Y3945496D01*
X10955898Y3946308D01*
X10961417Y3951829D01*
X10961420Y3951830D01*
X10975589Y3966001D01*
X10990379Y3978632D01*
X11006587Y3990406D01*
X11034438Y4024074D01*
X11042279Y4032691D01*
X11222820Y4213231D01*
X11284142Y4246715D01*
X11353834Y4241731D01*
X11409767Y4199859D01*
X11434184Y4134395D01*
X11434500Y4125549D01*
X11434500Y496845D01*
X11414815Y429806D01*
X11362011Y384051D01*
X11292853Y374107D01*
X11252048Y387486D01*
X11174731Y428812D01*
X11174730Y428813D01*
X11174727Y428814D01*
X10986132Y486024D01*
X10986129Y486025D01*
X10790000Y505341D01*
X10593870Y486025D01*
X10405266Y428812D01*
X10231467Y335914D01*
X10226399Y332527D01*
X10225305Y334164D01*
X10169337Y310404D01*
X10100471Y322205D01*
X10083843Y332891D01*
X10083601Y332527D01*
X10078532Y335914D01*
X9904733Y428812D01*
X9904727Y428814D01*
X9716132Y486024D01*
X9716129Y486025D01*
X9520000Y505341D01*
X9323870Y486025D01*
X9135266Y428812D01*
X8961467Y335914D01*
X8956399Y332527D01*
X8955305Y334164D01*
X8899337Y310404D01*
X8830471Y322205D01*
X8813843Y332891D01*
X8813601Y332527D01*
X8808532Y335914D01*
X8634733Y428812D01*
X8634727Y428814D01*
X8446132Y486024D01*
X8446129Y486025D01*
X8250000Y505341D01*
X8053870Y486025D01*
X7865266Y428812D01*
X7691467Y335914D01*
X7686399Y332527D01*
X7685305Y334164D01*
X7629337Y310404D01*
X7560471Y322205D01*
X7543843Y332891D01*
X7543601Y332527D01*
X7538532Y335914D01*
X7364733Y428812D01*
X7364727Y428814D01*
X7176132Y486024D01*
X7176129Y486025D01*
X6980000Y505341D01*
X6783870Y486025D01*
X6595266Y428812D01*
X6421467Y335914D01*
X6416399Y332527D01*
X6415305Y334164D01*
X6359337Y310404D01*
X6290471Y322205D01*
X6273843Y332891D01*
X6273601Y332527D01*
X6268532Y335914D01*
X6094733Y428812D01*
X6094727Y428814D01*
X5906132Y486024D01*
X5906129Y486025D01*
X5710000Y505341D01*
X5513870Y486025D01*
X5325266Y428812D01*
X5151467Y335914D01*
X5146399Y332527D01*
X5145305Y334164D01*
X5089337Y310404D01*
X5020471Y322205D01*
X5003843Y332891D01*
X5003601Y332527D01*
X4998532Y335914D01*
X4824733Y428812D01*
X4824727Y428814D01*
X4636132Y486024D01*
X4636129Y486025D01*
X4440000Y505341D01*
X4243870Y486025D01*
X4055266Y428812D01*
X3881467Y335914D01*
X3881460Y335910D01*
X3729116Y210884D01*
X3604090Y58540D01*
X3604086Y58533D01*
X3511188Y-115266D01*
X3453975Y-303870D01*
X3434659Y-500000D01*
X3453975Y-696129D01*
X3511188Y-884733D01*
X3604086Y-1058532D01*
X3604090Y-1058539D01*
X3729116Y-1210883D01*
X3881460Y-1335909D01*
X3881467Y-1335913D01*
X4055266Y-1428811D01*
X4055269Y-1428811D01*
X4055273Y-1428814D01*
X4243868Y-1486024D01*
X4440000Y-1505341D01*
X4636132Y-1486024D01*
X4824727Y-1428814D01*
X4998538Y-1335910D01*
X4998544Y-1335904D01*
X5003607Y-1332523D01*
X5004703Y-1334164D01*
X5060639Y-1310405D01*
X5129507Y-1322194D01*
X5146148Y-1332888D01*
X5146393Y-1332523D01*
X5151458Y-1335907D01*
X5151462Y-1335910D01*
X5296501Y-1413435D01*
X5323147Y-1427678D01*
X5325273Y-1428814D01*
X5513868Y-1486024D01*
X5710000Y-1505341D01*
X5906132Y-1486024D01*
X6094727Y-1428814D01*
X6268538Y-1335910D01*
X6268544Y-1335904D01*
X6273607Y-1332523D01*
X6274703Y-1334164D01*
X6330639Y-1310405D01*
X6399507Y-1322194D01*
X6416148Y-1332888D01*
X6416393Y-1332523D01*
X6421458Y-1335907D01*
X6421462Y-1335910D01*
X6566501Y-1413435D01*
X6593147Y-1427678D01*
X6595273Y-1428814D01*
X6783868Y-1486024D01*
X6980000Y-1505341D01*
X7176132Y-1486024D01*
X7364727Y-1428814D01*
X7538538Y-1335910D01*
X7538544Y-1335904D01*
X7543607Y-1332523D01*
X7544703Y-1334164D01*
X7600639Y-1310405D01*
X7669507Y-1322194D01*
X7686148Y-1332888D01*
X7686393Y-1332523D01*
X7691458Y-1335907D01*
X7691462Y-1335910D01*
X7836501Y-1413435D01*
X7863147Y-1427678D01*
X7865273Y-1428814D01*
X8053868Y-1486024D01*
X8250000Y-1505341D01*
X8446132Y-1486024D01*
X8634727Y-1428814D01*
X8808538Y-1335910D01*
X8808544Y-1335904D01*
X8813607Y-1332523D01*
X8814703Y-1334164D01*
X8870639Y-1310405D01*
X8939507Y-1322194D01*
X8956148Y-1332888D01*
X8956393Y-1332523D01*
X8961458Y-1335907D01*
X8961462Y-1335910D01*
X9106501Y-1413435D01*
X9133147Y-1427678D01*
X9135273Y-1428814D01*
X9323868Y-1486024D01*
X9520000Y-1505341D01*
X9716132Y-1486024D01*
X9904727Y-1428814D01*
X10078538Y-1335910D01*
X10078544Y-1335904D01*
X10083607Y-1332523D01*
X10084703Y-1334164D01*
X10140639Y-1310405D01*
X10209507Y-1322194D01*
X10226148Y-1332888D01*
X10226393Y-1332523D01*
X10231458Y-1335907D01*
X10231462Y-1335910D01*
X10376501Y-1413435D01*
X10403147Y-1427678D01*
X10405273Y-1428814D01*
X10593868Y-1486024D01*
X10790000Y-1505341D01*
X10986132Y-1486024D01*
X11174727Y-1428814D01*
X11348538Y-1335910D01*
X11348544Y-1335904D01*
X11353607Y-1332523D01*
X11354703Y-1334164D01*
X11410639Y-1310405D01*
X11479507Y-1322194D01*
X11496148Y-1332888D01*
X11496393Y-1332523D01*
X11501458Y-1335907D01*
X11501462Y-1335910D01*
X11646501Y-1413435D01*
X11673147Y-1427678D01*
X11675273Y-1428814D01*
X11863868Y-1486024D01*
X12060000Y-1505341D01*
X12256132Y-1486024D01*
X12444727Y-1428814D01*
X12446853Y-1427677D01*
X12448095Y-1427418D01*
X12450355Y-1426483D01*
X12450532Y-1426911D01*
X12515254Y-1413435D01*
X12579615Y-1437767D01*
X12587669Y-1443796D01*
X12587672Y-1443797D01*
X12722517Y-1494091D01*
X12722516Y-1494091D01*
X12729444Y-1494835D01*
X12782127Y-1500500D01*
X13877872Y-1500499D01*
X13937483Y-1494091D01*
X14072331Y-1443796D01*
X14187546Y-1357546D01*
X14273796Y-1242331D01*
X14324091Y-1107483D01*
X14330500Y-1047873D01*
X14330499Y47872D01*
X14324091Y107483D01*
X14301321Y168532D01*
X14273797Y242329D01*
X14273793Y242336D01*
X14187547Y357545D01*
X14187544Y357548D01*
X14072335Y443794D01*
X14072328Y443798D01*
X13937482Y494092D01*
X13937483Y494092D01*
X13877883Y500499D01*
X13877881Y500500D01*
X13877873Y500500D01*
X13877865Y500500D01*
X12809500Y500500D01*
X12742461Y520185D01*
X12696706Y572989D01*
X12685500Y624500D01*
X12685500Y2550000D01*
X15094540Y2550000D01*
X15114326Y2361744D01*
X15114327Y2361741D01*
X15172818Y2181723D01*
X15172821Y2181716D01*
X15267467Y2017784D01*
X15369185Y1904815D01*
X15394129Y1877112D01*
X15547265Y1765852D01*
X15547270Y1765849D01*
X15720192Y1688858D01*
X15720197Y1688856D01*
X15905354Y1649500D01*
X15905355Y1649500D01*
X16094644Y1649500D01*
X16094646Y1649500D01*
X16279803Y1688856D01*
X16452730Y1765849D01*
X16605871Y1877112D01*
X16608788Y1880353D01*
X16611600Y1883474D01*
X16671087Y1920121D01*
X16703748Y1924500D01*
X27096252Y1924500D01*
X27163291Y1904815D01*
X27188400Y1883474D01*
X27194126Y1877115D01*
X27194130Y1877111D01*
X27347265Y1765852D01*
X27347270Y1765849D01*
X27520192Y1688858D01*
X27520197Y1688856D01*
X27705354Y1649500D01*
X27705355Y1649500D01*
X27894644Y1649500D01*
X27894646Y1649500D01*
X28079803Y1688856D01*
X28252730Y1765849D01*
X28405871Y1877112D01*
X28532533Y2017784D01*
X28627179Y2181716D01*
X28685674Y2361744D01*
X28705460Y2550000D01*
X28685674Y2738256D01*
X28627179Y2918284D01*
X28532533Y3082216D01*
X28405871Y3222888D01*
X28405870Y3222889D01*
X28252734Y3334149D01*
X28252729Y3334152D01*
X28079807Y3411143D01*
X28079802Y3411145D01*
X27934001Y3442135D01*
X27894646Y3450500D01*
X27705354Y3450500D01*
X27672897Y3443602D01*
X27520197Y3411145D01*
X27520192Y3411143D01*
X27347270Y3334152D01*
X27347265Y3334149D01*
X27194130Y3222890D01*
X27194126Y3222886D01*
X27188400Y3216526D01*
X27128913Y3179879D01*
X27096252Y3175500D01*
X26911915Y3175500D01*
X26844876Y3195185D01*
X26799121Y3247989D01*
X26789177Y3317147D01*
X26816061Y3378164D01*
X26856710Y3427697D01*
X26947685Y3538550D01*
X27045232Y3721046D01*
X27105300Y3919066D01*
X27120500Y4073392D01*
X27120500Y5176608D01*
X27105300Y5330934D01*
X27045232Y5528954D01*
X26947685Y5711450D01*
X26868614Y5807799D01*
X26816410Y5871411D01*
X26656452Y6002683D01*
X26656453Y6002683D01*
X26656450Y6002685D01*
X26473954Y6100232D01*
X26275934Y6160300D01*
X26275932Y6160301D01*
X26275934Y6160301D01*
X26070000Y6180583D01*
X25864067Y6160301D01*
X25666043Y6100231D01*
X25631405Y6081716D01*
X25483550Y6002685D01*
X25483548Y6002684D01*
X25483547Y6002683D01*
X25323589Y5871411D01*
X25192317Y5711453D01*
X25192315Y5711450D01*
X25176422Y5681716D01*
X25094769Y5528957D01*
X25034699Y5330933D01*
X25026852Y5251256D01*
X25019500Y5176608D01*
X25019500Y4073392D01*
X25023508Y4032702D01*
X25034699Y3919068D01*
X25039800Y3902252D01*
X25094768Y3721046D01*
X25192315Y3538550D01*
X25192317Y3538548D01*
X25323939Y3378164D01*
X25351251Y3313854D01*
X25339460Y3244987D01*
X25292307Y3193427D01*
X25228085Y3175500D01*
X18271915Y3175500D01*
X18204876Y3195185D01*
X18159121Y3247989D01*
X18149177Y3317147D01*
X18176061Y3378164D01*
X18216710Y3427697D01*
X18307685Y3538550D01*
X18405232Y3721046D01*
X18465300Y3919066D01*
X18480500Y4073392D01*
X18480500Y5176608D01*
X18465300Y5330934D01*
X18405232Y5528954D01*
X18372938Y5589372D01*
X21069539Y5589372D01*
X21089311Y5426530D01*
X21089312Y5426527D01*
X21147483Y5273143D01*
X21152549Y5265805D01*
X21174433Y5199451D01*
X21174500Y5195364D01*
X21174500Y4514926D01*
X21173439Y4498741D01*
X21169535Y4469089D01*
X21173969Y4435404D01*
X21173988Y4435251D01*
X21189313Y4318851D01*
X21189314Y4318847D01*
X21204938Y4281128D01*
X21247301Y4178854D01*
X21318848Y4085612D01*
X21318857Y4085601D01*
X21326929Y4075082D01*
X21344494Y4043569D01*
X21398088Y3902254D01*
X21491274Y3767251D01*
X21491276Y3767249D01*
X21491278Y3767247D01*
X21614057Y3658474D01*
X21614058Y3658474D01*
X21614060Y3658472D01*
X21759311Y3582238D01*
X21759313Y3582238D01*
X21759314Y3582237D01*
X21918584Y3542980D01*
X21918585Y3542980D01*
X22082628Y3542980D01*
X22241897Y3582237D01*
X22241897Y3582238D01*
X22241901Y3582238D01*
X22387152Y3658472D01*
X22509938Y3767251D01*
X22603124Y3902254D01*
X22661294Y4055635D01*
X22681067Y4218480D01*
X22661294Y4381325D01*
X22603124Y4534706D01*
X22509938Y4669709D01*
X22509935Y4669712D01*
X22509933Y4669714D01*
X22387156Y4778485D01*
X22380981Y4782747D01*
X22382553Y4785026D01*
X22341654Y4824608D01*
X22325500Y4885806D01*
X22325500Y5195364D01*
X22345185Y5262403D01*
X22347451Y5265805D01*
X22352516Y5273143D01*
X22352516Y5273144D01*
X22352518Y5273146D01*
X22410688Y5426527D01*
X22430461Y5589372D01*
X22410688Y5752217D01*
X22352518Y5905598D01*
X22259332Y6040601D01*
X22259329Y6040604D01*
X22259327Y6040606D01*
X22136548Y6149379D01*
X21991291Y6225616D01*
X21832022Y6264872D01*
X21832021Y6264872D01*
X21667979Y6264872D01*
X21667978Y6264872D01*
X21508708Y6225616D01*
X21363451Y6149379D01*
X21240672Y6040606D01*
X21240666Y6040599D01*
X21147483Y5905601D01*
X21089312Y5752218D01*
X21089311Y5752215D01*
X21069539Y5589373D01*
X21069539Y5589372D01*
X18372938Y5589372D01*
X18307685Y5711450D01*
X18228614Y5807799D01*
X18176410Y5871411D01*
X18016452Y6002683D01*
X18016453Y6002683D01*
X18016450Y6002685D01*
X17833954Y6100232D01*
X17635934Y6160300D01*
X17635932Y6160301D01*
X17635934Y6160301D01*
X17430000Y6180583D01*
X17224067Y6160301D01*
X17026043Y6100231D01*
X16991405Y6081716D01*
X16843550Y6002685D01*
X16843548Y6002684D01*
X16843547Y6002683D01*
X16683589Y5871411D01*
X16552317Y5711453D01*
X16552315Y5711450D01*
X16536422Y5681716D01*
X16454769Y5528957D01*
X16394699Y5330933D01*
X16386852Y5251256D01*
X16379500Y5176608D01*
X16379500Y4073392D01*
X16383508Y4032702D01*
X16394699Y3919068D01*
X16399800Y3902252D01*
X16454768Y3721046D01*
X16552315Y3538550D01*
X16552316Y3538549D01*
X16555187Y3533178D01*
X16553394Y3532220D01*
X16571488Y3474409D01*
X16552994Y3407032D01*
X16501009Y3360348D01*
X16432038Y3349181D01*
X16397071Y3358933D01*
X16279807Y3411143D01*
X16279802Y3411145D01*
X16134001Y3442135D01*
X16094646Y3450500D01*
X15905354Y3450500D01*
X15872897Y3443602D01*
X15720197Y3411145D01*
X15720192Y3411143D01*
X15547270Y3334152D01*
X15547265Y3334149D01*
X15394129Y3222889D01*
X15267466Y3082215D01*
X15172821Y2918285D01*
X15172818Y2918278D01*
X15117368Y2747619D01*
X15114326Y2738256D01*
X15094540Y2550000D01*
X12685500Y2550000D01*
X12685500Y4599549D01*
X12705185Y4666588D01*
X12721815Y4687226D01*
X13467920Y5433332D01*
X13529241Y5466815D01*
X13598932Y5461831D01*
X13647748Y5428622D01*
X13694128Y5377113D01*
X13694129Y5377112D01*
X13847265Y5265852D01*
X13847270Y5265849D01*
X14020192Y5188858D01*
X14020197Y5188856D01*
X14205354Y5149500D01*
X14205355Y5149500D01*
X14394644Y5149500D01*
X14394646Y5149500D01*
X14579803Y5188856D01*
X14752730Y5265849D01*
X14905871Y5377112D01*
X15032533Y5517784D01*
X15127179Y5681716D01*
X15185674Y5861744D01*
X15205460Y6050000D01*
X15185674Y6238256D01*
X15156960Y6326625D01*
X15154966Y6396465D01*
X15187209Y6452621D01*
X17922772Y9188181D01*
X17984095Y9221666D01*
X18010453Y9224500D01*
X19096252Y9224500D01*
X19163291Y9204815D01*
X19188400Y9183474D01*
X19194126Y9177115D01*
X19194130Y9177111D01*
X19347265Y9065852D01*
X19347267Y9065851D01*
X19347270Y9065849D01*
X19353043Y9063279D01*
X19406280Y9018028D01*
X19426600Y8951178D01*
X19407554Y8883955D01*
X19355187Y8837700D01*
X19353072Y8836735D01*
X19350151Y8835434D01*
X19347267Y8834150D01*
X19347265Y8834149D01*
X19194129Y8722889D01*
X19067466Y8582215D01*
X18972821Y8418285D01*
X18972818Y8418278D01*
X18914327Y8238260D01*
X18914326Y8238256D01*
X18894540Y8050000D01*
X18914326Y7861744D01*
X18914327Y7861741D01*
X18972818Y7681723D01*
X18972821Y7681716D01*
X19067467Y7517784D01*
X19194129Y7377112D01*
X19347265Y7265852D01*
X19347270Y7265849D01*
X19520192Y7188858D01*
X19520197Y7188856D01*
X19705354Y7149500D01*
X19705355Y7149500D01*
X19894644Y7149500D01*
X19894646Y7149500D01*
X20079803Y7188856D01*
X20252730Y7265849D01*
X20405871Y7377112D01*
X20532533Y7517784D01*
X20627179Y7681716D01*
X20685674Y7861744D01*
X20705460Y8050000D01*
X20702932Y8074053D01*
X20715502Y8142782D01*
X20738569Y8174691D01*
X21074527Y8510649D01*
X21086706Y8521330D01*
X21110451Y8539549D01*
X21127394Y8561630D01*
X21127405Y8561642D01*
X21161926Y8606633D01*
X21202698Y8659767D01*
X21260687Y8799764D01*
X21261463Y8805661D01*
X21275500Y8912280D01*
X21275500Y8912286D01*
X21280465Y8950000D01*
X21280439Y8950194D01*
X21276561Y8979655D01*
X21275500Y8995840D01*
X21275500Y9858756D01*
X21276561Y9874942D01*
X21280465Y9904596D01*
X21280465Y9904597D01*
X21276031Y9938276D01*
X21276030Y9938290D01*
X21272535Y9964838D01*
X21260687Y10054831D01*
X21202698Y10194828D01*
X21202697Y10194829D01*
X21202697Y10194830D01*
X21188545Y10213273D01*
X21131155Y10288066D01*
X21131138Y10288087D01*
X21110449Y10315048D01*
X21086717Y10333258D01*
X21074522Y10343953D01*
X20518954Y10899521D01*
X20508260Y10911714D01*
X20500780Y10921462D01*
X20490046Y10935451D01*
X20490043Y10935453D01*
X20490042Y10935455D01*
X20463094Y10956133D01*
X20463085Y10956140D01*
X20419248Y10989777D01*
X20369828Y11027698D01*
X20369825Y11027699D01*
X20369823Y11027701D01*
X20326953Y11045458D01*
X20326952Y11045458D01*
X20229831Y11085687D01*
X20206685Y11088735D01*
X20113430Y11101012D01*
X20113277Y11101031D01*
X20102244Y11102484D01*
X20079595Y11105465D01*
X20079593Y11105465D01*
X20079592Y11105465D01*
X20049940Y11101561D01*
X20033755Y11100500D01*
X19471462Y11100500D01*
X19404423Y11120185D01*
X19358668Y11172989D01*
X19348724Y11242147D01*
X19353531Y11262818D01*
X19364777Y11297430D01*
X19385674Y11361744D01*
X19403321Y11529655D01*
X19429905Y11594268D01*
X19438944Y11604356D01*
X19596136Y11761549D01*
X19608388Y11771361D01*
X19608205Y11771583D01*
X19614217Y11776558D01*
X19614224Y11776562D01*
X19660296Y11825626D01*
X19662913Y11828325D01*
X19682467Y11847877D01*
X19684923Y11851045D01*
X19692503Y11859921D01*
X19722409Y11891766D01*
X19732060Y11909324D01*
X19742743Y11925587D01*
X19755020Y11941412D01*
X19772368Y11981504D01*
X19777498Y11991977D01*
X19798544Y12030256D01*
X19803527Y12049668D01*
X19809828Y12068068D01*
X19817784Y12086452D01*
X19824617Y12129600D01*
X19826980Y12141010D01*
X19837847Y12183329D01*
X19837847Y12203365D01*
X19839374Y12222766D01*
X19839864Y12225858D01*
X19842507Y12242544D01*
X19838397Y12286024D01*
X19837847Y12297693D01*
X19837847Y12340805D01*
X19857532Y12407844D01*
X19874166Y12428486D01*
X22233862Y14788181D01*
X22295185Y14821666D01*
X22321543Y14824500D01*
X24489548Y14824500D01*
X24556587Y14804815D01*
X24577229Y14788181D01*
X24586471Y14778939D01*
X24619956Y14717616D01*
X24614972Y14647924D01*
X24590941Y14608287D01*
X24567468Y14582218D01*
X24567464Y14582213D01*
X24472821Y14418285D01*
X24472818Y14418278D01*
X24424700Y14270185D01*
X24414326Y14238256D01*
X24394540Y14050000D01*
X24414326Y13861744D01*
X24414327Y13861741D01*
X24472818Y13681723D01*
X24472821Y13681716D01*
X24567467Y13517784D01*
X24687027Y13385000D01*
X24694129Y13377112D01*
X24847265Y13265852D01*
X24847270Y13265849D01*
X25020192Y13188858D01*
X25020197Y13188856D01*
X25205354Y13149500D01*
X25205355Y13149500D01*
X25394644Y13149500D01*
X25394646Y13149500D01*
X25579803Y13188856D01*
X25752730Y13265849D01*
X25905871Y13377112D01*
X26032533Y13517784D01*
X26127179Y13681716D01*
X26185674Y13861744D01*
X26205460Y14050000D01*
X26185674Y14238256D01*
X26127179Y14418284D01*
X26032533Y14582216D01*
X25979929Y14640639D01*
X25957350Y14665716D01*
X25927120Y14728708D01*
X25925500Y14748688D01*
X25925500Y14867258D01*
X25927224Y14882878D01*
X25926939Y14882904D01*
X25927671Y14890660D01*
X25927673Y14890667D01*
X25925561Y14957874D01*
X25925500Y14961769D01*
X25925500Y14989346D01*
X25925500Y14989350D01*
X25924996Y14993335D01*
X25924080Y15004979D01*
X25922709Y15048627D01*
X25917122Y15067856D01*
X25913174Y15086916D01*
X25910663Y15106796D01*
X25894588Y15147396D01*
X25890804Y15158448D01*
X25878618Y15200391D01*
X25878616Y15200394D01*
X25868423Y15217629D01*
X25859861Y15235106D01*
X25852487Y15253731D01*
X25826816Y15289063D01*
X25820405Y15298823D01*
X25798170Y15336420D01*
X25798168Y15336422D01*
X25798165Y15336426D01*
X25784006Y15350585D01*
X25771368Y15365381D01*
X25759594Y15381587D01*
X25725940Y15409428D01*
X25717299Y15417291D01*
X25522271Y15612320D01*
X25488786Y15673643D01*
X25493770Y15743335D01*
X25522271Y15787682D01*
X25683787Y15949198D01*
X25696042Y15959014D01*
X25695859Y15959236D01*
X25701868Y15964209D01*
X25701877Y15964214D01*
X25747949Y16013278D01*
X25750566Y16015977D01*
X25770120Y16035529D01*
X25772576Y16038697D01*
X25780156Y16047573D01*
X25810062Y16079418D01*
X25819713Y16096976D01*
X25830396Y16113239D01*
X25842673Y16129064D01*
X25860021Y16169156D01*
X25865151Y16179629D01*
X25886197Y16217908D01*
X25891180Y16237320D01*
X25897481Y16255720D01*
X25905437Y16274104D01*
X25912270Y16317252D01*
X25914633Y16328662D01*
X25925500Y16370981D01*
X25925500Y16391017D01*
X25927027Y16410418D01*
X25930160Y16430196D01*
X25928961Y16442878D01*
X25942249Y16511471D01*
X25960262Y16537520D01*
X26032533Y16617784D01*
X26127179Y16781716D01*
X26185674Y16961744D01*
X26205460Y17150000D01*
X26185674Y17338256D01*
X26127179Y17518284D01*
X26032533Y17682216D01*
X25905871Y17822888D01*
X25905870Y17822889D01*
X25752734Y17934149D01*
X25752729Y17934152D01*
X25579807Y18011143D01*
X25579802Y18011145D01*
X25434001Y18042135D01*
X25394646Y18050500D01*
X25205354Y18050500D01*
X25172897Y18043602D01*
X25020197Y18011145D01*
X25020192Y18011143D01*
X24847270Y17934152D01*
X24847265Y17934149D01*
X24694129Y17822889D01*
X24567466Y17682215D01*
X24472821Y17518285D01*
X24472818Y17518278D01*
X24429402Y17384656D01*
X24414326Y17338256D01*
X24394540Y17150000D01*
X24414326Y16961744D01*
X24414327Y16961741D01*
X24472818Y16781723D01*
X24472823Y16781711D01*
X24513360Y16711499D01*
X24529833Y16643599D01*
X24506980Y16577572D01*
X24452059Y16534382D01*
X24405973Y16525500D01*
X21907431Y16525500D01*
X21891814Y16527224D01*
X21891787Y16526938D01*
X21884025Y16527673D01*
X21816838Y16525561D01*
X21812944Y16525500D01*
X21785344Y16525500D01*
X21781656Y16525035D01*
X21781343Y16524995D01*
X21769725Y16524082D01*
X21726066Y16522710D01*
X21726063Y16522709D01*
X21706820Y16517119D01*
X21687777Y16513175D01*
X21667898Y16510664D01*
X21667897Y16510663D01*
X21627287Y16494585D01*
X21616242Y16490803D01*
X21574302Y16478617D01*
X21574298Y16478615D01*
X21557059Y16468420D01*
X21539592Y16459863D01*
X21520963Y16452488D01*
X21520961Y16452486D01*
X21485620Y16426811D01*
X21475862Y16420401D01*
X21438274Y16398172D01*
X21424102Y16384000D01*
X21409317Y16371372D01*
X21408779Y16370981D01*
X21398990Y16363868D01*
X21393106Y16359593D01*
X21365265Y16325941D01*
X21357405Y16317304D01*
X18539575Y13499472D01*
X18478252Y13465987D01*
X18451894Y13463153D01*
X18392701Y13463153D01*
X18360926Y13456399D01*
X18207544Y13423798D01*
X18207539Y13423796D01*
X18034617Y13346805D01*
X18034612Y13346802D01*
X17881476Y13235542D01*
X17754813Y13094868D01*
X17660168Y12930938D01*
X17660165Y12930931D01*
X17603091Y12755274D01*
X17601673Y12750909D01*
X17581887Y12562653D01*
X17601673Y12374397D01*
X17601674Y12374394D01*
X17660165Y12194376D01*
X17660168Y12194369D01*
X17690968Y12141021D01*
X17710397Y12107370D01*
X17726870Y12039470D01*
X17710398Y11983371D01*
X17672820Y11918284D01*
X17621891Y11761540D01*
X17614326Y11738256D01*
X17604960Y11649145D01*
X17604532Y11645069D01*
X17577947Y11580454D01*
X17520650Y11540470D01*
X17450830Y11537810D01*
X17393530Y11570350D01*
X16214356Y12749524D01*
X16203662Y12761717D01*
X16198681Y12768208D01*
X16185448Y12785454D01*
X16185445Y12785456D01*
X16185444Y12785458D01*
X16158496Y12806136D01*
X16158486Y12806144D01*
X16065231Y12877700D01*
X16065230Y12877701D01*
X16051015Y12883589D01*
X15925233Y12935690D01*
X15902087Y12938738D01*
X15808832Y12951015D01*
X15808679Y12951034D01*
X15797646Y12952487D01*
X15774997Y12955468D01*
X15774995Y12955468D01*
X15774994Y12955468D01*
X15745342Y12951564D01*
X15729157Y12950503D01*
X11364739Y12950503D01*
X11297700Y12970188D01*
X11277058Y12986822D01*
X11038572Y13225308D01*
X11005087Y13286631D01*
X11002932Y13325951D01*
X11003407Y13330471D01*
X11005460Y13350000D01*
X10985674Y13538256D01*
X10927179Y13718284D01*
X10832533Y13882216D01*
X10705871Y14022888D01*
X10705870Y14022889D01*
X10552734Y14134149D01*
X10552729Y14134152D01*
X10379807Y14211143D01*
X10379802Y14211145D01*
X10234001Y14242135D01*
X10194646Y14250500D01*
X10124500Y14250500D01*
X10057461Y14270185D01*
X10011706Y14322989D01*
X10000500Y14374500D01*
X10000500Y14814548D01*
X10020185Y14881587D01*
X10036819Y14902229D01*
X13647771Y18513181D01*
X13709094Y18546666D01*
X13735452Y18549500D01*
X13794644Y18549500D01*
X13794646Y18549500D01*
X13979803Y18588856D01*
X14152730Y18665849D01*
X14305871Y18777112D01*
X14432533Y18917784D01*
X14527179Y19081716D01*
X14585674Y19261744D01*
X14605460Y19450000D01*
X14585674Y19638256D01*
X14527179Y19818284D01*
X14432533Y19982216D01*
X14305871Y20122888D01*
X14305870Y20122889D01*
X14152734Y20234149D01*
X14152729Y20234152D01*
X13979807Y20311143D01*
X13979802Y20311145D01*
X13834001Y20342135D01*
X13794646Y20350500D01*
X13605354Y20350500D01*
X13572897Y20343602D01*
X13420197Y20311145D01*
X13420192Y20311143D01*
X13247270Y20234152D01*
X13247265Y20234149D01*
X13094129Y20122889D01*
X12967466Y19982215D01*
X12872821Y19818285D01*
X12872818Y19818278D01*
X12814327Y19638260D01*
X12814326Y19638256D01*
X12806405Y19562895D01*
X12796678Y19470349D01*
X12770093Y19405734D01*
X12761038Y19395630D01*
X8991208Y15625801D01*
X8978951Y15615980D01*
X8979134Y15615759D01*
X8973122Y15610786D01*
X8927098Y15561777D01*
X8924391Y15558984D01*
X8904889Y15539483D01*
X8904875Y15539466D01*
X8902407Y15536285D01*
X8894843Y15527430D01*
X8864937Y15495582D01*
X8864936Y15495580D01*
X8855284Y15478024D01*
X8844610Y15461774D01*
X8832329Y15445939D01*
X8832324Y15445932D01*
X8814975Y15405842D01*
X8809838Y15395356D01*
X8788803Y15357094D01*
X8783822Y15337693D01*
X8777521Y15319290D01*
X8769562Y15300898D01*
X8769561Y15300895D01*
X8762728Y15257757D01*
X8760360Y15246326D01*
X8749501Y15204029D01*
X8749500Y15204018D01*
X8749500Y15183984D01*
X8747973Y15164585D01*
X8744840Y15144806D01*
X8744840Y15144805D01*
X8748950Y15101326D01*
X8749500Y15089657D01*
X8749500Y13007745D01*
X8747775Y12992128D01*
X8748061Y12992101D01*
X8747326Y12984335D01*
X8749439Y12917128D01*
X8749500Y12913233D01*
X8749500Y12885643D01*
X8750003Y12881665D01*
X8750918Y12870033D01*
X8752290Y12826376D01*
X8752291Y12826373D01*
X8757880Y12807133D01*
X8761824Y12788089D01*
X8764336Y12768208D01*
X8780414Y12727597D01*
X8784197Y12716548D01*
X8796381Y12674612D01*
X8806580Y12657366D01*
X8815138Y12639897D01*
X8822514Y12621268D01*
X8848181Y12585940D01*
X8854593Y12576179D01*
X8876828Y12538583D01*
X8876833Y12538576D01*
X8890990Y12524420D01*
X8903628Y12509624D01*
X8915405Y12493414D01*
X8915406Y12493413D01*
X8949057Y12465575D01*
X8957698Y12457712D01*
X9128229Y12287181D01*
X9161714Y12225858D01*
X9156730Y12156166D01*
X9114858Y12100233D01*
X9049394Y12075816D01*
X9040548Y12075500D01*
X630760Y12075500D01*
X563721Y12095185D01*
X538613Y12116524D01*
X505871Y12152888D01*
X505869Y12152890D01*
X505866Y12152893D01*
X505864Y12152894D01*
X352734Y12264149D01*
X352729Y12264152D01*
X179807Y12341143D01*
X179802Y12341145D01*
X34001Y12372135D01*
X-5354Y12380500D01*
X-99372Y12380500D01*
X-166411Y12400185D01*
X-212166Y12452989D01*
X-222110Y12522147D01*
X-218032Y12540496D01*
X-216613Y12545179D01*
X-213976Y12553868D01*
X-194659Y12750000D01*
X-213976Y12946132D01*
X-271186Y13134727D01*
X-364090Y13308538D01*
X-364093Y13308542D01*
X-367477Y13313607D01*
X-365836Y13314704D01*
X-389595Y13370639D01*
X-377806Y13439507D01*
X-367112Y13456149D01*
X-367477Y13456393D01*
X-364096Y13461456D01*
X-364090Y13461462D01*
X-271186Y13635273D01*
X-213976Y13823868D01*
X-194659Y14020000D01*
X-213976Y14216132D01*
X-271186Y14404727D01*
X-364090Y14578538D01*
X-364093Y14578542D01*
X-367477Y14583607D01*
X-365836Y14584704D01*
X-389595Y14640639D01*
X-377806Y14709507D01*
X-367112Y14726149D01*
X-367477Y14726393D01*
X-364096Y14731456D01*
X-364090Y14731462D01*
X-271186Y14905273D01*
X-213976Y15093868D01*
X-194659Y15290000D01*
X-213976Y15486132D01*
X-271186Y15674727D01*
X-364090Y15848538D01*
X-364093Y15848542D01*
X-367477Y15853607D01*
X-365836Y15854704D01*
X-389595Y15910639D01*
X-377806Y15979507D01*
X-367112Y15996149D01*
X-367477Y15996393D01*
X-364096Y16001456D01*
X-364090Y16001462D01*
X-271186Y16175273D01*
X-213976Y16363868D01*
X-194659Y16560000D01*
X-213976Y16756132D01*
X-271186Y16944727D01*
X-271189Y16944731D01*
X-271189Y16944734D01*
X-364087Y17118533D01*
X-364091Y17118540D01*
X-489117Y17270884D01*
X-641461Y17395910D01*
X-641468Y17395914D01*
X-815267Y17488812D01*
X-815273Y17488814D01*
X-1003868Y17546024D01*
X-1003871Y17546025D01*
X-1200000Y17565341D01*
X-1396130Y17546025D01*
X-1584734Y17488812D01*
X-1758533Y17395914D01*
X-1758540Y17395910D01*
X-1910884Y17270884D01*
X-2035910Y17118540D01*
X-2035914Y17118533D01*
X-2128812Y16944734D01*
X-2186025Y16756130D01*
X-2205341Y16560000D01*
X-2186025Y16363871D01*
X-2128812Y16175267D01*
X-2035914Y16001468D01*
X-2032527Y15996399D01*
X-2034164Y15995306D01*
X-2010404Y15939337D01*
X-2022205Y15870471D01*
X-2032891Y15853844D01*
X-2032527Y15853601D01*
X-2035914Y15848533D01*
X-2128812Y15674734D01*
X-2186025Y15486130D01*
X-2205341Y15290000D01*
X-2186025Y15093871D01*
X-2128812Y14905267D01*
X-2035914Y14731468D01*
X-2032527Y14726399D01*
X-2034164Y14725306D01*
X-2010404Y14669337D01*
X-2022205Y14600471D01*
X-2032891Y14583844D01*
X-2032527Y14583601D01*
X-2035914Y14578533D01*
X-2128812Y14404734D01*
X-2186025Y14216130D01*
X-2205341Y14020000D01*
X-2186025Y13823871D01*
X-2186024Y13823868D01*
X-2142905Y13681723D01*
X-2128812Y13635267D01*
X-2035914Y13461468D01*
X-2032527Y13456399D01*
X-2034164Y13455306D01*
X-2010404Y13399337D01*
X-2022205Y13330471D01*
X-2032891Y13313844D01*
X-2032527Y13313601D01*
X-2035914Y13308533D01*
X-2128812Y13134734D01*
X-2186025Y12946130D01*
X-2205341Y12750000D01*
X-2186025Y12553871D01*
X-2174997Y12517516D01*
X-2139405Y12400185D01*
X-2128812Y12365267D01*
X-2035914Y12191468D01*
X-2032527Y12186399D01*
X-2034164Y12185306D01*
X-2010404Y12129337D01*
X-2022205Y12060471D01*
X-2032891Y12043844D01*
X-2032527Y12043601D01*
X-2035914Y12038533D01*
X-2128812Y11864734D01*
X-2186025Y11676130D01*
X-2205341Y11480000D01*
X-2186025Y11283871D01*
X-2186024Y11283868D01*
X-2130400Y11100500D01*
X-2128812Y11095267D01*
X-2035914Y10921468D01*
X-2032527Y10916399D01*
X-2034164Y10915306D01*
X-2010404Y10859337D01*
X-2022205Y10790471D01*
X-2032891Y10773844D01*
X-2032527Y10773601D01*
X-2035914Y10768533D01*
X-2128812Y10594734D01*
X-2186025Y10406130D01*
X-2205341Y10210000D01*
X-2186025Y10013871D01*
X-2186024Y10013868D01*
X-2132754Y9838260D01*
X-2128812Y9825267D01*
X-2035914Y9651468D01*
X-2032527Y9646399D01*
X-2034164Y9645306D01*
X-2010404Y9589337D01*
X-2022205Y9520471D01*
X-2032891Y9503844D01*
X-2032527Y9503601D01*
X-2035914Y9498533D01*
X-2128812Y9324734D01*
X-2186025Y9136130D01*
X-2205341Y8940000D01*
X-2499500Y8940000D01*
X-2499500Y17682499D01*
X6895254Y17682499D01*
X6899220Y17647302D01*
X6900000Y17633417D01*
X6900000Y17384656D01*
X6906401Y17325128D01*
X6906403Y17325121D01*
X6956645Y17190414D01*
X6956649Y17190407D01*
X7042809Y17075313D01*
X7042812Y17075310D01*
X7157906Y16989150D01*
X7157913Y16989146D01*
X7292620Y16938904D01*
X7292627Y16938902D01*
X7352155Y16932501D01*
X7352172Y16932500D01*
X7400000Y16932500D01*
X7900000Y16932500D01*
X7947828Y16932500D01*
X7947844Y16932501D01*
X8007372Y16938902D01*
X8007379Y16938904D01*
X8142086Y16989146D01*
X8142093Y16989150D01*
X8257187Y17075310D01*
X8257190Y17075313D01*
X8343350Y17190407D01*
X8343354Y17190414D01*
X8393596Y17325121D01*
X8393598Y17325128D01*
X8399999Y17384656D01*
X8400000Y17384673D01*
X8400000Y17633417D01*
X8400780Y17647302D01*
X8404746Y17682499D01*
X8404746Y17682502D01*
X8400780Y17717700D01*
X8400000Y17731584D01*
X8400000Y17982500D01*
X8303552Y17982500D01*
X7900000Y17578948D01*
X7900000Y16932500D01*
X7400000Y16932500D01*
X7400000Y17578947D01*
X7328939Y17650008D01*
X7550000Y17650008D01*
X7588197Y17597435D01*
X7634162Y17582500D01*
X7665838Y17582500D01*
X7711803Y17597435D01*
X7750000Y17650008D01*
X7750000Y17714992D01*
X7711803Y17767565D01*
X7665838Y17782500D01*
X7634162Y17782500D01*
X7588197Y17767565D01*
X7550000Y17714992D01*
X7550000Y17650008D01*
X7328939Y17650008D01*
X6996447Y17982500D01*
X6900000Y17982500D01*
X6900000Y17731584D01*
X6899220Y17717700D01*
X6895254Y17682502D01*
X6895254Y17682499D01*
X-2499500Y17682499D01*
X-2499500Y18782499D01*
X6895254Y18782499D01*
X6899220Y18747302D01*
X6900000Y18733417D01*
X6900000Y18482500D01*
X6996447Y18482500D01*
X6996447Y18482501D01*
X7263954Y18750008D01*
X7550000Y18750008D01*
X7588197Y18697435D01*
X7634162Y18682500D01*
X7665838Y18682500D01*
X7711803Y18697435D01*
X7750000Y18750008D01*
X7750000Y18814992D01*
X7711803Y18867565D01*
X7665838Y18882500D01*
X7634162Y18882500D01*
X7588197Y18867565D01*
X7550000Y18814992D01*
X7550000Y18750008D01*
X7263954Y18750008D01*
X7400000Y18886054D01*
X7400000Y19532500D01*
X7900000Y19532500D01*
X7900000Y18886053D01*
X8303553Y18482500D01*
X8400000Y18482500D01*
X8400000Y18733417D01*
X8400780Y18747302D01*
X8404746Y18782499D01*
X8404746Y18782502D01*
X8400780Y18817700D01*
X8400000Y18831584D01*
X8400000Y19080328D01*
X8399999Y19080345D01*
X8393598Y19139873D01*
X8393596Y19139880D01*
X8343354Y19274587D01*
X8343350Y19274594D01*
X8257190Y19389688D01*
X8257187Y19389691D01*
X8142093Y19475851D01*
X8142086Y19475855D01*
X8007379Y19526097D01*
X8007372Y19526099D01*
X7947844Y19532500D01*
X7900000Y19532500D01*
X7400000Y19532500D01*
X7352155Y19532500D01*
X7292627Y19526099D01*
X7292620Y19526097D01*
X7157913Y19475855D01*
X7157906Y19475851D01*
X7042812Y19389691D01*
X7042809Y19389688D01*
X6956649Y19274594D01*
X6956645Y19274587D01*
X6906403Y19139880D01*
X6906401Y19139873D01*
X6900000Y19080345D01*
X6900000Y18831584D01*
X6899220Y18817700D01*
X6895254Y18782502D01*
X6895254Y18782499D01*
X-2499500Y18782499D01*
X-2499500Y23110000D01*
X-1005341Y23110000D01*
X-986025Y22913871D01*
X-986024Y22913868D01*
X-946004Y22781939D01*
X-928812Y22725267D01*
X-835914Y22551468D01*
X-835910Y22551461D01*
X-710884Y22399117D01*
X-558540Y22274091D01*
X-558533Y22274087D01*
X-384734Y22181189D01*
X-384731Y22181189D01*
X-384727Y22181186D01*
X-196132Y22123976D01*
X0Y22104659D01*
X196132Y22123976D01*
X384727Y22181186D01*
X558538Y22274090D01*
X710883Y22399117D01*
X835910Y22551462D01*
X928814Y22725273D01*
X986024Y22913868D01*
X1005341Y23110000D01*
X986024Y23306132D01*
X928814Y23494727D01*
X835910Y23668538D01*
X835907Y23668542D01*
X832523Y23673607D01*
X834164Y23674704D01*
X810405Y23730639D01*
X822194Y23799507D01*
X832888Y23816149D01*
X832523Y23816393D01*
X835904Y23821456D01*
X835910Y23821462D01*
X928814Y23995273D01*
X986024Y24183868D01*
X1005341Y24380000D01*
X986024Y24576132D01*
X928814Y24764727D01*
X835910Y24938538D01*
X835907Y24938542D01*
X832523Y24943607D01*
X834164Y24944704D01*
X810405Y25000639D01*
X822194Y25069507D01*
X832888Y25086149D01*
X832523Y25086393D01*
X835904Y25091456D01*
X835910Y25091462D01*
X928814Y25265273D01*
X986024Y25453868D01*
X1005341Y25650000D01*
X986024Y25846132D01*
X928814Y26034727D01*
X835910Y26208538D01*
X835907Y26208542D01*
X832523Y26213607D01*
X834164Y26214704D01*
X810405Y26270639D01*
X822194Y26339507D01*
X832888Y26356149D01*
X832523Y26356393D01*
X835904Y26361456D01*
X835910Y26361462D01*
X928814Y26535273D01*
X986024Y26723868D01*
X1005341Y26920000D01*
X986024Y27116132D01*
X945415Y27250000D01*
X9994540Y27250000D01*
X10014326Y27061744D01*
X10014327Y27061741D01*
X10072818Y26881723D01*
X10072821Y26881716D01*
X10167467Y26717784D01*
X10197114Y26684858D01*
X10242650Y26634285D01*
X10272880Y26571294D01*
X10274500Y26551313D01*
X10274500Y22532745D01*
X10272775Y22517128D01*
X10273061Y22517101D01*
X10272326Y22509335D01*
X10274439Y22442128D01*
X10274500Y22438233D01*
X10274500Y22410643D01*
X10275003Y22406665D01*
X10275918Y22395033D01*
X10277290Y22351376D01*
X10277291Y22351373D01*
X10282880Y22332133D01*
X10286824Y22313089D01*
X10289336Y22293208D01*
X10305414Y22252597D01*
X10309197Y22241548D01*
X10321381Y22199612D01*
X10331580Y22182366D01*
X10340138Y22164897D01*
X10347514Y22146268D01*
X10373181Y22110940D01*
X10379593Y22101179D01*
X10401828Y22063583D01*
X10401833Y22063576D01*
X10415990Y22049420D01*
X10428628Y22034624D01*
X10440405Y22018414D01*
X10440406Y22018413D01*
X10474056Y21990576D01*
X10482697Y21982713D01*
X10699198Y21766211D01*
X10709022Y21753950D01*
X10709243Y21754132D01*
X10714213Y21748124D01*
X10763224Y21702099D01*
X10766022Y21699387D01*
X10785522Y21679886D01*
X10785526Y21679883D01*
X10785529Y21679880D01*
X10788702Y21677419D01*
X10797574Y21669841D01*
X10829418Y21639938D01*
X10846976Y21630286D01*
X10863233Y21619607D01*
X10879064Y21607327D01*
X10908803Y21594458D01*
X10919152Y21589979D01*
X10929641Y21584840D01*
X10953457Y21571748D01*
X10967908Y21563803D01*
X10980523Y21560565D01*
X10987305Y21558823D01*
X11005719Y21552519D01*
X11024104Y21544562D01*
X11067261Y21537727D01*
X11078656Y21535368D01*
X11120981Y21524500D01*
X11141016Y21524500D01*
X11160413Y21522974D01*
X11180196Y21519840D01*
X11223675Y21523950D01*
X11235344Y21524500D01*
X13869757Y21524500D01*
X13885377Y21522776D01*
X13885404Y21523061D01*
X13893160Y21522329D01*
X13893167Y21522327D01*
X13960373Y21524439D01*
X13964268Y21524500D01*
X13991846Y21524500D01*
X13991850Y21524500D01*
X13995824Y21525003D01*
X14007463Y21525920D01*
X14051127Y21527291D01*
X14070369Y21532883D01*
X14089412Y21536826D01*
X14109292Y21539336D01*
X14149901Y21555415D01*
X14160944Y21559197D01*
X14202890Y21571382D01*
X14220129Y21581578D01*
X14237603Y21590138D01*
X14256227Y21597512D01*
X14256227Y21597513D01*
X14256232Y21597514D01*
X14291583Y21623200D01*
X14301314Y21629592D01*
X14338920Y21651830D01*
X14353089Y21666001D01*
X14367879Y21678632D01*
X14384087Y21690406D01*
X14411938Y21724074D01*
X14419769Y21732681D01*
X14600272Y21913184D01*
X14661595Y21946666D01*
X14687952Y21949500D01*
X14747144Y21949500D01*
X14747146Y21949500D01*
X14932303Y21988856D01*
X15105230Y22065849D01*
X15258371Y22177112D01*
X15385033Y22317784D01*
X15479679Y22481716D01*
X15538174Y22661744D01*
X15557960Y22850000D01*
X15538174Y23038256D01*
X15479679Y23218284D01*
X15385033Y23382216D01*
X15258371Y23522888D01*
X15258370Y23522889D01*
X15105234Y23634149D01*
X15105229Y23634152D01*
X14932307Y23711143D01*
X14932302Y23711145D01*
X14786501Y23742135D01*
X14747146Y23750500D01*
X14557854Y23750500D01*
X14525397Y23743602D01*
X14372697Y23711145D01*
X14372692Y23711143D01*
X14199770Y23634152D01*
X14199765Y23634149D01*
X14046629Y23522889D01*
X13919966Y23382215D01*
X13825321Y23218285D01*
X13825318Y23218278D01*
X13790137Y23110000D01*
X13766826Y23038256D01*
X13750880Y22886537D01*
X13724297Y22821924D01*
X13666999Y22781939D01*
X13627560Y22775500D01*
X13624940Y22775500D01*
X13557901Y22795185D01*
X13512146Y22847989D01*
X13501620Y22886535D01*
X13485674Y23038256D01*
X13427179Y23218284D01*
X13332533Y23382216D01*
X13257350Y23465716D01*
X13227120Y23528708D01*
X13225500Y23548688D01*
X13225500Y24709997D01*
X17194540Y24709997D01*
X17214326Y24521741D01*
X17214327Y24521738D01*
X17272818Y24341720D01*
X17272821Y24341713D01*
X17367467Y24177781D01*
X17477774Y24055273D01*
X17494129Y24037109D01*
X17647265Y23925849D01*
X17647270Y23925846D01*
X17820192Y23848855D01*
X17820197Y23848853D01*
X18005354Y23809497D01*
X18005355Y23809497D01*
X18194643Y23809497D01*
X18194646Y23809497D01*
X18229561Y23816919D01*
X18286183Y23815732D01*
X18290978Y23814500D01*
X18311013Y23814500D01*
X18330411Y23812974D01*
X18350191Y23809841D01*
X18350192Y23809840D01*
X18350192Y23809841D01*
X18350193Y23809840D01*
X18393672Y23813950D01*
X18405341Y23814500D01*
X29003156Y23814500D01*
X29070195Y23794815D01*
X29115950Y23742011D01*
X29125894Y23672853D01*
X29112514Y23632047D01*
X29071188Y23554733D01*
X29013975Y23366130D01*
X28994659Y23170000D01*
X29013975Y22973871D01*
X29071188Y22785267D01*
X29164086Y22611468D01*
X29164090Y22611461D01*
X29289116Y22459117D01*
X29441460Y22334091D01*
X29441467Y22334087D01*
X29615266Y22241189D01*
X29615269Y22241189D01*
X29615273Y22241186D01*
X29803868Y22183976D01*
X30000000Y22164659D01*
X30196132Y22183976D01*
X30384727Y22241186D01*
X30385405Y22241548D01*
X30519235Y22313082D01*
X30558538Y22334090D01*
X30710883Y22459117D01*
X30835910Y22611462D01*
X30928814Y22785273D01*
X30986024Y22973868D01*
X31005341Y23170000D01*
X30986024Y23366132D01*
X30928814Y23554727D01*
X30835910Y23728538D01*
X30835907Y23728542D01*
X30832523Y23733607D01*
X30834164Y23734704D01*
X30810405Y23790639D01*
X30822194Y23859507D01*
X30832888Y23876149D01*
X30832523Y23876393D01*
X30835904Y23881456D01*
X30835910Y23881462D01*
X30928814Y24055273D01*
X30986024Y24243868D01*
X31005341Y24440000D01*
X30986024Y24636132D01*
X30928814Y24824727D01*
X30835910Y24998538D01*
X30835907Y24998542D01*
X30832523Y25003607D01*
X30834164Y25004704D01*
X30810405Y25060639D01*
X30822194Y25129507D01*
X30832888Y25146149D01*
X30832523Y25146393D01*
X30835904Y25151456D01*
X30835910Y25151462D01*
X30928814Y25325273D01*
X30986024Y25513868D01*
X31005341Y25710000D01*
X30986024Y25906132D01*
X30928814Y26094727D01*
X30835910Y26268538D01*
X30835907Y26268542D01*
X30832523Y26273607D01*
X30834164Y26274704D01*
X30810405Y26330639D01*
X30822194Y26399507D01*
X30832888Y26416149D01*
X30832523Y26416393D01*
X30835904Y26421456D01*
X30835910Y26421462D01*
X30928814Y26595273D01*
X30986024Y26783868D01*
X31005341Y26980000D01*
X30986024Y27176132D01*
X30928814Y27364727D01*
X30835910Y27538538D01*
X30835907Y27538542D01*
X30832523Y27543607D01*
X30834164Y27544704D01*
X30810405Y27600639D01*
X30822194Y27669507D01*
X30832888Y27686149D01*
X30832523Y27686393D01*
X30835904Y27691456D01*
X30835910Y27691462D01*
X30928814Y27865273D01*
X30986024Y28053868D01*
X31005341Y28250000D01*
X30986024Y28446132D01*
X30928814Y28634727D01*
X30835910Y28808538D01*
X30835907Y28808542D01*
X30832523Y28813607D01*
X30834164Y28814704D01*
X30810405Y28870639D01*
X30822194Y28939507D01*
X30832888Y28956149D01*
X30832523Y28956393D01*
X30835904Y28961456D01*
X30835910Y28961462D01*
X30928814Y29135273D01*
X30986024Y29323868D01*
X31005341Y29520000D01*
X30986024Y29716132D01*
X30928814Y29904727D01*
X30835910Y30078538D01*
X30835907Y30078542D01*
X30832523Y30083607D01*
X30834164Y30084704D01*
X30810405Y30140639D01*
X30822194Y30209507D01*
X30832888Y30226149D01*
X30832523Y30226393D01*
X30835904Y30231456D01*
X30835910Y30231462D01*
X30928814Y30405273D01*
X30986024Y30593868D01*
X31005341Y30790000D01*
X30986024Y30986132D01*
X30928814Y31174727D01*
X30927677Y31176854D01*
X30927418Y31178096D01*
X30926483Y31180355D01*
X30926911Y31180533D01*
X30913435Y31245254D01*
X30937771Y31309621D01*
X30939924Y31312497D01*
X30943796Y31317669D01*
X30994091Y31452517D01*
X31000500Y31512127D01*
X31000499Y32607872D01*
X30994091Y32667483D01*
X30975329Y32717786D01*
X30943797Y32802329D01*
X30943793Y32802336D01*
X30857547Y32917545D01*
X30857544Y32917548D01*
X30742335Y33003794D01*
X30742328Y33003798D01*
X30607482Y33054092D01*
X30607483Y33054092D01*
X30547883Y33060499D01*
X30547881Y33060500D01*
X30547873Y33060500D01*
X30547864Y33060500D01*
X29452129Y33060500D01*
X29452123Y33060499D01*
X29392516Y33054092D01*
X29257671Y33003798D01*
X29257664Y33003794D01*
X29142455Y32917548D01*
X29142452Y32917545D01*
X29056206Y32802336D01*
X29056202Y32802329D01*
X29005908Y32667483D01*
X28999501Y32607884D01*
X28999501Y32607877D01*
X28999500Y32607865D01*
X28999500Y31512130D01*
X28999501Y31512124D01*
X29005908Y31452517D01*
X29056202Y31317672D01*
X29056204Y31317669D01*
X29062231Y31309618D01*
X29086648Y31244154D01*
X29073105Y31180530D01*
X29073518Y31180359D01*
X29072595Y31178131D01*
X29072324Y31176857D01*
X29071188Y31174733D01*
X29013975Y30986130D01*
X28994659Y30790000D01*
X29013975Y30593871D01*
X29071188Y30405267D01*
X29164086Y30231468D01*
X29167473Y30226399D01*
X29165836Y30225306D01*
X29189596Y30169337D01*
X29177795Y30100471D01*
X29167109Y30083844D01*
X29167473Y30083601D01*
X29164086Y30078533D01*
X29071188Y29904734D01*
X29013975Y29716130D01*
X28994659Y29520000D01*
X29013975Y29323871D01*
X29013976Y29323868D01*
X29061055Y29168669D01*
X29071188Y29135267D01*
X29164086Y28961468D01*
X29167473Y28956399D01*
X29165836Y28955306D01*
X29189596Y28899337D01*
X29177795Y28830471D01*
X29167109Y28813844D01*
X29167473Y28813601D01*
X29164086Y28808533D01*
X29071188Y28634734D01*
X29013975Y28446130D01*
X28994659Y28250000D01*
X29013975Y28053871D01*
X29071188Y27865267D01*
X29164086Y27691468D01*
X29167473Y27686399D01*
X29165836Y27685306D01*
X29189596Y27629337D01*
X29177795Y27560471D01*
X29167109Y27543844D01*
X29167473Y27543601D01*
X29164086Y27538533D01*
X29071188Y27364734D01*
X29013975Y27176130D01*
X28994659Y26980000D01*
X29013975Y26783871D01*
X29013976Y26783868D01*
X29058869Y26635876D01*
X29071188Y26595268D01*
X29112514Y26517953D01*
X29126756Y26449551D01*
X29101756Y26384307D01*
X29045451Y26342936D01*
X29003156Y26335500D01*
X18803748Y26335500D01*
X18736709Y26355185D01*
X18711600Y26376526D01*
X18705873Y26382886D01*
X18705869Y26382890D01*
X18552734Y26494149D01*
X18552729Y26494152D01*
X18379807Y26571143D01*
X18379802Y26571145D01*
X18234001Y26602135D01*
X18194646Y26610500D01*
X18005354Y26610500D01*
X17972897Y26603602D01*
X17820197Y26571145D01*
X17820192Y26571143D01*
X17647271Y26494152D01*
X17511731Y26395677D01*
X17460286Y26377323D01*
X17444644Y26329522D01*
X17434583Y26316756D01*
X17367466Y26242215D01*
X17272821Y26078285D01*
X17272818Y26078278D01*
X17216885Y25906132D01*
X17214326Y25898256D01*
X17194540Y25710000D01*
X17214326Y25521744D01*
X17214327Y25521741D01*
X17272821Y25341715D01*
X17313071Y25272000D01*
X17329544Y25204100D01*
X17313073Y25148002D01*
X17272819Y25078278D01*
X17214327Y24898257D01*
X17214326Y24898253D01*
X17194540Y24709997D01*
X13225500Y24709997D01*
X13225500Y25635492D01*
X14671366Y25635492D01*
X14677984Y25631333D01*
X14834859Y25576440D01*
X14999997Y25557833D01*
X15000003Y25557833D01*
X15165145Y25576440D01*
X15322013Y25631331D01*
X15322015Y25631332D01*
X15328633Y25635491D01*
X15328632Y25635492D01*
X15771366Y25635492D01*
X15777984Y25631333D01*
X15934859Y25576440D01*
X16099997Y25557833D01*
X16100003Y25557833D01*
X16265145Y25576440D01*
X16422013Y25631331D01*
X16422015Y25631332D01*
X16428633Y25635491D01*
X16100001Y25964124D01*
X16100000Y25964124D01*
X15771366Y25635492D01*
X15328632Y25635492D01*
X15000001Y25964124D01*
X15000000Y25964124D01*
X14671366Y25635492D01*
X13225500Y25635492D01*
X13225500Y26185492D01*
X14121366Y26185492D01*
X14127986Y26181332D01*
X14127988Y26181331D01*
X14222257Y26148344D01*
X14279033Y26107623D01*
X14298344Y26072257D01*
X14331330Y25977986D01*
X14335489Y25971368D01*
X14335490Y25971368D01*
X14631632Y26267508D01*
X14900000Y26267508D01*
X14938197Y26214935D01*
X14984162Y26200000D01*
X15015838Y26200000D01*
X15061803Y26214935D01*
X15100000Y26267508D01*
X15100000Y26300000D01*
X15335876Y26300000D01*
X15550000Y26085876D01*
X15731632Y26267508D01*
X16000000Y26267508D01*
X16038197Y26214935D01*
X16084162Y26200000D01*
X16115838Y26200000D01*
X16161803Y26214935D01*
X16200000Y26267508D01*
X16200000Y26300000D01*
X16435876Y26300000D01*
X16764509Y25971367D01*
X16768668Y25977986D01*
X16801655Y26072257D01*
X16842376Y26129033D01*
X16877743Y26148345D01*
X16972014Y26181332D01*
X16978633Y26185491D01*
X16650000Y26514124D01*
X16435876Y26300000D01*
X16200000Y26300000D01*
X16200000Y26332492D01*
X16161803Y26385065D01*
X16115838Y26400000D01*
X16084162Y26400000D01*
X16038197Y26385065D01*
X16000000Y26332492D01*
X16000000Y26267508D01*
X15731632Y26267508D01*
X15764124Y26300000D01*
X15550000Y26514124D01*
X15335876Y26300000D01*
X15100000Y26300000D01*
X15100000Y26332492D01*
X15061803Y26385065D01*
X15015838Y26400000D01*
X14984162Y26400000D01*
X14938197Y26385065D01*
X14900000Y26332492D01*
X14900000Y26267508D01*
X14631632Y26267508D01*
X14664124Y26300000D01*
X14664124Y26300001D01*
X14450001Y26514124D01*
X14450000Y26514124D01*
X14121366Y26185492D01*
X13225500Y26185492D01*
X13225500Y26551313D01*
X13245185Y26618352D01*
X13257350Y26634285D01*
X13275891Y26654878D01*
X13332533Y26717784D01*
X13408867Y26849998D01*
X13707833Y26849998D01*
X13726439Y26684858D01*
X13781331Y26527986D01*
X13785489Y26521368D01*
X13785490Y26521368D01*
X14081632Y26817508D01*
X14350000Y26817508D01*
X14388197Y26764935D01*
X14434162Y26750000D01*
X14465838Y26750000D01*
X14511803Y26764935D01*
X14550000Y26817508D01*
X14550000Y26850000D01*
X14785876Y26850000D01*
X15000000Y26635876D01*
X15181632Y26817508D01*
X15450000Y26817508D01*
X15488197Y26764935D01*
X15534162Y26750000D01*
X15565838Y26750000D01*
X15611803Y26764935D01*
X15650000Y26817508D01*
X15650000Y26850000D01*
X15885876Y26850000D01*
X16100000Y26635876D01*
X16281632Y26817508D01*
X16550000Y26817508D01*
X16588197Y26764935D01*
X16634162Y26750000D01*
X16665838Y26750000D01*
X16711803Y26764935D01*
X16750000Y26817508D01*
X16750000Y26850000D01*
X16985876Y26850000D01*
X17314508Y26521368D01*
X17318562Y26521824D01*
X17321805Y26536951D01*
X17373560Y26684856D01*
X17392167Y26849998D01*
X17392167Y26850003D01*
X17373560Y27015141D01*
X17318667Y27172016D01*
X17314508Y27178634D01*
X16985876Y26850001D01*
X16985876Y26850000D01*
X16750000Y26850000D01*
X16750000Y26882492D01*
X16711803Y26935065D01*
X16665838Y26950000D01*
X16634162Y26950000D01*
X16588197Y26935065D01*
X16550000Y26882492D01*
X16550000Y26817508D01*
X16281632Y26817508D01*
X16314124Y26850000D01*
X16100000Y27064124D01*
X15885876Y26850000D01*
X15650000Y26850000D01*
X15650000Y26882492D01*
X15611803Y26935065D01*
X15565838Y26950000D01*
X15534162Y26950000D01*
X15488197Y26935065D01*
X15450000Y26882492D01*
X15450000Y26817508D01*
X15181632Y26817508D01*
X15214124Y26850000D01*
X15000000Y27064124D01*
X14785876Y26850000D01*
X14550000Y26850000D01*
X14550000Y26882492D01*
X14511803Y26935065D01*
X14465838Y26950000D01*
X14434162Y26950000D01*
X14388197Y26935065D01*
X14350000Y26882492D01*
X14350000Y26817508D01*
X14081632Y26817508D01*
X14114124Y26850000D01*
X13785489Y27178635D01*
X13781330Y27172015D01*
X13726960Y27016634D01*
X13725960Y27015241D01*
X13725998Y27015097D01*
X13725269Y27004755D01*
X13707833Y26850004D01*
X13707833Y26849998D01*
X13408867Y26849998D01*
X13427179Y26881716D01*
X13484118Y27056957D01*
X13486803Y27060884D01*
X13486080Y27063911D01*
X13486593Y27070491D01*
X13505460Y27250000D01*
X13489695Y27400000D01*
X14235876Y27400000D01*
X14450000Y27185876D01*
X14631632Y27367508D01*
X14900000Y27367508D01*
X14938197Y27314935D01*
X14984162Y27300000D01*
X15015838Y27300000D01*
X15061803Y27314935D01*
X15100000Y27367508D01*
X15100000Y27400000D01*
X15335876Y27400000D01*
X15550000Y27185876D01*
X15731632Y27367508D01*
X16000000Y27367508D01*
X16038197Y27314935D01*
X16084162Y27300000D01*
X16115838Y27300000D01*
X16161803Y27314935D01*
X16200000Y27367508D01*
X16200000Y27400000D01*
X16435876Y27400000D01*
X16650000Y27185876D01*
X16864124Y27400000D01*
X16650000Y27614124D01*
X16435876Y27400000D01*
X16200000Y27400000D01*
X16200000Y27432492D01*
X16161803Y27485065D01*
X16115838Y27500000D01*
X16084162Y27500000D01*
X16038197Y27485065D01*
X16000000Y27432492D01*
X16000000Y27367508D01*
X15731632Y27367508D01*
X15764124Y27400000D01*
X15550000Y27614124D01*
X15335876Y27400000D01*
X15100000Y27400000D01*
X15100000Y27432492D01*
X15061803Y27485065D01*
X15015838Y27500000D01*
X14984162Y27500000D01*
X14938197Y27485065D01*
X14900000Y27432492D01*
X14900000Y27367508D01*
X14631632Y27367508D01*
X14664124Y27400000D01*
X14450000Y27614124D01*
X14235876Y27400000D01*
X13489695Y27400000D01*
X13485674Y27438256D01*
X13427179Y27618284D01*
X13332533Y27782216D01*
X13205871Y27922888D01*
X13205870Y27922889D01*
X13168558Y27949998D01*
X13707833Y27949998D01*
X13726439Y27784858D01*
X13781331Y27627986D01*
X13785489Y27621368D01*
X13785490Y27621368D01*
X14081632Y27917508D01*
X14350000Y27917508D01*
X14388197Y27864935D01*
X14434162Y27850000D01*
X14465838Y27850000D01*
X14511803Y27864935D01*
X14550000Y27917508D01*
X14550000Y27950000D01*
X14785876Y27950000D01*
X15000000Y27735876D01*
X15181632Y27917508D01*
X15450000Y27917508D01*
X15488197Y27864935D01*
X15534162Y27850000D01*
X15565838Y27850000D01*
X15611803Y27864935D01*
X15650000Y27917508D01*
X15650000Y27950000D01*
X15885876Y27950000D01*
X16100000Y27735876D01*
X16281632Y27917508D01*
X16550000Y27917508D01*
X16588197Y27864935D01*
X16634162Y27850000D01*
X16665838Y27850000D01*
X16711803Y27864935D01*
X16750000Y27917508D01*
X16750000Y27950000D01*
X16985876Y27950000D01*
X17314509Y27621367D01*
X17318668Y27627985D01*
X17318669Y27627987D01*
X17373560Y27784855D01*
X17392167Y27949998D01*
X17392167Y27950003D01*
X17373560Y28115141D01*
X17318667Y28272016D01*
X17314508Y28278634D01*
X16985876Y27950001D01*
X16985876Y27950000D01*
X16750000Y27950000D01*
X16750000Y27982492D01*
X16711803Y28035065D01*
X16665838Y28050000D01*
X16634162Y28050000D01*
X16588197Y28035065D01*
X16550000Y27982492D01*
X16550000Y27917508D01*
X16281632Y27917508D01*
X16314124Y27950000D01*
X16100000Y28164124D01*
X15885876Y27950000D01*
X15650000Y27950000D01*
X15650000Y27982492D01*
X15611803Y28035065D01*
X15565838Y28050000D01*
X15534162Y28050000D01*
X15488197Y28035065D01*
X15450000Y27982492D01*
X15450000Y27917508D01*
X15181632Y27917508D01*
X15214124Y27950000D01*
X15000000Y28164124D01*
X14785876Y27950000D01*
X14550000Y27950000D01*
X14550000Y27982492D01*
X14511803Y28035065D01*
X14465838Y28050000D01*
X14434162Y28050000D01*
X14388197Y28035065D01*
X14350000Y27982492D01*
X14350000Y27917508D01*
X14081632Y27917508D01*
X14114124Y27950000D01*
X13785489Y28278635D01*
X13781333Y28272019D01*
X13726439Y28115141D01*
X13707833Y27950003D01*
X13707833Y27949998D01*
X13168558Y27949998D01*
X13052734Y28034149D01*
X13052729Y28034152D01*
X12879807Y28111143D01*
X12879802Y28111145D01*
X12734001Y28142135D01*
X12694646Y28150500D01*
X12505354Y28150500D01*
X12472897Y28143602D01*
X12320197Y28111145D01*
X12320192Y28111143D01*
X12147270Y28034152D01*
X12147265Y28034149D01*
X11994129Y27922889D01*
X11867467Y27782217D01*
X11857387Y27764757D01*
X11806819Y27716542D01*
X11738212Y27703320D01*
X11673347Y27729288D01*
X11642613Y27764757D01*
X11641336Y27766969D01*
X11632533Y27782216D01*
X11505871Y27922888D01*
X11505870Y27922889D01*
X11352734Y28034149D01*
X11352729Y28034152D01*
X11179807Y28111143D01*
X11179802Y28111145D01*
X11034001Y28142135D01*
X10994646Y28150500D01*
X10805354Y28150500D01*
X10772897Y28143602D01*
X10620197Y28111145D01*
X10620192Y28111143D01*
X10447270Y28034152D01*
X10447265Y28034149D01*
X10294129Y27922889D01*
X10167466Y27782215D01*
X10072821Y27618285D01*
X10072818Y27618278D01*
X10014327Y27438260D01*
X10014326Y27438256D01*
X9994540Y27250000D01*
X945415Y27250000D01*
X928814Y27304727D01*
X835910Y27478538D01*
X835907Y27478542D01*
X832523Y27483607D01*
X834164Y27484704D01*
X810405Y27540639D01*
X822194Y27609507D01*
X832888Y27626149D01*
X832523Y27626393D01*
X835904Y27631456D01*
X835910Y27631462D01*
X928814Y27805273D01*
X986024Y27993868D01*
X1005341Y28190000D01*
X986024Y28386132D01*
X928814Y28574727D01*
X907549Y28614511D01*
X14121365Y28614511D01*
X14450000Y28285876D01*
X14631632Y28467508D01*
X14900000Y28467508D01*
X14938197Y28414935D01*
X14984162Y28400000D01*
X15015838Y28400000D01*
X15061803Y28414935D01*
X15100000Y28467508D01*
X15100000Y28500000D01*
X15335876Y28500000D01*
X15550000Y28285876D01*
X15731632Y28467508D01*
X16000000Y28467508D01*
X16038197Y28414935D01*
X16084162Y28400000D01*
X16115838Y28400000D01*
X16161803Y28414935D01*
X16200000Y28467508D01*
X16200000Y28500000D01*
X16435876Y28500000D01*
X16650000Y28285876D01*
X16650001Y28285876D01*
X16978632Y28614510D01*
X16978632Y28614511D01*
X16972014Y28618670D01*
X16877743Y28651656D01*
X16820966Y28692378D01*
X16801656Y28727743D01*
X16768669Y28822012D01*
X16768668Y28822014D01*
X16764508Y28828634D01*
X16435876Y28500001D01*
X16435876Y28500000D01*
X16200000Y28500000D01*
X16200000Y28532492D01*
X16161803Y28585065D01*
X16115838Y28600000D01*
X16084162Y28600000D01*
X16038197Y28585065D01*
X16000000Y28532492D01*
X16000000Y28467508D01*
X15731632Y28467508D01*
X15764124Y28500000D01*
X15550000Y28714124D01*
X15335876Y28500000D01*
X15100000Y28500000D01*
X15100000Y28532492D01*
X15061803Y28585065D01*
X15015838Y28600000D01*
X14984162Y28600000D01*
X14938197Y28585065D01*
X14900000Y28532492D01*
X14900000Y28467508D01*
X14631632Y28467508D01*
X14664124Y28500000D01*
X14335489Y28828635D01*
X14331330Y28822015D01*
X14298343Y28727743D01*
X14257621Y28670967D01*
X14222257Y28651657D01*
X14127985Y28618670D01*
X14121365Y28614511D01*
X907549Y28614511D01*
X835910Y28748538D01*
X835907Y28748542D01*
X832523Y28753607D01*
X834164Y28754704D01*
X810405Y28810639D01*
X822194Y28879507D01*
X832888Y28896149D01*
X832523Y28896393D01*
X835904Y28901456D01*
X835910Y28901462D01*
X928814Y29075273D01*
X955884Y29164511D01*
X14671365Y29164511D01*
X15000000Y28835876D01*
X15000001Y28835876D01*
X15328632Y29164510D01*
X15328632Y29164511D01*
X15771365Y29164511D01*
X16100000Y28835876D01*
X16100001Y28835876D01*
X16428632Y29164510D01*
X16428632Y29164511D01*
X16422014Y29168669D01*
X16265142Y29223561D01*
X16100003Y29242167D01*
X16099997Y29242167D01*
X15934859Y29223561D01*
X15777981Y29168667D01*
X15771365Y29164511D01*
X15328632Y29164511D01*
X15322014Y29168669D01*
X15165142Y29223561D01*
X15000003Y29242167D01*
X14999997Y29242167D01*
X14834859Y29223561D01*
X14677981Y29168667D01*
X14671365Y29164511D01*
X955884Y29164511D01*
X986024Y29263868D01*
X1005341Y29460000D01*
X986024Y29656132D01*
X928814Y29844727D01*
X835910Y30018538D01*
X835907Y30018542D01*
X832523Y30023607D01*
X834164Y30024704D01*
X810405Y30080639D01*
X822194Y30149507D01*
X832888Y30166149D01*
X832523Y30166393D01*
X835904Y30171456D01*
X835910Y30171462D01*
X928814Y30345273D01*
X986024Y30533868D01*
X1005341Y30730000D01*
X986024Y30926132D01*
X928814Y31114727D01*
X927677Y31116854D01*
X927418Y31118096D01*
X926483Y31120355D01*
X926911Y31120533D01*
X913435Y31185254D01*
X937771Y31249621D01*
X943793Y31257665D01*
X943796Y31257669D01*
X994091Y31392517D01*
X1000500Y31452127D01*
X1000499Y32000000D01*
X12294540Y32000000D01*
X12314326Y31811744D01*
X12314327Y31811741D01*
X12372818Y31631723D01*
X12372821Y31631716D01*
X12467467Y31467784D01*
X12481574Y31452117D01*
X12594129Y31327112D01*
X12747265Y31215852D01*
X12747270Y31215849D01*
X12920192Y31138858D01*
X12920197Y31138856D01*
X13105354Y31099500D01*
X13105355Y31099500D01*
X13294644Y31099500D01*
X13294646Y31099500D01*
X13479803Y31138856D01*
X13652730Y31215849D01*
X13673519Y31230954D01*
X13739324Y31254434D01*
X13807378Y31238610D01*
X13845671Y31204947D01*
X13892452Y31142456D01*
X13892455Y31142453D01*
X14007664Y31056207D01*
X14007671Y31056203D01*
X14142517Y31005909D01*
X14142516Y31005909D01*
X14149444Y31005165D01*
X14202127Y30999500D01*
X15797872Y30999501D01*
X15857483Y31005909D01*
X15992331Y31056204D01*
X16107546Y31142454D01*
X16193796Y31257669D01*
X16244091Y31392517D01*
X16250500Y31452127D01*
X16250499Y32547872D01*
X16244091Y32607483D01*
X16244090Y32607485D01*
X16243947Y32608092D01*
X16243890Y32609346D01*
X16243262Y32615196D01*
X16243627Y32615236D01*
X16241882Y32654265D01*
X16255647Y32750000D01*
X16255647Y33371889D01*
X16235165Y33514345D01*
X16194658Y33652300D01*
X16134871Y33783216D01*
X16057139Y33904170D01*
X16057136Y33904174D01*
X16057135Y33904176D01*
X15962891Y34012939D01*
X15962889Y34012942D01*
X15854237Y34107089D01*
X15854216Y34107104D01*
X15733166Y34184898D01*
X15733143Y34184911D01*
X15601563Y34245001D01*
X15598119Y34245880D01*
X15464282Y34285179D01*
X15464272Y34285182D01*
X15336321Y34303578D01*
X15321962Y34305642D01*
X15321961Y34305642D01*
X15265603Y34305642D01*
X15265586Y34305647D01*
X15214236Y34305647D01*
X14785764Y34305647D01*
X14734444Y34305647D01*
X14734397Y34305642D01*
X14678038Y34305642D01*
X14544500Y34286442D01*
X14544498Y34286442D01*
X14535723Y34285181D01*
X14397631Y34244633D01*
X14397618Y34244628D01*
X14266856Y34184911D01*
X14266833Y34184898D01*
X14145783Y34107104D01*
X14145762Y34107088D01*
X14037130Y34012959D01*
X14037112Y34012943D01*
X14037107Y34012937D01*
X13998427Y33968297D01*
X13939649Y33930523D01*
X13904714Y33925500D01*
X13842566Y33925500D01*
X13775527Y33945185D01*
X13769681Y33949182D01*
X13652734Y34034149D01*
X13652729Y34034152D01*
X13479807Y34111143D01*
X13479802Y34111145D01*
X13334001Y34142135D01*
X13294646Y34150500D01*
X13105354Y34150500D01*
X13072897Y34143602D01*
X12920197Y34111145D01*
X12920192Y34111143D01*
X12747270Y34034152D01*
X12747265Y34034149D01*
X12594129Y33922889D01*
X12467466Y33782215D01*
X12372821Y33618285D01*
X12372818Y33618278D01*
X12314327Y33438260D01*
X12314326Y33438256D01*
X12294540Y33250000D01*
X12314326Y33061744D01*
X12314327Y33061741D01*
X12372818Y32881723D01*
X12372821Y32881716D01*
X12467467Y32717784D01*
X12473096Y32711533D01*
X12476304Y32707969D01*
X12506531Y32644977D01*
X12497904Y32575642D01*
X12476304Y32542031D01*
X12467466Y32532215D01*
X12372821Y32368285D01*
X12372818Y32368278D01*
X12314327Y32188260D01*
X12314326Y32188256D01*
X12294540Y32000000D01*
X1000499Y32000000D01*
X1000499Y32547872D01*
X994091Y32607483D01*
X993946Y32607871D01*
X943797Y32742329D01*
X943793Y32742336D01*
X857547Y32857545D01*
X857544Y32857548D01*
X742335Y32943794D01*
X742328Y32943798D01*
X607482Y32994092D01*
X607483Y32994092D01*
X547883Y33000499D01*
X547881Y33000500D01*
X547873Y33000500D01*
X547864Y33000500D01*
X-547871Y33000500D01*
X-547877Y33000499D01*
X-607484Y32994092D01*
X-742329Y32943798D01*
X-742336Y32943794D01*
X-857545Y32857548D01*
X-857548Y32857545D01*
X-943794Y32742336D01*
X-943798Y32742329D01*
X-994092Y32607483D01*
X-1000499Y32547884D01*
X-1000499Y32547877D01*
X-1000500Y32547865D01*
X-1000500Y31452130D01*
X-1000499Y31452124D01*
X-994092Y31392517D01*
X-943798Y31257672D01*
X-943796Y31257669D01*
X-937769Y31249618D01*
X-913352Y31184154D01*
X-926895Y31120530D01*
X-926482Y31120359D01*
X-927405Y31118131D01*
X-927676Y31116857D01*
X-928812Y31114733D01*
X-986025Y30926130D01*
X-1005341Y30730000D01*
X-986025Y30533871D01*
X-928812Y30345267D01*
X-835914Y30171468D01*
X-832527Y30166399D01*
X-834164Y30165306D01*
X-810404Y30109337D01*
X-822205Y30040471D01*
X-832891Y30023844D01*
X-832527Y30023601D01*
X-835914Y30018533D01*
X-928812Y29844734D01*
X-986025Y29656130D01*
X-1005341Y29460000D01*
X-986025Y29263871D01*
X-986024Y29263868D01*
X-957146Y29168669D01*
X-928812Y29075267D01*
X-835914Y28901468D01*
X-832527Y28896399D01*
X-834164Y28895306D01*
X-810404Y28839337D01*
X-822205Y28770471D01*
X-832891Y28753844D01*
X-832527Y28753601D01*
X-835914Y28748533D01*
X-928812Y28574734D01*
X-986025Y28386130D01*
X-1005341Y28190000D01*
X-986025Y27993871D01*
X-928812Y27805267D01*
X-835914Y27631468D01*
X-832527Y27626399D01*
X-834164Y27625306D01*
X-810404Y27569337D01*
X-822205Y27500471D01*
X-832891Y27483844D01*
X-832527Y27483601D01*
X-835914Y27478533D01*
X-928812Y27304734D01*
X-986025Y27116130D01*
X-1005341Y26920000D01*
X-986025Y26723871D01*
X-928812Y26535267D01*
X-835914Y26361468D01*
X-832527Y26356399D01*
X-834164Y26355306D01*
X-810404Y26299337D01*
X-822205Y26230471D01*
X-832891Y26213844D01*
X-832527Y26213601D01*
X-835914Y26208533D01*
X-928812Y26034734D01*
X-986025Y25846130D01*
X-1005341Y25650000D01*
X-986025Y25453871D01*
X-986024Y25453868D01*
X-930855Y25272000D01*
X-928812Y25265267D01*
X-835914Y25091468D01*
X-832527Y25086399D01*
X-834164Y25085306D01*
X-810404Y25029337D01*
X-822205Y24960471D01*
X-832891Y24943844D01*
X-832527Y24943601D01*
X-835914Y24938533D01*
X-928812Y24764734D01*
X-986025Y24576130D01*
X-1005341Y24380000D01*
X-986025Y24183871D01*
X-928812Y23995267D01*
X-835914Y23821468D01*
X-832527Y23816399D01*
X-834164Y23815306D01*
X-810404Y23759337D01*
X-822205Y23690471D01*
X-832891Y23673844D01*
X-832527Y23673601D01*
X-835914Y23668533D01*
X-928812Y23494734D01*
X-986025Y23306130D01*
X-1005341Y23110000D01*
X-2499500Y23110000D01*
X-2499500Y38193670D01*
X-1254290Y38193670D01*
X-1224075Y37970613D01*
X-1224074Y37970610D01*
X-1154517Y37756535D01*
X-1047854Y37558322D01*
X-1047852Y37558319D01*
X-907511Y37382337D01*
X-907509Y37382336D01*
X-907508Y37382334D01*
X-737996Y37234235D01*
X-544764Y37118785D01*
X-334024Y37039693D01*
X-112550Y36999500D01*
X-112547Y36999500D01*
X56148Y36999500D01*
X56155Y36999500D01*
X224188Y37014623D01*
X224192Y37014624D01*
X441160Y37074504D01*
X441162Y37074505D01*
X441170Y37074507D01*
X643973Y37172171D01*
X826078Y37304478D01*
X981632Y37467175D01*
X1105635Y37655032D01*
X1194103Y37862012D01*
X1244191Y38081463D01*
X1254290Y38306330D01*
X1224075Y38529387D01*
X1154517Y38743464D01*
X1047852Y38941681D01*
X907508Y39117666D01*
X737996Y39265765D01*
X544764Y39381215D01*
X426775Y39425497D01*
X334023Y39460308D01*
X112550Y39500500D01*
X112547Y39500500D01*
X-56155Y39500500D01*
X-94601Y39497040D01*
X-224187Y39485378D01*
X-224193Y39485377D01*
X-441161Y39425497D01*
X-441174Y39425492D01*
X-643967Y39327833D01*
X-643975Y39327829D01*
X-826073Y39195527D01*
X-826075Y39195526D01*
X-981634Y39032824D01*
X-1105637Y38844967D01*
X-1194101Y38637996D01*
X-1194105Y38637983D01*
X-1244190Y38418543D01*
X-1244192Y38418532D01*
X-1251783Y38249500D01*
X-1254290Y38193670D01*
X-2499500Y38193670D01*
X-2499500Y38246251D01*
X-2499274Y38253737D01*
X-2496093Y38306330D01*
X-2493515Y38348944D01*
X-2480152Y38552824D01*
X-2478391Y38567029D01*
X-2454295Y38698514D01*
X-2454019Y38699958D01*
X-2421697Y38862450D01*
X-2418480Y38875095D01*
X-2376526Y39009727D01*
X-2375591Y39012599D01*
X-2324796Y39162235D01*
X-2320468Y39173231D01*
X-2261343Y39304602D01*
X-2259565Y39308373D01*
X-2190964Y39447482D01*
X-2185893Y39456744D01*
X-2110637Y39581233D01*
X-2107679Y39585884D01*
X-2022306Y39713654D01*
X-2016836Y39721206D01*
X-1926706Y39836249D01*
X-1922385Y39841460D01*
X-1821424Y39956584D01*
X-1815936Y39962443D01*
X-1712443Y40065936D01*
X-1706584Y40071424D01*
X-1591460Y40172385D01*
X-1586249Y40176706D01*
X-1471206Y40266836D01*
X-1463654Y40272306D01*
X-1335884Y40357679D01*
X-1331233Y40360637D01*
X-1206744Y40435893D01*
X-1197482Y40440964D01*
X-1058373Y40509565D01*
X-1054602Y40511343D01*
X-923231Y40570468D01*
X-912235Y40574796D01*
X-762599Y40625591D01*
X-759727Y40626526D01*
X-625095Y40668480D01*
X-612450Y40671697D01*
X-449958Y40704019D01*
X-448514Y40704295D01*
X-317029Y40728391D01*
X-302824Y40730152D01*
X-98944Y40743515D01*
X-98920Y40743517D01*
X-3736Y40749274D01*
X3750Y40749500D01*
X5826000Y40749500D01*
X5893039Y40729815D01*
G37*
%TD.AperFunction*%
%TD*%
M02*
