%TF.GenerationSoftware,KiCad,Pcbnew,8.0.0*%
%TF.CreationDate,2024-04-21T21:54:23+01:00*%
%TF.ProjectId,Microll,4d696372-6f6c-46c2-9e6b-696361645f70,rev?*%
%TF.SameCoordinates,PX564eba0PY53724e0*%
%TF.FileFunction,Soldermask,Top*%
%TF.FilePolarity,Negative*%
%FSLAX46Y46*%
G04 Gerber Fmt 4.6, Leading zero omitted, Abs format (unit mm)*
G04 Created by KiCad (PCBNEW 8.0.0) date 2024-04-21 21:54:23*
%MOMM*%
%LPD*%
G01*
G04 APERTURE LIST*
G04 Aperture macros list*
%AMRoundRect*
0 Rectangle with rounded corners*
0 $1 Rounding radius*
0 $2 $3 $4 $5 $6 $7 $8 $9 X,Y pos of 4 corners*
0 Add a 4 corners polygon primitive as box body*
4,1,4,$2,$3,$4,$5,$6,$7,$8,$9,$2,$3,0*
0 Add four circle primitives for the rounded corners*
1,1,$1+$1,$2,$3*
1,1,$1+$1,$4,$5*
1,1,$1+$1,$6,$7*
1,1,$1+$1,$8,$9*
0 Add four rect primitives between the rounded corners*
20,1,$1+$1,$2,$3,$4,$5,0*
20,1,$1+$1,$4,$5,$6,$7,0*
20,1,$1+$1,$6,$7,$8,$9,0*
20,1,$1+$1,$8,$9,$2,$3,0*%
G04 Aperture macros list end*
%ADD10RoundRect,0.135000X-0.185000X0.135000X-0.185000X-0.135000X0.185000X-0.135000X0.185000X0.135000X0*%
%ADD11RoundRect,0.225000X0.375000X-0.225000X0.375000X0.225000X-0.375000X0.225000X-0.375000X-0.225000X0*%
%ADD12R,1.700000X1.700000*%
%ADD13O,1.700000X1.700000*%
%ADD14C,2.200000*%
%ADD15RoundRect,0.225000X-0.525000X-0.225000X0.525000X-0.225000X0.525000X0.225000X-0.525000X0.225000X0*%
%ADD16RoundRect,0.175000X-0.175000X-0.175000X0.175000X-0.175000X0.175000X0.175000X-0.175000X0.175000X0*%
%ADD17C,0.475000*%
%ADD18R,3.000000X3.000000*%
%ADD19RoundRect,0.225000X0.225000X0.250000X-0.225000X0.250000X-0.225000X-0.250000X0.225000X-0.250000X0*%
%ADD20RoundRect,0.135000X-0.135000X-0.185000X0.135000X-0.185000X0.135000X0.185000X-0.135000X0.185000X0*%
%ADD21RoundRect,0.140000X0.140000X0.170000X-0.140000X0.170000X-0.140000X-0.170000X0.140000X-0.170000X0*%
%ADD22R,2.650000X0.760000*%
%ADD23RoundRect,0.135000X0.185000X-0.135000X0.185000X0.135000X-0.185000X0.135000X-0.185000X-0.135000X0*%
%ADD24RoundRect,0.140000X-0.140000X-0.170000X0.140000X-0.170000X0.140000X0.170000X-0.140000X0.170000X0*%
%ADD25RoundRect,0.140000X0.170000X-0.140000X0.170000X0.140000X-0.170000X0.140000X-0.170000X-0.140000X0*%
%ADD26RoundRect,0.140000X-0.170000X0.140000X-0.170000X-0.140000X0.170000X-0.140000X0.170000X0.140000X0*%
%ADD27C,0.650000*%
%ADD28RoundRect,0.150000X0.425000X-0.150000X0.425000X0.150000X-0.425000X0.150000X-0.425000X-0.150000X0*%
%ADD29RoundRect,0.075000X0.500000X-0.075000X0.500000X0.075000X-0.500000X0.075000X-0.500000X-0.075000X0*%
%ADD30O,2.100000X1.000000*%
%ADD31O,1.800000X1.000000*%
%ADD32RoundRect,0.093750X-0.106250X0.093750X-0.106250X-0.093750X0.106250X-0.093750X0.106250X0.093750X0*%
%ADD33R,1.600000X1.000000*%
%ADD34R,0.500000X0.375000*%
%ADD35R,0.650000X0.300000*%
%ADD36RoundRect,0.125000X-0.125000X-0.125000X0.125000X-0.125000X0.125000X0.125000X-0.125000X0.125000X0*%
%ADD37RoundRect,0.300000X0.450000X-0.300000X0.450000X0.300000X-0.450000X0.300000X-0.450000X-0.300000X0*%
%ADD38RoundRect,0.075000X-0.662500X-0.075000X0.662500X-0.075000X0.662500X0.075000X-0.662500X0.075000X0*%
%ADD39RoundRect,0.075000X-0.075000X-0.662500X0.075000X-0.662500X0.075000X0.662500X-0.075000X0.662500X0*%
%ADD40R,0.500000X0.850000*%
%ADD41RoundRect,0.087500X0.087500X-0.225000X0.087500X0.225000X-0.087500X0.225000X-0.087500X-0.225000X0*%
%ADD42RoundRect,0.087500X0.225000X-0.087500X0.225000X0.087500X-0.225000X0.087500X-0.225000X-0.087500X0*%
G04 APERTURE END LIST*
D10*
%TO.C,R7*%
X24779000Y6450000D03*
X24779000Y5430000D03*
%TD*%
D11*
%TO.C,D2*%
X20498000Y8634000D03*
X20498000Y11934000D03*
%TD*%
D12*
%TO.C,J1*%
X-1500000Y33750000D03*
D13*
X-1500000Y31210000D03*
X-1500000Y28670000D03*
X-1500000Y26130000D03*
X-1500000Y23590000D03*
X-1500000Y21050000D03*
X-1500000Y18510000D03*
X-1500000Y15970000D03*
X-1500000Y13430000D03*
X-1500000Y10890000D03*
X-1500000Y8350000D03*
X-1500000Y5810000D03*
%TD*%
D14*
%TO.C,H3*%
X0Y39000000D03*
%TD*%
D15*
%TO.C,U1*%
X7438000Y35250000D03*
X7438000Y33750000D03*
X7438000Y32250000D03*
X7438000Y30750000D03*
X7438000Y29250000D03*
X7438000Y27750000D03*
X7438000Y26250000D03*
X7438000Y24750000D03*
X7438000Y23250000D03*
X24938000Y23250000D03*
X24938000Y24750000D03*
X24938000Y26250000D03*
X24938000Y27750000D03*
X24938000Y29250000D03*
X24938000Y30750000D03*
X24938000Y32250000D03*
X24938000Y33750000D03*
X24938000Y35250000D03*
D16*
X15688000Y30200000D03*
D17*
X15688000Y29650000D03*
D16*
X15688000Y29100000D03*
D17*
X15688000Y28550000D03*
D16*
X15688000Y28000000D03*
D17*
X16238000Y30200000D03*
X16238000Y29100000D03*
X16238000Y28000000D03*
D16*
X16788000Y30200000D03*
D17*
X16788000Y29650000D03*
D16*
X16788000Y29100000D03*
D18*
X16788000Y29100000D03*
D17*
X16788000Y28550000D03*
D16*
X16788000Y28000000D03*
D17*
X17338000Y30200000D03*
X17338000Y29100000D03*
X17338000Y28000000D03*
D16*
X17888000Y30200000D03*
D17*
X17888000Y29650000D03*
D16*
X17888000Y29100000D03*
D17*
X17888000Y28550000D03*
D16*
X17888000Y28000000D03*
%TD*%
D14*
%TO.C,H1*%
X0Y0D03*
%TD*%
D19*
%TO.C,C4*%
X4490804Y8983000D03*
X2940804Y8983000D03*
%TD*%
D20*
%TO.C,R3*%
X5004000Y13000000D03*
X6024000Y13000000D03*
%TD*%
D14*
%TO.C,H4*%
X32000000Y39000000D03*
%TD*%
D21*
%TO.C,C1*%
X4449804Y4250000D03*
X3489804Y4250000D03*
%TD*%
D12*
%TO.C,J3*%
X33500000Y33750000D03*
D13*
X33500000Y31210000D03*
X33500000Y28670000D03*
X33500000Y26130000D03*
X33500000Y23590000D03*
X33500000Y21050000D03*
X33500000Y18510000D03*
X33500000Y15970000D03*
%TD*%
D20*
%TO.C,R2*%
X5004000Y11750000D03*
X6024000Y11750000D03*
%TD*%
D22*
%TO.C,SW4*%
X5875000Y19020000D03*
X5875000Y17750000D03*
X5875000Y16480000D03*
X11125000Y16480000D03*
X11125000Y17750000D03*
X11125000Y19020000D03*
%TD*%
D14*
%TO.C,H2*%
X32000000Y0D03*
%TD*%
D23*
%TO.C,R6*%
X24779000Y10510000D03*
X24779000Y11530000D03*
%TD*%
D24*
%TO.C,C9*%
X9858000Y21460000D03*
X10818000Y21460000D03*
%TD*%
D21*
%TO.C,C8*%
X6947804Y5173000D03*
X5987804Y5173000D03*
%TD*%
D20*
%TO.C,R8*%
X6145000Y21460000D03*
X7165000Y21460000D03*
%TD*%
D25*
%TO.C,C6*%
X18470000Y16474000D03*
X18470000Y17434000D03*
%TD*%
D26*
%TO.C,C5*%
X6975804Y7431000D03*
X6975804Y6471000D03*
%TD*%
%TO.C,C2*%
X5705804Y7431000D03*
X5705804Y6471000D03*
%TD*%
D21*
%TO.C,C3*%
X6947804Y8729000D03*
X5987804Y8729000D03*
%TD*%
D12*
%TO.C,J2*%
X4600000Y1040000D03*
D13*
X4600000Y-1500000D03*
X7140000Y1040000D03*
X7140000Y-1500000D03*
X9680000Y1040000D03*
X9680000Y-1500000D03*
X12220000Y1040000D03*
X12220000Y-1500000D03*
X14760000Y1040000D03*
X14760000Y-1500000D03*
X17300000Y1040000D03*
X17300000Y-1500000D03*
X19840000Y1040000D03*
X19840000Y-1500000D03*
X22380000Y1040000D03*
X22380000Y-1500000D03*
X24920000Y1040000D03*
X24920000Y-1500000D03*
X27460000Y1040000D03*
X27460000Y-1500000D03*
%TD*%
D27*
%TO.C,J6*%
X29115000Y5619500D03*
X29115000Y11399500D03*
D28*
X28040000Y5309500D03*
X28040000Y6109500D03*
D29*
X28040000Y7259500D03*
X28040000Y8259500D03*
X28040000Y8759500D03*
X28040000Y9759500D03*
D28*
X28040000Y10909500D03*
X28040000Y11709500D03*
X28040000Y11709500D03*
X28040000Y10909500D03*
D29*
X28040000Y10259500D03*
X28040000Y9259500D03*
X28040000Y7759500D03*
X28040000Y6759500D03*
D28*
X28040000Y6109500D03*
X28040000Y5309500D03*
D30*
X28615000Y4189500D03*
D31*
X32795000Y4189500D03*
D30*
X28615000Y12829500D03*
D31*
X32795000Y12829500D03*
%TD*%
D32*
%TO.C,U2*%
X4323804Y7330500D03*
X3673804Y7330500D03*
X3023804Y7330500D03*
X3023804Y5555500D03*
X3673804Y5555500D03*
X4323804Y5555500D03*
D33*
X3673804Y6443000D03*
%TD*%
D34*
%TO.C,U4*%
X24525000Y7972000D03*
D35*
X24600000Y8509500D03*
D34*
X24525000Y9047000D03*
X22825000Y9047000D03*
D35*
X22750000Y8509500D03*
D34*
X22825000Y7972000D03*
%TD*%
D23*
%TO.C,R4*%
X13644000Y16472000D03*
X13644000Y17492000D03*
%TD*%
D20*
%TO.C,R1*%
X5004000Y10538000D03*
X6024000Y10538000D03*
%TD*%
D36*
%TO.C,D3*%
X20414000Y5712000D03*
X22614000Y5712000D03*
%TD*%
D37*
%TO.C,U5*%
X20500000Y15500000D03*
X20500000Y18000000D03*
X20500000Y20500000D03*
X27000000Y15500000D03*
X27000000Y18000000D03*
X27000000Y20500000D03*
%TD*%
D38*
%TO.C,U3*%
X8969500Y11256000D03*
X8969500Y10756000D03*
X8969500Y10256000D03*
X8969500Y9756000D03*
X8969500Y9256000D03*
X8969500Y8756000D03*
X8969500Y8256000D03*
X8969500Y7756000D03*
X8969500Y7256000D03*
X8969500Y6756000D03*
X8969500Y6256000D03*
X8969500Y5756000D03*
D39*
X10382000Y4343500D03*
X10882000Y4343500D03*
X11382000Y4343500D03*
X11882000Y4343500D03*
X12382000Y4343500D03*
X12882000Y4343500D03*
X13382000Y4343500D03*
X13882000Y4343500D03*
X14382000Y4343500D03*
X14882000Y4343500D03*
X15382000Y4343500D03*
X15882000Y4343500D03*
D38*
X17294500Y5756000D03*
X17294500Y6256000D03*
X17294500Y6756000D03*
X17294500Y7256000D03*
X17294500Y7756000D03*
X17294500Y8256000D03*
X17294500Y8756000D03*
X17294500Y9256000D03*
X17294500Y9756000D03*
X17294500Y10256000D03*
X17294500Y10756000D03*
X17294500Y11256000D03*
D39*
X15882000Y12668500D03*
X15382000Y12668500D03*
X14882000Y12668500D03*
X14382000Y12668500D03*
X13882000Y12668500D03*
X13382000Y12668500D03*
X12882000Y12668500D03*
X12382000Y12668500D03*
X11882000Y12668500D03*
X11382000Y12668500D03*
X10882000Y12668500D03*
X10382000Y12668500D03*
%TD*%
D26*
%TO.C,C7*%
X18470000Y19720000D03*
X18470000Y18760000D03*
%TD*%
D40*
%TO.C,D1*%
X2868000Y12893000D03*
X2868000Y11143000D03*
X3868000Y11143000D03*
X3868000Y12893000D03*
%TD*%
D41*
%TO.C,U6*%
X15250000Y16837500D03*
X15750000Y16837500D03*
X16250000Y16837500D03*
X16750000Y16837500D03*
D42*
X16912500Y17500000D03*
X16912500Y18000000D03*
X16912500Y18500000D03*
D41*
X16750000Y19162500D03*
X16250000Y19162500D03*
X15750000Y19162500D03*
X15250000Y19162500D03*
D42*
X15087500Y18500000D03*
X15087500Y18000000D03*
X15087500Y17500000D03*
%TD*%
D10*
%TO.C,R5*%
X13644000Y19778000D03*
X13644000Y18758000D03*
%TD*%
M02*
