%TF.GenerationSoftware,KiCad,Pcbnew,8.0.0*%
%TF.CreationDate,2024-03-01T21:25:54+00:00*%
%TF.ProjectId,Microll,4d696372-6f6c-46c2-9e6b-696361645f70,rev?*%
%TF.SameCoordinates,PX564eba0PY53724e0*%
%TF.FileFunction,Copper,L2,Bot*%
%TF.FilePolarity,Positive*%
%FSLAX46Y46*%
G04 Gerber Fmt 4.6, Leading zero omitted, Abs format (unit mm)*
G04 Created by KiCad (PCBNEW 8.0.0) date 2024-03-01 21:25:54*
%MOMM*%
%LPD*%
G01*
G04 APERTURE LIST*
%TA.AperFunction,ComponentPad*%
%ADD10R,1.700000X1.700000*%
%TD*%
%TA.AperFunction,ComponentPad*%
%ADD11O,1.700000X1.700000*%
%TD*%
%TA.AperFunction,ComponentPad*%
%ADD12C,0.475000*%
%TD*%
%TA.AperFunction,ComponentPad*%
%ADD13O,2.100000X1.000000*%
%TD*%
%TA.AperFunction,ComponentPad*%
%ADD14O,1.800000X1.000000*%
%TD*%
%TA.AperFunction,ComponentPad*%
%ADD15C,0.500000*%
%TD*%
%TA.AperFunction,SMDPad,CuDef*%
%ADD16R,1.600000X0.500000*%
%TD*%
%TA.AperFunction,ViaPad*%
%ADD17C,0.400000*%
%TD*%
%TA.AperFunction,ViaPad*%
%ADD18C,0.800000*%
%TD*%
%TA.AperFunction,Conductor*%
%ADD19C,0.250000*%
%TD*%
%TA.AperFunction,Conductor*%
%ADD20C,0.150000*%
%TD*%
G04 APERTURE END LIST*
D10*
%TO.P,J1,1,Pin_1*%
%TO.N,+3.3V*%
X-1500000Y33750000D03*
D11*
%TO.P,J1,2,Pin_2*%
%TO.N,GND*%
X-1500000Y31210000D03*
%TO.P,J1,3,Pin_3*%
%TO.N,SDA*%
X-1500000Y28670000D03*
%TO.P,J1,4,Pin_4*%
%TO.N,SCL*%
X-1500000Y26130000D03*
%TO.P,J1,5,Pin_5*%
%TO.N,/GPIO6*%
X-1500000Y23590000D03*
%TO.P,J1,6,Pin_6*%
%TO.N,/GPIO7*%
X-1500000Y21050000D03*
%TO.P,J1,7,Pin_7*%
%TO.N,/GPIO8*%
X-1500000Y18510000D03*
%TO.P,J1,8,Pin_8*%
%TO.N,/GPIO9*%
X-1500000Y15970000D03*
%TO.P,J1,9,Pin_9*%
%TO.N,/PD3*%
X-1500000Y13430000D03*
%TO.P,J1,10,Pin_10*%
%TO.N,/PB3*%
X-1500000Y10890000D03*
%TO.P,J1,11,Pin_11*%
%TO.N,/PB4*%
X-1500000Y8350000D03*
%TO.P,J1,12,Pin_12*%
%TO.N,/PB5*%
X-1500000Y5810000D03*
%TD*%
D12*
%TO.P,U1,TP,TP*%
%TO.N,GND*%
X15688000Y29650000D03*
X15688000Y28550000D03*
X16238000Y30200000D03*
X16238000Y29100000D03*
X16238000Y28000000D03*
X16788000Y29650000D03*
X16788000Y28550000D03*
X17338000Y30200000D03*
X17338000Y29100000D03*
X17338000Y28000000D03*
X17888000Y29650000D03*
X17888000Y28550000D03*
%TD*%
D10*
%TO.P,J3,1,Pin_1*%
%TO.N,/GPIO0*%
X33500000Y33750000D03*
D11*
%TO.P,J3,2,Pin_2*%
%TO.N,/GPIO1*%
X33500000Y31210000D03*
%TO.P,J3,3,Pin_3*%
%TO.N,/GPIO2*%
X33500000Y28670000D03*
%TO.P,J3,4,Pin_4*%
%TO.N,/GPIO3*%
X33500000Y26130000D03*
%TO.P,J3,5,Pin_5*%
%TO.N,/Tx*%
X33500000Y23590000D03*
%TO.P,J3,6,Pin_6*%
%TO.N,/Rx*%
X33500000Y21050000D03*
%TO.P,J3,7,Pin_7*%
%TO.N,CAN_TX*%
X33500000Y18510000D03*
%TO.P,J3,8,Pin_8*%
%TO.N,CAN_RX*%
X33500000Y15970000D03*
%TD*%
D10*
%TO.P,J2,1,Pin_1*%
%TO.N,/ADC1_IN0*%
X4600000Y1040000D03*
D11*
%TO.P,J2,2,Pin_2*%
%TO.N,/ADC1_IN1*%
X4600000Y-1500000D03*
%TO.P,J2,3,Pin_3*%
%TO.N,/PA2*%
X7140000Y1040000D03*
%TO.P,J2,4,Pin_4*%
%TO.N,/PA3*%
X7140000Y-1500000D03*
%TO.P,J2,5,Pin_5*%
%TO.N,/DAC1_OUT1*%
X9680000Y1040000D03*
%TO.P,J2,6,Pin_6*%
%TO.N,SPI_SCK*%
X9680000Y-1500000D03*
%TO.P,J2,7,Pin_7*%
%TO.N,SPI_MOSI*%
X12220000Y1040000D03*
%TO.P,J2,8,Pin_8*%
%TO.N,SPI_MISO*%
X12220000Y-1500000D03*
%TO.P,J2,9,Pin_9*%
%TO.N,/PB1*%
X14760000Y1040000D03*
%TO.P,J2,10,Pin_10*%
%TO.N,/PB0*%
X14760000Y-1500000D03*
%TO.P,J2,11,Pin_11*%
%TO.N,/PB14*%
X17300000Y1040000D03*
%TO.P,J2,12,Pin_12*%
%TO.N,/PB13*%
X17300000Y-1500000D03*
%TO.P,J2,13,Pin_13*%
%TO.N,/PA8*%
X19840000Y1040000D03*
%TO.P,J2,14,Pin_14*%
%TO.N,/PB15*%
X19840000Y-1500000D03*
%TO.P,J2,15,Pin_15*%
%TO.N,USART_RX*%
X22380000Y1040000D03*
%TO.P,J2,16,Pin_16*%
%TO.N,USART_TX*%
X22380000Y-1500000D03*
%TO.P,J2,17,Pin_17*%
%TO.N,+5V*%
X24920000Y1040000D03*
%TO.P,J2,18,Pin_18*%
%TO.N,V_IN*%
X24920000Y-1500000D03*
%TO.P,J2,19,Pin_19*%
%TO.N,GND*%
X27460000Y1040000D03*
%TO.P,J2,20,Pin_20*%
X27460000Y-1500000D03*
%TD*%
D13*
%TO.P,J6,S1,SHIELD*%
%TO.N,unconnected-(J6-SHIELD-PadS1)*%
X28615000Y4189500D03*
D14*
%TO.N,unconnected-(J6-SHIELD-PadS1)_0*%
X32795000Y4189500D03*
D13*
%TO.N,unconnected-(J6-SHIELD-PadS1)_2*%
X28615000Y12829500D03*
D14*
%TO.N,unconnected-(J6-SHIELD-PadS1)_1*%
X32795000Y12829500D03*
%TD*%
D15*
%TO.P,U2,7,PAD*%
%TO.N,GND*%
X4223804Y6443000D03*
D16*
X3673804Y6443000D03*
D15*
X3123804Y6443000D03*
%TD*%
D17*
%TO.N,GND*%
X3500000Y5000000D03*
D18*
X27000000Y5250000D03*
D17*
X25500000Y11500000D03*
D18*
X27000000Y11500000D03*
D17*
X7611805Y6458904D03*
X8500000Y23250000D03*
X22750000Y5750000D03*
X6000000Y9500000D03*
X6000000Y5750000D03*
X25500000Y5500000D03*
X25250000Y8500000D03*
X9500000Y16500000D03*
X17500000Y18000000D03*
X17750000Y17250000D03*
X7500000Y17750000D03*
X17750000Y19000000D03*
X7675952Y7299926D03*
X2940804Y8250000D03*
X6250000Y6500000D03*
X17500000Y18500000D03*
%TO.N,+5V*%
X2000000Y12000000D03*
D18*
X2779509Y2375000D03*
X5195460Y4250000D03*
D17*
%TO.N,/D+*%
X27000000Y9250000D03*
X25250000Y7949997D03*
%TO.N,SCL*%
X13540905Y18111999D03*
X12325000Y20000000D03*
X13175000Y15750000D03*
%TO.N,/RESET*%
X1250000Y15925000D03*
X1250000Y4250000D03*
%TO.N,/PB5*%
X10692882Y13807118D03*
X10818251Y12181749D03*
%TO.N,/PB4*%
X11318251Y12681749D03*
X11192882Y14307118D03*
%TO.N,/PB3*%
X11500000Y15000000D03*
X11818251Y13181749D03*
%TO.N,/PD3*%
X12318251Y13681749D03*
X12000000Y15500000D03*
%TO.N,/USB-*%
X23750000Y11500000D03*
X24000000Y17250000D03*
%TO.N,/USB+*%
X23250000Y17250000D03*
X23750000Y10750000D03*
%TO.N,/Blue*%
X11000000Y23250000D03*
X21750000Y23250000D03*
X26250000Y23250000D03*
X8250000Y13382118D03*
X14000000Y23250000D03*
X8250000Y16000000D03*
%TO.N,/BOOT*%
X9250000Y17750000D03*
X15000000Y11000000D03*
%TO.N,/EN*%
X6250000Y33750000D03*
X6000000Y20000000D03*
%TD*%
D19*
%TO.N,+5V*%
X2779509Y2529509D02*
X4500000Y4250000D01*
X4500000Y4250000D02*
X5195460Y4250000D01*
X2779509Y2375000D02*
X2779509Y2529509D01*
X2000000Y3154509D02*
X2000000Y12000000D01*
X2779509Y2375000D02*
X2000000Y3154509D01*
D20*
%TO.N,/D+*%
X25699997Y7949997D02*
X25250000Y7949997D01*
X27000000Y9250000D02*
X25699997Y7949997D01*
%TO.N,SCL*%
X13540905Y18111999D02*
X12325000Y19327904D01*
X13175000Y15750000D02*
X13175000Y17746094D01*
X12325000Y19327904D02*
X12325000Y20000000D01*
X13175000Y17746094D02*
X13540905Y18111999D01*
%TO.N,/RESET*%
X1250000Y4250000D02*
X1250000Y15925000D01*
%TO.N,/PB5*%
X10818251Y13681749D02*
X10692882Y13807118D01*
X10818251Y12181749D02*
X10818251Y13681749D01*
%TO.N,/PB4*%
X11318251Y14181749D02*
X11192882Y14307118D01*
X11318251Y12681749D02*
X11318251Y14181749D01*
%TO.N,/PB3*%
X11818251Y13181749D02*
X11818251Y14681749D01*
X11818251Y14681749D02*
X11500000Y15000000D01*
%TO.N,/PD3*%
X12318251Y15181749D02*
X12318251Y13681749D01*
X12000000Y15500000D02*
X12318251Y15181749D01*
%TO.N,/USB-*%
X23800000Y11726777D02*
X23800000Y17050000D01*
X23800000Y17050000D02*
X24000000Y17250000D01*
X23750000Y11500000D02*
X23750000Y11676777D01*
X23750000Y11676777D02*
X23800000Y11726777D01*
%TO.N,/USB+*%
X23325000Y11676041D02*
X23500000Y11851041D01*
X23325000Y11175000D02*
X23325000Y11676041D01*
X23500000Y17000000D02*
X23250000Y17250000D01*
X23500000Y11851041D02*
X23500000Y17000000D01*
X23750000Y10750000D02*
X23325000Y11175000D01*
%TO.N,/Blue*%
X21750000Y23250000D02*
X26250000Y23250000D01*
X11000000Y23250000D02*
X14000000Y23250000D01*
X8250000Y13382118D02*
X8250000Y16000000D01*
%TO.N,/BOOT*%
X10351041Y17750000D02*
X9250000Y17750000D01*
X15000000Y13101041D02*
X10351041Y17750000D01*
X15000000Y11000000D02*
X15000000Y13101041D01*
%TO.N,/EN*%
X6000000Y33500000D02*
X6250000Y33750000D01*
X6000000Y20000000D02*
X6000000Y33500000D01*
%TD*%
%TA.AperFunction,Conductor*%
%TO.N,GND*%
G36*
X7131039Y42480315D02*
G01*
X7176794Y42427511D01*
X7188000Y42376000D01*
X7188000Y42350000D01*
X7188000Y36350000D01*
X25188000Y36350000D01*
X25188000Y38901578D01*
X30749500Y38901578D01*
X30780290Y38707174D01*
X30841117Y38519971D01*
X30930476Y38344595D01*
X31046172Y38185354D01*
X31185354Y38046172D01*
X31344595Y37930476D01*
X31427455Y37888257D01*
X31519970Y37841118D01*
X31519972Y37841118D01*
X31519975Y37841116D01*
X31620317Y37808513D01*
X31707173Y37780291D01*
X31901578Y37749500D01*
X31901583Y37749500D01*
X32098422Y37749500D01*
X32292826Y37780291D01*
X32480025Y37841116D01*
X32655405Y37930476D01*
X32814646Y38046172D01*
X32953828Y38185354D01*
X33069524Y38344595D01*
X33158884Y38519975D01*
X33219709Y38707174D01*
X33250500Y38901578D01*
X33250500Y39098423D01*
X33219709Y39292827D01*
X33158882Y39480030D01*
X33069523Y39655406D01*
X32953828Y39814646D01*
X32814646Y39953828D01*
X32655405Y40069524D01*
X32480029Y40158883D01*
X32292826Y40219710D01*
X32098422Y40250500D01*
X32098417Y40250500D01*
X31901583Y40250500D01*
X31901578Y40250500D01*
X31707173Y40219710D01*
X31519970Y40158883D01*
X31344594Y40069524D01*
X31253741Y40003515D01*
X31185354Y39953828D01*
X31185352Y39953826D01*
X31185351Y39953826D01*
X31046174Y39814649D01*
X31046174Y39814648D01*
X31046172Y39814646D01*
X30996485Y39746259D01*
X30930476Y39655406D01*
X30841117Y39480030D01*
X30780290Y39292827D01*
X30749500Y39098423D01*
X30749500Y38901578D01*
X25188000Y38901578D01*
X25188000Y42376000D01*
X25207685Y42443039D01*
X25260489Y42488794D01*
X25312000Y42500000D01*
X31999219Y42500000D01*
X32000840Y42499990D01*
X32177619Y42497677D01*
X32188938Y42497010D01*
X32541445Y42459960D01*
X32554252Y42457930D01*
X32900130Y42384412D01*
X32912665Y42381053D01*
X33248965Y42271782D01*
X33261082Y42267131D01*
X33584131Y42123302D01*
X33595679Y42117417D01*
X33901918Y41940610D01*
X33912800Y41933543D01*
X34198877Y41725696D01*
X34208960Y41717531D01*
X34471742Y41480921D01*
X34480920Y41471743D01*
X34717530Y41208961D01*
X34725698Y41198874D01*
X34933540Y40912804D01*
X34940609Y40901919D01*
X35117412Y40595688D01*
X35123305Y40584123D01*
X35267130Y40261083D01*
X35271781Y40248966D01*
X35381052Y39912666D01*
X35384411Y39900129D01*
X35457928Y39554259D01*
X35459959Y39541440D01*
X35497008Y39188949D01*
X35497676Y39177609D01*
X35499989Y39000841D01*
X35500000Y38999219D01*
X35500000Y782D01*
X35499989Y-840D01*
X35497676Y-177608D01*
X35497008Y-188948D01*
X35459959Y-541439D01*
X35457928Y-554258D01*
X35384411Y-900128D01*
X35381052Y-912665D01*
X35271781Y-1248965D01*
X35267130Y-1261082D01*
X35123305Y-1584122D01*
X35117412Y-1595687D01*
X34940609Y-1901918D01*
X34933540Y-1912803D01*
X34725698Y-2198873D01*
X34717530Y-2208960D01*
X34480920Y-2471742D01*
X34471742Y-2480920D01*
X34208960Y-2717530D01*
X34198873Y-2725698D01*
X33912803Y-2933540D01*
X33901918Y-2940609D01*
X33595687Y-3117412D01*
X33584122Y-3123305D01*
X33261082Y-3267130D01*
X33248965Y-3271781D01*
X32912665Y-3381052D01*
X32900128Y-3384411D01*
X32554258Y-3457928D01*
X32541439Y-3459959D01*
X32188948Y-3497008D01*
X32177608Y-3497676D01*
X32000841Y-3499989D01*
X31999219Y-3500000D01*
X781Y-3500000D01*
X-841Y-3499989D01*
X-177609Y-3497676D01*
X-188949Y-3497008D01*
X-541440Y-3459959D01*
X-554259Y-3457928D01*
X-900129Y-3384411D01*
X-912666Y-3381052D01*
X-1248966Y-3271781D01*
X-1261083Y-3267130D01*
X-1584123Y-3123305D01*
X-1595688Y-3117412D01*
X-1901919Y-2940609D01*
X-1912804Y-2933540D01*
X-2198874Y-2725698D01*
X-2208961Y-2717530D01*
X-2471743Y-2480920D01*
X-2480921Y-2471742D01*
X-2603222Y-2335913D01*
X-2717534Y-2208957D01*
X-2725699Y-2198873D01*
X-2810935Y-2081556D01*
X-2933543Y-1912800D01*
X-2940610Y-1901918D01*
X-3055462Y-1702989D01*
X-3117417Y-1595679D01*
X-3123302Y-1584131D01*
X-3160759Y-1500000D01*
X3594659Y-1500000D01*
X3613975Y-1696129D01*
X3671188Y-1884733D01*
X3764086Y-2058532D01*
X3764090Y-2058539D01*
X3889116Y-2210883D01*
X4041460Y-2335909D01*
X4041467Y-2335913D01*
X4215266Y-2428811D01*
X4215269Y-2428811D01*
X4215273Y-2428814D01*
X4403868Y-2486024D01*
X4600000Y-2505341D01*
X4796132Y-2486024D01*
X4984727Y-2428814D01*
X5158538Y-2335910D01*
X5310883Y-2210883D01*
X5435910Y-2058538D01*
X5519625Y-1901918D01*
X5528811Y-1884733D01*
X5528811Y-1884732D01*
X5528814Y-1884727D01*
X5586024Y-1696132D01*
X5605341Y-1500000D01*
X6134659Y-1500000D01*
X6153975Y-1696129D01*
X6211188Y-1884733D01*
X6304086Y-2058532D01*
X6304090Y-2058539D01*
X6429116Y-2210883D01*
X6581460Y-2335909D01*
X6581467Y-2335913D01*
X6755266Y-2428811D01*
X6755269Y-2428811D01*
X6755273Y-2428814D01*
X6943868Y-2486024D01*
X7140000Y-2505341D01*
X7336132Y-2486024D01*
X7524727Y-2428814D01*
X7698538Y-2335910D01*
X7850883Y-2210883D01*
X7975910Y-2058538D01*
X8059625Y-1901918D01*
X8068811Y-1884733D01*
X8068811Y-1884732D01*
X8068814Y-1884727D01*
X8126024Y-1696132D01*
X8145341Y-1500000D01*
X8674659Y-1500000D01*
X8693975Y-1696129D01*
X8751188Y-1884733D01*
X8844086Y-2058532D01*
X8844090Y-2058539D01*
X8969116Y-2210883D01*
X9121460Y-2335909D01*
X9121467Y-2335913D01*
X9295266Y-2428811D01*
X9295269Y-2428811D01*
X9295273Y-2428814D01*
X9483868Y-2486024D01*
X9680000Y-2505341D01*
X9876132Y-2486024D01*
X10064727Y-2428814D01*
X10238538Y-2335910D01*
X10390883Y-2210883D01*
X10515910Y-2058538D01*
X10599625Y-1901918D01*
X10608811Y-1884733D01*
X10608811Y-1884732D01*
X10608814Y-1884727D01*
X10666024Y-1696132D01*
X10685341Y-1500000D01*
X11214659Y-1500000D01*
X11233975Y-1696129D01*
X11291188Y-1884733D01*
X11384086Y-2058532D01*
X11384090Y-2058539D01*
X11509116Y-2210883D01*
X11661460Y-2335909D01*
X11661467Y-2335913D01*
X11835266Y-2428811D01*
X11835269Y-2428811D01*
X11835273Y-2428814D01*
X12023868Y-2486024D01*
X12220000Y-2505341D01*
X12416132Y-2486024D01*
X12604727Y-2428814D01*
X12778538Y-2335910D01*
X12930883Y-2210883D01*
X13055910Y-2058538D01*
X13139625Y-1901918D01*
X13148811Y-1884733D01*
X13148811Y-1884732D01*
X13148814Y-1884727D01*
X13206024Y-1696132D01*
X13225341Y-1500000D01*
X13754659Y-1500000D01*
X13773975Y-1696129D01*
X13831188Y-1884733D01*
X13924086Y-2058532D01*
X13924090Y-2058539D01*
X14049116Y-2210883D01*
X14201460Y-2335909D01*
X14201467Y-2335913D01*
X14375266Y-2428811D01*
X14375269Y-2428811D01*
X14375273Y-2428814D01*
X14563868Y-2486024D01*
X14760000Y-2505341D01*
X14956132Y-2486024D01*
X15144727Y-2428814D01*
X15318538Y-2335910D01*
X15470883Y-2210883D01*
X15595910Y-2058538D01*
X15679625Y-1901918D01*
X15688811Y-1884733D01*
X15688811Y-1884732D01*
X15688814Y-1884727D01*
X15746024Y-1696132D01*
X15765341Y-1500000D01*
X16294659Y-1500000D01*
X16313975Y-1696129D01*
X16371188Y-1884733D01*
X16464086Y-2058532D01*
X16464090Y-2058539D01*
X16589116Y-2210883D01*
X16741460Y-2335909D01*
X16741467Y-2335913D01*
X16915266Y-2428811D01*
X16915269Y-2428811D01*
X16915273Y-2428814D01*
X17103868Y-2486024D01*
X17300000Y-2505341D01*
X17496132Y-2486024D01*
X17684727Y-2428814D01*
X17858538Y-2335910D01*
X18010883Y-2210883D01*
X18135910Y-2058538D01*
X18219625Y-1901918D01*
X18228811Y-1884733D01*
X18228811Y-1884732D01*
X18228814Y-1884727D01*
X18286024Y-1696132D01*
X18305341Y-1500000D01*
X18834659Y-1500000D01*
X18853975Y-1696129D01*
X18911188Y-1884733D01*
X19004086Y-2058532D01*
X19004090Y-2058539D01*
X19129116Y-2210883D01*
X19281460Y-2335909D01*
X19281467Y-2335913D01*
X19455266Y-2428811D01*
X19455269Y-2428811D01*
X19455273Y-2428814D01*
X19643868Y-2486024D01*
X19840000Y-2505341D01*
X20036132Y-2486024D01*
X20224727Y-2428814D01*
X20398538Y-2335910D01*
X20550883Y-2210883D01*
X20675910Y-2058538D01*
X20759625Y-1901918D01*
X20768811Y-1884733D01*
X20768811Y-1884732D01*
X20768814Y-1884727D01*
X20826024Y-1696132D01*
X20845341Y-1500000D01*
X21374659Y-1500000D01*
X21393975Y-1696129D01*
X21451188Y-1884733D01*
X21544086Y-2058532D01*
X21544090Y-2058539D01*
X21669116Y-2210883D01*
X21821460Y-2335909D01*
X21821467Y-2335913D01*
X21995266Y-2428811D01*
X21995269Y-2428811D01*
X21995273Y-2428814D01*
X22183868Y-2486024D01*
X22380000Y-2505341D01*
X22576132Y-2486024D01*
X22764727Y-2428814D01*
X22938538Y-2335910D01*
X23090883Y-2210883D01*
X23215910Y-2058538D01*
X23299625Y-1901918D01*
X23308811Y-1884733D01*
X23308811Y-1884732D01*
X23308814Y-1884727D01*
X23366024Y-1696132D01*
X23385341Y-1500000D01*
X23914659Y-1500000D01*
X23933975Y-1696129D01*
X23991188Y-1884733D01*
X24084086Y-2058532D01*
X24084090Y-2058539D01*
X24209116Y-2210883D01*
X24361460Y-2335909D01*
X24361467Y-2335913D01*
X24535266Y-2428811D01*
X24535269Y-2428811D01*
X24535273Y-2428814D01*
X24723868Y-2486024D01*
X24920000Y-2505341D01*
X25116132Y-2486024D01*
X25304727Y-2428814D01*
X25478538Y-2335910D01*
X25630883Y-2210883D01*
X25755910Y-2058538D01*
X25839625Y-1901918D01*
X25848811Y-1884733D01*
X25848811Y-1884732D01*
X25848814Y-1884727D01*
X25906024Y-1696132D01*
X25925341Y-1500000D01*
X25913030Y-1374999D01*
X26366869Y-1374999D01*
X26366870Y-1375000D01*
X26975856Y-1375000D01*
X26960000Y-1434174D01*
X26960000Y-1565826D01*
X26975856Y-1625000D01*
X26366870Y-1625000D01*
X26374097Y-1702989D01*
X26374097Y-1702992D01*
X26429883Y-1899063D01*
X26429886Y-1899069D01*
X26520754Y-2081556D01*
X26643608Y-2244242D01*
X26794260Y-2381578D01*
X26967584Y-2488897D01*
X27157678Y-2562539D01*
X27335000Y-2595686D01*
X27335000Y-1984144D01*
X27394174Y-2000000D01*
X27525826Y-2000000D01*
X27585000Y-1984144D01*
X27585000Y-2595686D01*
X27762321Y-2562539D01*
X27952415Y-2488897D01*
X28125739Y-2381578D01*
X28276391Y-2244242D01*
X28399245Y-2081556D01*
X28490113Y-1899069D01*
X28490116Y-1899063D01*
X28545902Y-1702992D01*
X28545902Y-1702989D01*
X28553130Y-1625000D01*
X27944144Y-1625000D01*
X27960000Y-1565826D01*
X27960000Y-1434174D01*
X27944144Y-1375000D01*
X28553130Y-1375000D01*
X28553130Y-1374999D01*
X28545902Y-1297010D01*
X28545902Y-1297007D01*
X28490116Y-1100936D01*
X28490113Y-1100930D01*
X28399245Y-918443D01*
X28276391Y-755757D01*
X28125739Y-618421D01*
X27952415Y-511102D01*
X27762321Y-437460D01*
X27585000Y-404312D01*
X27585000Y-1015855D01*
X27525826Y-1000000D01*
X27394174Y-1000000D01*
X27335000Y-1015855D01*
X27335000Y-404312D01*
X27157678Y-437460D01*
X26967584Y-511102D01*
X26794260Y-618421D01*
X26643608Y-755757D01*
X26520754Y-918443D01*
X26429886Y-1100930D01*
X26429883Y-1100936D01*
X26374097Y-1297007D01*
X26374097Y-1297010D01*
X26366869Y-1374999D01*
X25913030Y-1374999D01*
X25906024Y-1303868D01*
X25848814Y-1115273D01*
X25848811Y-1115269D01*
X25848811Y-1115266D01*
X25755913Y-941467D01*
X25755909Y-941460D01*
X25630883Y-789116D01*
X25478539Y-664090D01*
X25478532Y-664086D01*
X25304733Y-571188D01*
X25304727Y-571186D01*
X25116132Y-513976D01*
X25116129Y-513975D01*
X24920000Y-494659D01*
X24723870Y-513975D01*
X24535266Y-571188D01*
X24361467Y-664086D01*
X24361460Y-664090D01*
X24209116Y-789116D01*
X24084090Y-941460D01*
X24084086Y-941467D01*
X23991188Y-1115266D01*
X23933975Y-1303870D01*
X23914659Y-1500000D01*
X23385341Y-1500000D01*
X23366024Y-1303868D01*
X23308814Y-1115273D01*
X23308811Y-1115269D01*
X23308811Y-1115266D01*
X23215913Y-941467D01*
X23215909Y-941460D01*
X23090883Y-789116D01*
X22938539Y-664090D01*
X22938532Y-664086D01*
X22764733Y-571188D01*
X22764727Y-571186D01*
X22576132Y-513976D01*
X22576129Y-513975D01*
X22380000Y-494659D01*
X22183870Y-513975D01*
X21995266Y-571188D01*
X21821467Y-664086D01*
X21821460Y-664090D01*
X21669116Y-789116D01*
X21544090Y-941460D01*
X21544086Y-941467D01*
X21451188Y-1115266D01*
X21393975Y-1303870D01*
X21374659Y-1500000D01*
X20845341Y-1500000D01*
X20826024Y-1303868D01*
X20768814Y-1115273D01*
X20768811Y-1115269D01*
X20768811Y-1115266D01*
X20675913Y-941467D01*
X20675909Y-941460D01*
X20550883Y-789116D01*
X20398539Y-664090D01*
X20398532Y-664086D01*
X20224733Y-571188D01*
X20224727Y-571186D01*
X20036132Y-513976D01*
X20036129Y-513975D01*
X19840000Y-494659D01*
X19643870Y-513975D01*
X19455266Y-571188D01*
X19281467Y-664086D01*
X19281460Y-664090D01*
X19129116Y-789116D01*
X19004090Y-941460D01*
X19004086Y-941467D01*
X18911188Y-1115266D01*
X18853975Y-1303870D01*
X18834659Y-1500000D01*
X18305341Y-1500000D01*
X18286024Y-1303868D01*
X18228814Y-1115273D01*
X18228811Y-1115269D01*
X18228811Y-1115266D01*
X18135913Y-941467D01*
X18135909Y-941460D01*
X18010883Y-789116D01*
X17858539Y-664090D01*
X17858532Y-664086D01*
X17684733Y-571188D01*
X17684727Y-571186D01*
X17496132Y-513976D01*
X17496129Y-513975D01*
X17300000Y-494659D01*
X17103870Y-513975D01*
X16915266Y-571188D01*
X16741467Y-664086D01*
X16741460Y-664090D01*
X16589116Y-789116D01*
X16464090Y-941460D01*
X16464086Y-941467D01*
X16371188Y-1115266D01*
X16313975Y-1303870D01*
X16294659Y-1500000D01*
X15765341Y-1500000D01*
X15746024Y-1303868D01*
X15688814Y-1115273D01*
X15688811Y-1115269D01*
X15688811Y-1115266D01*
X15595913Y-941467D01*
X15595909Y-941460D01*
X15470883Y-789116D01*
X15318539Y-664090D01*
X15318532Y-664086D01*
X15144733Y-571188D01*
X15144727Y-571186D01*
X14956132Y-513976D01*
X14956129Y-513975D01*
X14760000Y-494659D01*
X14563870Y-513975D01*
X14375266Y-571188D01*
X14201467Y-664086D01*
X14201460Y-664090D01*
X14049116Y-789116D01*
X13924090Y-941460D01*
X13924086Y-941467D01*
X13831188Y-1115266D01*
X13773975Y-1303870D01*
X13754659Y-1500000D01*
X13225341Y-1500000D01*
X13206024Y-1303868D01*
X13148814Y-1115273D01*
X13148811Y-1115269D01*
X13148811Y-1115266D01*
X13055913Y-941467D01*
X13055909Y-941460D01*
X12930883Y-789116D01*
X12778539Y-664090D01*
X12778532Y-664086D01*
X12604733Y-571188D01*
X12604727Y-571186D01*
X12416132Y-513976D01*
X12416129Y-513975D01*
X12220000Y-494659D01*
X12023870Y-513975D01*
X11835266Y-571188D01*
X11661467Y-664086D01*
X11661460Y-664090D01*
X11509116Y-789116D01*
X11384090Y-941460D01*
X11384086Y-941467D01*
X11291188Y-1115266D01*
X11233975Y-1303870D01*
X11214659Y-1500000D01*
X10685341Y-1500000D01*
X10666024Y-1303868D01*
X10608814Y-1115273D01*
X10608811Y-1115269D01*
X10608811Y-1115266D01*
X10515913Y-941467D01*
X10515909Y-941460D01*
X10390883Y-789116D01*
X10238539Y-664090D01*
X10238532Y-664086D01*
X10064733Y-571188D01*
X10064727Y-571186D01*
X9876132Y-513976D01*
X9876129Y-513975D01*
X9680000Y-494659D01*
X9483870Y-513975D01*
X9295266Y-571188D01*
X9121467Y-664086D01*
X9121460Y-664090D01*
X8969116Y-789116D01*
X8844090Y-941460D01*
X8844086Y-941467D01*
X8751188Y-1115266D01*
X8693975Y-1303870D01*
X8674659Y-1500000D01*
X8145341Y-1500000D01*
X8126024Y-1303868D01*
X8068814Y-1115273D01*
X8068811Y-1115269D01*
X8068811Y-1115266D01*
X7975913Y-941467D01*
X7975909Y-941460D01*
X7850883Y-789116D01*
X7698539Y-664090D01*
X7698532Y-664086D01*
X7524733Y-571188D01*
X7524727Y-571186D01*
X7336132Y-513976D01*
X7336129Y-513975D01*
X7140000Y-494659D01*
X6943870Y-513975D01*
X6755266Y-571188D01*
X6581467Y-664086D01*
X6581460Y-664090D01*
X6429116Y-789116D01*
X6304090Y-941460D01*
X6304086Y-941467D01*
X6211188Y-1115266D01*
X6153975Y-1303870D01*
X6134659Y-1500000D01*
X5605341Y-1500000D01*
X5586024Y-1303868D01*
X5528814Y-1115273D01*
X5528811Y-1115269D01*
X5528811Y-1115266D01*
X5435913Y-941467D01*
X5435909Y-941460D01*
X5310883Y-789116D01*
X5158539Y-664090D01*
X5158532Y-664086D01*
X4984733Y-571188D01*
X4984727Y-571186D01*
X4796132Y-513976D01*
X4796129Y-513975D01*
X4600000Y-494659D01*
X4403870Y-513975D01*
X4215266Y-571188D01*
X4041467Y-664086D01*
X4041460Y-664090D01*
X3889116Y-789116D01*
X3764090Y-941460D01*
X3764086Y-941467D01*
X3671188Y-1115266D01*
X3613975Y-1303870D01*
X3594659Y-1500000D01*
X-3160759Y-1500000D01*
X-3267131Y-1261082D01*
X-3271782Y-1248965D01*
X-3319882Y-1100930D01*
X-3381054Y-912664D01*
X-3384412Y-900128D01*
X-3402581Y-814648D01*
X-3457930Y-554252D01*
X-3459960Y-541439D01*
X-3497010Y-188938D01*
X-3497677Y-177619D01*
X-3498713Y-98422D01*
X-1250500Y-98422D01*
X-1219710Y-292826D01*
X-1158883Y-480029D01*
X-1088368Y-618421D01*
X-1069524Y-655405D01*
X-953828Y-814646D01*
X-814646Y-953828D01*
X-655405Y-1069524D01*
X-595786Y-1099901D01*
X-480030Y-1158882D01*
X-480028Y-1158882D01*
X-480025Y-1158884D01*
X-379683Y-1191487D01*
X-292827Y-1219709D01*
X-98422Y-1250500D01*
X-98417Y-1250500D01*
X98422Y-1250500D01*
X292826Y-1219709D01*
X480025Y-1158884D01*
X655405Y-1069524D01*
X814646Y-953828D01*
X953828Y-814646D01*
X1069524Y-655405D01*
X1158884Y-480025D01*
X1219709Y-292826D01*
X1250500Y-98422D01*
X30749500Y-98422D01*
X30780290Y-292826D01*
X30841117Y-480029D01*
X30911632Y-618421D01*
X30930476Y-655405D01*
X31046172Y-814646D01*
X31185354Y-953828D01*
X31344595Y-1069524D01*
X31404214Y-1099901D01*
X31519970Y-1158882D01*
X31519972Y-1158882D01*
X31519975Y-1158884D01*
X31620317Y-1191487D01*
X31707173Y-1219709D01*
X31901578Y-1250500D01*
X31901583Y-1250500D01*
X32098422Y-1250500D01*
X32292826Y-1219709D01*
X32480025Y-1158884D01*
X32655405Y-1069524D01*
X32814646Y-953828D01*
X32953828Y-814646D01*
X33069524Y-655405D01*
X33158884Y-480025D01*
X33219709Y-292826D01*
X33250500Y-98422D01*
X33250500Y98423D01*
X33219709Y292827D01*
X33158882Y480030D01*
X33110963Y574075D01*
X33069524Y655405D01*
X32953828Y814646D01*
X32814646Y953828D01*
X32655405Y1069524D01*
X32480029Y1158883D01*
X32292826Y1219710D01*
X32098422Y1250500D01*
X32098417Y1250500D01*
X31901583Y1250500D01*
X31901578Y1250500D01*
X31707173Y1219710D01*
X31519970Y1158883D01*
X31344594Y1069524D01*
X31253741Y1003515D01*
X31185354Y953828D01*
X31185352Y953826D01*
X31185351Y953826D01*
X31046174Y814649D01*
X31046174Y814648D01*
X31046172Y814646D01*
X30996485Y746259D01*
X30930476Y655406D01*
X30841117Y480030D01*
X30780290Y292827D01*
X30749500Y98423D01*
X30749500Y-98422D01*
X1250500Y-98422D01*
X1250500Y98423D01*
X1238343Y175178D01*
X3599499Y175178D01*
X3608231Y131283D01*
X3608234Y131276D01*
X3630190Y98417D01*
X3641496Y81496D01*
X3691278Y48233D01*
X3691281Y48233D01*
X3691282Y48232D01*
X3735177Y39500D01*
X3735180Y39500D01*
X5464822Y39500D01*
X5508717Y48232D01*
X5508717Y48233D01*
X5508722Y48233D01*
X5558504Y81496D01*
X5591767Y131278D01*
X5591768Y131283D01*
X5600500Y175178D01*
X5600500Y1040000D01*
X6134659Y1040000D01*
X6153975Y843871D01*
X6211188Y655267D01*
X6304086Y481468D01*
X6304090Y481461D01*
X6429116Y329117D01*
X6581460Y204091D01*
X6581467Y204087D01*
X6755266Y111189D01*
X6755269Y111189D01*
X6755273Y111186D01*
X6943868Y53976D01*
X7140000Y34659D01*
X7336132Y53976D01*
X7524727Y111186D01*
X7562317Y131278D01*
X7613099Y158422D01*
X7698538Y204090D01*
X7850883Y329117D01*
X7975910Y481462D01*
X8025413Y574075D01*
X8068811Y655267D01*
X8068811Y655268D01*
X8068814Y655273D01*
X8126024Y843868D01*
X8145341Y1040000D01*
X8674659Y1040000D01*
X8693975Y843871D01*
X8751188Y655267D01*
X8844086Y481468D01*
X8844090Y481461D01*
X8969116Y329117D01*
X9121460Y204091D01*
X9121467Y204087D01*
X9295266Y111189D01*
X9295269Y111189D01*
X9295273Y111186D01*
X9483868Y53976D01*
X9680000Y34659D01*
X9876132Y53976D01*
X10064727Y111186D01*
X10102317Y131278D01*
X10153099Y158422D01*
X10238538Y204090D01*
X10390883Y329117D01*
X10515910Y481462D01*
X10565413Y574075D01*
X10608811Y655267D01*
X10608811Y655268D01*
X10608814Y655273D01*
X10666024Y843868D01*
X10685341Y1040000D01*
X11214659Y1040000D01*
X11233975Y843871D01*
X11291188Y655267D01*
X11384086Y481468D01*
X11384090Y481461D01*
X11509116Y329117D01*
X11661460Y204091D01*
X11661467Y204087D01*
X11835266Y111189D01*
X11835269Y111189D01*
X11835273Y111186D01*
X12023868Y53976D01*
X12220000Y34659D01*
X12416132Y53976D01*
X12604727Y111186D01*
X12642317Y131278D01*
X12693099Y158422D01*
X12778538Y204090D01*
X12930883Y329117D01*
X13055910Y481462D01*
X13105413Y574075D01*
X13148811Y655267D01*
X13148811Y655268D01*
X13148814Y655273D01*
X13206024Y843868D01*
X13225341Y1040000D01*
X13754659Y1040000D01*
X13773975Y843871D01*
X13831188Y655267D01*
X13924086Y481468D01*
X13924090Y481461D01*
X14049116Y329117D01*
X14201460Y204091D01*
X14201467Y204087D01*
X14375266Y111189D01*
X14375269Y111189D01*
X14375273Y111186D01*
X14563868Y53976D01*
X14760000Y34659D01*
X14956132Y53976D01*
X15144727Y111186D01*
X15182317Y131278D01*
X15233099Y158422D01*
X15318538Y204090D01*
X15470883Y329117D01*
X15595910Y481462D01*
X15645413Y574075D01*
X15688811Y655267D01*
X15688811Y655268D01*
X15688814Y655273D01*
X15746024Y843868D01*
X15765341Y1040000D01*
X16294659Y1040000D01*
X16313975Y843871D01*
X16371188Y655267D01*
X16464086Y481468D01*
X16464090Y481461D01*
X16589116Y329117D01*
X16741460Y204091D01*
X16741467Y204087D01*
X16915266Y111189D01*
X16915269Y111189D01*
X16915273Y111186D01*
X17103868Y53976D01*
X17300000Y34659D01*
X17496132Y53976D01*
X17684727Y111186D01*
X17722317Y131278D01*
X17773099Y158422D01*
X17858538Y204090D01*
X18010883Y329117D01*
X18135910Y481462D01*
X18185413Y574075D01*
X18228811Y655267D01*
X18228811Y655268D01*
X18228814Y655273D01*
X18286024Y843868D01*
X18305341Y1040000D01*
X18834659Y1040000D01*
X18853975Y843871D01*
X18911188Y655267D01*
X19004086Y481468D01*
X19004090Y481461D01*
X19129116Y329117D01*
X19281460Y204091D01*
X19281467Y204087D01*
X19455266Y111189D01*
X19455269Y111189D01*
X19455273Y111186D01*
X19643868Y53976D01*
X19840000Y34659D01*
X20036132Y53976D01*
X20224727Y111186D01*
X20262317Y131278D01*
X20313099Y158422D01*
X20398538Y204090D01*
X20550883Y329117D01*
X20675910Y481462D01*
X20725413Y574075D01*
X20768811Y655267D01*
X20768811Y655268D01*
X20768814Y655273D01*
X20826024Y843868D01*
X20845341Y1040000D01*
X21374659Y1040000D01*
X21393975Y843871D01*
X21451188Y655267D01*
X21544086Y481468D01*
X21544090Y481461D01*
X21669116Y329117D01*
X21821460Y204091D01*
X21821467Y204087D01*
X21995266Y111189D01*
X21995269Y111189D01*
X21995273Y111186D01*
X22183868Y53976D01*
X22380000Y34659D01*
X22576132Y53976D01*
X22764727Y111186D01*
X22802317Y131278D01*
X22853099Y158422D01*
X22938538Y204090D01*
X23090883Y329117D01*
X23215910Y481462D01*
X23265413Y574075D01*
X23308811Y655267D01*
X23308811Y655268D01*
X23308814Y655273D01*
X23366024Y843868D01*
X23385341Y1040000D01*
X23914659Y1040000D01*
X23933975Y843871D01*
X23991188Y655267D01*
X24084086Y481468D01*
X24084090Y481461D01*
X24209116Y329117D01*
X24361460Y204091D01*
X24361467Y204087D01*
X24535266Y111189D01*
X24535269Y111189D01*
X24535273Y111186D01*
X24723868Y53976D01*
X24920000Y34659D01*
X25116132Y53976D01*
X25304727Y111186D01*
X25342317Y131278D01*
X25393099Y158422D01*
X25478538Y204090D01*
X25630883Y329117D01*
X25755910Y481462D01*
X25805413Y574075D01*
X25848811Y655267D01*
X25848811Y655268D01*
X25848814Y655273D01*
X25906024Y843868D01*
X25925341Y1040000D01*
X25913030Y1165001D01*
X26366869Y1165001D01*
X26366870Y1165000D01*
X26975856Y1165000D01*
X26960000Y1105826D01*
X26960000Y974174D01*
X26975856Y915000D01*
X26366870Y915000D01*
X26374097Y837011D01*
X26374097Y837008D01*
X26429883Y640937D01*
X26429886Y640931D01*
X26520754Y458444D01*
X26643608Y295758D01*
X26794260Y158422D01*
X26967584Y51103D01*
X27157678Y-22539D01*
X27335000Y-55686D01*
X27335000Y555856D01*
X27394174Y540000D01*
X27525826Y540000D01*
X27585000Y555856D01*
X27585000Y-55686D01*
X27762321Y-22539D01*
X27952415Y51103D01*
X28125739Y158422D01*
X28276391Y295758D01*
X28399245Y458444D01*
X28490113Y640931D01*
X28490116Y640937D01*
X28545902Y837008D01*
X28545902Y837011D01*
X28553130Y915000D01*
X27944144Y915000D01*
X27960000Y974174D01*
X27960000Y1105826D01*
X27944144Y1165000D01*
X28553130Y1165000D01*
X28553130Y1165001D01*
X28545902Y1242990D01*
X28545902Y1242993D01*
X28490116Y1439064D01*
X28490113Y1439070D01*
X28399245Y1621557D01*
X28276391Y1784243D01*
X28125739Y1921579D01*
X27952415Y2028898D01*
X27762321Y2102540D01*
X27585000Y2135688D01*
X27585000Y1524145D01*
X27525826Y1540000D01*
X27394174Y1540000D01*
X27335000Y1524145D01*
X27335000Y2135688D01*
X27157678Y2102540D01*
X26967584Y2028898D01*
X26794260Y1921579D01*
X26643608Y1784243D01*
X26520754Y1621557D01*
X26429886Y1439070D01*
X26429883Y1439064D01*
X26374097Y1242993D01*
X26374097Y1242990D01*
X26366869Y1165001D01*
X25913030Y1165001D01*
X25906024Y1236132D01*
X25848814Y1424727D01*
X25848811Y1424731D01*
X25848811Y1424734D01*
X25755913Y1598533D01*
X25755909Y1598540D01*
X25630883Y1750884D01*
X25478539Y1875910D01*
X25478532Y1875914D01*
X25304733Y1968812D01*
X25304727Y1968814D01*
X25116132Y2026024D01*
X25116129Y2026025D01*
X24920000Y2045341D01*
X24723870Y2026025D01*
X24535266Y1968812D01*
X24361467Y1875914D01*
X24361460Y1875910D01*
X24209116Y1750884D01*
X24084090Y1598540D01*
X24084086Y1598533D01*
X23991188Y1424734D01*
X23933975Y1236130D01*
X23914659Y1040000D01*
X23385341Y1040000D01*
X23366024Y1236132D01*
X23308814Y1424727D01*
X23308811Y1424731D01*
X23308811Y1424734D01*
X23215913Y1598533D01*
X23215909Y1598540D01*
X23090883Y1750884D01*
X22938539Y1875910D01*
X22938532Y1875914D01*
X22764733Y1968812D01*
X22764727Y1968814D01*
X22576132Y2026024D01*
X22576129Y2026025D01*
X22380000Y2045341D01*
X22183870Y2026025D01*
X21995266Y1968812D01*
X21821467Y1875914D01*
X21821460Y1875910D01*
X21669116Y1750884D01*
X21544090Y1598540D01*
X21544086Y1598533D01*
X21451188Y1424734D01*
X21393975Y1236130D01*
X21374659Y1040000D01*
X20845341Y1040000D01*
X20826024Y1236132D01*
X20768814Y1424727D01*
X20768811Y1424731D01*
X20768811Y1424734D01*
X20675913Y1598533D01*
X20675909Y1598540D01*
X20550883Y1750884D01*
X20398539Y1875910D01*
X20398532Y1875914D01*
X20224733Y1968812D01*
X20224727Y1968814D01*
X20036132Y2026024D01*
X20036129Y2026025D01*
X19840000Y2045341D01*
X19643870Y2026025D01*
X19455266Y1968812D01*
X19281467Y1875914D01*
X19281460Y1875910D01*
X19129116Y1750884D01*
X19004090Y1598540D01*
X19004086Y1598533D01*
X18911188Y1424734D01*
X18853975Y1236130D01*
X18834659Y1040000D01*
X18305341Y1040000D01*
X18286024Y1236132D01*
X18228814Y1424727D01*
X18228811Y1424731D01*
X18228811Y1424734D01*
X18135913Y1598533D01*
X18135909Y1598540D01*
X18010883Y1750884D01*
X17858539Y1875910D01*
X17858532Y1875914D01*
X17684733Y1968812D01*
X17684727Y1968814D01*
X17496132Y2026024D01*
X17496129Y2026025D01*
X17300000Y2045341D01*
X17103870Y2026025D01*
X16915266Y1968812D01*
X16741467Y1875914D01*
X16741460Y1875910D01*
X16589116Y1750884D01*
X16464090Y1598540D01*
X16464086Y1598533D01*
X16371188Y1424734D01*
X16313975Y1236130D01*
X16294659Y1040000D01*
X15765341Y1040000D01*
X15746024Y1236132D01*
X15688814Y1424727D01*
X15688811Y1424731D01*
X15688811Y1424734D01*
X15595913Y1598533D01*
X15595909Y1598540D01*
X15470883Y1750884D01*
X15318539Y1875910D01*
X15318532Y1875914D01*
X15144733Y1968812D01*
X15144727Y1968814D01*
X14956132Y2026024D01*
X14956129Y2026025D01*
X14760000Y2045341D01*
X14563870Y2026025D01*
X14375266Y1968812D01*
X14201467Y1875914D01*
X14201460Y1875910D01*
X14049116Y1750884D01*
X13924090Y1598540D01*
X13924086Y1598533D01*
X13831188Y1424734D01*
X13773975Y1236130D01*
X13754659Y1040000D01*
X13225341Y1040000D01*
X13206024Y1236132D01*
X13148814Y1424727D01*
X13148811Y1424731D01*
X13148811Y1424734D01*
X13055913Y1598533D01*
X13055909Y1598540D01*
X12930883Y1750884D01*
X12778539Y1875910D01*
X12778532Y1875914D01*
X12604733Y1968812D01*
X12604727Y1968814D01*
X12416132Y2026024D01*
X12416129Y2026025D01*
X12220000Y2045341D01*
X12023870Y2026025D01*
X11835266Y1968812D01*
X11661467Y1875914D01*
X11661460Y1875910D01*
X11509116Y1750884D01*
X11384090Y1598540D01*
X11384086Y1598533D01*
X11291188Y1424734D01*
X11233975Y1236130D01*
X11214659Y1040000D01*
X10685341Y1040000D01*
X10666024Y1236132D01*
X10608814Y1424727D01*
X10608811Y1424731D01*
X10608811Y1424734D01*
X10515913Y1598533D01*
X10515909Y1598540D01*
X10390883Y1750884D01*
X10238539Y1875910D01*
X10238532Y1875914D01*
X10064733Y1968812D01*
X10064727Y1968814D01*
X9876132Y2026024D01*
X9876129Y2026025D01*
X9680000Y2045341D01*
X9483870Y2026025D01*
X9295266Y1968812D01*
X9121467Y1875914D01*
X9121460Y1875910D01*
X8969116Y1750884D01*
X8844090Y1598540D01*
X8844086Y1598533D01*
X8751188Y1424734D01*
X8693975Y1236130D01*
X8674659Y1040000D01*
X8145341Y1040000D01*
X8126024Y1236132D01*
X8068814Y1424727D01*
X8068811Y1424731D01*
X8068811Y1424734D01*
X7975913Y1598533D01*
X7975909Y1598540D01*
X7850883Y1750884D01*
X7698539Y1875910D01*
X7698532Y1875914D01*
X7524733Y1968812D01*
X7524727Y1968814D01*
X7336132Y2026024D01*
X7336129Y2026025D01*
X7140000Y2045341D01*
X6943870Y2026025D01*
X6755266Y1968812D01*
X6581467Y1875914D01*
X6581460Y1875910D01*
X6429116Y1750884D01*
X6304090Y1598540D01*
X6304086Y1598533D01*
X6211188Y1424734D01*
X6153975Y1236130D01*
X6134659Y1040000D01*
X5600500Y1040000D01*
X5600500Y1904823D01*
X5591768Y1948718D01*
X5591767Y1948719D01*
X5591767Y1948722D01*
X5558504Y1998504D01*
X5558503Y1998505D01*
X5508724Y2031766D01*
X5508717Y2031769D01*
X5464822Y2040500D01*
X5464820Y2040500D01*
X3735180Y2040500D01*
X3735178Y2040500D01*
X3691282Y2031769D01*
X3691275Y2031766D01*
X3641496Y1998505D01*
X3641495Y1998504D01*
X3608234Y1948725D01*
X3608231Y1948718D01*
X3599500Y1904823D01*
X3599500Y1904820D01*
X3599500Y175180D01*
X3599500Y175178D01*
X3599499Y175178D01*
X1238343Y175178D01*
X1219709Y292827D01*
X1158882Y480030D01*
X1110963Y574075D01*
X1069524Y655405D01*
X953828Y814646D01*
X814646Y953828D01*
X655405Y1069524D01*
X480029Y1158883D01*
X292826Y1219710D01*
X98422Y1250500D01*
X98417Y1250500D01*
X-98417Y1250500D01*
X-98422Y1250500D01*
X-292827Y1219710D01*
X-480030Y1158883D01*
X-655406Y1069524D01*
X-746259Y1003515D01*
X-814646Y953828D01*
X-814648Y953826D01*
X-814649Y953826D01*
X-953826Y814649D01*
X-953826Y814648D01*
X-953828Y814646D01*
X-1003515Y746259D01*
X-1069524Y655406D01*
X-1158883Y480030D01*
X-1219710Y292827D01*
X-1250500Y98423D01*
X-1250500Y-98422D01*
X-3498713Y-98422D01*
X-3499989Y-840D01*
X-3500000Y782D01*
X-3500000Y4249998D01*
X895131Y4249998D01*
X912498Y4140342D01*
X962904Y4041415D01*
X962909Y4041408D01*
X1041407Y3962910D01*
X1041410Y3962908D01*
X1041413Y3962905D01*
X1105104Y3930453D01*
X1140341Y3912499D01*
X1249998Y3895131D01*
X1250000Y3895131D01*
X1250002Y3895131D01*
X1359658Y3912499D01*
X1359659Y3912500D01*
X1359661Y3912500D01*
X1458587Y3962905D01*
X1470182Y3974500D01*
X1512819Y4017136D01*
X1574142Y4050621D01*
X1643834Y4045637D01*
X1699767Y4003765D01*
X1724184Y3938301D01*
X1724500Y3929455D01*
X1724500Y3099709D01*
X1766443Y2998451D01*
X1766444Y2998450D01*
X2200288Y2564606D01*
X2233773Y2503283D01*
X2235546Y2460741D01*
X2224259Y2375004D01*
X2224259Y2375000D01*
X2243179Y2231292D01*
X2243180Y2231288D01*
X2298646Y2097378D01*
X2298647Y2097376D01*
X2298648Y2097375D01*
X2386888Y1982379D01*
X2501884Y1894139D01*
X2635800Y1838670D01*
X2762789Y1821952D01*
X2779508Y1819750D01*
X2779509Y1819750D01*
X2779510Y1819750D01*
X2794486Y1821722D01*
X2923218Y1838670D01*
X3057134Y1894139D01*
X3172130Y1982379D01*
X3260370Y2097375D01*
X3315839Y2231291D01*
X3334759Y2375000D01*
X3334758Y2375004D01*
X3332557Y2391720D01*
X3315839Y2518709D01*
X3301409Y2553545D01*
X3293941Y2623013D01*
X3325216Y2685492D01*
X3328259Y2688646D01*
X4570070Y3930455D01*
X4631391Y3963938D01*
X4701083Y3958954D01*
X4756122Y3918261D01*
X4802839Y3857379D01*
X4917835Y3769139D01*
X5051751Y3713670D01*
X5178740Y3696952D01*
X5195459Y3694750D01*
X5195460Y3694750D01*
X5195461Y3694750D01*
X5210437Y3696722D01*
X5339169Y3713670D01*
X5473085Y3769139D01*
X5588081Y3857379D01*
X5676321Y3972375D01*
X5731790Y4106291D01*
X5734310Y4125429D01*
X27414499Y4125429D01*
X27439497Y3999762D01*
X27439499Y3999756D01*
X27488533Y3881376D01*
X27488538Y3881367D01*
X27559723Y3774832D01*
X27559726Y3774828D01*
X27650327Y3684227D01*
X27650331Y3684224D01*
X27756866Y3613039D01*
X27756872Y3613036D01*
X27756873Y3613035D01*
X27875256Y3563999D01*
X27875260Y3563999D01*
X27875261Y3563998D01*
X28000928Y3539000D01*
X28000931Y3539000D01*
X29229071Y3539000D01*
X29313615Y3555818D01*
X29354744Y3563999D01*
X29473127Y3613035D01*
X29579669Y3684224D01*
X29670276Y3774831D01*
X29741465Y3881373D01*
X29790501Y3999756D01*
X29815500Y4125429D01*
X31744499Y4125429D01*
X31769497Y3999762D01*
X31769499Y3999756D01*
X31818533Y3881376D01*
X31818538Y3881367D01*
X31889723Y3774832D01*
X31889726Y3774828D01*
X31980327Y3684227D01*
X31980331Y3684224D01*
X32086866Y3613039D01*
X32086872Y3613036D01*
X32086873Y3613035D01*
X32205256Y3563999D01*
X32205260Y3563999D01*
X32205261Y3563998D01*
X32330928Y3539000D01*
X32330931Y3539000D01*
X33259071Y3539000D01*
X33343615Y3555818D01*
X33384744Y3563999D01*
X33503127Y3613035D01*
X33609669Y3684224D01*
X33700276Y3774831D01*
X33771465Y3881373D01*
X33820501Y3999756D01*
X33845500Y4125431D01*
X33845500Y4253569D01*
X33845500Y4253572D01*
X33820502Y4379239D01*
X33820501Y4379240D01*
X33820501Y4379244D01*
X33771465Y4497627D01*
X33771464Y4497628D01*
X33771461Y4497634D01*
X33700276Y4604169D01*
X33700273Y4604173D01*
X33609672Y4694774D01*
X33609668Y4694777D01*
X33503133Y4765962D01*
X33503124Y4765967D01*
X33384744Y4815001D01*
X33384738Y4815003D01*
X33259071Y4840000D01*
X33259069Y4840000D01*
X32330931Y4840000D01*
X32330929Y4840000D01*
X32205261Y4815003D01*
X32205255Y4815001D01*
X32086875Y4765967D01*
X32086866Y4765962D01*
X31980331Y4694777D01*
X31980327Y4694774D01*
X31889726Y4604173D01*
X31889723Y4604169D01*
X31818538Y4497634D01*
X31818533Y4497625D01*
X31769499Y4379245D01*
X31769497Y4379239D01*
X31744500Y4253572D01*
X31744500Y4253569D01*
X31744500Y4125431D01*
X31744500Y4125429D01*
X31744499Y4125429D01*
X29815500Y4125429D01*
X29815500Y4125431D01*
X29815500Y4253569D01*
X29815500Y4253572D01*
X29790502Y4379239D01*
X29790501Y4379240D01*
X29790501Y4379244D01*
X29741465Y4497627D01*
X29741464Y4497628D01*
X29741461Y4497634D01*
X29670276Y4604169D01*
X29670273Y4604173D01*
X29579672Y4694774D01*
X29579668Y4694777D01*
X29473133Y4765962D01*
X29473124Y4765967D01*
X29354744Y4815001D01*
X29354738Y4815003D01*
X29229071Y4840000D01*
X29229069Y4840000D01*
X28000931Y4840000D01*
X28000929Y4840000D01*
X27875261Y4815003D01*
X27875255Y4815001D01*
X27756875Y4765967D01*
X27756866Y4765962D01*
X27650331Y4694777D01*
X27650327Y4694774D01*
X27559726Y4604173D01*
X27559723Y4604169D01*
X27488538Y4497634D01*
X27488533Y4497625D01*
X27439499Y4379245D01*
X27439497Y4379239D01*
X27414500Y4253572D01*
X27414500Y4253569D01*
X27414500Y4125431D01*
X27414500Y4125429D01*
X27414499Y4125429D01*
X5734310Y4125429D01*
X5750710Y4250000D01*
X5731790Y4393709D01*
X5688746Y4497627D01*
X5676322Y4527623D01*
X5676321Y4527624D01*
X5676321Y4527625D01*
X5588081Y4642621D01*
X5473085Y4730861D01*
X5473084Y4730862D01*
X5473082Y4730863D01*
X5339172Y4786329D01*
X5339170Y4786330D01*
X5339169Y4786330D01*
X5267314Y4795790D01*
X5195461Y4805250D01*
X5195459Y4805250D01*
X5051751Y4786330D01*
X5051747Y4786329D01*
X4917837Y4730863D01*
X4802839Y4642621D01*
X4750192Y4574012D01*
X4693767Y4532811D01*
X4651819Y4525500D01*
X4554800Y4525500D01*
X4445200Y4525500D01*
X4445198Y4525500D01*
X4445196Y4525499D01*
X4343944Y4483561D01*
X2822084Y2961701D01*
X2760761Y2928216D01*
X2750588Y2926443D01*
X2693770Y2918963D01*
X2624735Y2929729D01*
X2589904Y2954221D01*
X2311819Y3232306D01*
X2278334Y3293629D01*
X2275500Y3319987D01*
X2275500Y5556899D01*
X28639500Y5556899D01*
X28671905Y5435964D01*
X28734505Y5327536D01*
X28823036Y5239005D01*
X28931464Y5176405D01*
X29052399Y5144000D01*
X29052401Y5144000D01*
X29177599Y5144000D01*
X29177601Y5144000D01*
X29298536Y5176405D01*
X29406964Y5239005D01*
X29495495Y5327536D01*
X29558095Y5435964D01*
X29590500Y5556899D01*
X29590500Y5682101D01*
X29558095Y5803036D01*
X29495495Y5911464D01*
X29406964Y5999995D01*
X29298536Y6062595D01*
X29298537Y6062595D01*
X29258224Y6073397D01*
X29177601Y6095000D01*
X29052399Y6095000D01*
X28971775Y6073397D01*
X28931463Y6062595D01*
X28823037Y5999996D01*
X28823034Y5999994D01*
X28734506Y5911466D01*
X28734504Y5911463D01*
X28671905Y5803037D01*
X28671905Y5803036D01*
X28639500Y5682101D01*
X28639500Y5556899D01*
X2275500Y5556899D01*
X2275500Y6318000D01*
X2623804Y6318000D01*
X2623804Y6168372D01*
X2638307Y6095460D01*
X2638309Y6095456D01*
X2693564Y6012761D01*
X2776259Y5957506D01*
X2776263Y5957504D01*
X2849175Y5943001D01*
X2849178Y5943000D01*
X3548804Y5943000D01*
X3548804Y6318000D01*
X3798804Y6318000D01*
X3798804Y5943000D01*
X4498430Y5943000D01*
X4498432Y5943001D01*
X4571344Y5957504D01*
X4571348Y5957506D01*
X4654043Y6012761D01*
X4709298Y6095456D01*
X4709300Y6095460D01*
X4723803Y6168372D01*
X4723804Y6168374D01*
X4723804Y6318000D01*
X3798804Y6318000D01*
X3548804Y6318000D01*
X2623804Y6318000D01*
X2275500Y6318000D01*
X2275500Y6423109D01*
X3023804Y6423109D01*
X3039028Y6386355D01*
X3067159Y6358224D01*
X3103913Y6343000D01*
X3143695Y6343000D01*
X3180449Y6358224D01*
X3208580Y6386355D01*
X3223804Y6423109D01*
X4123804Y6423109D01*
X4139028Y6386355D01*
X4167159Y6358224D01*
X4203913Y6343000D01*
X4243695Y6343000D01*
X4280449Y6358224D01*
X4308580Y6386355D01*
X4323804Y6423109D01*
X4323804Y6462891D01*
X4308580Y6499645D01*
X4280449Y6527776D01*
X4243695Y6543000D01*
X4203913Y6543000D01*
X4167159Y6527776D01*
X4139028Y6499645D01*
X4123804Y6462891D01*
X4123804Y6423109D01*
X3223804Y6423109D01*
X3223804Y6462891D01*
X3208580Y6499645D01*
X3180449Y6527776D01*
X3143695Y6543000D01*
X3103913Y6543000D01*
X3067159Y6527776D01*
X3039028Y6499645D01*
X3023804Y6462891D01*
X3023804Y6423109D01*
X2275500Y6423109D01*
X2275500Y6568000D01*
X2623804Y6568000D01*
X3548804Y6568000D01*
X3548804Y6943000D01*
X3798804Y6943000D01*
X3798804Y6568000D01*
X4723804Y6568000D01*
X4723804Y6717627D01*
X4723803Y6717629D01*
X4709300Y6790541D01*
X4709298Y6790545D01*
X4654043Y6873240D01*
X4571348Y6928495D01*
X4571344Y6928497D01*
X4498431Y6943000D01*
X3798804Y6943000D01*
X3548804Y6943000D01*
X2849177Y6943000D01*
X2776263Y6928497D01*
X2776259Y6928495D01*
X2693564Y6873240D01*
X2638309Y6790545D01*
X2638307Y6790541D01*
X2623804Y6717629D01*
X2623804Y6568000D01*
X2275500Y6568000D01*
X2275500Y7949995D01*
X24895131Y7949995D01*
X24912498Y7840339D01*
X24962904Y7741412D01*
X24962909Y7741405D01*
X25041407Y7662907D01*
X25041410Y7662905D01*
X25041413Y7662902D01*
X25140339Y7612497D01*
X25140341Y7612496D01*
X25249998Y7595128D01*
X25250000Y7595128D01*
X25250002Y7595128D01*
X25359658Y7612496D01*
X25359659Y7612497D01*
X25359661Y7612497D01*
X25458587Y7662902D01*
X25458592Y7662907D01*
X25483864Y7688178D01*
X25545187Y7721663D01*
X25571545Y7724497D01*
X25640700Y7724497D01*
X25640708Y7724496D01*
X25655142Y7724496D01*
X25744850Y7724496D01*
X25744852Y7724496D01*
X25803457Y7748772D01*
X25827733Y7758827D01*
X25891167Y7822261D01*
X25891167Y7822262D01*
X25908605Y7839700D01*
X25908607Y7839703D01*
X26928779Y8859876D01*
X26990100Y8893359D01*
X26997061Y8894666D01*
X26999998Y8895132D01*
X27000000Y8895131D01*
X27052146Y8903391D01*
X27109658Y8912499D01*
X27109659Y8912500D01*
X27109661Y8912500D01*
X27208587Y8962905D01*
X27287095Y9041413D01*
X27337500Y9140339D01*
X27337500Y9140341D01*
X27337501Y9140342D01*
X27354869Y9249998D01*
X27354869Y9250003D01*
X27337501Y9359659D01*
X27337500Y9359661D01*
X27287095Y9458587D01*
X27287092Y9458590D01*
X27287090Y9458593D01*
X27208592Y9537091D01*
X27208588Y9537094D01*
X27208587Y9537095D01*
X27204743Y9539054D01*
X27109658Y9587502D01*
X27000002Y9604869D01*
X26999998Y9604869D01*
X26890341Y9587502D01*
X26791414Y9537096D01*
X26791407Y9537091D01*
X26712909Y9458593D01*
X26712904Y9458586D01*
X26662498Y9359659D01*
X26644665Y9247063D01*
X26614735Y9183928D01*
X26609873Y9178780D01*
X25651068Y8219974D01*
X25589745Y8186489D01*
X25520054Y8191473D01*
X25475706Y8219974D01*
X25458592Y8237088D01*
X25458588Y8237091D01*
X25458587Y8237092D01*
X25454743Y8239051D01*
X25359658Y8287499D01*
X25250002Y8304866D01*
X25249998Y8304866D01*
X25140341Y8287499D01*
X25041414Y8237093D01*
X25041407Y8237088D01*
X24962909Y8158590D01*
X24962904Y8158583D01*
X24912498Y8059656D01*
X24895131Y7950000D01*
X24895131Y7949995D01*
X2275500Y7949995D01*
X2275500Y11738888D01*
X2289014Y11795180D01*
X2337500Y11890339D01*
X2337501Y11890344D01*
X2354869Y11999998D01*
X2354869Y12000003D01*
X2337501Y12109659D01*
X2302170Y12179000D01*
X2287095Y12208587D01*
X2287092Y12208590D01*
X2287090Y12208593D01*
X2208592Y12287091D01*
X2208588Y12287094D01*
X2208587Y12287095D01*
X2135717Y12324224D01*
X2109658Y12337502D01*
X2000002Y12354869D01*
X1999998Y12354869D01*
X1890341Y12337502D01*
X1791414Y12287096D01*
X1791407Y12287091D01*
X1712909Y12208593D01*
X1712906Y12208588D01*
X1712905Y12208587D01*
X1709983Y12202854D01*
X1662010Y12152059D01*
X1594189Y12135264D01*
X1528054Y12157802D01*
X1484603Y12212517D01*
X1475500Y12259150D01*
X1475500Y13382116D01*
X7895131Y13382116D01*
X7912498Y13272460D01*
X7962904Y13173533D01*
X7962909Y13173526D01*
X8041407Y13095028D01*
X8041410Y13095026D01*
X8041413Y13095023D01*
X8139065Y13045267D01*
X8140341Y13044617D01*
X8249998Y13027249D01*
X8250000Y13027249D01*
X8250002Y13027249D01*
X8359658Y13044617D01*
X8359659Y13044618D01*
X8359661Y13044618D01*
X8458587Y13095023D01*
X8537095Y13173531D01*
X8587500Y13272457D01*
X8587500Y13272459D01*
X8587501Y13272460D01*
X8604869Y13382116D01*
X8604869Y13382121D01*
X8587501Y13491777D01*
X8573108Y13520025D01*
X8537095Y13590705D01*
X8537092Y13590708D01*
X8537090Y13590711D01*
X8511819Y13615982D01*
X8478334Y13677305D01*
X8475500Y13703663D01*
X8475500Y15678456D01*
X8495185Y15745495D01*
X8511815Y15766134D01*
X8537095Y15791413D01*
X8587500Y15890339D01*
X8587500Y15890341D01*
X8587501Y15890342D01*
X8604869Y15999998D01*
X8604869Y16000003D01*
X8587501Y16109659D01*
X8575306Y16133593D01*
X8537095Y16208587D01*
X8537092Y16208590D01*
X8537090Y16208593D01*
X8458592Y16287091D01*
X8458588Y16287094D01*
X8458587Y16287095D01*
X8454743Y16289054D01*
X8359658Y16337502D01*
X8250002Y16354869D01*
X8249998Y16354869D01*
X8140341Y16337502D01*
X8041414Y16287096D01*
X8041407Y16287091D01*
X7962909Y16208593D01*
X7962904Y16208586D01*
X7912498Y16109659D01*
X7895131Y16000003D01*
X7895131Y15999998D01*
X7912498Y15890342D01*
X7950713Y15815342D01*
X7962905Y15791413D01*
X7988181Y15766137D01*
X8021666Y15704816D01*
X8024500Y15678456D01*
X8024500Y13703663D01*
X8004815Y13636624D01*
X7988181Y13615982D01*
X7962909Y13590711D01*
X7962904Y13590704D01*
X7912498Y13491777D01*
X7895131Y13382121D01*
X7895131Y13382116D01*
X1475500Y13382116D01*
X1475500Y15603456D01*
X1495185Y15670495D01*
X1511815Y15691134D01*
X1537095Y15716413D01*
X1587500Y15815339D01*
X1587500Y15815341D01*
X1587501Y15815342D01*
X1604869Y15924998D01*
X1604869Y15925003D01*
X1587501Y16034659D01*
X1568707Y16071545D01*
X1537095Y16133587D01*
X1537092Y16133590D01*
X1537090Y16133593D01*
X1458592Y16212091D01*
X1458588Y16212094D01*
X1458587Y16212095D01*
X1454743Y16214054D01*
X1359658Y16262502D01*
X1250002Y16279869D01*
X1249998Y16279869D01*
X1140341Y16262502D01*
X1041414Y16212096D01*
X1041407Y16212091D01*
X962909Y16133593D01*
X962904Y16133586D01*
X912498Y16034659D01*
X895131Y15925003D01*
X895131Y15924998D01*
X912498Y15815342D01*
X926712Y15787446D01*
X962905Y15716413D01*
X988181Y15691137D01*
X1021666Y15629816D01*
X1024500Y15603456D01*
X1024500Y4571545D01*
X1004815Y4504506D01*
X988181Y4483864D01*
X962909Y4458593D01*
X962904Y4458586D01*
X912498Y4359659D01*
X895131Y4250003D01*
X895131Y4249998D01*
X-3500000Y4249998D01*
X-3500000Y5810000D01*
X-2505341Y5810000D01*
X-2486025Y5613871D01*
X-2428812Y5425267D01*
X-2335914Y5251468D01*
X-2335910Y5251461D01*
X-2210884Y5099117D01*
X-2058540Y4974091D01*
X-2058533Y4974087D01*
X-1884734Y4881189D01*
X-1884731Y4881189D01*
X-1884727Y4881186D01*
X-1696132Y4823976D01*
X-1500000Y4804659D01*
X-1303868Y4823976D01*
X-1115273Y4881186D01*
X-941462Y4974090D01*
X-789117Y5099117D01*
X-664090Y5251462D01*
X-571186Y5425273D01*
X-513976Y5613868D01*
X-494659Y5810000D01*
X-513976Y6006132D01*
X-571186Y6194727D01*
X-571189Y6194731D01*
X-571189Y6194734D01*
X-664087Y6368533D01*
X-664091Y6368540D01*
X-789117Y6520884D01*
X-941461Y6645910D01*
X-941468Y6645914D01*
X-1115267Y6738812D01*
X-1115273Y6738814D01*
X-1303868Y6796024D01*
X-1303871Y6796025D01*
X-1500000Y6815341D01*
X-1696130Y6796025D01*
X-1884734Y6738812D01*
X-2058533Y6645914D01*
X-2058540Y6645910D01*
X-2210884Y6520884D01*
X-2335910Y6368540D01*
X-2335914Y6368533D01*
X-2428812Y6194734D01*
X-2486025Y6006130D01*
X-2505341Y5810000D01*
X-3500000Y5810000D01*
X-3500000Y8350000D01*
X-2505341Y8350000D01*
X-2486025Y8153871D01*
X-2486024Y8153868D01*
X-2457446Y8059658D01*
X-2428812Y7965267D01*
X-2335914Y7791468D01*
X-2335910Y7791461D01*
X-2210884Y7639117D01*
X-2058540Y7514091D01*
X-2058533Y7514087D01*
X-1884734Y7421189D01*
X-1884731Y7421189D01*
X-1884727Y7421186D01*
X-1696132Y7363976D01*
X-1500000Y7344659D01*
X-1303868Y7363976D01*
X-1115273Y7421186D01*
X-941462Y7514090D01*
X-789117Y7639117D01*
X-664090Y7791462D01*
X-579351Y7949997D01*
X-571189Y7965267D01*
X-571189Y7965268D01*
X-571186Y7965273D01*
X-513976Y8153868D01*
X-494659Y8350000D01*
X-513976Y8546132D01*
X-571186Y8734727D01*
X-571189Y8734731D01*
X-571189Y8734734D01*
X-664087Y8908533D01*
X-664091Y8908540D01*
X-789117Y9060884D01*
X-941461Y9185910D01*
X-941468Y9185914D01*
X-1115267Y9278812D01*
X-1115273Y9278814D01*
X-1303868Y9336024D01*
X-1303871Y9336025D01*
X-1500000Y9355341D01*
X-1696130Y9336025D01*
X-1884734Y9278812D01*
X-2058533Y9185914D01*
X-2058540Y9185910D01*
X-2210884Y9060884D01*
X-2335910Y8908540D01*
X-2335914Y8908533D01*
X-2428812Y8734734D01*
X-2486025Y8546130D01*
X-2505341Y8350000D01*
X-3500000Y8350000D01*
X-3500000Y10890000D01*
X-2505341Y10890000D01*
X-2486025Y10693871D01*
X-2486024Y10693868D01*
X-2439778Y10541415D01*
X-2428812Y10505267D01*
X-2335914Y10331468D01*
X-2335910Y10331461D01*
X-2210884Y10179117D01*
X-2058540Y10054091D01*
X-2058533Y10054087D01*
X-1884734Y9961189D01*
X-1884731Y9961189D01*
X-1884727Y9961186D01*
X-1696132Y9903976D01*
X-1500000Y9884659D01*
X-1303868Y9903976D01*
X-1115273Y9961186D01*
X-941462Y10054090D01*
X-789117Y10179117D01*
X-664090Y10331462D01*
X-593832Y10462905D01*
X-571189Y10505267D01*
X-571189Y10505268D01*
X-571186Y10505273D01*
X-513976Y10693868D01*
X-494659Y10890000D01*
X-513976Y11086132D01*
X-571186Y11274727D01*
X-571189Y11274731D01*
X-571189Y11274734D01*
X-664087Y11448533D01*
X-664091Y11448540D01*
X-789117Y11600884D01*
X-941461Y11725910D01*
X-941468Y11725914D01*
X-1115267Y11818812D01*
X-1115273Y11818814D01*
X-1241003Y11856954D01*
X-1303871Y11876025D01*
X-1500000Y11895341D01*
X-1696130Y11876025D01*
X-1884734Y11818812D01*
X-2058533Y11725914D01*
X-2058540Y11725910D01*
X-2210884Y11600884D01*
X-2335910Y11448540D01*
X-2335914Y11448533D01*
X-2428812Y11274734D01*
X-2486025Y11086130D01*
X-2505341Y10890000D01*
X-3500000Y10890000D01*
X-3500000Y13430000D01*
X-2505341Y13430000D01*
X-2486025Y13233871D01*
X-2486024Y13233868D01*
X-2443906Y13095023D01*
X-2428812Y13045267D01*
X-2335914Y12871468D01*
X-2335910Y12871461D01*
X-2210884Y12719117D01*
X-2058540Y12594091D01*
X-2058533Y12594087D01*
X-1884734Y12501189D01*
X-1884731Y12501189D01*
X-1884727Y12501186D01*
X-1696132Y12443976D01*
X-1500000Y12424659D01*
X-1303868Y12443976D01*
X-1115273Y12501186D01*
X-941462Y12594090D01*
X-789117Y12719117D01*
X-664090Y12871462D01*
X-571890Y13043955D01*
X-571189Y13045267D01*
X-571189Y13045268D01*
X-571186Y13045273D01*
X-513976Y13233868D01*
X-494659Y13430000D01*
X-513976Y13626132D01*
X-571186Y13814727D01*
X-571189Y13814731D01*
X-571189Y13814734D01*
X-664087Y13988533D01*
X-664091Y13988540D01*
X-789117Y14140884D01*
X-941461Y14265910D01*
X-941468Y14265914D01*
X-1115267Y14358812D01*
X-1115273Y14358814D01*
X-1303868Y14416024D01*
X-1303871Y14416025D01*
X-1500000Y14435341D01*
X-1696130Y14416025D01*
X-1884734Y14358812D01*
X-2058533Y14265914D01*
X-2058540Y14265910D01*
X-2210884Y14140884D01*
X-2335910Y13988540D01*
X-2335914Y13988533D01*
X-2428812Y13814734D01*
X-2486025Y13626130D01*
X-2505341Y13430000D01*
X-3500000Y13430000D01*
X-3500000Y15970000D01*
X-2505341Y15970000D01*
X-2486025Y15773871D01*
X-2428812Y15585267D01*
X-2335914Y15411468D01*
X-2335910Y15411461D01*
X-2210884Y15259117D01*
X-2058540Y15134091D01*
X-2058533Y15134087D01*
X-1884734Y15041189D01*
X-1884731Y15041189D01*
X-1884727Y15041186D01*
X-1696132Y14983976D01*
X-1500000Y14964659D01*
X-1303868Y14983976D01*
X-1115273Y15041186D01*
X-941462Y15134090D01*
X-789117Y15259117D01*
X-664090Y15411462D01*
X-571186Y15585273D01*
X-513976Y15773868D01*
X-494659Y15970000D01*
X-513976Y16166132D01*
X-571186Y16354727D01*
X-571189Y16354731D01*
X-571189Y16354734D01*
X-664087Y16528533D01*
X-664091Y16528540D01*
X-789117Y16680884D01*
X-941461Y16805910D01*
X-941468Y16805914D01*
X-1115267Y16898812D01*
X-1115273Y16898814D01*
X-1303868Y16956024D01*
X-1303871Y16956025D01*
X-1500000Y16975341D01*
X-1696130Y16956025D01*
X-1884734Y16898812D01*
X-2058533Y16805914D01*
X-2058540Y16805910D01*
X-2210884Y16680884D01*
X-2335910Y16528540D01*
X-2335914Y16528533D01*
X-2428812Y16354734D01*
X-2486025Y16166130D01*
X-2505341Y15970000D01*
X-3500000Y15970000D01*
X-3500000Y18510000D01*
X-2505341Y18510000D01*
X-2486025Y18313871D01*
X-2486024Y18313868D01*
X-2451386Y18199681D01*
X-2428812Y18125267D01*
X-2335914Y17951468D01*
X-2335910Y17951462D01*
X-2210884Y17799117D01*
X-2058540Y17674091D01*
X-2058533Y17674087D01*
X-1884734Y17581189D01*
X-1884731Y17581189D01*
X-1884727Y17581186D01*
X-1696132Y17523976D01*
X-1500000Y17504659D01*
X-1303868Y17523976D01*
X-1115273Y17581186D01*
X-1103456Y17587502D01*
X-1004600Y17640342D01*
X-941462Y17674090D01*
X-848968Y17749998D01*
X8895131Y17749998D01*
X8912498Y17640342D01*
X8962904Y17541415D01*
X8962909Y17541408D01*
X9041407Y17462910D01*
X9041410Y17462908D01*
X9041413Y17462905D01*
X9106262Y17429863D01*
X9140341Y17412499D01*
X9249998Y17395131D01*
X9250000Y17395131D01*
X9250002Y17395131D01*
X9359658Y17412499D01*
X9359659Y17412500D01*
X9359661Y17412500D01*
X9458587Y17462905D01*
X9458592Y17462910D01*
X9483864Y17488181D01*
X9545187Y17521666D01*
X9571545Y17524500D01*
X10206274Y17524500D01*
X10273313Y17504815D01*
X10293955Y17488181D01*
X11806691Y15975445D01*
X11840176Y15914122D01*
X11835192Y15844430D01*
X11797811Y15794498D01*
X11798313Y15793996D01*
X11794826Y15790510D01*
X11793320Y15788497D01*
X11791896Y15787446D01*
X11791409Y15787093D01*
X11712909Y15708593D01*
X11712904Y15708586D01*
X11662498Y15609659D01*
X11645131Y15500003D01*
X11645131Y15499997D01*
X11645744Y15496126D01*
X11645131Y15491383D01*
X11645131Y15490241D01*
X11644983Y15490241D01*
X11636789Y15426833D01*
X11591793Y15373381D01*
X11525041Y15352742D01*
X11503874Y15354256D01*
X11500004Y15354869D01*
X11499998Y15354869D01*
X11390341Y15337502D01*
X11291414Y15287096D01*
X11291407Y15287091D01*
X11212909Y15208593D01*
X11212904Y15208586D01*
X11162498Y15109659D01*
X11145131Y15000003D01*
X11145131Y14999998D01*
X11162498Y14890342D01*
X11194948Y14826655D01*
X11207844Y14757985D01*
X11181567Y14693245D01*
X11124460Y14652989D01*
X11103862Y14647888D01*
X11083223Y14644619D01*
X10984296Y14594214D01*
X10984289Y14594209D01*
X10905791Y14515711D01*
X10905786Y14515704D01*
X10855380Y14416777D01*
X10838013Y14307121D01*
X10838013Y14307115D01*
X10838626Y14303244D01*
X10838013Y14298501D01*
X10838013Y14297359D01*
X10837865Y14297359D01*
X10829671Y14233951D01*
X10784675Y14180499D01*
X10717923Y14159860D01*
X10696756Y14161374D01*
X10692886Y14161987D01*
X10692880Y14161987D01*
X10583223Y14144620D01*
X10484296Y14094214D01*
X10484289Y14094209D01*
X10405791Y14015711D01*
X10405786Y14015704D01*
X10355380Y13916777D01*
X10338013Y13807121D01*
X10338013Y13807116D01*
X10355380Y13697460D01*
X10405786Y13598533D01*
X10405791Y13598526D01*
X10484289Y13520028D01*
X10484293Y13520025D01*
X10484295Y13520023D01*
X10525047Y13499259D01*
X10575842Y13451285D01*
X10592751Y13388775D01*
X10592751Y12503294D01*
X10573066Y12436255D01*
X10556432Y12415613D01*
X10531160Y12390342D01*
X10531155Y12390335D01*
X10480749Y12291408D01*
X10463382Y12181752D01*
X10463382Y12181747D01*
X10480749Y12072091D01*
X10531155Y11973164D01*
X10531160Y11973157D01*
X10609658Y11894659D01*
X10609661Y11894657D01*
X10609664Y11894654D01*
X10670633Y11863589D01*
X10708592Y11844248D01*
X10818249Y11826880D01*
X10818251Y11826880D01*
X10818253Y11826880D01*
X10927909Y11844248D01*
X10927910Y11844249D01*
X10927912Y11844249D01*
X11026838Y11894654D01*
X11105346Y11973162D01*
X11155751Y12072088D01*
X11155751Y12072090D01*
X11155752Y12072091D01*
X11173120Y12181747D01*
X11173120Y12181748D01*
X11173120Y12181749D01*
X11172507Y12185618D01*
X11173120Y12190362D01*
X11173120Y12191508D01*
X11173268Y12191508D01*
X11181458Y12254910D01*
X11226451Y12308365D01*
X11293202Y12329008D01*
X11314378Y12327494D01*
X11318251Y12326880D01*
X11318252Y12326881D01*
X11318253Y12326880D01*
X11427909Y12344248D01*
X11427910Y12344249D01*
X11427912Y12344249D01*
X11526838Y12394654D01*
X11605346Y12473162D01*
X11655751Y12572088D01*
X11655751Y12572090D01*
X11655752Y12572091D01*
X11673120Y12681747D01*
X11673120Y12681748D01*
X11673120Y12681749D01*
X11672507Y12685618D01*
X11673120Y12690362D01*
X11673120Y12691508D01*
X11673268Y12691508D01*
X11681458Y12754910D01*
X11726451Y12808365D01*
X11793202Y12829008D01*
X11814378Y12827494D01*
X11818251Y12826880D01*
X11818252Y12826881D01*
X11818253Y12826880D01*
X11927909Y12844248D01*
X11927910Y12844249D01*
X11927912Y12844249D01*
X12026838Y12894654D01*
X12105346Y12973162D01*
X12155751Y13072088D01*
X12155751Y13072090D01*
X12155752Y13072091D01*
X12173120Y13181747D01*
X12173120Y13181748D01*
X12173120Y13181749D01*
X12172507Y13185618D01*
X12173120Y13190362D01*
X12173120Y13191508D01*
X12173268Y13191508D01*
X12181458Y13254910D01*
X12226451Y13308365D01*
X12293202Y13329008D01*
X12314378Y13327494D01*
X12318251Y13326880D01*
X12318252Y13326881D01*
X12318253Y13326880D01*
X12427909Y13344248D01*
X12427910Y13344249D01*
X12427912Y13344249D01*
X12526838Y13394654D01*
X12605346Y13473162D01*
X12655751Y13572088D01*
X12655751Y13572090D01*
X12655752Y13572091D01*
X12673120Y13681747D01*
X12673120Y13681752D01*
X12655752Y13791408D01*
X12643867Y13814734D01*
X12605346Y13890336D01*
X12605343Y13890339D01*
X12605341Y13890342D01*
X12580070Y13915613D01*
X12546585Y13976936D01*
X12543751Y14003294D01*
X12543751Y14939023D01*
X12563436Y15006062D01*
X12616240Y15051817D01*
X12685398Y15061761D01*
X12748954Y15032736D01*
X12755432Y15026704D01*
X14738181Y13043955D01*
X14771666Y12982632D01*
X14774500Y12956274D01*
X14774500Y11321545D01*
X14754815Y11254506D01*
X14738181Y11233864D01*
X14712909Y11208593D01*
X14712904Y11208586D01*
X14662498Y11109659D01*
X14645131Y11000003D01*
X14645131Y10999998D01*
X14662498Y10890342D01*
X14712904Y10791415D01*
X14712909Y10791408D01*
X14791407Y10712910D01*
X14791410Y10712908D01*
X14791413Y10712905D01*
X14890339Y10662500D01*
X14890341Y10662499D01*
X14999998Y10645131D01*
X15000000Y10645131D01*
X15000002Y10645131D01*
X15109658Y10662499D01*
X15109659Y10662500D01*
X15109661Y10662500D01*
X15208587Y10712905D01*
X15287095Y10791413D01*
X15337500Y10890339D01*
X15337500Y10890341D01*
X15337501Y10890342D01*
X15354869Y10999998D01*
X15354869Y11000003D01*
X15337501Y11109659D01*
X15319427Y11145131D01*
X15287095Y11208587D01*
X15287092Y11208590D01*
X15287090Y11208593D01*
X15261819Y11233864D01*
X15228334Y11295187D01*
X15225500Y11321545D01*
X15225500Y13041744D01*
X15225501Y13041753D01*
X15225501Y13145895D01*
X15225501Y13145896D01*
X15191170Y13228776D01*
X15191170Y13228777D01*
X15127736Y13292211D01*
X15120671Y13299276D01*
X15120664Y13299282D01*
X13217433Y15202513D01*
X13183948Y15263836D01*
X13188932Y15333528D01*
X13230804Y15389461D01*
X13275713Y15408439D01*
X13275375Y15409482D01*
X13284657Y15412499D01*
X13284658Y15412500D01*
X13284661Y15412500D01*
X13383587Y15462905D01*
X13462095Y15541413D01*
X13512500Y15640339D01*
X13512500Y15640341D01*
X13512501Y15640342D01*
X13529869Y15749998D01*
X13529869Y15750003D01*
X13512501Y15859659D01*
X13479208Y15925000D01*
X13462095Y15958587D01*
X13462092Y15958590D01*
X13462090Y15958593D01*
X13436819Y15983864D01*
X13403334Y16045187D01*
X13400500Y16071545D01*
X13400500Y17249998D01*
X22895131Y17249998D01*
X22912498Y17140342D01*
X22962904Y17041415D01*
X22962909Y17041408D01*
X23041407Y16962910D01*
X23041410Y16962908D01*
X23041413Y16962905D01*
X23140339Y16912500D01*
X23169899Y16907819D01*
X23233032Y16877890D01*
X23269964Y16818578D01*
X23274500Y16785345D01*
X23274500Y11995809D01*
X23254815Y11928770D01*
X23238181Y11908128D01*
X23133830Y11803778D01*
X23133830Y11803776D01*
X23099499Y11720897D01*
X23099499Y11616753D01*
X23099500Y11616744D01*
X23099500Y11229858D01*
X23099499Y11229844D01*
X23099499Y11130147D01*
X23099500Y11130142D01*
X23123772Y11071543D01*
X23133829Y11047265D01*
X23133830Y11047264D01*
X23197264Y10983830D01*
X23197265Y10983830D01*
X23214705Y10966390D01*
X23359873Y10821222D01*
X23393358Y10759899D01*
X23394665Y10752939D01*
X23412498Y10640342D01*
X23462904Y10541415D01*
X23462909Y10541408D01*
X23541407Y10462910D01*
X23541410Y10462908D01*
X23541413Y10462905D01*
X23640339Y10412500D01*
X23640341Y10412499D01*
X23749998Y10395131D01*
X23750000Y10395131D01*
X23750002Y10395131D01*
X23859658Y10412499D01*
X23859659Y10412500D01*
X23859661Y10412500D01*
X23958587Y10462905D01*
X24037095Y10541413D01*
X24087500Y10640339D01*
X24087500Y10640341D01*
X24087501Y10640342D01*
X24104869Y10749998D01*
X24104869Y10750003D01*
X24087501Y10859659D01*
X24087500Y10859661D01*
X24037095Y10958587D01*
X24037092Y10958590D01*
X24037090Y10958593D01*
X23958364Y11037319D01*
X23924879Y11098642D01*
X23929863Y11168334D01*
X23958364Y11212681D01*
X24037090Y11291408D01*
X24037095Y11291413D01*
X24060271Y11336899D01*
X28639500Y11336899D01*
X28671905Y11215964D01*
X28734505Y11107536D01*
X28823036Y11019005D01*
X28931464Y10956405D01*
X29052399Y10924000D01*
X29052401Y10924000D01*
X29177599Y10924000D01*
X29177601Y10924000D01*
X29298536Y10956405D01*
X29406964Y11019005D01*
X29495495Y11107536D01*
X29558095Y11215964D01*
X29590500Y11336899D01*
X29590500Y11462101D01*
X29558095Y11583036D01*
X29495495Y11691464D01*
X29406964Y11779995D01*
X29298536Y11842595D01*
X29298537Y11842595D01*
X29257298Y11853645D01*
X29177601Y11875000D01*
X29052399Y11875000D01*
X28972702Y11853645D01*
X28931463Y11842595D01*
X28823037Y11779996D01*
X28823034Y11779994D01*
X28734506Y11691466D01*
X28734504Y11691463D01*
X28671905Y11583037D01*
X28671905Y11583036D01*
X28639500Y11462101D01*
X28639500Y11336899D01*
X24060271Y11336899D01*
X24087500Y11390339D01*
X24087500Y11390341D01*
X24087501Y11390342D01*
X24104869Y11499998D01*
X24104869Y11500003D01*
X24087501Y11609659D01*
X24039016Y11704817D01*
X24025501Y11761111D01*
X24025501Y11781621D01*
X24025500Y11781635D01*
X24025500Y12765429D01*
X27414499Y12765429D01*
X27439497Y12639762D01*
X27439499Y12639756D01*
X27488533Y12521376D01*
X27488538Y12521367D01*
X27559723Y12414832D01*
X27559726Y12414828D01*
X27650327Y12324227D01*
X27650331Y12324224D01*
X27756866Y12253039D01*
X27756872Y12253036D01*
X27756873Y12253035D01*
X27875256Y12203999D01*
X27875260Y12203999D01*
X27875261Y12203998D01*
X28000928Y12179000D01*
X28000931Y12179000D01*
X29229071Y12179000D01*
X29313615Y12195818D01*
X29354744Y12203999D01*
X29473127Y12253035D01*
X29579669Y12324224D01*
X29670276Y12414831D01*
X29741465Y12521373D01*
X29790501Y12639756D01*
X29806287Y12719117D01*
X29815500Y12765429D01*
X31744499Y12765429D01*
X31769497Y12639762D01*
X31769499Y12639756D01*
X31818533Y12521376D01*
X31818538Y12521367D01*
X31889723Y12414832D01*
X31889726Y12414828D01*
X31980327Y12324227D01*
X31980331Y12324224D01*
X32086866Y12253039D01*
X32086872Y12253036D01*
X32086873Y12253035D01*
X32205256Y12203999D01*
X32205260Y12203999D01*
X32205261Y12203998D01*
X32330928Y12179000D01*
X32330931Y12179000D01*
X33259071Y12179000D01*
X33343615Y12195818D01*
X33384744Y12203999D01*
X33503127Y12253035D01*
X33609669Y12324224D01*
X33700276Y12414831D01*
X33771465Y12521373D01*
X33820501Y12639756D01*
X33836287Y12719117D01*
X33845500Y12765429D01*
X33845500Y12893572D01*
X33820502Y13019239D01*
X33820501Y13019240D01*
X33820501Y13019244D01*
X33771465Y13137627D01*
X33771464Y13137628D01*
X33771461Y13137634D01*
X33700276Y13244169D01*
X33700273Y13244173D01*
X33609672Y13334774D01*
X33609668Y13334777D01*
X33503133Y13405962D01*
X33503124Y13405967D01*
X33384744Y13455001D01*
X33384738Y13455003D01*
X33259071Y13480000D01*
X33259069Y13480000D01*
X32330931Y13480000D01*
X32330929Y13480000D01*
X32205261Y13455003D01*
X32205255Y13455001D01*
X32086875Y13405967D01*
X32086866Y13405962D01*
X31980331Y13334777D01*
X31980327Y13334774D01*
X31889726Y13244173D01*
X31889723Y13244169D01*
X31818538Y13137634D01*
X31818533Y13137625D01*
X31769499Y13019245D01*
X31769497Y13019239D01*
X31744500Y12893572D01*
X31744500Y12893569D01*
X31744500Y12765431D01*
X31744500Y12765429D01*
X31744499Y12765429D01*
X29815500Y12765429D01*
X29815500Y12893572D01*
X29790502Y13019239D01*
X29790501Y13019240D01*
X29790501Y13019244D01*
X29741465Y13137627D01*
X29741464Y13137628D01*
X29741461Y13137634D01*
X29670276Y13244169D01*
X29670273Y13244173D01*
X29579672Y13334774D01*
X29579668Y13334777D01*
X29473133Y13405962D01*
X29473124Y13405967D01*
X29354744Y13455001D01*
X29354738Y13455003D01*
X29229071Y13480000D01*
X29229069Y13480000D01*
X28000931Y13480000D01*
X28000929Y13480000D01*
X27875261Y13455003D01*
X27875255Y13455001D01*
X27756875Y13405967D01*
X27756866Y13405962D01*
X27650331Y13334777D01*
X27650327Y13334774D01*
X27559726Y13244173D01*
X27559723Y13244169D01*
X27488538Y13137634D01*
X27488533Y13137625D01*
X27439499Y13019245D01*
X27439497Y13019239D01*
X27414500Y12893572D01*
X27414500Y12893569D01*
X27414500Y12765431D01*
X27414500Y12765429D01*
X27414499Y12765429D01*
X24025500Y12765429D01*
X24025500Y15970000D01*
X32494659Y15970000D01*
X32513975Y15773871D01*
X32571188Y15585267D01*
X32664086Y15411468D01*
X32664090Y15411461D01*
X32789116Y15259117D01*
X32941460Y15134091D01*
X32941467Y15134087D01*
X33115266Y15041189D01*
X33115269Y15041189D01*
X33115273Y15041186D01*
X33303868Y14983976D01*
X33500000Y14964659D01*
X33696132Y14983976D01*
X33884727Y15041186D01*
X34058538Y15134090D01*
X34210883Y15259117D01*
X34335910Y15411462D01*
X34428814Y15585273D01*
X34486024Y15773868D01*
X34505341Y15970000D01*
X34486024Y16166132D01*
X34428814Y16354727D01*
X34428811Y16354731D01*
X34428811Y16354734D01*
X34335913Y16528533D01*
X34335909Y16528540D01*
X34210883Y16680884D01*
X34058539Y16805910D01*
X34058532Y16805914D01*
X33884733Y16898812D01*
X33884727Y16898814D01*
X33696132Y16956024D01*
X33696129Y16956025D01*
X33500000Y16975341D01*
X33303870Y16956025D01*
X33115266Y16898812D01*
X32941467Y16805914D01*
X32941460Y16805910D01*
X32789116Y16680884D01*
X32664090Y16528540D01*
X32664086Y16528533D01*
X32571188Y16354734D01*
X32513975Y16166130D01*
X32494659Y15970000D01*
X24025500Y15970000D01*
X24025500Y16795064D01*
X24045185Y16862103D01*
X24097989Y16907858D01*
X24108849Y16912087D01*
X24109658Y16912500D01*
X24109661Y16912500D01*
X24208587Y16962905D01*
X24287095Y17041413D01*
X24337500Y17140339D01*
X24337500Y17140341D01*
X24337501Y17140342D01*
X24354869Y17249998D01*
X24354869Y17250003D01*
X24337501Y17359659D01*
X24304270Y17424879D01*
X24287095Y17458587D01*
X24287092Y17458590D01*
X24287090Y17458593D01*
X24208592Y17537091D01*
X24208588Y17537094D01*
X24208587Y17537095D01*
X24200112Y17541413D01*
X24109658Y17587502D01*
X24000002Y17604869D01*
X23999998Y17604869D01*
X23890341Y17587502D01*
X23791414Y17537096D01*
X23791407Y17537091D01*
X23712681Y17458364D01*
X23651358Y17424879D01*
X23581666Y17429863D01*
X23537319Y17458364D01*
X23458592Y17537091D01*
X23458588Y17537094D01*
X23458587Y17537095D01*
X23450112Y17541413D01*
X23359658Y17587502D01*
X23250002Y17604869D01*
X23249998Y17604869D01*
X23140341Y17587502D01*
X23041414Y17537096D01*
X23041407Y17537091D01*
X22962909Y17458593D01*
X22962904Y17458586D01*
X22912498Y17359659D01*
X22895131Y17250003D01*
X22895131Y17249998D01*
X13400500Y17249998D01*
X13400500Y17601327D01*
X13420185Y17668366D01*
X13436814Y17689004D01*
X13469684Y17721874D01*
X13531004Y17755358D01*
X13537967Y17756665D01*
X13540903Y17757131D01*
X13540905Y17757130D01*
X13592510Y17765304D01*
X13650562Y17774498D01*
X13650563Y17774499D01*
X13650566Y17774499D01*
X13749492Y17824904D01*
X13828000Y17903412D01*
X13878405Y18002338D01*
X13878405Y18002340D01*
X13878406Y18002341D01*
X13895774Y18111997D01*
X13895774Y18112002D01*
X13878406Y18221658D01*
X13878405Y18221660D01*
X13828000Y18320586D01*
X13827997Y18320589D01*
X13827995Y18320592D01*
X13749497Y18399090D01*
X13749493Y18399093D01*
X13749492Y18399094D01*
X13650566Y18449499D01*
X13650565Y18449500D01*
X13650562Y18449501D01*
X13650564Y18449501D01*
X13537967Y18467334D01*
X13474832Y18497263D01*
X13469684Y18502126D01*
X13461810Y18510000D01*
X32494659Y18510000D01*
X32513975Y18313871D01*
X32513976Y18313868D01*
X32548614Y18199681D01*
X32571188Y18125267D01*
X32664086Y17951468D01*
X32664090Y17951462D01*
X32789116Y17799117D01*
X32941460Y17674091D01*
X32941467Y17674087D01*
X33115266Y17581189D01*
X33115269Y17581189D01*
X33115273Y17581186D01*
X33303868Y17523976D01*
X33500000Y17504659D01*
X33696132Y17523976D01*
X33884727Y17581186D01*
X33896544Y17587502D01*
X33995400Y17640342D01*
X34058538Y17674090D01*
X34210883Y17799117D01*
X34335910Y17951462D01*
X34398557Y18068666D01*
X34428811Y18125267D01*
X34428811Y18125268D01*
X34428814Y18125273D01*
X34486024Y18313868D01*
X34505341Y18510000D01*
X34486024Y18706132D01*
X34428814Y18894727D01*
X34428811Y18894731D01*
X34428811Y18894734D01*
X34335913Y19068533D01*
X34335909Y19068540D01*
X34210883Y19220884D01*
X34058539Y19345910D01*
X34058532Y19345914D01*
X33884733Y19438812D01*
X33884727Y19438814D01*
X33696132Y19496024D01*
X33696129Y19496025D01*
X33500000Y19515341D01*
X33303870Y19496025D01*
X33115266Y19438812D01*
X32941467Y19345914D01*
X32941460Y19345910D01*
X32789116Y19220884D01*
X32664090Y19068540D01*
X32664086Y19068533D01*
X32571188Y18894734D01*
X32513975Y18706130D01*
X32494659Y18510000D01*
X13461810Y18510000D01*
X12586819Y19384991D01*
X12553334Y19446314D01*
X12550500Y19472672D01*
X12550500Y19678456D01*
X12570185Y19745495D01*
X12586815Y19766134D01*
X12612095Y19791413D01*
X12662500Y19890339D01*
X12662500Y19890341D01*
X12662501Y19890342D01*
X12679869Y19999998D01*
X12679869Y20000003D01*
X12662501Y20109659D01*
X12656626Y20121189D01*
X12612095Y20208587D01*
X12612092Y20208590D01*
X12612090Y20208593D01*
X12533592Y20287091D01*
X12533588Y20287094D01*
X12533587Y20287095D01*
X12529743Y20289054D01*
X12434658Y20337502D01*
X12325002Y20354869D01*
X12324998Y20354869D01*
X12215341Y20337502D01*
X12116414Y20287096D01*
X12116407Y20287091D01*
X12037909Y20208593D01*
X12037904Y20208586D01*
X11987498Y20109659D01*
X11970131Y20000003D01*
X11970131Y19999998D01*
X11987498Y19890342D01*
X11987500Y19890339D01*
X12037905Y19791413D01*
X12063181Y19766137D01*
X12096666Y19704816D01*
X12099500Y19678456D01*
X12099500Y19382762D01*
X12099499Y19382748D01*
X12099499Y19283051D01*
X12099500Y19283046D01*
X12123772Y19224447D01*
X12133829Y19200169D01*
X12133830Y19200168D01*
X12197264Y19136734D01*
X12197265Y19136734D01*
X13134319Y18199679D01*
X13167803Y18138358D01*
X13162819Y18068666D01*
X13134319Y18024319D01*
X13047265Y17937265D01*
X12983829Y17873830D01*
X12973774Y17849557D01*
X12973774Y17849555D01*
X12963719Y17825281D01*
X12949499Y17790951D01*
X12949499Y17686806D01*
X12949500Y17686797D01*
X12949500Y16071545D01*
X12929815Y16004506D01*
X12913181Y15983864D01*
X12887909Y15958593D01*
X12887904Y15958586D01*
X12837498Y15859658D01*
X12834482Y15850375D01*
X12832994Y15850859D01*
X12807731Y15797576D01*
X12748417Y15760649D01*
X12678555Y15761651D01*
X12627512Y15792434D01*
X10559652Y17860294D01*
X10559650Y17860297D01*
X10478778Y17941169D01*
X10478777Y17941170D01*
X10453930Y17951462D01*
X10395896Y17975501D01*
X10306186Y17975501D01*
X10291752Y17975501D01*
X10291744Y17975500D01*
X9571545Y17975500D01*
X9504506Y17995185D01*
X9483864Y18011819D01*
X9458592Y18037091D01*
X9458588Y18037094D01*
X9458587Y18037095D01*
X9454743Y18039054D01*
X9359658Y18087502D01*
X9250002Y18104869D01*
X9249998Y18104869D01*
X9140341Y18087502D01*
X9041414Y18037096D01*
X9041407Y18037091D01*
X8962909Y17958593D01*
X8962904Y17958586D01*
X8912498Y17859659D01*
X8895131Y17750003D01*
X8895131Y17749998D01*
X-848968Y17749998D01*
X-789117Y17799117D01*
X-664090Y17951462D01*
X-601443Y18068666D01*
X-571189Y18125267D01*
X-571189Y18125268D01*
X-571186Y18125273D01*
X-513976Y18313868D01*
X-494659Y18510000D01*
X-513976Y18706132D01*
X-571186Y18894727D01*
X-571189Y18894731D01*
X-571189Y18894734D01*
X-664087Y19068533D01*
X-664091Y19068540D01*
X-789117Y19220884D01*
X-941461Y19345910D01*
X-941468Y19345914D01*
X-1115267Y19438812D01*
X-1115273Y19438814D01*
X-1303868Y19496024D01*
X-1303871Y19496025D01*
X-1500000Y19515341D01*
X-1696130Y19496025D01*
X-1884734Y19438812D01*
X-2058533Y19345914D01*
X-2058540Y19345910D01*
X-2210884Y19220884D01*
X-2335910Y19068540D01*
X-2335914Y19068533D01*
X-2428812Y18894734D01*
X-2486025Y18706130D01*
X-2505341Y18510000D01*
X-3500000Y18510000D01*
X-3500000Y19999998D01*
X5645131Y19999998D01*
X5662498Y19890342D01*
X5712904Y19791415D01*
X5712909Y19791408D01*
X5791407Y19712910D01*
X5791410Y19712908D01*
X5791413Y19712905D01*
X5890339Y19662500D01*
X5890341Y19662499D01*
X5999998Y19645131D01*
X6000000Y19645131D01*
X6000002Y19645131D01*
X6109658Y19662499D01*
X6109659Y19662500D01*
X6109661Y19662500D01*
X6208587Y19712905D01*
X6287095Y19791413D01*
X6337500Y19890339D01*
X6337500Y19890341D01*
X6337501Y19890342D01*
X6354869Y19999998D01*
X6354869Y20000003D01*
X6337501Y20109659D01*
X6331626Y20121189D01*
X6287095Y20208587D01*
X6287092Y20208590D01*
X6287090Y20208593D01*
X6261819Y20233864D01*
X6228334Y20295187D01*
X6225500Y20321545D01*
X6225500Y21050000D01*
X32494659Y21050000D01*
X32513975Y20853871D01*
X32571188Y20665267D01*
X32664086Y20491468D01*
X32664090Y20491461D01*
X32789116Y20339117D01*
X32941460Y20214091D01*
X32941467Y20214087D01*
X33115266Y20121189D01*
X33115269Y20121189D01*
X33115273Y20121186D01*
X33303868Y20063976D01*
X33500000Y20044659D01*
X33696132Y20063976D01*
X33884727Y20121186D01*
X34058538Y20214090D01*
X34210883Y20339117D01*
X34335910Y20491462D01*
X34428814Y20665273D01*
X34486024Y20853868D01*
X34505341Y21050000D01*
X34486024Y21246132D01*
X34428814Y21434727D01*
X34428811Y21434731D01*
X34428811Y21434734D01*
X34335913Y21608533D01*
X34335909Y21608540D01*
X34210883Y21760884D01*
X34058539Y21885910D01*
X34058532Y21885914D01*
X33884733Y21978812D01*
X33884727Y21978814D01*
X33696132Y22036024D01*
X33696129Y22036025D01*
X33500000Y22055341D01*
X33303870Y22036025D01*
X33115266Y21978812D01*
X32941467Y21885914D01*
X32941460Y21885910D01*
X32789116Y21760884D01*
X32664090Y21608540D01*
X32664086Y21608533D01*
X32571188Y21434734D01*
X32513975Y21246130D01*
X32494659Y21050000D01*
X6225500Y21050000D01*
X6225500Y23249998D01*
X10645131Y23249998D01*
X10662498Y23140342D01*
X10712904Y23041415D01*
X10712909Y23041408D01*
X10791407Y22962910D01*
X10791410Y22962908D01*
X10791413Y22962905D01*
X10890339Y22912500D01*
X10890341Y22912499D01*
X10999998Y22895131D01*
X11000000Y22895131D01*
X11000002Y22895131D01*
X11109658Y22912499D01*
X11109659Y22912500D01*
X11109661Y22912500D01*
X11208587Y22962905D01*
X11208592Y22962910D01*
X11233864Y22988181D01*
X11295187Y23021666D01*
X11321545Y23024500D01*
X13678455Y23024500D01*
X13745494Y23004815D01*
X13766136Y22988181D01*
X13791407Y22962910D01*
X13791410Y22962908D01*
X13791413Y22962905D01*
X13890339Y22912500D01*
X13890341Y22912499D01*
X13999998Y22895131D01*
X14000000Y22895131D01*
X14000002Y22895131D01*
X14109658Y22912499D01*
X14109659Y22912500D01*
X14109661Y22912500D01*
X14208587Y22962905D01*
X14287095Y23041413D01*
X14337500Y23140339D01*
X14337500Y23140341D01*
X14337501Y23140342D01*
X14354869Y23249998D01*
X21395131Y23249998D01*
X21412498Y23140342D01*
X21462904Y23041415D01*
X21462909Y23041408D01*
X21541407Y22962910D01*
X21541410Y22962908D01*
X21541413Y22962905D01*
X21640339Y22912500D01*
X21640341Y22912499D01*
X21749998Y22895131D01*
X21750000Y22895131D01*
X21750002Y22895131D01*
X21859658Y22912499D01*
X21859659Y22912500D01*
X21859661Y22912500D01*
X21958587Y22962905D01*
X21958592Y22962910D01*
X21983864Y22988181D01*
X22045187Y23021666D01*
X22071545Y23024500D01*
X25928455Y23024500D01*
X25995494Y23004815D01*
X26016136Y22988181D01*
X26041407Y22962910D01*
X26041410Y22962908D01*
X26041413Y22962905D01*
X26140339Y22912500D01*
X26140341Y22912499D01*
X26249998Y22895131D01*
X26250000Y22895131D01*
X26250002Y22895131D01*
X26359658Y22912499D01*
X26359659Y22912500D01*
X26359661Y22912500D01*
X26458587Y22962905D01*
X26537095Y23041413D01*
X26587500Y23140339D01*
X26587500Y23140341D01*
X26587501Y23140342D01*
X26604869Y23249998D01*
X26604869Y23250003D01*
X26587501Y23359659D01*
X26570069Y23393871D01*
X26537095Y23458587D01*
X26537092Y23458590D01*
X26537090Y23458593D01*
X26458592Y23537091D01*
X26458588Y23537094D01*
X26458587Y23537095D01*
X26454743Y23539054D01*
X26359658Y23587502D01*
X26343886Y23590000D01*
X32494659Y23590000D01*
X32513975Y23393871D01*
X32571188Y23205267D01*
X32664086Y23031468D01*
X32664090Y23031461D01*
X32789116Y22879117D01*
X32941460Y22754091D01*
X32941467Y22754087D01*
X33115266Y22661189D01*
X33115269Y22661189D01*
X33115273Y22661186D01*
X33303868Y22603976D01*
X33500000Y22584659D01*
X33696132Y22603976D01*
X33884727Y22661186D01*
X34058538Y22754090D01*
X34210883Y22879117D01*
X34335910Y23031462D01*
X34428814Y23205273D01*
X34486024Y23393868D01*
X34505341Y23590000D01*
X34486024Y23786132D01*
X34428814Y23974727D01*
X34428811Y23974731D01*
X34428811Y23974734D01*
X34335913Y24148533D01*
X34335909Y24148540D01*
X34210883Y24300884D01*
X34058539Y24425910D01*
X34058532Y24425914D01*
X33884733Y24518812D01*
X33884727Y24518814D01*
X33696132Y24576024D01*
X33696129Y24576025D01*
X33500000Y24595341D01*
X33303870Y24576025D01*
X33115266Y24518812D01*
X32941467Y24425914D01*
X32941460Y24425910D01*
X32789116Y24300884D01*
X32664090Y24148540D01*
X32664086Y24148533D01*
X32571188Y23974734D01*
X32513975Y23786130D01*
X32494659Y23590000D01*
X26343886Y23590000D01*
X26250002Y23604869D01*
X26249998Y23604869D01*
X26140341Y23587502D01*
X26041414Y23537096D01*
X26041407Y23537091D01*
X26016136Y23511819D01*
X25954813Y23478334D01*
X25928455Y23475500D01*
X22071545Y23475500D01*
X22004506Y23495185D01*
X21983864Y23511819D01*
X21958592Y23537091D01*
X21958588Y23537094D01*
X21958587Y23537095D01*
X21954743Y23539054D01*
X21859658Y23587502D01*
X21750002Y23604869D01*
X21749998Y23604869D01*
X21640341Y23587502D01*
X21541414Y23537096D01*
X21541407Y23537091D01*
X21462909Y23458593D01*
X21462904Y23458586D01*
X21412498Y23359659D01*
X21395131Y23250003D01*
X21395131Y23249998D01*
X14354869Y23249998D01*
X14354869Y23250003D01*
X14337501Y23359659D01*
X14320069Y23393871D01*
X14287095Y23458587D01*
X14287092Y23458590D01*
X14287090Y23458593D01*
X14208592Y23537091D01*
X14208588Y23537094D01*
X14208587Y23537095D01*
X14204743Y23539054D01*
X14109658Y23587502D01*
X14000002Y23604869D01*
X13999998Y23604869D01*
X13890341Y23587502D01*
X13791414Y23537096D01*
X13791407Y23537091D01*
X13766136Y23511819D01*
X13704813Y23478334D01*
X13678455Y23475500D01*
X11321545Y23475500D01*
X11254506Y23495185D01*
X11233864Y23511819D01*
X11208592Y23537091D01*
X11208588Y23537094D01*
X11208587Y23537095D01*
X11204743Y23539054D01*
X11109658Y23587502D01*
X11000002Y23604869D01*
X10999998Y23604869D01*
X10890341Y23587502D01*
X10791414Y23537096D01*
X10791407Y23537091D01*
X10712909Y23458593D01*
X10712904Y23458586D01*
X10662498Y23359659D01*
X10645131Y23250003D01*
X10645131Y23249998D01*
X6225500Y23249998D01*
X6225500Y26130000D01*
X32494659Y26130000D01*
X32513975Y25933871D01*
X32571188Y25745267D01*
X32664086Y25571468D01*
X32664090Y25571461D01*
X32789116Y25419117D01*
X32941460Y25294091D01*
X32941467Y25294087D01*
X33115266Y25201189D01*
X33115269Y25201189D01*
X33115273Y25201186D01*
X33303868Y25143976D01*
X33500000Y25124659D01*
X33696132Y25143976D01*
X33884727Y25201186D01*
X34058538Y25294090D01*
X34210883Y25419117D01*
X34335910Y25571462D01*
X34428814Y25745273D01*
X34486024Y25933868D01*
X34505341Y26130000D01*
X34486024Y26326132D01*
X34428814Y26514727D01*
X34428811Y26514731D01*
X34428811Y26514734D01*
X34335913Y26688533D01*
X34335909Y26688540D01*
X34210883Y26840884D01*
X34058539Y26965910D01*
X34058532Y26965914D01*
X33884733Y27058812D01*
X33884727Y27058814D01*
X33696132Y27116024D01*
X33696129Y27116025D01*
X33500000Y27135341D01*
X33303870Y27116025D01*
X33115266Y27058812D01*
X32941467Y26965914D01*
X32941460Y26965910D01*
X32789116Y26840884D01*
X32664090Y26688540D01*
X32664086Y26688533D01*
X32571188Y26514734D01*
X32513975Y26326130D01*
X32494659Y26130000D01*
X6225500Y26130000D01*
X6225500Y27578064D01*
X15992839Y27578064D01*
X16033402Y27551995D01*
X16167907Y27512500D01*
X16308092Y27512500D01*
X16442594Y27551994D01*
X16442600Y27551997D01*
X16483159Y27578064D01*
X17092839Y27578064D01*
X17133402Y27551995D01*
X17267907Y27512500D01*
X17408092Y27512500D01*
X17542594Y27551994D01*
X17542600Y27551997D01*
X17583159Y27578064D01*
X17583159Y27578065D01*
X17338001Y27823224D01*
X17092839Y27578064D01*
X16483159Y27578064D01*
X16483159Y27578065D01*
X16238001Y27823224D01*
X15992839Y27578064D01*
X6225500Y27578064D01*
X6225500Y28128064D01*
X15442839Y28128064D01*
X15483402Y28101995D01*
X15617907Y28062500D01*
X15629054Y28062500D01*
X15696093Y28042815D01*
X15741848Y27990011D01*
X15751792Y27956147D01*
X15765436Y27861244D01*
X15765437Y27861240D01*
X15814666Y27753445D01*
X15814667Y27753445D01*
X16041332Y27980109D01*
X16138000Y27980109D01*
X16153224Y27943355D01*
X16181355Y27915224D01*
X16218109Y27900000D01*
X16257891Y27900000D01*
X16294645Y27915224D01*
X16322776Y27943355D01*
X16338000Y27980109D01*
X16338000Y28000000D01*
X16414776Y28000000D01*
X16661331Y27753445D01*
X16675204Y27783822D01*
X16720959Y27836626D01*
X16787998Y27856311D01*
X16855038Y27836627D01*
X16900793Y27783823D01*
X16914666Y27753445D01*
X16914667Y27753445D01*
X17141332Y27980109D01*
X17238000Y27980109D01*
X17253224Y27943355D01*
X17281355Y27915224D01*
X17318109Y27900000D01*
X17357891Y27900000D01*
X17394645Y27915224D01*
X17422776Y27943355D01*
X17438000Y27980109D01*
X17438000Y28000000D01*
X17514776Y28000000D01*
X17761331Y27753445D01*
X17761332Y27753445D01*
X17810563Y27861244D01*
X17824208Y27956147D01*
X17853233Y28019703D01*
X17912011Y28057477D01*
X17946946Y28062500D01*
X17958092Y28062500D01*
X18092594Y28101994D01*
X18092600Y28101997D01*
X18133159Y28128064D01*
X18133159Y28128065D01*
X17888000Y28373224D01*
X17514776Y28000000D01*
X17438000Y28000000D01*
X17438000Y28019891D01*
X17422776Y28056645D01*
X17394645Y28084776D01*
X17357891Y28100000D01*
X17318109Y28100000D01*
X17281355Y28084776D01*
X17253224Y28056645D01*
X17238000Y28019891D01*
X17238000Y27980109D01*
X17141332Y27980109D01*
X17161223Y28000000D01*
X17074731Y28086492D01*
X17074731Y28086493D01*
X16788000Y28373224D01*
X16414776Y28000000D01*
X16338000Y28000000D01*
X16338000Y28019891D01*
X16322776Y28056645D01*
X16294645Y28084776D01*
X16257891Y28100000D01*
X16218109Y28100000D01*
X16181355Y28084776D01*
X16153224Y28056645D01*
X16138000Y28019891D01*
X16138000Y27980109D01*
X16041332Y27980109D01*
X16061223Y28000000D01*
X15974731Y28086492D01*
X15974731Y28086493D01*
X15688001Y28373224D01*
X15442839Y28128064D01*
X6225500Y28128064D01*
X6225500Y28550000D01*
X15195487Y28550000D01*
X15215436Y28411244D01*
X15215437Y28411240D01*
X15264666Y28303445D01*
X15264667Y28303445D01*
X15491332Y28530109D01*
X15588000Y28530109D01*
X15603224Y28493355D01*
X15631355Y28465224D01*
X15668109Y28450000D01*
X15707891Y28450000D01*
X15744645Y28465224D01*
X15772776Y28493355D01*
X15788000Y28530109D01*
X15788000Y28550000D01*
X15864776Y28550000D01*
X15951268Y28463508D01*
X16238000Y28176777D01*
X16524731Y28463508D01*
X16591331Y28530109D01*
X16688000Y28530109D01*
X16703224Y28493355D01*
X16731355Y28465224D01*
X16768109Y28450000D01*
X16807891Y28450000D01*
X16844645Y28465224D01*
X16872776Y28493355D01*
X16888000Y28530109D01*
X16888000Y28550000D01*
X16964776Y28550000D01*
X17051268Y28463508D01*
X17338000Y28176777D01*
X17624731Y28463508D01*
X17691331Y28530109D01*
X17788000Y28530109D01*
X17803224Y28493355D01*
X17831355Y28465224D01*
X17868109Y28450000D01*
X17907891Y28450000D01*
X17944645Y28465224D01*
X17972776Y28493355D01*
X17988000Y28530109D01*
X17988000Y28550000D01*
X18064776Y28550000D01*
X18311331Y28303445D01*
X18311332Y28303445D01*
X18360563Y28411244D01*
X18380512Y28550000D01*
X18363259Y28670000D01*
X32494659Y28670000D01*
X32513975Y28473871D01*
X32571188Y28285267D01*
X32664086Y28111468D01*
X32664090Y28111461D01*
X32789116Y27959117D01*
X32941460Y27834091D01*
X32941467Y27834087D01*
X33115266Y27741189D01*
X33115269Y27741189D01*
X33115273Y27741186D01*
X33303868Y27683976D01*
X33500000Y27664659D01*
X33696132Y27683976D01*
X33884727Y27741186D01*
X34058538Y27834090D01*
X34210883Y27959117D01*
X34335910Y28111462D01*
X34428814Y28285273D01*
X34486024Y28473868D01*
X34505341Y28670000D01*
X34486024Y28866132D01*
X34428814Y29054727D01*
X34428811Y29054731D01*
X34428811Y29054734D01*
X34335913Y29228533D01*
X34335909Y29228540D01*
X34210883Y29380884D01*
X34058539Y29505910D01*
X34058532Y29505914D01*
X33884733Y29598812D01*
X33884727Y29598814D01*
X33758997Y29636954D01*
X33696129Y29656025D01*
X33500000Y29675341D01*
X33303870Y29656025D01*
X33115266Y29598812D01*
X32941467Y29505914D01*
X32941460Y29505910D01*
X32789116Y29380884D01*
X32664090Y29228540D01*
X32664086Y29228533D01*
X32571188Y29054734D01*
X32513975Y28866130D01*
X32494659Y28670000D01*
X18363259Y28670000D01*
X18360563Y28688753D01*
X18360561Y28688761D01*
X18311332Y28796557D01*
X18311331Y28796557D01*
X18064776Y28550001D01*
X18064776Y28550000D01*
X17988000Y28550000D01*
X17988000Y28569891D01*
X17972776Y28606645D01*
X17944645Y28634776D01*
X17907891Y28650000D01*
X17868109Y28650000D01*
X17831355Y28634776D01*
X17803224Y28606645D01*
X17788000Y28569891D01*
X17788000Y28530109D01*
X17691331Y28530109D01*
X17711222Y28550000D01*
X17624731Y28636492D01*
X17624731Y28636493D01*
X17338000Y28923224D01*
X16964776Y28550000D01*
X16888000Y28550000D01*
X16888000Y28569891D01*
X16872776Y28606645D01*
X16844645Y28634776D01*
X16807891Y28650000D01*
X16768109Y28650000D01*
X16731355Y28634776D01*
X16703224Y28606645D01*
X16688000Y28569891D01*
X16688000Y28530109D01*
X16591331Y28530109D01*
X16611222Y28550000D01*
X16524731Y28636492D01*
X16524731Y28636493D01*
X16238000Y28923224D01*
X15864776Y28550000D01*
X15788000Y28550000D01*
X15788000Y28569891D01*
X15772776Y28606645D01*
X15744645Y28634776D01*
X15707891Y28650000D01*
X15668109Y28650000D01*
X15631355Y28634776D01*
X15603224Y28606645D01*
X15588000Y28569891D01*
X15588000Y28530109D01*
X15491332Y28530109D01*
X15511223Y28550000D01*
X15264666Y28796557D01*
X15215437Y28688758D01*
X15215436Y28688757D01*
X15195487Y28550000D01*
X6225500Y28550000D01*
X6225500Y28971937D01*
X15442839Y28971937D01*
X15688000Y28726778D01*
X15974731Y29013508D01*
X16041331Y29080109D01*
X16138000Y29080109D01*
X16153224Y29043355D01*
X16181355Y29015224D01*
X16218109Y29000000D01*
X16257891Y29000000D01*
X16294645Y29015224D01*
X16322776Y29043355D01*
X16338000Y29080109D01*
X16338000Y29100000D01*
X16414776Y29100000D01*
X16501268Y29013508D01*
X16788000Y28726777D01*
X17074731Y29013508D01*
X17141331Y29080109D01*
X17238000Y29080109D01*
X17253224Y29043355D01*
X17281355Y29015224D01*
X17318109Y29000000D01*
X17357891Y29000000D01*
X17394645Y29015224D01*
X17422776Y29043355D01*
X17438000Y29080109D01*
X17438000Y29100000D01*
X17514776Y29100000D01*
X17601268Y29013508D01*
X17888000Y28726777D01*
X17888001Y28726777D01*
X18133159Y28971936D01*
X18133159Y28971938D01*
X18096206Y28995687D01*
X18050453Y29048492D01*
X18040510Y29117651D01*
X18069537Y29181206D01*
X18096206Y29204315D01*
X18133159Y29228065D01*
X17888000Y29473224D01*
X17514776Y29100000D01*
X17438000Y29100000D01*
X17438000Y29119891D01*
X17422776Y29156645D01*
X17394645Y29184776D01*
X17357891Y29200000D01*
X17318109Y29200000D01*
X17281355Y29184776D01*
X17253224Y29156645D01*
X17238000Y29119891D01*
X17238000Y29080109D01*
X17141331Y29080109D01*
X17161222Y29100000D01*
X17074731Y29186492D01*
X17074731Y29186493D01*
X16788000Y29473224D01*
X16414776Y29100000D01*
X16338000Y29100000D01*
X16338000Y29119891D01*
X16322776Y29156645D01*
X16294645Y29184776D01*
X16257891Y29200000D01*
X16218109Y29200000D01*
X16181355Y29184776D01*
X16153224Y29156645D01*
X16138000Y29119891D01*
X16138000Y29080109D01*
X16041331Y29080109D01*
X16061222Y29100000D01*
X15974731Y29186492D01*
X15974731Y29186493D01*
X15688001Y29473224D01*
X15442839Y29228064D01*
X15479792Y29204315D01*
X15525546Y29151511D01*
X15535489Y29082352D01*
X15506463Y29018797D01*
X15479792Y28995686D01*
X15442839Y28971938D01*
X15442839Y28971937D01*
X6225500Y28971937D01*
X6225500Y29650000D01*
X15195487Y29650000D01*
X15215436Y29511244D01*
X15215437Y29511240D01*
X15264666Y29403445D01*
X15264667Y29403445D01*
X15491332Y29630109D01*
X15588000Y29630109D01*
X15603224Y29593355D01*
X15631355Y29565224D01*
X15668109Y29550000D01*
X15707891Y29550000D01*
X15744645Y29565224D01*
X15772776Y29593355D01*
X15788000Y29630109D01*
X15788000Y29650000D01*
X15864776Y29650000D01*
X15951268Y29563508D01*
X16238000Y29276777D01*
X16524731Y29563508D01*
X16591331Y29630109D01*
X16688000Y29630109D01*
X16703224Y29593355D01*
X16731355Y29565224D01*
X16768109Y29550000D01*
X16807891Y29550000D01*
X16844645Y29565224D01*
X16872776Y29593355D01*
X16888000Y29630109D01*
X16888000Y29650000D01*
X16964776Y29650000D01*
X17051268Y29563508D01*
X17338000Y29276777D01*
X17624731Y29563508D01*
X17691331Y29630109D01*
X17788000Y29630109D01*
X17803224Y29593355D01*
X17831355Y29565224D01*
X17868109Y29550000D01*
X17907891Y29550000D01*
X17944645Y29565224D01*
X17972776Y29593355D01*
X17988000Y29630109D01*
X17988000Y29650000D01*
X18064776Y29650000D01*
X18311331Y29403445D01*
X18311332Y29403445D01*
X18360563Y29511244D01*
X18380512Y29650000D01*
X18360563Y29788753D01*
X18360561Y29788761D01*
X18311332Y29896557D01*
X18311331Y29896557D01*
X18064776Y29650001D01*
X18064776Y29650000D01*
X17988000Y29650000D01*
X17988000Y29669891D01*
X17972776Y29706645D01*
X17944645Y29734776D01*
X17907891Y29750000D01*
X17868109Y29750000D01*
X17831355Y29734776D01*
X17803224Y29706645D01*
X17788000Y29669891D01*
X17788000Y29630109D01*
X17691331Y29630109D01*
X17711222Y29650000D01*
X17624731Y29736492D01*
X17624731Y29736493D01*
X17338000Y30023224D01*
X16964776Y29650000D01*
X16888000Y29650000D01*
X16888000Y29669891D01*
X16872776Y29706645D01*
X16844645Y29734776D01*
X16807891Y29750000D01*
X16768109Y29750000D01*
X16731355Y29734776D01*
X16703224Y29706645D01*
X16688000Y29669891D01*
X16688000Y29630109D01*
X16591331Y29630109D01*
X16611222Y29650000D01*
X16524731Y29736492D01*
X16524731Y29736493D01*
X16238000Y30023224D01*
X15864776Y29650000D01*
X15788000Y29650000D01*
X15788000Y29669891D01*
X15772776Y29706645D01*
X15744645Y29734776D01*
X15707891Y29750000D01*
X15668109Y29750000D01*
X15631355Y29734776D01*
X15603224Y29706645D01*
X15588000Y29669891D01*
X15588000Y29630109D01*
X15491332Y29630109D01*
X15511223Y29650000D01*
X15264666Y29896557D01*
X15215437Y29788758D01*
X15215436Y29788757D01*
X15195487Y29650000D01*
X6225500Y29650000D01*
X6225500Y30071937D01*
X15442839Y30071937D01*
X15688000Y29826778D01*
X15974731Y30113508D01*
X16041331Y30180109D01*
X16138000Y30180109D01*
X16153224Y30143355D01*
X16181355Y30115224D01*
X16218109Y30100000D01*
X16257891Y30100000D01*
X16294645Y30115224D01*
X16322776Y30143355D01*
X16338000Y30180109D01*
X16338000Y30200001D01*
X16414776Y30200001D01*
X16501268Y30113509D01*
X16501268Y30113508D01*
X16788000Y29826777D01*
X17074731Y30113508D01*
X17141331Y30180109D01*
X17238000Y30180109D01*
X17253224Y30143355D01*
X17281355Y30115224D01*
X17318109Y30100000D01*
X17357891Y30100000D01*
X17394645Y30115224D01*
X17422776Y30143355D01*
X17438000Y30180109D01*
X17438000Y30200001D01*
X17514776Y30200001D01*
X17601268Y30113509D01*
X17601268Y30113508D01*
X17888000Y29826777D01*
X17888001Y29826777D01*
X18133159Y30071936D01*
X18133159Y30071939D01*
X18092600Y30098005D01*
X18092601Y30098005D01*
X17958093Y30137500D01*
X17946946Y30137500D01*
X17879907Y30157185D01*
X17834152Y30209989D01*
X17824208Y30243853D01*
X17810563Y30338753D01*
X17810561Y30338761D01*
X17761332Y30446557D01*
X17761331Y30446557D01*
X17514776Y30200001D01*
X17438000Y30200001D01*
X17438000Y30219891D01*
X17422776Y30256645D01*
X17394645Y30284776D01*
X17357891Y30300000D01*
X17318109Y30300000D01*
X17281355Y30284776D01*
X17253224Y30256645D01*
X17238000Y30219891D01*
X17238000Y30180109D01*
X17141331Y30180109D01*
X17161222Y30200000D01*
X16914666Y30446557D01*
X16914665Y30446557D01*
X16900793Y30416180D01*
X16855038Y30363376D01*
X16787999Y30343691D01*
X16720960Y30363376D01*
X16675205Y30416180D01*
X16661332Y30446557D01*
X16661331Y30446557D01*
X16414776Y30200001D01*
X16338000Y30200001D01*
X16338000Y30219891D01*
X16322776Y30256645D01*
X16294645Y30284776D01*
X16257891Y30300000D01*
X16218109Y30300000D01*
X16181355Y30284776D01*
X16153224Y30256645D01*
X16138000Y30219891D01*
X16138000Y30180109D01*
X16041331Y30180109D01*
X16061222Y30200000D01*
X15814666Y30446557D01*
X15765437Y30338758D01*
X15765436Y30338757D01*
X15751792Y30243853D01*
X15722767Y30180297D01*
X15663989Y30142523D01*
X15629054Y30137500D01*
X15617907Y30137500D01*
X15483404Y30098007D01*
X15442839Y30071938D01*
X15442839Y30071937D01*
X6225500Y30071937D01*
X6225500Y30621937D01*
X15992839Y30621937D01*
X16238000Y30376777D01*
X16483159Y30621936D01*
X16483159Y30621937D01*
X17092839Y30621937D01*
X17338000Y30376777D01*
X17583159Y30621936D01*
X17583159Y30621939D01*
X17542600Y30648005D01*
X17542601Y30648005D01*
X17408093Y30687500D01*
X17267907Y30687500D01*
X17133404Y30648007D01*
X17092839Y30621938D01*
X17092839Y30621937D01*
X16483159Y30621937D01*
X16483159Y30621939D01*
X16442600Y30648005D01*
X16442601Y30648005D01*
X16308093Y30687500D01*
X16167907Y30687500D01*
X16033404Y30648007D01*
X15992839Y30621938D01*
X15992839Y30621937D01*
X6225500Y30621937D01*
X6225500Y31210000D01*
X32494659Y31210000D01*
X32513975Y31013871D01*
X32571188Y30825267D01*
X32664086Y30651468D01*
X32664090Y30651461D01*
X32789116Y30499117D01*
X32941460Y30374091D01*
X32941467Y30374087D01*
X33115266Y30281189D01*
X33115269Y30281189D01*
X33115273Y30281186D01*
X33303868Y30223976D01*
X33500000Y30204659D01*
X33696132Y30223976D01*
X33884727Y30281186D01*
X33891444Y30284776D01*
X33992435Y30338757D01*
X34058538Y30374090D01*
X34210883Y30499117D01*
X34335910Y30651462D01*
X34385413Y30744075D01*
X34428811Y30825267D01*
X34428811Y30825268D01*
X34428814Y30825273D01*
X34486024Y31013868D01*
X34505341Y31210000D01*
X34486024Y31406132D01*
X34428814Y31594727D01*
X34428811Y31594731D01*
X34428811Y31594734D01*
X34335913Y31768533D01*
X34335909Y31768540D01*
X34210883Y31920884D01*
X34058539Y32045910D01*
X34058532Y32045914D01*
X33884733Y32138812D01*
X33884727Y32138814D01*
X33696132Y32196024D01*
X33696129Y32196025D01*
X33500000Y32215341D01*
X33303870Y32196025D01*
X33115266Y32138812D01*
X32941467Y32045914D01*
X32941460Y32045910D01*
X32789116Y31920884D01*
X32664090Y31768540D01*
X32664086Y31768533D01*
X32571188Y31594734D01*
X32513975Y31406130D01*
X32494659Y31210000D01*
X6225500Y31210000D01*
X6225500Y32885178D01*
X32499499Y32885178D01*
X32508231Y32841283D01*
X32508232Y32841279D01*
X32508233Y32841278D01*
X32541496Y32791496D01*
X32591278Y32758233D01*
X32591281Y32758233D01*
X32591282Y32758232D01*
X32635177Y32749500D01*
X32635180Y32749500D01*
X34364822Y32749500D01*
X34408717Y32758232D01*
X34408717Y32758233D01*
X34408722Y32758233D01*
X34458504Y32791496D01*
X34491767Y32841278D01*
X34500500Y32885180D01*
X34500500Y34614820D01*
X34500500Y34614823D01*
X34491768Y34658718D01*
X34491767Y34658719D01*
X34491767Y34658722D01*
X34458504Y34708504D01*
X34458503Y34708505D01*
X34408724Y34741766D01*
X34408717Y34741769D01*
X34364822Y34750500D01*
X34364820Y34750500D01*
X32635180Y34750500D01*
X32635178Y34750500D01*
X32591282Y34741769D01*
X32591275Y34741766D01*
X32541496Y34708505D01*
X32541495Y34708504D01*
X32508234Y34658725D01*
X32508231Y34658718D01*
X32499500Y34614823D01*
X32499500Y34614820D01*
X32499500Y32885180D01*
X32499500Y32885178D01*
X32499499Y32885178D01*
X6225500Y32885178D01*
X6225500Y33285345D01*
X6245185Y33352384D01*
X6297989Y33398139D01*
X6330098Y33407818D01*
X6359661Y33412500D01*
X6458587Y33462905D01*
X6537095Y33541413D01*
X6587500Y33640339D01*
X6587500Y33640341D01*
X6587501Y33640342D01*
X6604869Y33749998D01*
X6604869Y33750003D01*
X6587501Y33859659D01*
X6587500Y33859661D01*
X6537095Y33958587D01*
X6537092Y33958590D01*
X6537090Y33958593D01*
X6458592Y34037091D01*
X6458588Y34037094D01*
X6458587Y34037095D01*
X6454743Y34039054D01*
X6359658Y34087502D01*
X6250002Y34104869D01*
X6249998Y34104869D01*
X6140341Y34087502D01*
X6041414Y34037096D01*
X6041407Y34037091D01*
X5962909Y33958593D01*
X5962904Y33958586D01*
X5912498Y33859659D01*
X5894665Y33747063D01*
X5864735Y33683928D01*
X5859874Y33678780D01*
X5808828Y33627734D01*
X5798774Y33603463D01*
X5798774Y33603461D01*
X5788719Y33579187D01*
X5774499Y33544857D01*
X5774499Y33440712D01*
X5774500Y33440703D01*
X5774500Y20321545D01*
X5754815Y20254506D01*
X5738181Y20233864D01*
X5712909Y20208593D01*
X5712904Y20208586D01*
X5662498Y20109659D01*
X5645131Y20000003D01*
X5645131Y19999998D01*
X-3500000Y19999998D01*
X-3500000Y21050000D01*
X-2505341Y21050000D01*
X-2486025Y20853871D01*
X-2428812Y20665267D01*
X-2335914Y20491468D01*
X-2335910Y20491461D01*
X-2210884Y20339117D01*
X-2058540Y20214091D01*
X-2058533Y20214087D01*
X-1884734Y20121189D01*
X-1884731Y20121189D01*
X-1884727Y20121186D01*
X-1696132Y20063976D01*
X-1500000Y20044659D01*
X-1303868Y20063976D01*
X-1115273Y20121186D01*
X-941462Y20214090D01*
X-789117Y20339117D01*
X-664090Y20491462D01*
X-571186Y20665273D01*
X-513976Y20853868D01*
X-494659Y21050000D01*
X-513976Y21246132D01*
X-571186Y21434727D01*
X-571189Y21434731D01*
X-571189Y21434734D01*
X-664087Y21608533D01*
X-664091Y21608540D01*
X-789117Y21760884D01*
X-941461Y21885910D01*
X-941468Y21885914D01*
X-1115267Y21978812D01*
X-1115273Y21978814D01*
X-1303868Y22036024D01*
X-1303871Y22036025D01*
X-1500000Y22055341D01*
X-1696130Y22036025D01*
X-1884734Y21978812D01*
X-2058533Y21885914D01*
X-2058540Y21885910D01*
X-2210884Y21760884D01*
X-2335910Y21608540D01*
X-2335914Y21608533D01*
X-2428812Y21434734D01*
X-2486025Y21246130D01*
X-2505341Y21050000D01*
X-3500000Y21050000D01*
X-3500000Y23590000D01*
X-2505341Y23590000D01*
X-2486025Y23393871D01*
X-2428812Y23205267D01*
X-2335914Y23031468D01*
X-2335910Y23031461D01*
X-2210884Y22879117D01*
X-2058540Y22754091D01*
X-2058533Y22754087D01*
X-1884734Y22661189D01*
X-1884731Y22661189D01*
X-1884727Y22661186D01*
X-1696132Y22603976D01*
X-1500000Y22584659D01*
X-1303868Y22603976D01*
X-1115273Y22661186D01*
X-941462Y22754090D01*
X-789117Y22879117D01*
X-664090Y23031462D01*
X-571186Y23205273D01*
X-513976Y23393868D01*
X-494659Y23590000D01*
X-513976Y23786132D01*
X-571186Y23974727D01*
X-571189Y23974731D01*
X-571189Y23974734D01*
X-664087Y24148533D01*
X-664091Y24148540D01*
X-789117Y24300884D01*
X-941461Y24425910D01*
X-941468Y24425914D01*
X-1115267Y24518812D01*
X-1115273Y24518814D01*
X-1303868Y24576024D01*
X-1303871Y24576025D01*
X-1500000Y24595341D01*
X-1696130Y24576025D01*
X-1884734Y24518812D01*
X-2058533Y24425914D01*
X-2058540Y24425910D01*
X-2210884Y24300884D01*
X-2335910Y24148540D01*
X-2335914Y24148533D01*
X-2428812Y23974734D01*
X-2486025Y23786130D01*
X-2505341Y23590000D01*
X-3500000Y23590000D01*
X-3500000Y26130000D01*
X-2505341Y26130000D01*
X-2486025Y25933871D01*
X-2428812Y25745267D01*
X-2335914Y25571468D01*
X-2335910Y25571461D01*
X-2210884Y25419117D01*
X-2058540Y25294091D01*
X-2058533Y25294087D01*
X-1884734Y25201189D01*
X-1884731Y25201189D01*
X-1884727Y25201186D01*
X-1696132Y25143976D01*
X-1500000Y25124659D01*
X-1303868Y25143976D01*
X-1115273Y25201186D01*
X-941462Y25294090D01*
X-789117Y25419117D01*
X-664090Y25571462D01*
X-571186Y25745273D01*
X-513976Y25933868D01*
X-494659Y26130000D01*
X-513976Y26326132D01*
X-571186Y26514727D01*
X-571189Y26514731D01*
X-571189Y26514734D01*
X-664087Y26688533D01*
X-664091Y26688540D01*
X-789117Y26840884D01*
X-941461Y26965910D01*
X-941468Y26965914D01*
X-1115267Y27058812D01*
X-1115273Y27058814D01*
X-1303868Y27116024D01*
X-1303871Y27116025D01*
X-1500000Y27135341D01*
X-1696130Y27116025D01*
X-1884734Y27058812D01*
X-2058533Y26965914D01*
X-2058540Y26965910D01*
X-2210884Y26840884D01*
X-2335910Y26688540D01*
X-2335914Y26688533D01*
X-2428812Y26514734D01*
X-2486025Y26326130D01*
X-2505341Y26130000D01*
X-3500000Y26130000D01*
X-3500000Y28670000D01*
X-2505341Y28670000D01*
X-2486025Y28473871D01*
X-2428812Y28285267D01*
X-2335914Y28111468D01*
X-2335910Y28111461D01*
X-2210884Y27959117D01*
X-2058540Y27834091D01*
X-2058533Y27834087D01*
X-1884734Y27741189D01*
X-1884731Y27741189D01*
X-1884727Y27741186D01*
X-1696132Y27683976D01*
X-1500000Y27664659D01*
X-1303868Y27683976D01*
X-1115273Y27741186D01*
X-941462Y27834090D01*
X-789117Y27959117D01*
X-664090Y28111462D01*
X-571186Y28285273D01*
X-513976Y28473868D01*
X-494659Y28670000D01*
X-513976Y28866132D01*
X-571186Y29054727D01*
X-571189Y29054731D01*
X-571189Y29054734D01*
X-664087Y29228533D01*
X-664091Y29228540D01*
X-789117Y29380884D01*
X-941461Y29505910D01*
X-941468Y29505914D01*
X-1115267Y29598812D01*
X-1115273Y29598814D01*
X-1241003Y29636954D01*
X-1303871Y29656025D01*
X-1500000Y29675341D01*
X-1696130Y29656025D01*
X-1884734Y29598812D01*
X-2058533Y29505914D01*
X-2058540Y29505910D01*
X-2210884Y29380884D01*
X-2335910Y29228540D01*
X-2335914Y29228533D01*
X-2428812Y29054734D01*
X-2486025Y28866130D01*
X-2505341Y28670000D01*
X-3500000Y28670000D01*
X-3500000Y31335001D01*
X-2593131Y31335001D01*
X-2593130Y31335000D01*
X-1984144Y31335000D01*
X-2000000Y31275826D01*
X-2000000Y31144174D01*
X-1984144Y31085000D01*
X-2593130Y31085000D01*
X-2585903Y31007011D01*
X-2585903Y31007008D01*
X-2530117Y30810937D01*
X-2530114Y30810931D01*
X-2439246Y30628444D01*
X-2316392Y30465758D01*
X-2165740Y30328422D01*
X-1992416Y30221103D01*
X-1802322Y30147461D01*
X-1625000Y30114314D01*
X-1625000Y30725856D01*
X-1565826Y30710000D01*
X-1434174Y30710000D01*
X-1375000Y30725856D01*
X-1375000Y30114314D01*
X-1197679Y30147461D01*
X-1007585Y30221103D01*
X-834261Y30328422D01*
X-683609Y30465758D01*
X-560755Y30628444D01*
X-469887Y30810931D01*
X-469884Y30810937D01*
X-414098Y31007008D01*
X-414098Y31007011D01*
X-406870Y31085000D01*
X-1015856Y31085000D01*
X-1000000Y31144174D01*
X-1000000Y31275826D01*
X-1015856Y31335000D01*
X-406870Y31335000D01*
X-406870Y31335001D01*
X-414098Y31412990D01*
X-414098Y31412993D01*
X-469884Y31609064D01*
X-469887Y31609070D01*
X-560755Y31791557D01*
X-683609Y31954243D01*
X-834261Y32091579D01*
X-1007585Y32198898D01*
X-1197679Y32272540D01*
X-1375000Y32305688D01*
X-1375000Y31694145D01*
X-1434174Y31710000D01*
X-1565826Y31710000D01*
X-1625000Y31694145D01*
X-1625000Y32305688D01*
X-1802322Y32272540D01*
X-1992416Y32198898D01*
X-2165740Y32091579D01*
X-2316392Y31954243D01*
X-2439246Y31791557D01*
X-2530114Y31609070D01*
X-2530117Y31609064D01*
X-2585903Y31412993D01*
X-2585903Y31412990D01*
X-2593131Y31335001D01*
X-3500000Y31335001D01*
X-3500000Y32885178D01*
X-2500501Y32885178D01*
X-2491769Y32841283D01*
X-2491768Y32841279D01*
X-2491767Y32841278D01*
X-2458504Y32791496D01*
X-2408722Y32758233D01*
X-2408719Y32758233D01*
X-2408718Y32758232D01*
X-2364823Y32749500D01*
X-2364820Y32749500D01*
X-635178Y32749500D01*
X-591283Y32758232D01*
X-591283Y32758233D01*
X-591278Y32758233D01*
X-541496Y32791496D01*
X-508233Y32841278D01*
X-499500Y32885180D01*
X-499500Y34614820D01*
X-499500Y34614823D01*
X-508232Y34658718D01*
X-508233Y34658719D01*
X-508233Y34658722D01*
X-541496Y34708504D01*
X-541497Y34708505D01*
X-591276Y34741766D01*
X-591283Y34741769D01*
X-635178Y34750500D01*
X-635180Y34750500D01*
X-2364820Y34750500D01*
X-2364822Y34750500D01*
X-2408718Y34741769D01*
X-2408725Y34741766D01*
X-2458504Y34708505D01*
X-2458505Y34708504D01*
X-2491766Y34658725D01*
X-2491769Y34658718D01*
X-2500500Y34614823D01*
X-2500500Y34614820D01*
X-2500500Y32885180D01*
X-2500500Y32885178D01*
X-2500501Y32885178D01*
X-3500000Y32885178D01*
X-3500000Y38901578D01*
X-1250500Y38901578D01*
X-1219710Y38707174D01*
X-1158883Y38519971D01*
X-1069524Y38344595D01*
X-953828Y38185354D01*
X-814646Y38046172D01*
X-655405Y37930476D01*
X-572545Y37888257D01*
X-480030Y37841118D01*
X-480028Y37841118D01*
X-480025Y37841116D01*
X-379683Y37808513D01*
X-292827Y37780291D01*
X-98422Y37749500D01*
X-98417Y37749500D01*
X98422Y37749500D01*
X292826Y37780291D01*
X480025Y37841116D01*
X655405Y37930476D01*
X814646Y38046172D01*
X953828Y38185354D01*
X1069524Y38344595D01*
X1158884Y38519975D01*
X1219709Y38707174D01*
X1250500Y38901578D01*
X1250500Y39098423D01*
X1219709Y39292827D01*
X1158882Y39480030D01*
X1069523Y39655406D01*
X953828Y39814646D01*
X814646Y39953828D01*
X655405Y40069524D01*
X480029Y40158883D01*
X292826Y40219710D01*
X98422Y40250500D01*
X98417Y40250500D01*
X-98417Y40250500D01*
X-98422Y40250500D01*
X-292827Y40219710D01*
X-480030Y40158883D01*
X-655406Y40069524D01*
X-746259Y40003515D01*
X-814646Y39953828D01*
X-814648Y39953826D01*
X-814649Y39953826D01*
X-953826Y39814649D01*
X-953826Y39814648D01*
X-953828Y39814646D01*
X-1003515Y39746259D01*
X-1069524Y39655406D01*
X-1158883Y39480030D01*
X-1219710Y39292827D01*
X-1250500Y39098423D01*
X-1250500Y38901578D01*
X-3500000Y38901578D01*
X-3500000Y38999219D01*
X-3499989Y39000841D01*
X-3497677Y39177621D01*
X-3497010Y39188938D01*
X-3459959Y39541449D01*
X-3457929Y39554259D01*
X-3436429Y39655406D01*
X-3384411Y39900136D01*
X-3381053Y39912666D01*
X-3330086Y40069524D01*
X-3271780Y40248972D01*
X-3267131Y40261083D01*
X-3123298Y40584140D01*
X-3117421Y40595673D01*
X-2940603Y40901931D01*
X-2933549Y40912793D01*
X-2725689Y41198888D01*
X-2717542Y41208949D01*
X-2480912Y41471753D01*
X-2471753Y41480912D01*
X-2208949Y41717542D01*
X-2198888Y41725689D01*
X-1912793Y41933549D01*
X-1901931Y41940603D01*
X-1595673Y42117421D01*
X-1584140Y42123298D01*
X-1261077Y42267134D01*
X-1248972Y42271780D01*
X-912660Y42381055D01*
X-900136Y42384411D01*
X-554250Y42457931D01*
X-541449Y42459959D01*
X-188938Y42497010D01*
X-177621Y42497677D01*
X-841Y42499990D01*
X781Y42500000D01*
X7064000Y42500000D01*
X7131039Y42480315D01*
G37*
%TD.AperFunction*%
%TD*%
M02*
