%TF.GenerationSoftware,KiCad,Pcbnew,7.0.10*%
%TF.CreationDate,2024-01-28T17:09:24+00:00*%
%TF.ProjectId,Microll,4d696372-6f6c-46c2-9e6b-696361645f70,rev?*%
%TF.SameCoordinates,PX6422c40PY7f13bd0*%
%TF.FileFunction,Paste,Top*%
%TF.FilePolarity,Positive*%
%FSLAX46Y46*%
G04 Gerber Fmt 4.6, Leading zero omitted, Abs format (unit mm)*
G04 Created by KiCad (PCBNEW 7.0.10) date 2024-01-28 17:09:24*
%MOMM*%
%LPD*%
G01*
G04 APERTURE LIST*
G04 Aperture macros list*
%AMRoundRect*
0 Rectangle with rounded corners*
0 $1 Rounding radius*
0 $2 $3 $4 $5 $6 $7 $8 $9 X,Y pos of 4 corners*
0 Add a 4 corners polygon primitive as box body*
4,1,4,$2,$3,$4,$5,$6,$7,$8,$9,$2,$3,0*
0 Add four circle primitives for the rounded corners*
1,1,$1+$1,$2,$3*
1,1,$1+$1,$4,$5*
1,1,$1+$1,$6,$7*
1,1,$1+$1,$8,$9*
0 Add four rect primitives between the rounded corners*
20,1,$1+$1,$2,$3,$4,$5,0*
20,1,$1+$1,$4,$5,$6,$7,0*
20,1,$1+$1,$6,$7,$8,$9,0*
20,1,$1+$1,$8,$9,$2,$3,0*%
%AMOutline5P*
0 Free polygon, 5 corners , with rotation*
0 The origin of the aperture is its center*
0 number of corners: always 5*
0 $1 to $10 corner X, Y*
0 $11 Rotation angle, in degrees counterclockwise*
0 create outline with 5 corners*
4,1,5,$1,$2,$3,$4,$5,$6,$7,$8,$9,$10,$1,$2,$11*%
%AMOutline6P*
0 Free polygon, 6 corners , with rotation*
0 The origin of the aperture is its center*
0 number of corners: always 6*
0 $1 to $12 corner X, Y*
0 $13 Rotation angle, in degrees counterclockwise*
0 create outline with 6 corners*
4,1,6,$1,$2,$3,$4,$5,$6,$7,$8,$9,$10,$11,$12,$1,$2,$13*%
%AMOutline7P*
0 Free polygon, 7 corners , with rotation*
0 The origin of the aperture is its center*
0 number of corners: always 7*
0 $1 to $14 corner X, Y*
0 $15 Rotation angle, in degrees counterclockwise*
0 create outline with 7 corners*
4,1,7,$1,$2,$3,$4,$5,$6,$7,$8,$9,$10,$11,$12,$13,$14,$1,$2,$15*%
%AMOutline8P*
0 Free polygon, 8 corners , with rotation*
0 The origin of the aperture is its center*
0 number of corners: always 8*
0 $1 to $16 corner X, Y*
0 $17 Rotation angle, in degrees counterclockwise*
0 create outline with 8 corners*
4,1,8,$1,$2,$3,$4,$5,$6,$7,$8,$9,$10,$11,$12,$13,$14,$15,$16,$1,$2,$17*%
%AMFreePoly0*
4,1,18,-0.275000,0.075000,-0.269291,0.103701,-0.253033,0.128033,-0.228701,0.144291,-0.200000,0.150000,0.200000,0.150000,0.228701,0.144291,0.253033,0.128033,0.269291,0.103701,0.275000,0.075000,0.275000,-0.075000,0.200000,-0.150000,-0.200000,-0.150000,-0.228701,-0.144291,-0.253033,-0.128033,-0.269291,-0.103701,-0.275000,-0.075000,-0.275000,0.075000,-0.275000,0.075000,$1*%
G04 Aperture macros list end*
%ADD10RoundRect,0.225000X-0.525000X-0.225000X0.525000X-0.225000X0.525000X0.225000X-0.525000X0.225000X0*%
%ADD11RoundRect,0.175000X-0.175000X-0.175000X0.175000X-0.175000X0.175000X0.175000X-0.175000X0.175000X0*%
%ADD12RoundRect,0.250000X0.250000X0.475000X-0.250000X0.475000X-0.250000X-0.475000X0.250000X-0.475000X0*%
%ADD13RoundRect,0.135000X0.135000X0.185000X-0.135000X0.185000X-0.135000X-0.185000X0.135000X-0.185000X0*%
%ADD14RoundRect,0.140000X0.170000X-0.140000X0.170000X0.140000X-0.170000X0.140000X-0.170000X-0.140000X0*%
%ADD15R,0.300000X0.700000*%
%ADD16R,1.000000X0.700000*%
%ADD17RoundRect,0.140000X0.140000X0.170000X-0.140000X0.170000X-0.140000X-0.170000X0.140000X-0.170000X0*%
%ADD18RoundRect,0.172500X0.262500X0.172500X-0.262500X0.172500X-0.262500X-0.172500X0.262500X-0.172500X0*%
%ADD19RoundRect,0.093750X0.093750X0.106250X-0.093750X0.106250X-0.093750X-0.106250X0.093750X-0.106250X0*%
%ADD20R,0.375000X0.500000*%
%ADD21R,0.300000X0.650000*%
%ADD22RoundRect,0.135000X0.185000X-0.135000X0.185000X0.135000X-0.185000X0.135000X-0.185000X-0.135000X0*%
%ADD23RoundRect,0.300000X0.300000X0.450000X-0.300000X0.450000X-0.300000X-0.450000X0.300000X-0.450000X0*%
%ADD24FreePoly0,180.000000*%
%ADD25RoundRect,0.075000X0.200000X0.075000X-0.200000X0.075000X-0.200000X-0.075000X0.200000X-0.075000X0*%
%ADD26RoundRect,0.075000X-0.075000X0.200000X-0.075000X-0.200000X0.075000X-0.200000X0.075000X0.200000X0*%
%ADD27RoundRect,0.075000X-0.200000X-0.075000X0.200000X-0.075000X0.200000X0.075000X-0.200000X0.075000X0*%
%ADD28Outline5P,-2.800000X2.520000X-2.520000X2.800000X2.800000X2.800000X2.800000X-2.800000X-2.800000X-2.800000X180.000000*%
%ADD29RoundRect,0.140000X-0.140000X-0.170000X0.140000X-0.170000X0.140000X0.170000X-0.140000X0.170000X0*%
%ADD30R,0.500000X0.850000*%
%ADD31RoundRect,0.087500X-0.225000X-0.087500X0.225000X-0.087500X0.225000X0.087500X-0.225000X0.087500X0*%
%ADD32RoundRect,0.087500X-0.087500X-0.225000X0.087500X-0.225000X0.087500X0.225000X-0.087500X0.225000X0*%
G04 APERTURE END LIST*
D10*
%TO.C,U1*%
X6200000Y33550000D03*
X6200000Y32050000D03*
X6200000Y30550000D03*
X6200000Y29050000D03*
X6200000Y27550000D03*
X6200000Y26050000D03*
X6200000Y24550000D03*
X6200000Y23050000D03*
X6200000Y21550000D03*
X23700000Y21550000D03*
X23700000Y23050000D03*
X23700000Y24550000D03*
X23700000Y26050000D03*
X23700000Y27550000D03*
X23700000Y29050000D03*
X23700000Y30550000D03*
X23700000Y32050000D03*
X23700000Y33550000D03*
D11*
X14450000Y28500000D03*
X14450000Y27400000D03*
X14450000Y26300000D03*
X15550000Y28500000D03*
X15550000Y27400000D03*
X15550000Y26300000D03*
X16650000Y28500000D03*
X16650000Y27400000D03*
X16650000Y26300000D03*
%TD*%
D12*
%TO.C,C4*%
X14550000Y12150000D03*
X12650000Y12150000D03*
%TD*%
D13*
%TO.C,R3*%
X13310000Y3550000D03*
X12290000Y3550000D03*
%TD*%
D14*
%TO.C,C1*%
X5500000Y17490000D03*
X5500000Y18450000D03*
%TD*%
D13*
%TO.C,R2*%
X13310000Y4750000D03*
X12290000Y4750000D03*
%TD*%
D15*
%TO.C,J4*%
X18750000Y5035000D03*
X19250000Y5035000D03*
X19750000Y5035000D03*
X20250000Y5035000D03*
X20750000Y5035000D03*
X21250000Y5035000D03*
X22250000Y5035000D03*
X22750000Y5035000D03*
X23250000Y5035000D03*
X23750000Y5035000D03*
X24250000Y5035000D03*
X24750000Y5035000D03*
D16*
X24850000Y3735000D03*
D15*
X24000000Y3735000D03*
X23500000Y3735000D03*
X23000000Y3735000D03*
X22500000Y3735000D03*
X22000000Y3735000D03*
X21500000Y3735000D03*
X21000000Y3735000D03*
X20500000Y3735000D03*
X20000000Y3735000D03*
X19500000Y3735000D03*
D16*
X18650000Y3735000D03*
%TD*%
D17*
%TO.C,C6*%
X14300000Y14050000D03*
X13340000Y14050000D03*
%TD*%
D14*
%TO.C,C5*%
X13510000Y7770000D03*
X13510000Y8730000D03*
%TD*%
%TO.C,C2*%
X9700000Y17470000D03*
X9700000Y18430000D03*
%TD*%
%TO.C,C3*%
X12010000Y7750000D03*
X12010000Y8710000D03*
%TD*%
D18*
%TO.C,U2*%
X7650000Y17832500D03*
X7650000Y18632500D03*
D19*
X8537500Y17582500D03*
X8537500Y18232500D03*
X8537500Y18882500D03*
X6762500Y18882500D03*
X6762500Y18232500D03*
X6762500Y17582500D03*
%TD*%
D20*
%TO.C,U4*%
X22287500Y10100000D03*
D21*
X21750000Y10175000D03*
D20*
X21212500Y10100000D03*
X21212500Y8400000D03*
D21*
X21750000Y8325000D03*
D20*
X22287500Y8400000D03*
%TD*%
D22*
%TO.C,R4*%
X12162500Y15990000D03*
X12162500Y17010000D03*
%TD*%
D13*
%TO.C,R1*%
X13310000Y6050000D03*
X12290000Y6050000D03*
%TD*%
D23*
%TO.C,U5*%
X25250000Y12500000D03*
X22750000Y12500000D03*
X20250000Y12500000D03*
X25250000Y19000000D03*
X22750000Y19000000D03*
X20250000Y19000000D03*
%TD*%
D24*
%TO.C,U3*%
X10013197Y5311803D03*
D25*
X10013197Y5811803D03*
X10013197Y6311803D03*
X10013197Y6811803D03*
X10013197Y7311803D03*
X10013197Y7811803D03*
X10013197Y8311803D03*
X10013197Y8811803D03*
X10013197Y9311803D03*
X10013197Y9811803D03*
X10013197Y10311803D03*
X10013197Y10811803D03*
D26*
X9388197Y11436803D03*
X8888197Y11436803D03*
X8388197Y11436803D03*
X7888197Y11436803D03*
X7388197Y11436803D03*
X6888197Y11436803D03*
X6388197Y11436803D03*
X5888197Y11436803D03*
X5388197Y11436803D03*
X4888197Y11436803D03*
X4388197Y11436803D03*
X3888197Y11436803D03*
D27*
X3263197Y10811803D03*
X3263197Y10311803D03*
X3263197Y9811803D03*
X3263197Y9311803D03*
X3263197Y8811803D03*
X3263197Y8311803D03*
X3263197Y7811803D03*
X3263197Y7311803D03*
X3263197Y6811803D03*
X3263197Y6311803D03*
X3263197Y5811803D03*
X3263197Y5311803D03*
D26*
X3888197Y4686803D03*
X4388197Y4686803D03*
X4888197Y4686803D03*
X5388197Y4686803D03*
X5888197Y4686803D03*
X6388197Y4686803D03*
X6888197Y4686803D03*
X7388197Y4686803D03*
X7888197Y4686803D03*
X8388197Y4686803D03*
X8888197Y4686803D03*
X9388197Y4711803D03*
D28*
X6638197Y8061803D03*
%TD*%
D29*
%TO.C,C7*%
X15720000Y14050000D03*
X16680000Y14050000D03*
%TD*%
D30*
%TO.C,D1*%
X18800000Y8075000D03*
X18800000Y9825000D03*
X17800000Y9825000D03*
X17800000Y8075000D03*
%TD*%
D31*
%TO.C,U6*%
X13837500Y17250000D03*
X13837500Y16750000D03*
X13837500Y16250000D03*
X13837500Y15750000D03*
D32*
X14500000Y15587500D03*
X15000000Y15587500D03*
X15500000Y15587500D03*
D31*
X16162500Y15750000D03*
X16162500Y16250000D03*
X16162500Y16750000D03*
X16162500Y17250000D03*
D32*
X15500000Y17412500D03*
X15000000Y17412500D03*
X14500000Y17412500D03*
%TD*%
D13*
%TO.C,R5*%
X15672500Y19500000D03*
X14652500Y19500000D03*
%TD*%
M02*
