M48
; DRILL file {KiCad 8.0.4} date 2024-09-07T18:39:41+0100
; FORMAT={-:-/ absolute / inch / decimal}
; #@! TF.CreationDate,2024-09-07T18:39:41+01:00
; #@! TF.GenerationSoftware,Kicad,Pcbnew,8.0.4
; #@! TF.FileFunction,Plated,1,2,PTH
FMAT,2
INCH
; #@! TA.AperFunction,Plated,PTH,ViaDrill
T1C0.0079
; #@! TA.AperFunction,Plated,PTH,ComponentDrill
T2C0.0079
; #@! TA.AperFunction,Plated,PTH,ViaDrill
T3C0.0157
; #@! TA.AperFunction,Plated,PTH,ComponentDrill
T4C0.0236
; #@! TA.AperFunction,Plated,PTH,ComponentDrill
T5C0.0394
%
G90
G05
T1
X0.0787Y0.4724
X0.126Y0.3228
X0.1378Y0.1969
X0.1772Y0.6999
X0.2146Y0.2362
X0.2274Y0.6666
X0.2274Y0.5118
X0.2343Y0.4252
X0.2461Y1.3287
X0.2657Y0.3248
X0.2894Y0.2402
X0.2933Y0.8449
X0.3022Y0.5217
X0.3346Y0.9154
X0.3533Y0.3248
X0.3661Y0.6496
X0.3937Y0.6496
X0.3957Y0.7499
X0.4016Y0.8445
X0.4016Y0.5315
X0.437Y0.2657
X0.4431Y0.5725
X0.4544Y0.591
X0.4691Y0.6068
X0.4774Y0.9941
X0.4823Y0.624
X0.4953Y0.7874
X0.5315Y0.5404
X0.5374Y0.7156
X0.5374Y0.6191
X0.5512Y0.5581
X0.5557Y0.5792
X0.5568Y0.6009
X0.689Y0.7283
X0.689Y0.7087
X0.6988Y0.748
X0.6988Y0.6791
X0.7238Y0.5821
X0.7244Y0.4685
X0.7352Y0.6005
X0.7702Y0.5644
X0.9213Y0.685
X0.9528Y0.4528
X0.9528Y0.685
X0.9528Y0.4311
X0.9557Y0.2249
X0.9744Y0.4528
X0.9744Y0.2138
X1.0098Y0.3347
X1.0118Y0.313
X1.063Y0.3642
X1.0768Y0.9941
X1.1033Y0.9144
X1.122Y0.8858
T2
X0.1299Y0.2638
X0.1732Y0.2638
X0.6176Y1.1673
X0.6176Y1.124
X0.6393Y1.189
X0.6393Y1.1457
X0.6393Y1.1024
X0.6609Y1.1673
X0.6609Y1.124
X0.6826Y1.189
X0.6826Y1.1457
X0.6826Y1.1024
X0.7043Y1.1673
X0.7043Y1.124
T3
X0.1235Y0.0871
X0.1754Y0.1378
X1.063Y0.4528
X1.063Y0.2067
T5
X-0.0591Y1.3287
X-0.0591Y1.2287
X-0.0591Y1.1287
X-0.0591Y1.0287
X-0.0591Y0.9287
X-0.0591Y0.8287
X-0.0591Y0.7287
X-0.0591Y0.6287
X-0.0591Y0.5287
X-0.0591Y0.4287
X-0.0591Y0.3287
X-0.0591Y0.2287
X0.1811Y0.0409
X0.1811Y-0.0591
X0.2811Y0.0409
X0.2811Y-0.0591
X0.3811Y0.0409
X0.3811Y-0.0591
X0.4811Y0.0409
X0.4811Y-0.0591
X0.5811Y0.0409
X0.5811Y-0.0591
X0.6811Y0.0409
X0.6811Y-0.0591
X0.7811Y0.0409
X0.7811Y-0.0591
X0.8811Y0.0409
X0.8811Y-0.0591
X0.9811Y0.0409
X0.9811Y-0.0591
X1.0811Y0.0409
X1.0811Y-0.0591
X1.3189Y1.3287
X1.3189Y1.2287
X1.3189Y1.1287
X1.3189Y1.0287
X1.3189Y0.9287
X1.3189Y0.8287
X1.3189Y0.7287
X1.3189Y0.6287
T4
G00X1.1049Y0.5051
M15
G01X1.1482Y0.5051
M16
G05
G00X1.1049Y0.1649
M15
G01X1.1482Y0.1649
M16
G05
G00X1.2754Y0.5051
M15
G01X1.3069Y0.5051
M16
G05
G00X1.2754Y0.1649
M15
G01X1.3069Y0.1649
M16
G05
M30
