%TF.GenerationSoftware,KiCad,Pcbnew,8.0.4*%
%TF.CreationDate,2024-09-07T18:39:45+01:00*%
%TF.ProjectId,Microll,4d696372-6f6c-46c2-9e6b-696361645f70,rev?*%
%TF.SameCoordinates,PX564eba0PY53724e0*%
%TF.FileFunction,Legend,Bot*%
%TF.FilePolarity,Positive*%
%FSLAX46Y46*%
G04 Gerber Fmt 4.6, Leading zero omitted, Abs format (unit mm)*
G04 Created by KiCad (PCBNEW 8.0.4) date 2024-09-07 18:39:45*
%MOMM*%
%LPD*%
G01*
G04 APERTURE LIST*
%ADD10C,0.150000*%
%ADD11C,0.100000*%
G04 APERTURE END LIST*
D10*
X3889411Y24332562D02*
X3984649Y24380181D01*
X3984649Y24380181D02*
X4127506Y24380181D01*
X4127506Y24380181D02*
X4270363Y24332562D01*
X4270363Y24332562D02*
X4365601Y24237324D01*
X4365601Y24237324D02*
X4413220Y24142086D01*
X4413220Y24142086D02*
X4460839Y23951610D01*
X4460839Y23951610D02*
X4460839Y23808753D01*
X4460839Y23808753D02*
X4413220Y23618277D01*
X4413220Y23618277D02*
X4365601Y23523039D01*
X4365601Y23523039D02*
X4270363Y23427800D01*
X4270363Y23427800D02*
X4127506Y23380181D01*
X4127506Y23380181D02*
X4032268Y23380181D01*
X4032268Y23380181D02*
X3889411Y23427800D01*
X3889411Y23427800D02*
X3841792Y23475420D01*
X3841792Y23475420D02*
X3841792Y23808753D01*
X3841792Y23808753D02*
X4032268Y23808753D01*
X3413220Y23380181D02*
X3413220Y24380181D01*
X3413220Y24380181D02*
X3032268Y24380181D01*
X3032268Y24380181D02*
X2937030Y24332562D01*
X2937030Y24332562D02*
X2889411Y24284943D01*
X2889411Y24284943D02*
X2841792Y24189705D01*
X2841792Y24189705D02*
X2841792Y24046848D01*
X2841792Y24046848D02*
X2889411Y23951610D01*
X2889411Y23951610D02*
X2937030Y23903991D01*
X2937030Y23903991D02*
X3032268Y23856372D01*
X3032268Y23856372D02*
X3413220Y23856372D01*
X2413220Y23380181D02*
X2413220Y24380181D01*
X1746554Y24380181D02*
X1556078Y24380181D01*
X1556078Y24380181D02*
X1460840Y24332562D01*
X1460840Y24332562D02*
X1365602Y24237324D01*
X1365602Y24237324D02*
X1317983Y24046848D01*
X1317983Y24046848D02*
X1317983Y23713515D01*
X1317983Y23713515D02*
X1365602Y23523039D01*
X1365602Y23523039D02*
X1460840Y23427800D01*
X1460840Y23427800D02*
X1556078Y23380181D01*
X1556078Y23380181D02*
X1746554Y23380181D01*
X1746554Y23380181D02*
X1841792Y23427800D01*
X1841792Y23427800D02*
X1937030Y23523039D01*
X1937030Y23523039D02*
X1984649Y23713515D01*
X1984649Y23713515D02*
X1984649Y24046848D01*
X1984649Y24046848D02*
X1937030Y24237324D01*
X1937030Y24237324D02*
X1841792Y24332562D01*
X1841792Y24332562D02*
X1746554Y24380181D01*
X460840Y24380181D02*
X651316Y24380181D01*
X651316Y24380181D02*
X746554Y24332562D01*
X746554Y24332562D02*
X794173Y24284943D01*
X794173Y24284943D02*
X889411Y24142086D01*
X889411Y24142086D02*
X937030Y23951610D01*
X937030Y23951610D02*
X937030Y23570658D01*
X937030Y23570658D02*
X889411Y23475420D01*
X889411Y23475420D02*
X841792Y23427800D01*
X841792Y23427800D02*
X746554Y23380181D01*
X746554Y23380181D02*
X556078Y23380181D01*
X556078Y23380181D02*
X460840Y23427800D01*
X460840Y23427800D02*
X413221Y23475420D01*
X413221Y23475420D02*
X365602Y23570658D01*
X365602Y23570658D02*
X365602Y23808753D01*
X365602Y23808753D02*
X413221Y23903991D01*
X413221Y23903991D02*
X460840Y23951610D01*
X460840Y23951610D02*
X556078Y23999229D01*
X556078Y23999229D02*
X746554Y23999229D01*
X746554Y23999229D02*
X841792Y23951610D01*
X841792Y23951610D02*
X889411Y23903991D01*
X889411Y23903991D02*
X937030Y23808753D01*
X3889411Y16582562D02*
X3984649Y16630181D01*
X3984649Y16630181D02*
X4127506Y16630181D01*
X4127506Y16630181D02*
X4270363Y16582562D01*
X4270363Y16582562D02*
X4365601Y16487324D01*
X4365601Y16487324D02*
X4413220Y16392086D01*
X4413220Y16392086D02*
X4460839Y16201610D01*
X4460839Y16201610D02*
X4460839Y16058753D01*
X4460839Y16058753D02*
X4413220Y15868277D01*
X4413220Y15868277D02*
X4365601Y15773039D01*
X4365601Y15773039D02*
X4270363Y15677800D01*
X4270363Y15677800D02*
X4127506Y15630181D01*
X4127506Y15630181D02*
X4032268Y15630181D01*
X4032268Y15630181D02*
X3889411Y15677800D01*
X3889411Y15677800D02*
X3841792Y15725420D01*
X3841792Y15725420D02*
X3841792Y16058753D01*
X3841792Y16058753D02*
X4032268Y16058753D01*
X3413220Y15630181D02*
X3413220Y16630181D01*
X3413220Y16630181D02*
X3032268Y16630181D01*
X3032268Y16630181D02*
X2937030Y16582562D01*
X2937030Y16582562D02*
X2889411Y16534943D01*
X2889411Y16534943D02*
X2841792Y16439705D01*
X2841792Y16439705D02*
X2841792Y16296848D01*
X2841792Y16296848D02*
X2889411Y16201610D01*
X2889411Y16201610D02*
X2937030Y16153991D01*
X2937030Y16153991D02*
X3032268Y16106372D01*
X3032268Y16106372D02*
X3413220Y16106372D01*
X2413220Y15630181D02*
X2413220Y16630181D01*
X1746554Y16630181D02*
X1556078Y16630181D01*
X1556078Y16630181D02*
X1460840Y16582562D01*
X1460840Y16582562D02*
X1365602Y16487324D01*
X1365602Y16487324D02*
X1317983Y16296848D01*
X1317983Y16296848D02*
X1317983Y15963515D01*
X1317983Y15963515D02*
X1365602Y15773039D01*
X1365602Y15773039D02*
X1460840Y15677800D01*
X1460840Y15677800D02*
X1556078Y15630181D01*
X1556078Y15630181D02*
X1746554Y15630181D01*
X1746554Y15630181D02*
X1841792Y15677800D01*
X1841792Y15677800D02*
X1937030Y15773039D01*
X1937030Y15773039D02*
X1984649Y15963515D01*
X1984649Y15963515D02*
X1984649Y16296848D01*
X1984649Y16296848D02*
X1937030Y16487324D01*
X1937030Y16487324D02*
X1841792Y16582562D01*
X1841792Y16582562D02*
X1746554Y16630181D01*
X841792Y15630181D02*
X651316Y15630181D01*
X651316Y15630181D02*
X556078Y15677800D01*
X556078Y15677800D02*
X508459Y15725420D01*
X508459Y15725420D02*
X413221Y15868277D01*
X413221Y15868277D02*
X365602Y16058753D01*
X365602Y16058753D02*
X365602Y16439705D01*
X365602Y16439705D02*
X413221Y16534943D01*
X413221Y16534943D02*
X460840Y16582562D01*
X460840Y16582562D02*
X556078Y16630181D01*
X556078Y16630181D02*
X746554Y16630181D01*
X746554Y16630181D02*
X841792Y16582562D01*
X841792Y16582562D02*
X889411Y16534943D01*
X889411Y16534943D02*
X937030Y16439705D01*
X937030Y16439705D02*
X937030Y16201610D01*
X937030Y16201610D02*
X889411Y16106372D01*
X889411Y16106372D02*
X841792Y16058753D01*
X841792Y16058753D02*
X746554Y16011134D01*
X746554Y16011134D02*
X556078Y16011134D01*
X556078Y16011134D02*
X460840Y16058753D01*
X460840Y16058753D02*
X413221Y16106372D01*
X413221Y16106372D02*
X365602Y16201610D01*
X3889411Y21832562D02*
X3984649Y21880181D01*
X3984649Y21880181D02*
X4127506Y21880181D01*
X4127506Y21880181D02*
X4270363Y21832562D01*
X4270363Y21832562D02*
X4365601Y21737324D01*
X4365601Y21737324D02*
X4413220Y21642086D01*
X4413220Y21642086D02*
X4460839Y21451610D01*
X4460839Y21451610D02*
X4460839Y21308753D01*
X4460839Y21308753D02*
X4413220Y21118277D01*
X4413220Y21118277D02*
X4365601Y21023039D01*
X4365601Y21023039D02*
X4270363Y20927800D01*
X4270363Y20927800D02*
X4127506Y20880181D01*
X4127506Y20880181D02*
X4032268Y20880181D01*
X4032268Y20880181D02*
X3889411Y20927800D01*
X3889411Y20927800D02*
X3841792Y20975420D01*
X3841792Y20975420D02*
X3841792Y21308753D01*
X3841792Y21308753D02*
X4032268Y21308753D01*
X3413220Y20880181D02*
X3413220Y21880181D01*
X3413220Y21880181D02*
X3032268Y21880181D01*
X3032268Y21880181D02*
X2937030Y21832562D01*
X2937030Y21832562D02*
X2889411Y21784943D01*
X2889411Y21784943D02*
X2841792Y21689705D01*
X2841792Y21689705D02*
X2841792Y21546848D01*
X2841792Y21546848D02*
X2889411Y21451610D01*
X2889411Y21451610D02*
X2937030Y21403991D01*
X2937030Y21403991D02*
X3032268Y21356372D01*
X3032268Y21356372D02*
X3413220Y21356372D01*
X2413220Y20880181D02*
X2413220Y21880181D01*
X1746554Y21880181D02*
X1556078Y21880181D01*
X1556078Y21880181D02*
X1460840Y21832562D01*
X1460840Y21832562D02*
X1365602Y21737324D01*
X1365602Y21737324D02*
X1317983Y21546848D01*
X1317983Y21546848D02*
X1317983Y21213515D01*
X1317983Y21213515D02*
X1365602Y21023039D01*
X1365602Y21023039D02*
X1460840Y20927800D01*
X1460840Y20927800D02*
X1556078Y20880181D01*
X1556078Y20880181D02*
X1746554Y20880181D01*
X1746554Y20880181D02*
X1841792Y20927800D01*
X1841792Y20927800D02*
X1937030Y21023039D01*
X1937030Y21023039D02*
X1984649Y21213515D01*
X1984649Y21213515D02*
X1984649Y21546848D01*
X1984649Y21546848D02*
X1937030Y21737324D01*
X1937030Y21737324D02*
X1841792Y21832562D01*
X1841792Y21832562D02*
X1746554Y21880181D01*
X984649Y21880181D02*
X317983Y21880181D01*
X317983Y21880181D02*
X746554Y20880181D01*
X2913220Y10380181D02*
X2913220Y11380181D01*
X2913220Y11380181D02*
X2532268Y11380181D01*
X2532268Y11380181D02*
X2437030Y11332562D01*
X2437030Y11332562D02*
X2389411Y11284943D01*
X2389411Y11284943D02*
X2341792Y11189705D01*
X2341792Y11189705D02*
X2341792Y11046848D01*
X2341792Y11046848D02*
X2389411Y10951610D01*
X2389411Y10951610D02*
X2437030Y10903991D01*
X2437030Y10903991D02*
X2532268Y10856372D01*
X2532268Y10856372D02*
X2913220Y10856372D01*
X1579887Y10903991D02*
X1437030Y10856372D01*
X1437030Y10856372D02*
X1389411Y10808753D01*
X1389411Y10808753D02*
X1341792Y10713515D01*
X1341792Y10713515D02*
X1341792Y10570658D01*
X1341792Y10570658D02*
X1389411Y10475420D01*
X1389411Y10475420D02*
X1437030Y10427800D01*
X1437030Y10427800D02*
X1532268Y10380181D01*
X1532268Y10380181D02*
X1913220Y10380181D01*
X1913220Y10380181D02*
X1913220Y11380181D01*
X1913220Y11380181D02*
X1579887Y11380181D01*
X1579887Y11380181D02*
X1484649Y11332562D01*
X1484649Y11332562D02*
X1437030Y11284943D01*
X1437030Y11284943D02*
X1389411Y11189705D01*
X1389411Y11189705D02*
X1389411Y11094467D01*
X1389411Y11094467D02*
X1437030Y10999229D01*
X1437030Y10999229D02*
X1484649Y10951610D01*
X1484649Y10951610D02*
X1579887Y10903991D01*
X1579887Y10903991D02*
X1913220Y10903991D01*
X1008458Y11380181D02*
X389411Y11380181D01*
X389411Y11380181D02*
X722744Y10999229D01*
X722744Y10999229D02*
X579887Y10999229D01*
X579887Y10999229D02*
X484649Y10951610D01*
X484649Y10951610D02*
X437030Y10903991D01*
X437030Y10903991D02*
X389411Y10808753D01*
X389411Y10808753D02*
X389411Y10570658D01*
X389411Y10570658D02*
X437030Y10475420D01*
X437030Y10475420D02*
X484649Y10427800D01*
X484649Y10427800D02*
X579887Y10380181D01*
X579887Y10380181D02*
X865601Y10380181D01*
X865601Y10380181D02*
X960839Y10427800D01*
X960839Y10427800D02*
X1008458Y10475420D01*
D11*
X25636591Y-2683609D02*
X25469925Y-3183609D01*
X25469925Y-3183609D02*
X25303258Y-2683609D01*
X25255640Y-3231228D02*
X24874687Y-3231228D01*
X24755640Y-3183609D02*
X24755640Y-2683609D01*
X24517545Y-3183609D02*
X24517545Y-2683609D01*
X24517545Y-2683609D02*
X24231831Y-3183609D01*
X24231831Y-3183609D02*
X24231831Y-2683609D01*
X23065163Y-2683609D02*
X23065163Y-3088371D01*
X23065163Y-3088371D02*
X23041353Y-3135990D01*
X23041353Y-3135990D02*
X23017544Y-3159800D01*
X23017544Y-3159800D02*
X22969925Y-3183609D01*
X22969925Y-3183609D02*
X22874687Y-3183609D01*
X22874687Y-3183609D02*
X22827068Y-3159800D01*
X22827068Y-3159800D02*
X22803258Y-3135990D01*
X22803258Y-3135990D02*
X22779449Y-3088371D01*
X22779449Y-3088371D02*
X22779449Y-2683609D01*
X22660401Y-3231228D02*
X22279448Y-3231228D01*
X22231829Y-2683609D02*
X21946115Y-2683609D01*
X22088972Y-3183609D02*
X22088972Y-2683609D01*
X21827068Y-2683609D02*
X21493735Y-3183609D01*
X21493735Y-2683609D02*
X21827068Y-3183609D01*
D10*
X30639411Y31832562D02*
X30734649Y31880181D01*
X30734649Y31880181D02*
X30877506Y31880181D01*
X30877506Y31880181D02*
X31020363Y31832562D01*
X31020363Y31832562D02*
X31115601Y31737324D01*
X31115601Y31737324D02*
X31163220Y31642086D01*
X31163220Y31642086D02*
X31210839Y31451610D01*
X31210839Y31451610D02*
X31210839Y31308753D01*
X31210839Y31308753D02*
X31163220Y31118277D01*
X31163220Y31118277D02*
X31115601Y31023039D01*
X31115601Y31023039D02*
X31020363Y30927800D01*
X31020363Y30927800D02*
X30877506Y30880181D01*
X30877506Y30880181D02*
X30782268Y30880181D01*
X30782268Y30880181D02*
X30639411Y30927800D01*
X30639411Y30927800D02*
X30591792Y30975420D01*
X30591792Y30975420D02*
X30591792Y31308753D01*
X30591792Y31308753D02*
X30782268Y31308753D01*
X30163220Y30880181D02*
X30163220Y31880181D01*
X30163220Y31880181D02*
X29782268Y31880181D01*
X29782268Y31880181D02*
X29687030Y31832562D01*
X29687030Y31832562D02*
X29639411Y31784943D01*
X29639411Y31784943D02*
X29591792Y31689705D01*
X29591792Y31689705D02*
X29591792Y31546848D01*
X29591792Y31546848D02*
X29639411Y31451610D01*
X29639411Y31451610D02*
X29687030Y31403991D01*
X29687030Y31403991D02*
X29782268Y31356372D01*
X29782268Y31356372D02*
X30163220Y31356372D01*
X29163220Y30880181D02*
X29163220Y31880181D01*
X28496554Y31880181D02*
X28306078Y31880181D01*
X28306078Y31880181D02*
X28210840Y31832562D01*
X28210840Y31832562D02*
X28115602Y31737324D01*
X28115602Y31737324D02*
X28067983Y31546848D01*
X28067983Y31546848D02*
X28067983Y31213515D01*
X28067983Y31213515D02*
X28115602Y31023039D01*
X28115602Y31023039D02*
X28210840Y30927800D01*
X28210840Y30927800D02*
X28306078Y30880181D01*
X28306078Y30880181D02*
X28496554Y30880181D01*
X28496554Y30880181D02*
X28591792Y30927800D01*
X28591792Y30927800D02*
X28687030Y31023039D01*
X28687030Y31023039D02*
X28734649Y31213515D01*
X28734649Y31213515D02*
X28734649Y31546848D01*
X28734649Y31546848D02*
X28687030Y31737324D01*
X28687030Y31737324D02*
X28591792Y31832562D01*
X28591792Y31832562D02*
X28496554Y31880181D01*
X27115602Y30880181D02*
X27687030Y30880181D01*
X27401316Y30880181D02*
X27401316Y31880181D01*
X27401316Y31880181D02*
X27496554Y31737324D01*
X27496554Y31737324D02*
X27591792Y31642086D01*
X27591792Y31642086D02*
X27687030Y31594467D01*
D11*
X25077068Y2816391D02*
X25315163Y2816391D01*
X25315163Y2816391D02*
X25338972Y2578296D01*
X25338972Y2578296D02*
X25315163Y2602105D01*
X25315163Y2602105D02*
X25267544Y2625915D01*
X25267544Y2625915D02*
X25148496Y2625915D01*
X25148496Y2625915D02*
X25100877Y2602105D01*
X25100877Y2602105D02*
X25077068Y2578296D01*
X25077068Y2578296D02*
X25053258Y2530677D01*
X25053258Y2530677D02*
X25053258Y2411629D01*
X25053258Y2411629D02*
X25077068Y2364010D01*
X25077068Y2364010D02*
X25100877Y2340200D01*
X25100877Y2340200D02*
X25148496Y2316391D01*
X25148496Y2316391D02*
X25267544Y2316391D01*
X25267544Y2316391D02*
X25315163Y2340200D01*
X25315163Y2340200D02*
X25338972Y2364010D01*
X24910401Y2816391D02*
X24743735Y2316391D01*
X24743735Y2316391D02*
X24577068Y2816391D01*
X15315163Y2316391D02*
X15315163Y2816391D01*
X15315163Y2816391D02*
X15124687Y2816391D01*
X15124687Y2816391D02*
X15077068Y2792581D01*
X15077068Y2792581D02*
X15053258Y2768772D01*
X15053258Y2768772D02*
X15029449Y2721153D01*
X15029449Y2721153D02*
X15029449Y2649724D01*
X15029449Y2649724D02*
X15053258Y2602105D01*
X15053258Y2602105D02*
X15077068Y2578296D01*
X15077068Y2578296D02*
X15124687Y2554486D01*
X15124687Y2554486D02*
X15315163Y2554486D01*
X14648496Y2578296D02*
X14577068Y2554486D01*
X14577068Y2554486D02*
X14553258Y2530677D01*
X14553258Y2530677D02*
X14529449Y2483058D01*
X14529449Y2483058D02*
X14529449Y2411629D01*
X14529449Y2411629D02*
X14553258Y2364010D01*
X14553258Y2364010D02*
X14577068Y2340200D01*
X14577068Y2340200D02*
X14624687Y2316391D01*
X14624687Y2316391D02*
X14815163Y2316391D01*
X14815163Y2316391D02*
X14815163Y2816391D01*
X14815163Y2816391D02*
X14648496Y2816391D01*
X14648496Y2816391D02*
X14600877Y2792581D01*
X14600877Y2792581D02*
X14577068Y2768772D01*
X14577068Y2768772D02*
X14553258Y2721153D01*
X14553258Y2721153D02*
X14553258Y2673534D01*
X14553258Y2673534D02*
X14577068Y2625915D01*
X14577068Y2625915D02*
X14600877Y2602105D01*
X14600877Y2602105D02*
X14648496Y2578296D01*
X14648496Y2578296D02*
X14815163Y2578296D01*
X14053258Y2316391D02*
X14338972Y2316391D01*
X14196115Y2316391D02*
X14196115Y2816391D01*
X14196115Y2816391D02*
X14243734Y2744962D01*
X14243734Y2744962D02*
X14291353Y2697343D01*
X14291353Y2697343D02*
X14338972Y2673534D01*
D10*
X2639411Y31832562D02*
X2734649Y31880181D01*
X2734649Y31880181D02*
X2877506Y31880181D01*
X2877506Y31880181D02*
X3020363Y31832562D01*
X3020363Y31832562D02*
X3115601Y31737324D01*
X3115601Y31737324D02*
X3163220Y31642086D01*
X3163220Y31642086D02*
X3210839Y31451610D01*
X3210839Y31451610D02*
X3210839Y31308753D01*
X3210839Y31308753D02*
X3163220Y31118277D01*
X3163220Y31118277D02*
X3115601Y31023039D01*
X3115601Y31023039D02*
X3020363Y30927800D01*
X3020363Y30927800D02*
X2877506Y30880181D01*
X2877506Y30880181D02*
X2782268Y30880181D01*
X2782268Y30880181D02*
X2639411Y30927800D01*
X2639411Y30927800D02*
X2591792Y30975420D01*
X2591792Y30975420D02*
X2591792Y31308753D01*
X2591792Y31308753D02*
X2782268Y31308753D01*
X2163220Y30880181D02*
X2163220Y31880181D01*
X2163220Y31880181D02*
X1591792Y30880181D01*
X1591792Y30880181D02*
X1591792Y31880181D01*
X1115601Y30880181D02*
X1115601Y31880181D01*
X1115601Y31880181D02*
X877506Y31880181D01*
X877506Y31880181D02*
X734649Y31832562D01*
X734649Y31832562D02*
X639411Y31737324D01*
X639411Y31737324D02*
X591792Y31642086D01*
X591792Y31642086D02*
X544173Y31451610D01*
X544173Y31451610D02*
X544173Y31308753D01*
X544173Y31308753D02*
X591792Y31118277D01*
X591792Y31118277D02*
X639411Y31023039D01*
X639411Y31023039D02*
X734649Y30927800D01*
X734649Y30927800D02*
X877506Y30880181D01*
X877506Y30880181D02*
X1115601Y30880181D01*
X30639411Y29082562D02*
X30734649Y29130181D01*
X30734649Y29130181D02*
X30877506Y29130181D01*
X30877506Y29130181D02*
X31020363Y29082562D01*
X31020363Y29082562D02*
X31115601Y28987324D01*
X31115601Y28987324D02*
X31163220Y28892086D01*
X31163220Y28892086D02*
X31210839Y28701610D01*
X31210839Y28701610D02*
X31210839Y28558753D01*
X31210839Y28558753D02*
X31163220Y28368277D01*
X31163220Y28368277D02*
X31115601Y28273039D01*
X31115601Y28273039D02*
X31020363Y28177800D01*
X31020363Y28177800D02*
X30877506Y28130181D01*
X30877506Y28130181D02*
X30782268Y28130181D01*
X30782268Y28130181D02*
X30639411Y28177800D01*
X30639411Y28177800D02*
X30591792Y28225420D01*
X30591792Y28225420D02*
X30591792Y28558753D01*
X30591792Y28558753D02*
X30782268Y28558753D01*
X30163220Y28130181D02*
X30163220Y29130181D01*
X30163220Y29130181D02*
X29782268Y29130181D01*
X29782268Y29130181D02*
X29687030Y29082562D01*
X29687030Y29082562D02*
X29639411Y29034943D01*
X29639411Y29034943D02*
X29591792Y28939705D01*
X29591792Y28939705D02*
X29591792Y28796848D01*
X29591792Y28796848D02*
X29639411Y28701610D01*
X29639411Y28701610D02*
X29687030Y28653991D01*
X29687030Y28653991D02*
X29782268Y28606372D01*
X29782268Y28606372D02*
X30163220Y28606372D01*
X29163220Y28130181D02*
X29163220Y29130181D01*
X28496554Y29130181D02*
X28306078Y29130181D01*
X28306078Y29130181D02*
X28210840Y29082562D01*
X28210840Y29082562D02*
X28115602Y28987324D01*
X28115602Y28987324D02*
X28067983Y28796848D01*
X28067983Y28796848D02*
X28067983Y28463515D01*
X28067983Y28463515D02*
X28115602Y28273039D01*
X28115602Y28273039D02*
X28210840Y28177800D01*
X28210840Y28177800D02*
X28306078Y28130181D01*
X28306078Y28130181D02*
X28496554Y28130181D01*
X28496554Y28130181D02*
X28591792Y28177800D01*
X28591792Y28177800D02*
X28687030Y28273039D01*
X28687030Y28273039D02*
X28734649Y28463515D01*
X28734649Y28463515D02*
X28734649Y28796848D01*
X28734649Y28796848D02*
X28687030Y28987324D01*
X28687030Y28987324D02*
X28591792Y29082562D01*
X28591792Y29082562D02*
X28496554Y29130181D01*
X27687030Y29034943D02*
X27639411Y29082562D01*
X27639411Y29082562D02*
X27544173Y29130181D01*
X27544173Y29130181D02*
X27306078Y29130181D01*
X27306078Y29130181D02*
X27210840Y29082562D01*
X27210840Y29082562D02*
X27163221Y29034943D01*
X27163221Y29034943D02*
X27115602Y28939705D01*
X27115602Y28939705D02*
X27115602Y28844467D01*
X27115602Y28844467D02*
X27163221Y28701610D01*
X27163221Y28701610D02*
X27734649Y28130181D01*
X27734649Y28130181D02*
X27115602Y28130181D01*
D11*
X27803258Y2792581D02*
X27850877Y2816391D01*
X27850877Y2816391D02*
X27922306Y2816391D01*
X27922306Y2816391D02*
X27993734Y2792581D01*
X27993734Y2792581D02*
X28041353Y2744962D01*
X28041353Y2744962D02*
X28065163Y2697343D01*
X28065163Y2697343D02*
X28088972Y2602105D01*
X28088972Y2602105D02*
X28088972Y2530677D01*
X28088972Y2530677D02*
X28065163Y2435439D01*
X28065163Y2435439D02*
X28041353Y2387820D01*
X28041353Y2387820D02*
X27993734Y2340200D01*
X27993734Y2340200D02*
X27922306Y2316391D01*
X27922306Y2316391D02*
X27874687Y2316391D01*
X27874687Y2316391D02*
X27803258Y2340200D01*
X27803258Y2340200D02*
X27779449Y2364010D01*
X27779449Y2364010D02*
X27779449Y2530677D01*
X27779449Y2530677D02*
X27874687Y2530677D01*
X27565163Y2316391D02*
X27565163Y2816391D01*
X27565163Y2816391D02*
X27279449Y2316391D01*
X27279449Y2316391D02*
X27279449Y2816391D01*
X27041353Y2316391D02*
X27041353Y2816391D01*
X27041353Y2816391D02*
X26922305Y2816391D01*
X26922305Y2816391D02*
X26850877Y2792581D01*
X26850877Y2792581D02*
X26803258Y2744962D01*
X26803258Y2744962D02*
X26779448Y2697343D01*
X26779448Y2697343D02*
X26755639Y2602105D01*
X26755639Y2602105D02*
X26755639Y2530677D01*
X26755639Y2530677D02*
X26779448Y2435439D01*
X26779448Y2435439D02*
X26803258Y2387820D01*
X26803258Y2387820D02*
X26850877Y2340200D01*
X26850877Y2340200D02*
X26922305Y2316391D01*
X26922305Y2316391D02*
X27041353Y2316391D01*
X20565163Y-3183609D02*
X20565163Y-2683609D01*
X20565163Y-2683609D02*
X20374687Y-2683609D01*
X20374687Y-2683609D02*
X20327068Y-2707419D01*
X20327068Y-2707419D02*
X20303258Y-2731228D01*
X20303258Y-2731228D02*
X20279449Y-2778847D01*
X20279449Y-2778847D02*
X20279449Y-2850276D01*
X20279449Y-2850276D02*
X20303258Y-2897895D01*
X20303258Y-2897895D02*
X20327068Y-2921704D01*
X20327068Y-2921704D02*
X20374687Y-2945514D01*
X20374687Y-2945514D02*
X20565163Y-2945514D01*
X19898496Y-2921704D02*
X19827068Y-2945514D01*
X19827068Y-2945514D02*
X19803258Y-2969323D01*
X19803258Y-2969323D02*
X19779449Y-3016942D01*
X19779449Y-3016942D02*
X19779449Y-3088371D01*
X19779449Y-3088371D02*
X19803258Y-3135990D01*
X19803258Y-3135990D02*
X19827068Y-3159800D01*
X19827068Y-3159800D02*
X19874687Y-3183609D01*
X19874687Y-3183609D02*
X20065163Y-3183609D01*
X20065163Y-3183609D02*
X20065163Y-2683609D01*
X20065163Y-2683609D02*
X19898496Y-2683609D01*
X19898496Y-2683609D02*
X19850877Y-2707419D01*
X19850877Y-2707419D02*
X19827068Y-2731228D01*
X19827068Y-2731228D02*
X19803258Y-2778847D01*
X19803258Y-2778847D02*
X19803258Y-2826466D01*
X19803258Y-2826466D02*
X19827068Y-2874085D01*
X19827068Y-2874085D02*
X19850877Y-2897895D01*
X19850877Y-2897895D02*
X19898496Y-2921704D01*
X19898496Y-2921704D02*
X20065163Y-2921704D01*
X19303258Y-3183609D02*
X19588972Y-3183609D01*
X19446115Y-3183609D02*
X19446115Y-2683609D01*
X19446115Y-2683609D02*
X19493734Y-2755038D01*
X19493734Y-2755038D02*
X19541353Y-2802657D01*
X19541353Y-2802657D02*
X19588972Y-2826466D01*
X18850878Y-2683609D02*
X19088973Y-2683609D01*
X19088973Y-2683609D02*
X19112782Y-2921704D01*
X19112782Y-2921704D02*
X19088973Y-2897895D01*
X19088973Y-2897895D02*
X19041354Y-2874085D01*
X19041354Y-2874085D02*
X18922306Y-2874085D01*
X18922306Y-2874085D02*
X18874687Y-2897895D01*
X18874687Y-2897895D02*
X18850878Y-2921704D01*
X18850878Y-2921704D02*
X18827068Y-2969323D01*
X18827068Y-2969323D02*
X18827068Y-3088371D01*
X18827068Y-3088371D02*
X18850878Y-3135990D01*
X18850878Y-3135990D02*
X18874687Y-3159800D01*
X18874687Y-3159800D02*
X18922306Y-3183609D01*
X18922306Y-3183609D02*
X19041354Y-3183609D01*
X19041354Y-3183609D02*
X19088973Y-3159800D01*
X19088973Y-3159800D02*
X19112782Y-3135990D01*
X7815163Y-3183609D02*
X7815163Y-2683609D01*
X7815163Y-2683609D02*
X7624687Y-2683609D01*
X7624687Y-2683609D02*
X7577068Y-2707419D01*
X7577068Y-2707419D02*
X7553258Y-2731228D01*
X7553258Y-2731228D02*
X7529449Y-2778847D01*
X7529449Y-2778847D02*
X7529449Y-2850276D01*
X7529449Y-2850276D02*
X7553258Y-2897895D01*
X7553258Y-2897895D02*
X7577068Y-2921704D01*
X7577068Y-2921704D02*
X7624687Y-2945514D01*
X7624687Y-2945514D02*
X7815163Y-2945514D01*
X7338972Y-3040752D02*
X7100877Y-3040752D01*
X7386591Y-3183609D02*
X7219925Y-2683609D01*
X7219925Y-2683609D02*
X7053258Y-3183609D01*
X6934211Y-2683609D02*
X6624687Y-2683609D01*
X6624687Y-2683609D02*
X6791354Y-2874085D01*
X6791354Y-2874085D02*
X6719925Y-2874085D01*
X6719925Y-2874085D02*
X6672306Y-2897895D01*
X6672306Y-2897895D02*
X6648497Y-2921704D01*
X6648497Y-2921704D02*
X6624687Y-2969323D01*
X6624687Y-2969323D02*
X6624687Y-3088371D01*
X6624687Y-3088371D02*
X6648497Y-3135990D01*
X6648497Y-3135990D02*
X6672306Y-3159800D01*
X6672306Y-3159800D02*
X6719925Y-3183609D01*
X6719925Y-3183609D02*
X6862782Y-3183609D01*
X6862782Y-3183609D02*
X6910401Y-3159800D01*
X6910401Y-3159800D02*
X6934211Y-3135990D01*
X20565163Y2316391D02*
X20565163Y2816391D01*
X20565163Y2816391D02*
X20374687Y2816391D01*
X20374687Y2816391D02*
X20327068Y2792581D01*
X20327068Y2792581D02*
X20303258Y2768772D01*
X20303258Y2768772D02*
X20279449Y2721153D01*
X20279449Y2721153D02*
X20279449Y2649724D01*
X20279449Y2649724D02*
X20303258Y2602105D01*
X20303258Y2602105D02*
X20327068Y2578296D01*
X20327068Y2578296D02*
X20374687Y2554486D01*
X20374687Y2554486D02*
X20565163Y2554486D01*
X20088972Y2459248D02*
X19850877Y2459248D01*
X20136591Y2316391D02*
X19969925Y2816391D01*
X19969925Y2816391D02*
X19803258Y2316391D01*
X19565163Y2602105D02*
X19612782Y2625915D01*
X19612782Y2625915D02*
X19636592Y2649724D01*
X19636592Y2649724D02*
X19660401Y2697343D01*
X19660401Y2697343D02*
X19660401Y2721153D01*
X19660401Y2721153D02*
X19636592Y2768772D01*
X19636592Y2768772D02*
X19612782Y2792581D01*
X19612782Y2792581D02*
X19565163Y2816391D01*
X19565163Y2816391D02*
X19469925Y2816391D01*
X19469925Y2816391D02*
X19422306Y2792581D01*
X19422306Y2792581D02*
X19398497Y2768772D01*
X19398497Y2768772D02*
X19374687Y2721153D01*
X19374687Y2721153D02*
X19374687Y2697343D01*
X19374687Y2697343D02*
X19398497Y2649724D01*
X19398497Y2649724D02*
X19422306Y2625915D01*
X19422306Y2625915D02*
X19469925Y2602105D01*
X19469925Y2602105D02*
X19565163Y2602105D01*
X19565163Y2602105D02*
X19612782Y2578296D01*
X19612782Y2578296D02*
X19636592Y2554486D01*
X19636592Y2554486D02*
X19660401Y2506867D01*
X19660401Y2506867D02*
X19660401Y2411629D01*
X19660401Y2411629D02*
X19636592Y2364010D01*
X19636592Y2364010D02*
X19612782Y2340200D01*
X19612782Y2340200D02*
X19565163Y2316391D01*
X19565163Y2316391D02*
X19469925Y2316391D01*
X19469925Y2316391D02*
X19422306Y2340200D01*
X19422306Y2340200D02*
X19398497Y2364010D01*
X19398497Y2364010D02*
X19374687Y2411629D01*
X19374687Y2411629D02*
X19374687Y2506867D01*
X19374687Y2506867D02*
X19398497Y2554486D01*
X19398497Y2554486D02*
X19422306Y2578296D01*
X19422306Y2578296D02*
X19469925Y2602105D01*
X10338972Y-3159800D02*
X10267544Y-3183609D01*
X10267544Y-3183609D02*
X10148496Y-3183609D01*
X10148496Y-3183609D02*
X10100877Y-3159800D01*
X10100877Y-3159800D02*
X10077068Y-3135990D01*
X10077068Y-3135990D02*
X10053258Y-3088371D01*
X10053258Y-3088371D02*
X10053258Y-3040752D01*
X10053258Y-3040752D02*
X10077068Y-2993133D01*
X10077068Y-2993133D02*
X10100877Y-2969323D01*
X10100877Y-2969323D02*
X10148496Y-2945514D01*
X10148496Y-2945514D02*
X10243734Y-2921704D01*
X10243734Y-2921704D02*
X10291353Y-2897895D01*
X10291353Y-2897895D02*
X10315163Y-2874085D01*
X10315163Y-2874085D02*
X10338972Y-2826466D01*
X10338972Y-2826466D02*
X10338972Y-2778847D01*
X10338972Y-2778847D02*
X10315163Y-2731228D01*
X10315163Y-2731228D02*
X10291353Y-2707419D01*
X10291353Y-2707419D02*
X10243734Y-2683609D01*
X10243734Y-2683609D02*
X10124687Y-2683609D01*
X10124687Y-2683609D02*
X10053258Y-2707419D01*
X9553259Y-3135990D02*
X9577068Y-3159800D01*
X9577068Y-3159800D02*
X9648497Y-3183609D01*
X9648497Y-3183609D02*
X9696116Y-3183609D01*
X9696116Y-3183609D02*
X9767544Y-3159800D01*
X9767544Y-3159800D02*
X9815163Y-3112180D01*
X9815163Y-3112180D02*
X9838973Y-3064561D01*
X9838973Y-3064561D02*
X9862782Y-2969323D01*
X9862782Y-2969323D02*
X9862782Y-2897895D01*
X9862782Y-2897895D02*
X9838973Y-2802657D01*
X9838973Y-2802657D02*
X9815163Y-2755038D01*
X9815163Y-2755038D02*
X9767544Y-2707419D01*
X9767544Y-2707419D02*
X9696116Y-2683609D01*
X9696116Y-2683609D02*
X9648497Y-2683609D01*
X9648497Y-2683609D02*
X9577068Y-2707419D01*
X9577068Y-2707419D02*
X9553259Y-2731228D01*
X9338973Y-3183609D02*
X9338973Y-2683609D01*
X9053259Y-3183609D02*
X9267544Y-2897895D01*
X9053259Y-2683609D02*
X9338973Y-2969323D01*
X23065163Y2816391D02*
X23065163Y2411629D01*
X23065163Y2411629D02*
X23041353Y2364010D01*
X23041353Y2364010D02*
X23017544Y2340200D01*
X23017544Y2340200D02*
X22969925Y2316391D01*
X22969925Y2316391D02*
X22874687Y2316391D01*
X22874687Y2316391D02*
X22827068Y2340200D01*
X22827068Y2340200D02*
X22803258Y2364010D01*
X22803258Y2364010D02*
X22779449Y2411629D01*
X22779449Y2411629D02*
X22779449Y2816391D01*
X22660401Y2268772D02*
X22279448Y2268772D01*
X21874687Y2316391D02*
X22041353Y2554486D01*
X22160401Y2316391D02*
X22160401Y2816391D01*
X22160401Y2816391D02*
X21969925Y2816391D01*
X21969925Y2816391D02*
X21922306Y2792581D01*
X21922306Y2792581D02*
X21898496Y2768772D01*
X21898496Y2768772D02*
X21874687Y2721153D01*
X21874687Y2721153D02*
X21874687Y2649724D01*
X21874687Y2649724D02*
X21898496Y2602105D01*
X21898496Y2602105D02*
X21922306Y2578296D01*
X21922306Y2578296D02*
X21969925Y2554486D01*
X21969925Y2554486D02*
X22160401Y2554486D01*
X21708020Y2816391D02*
X21374687Y2316391D01*
X21374687Y2816391D02*
X21708020Y2316391D01*
D10*
X31306077Y24130181D02*
X30734649Y24130181D01*
X31020363Y23130181D02*
X31020363Y24130181D01*
X30496553Y23130181D02*
X29972744Y23796848D01*
X30496553Y23796848D02*
X29972744Y23130181D01*
D11*
X13065163Y-3183609D02*
X13065163Y-2683609D01*
X13065163Y-2683609D02*
X12898496Y-3040752D01*
X12898496Y-3040752D02*
X12731830Y-2683609D01*
X12731830Y-2683609D02*
X12731830Y-3183609D01*
X12493734Y-3183609D02*
X12493734Y-2683609D01*
X12279448Y-3159800D02*
X12208020Y-3183609D01*
X12208020Y-3183609D02*
X12088972Y-3183609D01*
X12088972Y-3183609D02*
X12041353Y-3159800D01*
X12041353Y-3159800D02*
X12017544Y-3135990D01*
X12017544Y-3135990D02*
X11993734Y-3088371D01*
X11993734Y-3088371D02*
X11993734Y-3040752D01*
X11993734Y-3040752D02*
X12017544Y-2993133D01*
X12017544Y-2993133D02*
X12041353Y-2969323D01*
X12041353Y-2969323D02*
X12088972Y-2945514D01*
X12088972Y-2945514D02*
X12184210Y-2921704D01*
X12184210Y-2921704D02*
X12231829Y-2897895D01*
X12231829Y-2897895D02*
X12255639Y-2874085D01*
X12255639Y-2874085D02*
X12279448Y-2826466D01*
X12279448Y-2826466D02*
X12279448Y-2778847D01*
X12279448Y-2778847D02*
X12255639Y-2731228D01*
X12255639Y-2731228D02*
X12231829Y-2707419D01*
X12231829Y-2707419D02*
X12184210Y-2683609D01*
X12184210Y-2683609D02*
X12065163Y-2683609D01*
X12065163Y-2683609D02*
X11993734Y-2707419D01*
X11684211Y-2683609D02*
X11588973Y-2683609D01*
X11588973Y-2683609D02*
X11541354Y-2707419D01*
X11541354Y-2707419D02*
X11493735Y-2755038D01*
X11493735Y-2755038D02*
X11469925Y-2850276D01*
X11469925Y-2850276D02*
X11469925Y-3016942D01*
X11469925Y-3016942D02*
X11493735Y-3112180D01*
X11493735Y-3112180D02*
X11541354Y-3159800D01*
X11541354Y-3159800D02*
X11588973Y-3183609D01*
X11588973Y-3183609D02*
X11684211Y-3183609D01*
X11684211Y-3183609D02*
X11731830Y-3159800D01*
X11731830Y-3159800D02*
X11779449Y-3112180D01*
X11779449Y-3112180D02*
X11803258Y-3016942D01*
X11803258Y-3016942D02*
X11803258Y-2850276D01*
X11803258Y-2850276D02*
X11779449Y-2755038D01*
X11779449Y-2755038D02*
X11731830Y-2707419D01*
X11731830Y-2707419D02*
X11684211Y-2683609D01*
D10*
X30639411Y34332562D02*
X30734649Y34380181D01*
X30734649Y34380181D02*
X30877506Y34380181D01*
X30877506Y34380181D02*
X31020363Y34332562D01*
X31020363Y34332562D02*
X31115601Y34237324D01*
X31115601Y34237324D02*
X31163220Y34142086D01*
X31163220Y34142086D02*
X31210839Y33951610D01*
X31210839Y33951610D02*
X31210839Y33808753D01*
X31210839Y33808753D02*
X31163220Y33618277D01*
X31163220Y33618277D02*
X31115601Y33523039D01*
X31115601Y33523039D02*
X31020363Y33427800D01*
X31020363Y33427800D02*
X30877506Y33380181D01*
X30877506Y33380181D02*
X30782268Y33380181D01*
X30782268Y33380181D02*
X30639411Y33427800D01*
X30639411Y33427800D02*
X30591792Y33475420D01*
X30591792Y33475420D02*
X30591792Y33808753D01*
X30591792Y33808753D02*
X30782268Y33808753D01*
X30163220Y33380181D02*
X30163220Y34380181D01*
X30163220Y34380181D02*
X29782268Y34380181D01*
X29782268Y34380181D02*
X29687030Y34332562D01*
X29687030Y34332562D02*
X29639411Y34284943D01*
X29639411Y34284943D02*
X29591792Y34189705D01*
X29591792Y34189705D02*
X29591792Y34046848D01*
X29591792Y34046848D02*
X29639411Y33951610D01*
X29639411Y33951610D02*
X29687030Y33903991D01*
X29687030Y33903991D02*
X29782268Y33856372D01*
X29782268Y33856372D02*
X30163220Y33856372D01*
X29163220Y33380181D02*
X29163220Y34380181D01*
X28496554Y34380181D02*
X28306078Y34380181D01*
X28306078Y34380181D02*
X28210840Y34332562D01*
X28210840Y34332562D02*
X28115602Y34237324D01*
X28115602Y34237324D02*
X28067983Y34046848D01*
X28067983Y34046848D02*
X28067983Y33713515D01*
X28067983Y33713515D02*
X28115602Y33523039D01*
X28115602Y33523039D02*
X28210840Y33427800D01*
X28210840Y33427800D02*
X28306078Y33380181D01*
X28306078Y33380181D02*
X28496554Y33380181D01*
X28496554Y33380181D02*
X28591792Y33427800D01*
X28591792Y33427800D02*
X28687030Y33523039D01*
X28687030Y33523039D02*
X28734649Y33713515D01*
X28734649Y33713515D02*
X28734649Y34046848D01*
X28734649Y34046848D02*
X28687030Y34237324D01*
X28687030Y34237324D02*
X28591792Y34332562D01*
X28591792Y34332562D02*
X28496554Y34380181D01*
X27448935Y34380181D02*
X27353697Y34380181D01*
X27353697Y34380181D02*
X27258459Y34332562D01*
X27258459Y34332562D02*
X27210840Y34284943D01*
X27210840Y34284943D02*
X27163221Y34189705D01*
X27163221Y34189705D02*
X27115602Y33999229D01*
X27115602Y33999229D02*
X27115602Y33761134D01*
X27115602Y33761134D02*
X27163221Y33570658D01*
X27163221Y33570658D02*
X27210840Y33475420D01*
X27210840Y33475420D02*
X27258459Y33427800D01*
X27258459Y33427800D02*
X27353697Y33380181D01*
X27353697Y33380181D02*
X27448935Y33380181D01*
X27448935Y33380181D02*
X27544173Y33427800D01*
X27544173Y33427800D02*
X27591792Y33475420D01*
X27591792Y33475420D02*
X27639411Y33570658D01*
X27639411Y33570658D02*
X27687030Y33761134D01*
X27687030Y33761134D02*
X27687030Y33999229D01*
X27687030Y33999229D02*
X27639411Y34189705D01*
X27639411Y34189705D02*
X27591792Y34284943D01*
X27591792Y34284943D02*
X27544173Y34332562D01*
X27544173Y34332562D02*
X27448935Y34380181D01*
X2913220Y7880181D02*
X2913220Y8880181D01*
X2913220Y8880181D02*
X2532268Y8880181D01*
X2532268Y8880181D02*
X2437030Y8832562D01*
X2437030Y8832562D02*
X2389411Y8784943D01*
X2389411Y8784943D02*
X2341792Y8689705D01*
X2341792Y8689705D02*
X2341792Y8546848D01*
X2341792Y8546848D02*
X2389411Y8451610D01*
X2389411Y8451610D02*
X2437030Y8403991D01*
X2437030Y8403991D02*
X2532268Y8356372D01*
X2532268Y8356372D02*
X2913220Y8356372D01*
X1579887Y8403991D02*
X1437030Y8356372D01*
X1437030Y8356372D02*
X1389411Y8308753D01*
X1389411Y8308753D02*
X1341792Y8213515D01*
X1341792Y8213515D02*
X1341792Y8070658D01*
X1341792Y8070658D02*
X1389411Y7975420D01*
X1389411Y7975420D02*
X1437030Y7927800D01*
X1437030Y7927800D02*
X1532268Y7880181D01*
X1532268Y7880181D02*
X1913220Y7880181D01*
X1913220Y7880181D02*
X1913220Y8880181D01*
X1913220Y8880181D02*
X1579887Y8880181D01*
X1579887Y8880181D02*
X1484649Y8832562D01*
X1484649Y8832562D02*
X1437030Y8784943D01*
X1437030Y8784943D02*
X1389411Y8689705D01*
X1389411Y8689705D02*
X1389411Y8594467D01*
X1389411Y8594467D02*
X1437030Y8499229D01*
X1437030Y8499229D02*
X1484649Y8451610D01*
X1484649Y8451610D02*
X1579887Y8403991D01*
X1579887Y8403991D02*
X1913220Y8403991D01*
X484649Y8546848D02*
X484649Y7880181D01*
X722744Y8927800D02*
X960839Y8213515D01*
X960839Y8213515D02*
X341792Y8213515D01*
X30639411Y26582562D02*
X30734649Y26630181D01*
X30734649Y26630181D02*
X30877506Y26630181D01*
X30877506Y26630181D02*
X31020363Y26582562D01*
X31020363Y26582562D02*
X31115601Y26487324D01*
X31115601Y26487324D02*
X31163220Y26392086D01*
X31163220Y26392086D02*
X31210839Y26201610D01*
X31210839Y26201610D02*
X31210839Y26058753D01*
X31210839Y26058753D02*
X31163220Y25868277D01*
X31163220Y25868277D02*
X31115601Y25773039D01*
X31115601Y25773039D02*
X31020363Y25677800D01*
X31020363Y25677800D02*
X30877506Y25630181D01*
X30877506Y25630181D02*
X30782268Y25630181D01*
X30782268Y25630181D02*
X30639411Y25677800D01*
X30639411Y25677800D02*
X30591792Y25725420D01*
X30591792Y25725420D02*
X30591792Y26058753D01*
X30591792Y26058753D02*
X30782268Y26058753D01*
X30163220Y25630181D02*
X30163220Y26630181D01*
X30163220Y26630181D02*
X29782268Y26630181D01*
X29782268Y26630181D02*
X29687030Y26582562D01*
X29687030Y26582562D02*
X29639411Y26534943D01*
X29639411Y26534943D02*
X29591792Y26439705D01*
X29591792Y26439705D02*
X29591792Y26296848D01*
X29591792Y26296848D02*
X29639411Y26201610D01*
X29639411Y26201610D02*
X29687030Y26153991D01*
X29687030Y26153991D02*
X29782268Y26106372D01*
X29782268Y26106372D02*
X30163220Y26106372D01*
X29163220Y25630181D02*
X29163220Y26630181D01*
X28496554Y26630181D02*
X28306078Y26630181D01*
X28306078Y26630181D02*
X28210840Y26582562D01*
X28210840Y26582562D02*
X28115602Y26487324D01*
X28115602Y26487324D02*
X28067983Y26296848D01*
X28067983Y26296848D02*
X28067983Y25963515D01*
X28067983Y25963515D02*
X28115602Y25773039D01*
X28115602Y25773039D02*
X28210840Y25677800D01*
X28210840Y25677800D02*
X28306078Y25630181D01*
X28306078Y25630181D02*
X28496554Y25630181D01*
X28496554Y25630181D02*
X28591792Y25677800D01*
X28591792Y25677800D02*
X28687030Y25773039D01*
X28687030Y25773039D02*
X28734649Y25963515D01*
X28734649Y25963515D02*
X28734649Y26296848D01*
X28734649Y26296848D02*
X28687030Y26487324D01*
X28687030Y26487324D02*
X28591792Y26582562D01*
X28591792Y26582562D02*
X28496554Y26630181D01*
X27734649Y26630181D02*
X27115602Y26630181D01*
X27115602Y26630181D02*
X27448935Y26249229D01*
X27448935Y26249229D02*
X27306078Y26249229D01*
X27306078Y26249229D02*
X27210840Y26201610D01*
X27210840Y26201610D02*
X27163221Y26153991D01*
X27163221Y26153991D02*
X27115602Y26058753D01*
X27115602Y26058753D02*
X27115602Y25820658D01*
X27115602Y25820658D02*
X27163221Y25725420D01*
X27163221Y25725420D02*
X27210840Y25677800D01*
X27210840Y25677800D02*
X27306078Y25630181D01*
X27306078Y25630181D02*
X27591792Y25630181D01*
X27591792Y25630181D02*
X27687030Y25677800D01*
X27687030Y25677800D02*
X27734649Y25725420D01*
D11*
X5588972Y2459248D02*
X5350877Y2459248D01*
X5636591Y2316391D02*
X5469925Y2816391D01*
X5469925Y2816391D02*
X5303258Y2316391D01*
X5136592Y2316391D02*
X5136592Y2816391D01*
X5136592Y2816391D02*
X5017544Y2816391D01*
X5017544Y2816391D02*
X4946116Y2792581D01*
X4946116Y2792581D02*
X4898497Y2744962D01*
X4898497Y2744962D02*
X4874687Y2697343D01*
X4874687Y2697343D02*
X4850878Y2602105D01*
X4850878Y2602105D02*
X4850878Y2530677D01*
X4850878Y2530677D02*
X4874687Y2435439D01*
X4874687Y2435439D02*
X4898497Y2387820D01*
X4898497Y2387820D02*
X4946116Y2340200D01*
X4946116Y2340200D02*
X5017544Y2316391D01*
X5017544Y2316391D02*
X5136592Y2316391D01*
X4350878Y2364010D02*
X4374687Y2340200D01*
X4374687Y2340200D02*
X4446116Y2316391D01*
X4446116Y2316391D02*
X4493735Y2316391D01*
X4493735Y2316391D02*
X4565163Y2340200D01*
X4565163Y2340200D02*
X4612782Y2387820D01*
X4612782Y2387820D02*
X4636592Y2435439D01*
X4636592Y2435439D02*
X4660401Y2530677D01*
X4660401Y2530677D02*
X4660401Y2602105D01*
X4660401Y2602105D02*
X4636592Y2697343D01*
X4636592Y2697343D02*
X4612782Y2744962D01*
X4612782Y2744962D02*
X4565163Y2792581D01*
X4565163Y2792581D02*
X4493735Y2816391D01*
X4493735Y2816391D02*
X4446116Y2816391D01*
X4446116Y2816391D02*
X4374687Y2792581D01*
X4374687Y2792581D02*
X4350878Y2768772D01*
X3874687Y2316391D02*
X4160401Y2316391D01*
X4017544Y2316391D02*
X4017544Y2816391D01*
X4017544Y2816391D02*
X4065163Y2744962D01*
X4065163Y2744962D02*
X4112782Y2697343D01*
X4112782Y2697343D02*
X4160401Y2673534D01*
X3779450Y2268772D02*
X3398497Y2268772D01*
X3279450Y2316391D02*
X3279450Y2816391D01*
X3041355Y2316391D02*
X3041355Y2816391D01*
X3041355Y2816391D02*
X2755641Y2316391D01*
X2755641Y2316391D02*
X2755641Y2816391D01*
X2422307Y2816391D02*
X2374688Y2816391D01*
X2374688Y2816391D02*
X2327069Y2792581D01*
X2327069Y2792581D02*
X2303259Y2768772D01*
X2303259Y2768772D02*
X2279450Y2721153D01*
X2279450Y2721153D02*
X2255640Y2625915D01*
X2255640Y2625915D02*
X2255640Y2506867D01*
X2255640Y2506867D02*
X2279450Y2411629D01*
X2279450Y2411629D02*
X2303259Y2364010D01*
X2303259Y2364010D02*
X2327069Y2340200D01*
X2327069Y2340200D02*
X2374688Y2316391D01*
X2374688Y2316391D02*
X2422307Y2316391D01*
X2422307Y2316391D02*
X2469926Y2340200D01*
X2469926Y2340200D02*
X2493735Y2364010D01*
X2493735Y2364010D02*
X2517545Y2411629D01*
X2517545Y2411629D02*
X2541354Y2506867D01*
X2541354Y2506867D02*
X2541354Y2625915D01*
X2541354Y2625915D02*
X2517545Y2721153D01*
X2517545Y2721153D02*
X2493735Y2768772D01*
X2493735Y2768772D02*
X2469926Y2792581D01*
X2469926Y2792581D02*
X2422307Y2816391D01*
X15315163Y-3183609D02*
X15315163Y-2683609D01*
X15315163Y-2683609D02*
X15124687Y-2683609D01*
X15124687Y-2683609D02*
X15077068Y-2707419D01*
X15077068Y-2707419D02*
X15053258Y-2731228D01*
X15053258Y-2731228D02*
X15029449Y-2778847D01*
X15029449Y-2778847D02*
X15029449Y-2850276D01*
X15029449Y-2850276D02*
X15053258Y-2897895D01*
X15053258Y-2897895D02*
X15077068Y-2921704D01*
X15077068Y-2921704D02*
X15124687Y-2945514D01*
X15124687Y-2945514D02*
X15315163Y-2945514D01*
X14648496Y-2921704D02*
X14577068Y-2945514D01*
X14577068Y-2945514D02*
X14553258Y-2969323D01*
X14553258Y-2969323D02*
X14529449Y-3016942D01*
X14529449Y-3016942D02*
X14529449Y-3088371D01*
X14529449Y-3088371D02*
X14553258Y-3135990D01*
X14553258Y-3135990D02*
X14577068Y-3159800D01*
X14577068Y-3159800D02*
X14624687Y-3183609D01*
X14624687Y-3183609D02*
X14815163Y-3183609D01*
X14815163Y-3183609D02*
X14815163Y-2683609D01*
X14815163Y-2683609D02*
X14648496Y-2683609D01*
X14648496Y-2683609D02*
X14600877Y-2707419D01*
X14600877Y-2707419D02*
X14577068Y-2731228D01*
X14577068Y-2731228D02*
X14553258Y-2778847D01*
X14553258Y-2778847D02*
X14553258Y-2826466D01*
X14553258Y-2826466D02*
X14577068Y-2874085D01*
X14577068Y-2874085D02*
X14600877Y-2897895D01*
X14600877Y-2897895D02*
X14648496Y-2921704D01*
X14648496Y-2921704D02*
X14815163Y-2921704D01*
X14219925Y-2683609D02*
X14172306Y-2683609D01*
X14172306Y-2683609D02*
X14124687Y-2707419D01*
X14124687Y-2707419D02*
X14100877Y-2731228D01*
X14100877Y-2731228D02*
X14077068Y-2778847D01*
X14077068Y-2778847D02*
X14053258Y-2874085D01*
X14053258Y-2874085D02*
X14053258Y-2993133D01*
X14053258Y-2993133D02*
X14077068Y-3088371D01*
X14077068Y-3088371D02*
X14100877Y-3135990D01*
X14100877Y-3135990D02*
X14124687Y-3159800D01*
X14124687Y-3159800D02*
X14172306Y-3183609D01*
X14172306Y-3183609D02*
X14219925Y-3183609D01*
X14219925Y-3183609D02*
X14267544Y-3159800D01*
X14267544Y-3159800D02*
X14291353Y-3135990D01*
X14291353Y-3135990D02*
X14315163Y-3088371D01*
X14315163Y-3088371D02*
X14338972Y-2993133D01*
X14338972Y-2993133D02*
X14338972Y-2874085D01*
X14338972Y-2874085D02*
X14315163Y-2778847D01*
X14315163Y-2778847D02*
X14291353Y-2731228D01*
X14291353Y-2731228D02*
X14267544Y-2707419D01*
X14267544Y-2707419D02*
X14219925Y-2683609D01*
D10*
X2960839Y28427800D02*
X2817982Y28380181D01*
X2817982Y28380181D02*
X2579887Y28380181D01*
X2579887Y28380181D02*
X2484649Y28427800D01*
X2484649Y28427800D02*
X2437030Y28475420D01*
X2437030Y28475420D02*
X2389411Y28570658D01*
X2389411Y28570658D02*
X2389411Y28665896D01*
X2389411Y28665896D02*
X2437030Y28761134D01*
X2437030Y28761134D02*
X2484649Y28808753D01*
X2484649Y28808753D02*
X2579887Y28856372D01*
X2579887Y28856372D02*
X2770363Y28903991D01*
X2770363Y28903991D02*
X2865601Y28951610D01*
X2865601Y28951610D02*
X2913220Y28999229D01*
X2913220Y28999229D02*
X2960839Y29094467D01*
X2960839Y29094467D02*
X2960839Y29189705D01*
X2960839Y29189705D02*
X2913220Y29284943D01*
X2913220Y29284943D02*
X2865601Y29332562D01*
X2865601Y29332562D02*
X2770363Y29380181D01*
X2770363Y29380181D02*
X2532268Y29380181D01*
X2532268Y29380181D02*
X2389411Y29332562D01*
X1960839Y28380181D02*
X1960839Y29380181D01*
X1960839Y29380181D02*
X1722744Y29380181D01*
X1722744Y29380181D02*
X1579887Y29332562D01*
X1579887Y29332562D02*
X1484649Y29237324D01*
X1484649Y29237324D02*
X1437030Y29142086D01*
X1437030Y29142086D02*
X1389411Y28951610D01*
X1389411Y28951610D02*
X1389411Y28808753D01*
X1389411Y28808753D02*
X1437030Y28618277D01*
X1437030Y28618277D02*
X1484649Y28523039D01*
X1484649Y28523039D02*
X1579887Y28427800D01*
X1579887Y28427800D02*
X1722744Y28380181D01*
X1722744Y28380181D02*
X1960839Y28380181D01*
X1008458Y28665896D02*
X532268Y28665896D01*
X1103696Y28380181D02*
X770363Y29380181D01*
X770363Y29380181D02*
X437030Y28380181D01*
X22653696Y39547886D02*
X22748935Y39595505D01*
X22748935Y39595505D02*
X22939411Y39595505D01*
X22939411Y39595505D02*
X23034649Y39547886D01*
X23034649Y39547886D02*
X23129887Y39452648D01*
X23129887Y39452648D02*
X23177506Y39357410D01*
X23177506Y39357410D02*
X23177506Y39166934D01*
X23177506Y39166934D02*
X23129887Y39071696D01*
X23129887Y39071696D02*
X23034649Y38976458D01*
X23034649Y38976458D02*
X22939411Y38928839D01*
X22939411Y38928839D02*
X22748935Y38928839D01*
X22748935Y38928839D02*
X22653696Y38976458D01*
X22844173Y39928839D02*
X23082268Y39881220D01*
X23082268Y39881220D02*
X23320363Y39738362D01*
X23320363Y39738362D02*
X23463220Y39500267D01*
X23463220Y39500267D02*
X23510839Y39262172D01*
X23510839Y39262172D02*
X23463220Y39024077D01*
X23463220Y39024077D02*
X23320363Y38785981D01*
X23320363Y38785981D02*
X23082268Y38643124D01*
X23082268Y38643124D02*
X22844173Y38595505D01*
X22844173Y38595505D02*
X22606077Y38643124D01*
X22606077Y38643124D02*
X22367982Y38785981D01*
X22367982Y38785981D02*
X22225125Y39024077D01*
X22225125Y39024077D02*
X22177506Y39262172D01*
X22177506Y39262172D02*
X22225125Y39500267D01*
X22225125Y39500267D02*
X22367982Y39738362D01*
X22367982Y39738362D02*
X22606077Y39881220D01*
X22606077Y39881220D02*
X22844173Y39928839D01*
X20415601Y38785981D02*
X20748934Y39262172D01*
X20987029Y38785981D02*
X20987029Y39785981D01*
X20987029Y39785981D02*
X20606077Y39785981D01*
X20606077Y39785981D02*
X20510839Y39738362D01*
X20510839Y39738362D02*
X20463220Y39690743D01*
X20463220Y39690743D02*
X20415601Y39595505D01*
X20415601Y39595505D02*
X20415601Y39452648D01*
X20415601Y39452648D02*
X20463220Y39357410D01*
X20463220Y39357410D02*
X20510839Y39309791D01*
X20510839Y39309791D02*
X20606077Y39262172D01*
X20606077Y39262172D02*
X20987029Y39262172D01*
X19558458Y39452648D02*
X19558458Y38785981D01*
X19987029Y39452648D02*
X19987029Y38928839D01*
X19987029Y38928839D02*
X19939410Y38833600D01*
X19939410Y38833600D02*
X19844172Y38785981D01*
X19844172Y38785981D02*
X19701315Y38785981D01*
X19701315Y38785981D02*
X19606077Y38833600D01*
X19606077Y38833600D02*
X19558458Y38881220D01*
X19082267Y38785981D02*
X19082267Y39785981D01*
X19082267Y39405029D02*
X18987029Y39452648D01*
X18987029Y39452648D02*
X18796553Y39452648D01*
X18796553Y39452648D02*
X18701315Y39405029D01*
X18701315Y39405029D02*
X18653696Y39357410D01*
X18653696Y39357410D02*
X18606077Y39262172D01*
X18606077Y39262172D02*
X18606077Y38976458D01*
X18606077Y38976458D02*
X18653696Y38881220D01*
X18653696Y38881220D02*
X18701315Y38833600D01*
X18701315Y38833600D02*
X18796553Y38785981D01*
X18796553Y38785981D02*
X18987029Y38785981D01*
X18987029Y38785981D02*
X19082267Y38833600D01*
X17796553Y38833600D02*
X17891791Y38785981D01*
X17891791Y38785981D02*
X18082267Y38785981D01*
X18082267Y38785981D02*
X18177505Y38833600D01*
X18177505Y38833600D02*
X18225124Y38928839D01*
X18225124Y38928839D02*
X18225124Y39309791D01*
X18225124Y39309791D02*
X18177505Y39405029D01*
X18177505Y39405029D02*
X18082267Y39452648D01*
X18082267Y39452648D02*
X17891791Y39452648D01*
X17891791Y39452648D02*
X17796553Y39405029D01*
X17796553Y39405029D02*
X17748934Y39309791D01*
X17748934Y39309791D02*
X17748934Y39214553D01*
X17748934Y39214553D02*
X18225124Y39119315D01*
X17320362Y39452648D02*
X17320362Y38785981D01*
X17320362Y39357410D02*
X17272743Y39405029D01*
X17272743Y39405029D02*
X17177505Y39452648D01*
X17177505Y39452648D02*
X17034648Y39452648D01*
X17034648Y39452648D02*
X16939410Y39405029D01*
X16939410Y39405029D02*
X16891791Y39309791D01*
X16891791Y39309791D02*
X16891791Y38785981D01*
X15796552Y39785981D02*
X15225124Y39785981D01*
X15510838Y38785981D02*
X15510838Y39785981D01*
X14891790Y38785981D02*
X14891790Y39452648D01*
X14891790Y39262172D02*
X14844171Y39357410D01*
X14844171Y39357410D02*
X14796552Y39405029D01*
X14796552Y39405029D02*
X14701314Y39452648D01*
X14701314Y39452648D02*
X14606076Y39452648D01*
X14129885Y38785981D02*
X14225123Y38833600D01*
X14225123Y38833600D02*
X14272742Y38881220D01*
X14272742Y38881220D02*
X14320361Y38976458D01*
X14320361Y38976458D02*
X14320361Y39262172D01*
X14320361Y39262172D02*
X14272742Y39357410D01*
X14272742Y39357410D02*
X14225123Y39405029D01*
X14225123Y39405029D02*
X14129885Y39452648D01*
X14129885Y39452648D02*
X13987028Y39452648D01*
X13987028Y39452648D02*
X13891790Y39405029D01*
X13891790Y39405029D02*
X13844171Y39357410D01*
X13844171Y39357410D02*
X13796552Y39262172D01*
X13796552Y39262172D02*
X13796552Y38976458D01*
X13796552Y38976458D02*
X13844171Y38881220D01*
X13844171Y38881220D02*
X13891790Y38833600D01*
X13891790Y38833600D02*
X13987028Y38785981D01*
X13987028Y38785981D02*
X14129885Y38785981D01*
X13463218Y39452648D02*
X13225123Y38785981D01*
X13225123Y38785981D02*
X12987028Y39452648D01*
X12463218Y38785981D02*
X12558456Y38833600D01*
X12558456Y38833600D02*
X12606075Y38881220D01*
X12606075Y38881220D02*
X12653694Y38976458D01*
X12653694Y38976458D02*
X12653694Y39262172D01*
X12653694Y39262172D02*
X12606075Y39357410D01*
X12606075Y39357410D02*
X12558456Y39405029D01*
X12558456Y39405029D02*
X12463218Y39452648D01*
X12463218Y39452648D02*
X12320361Y39452648D01*
X12320361Y39452648D02*
X12225123Y39405029D01*
X12225123Y39405029D02*
X12177504Y39357410D01*
X12177504Y39357410D02*
X12129885Y39262172D01*
X12129885Y39262172D02*
X12129885Y38976458D01*
X12129885Y38976458D02*
X12177504Y38881220D01*
X12177504Y38881220D02*
X12225123Y38833600D01*
X12225123Y38833600D02*
X12320361Y38785981D01*
X12320361Y38785981D02*
X12463218Y38785981D01*
X11272742Y38785981D02*
X11272742Y39309791D01*
X11272742Y39309791D02*
X11320361Y39405029D01*
X11320361Y39405029D02*
X11415599Y39452648D01*
X11415599Y39452648D02*
X11606075Y39452648D01*
X11606075Y39452648D02*
X11701313Y39405029D01*
X11272742Y38833600D02*
X11367980Y38785981D01*
X11367980Y38785981D02*
X11606075Y38785981D01*
X11606075Y38785981D02*
X11701313Y38833600D01*
X11701313Y38833600D02*
X11748932Y38928839D01*
X11748932Y38928839D02*
X11748932Y39024077D01*
X11748932Y39024077D02*
X11701313Y39119315D01*
X11701313Y39119315D02*
X11606075Y39166934D01*
X11606075Y39166934D02*
X11367980Y39166934D01*
X11367980Y39166934D02*
X11272742Y39214553D01*
X10367980Y38785981D02*
X10367980Y39785981D01*
X10367980Y38833600D02*
X10463218Y38785981D01*
X10463218Y38785981D02*
X10653694Y38785981D01*
X10653694Y38785981D02*
X10748932Y38833600D01*
X10748932Y38833600D02*
X10796551Y38881220D01*
X10796551Y38881220D02*
X10844170Y38976458D01*
X10844170Y38976458D02*
X10844170Y39262172D01*
X10844170Y39262172D02*
X10796551Y39357410D01*
X10796551Y39357410D02*
X10748932Y39405029D01*
X10748932Y39405029D02*
X10653694Y39452648D01*
X10653694Y39452648D02*
X10463218Y39452648D01*
X10463218Y39452648D02*
X10367980Y39405029D01*
X9463218Y38785981D02*
X9463218Y39309791D01*
X9463218Y39309791D02*
X9510837Y39405029D01*
X9510837Y39405029D02*
X9606075Y39452648D01*
X9606075Y39452648D02*
X9796551Y39452648D01*
X9796551Y39452648D02*
X9891789Y39405029D01*
X9463218Y38833600D02*
X9558456Y38785981D01*
X9558456Y38785981D02*
X9796551Y38785981D01*
X9796551Y38785981D02*
X9891789Y38833600D01*
X9891789Y38833600D02*
X9939408Y38928839D01*
X9939408Y38928839D02*
X9939408Y39024077D01*
X9939408Y39024077D02*
X9891789Y39119315D01*
X9891789Y39119315D02*
X9796551Y39166934D01*
X9796551Y39166934D02*
X9558456Y39166934D01*
X9558456Y39166934D02*
X9463218Y39214553D01*
X3508458Y34130181D02*
X2889411Y34130181D01*
X2889411Y34130181D02*
X3222744Y33749229D01*
X3222744Y33749229D02*
X3079887Y33749229D01*
X3079887Y33749229D02*
X2984649Y33701610D01*
X2984649Y33701610D02*
X2937030Y33653991D01*
X2937030Y33653991D02*
X2889411Y33558753D01*
X2889411Y33558753D02*
X2889411Y33320658D01*
X2889411Y33320658D02*
X2937030Y33225420D01*
X2937030Y33225420D02*
X2984649Y33177800D01*
X2984649Y33177800D02*
X3079887Y33130181D01*
X3079887Y33130181D02*
X3365601Y33130181D01*
X3365601Y33130181D02*
X3460839Y33177800D01*
X3460839Y33177800D02*
X3508458Y33225420D01*
X2460839Y33225420D02*
X2413220Y33177800D01*
X2413220Y33177800D02*
X2460839Y33130181D01*
X2460839Y33130181D02*
X2508458Y33177800D01*
X2508458Y33177800D02*
X2460839Y33225420D01*
X2460839Y33225420D02*
X2460839Y33130181D01*
X2079887Y34130181D02*
X1460840Y34130181D01*
X1460840Y34130181D02*
X1794173Y33749229D01*
X1794173Y33749229D02*
X1651316Y33749229D01*
X1651316Y33749229D02*
X1556078Y33701610D01*
X1556078Y33701610D02*
X1508459Y33653991D01*
X1508459Y33653991D02*
X1460840Y33558753D01*
X1460840Y33558753D02*
X1460840Y33320658D01*
X1460840Y33320658D02*
X1508459Y33225420D01*
X1508459Y33225420D02*
X1556078Y33177800D01*
X1556078Y33177800D02*
X1651316Y33130181D01*
X1651316Y33130181D02*
X1937030Y33130181D01*
X1937030Y33130181D02*
X2032268Y33177800D01*
X2032268Y33177800D02*
X2079887Y33225420D01*
X1175125Y34130181D02*
X841792Y33130181D01*
X841792Y33130181D02*
X508459Y34130181D01*
D11*
X10565163Y2316391D02*
X10565163Y2816391D01*
X10565163Y2816391D02*
X10446115Y2816391D01*
X10446115Y2816391D02*
X10374687Y2792581D01*
X10374687Y2792581D02*
X10327068Y2744962D01*
X10327068Y2744962D02*
X10303258Y2697343D01*
X10303258Y2697343D02*
X10279449Y2602105D01*
X10279449Y2602105D02*
X10279449Y2530677D01*
X10279449Y2530677D02*
X10303258Y2435439D01*
X10303258Y2435439D02*
X10327068Y2387820D01*
X10327068Y2387820D02*
X10374687Y2340200D01*
X10374687Y2340200D02*
X10446115Y2316391D01*
X10446115Y2316391D02*
X10565163Y2316391D01*
X10088972Y2459248D02*
X9850877Y2459248D01*
X10136591Y2316391D02*
X9969925Y2816391D01*
X9969925Y2816391D02*
X9803258Y2316391D01*
X9350878Y2364010D02*
X9374687Y2340200D01*
X9374687Y2340200D02*
X9446116Y2316391D01*
X9446116Y2316391D02*
X9493735Y2316391D01*
X9493735Y2316391D02*
X9565163Y2340200D01*
X9565163Y2340200D02*
X9612782Y2387820D01*
X9612782Y2387820D02*
X9636592Y2435439D01*
X9636592Y2435439D02*
X9660401Y2530677D01*
X9660401Y2530677D02*
X9660401Y2602105D01*
X9660401Y2602105D02*
X9636592Y2697343D01*
X9636592Y2697343D02*
X9612782Y2744962D01*
X9612782Y2744962D02*
X9565163Y2792581D01*
X9565163Y2792581D02*
X9493735Y2816391D01*
X9493735Y2816391D02*
X9446116Y2816391D01*
X9446116Y2816391D02*
X9374687Y2792581D01*
X9374687Y2792581D02*
X9350878Y2768772D01*
X8874687Y2316391D02*
X9160401Y2316391D01*
X9017544Y2316391D02*
X9017544Y2816391D01*
X9017544Y2816391D02*
X9065163Y2744962D01*
X9065163Y2744962D02*
X9112782Y2697343D01*
X9112782Y2697343D02*
X9160401Y2673534D01*
D10*
X30591792Y15725420D02*
X30639411Y15677800D01*
X30639411Y15677800D02*
X30782268Y15630181D01*
X30782268Y15630181D02*
X30877506Y15630181D01*
X30877506Y15630181D02*
X31020363Y15677800D01*
X31020363Y15677800D02*
X31115601Y15773039D01*
X31115601Y15773039D02*
X31163220Y15868277D01*
X31163220Y15868277D02*
X31210839Y16058753D01*
X31210839Y16058753D02*
X31210839Y16201610D01*
X31210839Y16201610D02*
X31163220Y16392086D01*
X31163220Y16392086D02*
X31115601Y16487324D01*
X31115601Y16487324D02*
X31020363Y16582562D01*
X31020363Y16582562D02*
X30877506Y16630181D01*
X30877506Y16630181D02*
X30782268Y16630181D01*
X30782268Y16630181D02*
X30639411Y16582562D01*
X30639411Y16582562D02*
X30591792Y16534943D01*
X30210839Y15915896D02*
X29734649Y15915896D01*
X30306077Y15630181D02*
X29972744Y16630181D01*
X29972744Y16630181D02*
X29639411Y15630181D01*
X29306077Y15630181D02*
X29306077Y16630181D01*
X29306077Y16630181D02*
X28734649Y15630181D01*
X28734649Y15630181D02*
X28734649Y16630181D01*
X28496554Y15534943D02*
X27734649Y15534943D01*
X26925125Y15630181D02*
X27258458Y16106372D01*
X27496553Y15630181D02*
X27496553Y16630181D01*
X27496553Y16630181D02*
X27115601Y16630181D01*
X27115601Y16630181D02*
X27020363Y16582562D01*
X27020363Y16582562D02*
X26972744Y16534943D01*
X26972744Y16534943D02*
X26925125Y16439705D01*
X26925125Y16439705D02*
X26925125Y16296848D01*
X26925125Y16296848D02*
X26972744Y16201610D01*
X26972744Y16201610D02*
X27020363Y16153991D01*
X27020363Y16153991D02*
X27115601Y16106372D01*
X27115601Y16106372D02*
X27496553Y16106372D01*
X26591791Y16630181D02*
X25925125Y15630181D01*
X25925125Y16630181D02*
X26591791Y15630181D01*
X3889411Y19082562D02*
X3984649Y19130181D01*
X3984649Y19130181D02*
X4127506Y19130181D01*
X4127506Y19130181D02*
X4270363Y19082562D01*
X4270363Y19082562D02*
X4365601Y18987324D01*
X4365601Y18987324D02*
X4413220Y18892086D01*
X4413220Y18892086D02*
X4460839Y18701610D01*
X4460839Y18701610D02*
X4460839Y18558753D01*
X4460839Y18558753D02*
X4413220Y18368277D01*
X4413220Y18368277D02*
X4365601Y18273039D01*
X4365601Y18273039D02*
X4270363Y18177800D01*
X4270363Y18177800D02*
X4127506Y18130181D01*
X4127506Y18130181D02*
X4032268Y18130181D01*
X4032268Y18130181D02*
X3889411Y18177800D01*
X3889411Y18177800D02*
X3841792Y18225420D01*
X3841792Y18225420D02*
X3841792Y18558753D01*
X3841792Y18558753D02*
X4032268Y18558753D01*
X3413220Y18130181D02*
X3413220Y19130181D01*
X3413220Y19130181D02*
X3032268Y19130181D01*
X3032268Y19130181D02*
X2937030Y19082562D01*
X2937030Y19082562D02*
X2889411Y19034943D01*
X2889411Y19034943D02*
X2841792Y18939705D01*
X2841792Y18939705D02*
X2841792Y18796848D01*
X2841792Y18796848D02*
X2889411Y18701610D01*
X2889411Y18701610D02*
X2937030Y18653991D01*
X2937030Y18653991D02*
X3032268Y18606372D01*
X3032268Y18606372D02*
X3413220Y18606372D01*
X2413220Y18130181D02*
X2413220Y19130181D01*
X1746554Y19130181D02*
X1556078Y19130181D01*
X1556078Y19130181D02*
X1460840Y19082562D01*
X1460840Y19082562D02*
X1365602Y18987324D01*
X1365602Y18987324D02*
X1317983Y18796848D01*
X1317983Y18796848D02*
X1317983Y18463515D01*
X1317983Y18463515D02*
X1365602Y18273039D01*
X1365602Y18273039D02*
X1460840Y18177800D01*
X1460840Y18177800D02*
X1556078Y18130181D01*
X1556078Y18130181D02*
X1746554Y18130181D01*
X1746554Y18130181D02*
X1841792Y18177800D01*
X1841792Y18177800D02*
X1937030Y18273039D01*
X1937030Y18273039D02*
X1984649Y18463515D01*
X1984649Y18463515D02*
X1984649Y18796848D01*
X1984649Y18796848D02*
X1937030Y18987324D01*
X1937030Y18987324D02*
X1841792Y19082562D01*
X1841792Y19082562D02*
X1746554Y19130181D01*
X746554Y18701610D02*
X841792Y18749229D01*
X841792Y18749229D02*
X889411Y18796848D01*
X889411Y18796848D02*
X937030Y18892086D01*
X937030Y18892086D02*
X937030Y18939705D01*
X937030Y18939705D02*
X889411Y19034943D01*
X889411Y19034943D02*
X841792Y19082562D01*
X841792Y19082562D02*
X746554Y19130181D01*
X746554Y19130181D02*
X556078Y19130181D01*
X556078Y19130181D02*
X460840Y19082562D01*
X460840Y19082562D02*
X413221Y19034943D01*
X413221Y19034943D02*
X365602Y18939705D01*
X365602Y18939705D02*
X365602Y18892086D01*
X365602Y18892086D02*
X413221Y18796848D01*
X413221Y18796848D02*
X460840Y18749229D01*
X460840Y18749229D02*
X556078Y18701610D01*
X556078Y18701610D02*
X746554Y18701610D01*
X746554Y18701610D02*
X841792Y18653991D01*
X841792Y18653991D02*
X889411Y18606372D01*
X889411Y18606372D02*
X937030Y18511134D01*
X937030Y18511134D02*
X937030Y18320658D01*
X937030Y18320658D02*
X889411Y18225420D01*
X889411Y18225420D02*
X841792Y18177800D01*
X841792Y18177800D02*
X746554Y18130181D01*
X746554Y18130181D02*
X556078Y18130181D01*
X556078Y18130181D02*
X460840Y18177800D01*
X460840Y18177800D02*
X413221Y18225420D01*
X413221Y18225420D02*
X365602Y18320658D01*
X365602Y18320658D02*
X365602Y18511134D01*
X365602Y18511134D02*
X413221Y18606372D01*
X413221Y18606372D02*
X460840Y18653991D01*
X460840Y18653991D02*
X556078Y18701610D01*
X2913220Y5380181D02*
X2913220Y6380181D01*
X2913220Y6380181D02*
X2532268Y6380181D01*
X2532268Y6380181D02*
X2437030Y6332562D01*
X2437030Y6332562D02*
X2389411Y6284943D01*
X2389411Y6284943D02*
X2341792Y6189705D01*
X2341792Y6189705D02*
X2341792Y6046848D01*
X2341792Y6046848D02*
X2389411Y5951610D01*
X2389411Y5951610D02*
X2437030Y5903991D01*
X2437030Y5903991D02*
X2532268Y5856372D01*
X2532268Y5856372D02*
X2913220Y5856372D01*
X1579887Y5903991D02*
X1437030Y5856372D01*
X1437030Y5856372D02*
X1389411Y5808753D01*
X1389411Y5808753D02*
X1341792Y5713515D01*
X1341792Y5713515D02*
X1341792Y5570658D01*
X1341792Y5570658D02*
X1389411Y5475420D01*
X1389411Y5475420D02*
X1437030Y5427800D01*
X1437030Y5427800D02*
X1532268Y5380181D01*
X1532268Y5380181D02*
X1913220Y5380181D01*
X1913220Y5380181D02*
X1913220Y6380181D01*
X1913220Y6380181D02*
X1579887Y6380181D01*
X1579887Y6380181D02*
X1484649Y6332562D01*
X1484649Y6332562D02*
X1437030Y6284943D01*
X1437030Y6284943D02*
X1389411Y6189705D01*
X1389411Y6189705D02*
X1389411Y6094467D01*
X1389411Y6094467D02*
X1437030Y5999229D01*
X1437030Y5999229D02*
X1484649Y5951610D01*
X1484649Y5951610D02*
X1579887Y5903991D01*
X1579887Y5903991D02*
X1913220Y5903991D01*
X437030Y6380181D02*
X913220Y6380181D01*
X913220Y6380181D02*
X960839Y5903991D01*
X960839Y5903991D02*
X913220Y5951610D01*
X913220Y5951610D02*
X817982Y5999229D01*
X817982Y5999229D02*
X579887Y5999229D01*
X579887Y5999229D02*
X484649Y5951610D01*
X484649Y5951610D02*
X437030Y5903991D01*
X437030Y5903991D02*
X389411Y5808753D01*
X389411Y5808753D02*
X389411Y5570658D01*
X389411Y5570658D02*
X437030Y5475420D01*
X437030Y5475420D02*
X484649Y5427800D01*
X484649Y5427800D02*
X579887Y5380181D01*
X579887Y5380181D02*
X817982Y5380181D01*
X817982Y5380181D02*
X913220Y5427800D01*
X913220Y5427800D02*
X960839Y5475420D01*
D11*
X18065163Y2316391D02*
X18065163Y2816391D01*
X18065163Y2816391D02*
X17874687Y2816391D01*
X17874687Y2816391D02*
X17827068Y2792581D01*
X17827068Y2792581D02*
X17803258Y2768772D01*
X17803258Y2768772D02*
X17779449Y2721153D01*
X17779449Y2721153D02*
X17779449Y2649724D01*
X17779449Y2649724D02*
X17803258Y2602105D01*
X17803258Y2602105D02*
X17827068Y2578296D01*
X17827068Y2578296D02*
X17874687Y2554486D01*
X17874687Y2554486D02*
X18065163Y2554486D01*
X17398496Y2578296D02*
X17327068Y2554486D01*
X17327068Y2554486D02*
X17303258Y2530677D01*
X17303258Y2530677D02*
X17279449Y2483058D01*
X17279449Y2483058D02*
X17279449Y2411629D01*
X17279449Y2411629D02*
X17303258Y2364010D01*
X17303258Y2364010D02*
X17327068Y2340200D01*
X17327068Y2340200D02*
X17374687Y2316391D01*
X17374687Y2316391D02*
X17565163Y2316391D01*
X17565163Y2316391D02*
X17565163Y2816391D01*
X17565163Y2816391D02*
X17398496Y2816391D01*
X17398496Y2816391D02*
X17350877Y2792581D01*
X17350877Y2792581D02*
X17327068Y2768772D01*
X17327068Y2768772D02*
X17303258Y2721153D01*
X17303258Y2721153D02*
X17303258Y2673534D01*
X17303258Y2673534D02*
X17327068Y2625915D01*
X17327068Y2625915D02*
X17350877Y2602105D01*
X17350877Y2602105D02*
X17398496Y2578296D01*
X17398496Y2578296D02*
X17565163Y2578296D01*
X16803258Y2316391D02*
X17088972Y2316391D01*
X16946115Y2316391D02*
X16946115Y2816391D01*
X16946115Y2816391D02*
X16993734Y2744962D01*
X16993734Y2744962D02*
X17041353Y2697343D01*
X17041353Y2697343D02*
X17088972Y2673534D01*
X16374687Y2649724D02*
X16374687Y2316391D01*
X16493735Y2840200D02*
X16612782Y2483058D01*
X16612782Y2483058D02*
X16303259Y2483058D01*
D10*
X2710839Y25927800D02*
X2567982Y25880181D01*
X2567982Y25880181D02*
X2329887Y25880181D01*
X2329887Y25880181D02*
X2234649Y25927800D01*
X2234649Y25927800D02*
X2187030Y25975420D01*
X2187030Y25975420D02*
X2139411Y26070658D01*
X2139411Y26070658D02*
X2139411Y26165896D01*
X2139411Y26165896D02*
X2187030Y26261134D01*
X2187030Y26261134D02*
X2234649Y26308753D01*
X2234649Y26308753D02*
X2329887Y26356372D01*
X2329887Y26356372D02*
X2520363Y26403991D01*
X2520363Y26403991D02*
X2615601Y26451610D01*
X2615601Y26451610D02*
X2663220Y26499229D01*
X2663220Y26499229D02*
X2710839Y26594467D01*
X2710839Y26594467D02*
X2710839Y26689705D01*
X2710839Y26689705D02*
X2663220Y26784943D01*
X2663220Y26784943D02*
X2615601Y26832562D01*
X2615601Y26832562D02*
X2520363Y26880181D01*
X2520363Y26880181D02*
X2282268Y26880181D01*
X2282268Y26880181D02*
X2139411Y26832562D01*
X1139411Y25975420D02*
X1187030Y25927800D01*
X1187030Y25927800D02*
X1329887Y25880181D01*
X1329887Y25880181D02*
X1425125Y25880181D01*
X1425125Y25880181D02*
X1567982Y25927800D01*
X1567982Y25927800D02*
X1663220Y26023039D01*
X1663220Y26023039D02*
X1710839Y26118277D01*
X1710839Y26118277D02*
X1758458Y26308753D01*
X1758458Y26308753D02*
X1758458Y26451610D01*
X1758458Y26451610D02*
X1710839Y26642086D01*
X1710839Y26642086D02*
X1663220Y26737324D01*
X1663220Y26737324D02*
X1567982Y26832562D01*
X1567982Y26832562D02*
X1425125Y26880181D01*
X1425125Y26880181D02*
X1329887Y26880181D01*
X1329887Y26880181D02*
X1187030Y26832562D01*
X1187030Y26832562D02*
X1139411Y26784943D01*
X234649Y25880181D02*
X710839Y25880181D01*
X710839Y25880181D02*
X710839Y26880181D01*
X2913220Y13130181D02*
X2913220Y14130181D01*
X2913220Y14130181D02*
X2532268Y14130181D01*
X2532268Y14130181D02*
X2437030Y14082562D01*
X2437030Y14082562D02*
X2389411Y14034943D01*
X2389411Y14034943D02*
X2341792Y13939705D01*
X2341792Y13939705D02*
X2341792Y13796848D01*
X2341792Y13796848D02*
X2389411Y13701610D01*
X2389411Y13701610D02*
X2437030Y13653991D01*
X2437030Y13653991D02*
X2532268Y13606372D01*
X2532268Y13606372D02*
X2913220Y13606372D01*
X1913220Y13130181D02*
X1913220Y14130181D01*
X1913220Y14130181D02*
X1675125Y14130181D01*
X1675125Y14130181D02*
X1532268Y14082562D01*
X1532268Y14082562D02*
X1437030Y13987324D01*
X1437030Y13987324D02*
X1389411Y13892086D01*
X1389411Y13892086D02*
X1341792Y13701610D01*
X1341792Y13701610D02*
X1341792Y13558753D01*
X1341792Y13558753D02*
X1389411Y13368277D01*
X1389411Y13368277D02*
X1437030Y13273039D01*
X1437030Y13273039D02*
X1532268Y13177800D01*
X1532268Y13177800D02*
X1675125Y13130181D01*
X1675125Y13130181D02*
X1913220Y13130181D01*
X1008458Y14130181D02*
X389411Y14130181D01*
X389411Y14130181D02*
X722744Y13749229D01*
X722744Y13749229D02*
X579887Y13749229D01*
X579887Y13749229D02*
X484649Y13701610D01*
X484649Y13701610D02*
X437030Y13653991D01*
X437030Y13653991D02*
X389411Y13558753D01*
X389411Y13558753D02*
X389411Y13320658D01*
X389411Y13320658D02*
X437030Y13225420D01*
X437030Y13225420D02*
X484649Y13177800D01*
X484649Y13177800D02*
X579887Y13130181D01*
X579887Y13130181D02*
X865601Y13130181D01*
X865601Y13130181D02*
X960839Y13177800D01*
X960839Y13177800D02*
X1008458Y13225420D01*
D11*
X18065163Y-3183609D02*
X18065163Y-2683609D01*
X18065163Y-2683609D02*
X17874687Y-2683609D01*
X17874687Y-2683609D02*
X17827068Y-2707419D01*
X17827068Y-2707419D02*
X17803258Y-2731228D01*
X17803258Y-2731228D02*
X17779449Y-2778847D01*
X17779449Y-2778847D02*
X17779449Y-2850276D01*
X17779449Y-2850276D02*
X17803258Y-2897895D01*
X17803258Y-2897895D02*
X17827068Y-2921704D01*
X17827068Y-2921704D02*
X17874687Y-2945514D01*
X17874687Y-2945514D02*
X18065163Y-2945514D01*
X17398496Y-2921704D02*
X17327068Y-2945514D01*
X17327068Y-2945514D02*
X17303258Y-2969323D01*
X17303258Y-2969323D02*
X17279449Y-3016942D01*
X17279449Y-3016942D02*
X17279449Y-3088371D01*
X17279449Y-3088371D02*
X17303258Y-3135990D01*
X17303258Y-3135990D02*
X17327068Y-3159800D01*
X17327068Y-3159800D02*
X17374687Y-3183609D01*
X17374687Y-3183609D02*
X17565163Y-3183609D01*
X17565163Y-3183609D02*
X17565163Y-2683609D01*
X17565163Y-2683609D02*
X17398496Y-2683609D01*
X17398496Y-2683609D02*
X17350877Y-2707419D01*
X17350877Y-2707419D02*
X17327068Y-2731228D01*
X17327068Y-2731228D02*
X17303258Y-2778847D01*
X17303258Y-2778847D02*
X17303258Y-2826466D01*
X17303258Y-2826466D02*
X17327068Y-2874085D01*
X17327068Y-2874085D02*
X17350877Y-2897895D01*
X17350877Y-2897895D02*
X17398496Y-2921704D01*
X17398496Y-2921704D02*
X17565163Y-2921704D01*
X16803258Y-3183609D02*
X17088972Y-3183609D01*
X16946115Y-3183609D02*
X16946115Y-2683609D01*
X16946115Y-2683609D02*
X16993734Y-2755038D01*
X16993734Y-2755038D02*
X17041353Y-2802657D01*
X17041353Y-2802657D02*
X17088972Y-2826466D01*
X16636592Y-2683609D02*
X16327068Y-2683609D01*
X16327068Y-2683609D02*
X16493735Y-2874085D01*
X16493735Y-2874085D02*
X16422306Y-2874085D01*
X16422306Y-2874085D02*
X16374687Y-2897895D01*
X16374687Y-2897895D02*
X16350878Y-2921704D01*
X16350878Y-2921704D02*
X16327068Y-2969323D01*
X16327068Y-2969323D02*
X16327068Y-3088371D01*
X16327068Y-3088371D02*
X16350878Y-3135990D01*
X16350878Y-3135990D02*
X16374687Y-3159800D01*
X16374687Y-3159800D02*
X16422306Y-3183609D01*
X16422306Y-3183609D02*
X16565163Y-3183609D01*
X16565163Y-3183609D02*
X16612782Y-3159800D01*
X16612782Y-3159800D02*
X16636592Y-3135990D01*
D10*
X30591792Y18225420D02*
X30639411Y18177800D01*
X30639411Y18177800D02*
X30782268Y18130181D01*
X30782268Y18130181D02*
X30877506Y18130181D01*
X30877506Y18130181D02*
X31020363Y18177800D01*
X31020363Y18177800D02*
X31115601Y18273039D01*
X31115601Y18273039D02*
X31163220Y18368277D01*
X31163220Y18368277D02*
X31210839Y18558753D01*
X31210839Y18558753D02*
X31210839Y18701610D01*
X31210839Y18701610D02*
X31163220Y18892086D01*
X31163220Y18892086D02*
X31115601Y18987324D01*
X31115601Y18987324D02*
X31020363Y19082562D01*
X31020363Y19082562D02*
X30877506Y19130181D01*
X30877506Y19130181D02*
X30782268Y19130181D01*
X30782268Y19130181D02*
X30639411Y19082562D01*
X30639411Y19082562D02*
X30591792Y19034943D01*
X30210839Y18415896D02*
X29734649Y18415896D01*
X30306077Y18130181D02*
X29972744Y19130181D01*
X29972744Y19130181D02*
X29639411Y18130181D01*
X29306077Y18130181D02*
X29306077Y19130181D01*
X29306077Y19130181D02*
X28734649Y18130181D01*
X28734649Y18130181D02*
X28734649Y19130181D01*
X28496554Y18034943D02*
X27734649Y18034943D01*
X27639410Y19130181D02*
X27067982Y19130181D01*
X27353696Y18130181D02*
X27353696Y19130181D01*
X26829886Y19130181D02*
X26163220Y18130181D01*
X26163220Y19130181D02*
X26829886Y18130181D01*
D11*
X13065163Y2316391D02*
X13065163Y2816391D01*
X13065163Y2816391D02*
X12898496Y2459248D01*
X12898496Y2459248D02*
X12731830Y2816391D01*
X12731830Y2816391D02*
X12731830Y2316391D01*
X12398496Y2816391D02*
X12303258Y2816391D01*
X12303258Y2816391D02*
X12255639Y2792581D01*
X12255639Y2792581D02*
X12208020Y2744962D01*
X12208020Y2744962D02*
X12184210Y2649724D01*
X12184210Y2649724D02*
X12184210Y2483058D01*
X12184210Y2483058D02*
X12208020Y2387820D01*
X12208020Y2387820D02*
X12255639Y2340200D01*
X12255639Y2340200D02*
X12303258Y2316391D01*
X12303258Y2316391D02*
X12398496Y2316391D01*
X12398496Y2316391D02*
X12446115Y2340200D01*
X12446115Y2340200D02*
X12493734Y2387820D01*
X12493734Y2387820D02*
X12517543Y2483058D01*
X12517543Y2483058D02*
X12517543Y2649724D01*
X12517543Y2649724D02*
X12493734Y2744962D01*
X12493734Y2744962D02*
X12446115Y2792581D01*
X12446115Y2792581D02*
X12398496Y2816391D01*
X11993733Y2340200D02*
X11922305Y2316391D01*
X11922305Y2316391D02*
X11803257Y2316391D01*
X11803257Y2316391D02*
X11755638Y2340200D01*
X11755638Y2340200D02*
X11731829Y2364010D01*
X11731829Y2364010D02*
X11708019Y2411629D01*
X11708019Y2411629D02*
X11708019Y2459248D01*
X11708019Y2459248D02*
X11731829Y2506867D01*
X11731829Y2506867D02*
X11755638Y2530677D01*
X11755638Y2530677D02*
X11803257Y2554486D01*
X11803257Y2554486D02*
X11898495Y2578296D01*
X11898495Y2578296D02*
X11946114Y2602105D01*
X11946114Y2602105D02*
X11969924Y2625915D01*
X11969924Y2625915D02*
X11993733Y2673534D01*
X11993733Y2673534D02*
X11993733Y2721153D01*
X11993733Y2721153D02*
X11969924Y2768772D01*
X11969924Y2768772D02*
X11946114Y2792581D01*
X11946114Y2792581D02*
X11898495Y2816391D01*
X11898495Y2816391D02*
X11779448Y2816391D01*
X11779448Y2816391D02*
X11708019Y2792581D01*
X11493734Y2316391D02*
X11493734Y2816391D01*
X5588972Y-3040752D02*
X5350877Y-3040752D01*
X5636591Y-3183609D02*
X5469925Y-2683609D01*
X5469925Y-2683609D02*
X5303258Y-3183609D01*
X5136592Y-3183609D02*
X5136592Y-2683609D01*
X5136592Y-2683609D02*
X5017544Y-2683609D01*
X5017544Y-2683609D02*
X4946116Y-2707419D01*
X4946116Y-2707419D02*
X4898497Y-2755038D01*
X4898497Y-2755038D02*
X4874687Y-2802657D01*
X4874687Y-2802657D02*
X4850878Y-2897895D01*
X4850878Y-2897895D02*
X4850878Y-2969323D01*
X4850878Y-2969323D02*
X4874687Y-3064561D01*
X4874687Y-3064561D02*
X4898497Y-3112180D01*
X4898497Y-3112180D02*
X4946116Y-3159800D01*
X4946116Y-3159800D02*
X5017544Y-3183609D01*
X5017544Y-3183609D02*
X5136592Y-3183609D01*
X4350878Y-3135990D02*
X4374687Y-3159800D01*
X4374687Y-3159800D02*
X4446116Y-3183609D01*
X4446116Y-3183609D02*
X4493735Y-3183609D01*
X4493735Y-3183609D02*
X4565163Y-3159800D01*
X4565163Y-3159800D02*
X4612782Y-3112180D01*
X4612782Y-3112180D02*
X4636592Y-3064561D01*
X4636592Y-3064561D02*
X4660401Y-2969323D01*
X4660401Y-2969323D02*
X4660401Y-2897895D01*
X4660401Y-2897895D02*
X4636592Y-2802657D01*
X4636592Y-2802657D02*
X4612782Y-2755038D01*
X4612782Y-2755038D02*
X4565163Y-2707419D01*
X4565163Y-2707419D02*
X4493735Y-2683609D01*
X4493735Y-2683609D02*
X4446116Y-2683609D01*
X4446116Y-2683609D02*
X4374687Y-2707419D01*
X4374687Y-2707419D02*
X4350878Y-2731228D01*
X3874687Y-3183609D02*
X4160401Y-3183609D01*
X4017544Y-3183609D02*
X4017544Y-2683609D01*
X4017544Y-2683609D02*
X4065163Y-2755038D01*
X4065163Y-2755038D02*
X4112782Y-2802657D01*
X4112782Y-2802657D02*
X4160401Y-2826466D01*
X3779450Y-3231228D02*
X3398497Y-3231228D01*
X3279450Y-3183609D02*
X3279450Y-2683609D01*
X3041355Y-3183609D02*
X3041355Y-2683609D01*
X3041355Y-2683609D02*
X2755641Y-3183609D01*
X2755641Y-3183609D02*
X2755641Y-2683609D01*
X2255640Y-3183609D02*
X2541354Y-3183609D01*
X2398497Y-3183609D02*
X2398497Y-2683609D01*
X2398497Y-2683609D02*
X2446116Y-2755038D01*
X2446116Y-2755038D02*
X2493735Y-2802657D01*
X2493735Y-2802657D02*
X2541354Y-2826466D01*
D10*
X30591792Y20630181D02*
X30925125Y21106372D01*
X31163220Y20630181D02*
X31163220Y21630181D01*
X31163220Y21630181D02*
X30782268Y21630181D01*
X30782268Y21630181D02*
X30687030Y21582562D01*
X30687030Y21582562D02*
X30639411Y21534943D01*
X30639411Y21534943D02*
X30591792Y21439705D01*
X30591792Y21439705D02*
X30591792Y21296848D01*
X30591792Y21296848D02*
X30639411Y21201610D01*
X30639411Y21201610D02*
X30687030Y21153991D01*
X30687030Y21153991D02*
X30782268Y21106372D01*
X30782268Y21106372D02*
X31163220Y21106372D01*
X30258458Y20630181D02*
X29734649Y21296848D01*
X30258458Y21296848D02*
X29734649Y20630181D01*
D11*
X7815163Y2316391D02*
X7815163Y2816391D01*
X7815163Y2816391D02*
X7624687Y2816391D01*
X7624687Y2816391D02*
X7577068Y2792581D01*
X7577068Y2792581D02*
X7553258Y2768772D01*
X7553258Y2768772D02*
X7529449Y2721153D01*
X7529449Y2721153D02*
X7529449Y2649724D01*
X7529449Y2649724D02*
X7553258Y2602105D01*
X7553258Y2602105D02*
X7577068Y2578296D01*
X7577068Y2578296D02*
X7624687Y2554486D01*
X7624687Y2554486D02*
X7815163Y2554486D01*
X7338972Y2459248D02*
X7100877Y2459248D01*
X7386591Y2316391D02*
X7219925Y2816391D01*
X7219925Y2816391D02*
X7053258Y2316391D01*
X6910401Y2768772D02*
X6886592Y2792581D01*
X6886592Y2792581D02*
X6838973Y2816391D01*
X6838973Y2816391D02*
X6719925Y2816391D01*
X6719925Y2816391D02*
X6672306Y2792581D01*
X6672306Y2792581D02*
X6648497Y2768772D01*
X6648497Y2768772D02*
X6624687Y2721153D01*
X6624687Y2721153D02*
X6624687Y2673534D01*
X6624687Y2673534D02*
X6648497Y2602105D01*
X6648497Y2602105D02*
X6934211Y2316391D01*
X6934211Y2316391D02*
X6624687Y2316391D01*
X27803258Y-2707419D02*
X27850877Y-2683609D01*
X27850877Y-2683609D02*
X27922306Y-2683609D01*
X27922306Y-2683609D02*
X27993734Y-2707419D01*
X27993734Y-2707419D02*
X28041353Y-2755038D01*
X28041353Y-2755038D02*
X28065163Y-2802657D01*
X28065163Y-2802657D02*
X28088972Y-2897895D01*
X28088972Y-2897895D02*
X28088972Y-2969323D01*
X28088972Y-2969323D02*
X28065163Y-3064561D01*
X28065163Y-3064561D02*
X28041353Y-3112180D01*
X28041353Y-3112180D02*
X27993734Y-3159800D01*
X27993734Y-3159800D02*
X27922306Y-3183609D01*
X27922306Y-3183609D02*
X27874687Y-3183609D01*
X27874687Y-3183609D02*
X27803258Y-3159800D01*
X27803258Y-3159800D02*
X27779449Y-3135990D01*
X27779449Y-3135990D02*
X27779449Y-2969323D01*
X27779449Y-2969323D02*
X27874687Y-2969323D01*
X27565163Y-3183609D02*
X27565163Y-2683609D01*
X27565163Y-2683609D02*
X27279449Y-3183609D01*
X27279449Y-3183609D02*
X27279449Y-2683609D01*
X27041353Y-3183609D02*
X27041353Y-2683609D01*
X27041353Y-2683609D02*
X26922305Y-2683609D01*
X26922305Y-2683609D02*
X26850877Y-2707419D01*
X26850877Y-2707419D02*
X26803258Y-2755038D01*
X26803258Y-2755038D02*
X26779448Y-2802657D01*
X26779448Y-2802657D02*
X26755639Y-2897895D01*
X26755639Y-2897895D02*
X26755639Y-2969323D01*
X26755639Y-2969323D02*
X26779448Y-3064561D01*
X26779448Y-3064561D02*
X26803258Y-3112180D01*
X26803258Y-3112180D02*
X26850877Y-3159800D01*
X26850877Y-3159800D02*
X26922305Y-3183609D01*
X26922305Y-3183609D02*
X27041353Y-3183609D01*
M02*
