%TF.GenerationSoftware,KiCad,Pcbnew,8.0.4*%
%TF.CreationDate,2024-09-07T18:39:39+01:00*%
%TF.ProjectId,Microll,4d696372-6f6c-46c2-9e6b-696361645f70,rev?*%
%TF.SameCoordinates,PX564eba0PY53724e0*%
%TF.FileFunction,Drillmap*%
%TF.FilePolarity,Positive*%
%FSLAX45Y45*%
G04 Gerber Fmt 4.5, Leading zero omitted, Abs format (unit mm)*
G04 Created by KiCad (PCBNEW 8.0.4) date 2024-09-07 18:39:39*
%MOMM*%
%LPD*%
G01*
G04 APERTURE LIST*
%ADD10C,0.100000*%
%ADD11C,0.200000*%
%ADD12C,0.220000*%
G04 APERTURE END LIST*
D10*
X0Y4250000D02*
X3200000Y4250000D01*
X3200000Y4250000D02*
G75*
G02*
X3550000Y3900000I0J-350000D01*
G01*
X3550000Y0D02*
G75*
G02*
X3200000Y-350000I-350000J0D01*
G01*
X-350000Y0D02*
X-350000Y3900000D01*
X3550000Y3900000D02*
X3550000Y0D01*
X3200000Y-350000D02*
X0Y-350000D01*
X0Y-350000D02*
G75*
G02*
X-350000Y0I0J350000D01*
G01*
X-350000Y3900000D02*
G75*
G02*
X0Y4250000I350000J0D01*
G01*
D11*
D10*
X2879000Y1172450D02*
X2944000Y1107450D01*
X2944000Y1172450D02*
X2879000Y1107450D01*
X2879000Y594450D02*
X2944000Y529450D01*
X2944000Y594450D02*
X2879000Y529450D01*
D12*
X110000Y3900000D02*
G75*
G02*
X-110000Y3900000I-110000J0D01*
G01*
X-110000Y3900000D02*
G75*
G02*
X110000Y3900000I110000J0D01*
G01*
X110000Y0D02*
G75*
G02*
X-110000Y0I-110000J0D01*
G01*
X-110000Y0D02*
G75*
G02*
X110000Y0I110000J0D01*
G01*
X3310000Y3900000D02*
G75*
G02*
X3090000Y3900000I-110000J0D01*
G01*
X3090000Y3900000D02*
G75*
G02*
X3310000Y3900000I110000J0D01*
G01*
X3310000Y0D02*
G75*
G02*
X3090000Y0I-110000J0D01*
G01*
X3090000Y0D02*
G75*
G02*
X3310000Y0I110000J0D01*
G01*
D11*
X-94223Y-666484D02*
X-94223Y-466484D01*
X-94223Y-466484D02*
X-46604Y-466484D01*
X-46604Y-466484D02*
X-18033Y-476008D01*
X-18033Y-476008D02*
X1015Y-495055D01*
X1015Y-495055D02*
X10539Y-514103D01*
X10539Y-514103D02*
X20063Y-552198D01*
X20063Y-552198D02*
X20063Y-580770D01*
X20063Y-580770D02*
X10539Y-618865D01*
X10539Y-618865D02*
X1015Y-637912D01*
X1015Y-637912D02*
X-18033Y-656960D01*
X-18033Y-656960D02*
X-46604Y-666484D01*
X-46604Y-666484D02*
X-94223Y-666484D01*
X105777Y-666484D02*
X105777Y-533150D01*
X105777Y-571246D02*
X115301Y-552198D01*
X115301Y-552198D02*
X124824Y-542674D01*
X124824Y-542674D02*
X143872Y-533150D01*
X143872Y-533150D02*
X162920Y-533150D01*
X229586Y-666484D02*
X229586Y-533150D01*
X229586Y-466484D02*
X220062Y-476008D01*
X220062Y-476008D02*
X229586Y-485531D01*
X229586Y-485531D02*
X239110Y-476008D01*
X239110Y-476008D02*
X229586Y-466484D01*
X229586Y-466484D02*
X229586Y-485531D01*
X353396Y-666484D02*
X334348Y-656960D01*
X334348Y-656960D02*
X324824Y-637912D01*
X324824Y-637912D02*
X324824Y-466484D01*
X458158Y-666484D02*
X439110Y-656960D01*
X439110Y-656960D02*
X429586Y-637912D01*
X429586Y-637912D02*
X429586Y-466484D01*
X686729Y-666484D02*
X686729Y-466484D01*
X686729Y-466484D02*
X753396Y-609341D01*
X753396Y-609341D02*
X820062Y-466484D01*
X820062Y-466484D02*
X820062Y-666484D01*
X1001015Y-666484D02*
X1001015Y-561722D01*
X1001015Y-561722D02*
X991491Y-542674D01*
X991491Y-542674D02*
X972443Y-533150D01*
X972443Y-533150D02*
X934348Y-533150D01*
X934348Y-533150D02*
X915301Y-542674D01*
X1001015Y-656960D02*
X981967Y-666484D01*
X981967Y-666484D02*
X934348Y-666484D01*
X934348Y-666484D02*
X915301Y-656960D01*
X915301Y-656960D02*
X905777Y-637912D01*
X905777Y-637912D02*
X905777Y-618865D01*
X905777Y-618865D02*
X915301Y-599817D01*
X915301Y-599817D02*
X934348Y-590293D01*
X934348Y-590293D02*
X981967Y-590293D01*
X981967Y-590293D02*
X1001015Y-580770D01*
X1096253Y-533150D02*
X1096253Y-733150D01*
X1096253Y-542674D02*
X1115301Y-533150D01*
X1115301Y-533150D02*
X1153396Y-533150D01*
X1153396Y-533150D02*
X1172444Y-542674D01*
X1172444Y-542674D02*
X1181967Y-552198D01*
X1181967Y-552198D02*
X1191491Y-571246D01*
X1191491Y-571246D02*
X1191491Y-628389D01*
X1191491Y-628389D02*
X1181967Y-647436D01*
X1181967Y-647436D02*
X1172444Y-656960D01*
X1172444Y-656960D02*
X1153396Y-666484D01*
X1153396Y-666484D02*
X1115301Y-666484D01*
X1115301Y-666484D02*
X1096253Y-656960D01*
X1277205Y-647436D02*
X1286729Y-656960D01*
X1286729Y-656960D02*
X1277205Y-666484D01*
X1277205Y-666484D02*
X1267682Y-656960D01*
X1267682Y-656960D02*
X1277205Y-647436D01*
X1277205Y-647436D02*
X1277205Y-666484D01*
X1277205Y-542674D02*
X1286729Y-552198D01*
X1286729Y-552198D02*
X1277205Y-561722D01*
X1277205Y-561722D02*
X1267682Y-552198D01*
X1267682Y-552198D02*
X1277205Y-542674D01*
X1277205Y-542674D02*
X1277205Y-561722D01*
D10*
X-420000Y-962500D02*
X-355000Y-1027500D01*
X-355000Y-962500D02*
X-420000Y-1027500D01*
D11*
X-56128Y-886484D02*
X-37080Y-886484D01*
X-37080Y-886484D02*
X-18033Y-896008D01*
X-18033Y-896008D02*
X-8509Y-905531D01*
X-8509Y-905531D02*
X1015Y-924579D01*
X1015Y-924579D02*
X10539Y-962674D01*
X10539Y-962674D02*
X10539Y-1010293D01*
X10539Y-1010293D02*
X1015Y-1048388D01*
X1015Y-1048388D02*
X-8509Y-1067436D01*
X-8509Y-1067436D02*
X-18033Y-1076960D01*
X-18033Y-1076960D02*
X-37080Y-1086484D01*
X-37080Y-1086484D02*
X-56128Y-1086484D01*
X-56128Y-1086484D02*
X-75176Y-1076960D01*
X-75176Y-1076960D02*
X-84699Y-1067436D01*
X-84699Y-1067436D02*
X-94223Y-1048388D01*
X-94223Y-1048388D02*
X-103747Y-1010293D01*
X-103747Y-1010293D02*
X-103747Y-962674D01*
X-103747Y-962674D02*
X-94223Y-924579D01*
X-94223Y-924579D02*
X-84699Y-905531D01*
X-84699Y-905531D02*
X-75176Y-896008D01*
X-75176Y-896008D02*
X-56128Y-886484D01*
X96253Y-1067436D02*
X105777Y-1076960D01*
X105777Y-1076960D02*
X96253Y-1086484D01*
X96253Y-1086484D02*
X86729Y-1076960D01*
X86729Y-1076960D02*
X96253Y-1067436D01*
X96253Y-1067436D02*
X96253Y-1086484D01*
X277205Y-886484D02*
X239110Y-886484D01*
X239110Y-886484D02*
X220062Y-896008D01*
X220062Y-896008D02*
X210539Y-905531D01*
X210539Y-905531D02*
X191491Y-934103D01*
X191491Y-934103D02*
X181967Y-972198D01*
X181967Y-972198D02*
X181967Y-1048388D01*
X181967Y-1048388D02*
X191491Y-1067436D01*
X191491Y-1067436D02*
X201015Y-1076960D01*
X201015Y-1076960D02*
X220062Y-1086484D01*
X220062Y-1086484D02*
X258158Y-1086484D01*
X258158Y-1086484D02*
X277205Y-1076960D01*
X277205Y-1076960D02*
X286729Y-1067436D01*
X286729Y-1067436D02*
X296253Y-1048388D01*
X296253Y-1048388D02*
X296253Y-1000769D01*
X296253Y-1000769D02*
X286729Y-981722D01*
X286729Y-981722D02*
X277205Y-972198D01*
X277205Y-972198D02*
X258158Y-962674D01*
X258158Y-962674D02*
X220062Y-962674D01*
X220062Y-962674D02*
X201015Y-972198D01*
X201015Y-972198D02*
X191491Y-981722D01*
X191491Y-981722D02*
X181967Y-1000769D01*
X477205Y-886484D02*
X381967Y-886484D01*
X381967Y-886484D02*
X372443Y-981722D01*
X372443Y-981722D02*
X381967Y-972198D01*
X381967Y-972198D02*
X401015Y-962674D01*
X401015Y-962674D02*
X448634Y-962674D01*
X448634Y-962674D02*
X467682Y-972198D01*
X467682Y-972198D02*
X477205Y-981722D01*
X477205Y-981722D02*
X486729Y-1000769D01*
X486729Y-1000769D02*
X486729Y-1048388D01*
X486729Y-1048388D02*
X477205Y-1067436D01*
X477205Y-1067436D02*
X467682Y-1076960D01*
X467682Y-1076960D02*
X448634Y-1086484D01*
X448634Y-1086484D02*
X401015Y-1086484D01*
X401015Y-1086484D02*
X381967Y-1076960D01*
X381967Y-1076960D02*
X372443Y-1067436D01*
X610539Y-886484D02*
X629586Y-886484D01*
X629586Y-886484D02*
X648634Y-896008D01*
X648634Y-896008D02*
X658158Y-905531D01*
X658158Y-905531D02*
X667682Y-924579D01*
X667682Y-924579D02*
X677205Y-962674D01*
X677205Y-962674D02*
X677205Y-1010293D01*
X677205Y-1010293D02*
X667682Y-1048388D01*
X667682Y-1048388D02*
X658158Y-1067436D01*
X658158Y-1067436D02*
X648634Y-1076960D01*
X648634Y-1076960D02*
X629586Y-1086484D01*
X629586Y-1086484D02*
X610539Y-1086484D01*
X610539Y-1086484D02*
X591491Y-1076960D01*
X591491Y-1076960D02*
X581967Y-1067436D01*
X581967Y-1067436D02*
X572444Y-1048388D01*
X572444Y-1048388D02*
X562920Y-1010293D01*
X562920Y-1010293D02*
X562920Y-962674D01*
X562920Y-962674D02*
X572444Y-924579D01*
X572444Y-924579D02*
X581967Y-905531D01*
X581967Y-905531D02*
X591491Y-896008D01*
X591491Y-896008D02*
X610539Y-886484D01*
X762920Y-1086484D02*
X762920Y-953150D01*
X762920Y-972198D02*
X772443Y-962674D01*
X772443Y-962674D02*
X791491Y-953150D01*
X791491Y-953150D02*
X820063Y-953150D01*
X820063Y-953150D02*
X839110Y-962674D01*
X839110Y-962674D02*
X848634Y-981722D01*
X848634Y-981722D02*
X848634Y-1086484D01*
X848634Y-981722D02*
X858158Y-962674D01*
X858158Y-962674D02*
X877205Y-953150D01*
X877205Y-953150D02*
X905777Y-953150D01*
X905777Y-953150D02*
X924824Y-962674D01*
X924824Y-962674D02*
X934348Y-981722D01*
X934348Y-981722D02*
X934348Y-1086484D01*
X1029586Y-1086484D02*
X1029586Y-953150D01*
X1029586Y-972198D02*
X1039110Y-962674D01*
X1039110Y-962674D02*
X1058158Y-953150D01*
X1058158Y-953150D02*
X1086729Y-953150D01*
X1086729Y-953150D02*
X1105777Y-962674D01*
X1105777Y-962674D02*
X1115301Y-981722D01*
X1115301Y-981722D02*
X1115301Y-1086484D01*
X1115301Y-981722D02*
X1124825Y-962674D01*
X1124825Y-962674D02*
X1143872Y-953150D01*
X1143872Y-953150D02*
X1172444Y-953150D01*
X1172444Y-953150D02*
X1191491Y-962674D01*
X1191491Y-962674D02*
X1201015Y-981722D01*
X1201015Y-981722D02*
X1201015Y-1086484D01*
X1591491Y-876960D02*
X1420063Y-1134103D01*
X1848634Y-886484D02*
X1867682Y-886484D01*
X1867682Y-886484D02*
X1886729Y-896008D01*
X1886729Y-896008D02*
X1896253Y-905531D01*
X1896253Y-905531D02*
X1905777Y-924579D01*
X1905777Y-924579D02*
X1915301Y-962674D01*
X1915301Y-962674D02*
X1915301Y-1010293D01*
X1915301Y-1010293D02*
X1905777Y-1048388D01*
X1905777Y-1048388D02*
X1896253Y-1067436D01*
X1896253Y-1067436D02*
X1886729Y-1076960D01*
X1886729Y-1076960D02*
X1867682Y-1086484D01*
X1867682Y-1086484D02*
X1848634Y-1086484D01*
X1848634Y-1086484D02*
X1829586Y-1076960D01*
X1829586Y-1076960D02*
X1820063Y-1067436D01*
X1820063Y-1067436D02*
X1810539Y-1048388D01*
X1810539Y-1048388D02*
X1801015Y-1010293D01*
X1801015Y-1010293D02*
X1801015Y-962674D01*
X1801015Y-962674D02*
X1810539Y-924579D01*
X1810539Y-924579D02*
X1820063Y-905531D01*
X1820063Y-905531D02*
X1829586Y-896008D01*
X1829586Y-896008D02*
X1848634Y-886484D01*
X2001015Y-1067436D02*
X2010539Y-1076960D01*
X2010539Y-1076960D02*
X2001015Y-1086484D01*
X2001015Y-1086484D02*
X1991491Y-1076960D01*
X1991491Y-1076960D02*
X2001015Y-1067436D01*
X2001015Y-1067436D02*
X2001015Y-1086484D01*
X2134348Y-886484D02*
X2153396Y-886484D01*
X2153396Y-886484D02*
X2172444Y-896008D01*
X2172444Y-896008D02*
X2181968Y-905531D01*
X2181968Y-905531D02*
X2191491Y-924579D01*
X2191491Y-924579D02*
X2201015Y-962674D01*
X2201015Y-962674D02*
X2201015Y-1010293D01*
X2201015Y-1010293D02*
X2191491Y-1048388D01*
X2191491Y-1048388D02*
X2181968Y-1067436D01*
X2181968Y-1067436D02*
X2172444Y-1076960D01*
X2172444Y-1076960D02*
X2153396Y-1086484D01*
X2153396Y-1086484D02*
X2134348Y-1086484D01*
X2134348Y-1086484D02*
X2115301Y-1076960D01*
X2115301Y-1076960D02*
X2105777Y-1067436D01*
X2105777Y-1067436D02*
X2096253Y-1048388D01*
X2096253Y-1048388D02*
X2086729Y-1010293D01*
X2086729Y-1010293D02*
X2086729Y-962674D01*
X2086729Y-962674D02*
X2096253Y-924579D01*
X2096253Y-924579D02*
X2105777Y-905531D01*
X2105777Y-905531D02*
X2115301Y-896008D01*
X2115301Y-896008D02*
X2134348Y-886484D01*
X2277206Y-905531D02*
X2286729Y-896008D01*
X2286729Y-896008D02*
X2305777Y-886484D01*
X2305777Y-886484D02*
X2353396Y-886484D01*
X2353396Y-886484D02*
X2372444Y-896008D01*
X2372444Y-896008D02*
X2381968Y-905531D01*
X2381968Y-905531D02*
X2391491Y-924579D01*
X2391491Y-924579D02*
X2391491Y-943627D01*
X2391491Y-943627D02*
X2381968Y-972198D01*
X2381968Y-972198D02*
X2267682Y-1086484D01*
X2267682Y-1086484D02*
X2391491Y-1086484D01*
X2572444Y-886484D02*
X2477206Y-886484D01*
X2477206Y-886484D02*
X2467682Y-981722D01*
X2467682Y-981722D02*
X2477206Y-972198D01*
X2477206Y-972198D02*
X2496253Y-962674D01*
X2496253Y-962674D02*
X2543872Y-962674D01*
X2543872Y-962674D02*
X2562920Y-972198D01*
X2562920Y-972198D02*
X2572444Y-981722D01*
X2572444Y-981722D02*
X2581968Y-1000769D01*
X2581968Y-1000769D02*
X2581968Y-1048388D01*
X2581968Y-1048388D02*
X2572444Y-1067436D01*
X2572444Y-1067436D02*
X2562920Y-1076960D01*
X2562920Y-1076960D02*
X2543872Y-1086484D01*
X2543872Y-1086484D02*
X2496253Y-1086484D01*
X2496253Y-1086484D02*
X2477206Y-1076960D01*
X2477206Y-1076960D02*
X2467682Y-1067436D01*
X2753396Y-886484D02*
X2715301Y-886484D01*
X2715301Y-886484D02*
X2696253Y-896008D01*
X2696253Y-896008D02*
X2686729Y-905531D01*
X2686729Y-905531D02*
X2667682Y-934103D01*
X2667682Y-934103D02*
X2658158Y-972198D01*
X2658158Y-972198D02*
X2658158Y-1048388D01*
X2658158Y-1048388D02*
X2667682Y-1067436D01*
X2667682Y-1067436D02*
X2677206Y-1076960D01*
X2677206Y-1076960D02*
X2696253Y-1086484D01*
X2696253Y-1086484D02*
X2734349Y-1086484D01*
X2734349Y-1086484D02*
X2753396Y-1076960D01*
X2753396Y-1076960D02*
X2762920Y-1067436D01*
X2762920Y-1067436D02*
X2772444Y-1048388D01*
X2772444Y-1048388D02*
X2772444Y-1000769D01*
X2772444Y-1000769D02*
X2762920Y-981722D01*
X2762920Y-981722D02*
X2753396Y-972198D01*
X2753396Y-972198D02*
X2734349Y-962674D01*
X2734349Y-962674D02*
X2696253Y-962674D01*
X2696253Y-962674D02*
X2677206Y-972198D01*
X2677206Y-972198D02*
X2667682Y-981722D01*
X2667682Y-981722D02*
X2658158Y-1000769D01*
X2848634Y-886484D02*
X2848634Y-924579D01*
X2924825Y-886484D02*
X2924825Y-924579D01*
X3220063Y-1162674D02*
X3210539Y-1153150D01*
X3210539Y-1153150D02*
X3191491Y-1124579D01*
X3191491Y-1124579D02*
X3181968Y-1105531D01*
X3181968Y-1105531D02*
X3172444Y-1076960D01*
X3172444Y-1076960D02*
X3162920Y-1029341D01*
X3162920Y-1029341D02*
X3162920Y-991246D01*
X3162920Y-991246D02*
X3172444Y-943627D01*
X3172444Y-943627D02*
X3181968Y-915055D01*
X3181968Y-915055D02*
X3191491Y-896008D01*
X3191491Y-896008D02*
X3210539Y-867436D01*
X3210539Y-867436D02*
X3220063Y-857912D01*
X3286729Y-905531D02*
X3296253Y-896008D01*
X3296253Y-896008D02*
X3315301Y-886484D01*
X3315301Y-886484D02*
X3362920Y-886484D01*
X3362920Y-886484D02*
X3381968Y-896008D01*
X3381968Y-896008D02*
X3391491Y-905531D01*
X3391491Y-905531D02*
X3401015Y-924579D01*
X3401015Y-924579D02*
X3401015Y-943627D01*
X3401015Y-943627D02*
X3391491Y-972198D01*
X3391491Y-972198D02*
X3277206Y-1086484D01*
X3277206Y-1086484D02*
X3401015Y-1086484D01*
X3639110Y-1086484D02*
X3639110Y-886484D01*
X3724825Y-1086484D02*
X3724825Y-981722D01*
X3724825Y-981722D02*
X3715301Y-962674D01*
X3715301Y-962674D02*
X3696253Y-953150D01*
X3696253Y-953150D02*
X3667682Y-953150D01*
X3667682Y-953150D02*
X3648634Y-962674D01*
X3648634Y-962674D02*
X3639110Y-972198D01*
X3848634Y-1086484D02*
X3829587Y-1076960D01*
X3829587Y-1076960D02*
X3820063Y-1067436D01*
X3820063Y-1067436D02*
X3810539Y-1048388D01*
X3810539Y-1048388D02*
X3810539Y-991246D01*
X3810539Y-991246D02*
X3820063Y-972198D01*
X3820063Y-972198D02*
X3829587Y-962674D01*
X3829587Y-962674D02*
X3848634Y-953150D01*
X3848634Y-953150D02*
X3877206Y-953150D01*
X3877206Y-953150D02*
X3896253Y-962674D01*
X3896253Y-962674D02*
X3905777Y-972198D01*
X3905777Y-972198D02*
X3915301Y-991246D01*
X3915301Y-991246D02*
X3915301Y-1048388D01*
X3915301Y-1048388D02*
X3905777Y-1067436D01*
X3905777Y-1067436D02*
X3896253Y-1076960D01*
X3896253Y-1076960D02*
X3877206Y-1086484D01*
X3877206Y-1086484D02*
X3848634Y-1086484D01*
X4029587Y-1086484D02*
X4010539Y-1076960D01*
X4010539Y-1076960D02*
X4001015Y-1057912D01*
X4001015Y-1057912D02*
X4001015Y-886484D01*
X4181968Y-1076960D02*
X4162920Y-1086484D01*
X4162920Y-1086484D02*
X4124825Y-1086484D01*
X4124825Y-1086484D02*
X4105777Y-1076960D01*
X4105777Y-1076960D02*
X4096253Y-1057912D01*
X4096253Y-1057912D02*
X4096253Y-981722D01*
X4096253Y-981722D02*
X4105777Y-962674D01*
X4105777Y-962674D02*
X4124825Y-953150D01*
X4124825Y-953150D02*
X4162920Y-953150D01*
X4162920Y-953150D02*
X4181968Y-962674D01*
X4181968Y-962674D02*
X4191491Y-981722D01*
X4191491Y-981722D02*
X4191491Y-1000769D01*
X4191491Y-1000769D02*
X4096253Y-1019817D01*
X4267682Y-1076960D02*
X4286730Y-1086484D01*
X4286730Y-1086484D02*
X4324825Y-1086484D01*
X4324825Y-1086484D02*
X4343873Y-1076960D01*
X4343873Y-1076960D02*
X4353396Y-1057912D01*
X4353396Y-1057912D02*
X4353396Y-1048388D01*
X4353396Y-1048388D02*
X4343873Y-1029341D01*
X4343873Y-1029341D02*
X4324825Y-1019817D01*
X4324825Y-1019817D02*
X4296253Y-1019817D01*
X4296253Y-1019817D02*
X4277206Y-1010293D01*
X4277206Y-1010293D02*
X4267682Y-991246D01*
X4267682Y-991246D02*
X4267682Y-981722D01*
X4267682Y-981722D02*
X4277206Y-962674D01*
X4277206Y-962674D02*
X4296253Y-953150D01*
X4296253Y-953150D02*
X4324825Y-953150D01*
X4324825Y-953150D02*
X4343873Y-962674D01*
X4420063Y-1162674D02*
X4429587Y-1153150D01*
X4429587Y-1153150D02*
X4448634Y-1124579D01*
X4448634Y-1124579D02*
X4458158Y-1105531D01*
X4458158Y-1105531D02*
X4467682Y-1076960D01*
X4467682Y-1076960D02*
X4477206Y-1029341D01*
X4477206Y-1029341D02*
X4477206Y-991246D01*
X4477206Y-991246D02*
X4467682Y-943627D01*
X4467682Y-943627D02*
X4458158Y-915055D01*
X4458158Y-915055D02*
X4448634Y-896008D01*
X4448634Y-896008D02*
X4429587Y-867436D01*
X4429587Y-867436D02*
X4420063Y-857912D01*
X4781968Y-1162674D02*
X4772444Y-1153150D01*
X4772444Y-1153150D02*
X4753396Y-1124579D01*
X4753396Y-1124579D02*
X4743873Y-1105531D01*
X4743873Y-1105531D02*
X4734349Y-1076960D01*
X4734349Y-1076960D02*
X4724825Y-1029341D01*
X4724825Y-1029341D02*
X4724825Y-991246D01*
X4724825Y-991246D02*
X4734349Y-943627D01*
X4734349Y-943627D02*
X4743873Y-915055D01*
X4743873Y-915055D02*
X4753396Y-896008D01*
X4753396Y-896008D02*
X4772444Y-867436D01*
X4772444Y-867436D02*
X4781968Y-857912D01*
X4858158Y-953150D02*
X4858158Y-1086484D01*
X4858158Y-972198D02*
X4867682Y-962674D01*
X4867682Y-962674D02*
X4886730Y-953150D01*
X4886730Y-953150D02*
X4915301Y-953150D01*
X4915301Y-953150D02*
X4934349Y-962674D01*
X4934349Y-962674D02*
X4943873Y-981722D01*
X4943873Y-981722D02*
X4943873Y-1086484D01*
X5067682Y-1086484D02*
X5048634Y-1076960D01*
X5048634Y-1076960D02*
X5039111Y-1067436D01*
X5039111Y-1067436D02*
X5029587Y-1048388D01*
X5029587Y-1048388D02*
X5029587Y-991246D01*
X5029587Y-991246D02*
X5039111Y-972198D01*
X5039111Y-972198D02*
X5048634Y-962674D01*
X5048634Y-962674D02*
X5067682Y-953150D01*
X5067682Y-953150D02*
X5096254Y-953150D01*
X5096254Y-953150D02*
X5115301Y-962674D01*
X5115301Y-962674D02*
X5124825Y-972198D01*
X5124825Y-972198D02*
X5134349Y-991246D01*
X5134349Y-991246D02*
X5134349Y-1048388D01*
X5134349Y-1048388D02*
X5124825Y-1067436D01*
X5124825Y-1067436D02*
X5115301Y-1076960D01*
X5115301Y-1076960D02*
X5096254Y-1086484D01*
X5096254Y-1086484D02*
X5067682Y-1086484D01*
X5191492Y-953150D02*
X5267682Y-953150D01*
X5220063Y-886484D02*
X5220063Y-1057912D01*
X5220063Y-1057912D02*
X5229587Y-1076960D01*
X5229587Y-1076960D02*
X5248634Y-1086484D01*
X5248634Y-1086484D02*
X5267682Y-1086484D01*
X5486730Y-953150D02*
X5486730Y-1153150D01*
X5486730Y-962674D02*
X5505777Y-953150D01*
X5505777Y-953150D02*
X5543873Y-953150D01*
X5543873Y-953150D02*
X5562920Y-962674D01*
X5562920Y-962674D02*
X5572444Y-972198D01*
X5572444Y-972198D02*
X5581968Y-991246D01*
X5581968Y-991246D02*
X5581968Y-1048388D01*
X5581968Y-1048388D02*
X5572444Y-1067436D01*
X5572444Y-1067436D02*
X5562920Y-1076960D01*
X5562920Y-1076960D02*
X5543873Y-1086484D01*
X5543873Y-1086484D02*
X5505777Y-1086484D01*
X5505777Y-1086484D02*
X5486730Y-1076960D01*
X5696253Y-1086484D02*
X5677206Y-1076960D01*
X5677206Y-1076960D02*
X5667682Y-1057912D01*
X5667682Y-1057912D02*
X5667682Y-886484D01*
X5858158Y-1086484D02*
X5858158Y-981722D01*
X5858158Y-981722D02*
X5848634Y-962674D01*
X5848634Y-962674D02*
X5829587Y-953150D01*
X5829587Y-953150D02*
X5791492Y-953150D01*
X5791492Y-953150D02*
X5772444Y-962674D01*
X5858158Y-1076960D02*
X5839111Y-1086484D01*
X5839111Y-1086484D02*
X5791492Y-1086484D01*
X5791492Y-1086484D02*
X5772444Y-1076960D01*
X5772444Y-1076960D02*
X5762920Y-1057912D01*
X5762920Y-1057912D02*
X5762920Y-1038865D01*
X5762920Y-1038865D02*
X5772444Y-1019817D01*
X5772444Y-1019817D02*
X5791492Y-1010293D01*
X5791492Y-1010293D02*
X5839111Y-1010293D01*
X5839111Y-1010293D02*
X5858158Y-1000769D01*
X5924825Y-953150D02*
X6001015Y-953150D01*
X5953396Y-886484D02*
X5953396Y-1057912D01*
X5953396Y-1057912D02*
X5962920Y-1076960D01*
X5962920Y-1076960D02*
X5981968Y-1086484D01*
X5981968Y-1086484D02*
X6001015Y-1086484D01*
X6143873Y-1076960D02*
X6124825Y-1086484D01*
X6124825Y-1086484D02*
X6086730Y-1086484D01*
X6086730Y-1086484D02*
X6067682Y-1076960D01*
X6067682Y-1076960D02*
X6058158Y-1057912D01*
X6058158Y-1057912D02*
X6058158Y-981722D01*
X6058158Y-981722D02*
X6067682Y-962674D01*
X6067682Y-962674D02*
X6086730Y-953150D01*
X6086730Y-953150D02*
X6124825Y-953150D01*
X6124825Y-953150D02*
X6143873Y-962674D01*
X6143873Y-962674D02*
X6153396Y-981722D01*
X6153396Y-981722D02*
X6153396Y-1000769D01*
X6153396Y-1000769D02*
X6058158Y-1019817D01*
X6324825Y-1086484D02*
X6324825Y-886484D01*
X6324825Y-1076960D02*
X6305777Y-1086484D01*
X6305777Y-1086484D02*
X6267682Y-1086484D01*
X6267682Y-1086484D02*
X6248634Y-1076960D01*
X6248634Y-1076960D02*
X6239111Y-1067436D01*
X6239111Y-1067436D02*
X6229587Y-1048388D01*
X6229587Y-1048388D02*
X6229587Y-991246D01*
X6229587Y-991246D02*
X6239111Y-972198D01*
X6239111Y-972198D02*
X6248634Y-962674D01*
X6248634Y-962674D02*
X6267682Y-953150D01*
X6267682Y-953150D02*
X6305777Y-953150D01*
X6305777Y-953150D02*
X6324825Y-962674D01*
X6401015Y-1162674D02*
X6410539Y-1153150D01*
X6410539Y-1153150D02*
X6429587Y-1124579D01*
X6429587Y-1124579D02*
X6439111Y-1105531D01*
X6439111Y-1105531D02*
X6448634Y-1076960D01*
X6448634Y-1076960D02*
X6458158Y-1029341D01*
X6458158Y-1029341D02*
X6458158Y-991246D01*
X6458158Y-991246D02*
X6448634Y-943627D01*
X6448634Y-943627D02*
X6439111Y-915055D01*
X6439111Y-915055D02*
X6429587Y-896008D01*
X6429587Y-896008D02*
X6410539Y-867436D01*
X6410539Y-867436D02*
X6401015Y-857912D01*
X-355000Y-1259000D02*
G75*
G02*
X-555000Y-1259000I-100000J0D01*
G01*
X-555000Y-1259000D02*
G75*
G02*
X-355000Y-1259000I100000J0D01*
G01*
X-103747Y-1169531D02*
X-94223Y-1160008D01*
X-94223Y-1160008D02*
X-75176Y-1150484D01*
X-75176Y-1150484D02*
X-27556Y-1150484D01*
X-27556Y-1150484D02*
X-8509Y-1160008D01*
X-8509Y-1160008D02*
X1015Y-1169531D01*
X1015Y-1169531D02*
X10539Y-1188579D01*
X10539Y-1188579D02*
X10539Y-1207627D01*
X10539Y-1207627D02*
X1015Y-1236198D01*
X1015Y-1236198D02*
X-113271Y-1350484D01*
X-113271Y-1350484D02*
X10539Y-1350484D01*
X96253Y-1331436D02*
X105777Y-1340960D01*
X105777Y-1340960D02*
X96253Y-1350484D01*
X96253Y-1350484D02*
X86729Y-1340960D01*
X86729Y-1340960D02*
X96253Y-1331436D01*
X96253Y-1331436D02*
X96253Y-1350484D01*
X181967Y-1169531D02*
X191491Y-1160008D01*
X191491Y-1160008D02*
X210539Y-1150484D01*
X210539Y-1150484D02*
X258158Y-1150484D01*
X258158Y-1150484D02*
X277205Y-1160008D01*
X277205Y-1160008D02*
X286729Y-1169531D01*
X286729Y-1169531D02*
X296253Y-1188579D01*
X296253Y-1188579D02*
X296253Y-1207627D01*
X296253Y-1207627D02*
X286729Y-1236198D01*
X286729Y-1236198D02*
X172444Y-1350484D01*
X172444Y-1350484D02*
X296253Y-1350484D01*
X420062Y-1150484D02*
X439110Y-1150484D01*
X439110Y-1150484D02*
X458158Y-1160008D01*
X458158Y-1160008D02*
X467682Y-1169531D01*
X467682Y-1169531D02*
X477205Y-1188579D01*
X477205Y-1188579D02*
X486729Y-1226674D01*
X486729Y-1226674D02*
X486729Y-1274293D01*
X486729Y-1274293D02*
X477205Y-1312389D01*
X477205Y-1312389D02*
X467682Y-1331436D01*
X467682Y-1331436D02*
X458158Y-1340960D01*
X458158Y-1340960D02*
X439110Y-1350484D01*
X439110Y-1350484D02*
X420062Y-1350484D01*
X420062Y-1350484D02*
X401015Y-1340960D01*
X401015Y-1340960D02*
X391491Y-1331436D01*
X391491Y-1331436D02*
X381967Y-1312389D01*
X381967Y-1312389D02*
X372443Y-1274293D01*
X372443Y-1274293D02*
X372443Y-1226674D01*
X372443Y-1226674D02*
X381967Y-1188579D01*
X381967Y-1188579D02*
X391491Y-1169531D01*
X391491Y-1169531D02*
X401015Y-1160008D01*
X401015Y-1160008D02*
X420062Y-1150484D01*
X610539Y-1150484D02*
X629586Y-1150484D01*
X629586Y-1150484D02*
X648634Y-1160008D01*
X648634Y-1160008D02*
X658158Y-1169531D01*
X658158Y-1169531D02*
X667682Y-1188579D01*
X667682Y-1188579D02*
X677205Y-1226674D01*
X677205Y-1226674D02*
X677205Y-1274293D01*
X677205Y-1274293D02*
X667682Y-1312389D01*
X667682Y-1312389D02*
X658158Y-1331436D01*
X658158Y-1331436D02*
X648634Y-1340960D01*
X648634Y-1340960D02*
X629586Y-1350484D01*
X629586Y-1350484D02*
X610539Y-1350484D01*
X610539Y-1350484D02*
X591491Y-1340960D01*
X591491Y-1340960D02*
X581967Y-1331436D01*
X581967Y-1331436D02*
X572444Y-1312389D01*
X572444Y-1312389D02*
X562920Y-1274293D01*
X562920Y-1274293D02*
X562920Y-1226674D01*
X562920Y-1226674D02*
X572444Y-1188579D01*
X572444Y-1188579D02*
X581967Y-1169531D01*
X581967Y-1169531D02*
X591491Y-1160008D01*
X591491Y-1160008D02*
X610539Y-1150484D01*
X762920Y-1350484D02*
X762920Y-1217150D01*
X762920Y-1236198D02*
X772443Y-1226674D01*
X772443Y-1226674D02*
X791491Y-1217150D01*
X791491Y-1217150D02*
X820063Y-1217150D01*
X820063Y-1217150D02*
X839110Y-1226674D01*
X839110Y-1226674D02*
X848634Y-1245722D01*
X848634Y-1245722D02*
X848634Y-1350484D01*
X848634Y-1245722D02*
X858158Y-1226674D01*
X858158Y-1226674D02*
X877205Y-1217150D01*
X877205Y-1217150D02*
X905777Y-1217150D01*
X905777Y-1217150D02*
X924824Y-1226674D01*
X924824Y-1226674D02*
X934348Y-1245722D01*
X934348Y-1245722D02*
X934348Y-1350484D01*
X1029586Y-1350484D02*
X1029586Y-1217150D01*
X1029586Y-1236198D02*
X1039110Y-1226674D01*
X1039110Y-1226674D02*
X1058158Y-1217150D01*
X1058158Y-1217150D02*
X1086729Y-1217150D01*
X1086729Y-1217150D02*
X1105777Y-1226674D01*
X1105777Y-1226674D02*
X1115301Y-1245722D01*
X1115301Y-1245722D02*
X1115301Y-1350484D01*
X1115301Y-1245722D02*
X1124825Y-1226674D01*
X1124825Y-1226674D02*
X1143872Y-1217150D01*
X1143872Y-1217150D02*
X1172444Y-1217150D01*
X1172444Y-1217150D02*
X1191491Y-1226674D01*
X1191491Y-1226674D02*
X1201015Y-1245722D01*
X1201015Y-1245722D02*
X1201015Y-1350484D01*
X1591491Y-1140960D02*
X1420063Y-1398103D01*
X1848634Y-1150484D02*
X1867682Y-1150484D01*
X1867682Y-1150484D02*
X1886729Y-1160008D01*
X1886729Y-1160008D02*
X1896253Y-1169531D01*
X1896253Y-1169531D02*
X1905777Y-1188579D01*
X1905777Y-1188579D02*
X1915301Y-1226674D01*
X1915301Y-1226674D02*
X1915301Y-1274293D01*
X1915301Y-1274293D02*
X1905777Y-1312389D01*
X1905777Y-1312389D02*
X1896253Y-1331436D01*
X1896253Y-1331436D02*
X1886729Y-1340960D01*
X1886729Y-1340960D02*
X1867682Y-1350484D01*
X1867682Y-1350484D02*
X1848634Y-1350484D01*
X1848634Y-1350484D02*
X1829586Y-1340960D01*
X1829586Y-1340960D02*
X1820063Y-1331436D01*
X1820063Y-1331436D02*
X1810539Y-1312389D01*
X1810539Y-1312389D02*
X1801015Y-1274293D01*
X1801015Y-1274293D02*
X1801015Y-1226674D01*
X1801015Y-1226674D02*
X1810539Y-1188579D01*
X1810539Y-1188579D02*
X1820063Y-1169531D01*
X1820063Y-1169531D02*
X1829586Y-1160008D01*
X1829586Y-1160008D02*
X1848634Y-1150484D01*
X2001015Y-1331436D02*
X2010539Y-1340960D01*
X2010539Y-1340960D02*
X2001015Y-1350484D01*
X2001015Y-1350484D02*
X1991491Y-1340960D01*
X1991491Y-1340960D02*
X2001015Y-1331436D01*
X2001015Y-1331436D02*
X2001015Y-1350484D01*
X2134348Y-1150484D02*
X2153396Y-1150484D01*
X2153396Y-1150484D02*
X2172444Y-1160008D01*
X2172444Y-1160008D02*
X2181968Y-1169531D01*
X2181968Y-1169531D02*
X2191491Y-1188579D01*
X2191491Y-1188579D02*
X2201015Y-1226674D01*
X2201015Y-1226674D02*
X2201015Y-1274293D01*
X2201015Y-1274293D02*
X2191491Y-1312389D01*
X2191491Y-1312389D02*
X2181968Y-1331436D01*
X2181968Y-1331436D02*
X2172444Y-1340960D01*
X2172444Y-1340960D02*
X2153396Y-1350484D01*
X2153396Y-1350484D02*
X2134348Y-1350484D01*
X2134348Y-1350484D02*
X2115301Y-1340960D01*
X2115301Y-1340960D02*
X2105777Y-1331436D01*
X2105777Y-1331436D02*
X2096253Y-1312389D01*
X2096253Y-1312389D02*
X2086729Y-1274293D01*
X2086729Y-1274293D02*
X2086729Y-1226674D01*
X2086729Y-1226674D02*
X2096253Y-1188579D01*
X2096253Y-1188579D02*
X2105777Y-1169531D01*
X2105777Y-1169531D02*
X2115301Y-1160008D01*
X2115301Y-1160008D02*
X2134348Y-1150484D01*
X2315301Y-1236198D02*
X2296253Y-1226674D01*
X2296253Y-1226674D02*
X2286729Y-1217150D01*
X2286729Y-1217150D02*
X2277206Y-1198103D01*
X2277206Y-1198103D02*
X2277206Y-1188579D01*
X2277206Y-1188579D02*
X2286729Y-1169531D01*
X2286729Y-1169531D02*
X2296253Y-1160008D01*
X2296253Y-1160008D02*
X2315301Y-1150484D01*
X2315301Y-1150484D02*
X2353396Y-1150484D01*
X2353396Y-1150484D02*
X2372444Y-1160008D01*
X2372444Y-1160008D02*
X2381968Y-1169531D01*
X2381968Y-1169531D02*
X2391491Y-1188579D01*
X2391491Y-1188579D02*
X2391491Y-1198103D01*
X2391491Y-1198103D02*
X2381968Y-1217150D01*
X2381968Y-1217150D02*
X2372444Y-1226674D01*
X2372444Y-1226674D02*
X2353396Y-1236198D01*
X2353396Y-1236198D02*
X2315301Y-1236198D01*
X2315301Y-1236198D02*
X2296253Y-1245722D01*
X2296253Y-1245722D02*
X2286729Y-1255246D01*
X2286729Y-1255246D02*
X2277206Y-1274293D01*
X2277206Y-1274293D02*
X2277206Y-1312389D01*
X2277206Y-1312389D02*
X2286729Y-1331436D01*
X2286729Y-1331436D02*
X2296253Y-1340960D01*
X2296253Y-1340960D02*
X2315301Y-1350484D01*
X2315301Y-1350484D02*
X2353396Y-1350484D01*
X2353396Y-1350484D02*
X2372444Y-1340960D01*
X2372444Y-1340960D02*
X2381968Y-1331436D01*
X2381968Y-1331436D02*
X2391491Y-1312389D01*
X2391491Y-1312389D02*
X2391491Y-1274293D01*
X2391491Y-1274293D02*
X2381968Y-1255246D01*
X2381968Y-1255246D02*
X2372444Y-1245722D01*
X2372444Y-1245722D02*
X2353396Y-1236198D01*
X2562920Y-1150484D02*
X2524825Y-1150484D01*
X2524825Y-1150484D02*
X2505777Y-1160008D01*
X2505777Y-1160008D02*
X2496253Y-1169531D01*
X2496253Y-1169531D02*
X2477206Y-1198103D01*
X2477206Y-1198103D02*
X2467682Y-1236198D01*
X2467682Y-1236198D02*
X2467682Y-1312389D01*
X2467682Y-1312389D02*
X2477206Y-1331436D01*
X2477206Y-1331436D02*
X2486729Y-1340960D01*
X2486729Y-1340960D02*
X2505777Y-1350484D01*
X2505777Y-1350484D02*
X2543872Y-1350484D01*
X2543872Y-1350484D02*
X2562920Y-1340960D01*
X2562920Y-1340960D02*
X2572444Y-1331436D01*
X2572444Y-1331436D02*
X2581968Y-1312389D01*
X2581968Y-1312389D02*
X2581968Y-1264770D01*
X2581968Y-1264770D02*
X2572444Y-1245722D01*
X2572444Y-1245722D02*
X2562920Y-1236198D01*
X2562920Y-1236198D02*
X2543872Y-1226674D01*
X2543872Y-1226674D02*
X2505777Y-1226674D01*
X2505777Y-1226674D02*
X2486729Y-1236198D01*
X2486729Y-1236198D02*
X2477206Y-1245722D01*
X2477206Y-1245722D02*
X2467682Y-1264770D01*
X2753396Y-1150484D02*
X2715301Y-1150484D01*
X2715301Y-1150484D02*
X2696253Y-1160008D01*
X2696253Y-1160008D02*
X2686729Y-1169531D01*
X2686729Y-1169531D02*
X2667682Y-1198103D01*
X2667682Y-1198103D02*
X2658158Y-1236198D01*
X2658158Y-1236198D02*
X2658158Y-1312389D01*
X2658158Y-1312389D02*
X2667682Y-1331436D01*
X2667682Y-1331436D02*
X2677206Y-1340960D01*
X2677206Y-1340960D02*
X2696253Y-1350484D01*
X2696253Y-1350484D02*
X2734349Y-1350484D01*
X2734349Y-1350484D02*
X2753396Y-1340960D01*
X2753396Y-1340960D02*
X2762920Y-1331436D01*
X2762920Y-1331436D02*
X2772444Y-1312389D01*
X2772444Y-1312389D02*
X2772444Y-1264770D01*
X2772444Y-1264770D02*
X2762920Y-1245722D01*
X2762920Y-1245722D02*
X2753396Y-1236198D01*
X2753396Y-1236198D02*
X2734349Y-1226674D01*
X2734349Y-1226674D02*
X2696253Y-1226674D01*
X2696253Y-1226674D02*
X2677206Y-1236198D01*
X2677206Y-1236198D02*
X2667682Y-1245722D01*
X2667682Y-1245722D02*
X2658158Y-1264770D01*
X2848634Y-1150484D02*
X2848634Y-1188579D01*
X2924825Y-1150484D02*
X2924825Y-1188579D01*
X3220063Y-1426674D02*
X3210539Y-1417150D01*
X3210539Y-1417150D02*
X3191491Y-1388579D01*
X3191491Y-1388579D02*
X3181968Y-1369531D01*
X3181968Y-1369531D02*
X3172444Y-1340960D01*
X3172444Y-1340960D02*
X3162920Y-1293341D01*
X3162920Y-1293341D02*
X3162920Y-1255246D01*
X3162920Y-1255246D02*
X3172444Y-1207627D01*
X3172444Y-1207627D02*
X3181968Y-1179055D01*
X3181968Y-1179055D02*
X3191491Y-1160008D01*
X3191491Y-1160008D02*
X3210539Y-1131436D01*
X3210539Y-1131436D02*
X3220063Y-1121912D01*
X3381968Y-1217150D02*
X3381968Y-1350484D01*
X3334348Y-1140960D02*
X3286729Y-1283817D01*
X3286729Y-1283817D02*
X3410539Y-1283817D01*
X3639110Y-1350484D02*
X3639110Y-1150484D01*
X3724825Y-1350484D02*
X3724825Y-1245722D01*
X3724825Y-1245722D02*
X3715301Y-1226674D01*
X3715301Y-1226674D02*
X3696253Y-1217150D01*
X3696253Y-1217150D02*
X3667682Y-1217150D01*
X3667682Y-1217150D02*
X3648634Y-1226674D01*
X3648634Y-1226674D02*
X3639110Y-1236198D01*
X3848634Y-1350484D02*
X3829587Y-1340960D01*
X3829587Y-1340960D02*
X3820063Y-1331436D01*
X3820063Y-1331436D02*
X3810539Y-1312389D01*
X3810539Y-1312389D02*
X3810539Y-1255246D01*
X3810539Y-1255246D02*
X3820063Y-1236198D01*
X3820063Y-1236198D02*
X3829587Y-1226674D01*
X3829587Y-1226674D02*
X3848634Y-1217150D01*
X3848634Y-1217150D02*
X3877206Y-1217150D01*
X3877206Y-1217150D02*
X3896253Y-1226674D01*
X3896253Y-1226674D02*
X3905777Y-1236198D01*
X3905777Y-1236198D02*
X3915301Y-1255246D01*
X3915301Y-1255246D02*
X3915301Y-1312389D01*
X3915301Y-1312389D02*
X3905777Y-1331436D01*
X3905777Y-1331436D02*
X3896253Y-1340960D01*
X3896253Y-1340960D02*
X3877206Y-1350484D01*
X3877206Y-1350484D02*
X3848634Y-1350484D01*
X4029587Y-1350484D02*
X4010539Y-1340960D01*
X4010539Y-1340960D02*
X4001015Y-1321912D01*
X4001015Y-1321912D02*
X4001015Y-1150484D01*
X4181968Y-1340960D02*
X4162920Y-1350484D01*
X4162920Y-1350484D02*
X4124825Y-1350484D01*
X4124825Y-1350484D02*
X4105777Y-1340960D01*
X4105777Y-1340960D02*
X4096253Y-1321912D01*
X4096253Y-1321912D02*
X4096253Y-1245722D01*
X4096253Y-1245722D02*
X4105777Y-1226674D01*
X4105777Y-1226674D02*
X4124825Y-1217150D01*
X4124825Y-1217150D02*
X4162920Y-1217150D01*
X4162920Y-1217150D02*
X4181968Y-1226674D01*
X4181968Y-1226674D02*
X4191491Y-1245722D01*
X4191491Y-1245722D02*
X4191491Y-1264770D01*
X4191491Y-1264770D02*
X4096253Y-1283817D01*
X4267682Y-1340960D02*
X4286730Y-1350484D01*
X4286730Y-1350484D02*
X4324825Y-1350484D01*
X4324825Y-1350484D02*
X4343873Y-1340960D01*
X4343873Y-1340960D02*
X4353396Y-1321912D01*
X4353396Y-1321912D02*
X4353396Y-1312389D01*
X4353396Y-1312389D02*
X4343873Y-1293341D01*
X4343873Y-1293341D02*
X4324825Y-1283817D01*
X4324825Y-1283817D02*
X4296253Y-1283817D01*
X4296253Y-1283817D02*
X4277206Y-1274293D01*
X4277206Y-1274293D02*
X4267682Y-1255246D01*
X4267682Y-1255246D02*
X4267682Y-1245722D01*
X4267682Y-1245722D02*
X4277206Y-1226674D01*
X4277206Y-1226674D02*
X4296253Y-1217150D01*
X4296253Y-1217150D02*
X4324825Y-1217150D01*
X4324825Y-1217150D02*
X4343873Y-1226674D01*
X4420063Y-1426674D02*
X4429587Y-1417150D01*
X4429587Y-1417150D02*
X4448634Y-1388579D01*
X4448634Y-1388579D02*
X4458158Y-1369531D01*
X4458158Y-1369531D02*
X4467682Y-1340960D01*
X4467682Y-1340960D02*
X4477206Y-1293341D01*
X4477206Y-1293341D02*
X4477206Y-1255246D01*
X4477206Y-1255246D02*
X4467682Y-1207627D01*
X4467682Y-1207627D02*
X4458158Y-1179055D01*
X4458158Y-1179055D02*
X4448634Y-1160008D01*
X4448634Y-1160008D02*
X4429587Y-1131436D01*
X4429587Y-1131436D02*
X4420063Y-1121912D01*
X4781968Y-1426674D02*
X4772444Y-1417150D01*
X4772444Y-1417150D02*
X4753396Y-1388579D01*
X4753396Y-1388579D02*
X4743873Y-1369531D01*
X4743873Y-1369531D02*
X4734349Y-1340960D01*
X4734349Y-1340960D02*
X4724825Y-1293341D01*
X4724825Y-1293341D02*
X4724825Y-1255246D01*
X4724825Y-1255246D02*
X4734349Y-1207627D01*
X4734349Y-1207627D02*
X4743873Y-1179055D01*
X4743873Y-1179055D02*
X4753396Y-1160008D01*
X4753396Y-1160008D02*
X4772444Y-1131436D01*
X4772444Y-1131436D02*
X4781968Y-1121912D01*
X4858158Y-1217150D02*
X4858158Y-1350484D01*
X4858158Y-1236198D02*
X4867682Y-1226674D01*
X4867682Y-1226674D02*
X4886730Y-1217150D01*
X4886730Y-1217150D02*
X4915301Y-1217150D01*
X4915301Y-1217150D02*
X4934349Y-1226674D01*
X4934349Y-1226674D02*
X4943873Y-1245722D01*
X4943873Y-1245722D02*
X4943873Y-1350484D01*
X5067682Y-1350484D02*
X5048634Y-1340960D01*
X5048634Y-1340960D02*
X5039111Y-1331436D01*
X5039111Y-1331436D02*
X5029587Y-1312389D01*
X5029587Y-1312389D02*
X5029587Y-1255246D01*
X5029587Y-1255246D02*
X5039111Y-1236198D01*
X5039111Y-1236198D02*
X5048634Y-1226674D01*
X5048634Y-1226674D02*
X5067682Y-1217150D01*
X5067682Y-1217150D02*
X5096254Y-1217150D01*
X5096254Y-1217150D02*
X5115301Y-1226674D01*
X5115301Y-1226674D02*
X5124825Y-1236198D01*
X5124825Y-1236198D02*
X5134349Y-1255246D01*
X5134349Y-1255246D02*
X5134349Y-1312389D01*
X5134349Y-1312389D02*
X5124825Y-1331436D01*
X5124825Y-1331436D02*
X5115301Y-1340960D01*
X5115301Y-1340960D02*
X5096254Y-1350484D01*
X5096254Y-1350484D02*
X5067682Y-1350484D01*
X5191492Y-1217150D02*
X5267682Y-1217150D01*
X5220063Y-1150484D02*
X5220063Y-1321912D01*
X5220063Y-1321912D02*
X5229587Y-1340960D01*
X5229587Y-1340960D02*
X5248634Y-1350484D01*
X5248634Y-1350484D02*
X5267682Y-1350484D01*
X5486730Y-1217150D02*
X5486730Y-1417150D01*
X5486730Y-1226674D02*
X5505777Y-1217150D01*
X5505777Y-1217150D02*
X5543873Y-1217150D01*
X5543873Y-1217150D02*
X5562920Y-1226674D01*
X5562920Y-1226674D02*
X5572444Y-1236198D01*
X5572444Y-1236198D02*
X5581968Y-1255246D01*
X5581968Y-1255246D02*
X5581968Y-1312389D01*
X5581968Y-1312389D02*
X5572444Y-1331436D01*
X5572444Y-1331436D02*
X5562920Y-1340960D01*
X5562920Y-1340960D02*
X5543873Y-1350484D01*
X5543873Y-1350484D02*
X5505777Y-1350484D01*
X5505777Y-1350484D02*
X5486730Y-1340960D01*
X5696253Y-1350484D02*
X5677206Y-1340960D01*
X5677206Y-1340960D02*
X5667682Y-1321912D01*
X5667682Y-1321912D02*
X5667682Y-1150484D01*
X5858158Y-1350484D02*
X5858158Y-1245722D01*
X5858158Y-1245722D02*
X5848634Y-1226674D01*
X5848634Y-1226674D02*
X5829587Y-1217150D01*
X5829587Y-1217150D02*
X5791492Y-1217150D01*
X5791492Y-1217150D02*
X5772444Y-1226674D01*
X5858158Y-1340960D02*
X5839111Y-1350484D01*
X5839111Y-1350484D02*
X5791492Y-1350484D01*
X5791492Y-1350484D02*
X5772444Y-1340960D01*
X5772444Y-1340960D02*
X5762920Y-1321912D01*
X5762920Y-1321912D02*
X5762920Y-1302865D01*
X5762920Y-1302865D02*
X5772444Y-1283817D01*
X5772444Y-1283817D02*
X5791492Y-1274293D01*
X5791492Y-1274293D02*
X5839111Y-1274293D01*
X5839111Y-1274293D02*
X5858158Y-1264770D01*
X5924825Y-1217150D02*
X6001015Y-1217150D01*
X5953396Y-1150484D02*
X5953396Y-1321912D01*
X5953396Y-1321912D02*
X5962920Y-1340960D01*
X5962920Y-1340960D02*
X5981968Y-1350484D01*
X5981968Y-1350484D02*
X6001015Y-1350484D01*
X6143873Y-1340960D02*
X6124825Y-1350484D01*
X6124825Y-1350484D02*
X6086730Y-1350484D01*
X6086730Y-1350484D02*
X6067682Y-1340960D01*
X6067682Y-1340960D02*
X6058158Y-1321912D01*
X6058158Y-1321912D02*
X6058158Y-1245722D01*
X6058158Y-1245722D02*
X6067682Y-1226674D01*
X6067682Y-1226674D02*
X6086730Y-1217150D01*
X6086730Y-1217150D02*
X6124825Y-1217150D01*
X6124825Y-1217150D02*
X6143873Y-1226674D01*
X6143873Y-1226674D02*
X6153396Y-1245722D01*
X6153396Y-1245722D02*
X6153396Y-1264770D01*
X6153396Y-1264770D02*
X6058158Y-1283817D01*
X6324825Y-1350484D02*
X6324825Y-1150484D01*
X6324825Y-1340960D02*
X6305777Y-1350484D01*
X6305777Y-1350484D02*
X6267682Y-1350484D01*
X6267682Y-1350484D02*
X6248634Y-1340960D01*
X6248634Y-1340960D02*
X6239111Y-1331436D01*
X6239111Y-1331436D02*
X6229587Y-1312389D01*
X6229587Y-1312389D02*
X6229587Y-1255246D01*
X6229587Y-1255246D02*
X6239111Y-1236198D01*
X6239111Y-1236198D02*
X6248634Y-1226674D01*
X6248634Y-1226674D02*
X6267682Y-1217150D01*
X6267682Y-1217150D02*
X6305777Y-1217150D01*
X6305777Y-1217150D02*
X6324825Y-1226674D01*
X6401015Y-1426674D02*
X6410539Y-1417150D01*
X6410539Y-1417150D02*
X6429587Y-1388579D01*
X6429587Y-1388579D02*
X6439111Y-1369531D01*
X6439111Y-1369531D02*
X6448634Y-1340960D01*
X6448634Y-1340960D02*
X6458158Y-1293341D01*
X6458158Y-1293341D02*
X6458158Y-1255246D01*
X6458158Y-1255246D02*
X6448634Y-1207627D01*
X6448634Y-1207627D02*
X6439111Y-1179055D01*
X6439111Y-1179055D02*
X6429587Y-1160008D01*
X6429587Y-1160008D02*
X6410539Y-1131436D01*
X6410539Y-1131436D02*
X6401015Y-1121912D01*
M02*
