M48
; DRILL file {KiCad 7.0.10} date Sun Jan 28 17:09:21 2024
; FORMAT={-:-/ absolute / metric / decimal}
; #@! TF.CreationDate,2024-01-28T17:09:21+00:00
; #@! TF.GenerationSoftware,Kicad,Pcbnew,7.0.10
; #@! TF.FileFunction,Plated,1,2,PTH
FMAT,2
METRIC
; #@! TA.AperFunction,Plated,PTH,ViaDrill
T1C0.200
; #@! TA.AperFunction,Plated,PTH,ComponentDrill
T2C0.200
; #@! TA.AperFunction,Plated,PTH,ViaDrill
T3C0.400
; #@! TA.AperFunction,Plated,PTH,ComponentDrill
T4C0.600
; #@! TA.AperFunction,Plated,PTH,ComponentDrill
T5C0.650
%
G90
G05
T1
X21.75Y5.589
X22.053Y4.283
T2
X7.65Y18.782
X7.65Y17.682
X14.45Y27.95
X14.45Y26.85
X15.0Y28.5
X15.0Y27.4
X15.0Y26.3
X15.55Y27.95
X15.55Y26.85
X16.1Y28.5
X16.1Y27.4
X16.1Y26.3
X16.65Y27.95
X16.65Y26.85
T3
X-1.0Y6.45
X-1.0Y5.44
X-0.5Y4.55
X-0.1Y11.48
X-0.1Y10.21
X0.6Y4.55
X7.8Y21.65
X10.1Y13.35
X10.2Y4.45
X10.9Y27.25
X10.9Y9.65
X11.0Y8.55
X11.055Y10.638
X12.037Y13.287
X12.6Y27.25
X12.6Y22.85
X13.2Y33.25
X13.2Y32.0
X13.4Y14.85
X13.5Y29.25
X13.7Y19.45
X14.292Y10.677
X14.3Y6.05
X14.543Y8.668
X14.565Y9.715
X14.652Y22.85
X16.0Y2.55
X16.7Y14.85
X18.1Y25.71
X18.1Y24.71
X18.487Y12.563
X18.5Y11.55
X18.8Y6.05
X19.8Y9.85
X19.8Y8.05
X21.938Y11.15
X24.7Y6.15
X25.3Y17.15
X25.3Y14.05
X27.8Y2.55
T5
X-1.2Y16.56
X-1.2Y15.29
X-1.2Y14.02
X-1.2Y12.75
X-1.2Y11.48
X-1.2Y10.21
X-1.2Y8.94
X-1.2Y7.67
X0.0Y32.0
X0.0Y30.73
X0.0Y29.46
X0.0Y28.19
X0.0Y26.92
X0.0Y25.65
X0.0Y24.38
X0.0Y23.11
X4.44Y-0.5
X5.71Y-0.5
X6.98Y-0.5
X8.25Y-0.5
X9.52Y-0.5
X10.79Y-0.5
X12.06Y-0.5
X13.33Y-0.5
X30.0Y32.06
X30.0Y30.79
X30.0Y29.52
X30.0Y28.25
X30.0Y26.98
X30.0Y25.71
X30.0Y24.44
X30.0Y23.17
T4
G00X17.43Y5.125
M15
G01X17.43Y4.125
M16
G05
G00X17.43Y0.015
M15
G01X17.43Y-1.485
M16
G05
G00X26.07Y5.125
M15
G01X26.07Y4.125
M16
G05
G00X26.07Y0.015
M15
G01X26.07Y-1.485
M16
G05
M30
