%TF.GenerationSoftware,KiCad,Pcbnew,8.0.4*%
%TF.CreationDate,2024-09-07T18:47:58+01:00*%
%TF.ProjectId,Microll,4d696372-6f6c-46c2-9e6b-696361645f70,rev?*%
%TF.SameCoordinates,PX564eba0PY53724e0*%
%TF.FileFunction,Soldermask,Top*%
%TF.FilePolarity,Negative*%
%FSLAX46Y46*%
G04 Gerber Fmt 4.6, Leading zero omitted, Abs format (unit mm)*
G04 Created by KiCad (PCBNEW 8.0.4) date 2024-09-07 18:47:58*
%MOMM*%
%LPD*%
G01*
G04 APERTURE LIST*
G04 Aperture macros list*
%AMRoundRect*
0 Rectangle with rounded corners*
0 $1 Rounding radius*
0 $2 $3 $4 $5 $6 $7 $8 $9 X,Y pos of 4 corners*
0 Add a 4 corners polygon primitive as box body*
4,1,4,$2,$3,$4,$5,$6,$7,$8,$9,$2,$3,0*
0 Add four circle primitives for the rounded corners*
1,1,$1+$1,$2,$3*
1,1,$1+$1,$4,$5*
1,1,$1+$1,$6,$7*
1,1,$1+$1,$8,$9*
0 Add four rect primitives between the rounded corners*
20,1,$1+$1,$2,$3,$4,$5,0*
20,1,$1+$1,$4,$5,$6,$7,0*
20,1,$1+$1,$6,$7,$8,$9,0*
20,1,$1+$1,$8,$9,$2,$3,0*%
G04 Aperture macros list end*
%ADD10RoundRect,0.135000X-0.185000X0.135000X-0.185000X-0.135000X0.185000X-0.135000X0.185000X0.135000X0*%
%ADD11RoundRect,0.225000X0.375000X-0.225000X0.375000X0.225000X-0.375000X0.225000X-0.375000X-0.225000X0*%
%ADD12RoundRect,0.112500X-0.112500X-0.237500X0.112500X-0.237500X0.112500X0.237500X-0.112500X0.237500X0*%
%ADD13RoundRect,0.135000X-0.135000X-0.185000X0.135000X-0.185000X0.135000X0.185000X-0.135000X0.185000X0*%
%ADD14O,1.700000X1.700000*%
%ADD15R,1.700000X1.700000*%
%ADD16C,2.200000*%
%ADD17RoundRect,0.175000X-0.175000X-0.175000X0.175000X-0.175000X0.175000X0.175000X-0.175000X0.175000X0*%
%ADD18C,0.475000*%
%ADD19R,3.000000X3.000000*%
%ADD20RoundRect,0.225000X-0.525000X-0.225000X0.525000X-0.225000X0.525000X0.225000X-0.525000X0.225000X0*%
%ADD21RoundRect,0.225000X0.225000X0.250000X-0.225000X0.250000X-0.225000X-0.250000X0.225000X-0.250000X0*%
%ADD22RoundRect,0.093750X0.156250X0.093750X-0.156250X0.093750X-0.156250X-0.093750X0.156250X-0.093750X0*%
%ADD23RoundRect,0.075000X0.250000X0.075000X-0.250000X0.075000X-0.250000X-0.075000X0.250000X-0.075000X0*%
%ADD24RoundRect,0.140000X0.140000X0.170000X-0.140000X0.170000X-0.140000X-0.170000X0.140000X-0.170000X0*%
%ADD25R,1.270000X0.760000*%
%ADD26RoundRect,0.135000X0.185000X-0.135000X0.185000X0.135000X-0.185000X0.135000X-0.185000X-0.135000X0*%
%ADD27RoundRect,0.140000X-0.140000X-0.170000X0.140000X-0.170000X0.140000X0.170000X-0.140000X0.170000X0*%
%ADD28RoundRect,0.140000X0.170000X-0.140000X0.170000X0.140000X-0.170000X0.140000X-0.170000X-0.140000X0*%
%ADD29RoundRect,0.140000X-0.170000X0.140000X-0.170000X-0.140000X0.170000X-0.140000X0.170000X0.140000X0*%
%ADD30O,1.800000X1.000000*%
%ADD31O,2.100000X1.000000*%
%ADD32RoundRect,0.150000X0.425000X-0.150000X0.425000X0.150000X-0.425000X0.150000X-0.425000X-0.150000X0*%
%ADD33RoundRect,0.075000X0.500000X-0.075000X0.500000X0.075000X-0.500000X0.075000X-0.500000X-0.075000X0*%
%ADD34C,0.650000*%
%ADD35R,1.600000X1.000000*%
%ADD36RoundRect,0.093750X-0.106250X0.093750X-0.106250X-0.093750X0.106250X-0.093750X0.106250X0.093750X0*%
%ADD37RoundRect,0.100000X-0.100000X0.225000X-0.100000X-0.225000X0.100000X-0.225000X0.100000X0.225000X0*%
%ADD38RoundRect,0.125000X-0.125000X-0.125000X0.125000X-0.125000X0.125000X0.125000X-0.125000X0.125000X0*%
%ADD39RoundRect,0.300000X0.450000X-0.300000X0.450000X0.300000X-0.450000X0.300000X-0.450000X-0.300000X0*%
%ADD40RoundRect,0.075000X-0.075000X-0.662500X0.075000X-0.662500X0.075000X0.662500X-0.075000X0.662500X0*%
%ADD41RoundRect,0.075000X-0.662500X-0.075000X0.662500X-0.075000X0.662500X0.075000X-0.662500X0.075000X0*%
%ADD42R,0.500000X0.850000*%
%ADD43RoundRect,0.087500X0.225000X-0.087500X0.225000X0.087500X-0.225000X0.087500X-0.225000X-0.087500X0*%
%ADD44RoundRect,0.087500X0.087500X-0.225000X0.087500X0.225000X-0.087500X0.225000X-0.087500X-0.225000X0*%
G04 APERTURE END LIST*
D10*
%TO.C,R7*%
X25500000Y5430000D03*
X25500000Y6450000D03*
%TD*%
D11*
%TO.C,D2*%
X21350000Y11800000D03*
X21350000Y8500000D03*
%TD*%
D12*
%TO.C,U8*%
X28000000Y25250000D03*
X28650000Y23250000D03*
X27350000Y23250000D03*
%TD*%
D13*
%TO.C,R10*%
X10185000Y12925000D03*
X9165000Y12925000D03*
%TD*%
D14*
%TO.C,J1*%
X-1500000Y5810000D03*
X-1500000Y8350000D03*
X-1500000Y10890000D03*
X-1500000Y13430000D03*
X-1500000Y15970000D03*
X-1500000Y18510000D03*
X-1500000Y21050000D03*
X-1500000Y23590000D03*
X-1500000Y26130000D03*
X-1500000Y28670000D03*
X-1500000Y31210000D03*
D15*
X-1500000Y33750000D03*
%TD*%
D16*
%TO.C,H3*%
X0Y39000000D03*
%TD*%
D13*
%TO.C,R11*%
X28510000Y21925000D03*
X27490000Y21925000D03*
%TD*%
D17*
%TO.C,U1*%
X17888000Y28000000D03*
D18*
X17888000Y28550000D03*
D17*
X17888000Y29100000D03*
D18*
X17888000Y29650000D03*
D17*
X17888000Y30200000D03*
D18*
X17338000Y28000000D03*
X17338000Y29100000D03*
X17338000Y30200000D03*
D17*
X16788000Y28000000D03*
D18*
X16788000Y28550000D03*
D19*
X16788000Y29100000D03*
D17*
X16788000Y29100000D03*
D18*
X16788000Y29650000D03*
D17*
X16788000Y30200000D03*
D18*
X16238000Y28000000D03*
X16238000Y29100000D03*
X16238000Y30200000D03*
D17*
X15688000Y28000000D03*
D18*
X15688000Y28550000D03*
D17*
X15688000Y29100000D03*
D18*
X15688000Y29650000D03*
D17*
X15688000Y30200000D03*
D20*
X24938000Y35250000D03*
X24938000Y33750000D03*
X24938000Y32250000D03*
X24938000Y30750000D03*
X24938000Y29250000D03*
X24938000Y27750000D03*
X24938000Y26250000D03*
X24938000Y24750000D03*
X24938000Y23250000D03*
X7438000Y23250000D03*
X7438000Y24750000D03*
X7438000Y26250000D03*
X7438000Y27750000D03*
X7438000Y29250000D03*
X7438000Y30750000D03*
X7438000Y32250000D03*
X7438000Y33750000D03*
X7438000Y35250000D03*
%TD*%
D16*
%TO.C,H1*%
X0Y0D03*
%TD*%
D21*
%TO.C,C4*%
X2925000Y9100000D03*
X4475000Y9100000D03*
%TD*%
D13*
%TO.C,R3*%
X5060000Y13000000D03*
X4040000Y13000000D03*
%TD*%
D22*
%TO.C,U9*%
X23225000Y7968500D03*
D23*
X23150000Y8506000D03*
D22*
X23225000Y9043500D03*
X24925000Y9043500D03*
D23*
X25000000Y8506000D03*
D22*
X24925000Y7968500D03*
%TD*%
D16*
%TO.C,H4*%
X32000000Y39000000D03*
%TD*%
D24*
%TO.C,C1*%
X3495000Y4400000D03*
X4455000Y4400000D03*
%TD*%
D14*
%TO.C,J3*%
X33500000Y15970000D03*
X33500000Y18510000D03*
X33500000Y21050000D03*
X33500000Y23590000D03*
X33500000Y26130000D03*
X33500000Y28670000D03*
X33500000Y31210000D03*
D15*
X33500000Y33750000D03*
%TD*%
D13*
%TO.C,R2*%
X5060000Y11750000D03*
X4040000Y11750000D03*
%TD*%
D25*
%TO.C,SW4*%
X11104800Y19047000D03*
X11094800Y17777000D03*
X11094800Y16507000D03*
X3484800Y16507000D03*
X3484800Y17777000D03*
X3484800Y19047000D03*
%TD*%
D16*
%TO.C,H2*%
X32000000Y0D03*
%TD*%
D26*
%TO.C,R6*%
X25500000Y11510000D03*
X25500000Y10490000D03*
%TD*%
D13*
%TO.C,R9*%
X10185000Y14050000D03*
X9165000Y14050000D03*
%TD*%
D27*
%TO.C,C9*%
X9630000Y21450000D03*
X8670000Y21450000D03*
%TD*%
D24*
%TO.C,C8*%
X7320000Y6700000D03*
X8280000Y6700000D03*
%TD*%
D13*
%TO.C,R8*%
X6110000Y21460000D03*
X5090000Y21460000D03*
%TD*%
D28*
%TO.C,C6*%
X18470000Y17434000D03*
X18470000Y16474000D03*
%TD*%
D29*
%TO.C,C5*%
X6000000Y8270000D03*
X6000000Y9230000D03*
%TD*%
%TO.C,C2*%
X6000000Y6020000D03*
X6000000Y6980000D03*
%TD*%
%TO.C,C3*%
X8275000Y8245000D03*
X8275000Y9205000D03*
%TD*%
D14*
%TO.C,J2*%
X27460000Y-1500000D03*
X27460000Y1040000D03*
X24920000Y-1500000D03*
X24920000Y1040000D03*
X22380000Y-1500000D03*
X22380000Y1040000D03*
X19840000Y-1500000D03*
X19840000Y1040000D03*
X17300000Y-1500000D03*
X17300000Y1040000D03*
X14760000Y-1500000D03*
X14760000Y1040000D03*
X12220000Y-1500000D03*
X12220000Y1040000D03*
X9680000Y-1500000D03*
X9680000Y1040000D03*
X7140000Y-1500000D03*
X7140000Y1040000D03*
X4600000Y-1500000D03*
D15*
X4600000Y1040000D03*
%TD*%
D30*
%TO.C,J6*%
X32795000Y12829500D03*
D31*
X28615000Y12829500D03*
D30*
X32795000Y4189500D03*
D31*
X28615000Y4189500D03*
D32*
X28040000Y5309500D03*
X28040000Y6109500D03*
D33*
X28040000Y6759500D03*
X28040000Y7759500D03*
X28040000Y9259500D03*
X28040000Y10259500D03*
D32*
X28040000Y10909500D03*
X28040000Y11709500D03*
X28040000Y11709500D03*
X28040000Y10909500D03*
D33*
X28040000Y9759500D03*
X28040000Y8759500D03*
X28040000Y8259500D03*
X28040000Y7259500D03*
D32*
X28040000Y6109500D03*
X28040000Y5309500D03*
D34*
X29115000Y11399500D03*
X29115000Y5619500D03*
%TD*%
D35*
%TO.C,U2*%
X3850000Y6700000D03*
D36*
X4500000Y5812500D03*
X3850000Y5812500D03*
X3200000Y5812500D03*
X3200000Y7587500D03*
X3850000Y7587500D03*
X4500000Y7587500D03*
%TD*%
D37*
%TO.C,U4*%
X7675000Y10800000D03*
X7025000Y10800000D03*
X6375000Y10800000D03*
X6375000Y12700000D03*
X7025000Y12700000D03*
X7675000Y12700000D03*
%TD*%
D26*
%TO.C,R4*%
X13644000Y17492000D03*
X13644000Y16472000D03*
%TD*%
D13*
%TO.C,R1*%
X5060000Y10538000D03*
X4040000Y10538000D03*
%TD*%
D38*
%TO.C,D3*%
X23525000Y5712000D03*
X21325000Y5712000D03*
%TD*%
D39*
%TO.C,U5*%
X27000000Y20500000D03*
X27000000Y18000000D03*
X27000000Y15500000D03*
X20500000Y20500000D03*
X20500000Y18000000D03*
X20500000Y15500000D03*
%TD*%
D40*
%TO.C,U3*%
X11500000Y12662500D03*
X12000000Y12662500D03*
X12500000Y12662500D03*
X13000000Y12662500D03*
X13500000Y12662500D03*
X14000000Y12662500D03*
X14500000Y12662500D03*
X15000000Y12662500D03*
X15500000Y12662500D03*
X16000000Y12662500D03*
X16500000Y12662500D03*
X17000000Y12662500D03*
D41*
X18412500Y11250000D03*
X18412500Y10750000D03*
X18412500Y10250000D03*
X18412500Y9750000D03*
X18412500Y9250000D03*
X18412500Y8750000D03*
X18412500Y8250000D03*
X18412500Y7750000D03*
X18412500Y7250000D03*
X18412500Y6750000D03*
X18412500Y6250000D03*
X18412500Y5750000D03*
D40*
X17000000Y4337500D03*
X16500000Y4337500D03*
X16000000Y4337500D03*
X15500000Y4337500D03*
X15000000Y4337500D03*
X14500000Y4337500D03*
X14000000Y4337500D03*
X13500000Y4337500D03*
X13000000Y4337500D03*
X12500000Y4337500D03*
X12000000Y4337500D03*
X11500000Y4337500D03*
D41*
X10087500Y5750000D03*
X10087500Y6250000D03*
X10087500Y6750000D03*
X10087500Y7250000D03*
X10087500Y7750000D03*
X10087500Y8250000D03*
X10087500Y8750000D03*
X10087500Y9250000D03*
X10087500Y9750000D03*
X10087500Y10250000D03*
X10087500Y10750000D03*
X10087500Y11250000D03*
%TD*%
D29*
%TO.C,C7*%
X18470000Y18760000D03*
X18470000Y19720000D03*
%TD*%
D42*
%TO.C,D1*%
X3025000Y12893000D03*
X3025000Y11143000D03*
X2025000Y11143000D03*
X2025000Y12893000D03*
%TD*%
D43*
%TO.C,U6*%
X15087500Y17500000D03*
X15087500Y18000000D03*
X15087500Y18500000D03*
D44*
X15250000Y19162500D03*
X15750000Y19162500D03*
X16250000Y19162500D03*
X16750000Y19162500D03*
D43*
X16912500Y18500000D03*
X16912500Y18000000D03*
X16912500Y17500000D03*
D44*
X16750000Y16837500D03*
X16250000Y16837500D03*
X15750000Y16837500D03*
X15250000Y16837500D03*
%TD*%
D10*
%TO.C,R5*%
X13644000Y18758000D03*
X13644000Y19778000D03*
%TD*%
M02*
