%TF.GenerationSoftware,KiCad,Pcbnew,8.0.0*%
%TF.CreationDate,2024-03-01T21:25:54+00:00*%
%TF.ProjectId,Microll,4d696372-6f6c-46c2-9e6b-696361645f70,rev?*%
%TF.SameCoordinates,PX564eba0PY53724e0*%
%TF.FileFunction,Copper,L1,Top*%
%TF.FilePolarity,Positive*%
%FSLAX46Y46*%
G04 Gerber Fmt 4.6, Leading zero omitted, Abs format (unit mm)*
G04 Created by KiCad (PCBNEW 8.0.0) date 2024-03-01 21:25:54*
%MOMM*%
%LPD*%
G01*
G04 APERTURE LIST*
G04 Aperture macros list*
%AMRoundRect*
0 Rectangle with rounded corners*
0 $1 Rounding radius*
0 $2 $3 $4 $5 $6 $7 $8 $9 X,Y pos of 4 corners*
0 Add a 4 corners polygon primitive as box body*
4,1,4,$2,$3,$4,$5,$6,$7,$8,$9,$2,$3,0*
0 Add four circle primitives for the rounded corners*
1,1,$1+$1,$2,$3*
1,1,$1+$1,$4,$5*
1,1,$1+$1,$6,$7*
1,1,$1+$1,$8,$9*
0 Add four rect primitives between the rounded corners*
20,1,$1+$1,$2,$3,$4,$5,0*
20,1,$1+$1,$4,$5,$6,$7,0*
20,1,$1+$1,$6,$7,$8,$9,0*
20,1,$1+$1,$8,$9,$2,$3,0*%
%AMOutline5P*
0 Free polygon, 5 corners , with rotation*
0 The origin of the aperture is its center*
0 number of corners: always 5*
0 $1 to $10 corner X, Y*
0 $11 Rotation angle, in degrees counterclockwise*
0 create outline with 5 corners*
4,1,5,$1,$2,$3,$4,$5,$6,$7,$8,$9,$10,$1,$2,$11*%
%AMOutline6P*
0 Free polygon, 6 corners , with rotation*
0 The origin of the aperture is its center*
0 number of corners: always 6*
0 $1 to $12 corner X, Y*
0 $13 Rotation angle, in degrees counterclockwise*
0 create outline with 6 corners*
4,1,6,$1,$2,$3,$4,$5,$6,$7,$8,$9,$10,$11,$12,$1,$2,$13*%
%AMOutline7P*
0 Free polygon, 7 corners , with rotation*
0 The origin of the aperture is its center*
0 number of corners: always 7*
0 $1 to $14 corner X, Y*
0 $15 Rotation angle, in degrees counterclockwise*
0 create outline with 7 corners*
4,1,7,$1,$2,$3,$4,$5,$6,$7,$8,$9,$10,$11,$12,$13,$14,$1,$2,$15*%
%AMOutline8P*
0 Free polygon, 8 corners , with rotation*
0 The origin of the aperture is its center*
0 number of corners: always 8*
0 $1 to $16 corner X, Y*
0 $17 Rotation angle, in degrees counterclockwise*
0 create outline with 8 corners*
4,1,8,$1,$2,$3,$4,$5,$6,$7,$8,$9,$10,$11,$12,$13,$14,$15,$16,$1,$2,$17*%
%AMFreePoly0*
4,1,18,-0.275000,0.075000,-0.269291,0.103701,-0.253033,0.128033,-0.228701,0.144291,-0.200000,0.150000,0.200000,0.150000,0.228701,0.144291,0.253033,0.128033,0.269291,0.103701,0.275000,0.075000,0.275000,-0.075000,0.200000,-0.150000,-0.200000,-0.150000,-0.228701,-0.144291,-0.253033,-0.128033,-0.269291,-0.103701,-0.275000,-0.075000,-0.275000,0.075000,-0.275000,0.075000,$1*%
G04 Aperture macros list end*
%TA.AperFunction,SMDPad,CuDef*%
%ADD10RoundRect,0.135000X-0.185000X0.135000X-0.185000X-0.135000X0.185000X-0.135000X0.185000X0.135000X0*%
%TD*%
%TA.AperFunction,SMDPad,CuDef*%
%ADD11RoundRect,0.225000X0.375000X-0.225000X0.375000X0.225000X-0.375000X0.225000X-0.375000X-0.225000X0*%
%TD*%
%TA.AperFunction,ComponentPad*%
%ADD12R,1.700000X1.700000*%
%TD*%
%TA.AperFunction,ComponentPad*%
%ADD13O,1.700000X1.700000*%
%TD*%
%TA.AperFunction,SMDPad,CuDef*%
%ADD14RoundRect,0.225000X-0.525000X-0.225000X0.525000X-0.225000X0.525000X0.225000X-0.525000X0.225000X0*%
%TD*%
%TA.AperFunction,SMDPad,CuDef*%
%ADD15RoundRect,0.175000X-0.175000X-0.175000X0.175000X-0.175000X0.175000X0.175000X-0.175000X0.175000X0*%
%TD*%
%TA.AperFunction,ComponentPad*%
%ADD16C,0.475000*%
%TD*%
%TA.AperFunction,SMDPad,CuDef*%
%ADD17R,3.000000X3.000000*%
%TD*%
%TA.AperFunction,SMDPad,CuDef*%
%ADD18RoundRect,0.225000X0.225000X0.250000X-0.225000X0.250000X-0.225000X-0.250000X0.225000X-0.250000X0*%
%TD*%
%TA.AperFunction,SMDPad,CuDef*%
%ADD19RoundRect,0.135000X-0.135000X-0.185000X0.135000X-0.185000X0.135000X0.185000X-0.135000X0.185000X0*%
%TD*%
%TA.AperFunction,SMDPad,CuDef*%
%ADD20RoundRect,0.140000X0.140000X0.170000X-0.140000X0.170000X-0.140000X-0.170000X0.140000X-0.170000X0*%
%TD*%
%TA.AperFunction,SMDPad,CuDef*%
%ADD21R,2.650000X0.760000*%
%TD*%
%TA.AperFunction,SMDPad,CuDef*%
%ADD22RoundRect,0.135000X0.185000X-0.135000X0.185000X0.135000X-0.185000X0.135000X-0.185000X-0.135000X0*%
%TD*%
%TA.AperFunction,SMDPad,CuDef*%
%ADD23RoundRect,0.140000X0.170000X-0.140000X0.170000X0.140000X-0.170000X0.140000X-0.170000X-0.140000X0*%
%TD*%
%TA.AperFunction,SMDPad,CuDef*%
%ADD24RoundRect,0.140000X-0.170000X0.140000X-0.170000X-0.140000X0.170000X-0.140000X0.170000X0.140000X0*%
%TD*%
%TA.AperFunction,SMDPad,CuDef*%
%ADD25RoundRect,0.150000X0.425000X-0.150000X0.425000X0.150000X-0.425000X0.150000X-0.425000X-0.150000X0*%
%TD*%
%TA.AperFunction,SMDPad,CuDef*%
%ADD26RoundRect,0.075000X0.500000X-0.075000X0.500000X0.075000X-0.500000X0.075000X-0.500000X-0.075000X0*%
%TD*%
%TA.AperFunction,ComponentPad*%
%ADD27O,2.100000X1.000000*%
%TD*%
%TA.AperFunction,ComponentPad*%
%ADD28O,1.800000X1.000000*%
%TD*%
%TA.AperFunction,SMDPad,CuDef*%
%ADD29RoundRect,0.093750X-0.106250X0.093750X-0.106250X-0.093750X0.106250X-0.093750X0.106250X0.093750X0*%
%TD*%
%TA.AperFunction,ComponentPad*%
%ADD30C,0.500000*%
%TD*%
%TA.AperFunction,SMDPad,CuDef*%
%ADD31R,1.600000X1.000000*%
%TD*%
%TA.AperFunction,SMDPad,CuDef*%
%ADD32R,0.500000X0.375000*%
%TD*%
%TA.AperFunction,SMDPad,CuDef*%
%ADD33R,0.650000X0.300000*%
%TD*%
%TA.AperFunction,SMDPad,CuDef*%
%ADD34RoundRect,0.125000X-0.125000X-0.125000X0.125000X-0.125000X0.125000X0.125000X-0.125000X0.125000X0*%
%TD*%
%TA.AperFunction,SMDPad,CuDef*%
%ADD35RoundRect,0.300000X0.450000X-0.300000X0.450000X0.300000X-0.450000X0.300000X-0.450000X-0.300000X0*%
%TD*%
%TA.AperFunction,SMDPad,CuDef*%
%ADD36FreePoly0,0.000000*%
%TD*%
%TA.AperFunction,SMDPad,CuDef*%
%ADD37RoundRect,0.075000X-0.200000X-0.075000X0.200000X-0.075000X0.200000X0.075000X-0.200000X0.075000X0*%
%TD*%
%TA.AperFunction,SMDPad,CuDef*%
%ADD38RoundRect,0.075000X0.075000X-0.200000X0.075000X0.200000X-0.075000X0.200000X-0.075000X-0.200000X0*%
%TD*%
%TA.AperFunction,SMDPad,CuDef*%
%ADD39RoundRect,0.075000X0.200000X0.075000X-0.200000X0.075000X-0.200000X-0.075000X0.200000X-0.075000X0*%
%TD*%
%TA.AperFunction,SMDPad,CuDef*%
%ADD40Outline5P,-2.800000X2.520000X-2.520000X2.800000X2.800000X2.800000X2.800000X-2.800000X-2.800000X-2.800000X0.000000*%
%TD*%
%TA.AperFunction,SMDPad,CuDef*%
%ADD41R,0.500000X0.850000*%
%TD*%
%TA.AperFunction,SMDPad,CuDef*%
%ADD42RoundRect,0.087500X0.087500X-0.225000X0.087500X0.225000X-0.087500X0.225000X-0.087500X-0.225000X0*%
%TD*%
%TA.AperFunction,SMDPad,CuDef*%
%ADD43RoundRect,0.087500X0.225000X-0.087500X0.225000X0.087500X-0.225000X0.087500X-0.225000X-0.087500X0*%
%TD*%
%TA.AperFunction,ViaPad*%
%ADD44C,0.400000*%
%TD*%
%TA.AperFunction,ViaPad*%
%ADD45C,0.800000*%
%TD*%
%TA.AperFunction,Conductor*%
%ADD46C,0.150000*%
%TD*%
%TA.AperFunction,Conductor*%
%ADD47C,0.250000*%
%TD*%
G04 APERTURE END LIST*
D10*
%TO.P,R7,1*%
%TO.N,Net-(J6-CC1)*%
X24779000Y6450000D03*
%TO.P,R7,2*%
%TO.N,GND*%
X24779000Y5430000D03*
%TD*%
D11*
%TO.P,D2,1,K*%
%TO.N,+5V*%
X20250000Y8645000D03*
%TO.P,D2,2,A*%
%TO.N,V_IN*%
X20250000Y11945000D03*
%TD*%
D12*
%TO.P,J1,1,Pin_1*%
%TO.N,+3.3V*%
X-1500000Y33750000D03*
D13*
%TO.P,J1,2,Pin_2*%
%TO.N,GND*%
X-1500000Y31210000D03*
%TO.P,J1,3,Pin_3*%
%TO.N,SDA*%
X-1500000Y28670000D03*
%TO.P,J1,4,Pin_4*%
%TO.N,SCL*%
X-1500000Y26130000D03*
%TO.P,J1,5,Pin_5*%
%TO.N,/GPIO6*%
X-1500000Y23590000D03*
%TO.P,J1,6,Pin_6*%
%TO.N,/GPIO7*%
X-1500000Y21050000D03*
%TO.P,J1,7,Pin_7*%
%TO.N,/GPIO8*%
X-1500000Y18510000D03*
%TO.P,J1,8,Pin_8*%
%TO.N,/GPIO9*%
X-1500000Y15970000D03*
%TO.P,J1,9,Pin_9*%
%TO.N,/PD3*%
X-1500000Y13430000D03*
%TO.P,J1,10,Pin_10*%
%TO.N,/PB3*%
X-1500000Y10890000D03*
%TO.P,J1,11,Pin_11*%
%TO.N,/PB4*%
X-1500000Y8350000D03*
%TO.P,J1,12,Pin_12*%
%TO.N,/PB5*%
X-1500000Y5810000D03*
%TD*%
D14*
%TO.P,U1,1,3.3V*%
%TO.N,+3.3V*%
X7438000Y35250000D03*
%TO.P,U1,2,EN*%
%TO.N,/EN*%
X7438000Y33750000D03*
%TO.P,U1,3,GPIO4*%
%TO.N,SDA*%
X7438000Y32250000D03*
%TO.P,U1,4,GPIO5*%
%TO.N,SCL*%
X7438000Y30750000D03*
%TO.P,U1,5,GPIO6*%
%TO.N,/GPIO6*%
X7438000Y29250000D03*
%TO.P,U1,6,GPIO7*%
%TO.N,/GPIO7*%
X7438000Y27750000D03*
%TO.P,U1,7,GPIO8*%
%TO.N,/GPIO8*%
X7438000Y26250000D03*
%TO.P,U1,8,GPIO9*%
%TO.N,/GPIO9*%
X7438000Y24750000D03*
%TO.P,U1,9,GND*%
%TO.N,GND*%
X7438000Y23250000D03*
%TO.P,U1,10,GPIO10*%
%TO.N,/Blue*%
X24938000Y23250000D03*
%TO.P,U1,11,RXD*%
%TO.N,/Rx*%
X24938000Y24750000D03*
%TO.P,U1,12,TXD*%
%TO.N,/Tx*%
X24938000Y26250000D03*
%TO.P,U1,13,GPIO18*%
%TO.N,ESP32_USB-*%
X24938000Y27750000D03*
%TO.P,U1,14,GPIO19*%
%TO.N,ESP32_USB+*%
X24938000Y29250000D03*
%TO.P,U1,15,GPIO3*%
%TO.N,/GPIO3*%
X24938000Y30750000D03*
%TO.P,U1,16,GPIO2*%
%TO.N,/GPIO2*%
X24938000Y32250000D03*
%TO.P,U1,17,GPIO1*%
%TO.N,/GPIO1*%
X24938000Y33750000D03*
%TO.P,U1,18,GPIO0*%
%TO.N,/GPIO0*%
X24938000Y35250000D03*
D15*
%TO.P,U1,TP,TP*%
%TO.N,GND*%
X15688000Y30200000D03*
D16*
X15688000Y29650000D03*
D15*
X15688000Y29100000D03*
D16*
X15688000Y28550000D03*
D15*
X15688000Y28000000D03*
D16*
X16238000Y30200000D03*
X16238000Y29100000D03*
X16238000Y28000000D03*
D15*
X16788000Y30200000D03*
D16*
X16788000Y29650000D03*
D15*
X16788000Y29100000D03*
D17*
X16788000Y29100000D03*
D16*
X16788000Y28550000D03*
D15*
X16788000Y28000000D03*
D16*
X17338000Y30200000D03*
X17338000Y29100000D03*
X17338000Y28000000D03*
D15*
X17888000Y30200000D03*
D16*
X17888000Y29650000D03*
D15*
X17888000Y29100000D03*
D16*
X17888000Y28550000D03*
D15*
X17888000Y28000000D03*
%TD*%
D18*
%TO.P,C4,1*%
%TO.N,+3.3V*%
X4490804Y8983000D03*
%TO.P,C4,2*%
%TO.N,GND*%
X2940804Y8983000D03*
%TD*%
D19*
%TO.P,R3,1*%
%TO.N,Net-(D1-BK)*%
X5004000Y13000000D03*
%TO.P,R3,2*%
%TO.N,/Blue*%
X6024000Y13000000D03*
%TD*%
D20*
%TO.P,C1,1*%
%TO.N,+5V*%
X4449804Y4250000D03*
%TO.P,C1,2*%
%TO.N,GND*%
X3489804Y4250000D03*
%TD*%
D12*
%TO.P,J3,1,Pin_1*%
%TO.N,/GPIO0*%
X33500000Y33750000D03*
D13*
%TO.P,J3,2,Pin_2*%
%TO.N,/GPIO1*%
X33500000Y31210000D03*
%TO.P,J3,3,Pin_3*%
%TO.N,/GPIO2*%
X33500000Y28670000D03*
%TO.P,J3,4,Pin_4*%
%TO.N,/GPIO3*%
X33500000Y26130000D03*
%TO.P,J3,5,Pin_5*%
%TO.N,/Tx*%
X33500000Y23590000D03*
%TO.P,J3,6,Pin_6*%
%TO.N,/Rx*%
X33500000Y21050000D03*
%TO.P,J3,7,Pin_7*%
%TO.N,CAN_TX*%
X33500000Y18510000D03*
%TO.P,J3,8,Pin_8*%
%TO.N,CAN_RX*%
X33500000Y15970000D03*
%TD*%
D19*
%TO.P,R2,1*%
%TO.N,Net-(D1-GK)*%
X5004000Y11750000D03*
%TO.P,R2,2*%
%TO.N,/Green*%
X6024000Y11750000D03*
%TD*%
D21*
%TO.P,SW4,1*%
%TO.N,/EN*%
X5875000Y19020000D03*
%TO.P,SW4,2*%
%TO.N,GND*%
X5875000Y17750000D03*
%TO.P,SW4,3*%
%TO.N,/RESET*%
X5875000Y16480000D03*
%TO.P,SW4,4*%
%TO.N,GND*%
X11125000Y16480000D03*
%TO.P,SW4,5*%
%TO.N,/BOOT*%
X11125000Y17750000D03*
%TO.P,SW4,6*%
%TO.N,+3.3V*%
X11125000Y19020000D03*
%TD*%
D22*
%TO.P,R6,1*%
%TO.N,Net-(J6-CC2)*%
X24779000Y10510000D03*
%TO.P,R6,2*%
%TO.N,GND*%
X24779000Y11530000D03*
%TD*%
D20*
%TO.P,C8,1*%
%TO.N,/RESET*%
X6947804Y5173000D03*
%TO.P,C8,2*%
%TO.N,GND*%
X5987804Y5173000D03*
%TD*%
D23*
%TO.P,C6,1*%
%TO.N,+3.3V*%
X18470000Y16474000D03*
%TO.P,C6,2*%
%TO.N,GND*%
X18470000Y17434000D03*
%TD*%
D24*
%TO.P,C5,1*%
%TO.N,+3.3V*%
X6975804Y7431000D03*
%TO.P,C5,2*%
%TO.N,GND*%
X6975804Y6471000D03*
%TD*%
%TO.P,C2,1*%
%TO.N,+3.3V*%
X5705804Y7431000D03*
%TO.P,C2,2*%
%TO.N,GND*%
X5705804Y6471000D03*
%TD*%
D20*
%TO.P,C3,1*%
%TO.N,+3.3V*%
X6947804Y8729000D03*
%TO.P,C3,2*%
%TO.N,GND*%
X5987804Y8729000D03*
%TD*%
D12*
%TO.P,J2,1,Pin_1*%
%TO.N,/ADC1_IN0*%
X4600000Y1040000D03*
D13*
%TO.P,J2,2,Pin_2*%
%TO.N,/ADC1_IN1*%
X4600000Y-1500000D03*
%TO.P,J2,3,Pin_3*%
%TO.N,/PA2*%
X7140000Y1040000D03*
%TO.P,J2,4,Pin_4*%
%TO.N,/PA3*%
X7140000Y-1500000D03*
%TO.P,J2,5,Pin_5*%
%TO.N,/DAC1_OUT1*%
X9680000Y1040000D03*
%TO.P,J2,6,Pin_6*%
%TO.N,SPI_SCK*%
X9680000Y-1500000D03*
%TO.P,J2,7,Pin_7*%
%TO.N,SPI_MOSI*%
X12220000Y1040000D03*
%TO.P,J2,8,Pin_8*%
%TO.N,SPI_MISO*%
X12220000Y-1500000D03*
%TO.P,J2,9,Pin_9*%
%TO.N,/PB1*%
X14760000Y1040000D03*
%TO.P,J2,10,Pin_10*%
%TO.N,/PB0*%
X14760000Y-1500000D03*
%TO.P,J2,11,Pin_11*%
%TO.N,/PB14*%
X17300000Y1040000D03*
%TO.P,J2,12,Pin_12*%
%TO.N,/PB13*%
X17300000Y-1500000D03*
%TO.P,J2,13,Pin_13*%
%TO.N,/PA8*%
X19840000Y1040000D03*
%TO.P,J2,14,Pin_14*%
%TO.N,/PB15*%
X19840000Y-1500000D03*
%TO.P,J2,15,Pin_15*%
%TO.N,USART_RX*%
X22380000Y1040000D03*
%TO.P,J2,16,Pin_16*%
%TO.N,USART_TX*%
X22380000Y-1500000D03*
%TO.P,J2,17,Pin_17*%
%TO.N,+5V*%
X24920000Y1040000D03*
%TO.P,J2,18,Pin_18*%
%TO.N,V_IN*%
X24920000Y-1500000D03*
%TO.P,J2,19,Pin_19*%
%TO.N,GND*%
X27460000Y1040000D03*
%TO.P,J2,20,Pin_20*%
X27460000Y-1500000D03*
%TD*%
D25*
%TO.P,J6,A1,GND*%
%TO.N,GND*%
X28040000Y5309500D03*
%TO.P,J6,A4,VBUS*%
%TO.N,V_IN*%
X28040000Y6109500D03*
D26*
%TO.P,J6,A5,CC1*%
%TO.N,Net-(J6-CC1)*%
X28040000Y7259500D03*
%TO.P,J6,A6,D+*%
%TO.N,/D+*%
X28040000Y8259500D03*
%TO.P,J6,A7,D-*%
%TO.N,/D-*%
X28040000Y8759500D03*
%TO.P,J6,A8,SBU1*%
%TO.N,unconnected-(J6-SBU1-PadA8)*%
X28040000Y9759500D03*
D25*
%TO.P,J6,A9,VBUS*%
%TO.N,V_IN*%
X28040000Y10909500D03*
%TO.P,J6,A12,GND*%
%TO.N,GND*%
X28040000Y11709500D03*
%TO.P,J6,B1,GND*%
X28040000Y11709500D03*
%TO.P,J6,B4,VBUS*%
%TO.N,V_IN*%
X28040000Y10909500D03*
D26*
%TO.P,J6,B5,CC2*%
%TO.N,Net-(J6-CC2)*%
X28040000Y10259500D03*
%TO.P,J6,B6,D+*%
%TO.N,/D+*%
X28040000Y9259500D03*
%TO.P,J6,B7,D-*%
%TO.N,/D-*%
X28040000Y7759500D03*
%TO.P,J6,B8,SBU2*%
%TO.N,unconnected-(J6-SBU2-PadB8)*%
X28040000Y6759500D03*
D25*
%TO.P,J6,B9,VBUS*%
%TO.N,V_IN*%
X28040000Y6109500D03*
%TO.P,J6,B12,GND*%
%TO.N,GND*%
X28040000Y5309500D03*
D27*
%TO.P,J6,S1,SHIELD*%
%TO.N,unconnected-(J6-SHIELD-PadS1)*%
X28615000Y4189500D03*
D28*
%TO.N,unconnected-(J6-SHIELD-PadS1)_0*%
X32795000Y4189500D03*
D27*
%TO.N,unconnected-(J6-SHIELD-PadS1)_2*%
X28615000Y12829500D03*
D28*
%TO.N,unconnected-(J6-SHIELD-PadS1)_1*%
X32795000Y12829500D03*
%TD*%
D29*
%TO.P,U2,1,OUT*%
%TO.N,+3.3V*%
X4323804Y7330500D03*
%TO.P,U2,2,SNS*%
X3673804Y7330500D03*
%TO.P,U2,3,GND*%
%TO.N,GND*%
X3023804Y7330500D03*
%TO.P,U2,4,EN*%
%TO.N,+5V*%
X3023804Y5555500D03*
%TO.P,U2,5,GND*%
%TO.N,GND*%
X3673804Y5555500D03*
%TO.P,U2,6,IN*%
%TO.N,+5V*%
X4323804Y5555500D03*
D30*
%TO.P,U2,7,PAD*%
%TO.N,GND*%
X4223804Y6443000D03*
D31*
X3673804Y6443000D03*
D30*
X3123804Y6443000D03*
%TD*%
D32*
%TO.P,U4,1,I/O1*%
%TO.N,/D+*%
X24525000Y7972000D03*
D33*
%TO.P,U4,2,GND*%
%TO.N,GND*%
X24600000Y8509500D03*
D32*
%TO.P,U4,3,I/O2*%
%TO.N,/D-*%
X24525000Y9047000D03*
%TO.P,U4,4,I/O2*%
%TO.N,/USB-*%
X22825000Y9047000D03*
D33*
%TO.P,U4,5,VBUS*%
%TO.N,+5V*%
X22750000Y8509500D03*
D32*
%TO.P,U4,6,I/O1*%
%TO.N,/USB+*%
X22825000Y7972000D03*
%TD*%
D22*
%TO.P,R4,1*%
%TO.N,+3.3V*%
X13644000Y16472000D03*
%TO.P,R4,2*%
%TO.N,SDA*%
X13644000Y17492000D03*
%TD*%
D19*
%TO.P,R1,1*%
%TO.N,Net-(D1-RK)*%
X5004000Y10538000D03*
%TO.P,R1,2*%
%TO.N,/Red*%
X6024000Y10538000D03*
%TD*%
D34*
%TO.P,D3,1,K*%
%TO.N,+5V*%
X19900000Y5750000D03*
%TO.P,D3,2,A*%
%TO.N,GND*%
X22100000Y5750000D03*
%TD*%
D35*
%TO.P,U5,1*%
%TO.N,STM32_USB+*%
X20500000Y15500000D03*
%TO.P,U5,2*%
%TO.N,/USB+*%
X20500000Y18000000D03*
%TO.P,U5,3*%
%TO.N,ESP32_USB+*%
X20500000Y20500000D03*
%TO.P,U5,4*%
%TO.N,STM32_USB-*%
X27000000Y15500000D03*
%TO.P,U5,5*%
%TO.N,/USB-*%
X27000000Y18000000D03*
%TO.P,U5,6*%
%TO.N,ESP32_USB-*%
X27000000Y20500000D03*
%TD*%
D36*
%TO.P,U3,1,PC13*%
%TO.N,/Blue*%
X8236804Y10500000D03*
D37*
%TO.P,U3,2,P14-OSC32_IN*%
%TO.N,/Green*%
X8236804Y10000000D03*
%TO.P,U3,3,P15-OSC32_OUT*%
%TO.N,/Red*%
X8236804Y9500000D03*
%TO.P,U3,4,VBAT*%
%TO.N,unconnected-(U3-VBAT-Pad4)*%
X8236804Y9000000D03*
%TO.P,U3,5,VERF+*%
%TO.N,+3.3V*%
X8236804Y8500000D03*
%TO.P,U3,6,VDD/VDDA*%
X8236804Y8000000D03*
%TO.P,U3,7,VSS/VSSA*%
%TO.N,GND*%
X8236804Y7500000D03*
%TO.P,U3,8,PF0-OSC_IN*%
%TO.N,unconnected-(U3-PF0-OSC_IN-Pad8)*%
X8236804Y7000000D03*
%TO.P,U3,9,PF1-OSC_OUT*%
%TO.N,unconnected-(U3-PF1-OSC_OUT-Pad9)*%
X8236804Y6500000D03*
%TO.P,U3,10,PF2-NRST*%
%TO.N,/RESET*%
X8236804Y6000000D03*
%TO.P,U3,11,PA0*%
%TO.N,/ADC1_IN0*%
X8236804Y5500000D03*
%TO.P,U3,12,PA1*%
%TO.N,/ADC1_IN1*%
X8236804Y5000000D03*
D38*
%TO.P,U3,13,PA2*%
%TO.N,/PA2*%
X8861804Y4375000D03*
%TO.P,U3,14,PA3*%
%TO.N,/PA3*%
X9361804Y4375000D03*
%TO.P,U3,15,PA4*%
%TO.N,/DAC1_OUT1*%
X9861804Y4375000D03*
%TO.P,U3,16,PA5*%
%TO.N,SPI_SCK*%
X10361804Y4375000D03*
%TO.P,U3,17,PA6*%
%TO.N,SPI_MISO*%
X10861804Y4375000D03*
%TO.P,U3,18,PA7*%
%TO.N,SPI_MOSI*%
X11361804Y4375000D03*
%TO.P,U3,19,PB0*%
%TO.N,/PB0*%
X11861804Y4375000D03*
%TO.P,U3,20,PB1*%
%TO.N,/PB1*%
X12361804Y4375000D03*
%TO.P,U3,21,PB2*%
%TO.N,unconnected-(U3-PB2-Pad21)*%
X12861804Y4375000D03*
%TO.P,U3,22,PB10*%
%TO.N,unconnected-(U3-PB10-Pad22)*%
X13361804Y4375000D03*
%TO.P,U3,23,PB11*%
%TO.N,unconnected-(U3-PB11-Pad23)*%
X13861804Y4375000D03*
%TO.P,U3,24,PB12*%
%TO.N,unconnected-(U3-PB12-Pad24)*%
X14361804Y4375000D03*
D39*
%TO.P,U3,25,PB13*%
%TO.N,/PB13*%
X14986804Y5000000D03*
%TO.P,U3,26,PB14*%
%TO.N,/PB14*%
X14986804Y5500000D03*
%TO.P,U3,27,PB15*%
%TO.N,/PB15*%
X14986804Y6000000D03*
%TO.P,U3,28,PA8*%
%TO.N,/PA8*%
X14986804Y6500000D03*
%TO.P,U3,29,PA9*%
%TO.N,USART_TX*%
X14986804Y7000000D03*
%TO.P,U3,30,PC6*%
%TO.N,unconnected-(U3-PC6-Pad30)*%
X14986804Y7500000D03*
%TO.P,U3,31,PC7*%
%TO.N,unconnected-(U3-PC7-Pad31)*%
X14986804Y8000000D03*
%TO.P,U3,32,PA10*%
%TO.N,USART_RX*%
X14986804Y8500000D03*
%TO.P,U3,33,PA11*%
%TO.N,STM32_USB-*%
X14986804Y9000000D03*
%TO.P,U3,34,PA12*%
%TO.N,STM32_USB+*%
X14986804Y9500000D03*
%TO.P,U3,35,PA13*%
%TO.N,unconnected-(U3-PA13-Pad35)*%
X14986804Y10000000D03*
%TO.P,U3,36,PA14-BOOT0*%
%TO.N,/BOOT*%
X14986804Y10500000D03*
D38*
%TO.P,U3,37,PA15*%
%TO.N,unconnected-(U3-PA15-Pad37)*%
X14361804Y11125000D03*
%TO.P,U3,38,PD0*%
%TO.N,CAN_RX*%
X13861804Y11125000D03*
%TO.P,U3,39,PD1*%
%TO.N,CAN_TX*%
X13361804Y11125000D03*
%TO.P,U3,40,PD2*%
%TO.N,unconnected-(U3-PD2-Pad40)*%
X12861804Y11125000D03*
%TO.P,U3,41,PD3*%
%TO.N,/PD3*%
X12361804Y11125000D03*
%TO.P,U3,42,PB3*%
%TO.N,/PB3*%
X11861804Y11125000D03*
%TO.P,U3,43,PB4*%
%TO.N,/PB4*%
X11361804Y11125000D03*
%TO.P,U3,44,PB5*%
%TO.N,/PB5*%
X10861804Y11125000D03*
%TO.P,U3,45,PB6*%
%TO.N,unconnected-(U3-PB6-Pad45)*%
X10361804Y11125000D03*
%TO.P,U3,46,PB7*%
%TO.N,unconnected-(U3-PB7-Pad46)*%
X9861804Y11125000D03*
%TO.P,U3,47,PB8*%
%TO.N,SCL*%
X9361804Y11125000D03*
%TO.P,U3,48,PB9*%
%TO.N,SDA*%
X8861804Y11100000D03*
D40*
%TO.P,U3,TP,TP*%
%TO.N,GND*%
X11611804Y7750000D03*
%TD*%
D24*
%TO.P,C7,1*%
%TO.N,+3.3V*%
X18470000Y19720000D03*
%TO.P,C7,2*%
%TO.N,GND*%
X18470000Y18760000D03*
%TD*%
D41*
%TO.P,D1,1,A*%
%TO.N,+5V*%
X2868000Y12893000D03*
%TO.P,D1,2,RK*%
%TO.N,Net-(D1-RK)*%
X2868000Y11143000D03*
%TO.P,D1,3,GK*%
%TO.N,Net-(D1-GK)*%
X3868000Y11143000D03*
%TO.P,D1,4,BK*%
%TO.N,Net-(D1-BK)*%
X3868000Y12893000D03*
%TD*%
D42*
%TO.P,U6,1,SDO/SA0*%
%TO.N,+3.3V*%
X15250000Y16837500D03*
%TO.P,U6,2,SDX*%
X15750000Y16837500D03*
%TO.P,U6,3,SCX*%
X16250000Y16837500D03*
%TO.P,U6,4,INT1*%
%TO.N,unconnected-(U6-INT1-Pad4)*%
X16750000Y16837500D03*
D43*
%TO.P,U6,5,VDDIO*%
%TO.N,+3.3V*%
X16912500Y17500000D03*
%TO.P,U6,6,GND*%
%TO.N,GND*%
X16912500Y18000000D03*
%TO.P,U6,7,GND*%
X16912500Y18500000D03*
D42*
%TO.P,U6,8,VDD*%
%TO.N,+3.3V*%
X16750000Y19162500D03*
%TO.P,U6,9,INT2*%
%TO.N,unconnected-(U6-INT2-Pad9)*%
X16250000Y19162500D03*
%TO.P,U6,10,NC*%
%TO.N,unconnected-(U6-NC-Pad10)*%
X15750000Y19162500D03*
%TO.P,U6,11,NC*%
%TO.N,unconnected-(U6-NC-Pad11)*%
X15250000Y19162500D03*
D43*
%TO.P,U6,12,CS*%
%TO.N,+3.3V*%
X15087500Y18500000D03*
%TO.P,U6,13,SCL*%
%TO.N,SCL*%
X15087500Y18000000D03*
%TO.P,U6,14,SDA*%
%TO.N,SDA*%
X15087500Y17500000D03*
%TD*%
D10*
%TO.P,R5,1*%
%TO.N,+3.3V*%
X13644000Y19778000D03*
%TO.P,R5,2*%
%TO.N,SCL*%
X13644000Y18758000D03*
%TD*%
D44*
%TO.N,GND*%
X3500000Y5000000D03*
D45*
X27000000Y5250000D03*
D44*
X25500000Y11500000D03*
D45*
X27000000Y11500000D03*
D44*
X7611805Y6458904D03*
X8500000Y23250000D03*
X22750000Y5750000D03*
X6000000Y9500000D03*
X6000000Y5750000D03*
X25500000Y5500000D03*
X25250000Y8500000D03*
X9500000Y16500000D03*
X17500000Y18000000D03*
X17750000Y17250000D03*
X7500000Y17750000D03*
X17750000Y19000000D03*
X7675952Y7299926D03*
X2940804Y8250000D03*
X6250000Y6500000D03*
X17500000Y18500000D03*
%TO.N,+5V*%
X2000000Y12000000D03*
D45*
X2779509Y2375000D03*
X5195460Y4250000D03*
D44*
%TO.N,/D+*%
X27000000Y9250000D03*
X25250000Y7949997D03*
%TO.N,SCL*%
X13540905Y18111999D03*
X12325000Y20000000D03*
X13175000Y15750000D03*
%TO.N,/RESET*%
X1250000Y15925000D03*
X1250000Y4250000D03*
%TO.N,/PB5*%
X10692882Y13807118D03*
X10818251Y12181749D03*
%TO.N,/PB4*%
X11318251Y12681749D03*
X11192882Y14307118D03*
%TO.N,/PB3*%
X11500000Y15000000D03*
X11818251Y13181749D03*
%TO.N,/PD3*%
X12318251Y13681749D03*
X12000000Y15500000D03*
%TO.N,/USB-*%
X23750000Y11500000D03*
X24000000Y17250000D03*
%TO.N,/USB+*%
X23250000Y17250000D03*
X23750000Y10750000D03*
%TO.N,/Blue*%
X11000000Y23250000D03*
X21750000Y23250000D03*
X26250000Y23250000D03*
X8250000Y13382118D03*
X14000000Y23250000D03*
X8250000Y16000000D03*
%TO.N,/BOOT*%
X9250000Y17750000D03*
X15000000Y11000000D03*
%TO.N,/EN*%
X6250000Y33750000D03*
X6000000Y20000000D03*
%TD*%
D46*
%TO.N,GND*%
X6250000Y6500000D02*
X6221000Y6471000D01*
X16912500Y18500000D02*
X17500000Y18500000D01*
X11361804Y7500000D02*
X11611804Y7750000D01*
D47*
X3673804Y5555500D02*
X3673804Y6443000D01*
X27065000Y11565000D02*
X27000000Y11500000D01*
X24779000Y11530000D02*
X25470000Y11530000D01*
D46*
X7438000Y23250000D02*
X8500000Y23250000D01*
X17990000Y18760000D02*
X17750000Y19000000D01*
X18470000Y18760000D02*
X17990000Y18760000D01*
X5987804Y8729000D02*
X5987804Y9487804D01*
X7599709Y6471000D02*
X7611805Y6458904D01*
X3489804Y4989804D02*
X3489804Y4250000D01*
X5875000Y17750000D02*
X7500000Y17750000D01*
X3500000Y5000000D02*
X3489804Y4989804D01*
D47*
X28040000Y11565000D02*
X27065000Y11565000D01*
D46*
X6221000Y6471000D02*
X5705804Y6471000D01*
D47*
X24779000Y5430000D02*
X25430000Y5430000D01*
X25430000Y5430000D02*
X25500000Y5500000D01*
D46*
X18470000Y17434000D02*
X17934000Y17434000D01*
D47*
X25470000Y11530000D02*
X25500000Y11500000D01*
X24600000Y8509500D02*
X25240500Y8509500D01*
D46*
X8236804Y7500000D02*
X7876026Y7500000D01*
D47*
X25240500Y8509500D02*
X25250000Y8500000D01*
D46*
X5987804Y9487804D02*
X6000000Y9500000D01*
X7876026Y7500000D02*
X7675952Y7299926D01*
X3023804Y6543000D02*
X3123804Y6443000D01*
X6975804Y6471000D02*
X7599709Y6471000D01*
X11125000Y16480000D02*
X9520000Y16480000D01*
X2940804Y8250000D02*
X2940804Y8983000D01*
X3023804Y7330500D02*
X3023804Y6543000D01*
X16912500Y18000000D02*
X17500000Y18000000D01*
D47*
X27085000Y5165000D02*
X27000000Y5250000D01*
D46*
X22100000Y5750000D02*
X22750000Y5750000D01*
X5987804Y5737804D02*
X6000000Y5750000D01*
X5987804Y5173000D02*
X5987804Y5737804D01*
D47*
X28040000Y5165000D02*
X27085000Y5165000D01*
D46*
X9520000Y16480000D02*
X9500000Y16500000D01*
X17934000Y17434000D02*
X17750000Y17250000D01*
X8236804Y7500000D02*
X11361804Y7500000D01*
D47*
%TO.N,+5V*%
X4250000Y3500000D02*
X3000000Y3500000D01*
X20250000Y8645000D02*
X20250000Y6750000D01*
X2143000Y12893000D02*
X2868000Y12893000D01*
X4449804Y4250000D02*
X4449804Y3699804D01*
X4449804Y3699804D02*
X4250000Y3500000D01*
X2750000Y2345491D02*
X2750000Y-2000000D01*
X2750000Y-2000000D02*
X3500000Y-2750000D01*
X22750000Y8509500D02*
X21780500Y8509500D01*
X2750000Y3750000D02*
X2750000Y5281696D01*
X2750000Y5281696D02*
X3023804Y5555500D01*
X24920000Y1580000D02*
X20750000Y5750000D01*
X24920000Y1040000D02*
X24920000Y1580000D01*
X4323804Y5555500D02*
X4323804Y4376000D01*
X20250000Y6750000D02*
X19900000Y6400000D01*
X23750000Y-130000D02*
X24920000Y1040000D01*
X23500000Y-2750000D02*
X23750000Y-2500000D01*
X3500000Y-2750000D02*
X23500000Y-2750000D01*
X5195460Y4250000D02*
X4449804Y4250000D01*
X21645000Y8645000D02*
X20250000Y8645000D01*
X20750000Y5750000D02*
X19900000Y5750000D01*
X2000000Y12750000D02*
X2143000Y12893000D01*
X23750000Y-2500000D02*
X23750000Y-130000D01*
X2779509Y2375000D02*
X2750000Y2345491D01*
X19900000Y6400000D02*
X19900000Y5750000D01*
X21780500Y8509500D02*
X21645000Y8645000D01*
X4323804Y4376000D02*
X4449804Y4250000D01*
X2000000Y12000000D02*
X2000000Y12750000D01*
X3000000Y3500000D02*
X2750000Y3750000D01*
D46*
%TO.N,/D-*%
X27240000Y8534499D02*
X27240000Y7984501D01*
X27465001Y8759500D02*
X27240000Y8534499D01*
X26177501Y9047000D02*
X24525000Y9047000D01*
X27465001Y7759500D02*
X28040000Y7759500D01*
X27240000Y7984501D02*
X27465001Y7759500D01*
X27240000Y7984501D02*
X26177501Y9047000D01*
X28040000Y8759500D02*
X27465001Y8759500D01*
%TO.N,/D+*%
X25250000Y7949997D02*
X24547003Y7949997D01*
X27009500Y9259500D02*
X27000000Y9250000D01*
X28840000Y8484501D02*
X28614999Y8259500D01*
X24547003Y7949997D02*
X24525000Y7972000D01*
X28040000Y9259500D02*
X28541344Y9259500D01*
X28840000Y8960844D02*
X28840000Y8484501D01*
X28614999Y8259500D02*
X28040000Y8259500D01*
X28541344Y9259500D02*
X28840000Y8960844D01*
X28040000Y9259500D02*
X27009500Y9259500D01*
%TO.N,SDA*%
X8861804Y11100000D02*
X8861804Y11374999D01*
X12750000Y17750000D02*
X13008000Y17492000D01*
X12967000Y16967000D02*
X13467000Y16967000D01*
X13644000Y17144000D02*
X13644000Y17492000D01*
X12750000Y16750000D02*
X12967000Y16967000D01*
X9500000Y32250000D02*
X12750000Y29000000D01*
X13008000Y17492000D02*
X13644000Y17492000D01*
X15087500Y17500000D02*
X13652000Y17500000D01*
X13652000Y17500000D02*
X13644000Y17492000D01*
X12750000Y15263195D02*
X12750000Y16750000D01*
X13467000Y16967000D02*
X13644000Y17144000D01*
X-330000Y28670000D02*
X-1500000Y28670000D01*
X12750000Y29000000D02*
X12750000Y17750000D01*
X8861804Y11374999D02*
X12750000Y15263195D01*
X3250000Y32250000D02*
X-330000Y28670000D01*
X7438000Y32250000D02*
X9500000Y32250000D01*
X7438000Y32250000D02*
X3250000Y32250000D01*
%TO.N,SCL*%
X7438000Y30750000D02*
X4290000Y30750000D01*
X13175000Y15750000D02*
X13175000Y15139540D01*
X15087500Y18000000D02*
X14402000Y18000000D01*
X13175000Y15139540D02*
X9361804Y11326344D01*
X14402000Y18000000D02*
X13644000Y18758000D01*
X13540905Y18654905D02*
X13644000Y18758000D01*
X13540905Y18111999D02*
X13540905Y18654905D01*
X4290000Y30750000D02*
X-330000Y26130000D01*
X9500000Y30750000D02*
X7438000Y30750000D01*
X12325000Y20000000D02*
X12325000Y27925000D01*
X12325000Y27925000D02*
X9500000Y30750000D01*
X-330000Y26130000D02*
X-1500000Y26130000D01*
X9361804Y11326344D02*
X9361804Y11125000D01*
D47*
%TO.N,+3.3V*%
X8236804Y8500000D02*
X7176804Y8500000D01*
X7176804Y8500000D02*
X6947804Y8729000D01*
D46*
X7438000Y35250000D02*
X1170000Y35250000D01*
X-330000Y33750000D02*
X-1500000Y33750000D01*
X1170000Y35250000D02*
X-330000Y33750000D01*
%TO.N,/RESET*%
X8236804Y6000000D02*
X7774804Y6000000D01*
X1250000Y4250000D02*
X2500000Y3000000D01*
X1805000Y16480000D02*
X5875000Y16480000D01*
X2500000Y3000000D02*
X5500000Y3000000D01*
X1250000Y15925000D02*
X1805000Y16480000D01*
X6947804Y4447804D02*
X6947804Y5173000D01*
X5500000Y3000000D02*
X6947804Y4447804D01*
X7774804Y6000000D02*
X6947804Y5173000D01*
%TO.N,Net-(D1-RK)*%
X5004000Y10538000D02*
X4959000Y10493000D01*
X4959000Y10493000D02*
X3518000Y10493000D01*
X3518000Y10493000D02*
X2868000Y11143000D01*
%TO.N,Net-(D1-GK)*%
X3868000Y11618000D02*
X4000000Y11750000D01*
X4000000Y11750000D02*
X5004000Y11750000D01*
X3868000Y11143000D02*
X3868000Y11618000D01*
%TO.N,Net-(D1-BK)*%
X3975000Y13000000D02*
X3868000Y12893000D01*
X5004000Y13000000D02*
X3975000Y13000000D01*
%TO.N,/GPIO1*%
X24938000Y33750000D02*
X29330000Y33750000D01*
X29330000Y33750000D02*
X31870000Y31210000D01*
X31870000Y31210000D02*
X33500000Y31210000D01*
%TO.N,/GPIO2*%
X31870000Y28670000D02*
X33500000Y28670000D01*
X24938000Y32250000D02*
X28290000Y32250000D01*
X28290000Y32250000D02*
X31870000Y28670000D01*
%TO.N,/GPIO3*%
X31870000Y26130000D02*
X33500000Y26130000D01*
X27250000Y30750000D02*
X31870000Y26130000D01*
X24938000Y30750000D02*
X27250000Y30750000D01*
%TO.N,/Tx*%
X31870000Y23590000D02*
X33500000Y23590000D01*
X24938000Y26250000D02*
X29210000Y26250000D01*
X29210000Y26250000D02*
X31870000Y23590000D01*
%TO.N,/Rx*%
X31870000Y21050000D02*
X33500000Y21050000D01*
X28170000Y24750000D02*
X31870000Y21050000D01*
X24938000Y24750000D02*
X28170000Y24750000D01*
%TO.N,ESP32_USB-*%
X23500000Y27500000D02*
X23500000Y20750000D01*
X23500000Y20750000D02*
X23750000Y20500000D01*
X24938000Y27750000D02*
X23750000Y27750000D01*
X23750000Y27750000D02*
X23500000Y27500000D01*
X23750000Y20500000D02*
X27000000Y20500000D01*
%TO.N,ESP32_USB+*%
X23500000Y29250000D02*
X23000000Y28750000D01*
X23000000Y20750000D02*
X22750000Y20500000D01*
X22750000Y20500000D02*
X20500000Y20500000D01*
X23000000Y28750000D02*
X23000000Y20750000D01*
X24938000Y29250000D02*
X23500000Y29250000D01*
%TO.N,/GPIO7*%
X7438000Y27750000D02*
X6370000Y27750000D01*
X-330000Y21050000D02*
X-1500000Y21050000D01*
X6370000Y27750000D02*
X-330000Y21050000D01*
%TO.N,/GPIO8*%
X7438000Y26250000D02*
X6500000Y26250000D01*
X6500000Y26250000D02*
X4750000Y24500000D01*
X4750000Y24500000D02*
X4750000Y23590000D01*
X-330000Y18510000D02*
X-1500000Y18510000D01*
X4750000Y23590000D02*
X-330000Y18510000D01*
%TO.N,/GPIO0*%
X24938000Y35250000D02*
X30500000Y35250000D01*
X32000000Y33750000D02*
X33500000Y33750000D01*
X30500000Y35250000D02*
X32000000Y33750000D01*
%TO.N,/PB5*%
X250000Y11750000D02*
X250000Y7560000D01*
X10861804Y12138196D02*
X10818251Y12181749D01*
X2307118Y13807118D02*
X250000Y11750000D01*
X250000Y7560000D02*
X-1500000Y5810000D01*
X10692882Y13807118D02*
X2307118Y13807118D01*
X10861804Y11125000D02*
X10861804Y12138196D01*
%TO.N,/Red*%
X8236804Y9500000D02*
X7531000Y9500000D01*
X6493000Y10538000D02*
X6024000Y10538000D01*
X7531000Y9500000D02*
X6493000Y10538000D01*
%TO.N,/ADC1_IN0*%
X7961805Y5500000D02*
X7500000Y5038195D01*
X7500000Y5038195D02*
X7500000Y3940000D01*
X7500000Y3940000D02*
X4600000Y1040000D01*
X8236804Y5500000D02*
X7961805Y5500000D01*
%TO.N,/ADC1_IN1*%
X8236804Y5000000D02*
X8236804Y3657084D01*
X5675000Y-425000D02*
X4600000Y-1500000D01*
X8236804Y3657084D02*
X5675000Y1095280D01*
X5675000Y1095280D02*
X5675000Y-425000D01*
%TO.N,/PB4*%
X11361804Y11125000D02*
X11361804Y12638196D01*
X-250000Y12101041D02*
X-250000Y9600000D01*
X1956077Y14307118D02*
X-250000Y12101041D01*
X-250000Y9600000D02*
X-1500000Y8350000D01*
X11361804Y12638196D02*
X11318251Y12681749D01*
X11192882Y14307118D02*
X1956077Y14307118D01*
%TO.N,/PB3*%
X11861804Y11125000D02*
X11861804Y13138196D01*
X11861804Y13138196D02*
X11818251Y13181749D01*
X11500000Y15000000D02*
X2000000Y15000000D01*
X-1500000Y11500000D02*
X-1500000Y10890000D01*
X2000000Y15000000D02*
X-1500000Y11500000D01*
%TO.N,/DAC1_OUT1*%
X9861804Y1221804D02*
X9680000Y1040000D01*
X9861804Y4375000D02*
X9861804Y1221804D01*
%TO.N,SPI_SCK*%
X10755000Y-425000D02*
X9680000Y-1500000D01*
X10755000Y1570736D02*
X10755000Y-425000D01*
X10361804Y4173656D02*
X10561804Y3973656D01*
X10361804Y4375000D02*
X10361804Y4173656D01*
X10561804Y1763932D02*
X10755000Y1570736D01*
X10561804Y3973656D02*
X10561804Y1763932D01*
%TO.N,SPI_MISO*%
X11055000Y1695000D02*
X11055000Y-335000D01*
X10861804Y1888196D02*
X11055000Y1695000D01*
X10861804Y4375000D02*
X10861804Y1888196D01*
X11055000Y-335000D02*
X12220000Y-1500000D01*
%TO.N,SPI_MOSI*%
X11361804Y3888196D02*
X12220000Y3030000D01*
X12220000Y3030000D02*
X12220000Y1040000D01*
X11361804Y4375000D02*
X11361804Y3888196D01*
%TO.N,/PD3*%
X12361804Y13638196D02*
X12318251Y13681749D01*
X1500000Y15500000D02*
X-570000Y13430000D01*
X-570000Y13430000D02*
X-1500000Y13430000D01*
X12000000Y15500000D02*
X1500000Y15500000D01*
X12361804Y11125000D02*
X12361804Y13638196D01*
%TO.N,/PA8*%
X19840000Y2660000D02*
X19840000Y1040000D01*
X16000000Y6500000D02*
X19840000Y2660000D01*
X14986804Y6500000D02*
X16000000Y6500000D01*
%TO.N,Net-(J6-CC1)*%
X28040000Y7259500D02*
X27009500Y7259500D01*
X27009500Y7259500D02*
X26200000Y6450000D01*
X26200000Y6450000D02*
X24779000Y6450000D01*
%TO.N,/GPIO6*%
X-330000Y23590000D02*
X-1500000Y23590000D01*
X5330000Y29250000D02*
X-330000Y23590000D01*
X7438000Y29250000D02*
X5330000Y29250000D01*
%TO.N,/PB15*%
X15750000Y6000000D02*
X18500000Y3250000D01*
X18500000Y3250000D02*
X18500000Y-160000D01*
X18500000Y-160000D02*
X19840000Y-1500000D01*
X14986804Y6000000D02*
X15750000Y6000000D01*
%TO.N,/PB14*%
X17300000Y3700000D02*
X17300000Y1040000D01*
X14986804Y5500000D02*
X15500000Y5500000D01*
X15500000Y5500000D02*
X17300000Y3700000D01*
%TO.N,/PB13*%
X14986804Y5000000D02*
X15500000Y5000000D01*
X16000000Y4500000D02*
X16000000Y-200000D01*
X15500000Y5000000D02*
X16000000Y4500000D01*
X16000000Y-200000D02*
X17300000Y-1500000D01*
%TO.N,USART_TX*%
X16250000Y7000000D02*
X21000000Y2250000D01*
X14986804Y7000000D02*
X16250000Y7000000D01*
X21000000Y2250000D02*
X21000000Y-120000D01*
X21000000Y-120000D02*
X22380000Y-1500000D01*
%TO.N,USART_RX*%
X16000000Y8500000D02*
X22380000Y2120000D01*
X22380000Y2120000D02*
X22380000Y1040000D01*
X14986804Y8500000D02*
X16000000Y8500000D01*
%TO.N,STM32_USB-*%
X19750000Y12750000D02*
X23250000Y12750000D01*
X24250000Y15500000D02*
X27000000Y15500000D01*
X23250000Y12750000D02*
X23800000Y13300000D01*
X23800000Y13300000D02*
X23800000Y15050000D01*
X16000000Y9000000D02*
X19750000Y12750000D01*
X23800000Y15050000D02*
X24250000Y15500000D01*
X14986804Y9000000D02*
X16000000Y9000000D01*
%TO.N,STM32_USB+*%
X23500000Y13424264D02*
X23125736Y13050000D01*
X23000000Y15500000D02*
X23500000Y15000000D01*
X23500000Y15000000D02*
X23500000Y13424264D01*
X23125736Y13050000D02*
X19550000Y13050000D01*
X20500000Y15500000D02*
X23000000Y15500000D01*
X19550000Y13050000D02*
X16000000Y9500000D01*
X16000000Y9500000D02*
X14986804Y9500000D01*
%TO.N,CAN_RX*%
X19300000Y17009668D02*
X19305000Y17014668D01*
X13861804Y11326344D02*
X16535460Y14000000D01*
X19957536Y18950000D02*
X28890000Y18950000D01*
X19305000Y17014668D02*
X19305000Y18297464D01*
X13861804Y11125000D02*
X13861804Y11326344D01*
X19305000Y15630735D02*
X19305000Y16893332D01*
X31870000Y15970000D02*
X33500000Y15970000D01*
X19305000Y16893332D02*
X19300000Y16898332D01*
X16535460Y14000000D02*
X17674265Y14000000D01*
X17674265Y14000000D02*
X19305000Y15630735D01*
X19305000Y18297464D02*
X19957536Y18950000D01*
X28890000Y18950000D02*
X31870000Y15970000D01*
X19300000Y16898332D02*
X19300000Y17009668D01*
%TO.N,CAN_TX*%
X19005000Y16769068D02*
X19000000Y16774068D01*
X17550001Y14300000D02*
X19005000Y15754999D01*
X13361804Y11326344D02*
X16335460Y14300000D01*
X20000000Y19500000D02*
X32510000Y19500000D01*
X19000000Y16774068D02*
X19000000Y17133932D01*
X19005000Y18505000D02*
X20000000Y19500000D01*
X13361804Y11125000D02*
X13361804Y11326344D01*
X32510000Y19500000D02*
X33500000Y18510000D01*
X19000000Y17133932D02*
X19005000Y17138932D01*
X19005000Y17138932D02*
X19005000Y18505000D01*
X16335460Y14300000D02*
X17550001Y14300000D01*
X19005000Y15754999D02*
X19005000Y16769068D01*
%TO.N,/USB-*%
X22825000Y9047000D02*
X23297000Y9047000D01*
X23325000Y10573959D02*
X23325000Y11075000D01*
X23325000Y11075000D02*
X23750000Y11500000D01*
X23450000Y10448959D02*
X23325000Y10573959D01*
X24750000Y18000000D02*
X27000000Y18000000D01*
X23450000Y9200000D02*
X23450000Y10448959D01*
X24000000Y17250000D02*
X24750000Y18000000D01*
X23297000Y9047000D02*
X23450000Y9200000D01*
%TO.N,/USB+*%
X23137500Y7972000D02*
X23300000Y8134500D01*
X23300000Y8134500D02*
X23300000Y8625736D01*
X23250000Y17250000D02*
X22500000Y18000000D01*
X22500000Y18000000D02*
X20500000Y18000000D01*
X23300000Y8625736D02*
X23750000Y9075736D01*
X23750000Y9075736D02*
X23750000Y10750000D01*
X22825000Y7972000D02*
X23137500Y7972000D01*
%TO.N,/Green*%
X7000000Y11750000D02*
X6024000Y11750000D01*
X7250000Y10500000D02*
X7250000Y11500000D01*
X7250000Y11500000D02*
X7000000Y11750000D01*
X7750000Y10000000D02*
X7250000Y10500000D01*
X8236804Y10000000D02*
X7750000Y10000000D01*
%TO.N,/Blue*%
X8236804Y10500000D02*
X8236804Y11276392D01*
X8236804Y11276392D02*
X6513196Y13000000D01*
X8236804Y11276392D02*
X8236804Y13368922D01*
X8236804Y13368922D02*
X8250000Y13382118D01*
X6513196Y13000000D02*
X6024000Y13000000D01*
X26250000Y23250000D02*
X24938000Y23250000D01*
X11000000Y23250000D02*
X8250000Y20500000D01*
X8250000Y20500000D02*
X8250000Y16000000D01*
X14000000Y23250000D02*
X21750000Y23250000D01*
%TO.N,/PA2*%
X8861804Y4375000D02*
X8861804Y2761804D01*
X8861804Y2761804D02*
X7140000Y1040000D01*
%TO.N,/PA3*%
X9361804Y2837540D02*
X8250000Y1725736D01*
X8250000Y1725736D02*
X8250000Y-390000D01*
X8250000Y-390000D02*
X7140000Y-1500000D01*
X9361804Y4375000D02*
X9361804Y2837540D01*
%TO.N,/PB1*%
X14760000Y1775460D02*
X14760000Y1040000D01*
X12361804Y4173656D02*
X14760000Y1775460D01*
X12361804Y4375000D02*
X12361804Y4173656D01*
%TO.N,/PB0*%
X13500000Y-240000D02*
X14760000Y-1500000D01*
X13500000Y2535460D02*
X13500000Y-240000D01*
X11861804Y4173656D02*
X13500000Y2535460D01*
X11861804Y4375000D02*
X11861804Y4173656D01*
%TO.N,Net-(J6-CC2)*%
X26240500Y10259500D02*
X25990000Y10510000D01*
X25990000Y10510000D02*
X24779000Y10510000D01*
X28040000Y10259500D02*
X26240500Y10259500D01*
%TO.N,/GPIO9*%
X7438000Y24750000D02*
X6250000Y24750000D01*
X-330000Y15970000D02*
X-1500000Y15970000D01*
X5500000Y24000000D02*
X5500000Y21800000D01*
X6250000Y24750000D02*
X5500000Y24000000D01*
X5500000Y21800000D02*
X-330000Y15970000D01*
%TO.N,/BOOT*%
X14986804Y10500000D02*
X14986804Y10986804D01*
X14986804Y10986804D02*
X15000000Y11000000D01*
X9250000Y17750000D02*
X11125000Y17750000D01*
%TO.N,/EN*%
X6250000Y33750000D02*
X7438000Y33750000D01*
X5875000Y19875000D02*
X6000000Y20000000D01*
X5875000Y19020000D02*
X5875000Y19875000D01*
D47*
%TO.N,V_IN*%
X22750000Y12250000D02*
X22445000Y11945000D01*
X28040000Y10765000D02*
X26780405Y10765000D01*
X26250000Y5454595D02*
X26250000Y-170000D01*
X26250000Y11295405D02*
X26250000Y12000000D01*
X26250000Y12000000D02*
X26000000Y12250000D01*
X22445000Y11945000D02*
X20250000Y11945000D01*
X28614999Y10909500D02*
X30000000Y9524499D01*
X28040000Y6109500D02*
X26904905Y6109500D01*
X26780405Y10765000D02*
X26250000Y11295405D01*
X26000000Y12250000D02*
X22750000Y12250000D01*
X30000000Y7500000D02*
X28609500Y6109500D01*
X30000000Y9524499D02*
X30000000Y7500000D01*
X26904905Y6109500D02*
X26250000Y5454595D01*
X28609500Y6109500D02*
X28040000Y6109500D01*
X26250000Y-170000D02*
X24920000Y-1500000D01*
X28040000Y10909500D02*
X28614999Y10909500D01*
%TD*%
%TA.AperFunction,Conductor*%
%TO.N,+3.3V*%
G36*
X7157184Y42481093D02*
G01*
X7193148Y42431593D01*
X7193148Y42370407D01*
X7188000Y42362007D01*
X7188000Y42350000D01*
X7188000Y36350000D01*
X7188001Y36350000D01*
X25187999Y36350000D01*
X25188000Y36350000D01*
X25188000Y38901580D01*
X30749500Y38901580D01*
X30780289Y38707179D01*
X30780291Y38707174D01*
X30841116Y38519975D01*
X30930476Y38344595D01*
X31046172Y38185354D01*
X31185354Y38046172D01*
X31344595Y37930476D01*
X31519975Y37841116D01*
X31707174Y37780291D01*
X31707175Y37780291D01*
X31707178Y37780290D01*
X31901580Y37749500D01*
X31901583Y37749500D01*
X32098420Y37749500D01*
X32292821Y37780290D01*
X32292822Y37780291D01*
X32292826Y37780291D01*
X32480025Y37841116D01*
X32655405Y37930476D01*
X32814646Y38046172D01*
X32953828Y38185354D01*
X33069524Y38344595D01*
X33158884Y38519975D01*
X33219709Y38707174D01*
X33250500Y38901583D01*
X33250500Y39098417D01*
X33250500Y39098421D01*
X33219710Y39292822D01*
X33219709Y39292826D01*
X33158884Y39480025D01*
X33069524Y39655405D01*
X32953828Y39814646D01*
X32814646Y39953828D01*
X32655405Y40069524D01*
X32655404Y40069525D01*
X32655402Y40069526D01*
X32480025Y40158884D01*
X32292821Y40219711D01*
X32098420Y40250500D01*
X32098417Y40250500D01*
X31901583Y40250500D01*
X31901580Y40250500D01*
X31707178Y40219711D01*
X31519974Y40158884D01*
X31344597Y40069526D01*
X31185355Y39953829D01*
X31046171Y39814645D01*
X30930474Y39655403D01*
X30841116Y39480026D01*
X30780289Y39292822D01*
X30749500Y39098421D01*
X30749500Y38901580D01*
X25188000Y38901580D01*
X25188000Y42350000D01*
X25188000Y42368293D01*
X25179226Y42385513D01*
X25188797Y42445945D01*
X25232062Y42489210D01*
X25277007Y42500000D01*
X31999317Y42500000D01*
X32000611Y42499993D01*
X32178777Y42497662D01*
X32187805Y42497129D01*
X32542745Y42459823D01*
X32552960Y42458205D01*
X32901426Y42384136D01*
X32911421Y42381457D01*
X33250217Y42271374D01*
X33259891Y42267661D01*
X33395823Y42207141D01*
X33585327Y42122769D01*
X33594548Y42118070D01*
X33903048Y41939957D01*
X33911732Y41934319D01*
X34199947Y41724919D01*
X34207986Y41718407D01*
X34472716Y41480044D01*
X34480043Y41472717D01*
X34718401Y41207994D01*
X34724923Y41199941D01*
X34934316Y40911736D01*
X34939959Y40903045D01*
X35118066Y40594555D01*
X35122771Y40585322D01*
X35267660Y40259892D01*
X35271373Y40250218D01*
X35381456Y39911422D01*
X35384139Y39901412D01*
X35458202Y39552971D01*
X35459823Y39542736D01*
X35497127Y39187818D01*
X35497661Y39178765D01*
X35499992Y39000612D01*
X35500000Y38999317D01*
X35500000Y684D01*
X35499992Y-611D01*
X35497661Y-178764D01*
X35497127Y-187817D01*
X35459823Y-542735D01*
X35458202Y-552970D01*
X35384139Y-901411D01*
X35381456Y-911421D01*
X35271373Y-1250217D01*
X35267660Y-1259891D01*
X35122771Y-1585321D01*
X35118066Y-1594554D01*
X34939959Y-1903044D01*
X34934316Y-1911735D01*
X34724923Y-2199940D01*
X34718401Y-2207993D01*
X34480043Y-2472716D01*
X34472716Y-2480043D01*
X34207993Y-2718401D01*
X34199940Y-2724923D01*
X33911735Y-2934316D01*
X33903044Y-2939959D01*
X33594554Y-3118066D01*
X33585321Y-3122771D01*
X33259891Y-3267660D01*
X33250217Y-3271373D01*
X32911421Y-3381456D01*
X32901411Y-3384139D01*
X32552970Y-3458202D01*
X32542735Y-3459823D01*
X32187817Y-3497127D01*
X32178764Y-3497661D01*
X32000612Y-3499992D01*
X31999317Y-3500000D01*
X683Y-3500000D01*
X-612Y-3499992D01*
X-178765Y-3497661D01*
X-187818Y-3497127D01*
X-542736Y-3459823D01*
X-552971Y-3458202D01*
X-901412Y-3384139D01*
X-911422Y-3381456D01*
X-1250218Y-3271373D01*
X-1259892Y-3267660D01*
X-1585322Y-3122771D01*
X-1594555Y-3118066D01*
X-1903045Y-2939959D01*
X-1911736Y-2934316D01*
X-1954330Y-2903369D01*
X-2199945Y-2724919D01*
X-2207989Y-2718405D01*
X-2472717Y-2480043D01*
X-2480044Y-2472716D01*
X-2715796Y-2210887D01*
X-2718407Y-2207986D01*
X-2724919Y-2199947D01*
X-2934319Y-1911732D01*
X-2939960Y-1903044D01*
X-2950532Y-1884732D01*
X-3118070Y-1594548D01*
X-3122772Y-1585321D01*
X-3160758Y-1500003D01*
X-3267661Y-1259891D01*
X-3271374Y-1250217D01*
X-3381457Y-911421D01*
X-3384136Y-901426D01*
X-3458205Y-552960D01*
X-3459823Y-542745D01*
X-3497129Y-187805D01*
X-3497662Y-178777D01*
X-3498713Y-98420D01*
X-1250500Y-98420D01*
X-1219711Y-292821D01*
X-1158884Y-480025D01*
X-1090107Y-615010D01*
X-1069524Y-655405D01*
X-953828Y-814646D01*
X-814646Y-953828D01*
X-655405Y-1069524D01*
X-480025Y-1158884D01*
X-292826Y-1219709D01*
X-292825Y-1219709D01*
X-292822Y-1219710D01*
X-98420Y-1250500D01*
X-98417Y-1250500D01*
X98420Y-1250500D01*
X292821Y-1219710D01*
X292822Y-1219709D01*
X292826Y-1219709D01*
X480025Y-1158884D01*
X655405Y-1069524D01*
X814646Y-953828D01*
X953828Y-814646D01*
X1069524Y-655405D01*
X1158884Y-480025D01*
X1219709Y-292826D01*
X1220515Y-287736D01*
X1250500Y-98420D01*
X1250500Y98421D01*
X1219710Y292822D01*
X1219709Y292826D01*
X1158884Y480025D01*
X1069524Y655405D01*
X953828Y814646D01*
X814646Y953828D01*
X655405Y1069524D01*
X655404Y1069525D01*
X655402Y1069526D01*
X480025Y1158884D01*
X292821Y1219711D01*
X98420Y1250500D01*
X98417Y1250500D01*
X-98417Y1250500D01*
X-98420Y1250500D01*
X-292822Y1219711D01*
X-480026Y1158884D01*
X-655403Y1069526D01*
X-814645Y953829D01*
X-953829Y814645D01*
X-1069526Y655403D01*
X-1158884Y480026D01*
X-1219711Y292822D01*
X-1250500Y98421D01*
X-1250500Y-98420D01*
X-3498713Y-98420D01*
X-3499992Y-611D01*
X-3500000Y684D01*
X-3500000Y5809997D01*
X-2505341Y5809997D01*
X-2486026Y5613874D01*
X-2486025Y5613871D01*
X-2474721Y5576607D01*
X-2438012Y5455593D01*
X-2428813Y5425270D01*
X-2428812Y5425268D01*
X-2363362Y5302821D01*
X-2335910Y5251462D01*
X-2335908Y5251460D01*
X-2335907Y5251458D01*
X-2210888Y5099122D01*
X-2210879Y5099113D01*
X-2073946Y4986735D01*
X-2058538Y4974090D01*
X-1935654Y4908407D01*
X-1887201Y4882508D01*
X-1884727Y4881186D01*
X-1696132Y4823976D01*
X-1696130Y4823976D01*
X-1696127Y4823975D01*
X-1500003Y4804659D01*
X-1500000Y4804659D01*
X-1499997Y4804659D01*
X-1303874Y4823975D01*
X-1303873Y4823976D01*
X-1303868Y4823976D01*
X-1115273Y4881186D01*
X-941462Y4974090D01*
X-789117Y5099117D01*
X-664090Y5251462D01*
X-571186Y5425273D01*
X-513976Y5613868D01*
X-512319Y5630683D01*
X-494659Y5809997D01*
X-494659Y5810004D01*
X-513975Y6006127D01*
X-513976Y6006130D01*
X-513976Y6006132D01*
X-571186Y6194727D01*
X-615013Y6276722D01*
X-625768Y6336950D01*
X-599067Y6392002D01*
X-597755Y6393342D01*
X377734Y7368830D01*
X377736Y7368830D01*
X441170Y7432264D01*
X472753Y7508513D01*
X475501Y7515146D01*
X475501Y7604855D01*
X475501Y7612829D01*
X475500Y7612843D01*
X475500Y8697364D01*
X2340304Y8697364D01*
X2345313Y8662986D01*
X2350938Y8624374D01*
X2387534Y8549516D01*
X2405978Y8511789D01*
X2494593Y8423174D01*
X2539078Y8401427D01*
X2583052Y8358883D01*
X2593621Y8298618D01*
X2593378Y8297000D01*
X2585935Y8250004D01*
X2585935Y8250001D01*
X2585935Y8250000D01*
X2603304Y8140339D01*
X2653709Y8041413D01*
X2732217Y7962905D01*
X2831143Y7912500D01*
X2940804Y7895131D01*
X3050465Y7912500D01*
X3149391Y7962905D01*
X3227899Y8041413D01*
X3278304Y8140339D01*
X3295673Y8250000D01*
X3295672Y8250004D01*
X3288229Y8296998D01*
X3297800Y8357431D01*
X3341064Y8400695D01*
X3342490Y8401408D01*
X3387015Y8423174D01*
X3475630Y8511789D01*
X3530670Y8624375D01*
X3541304Y8697364D01*
X3541304Y8699547D01*
X3840804Y8699547D01*
X3856564Y8600035D01*
X3856566Y8600031D01*
X3917685Y8480079D01*
X4012882Y8384882D01*
X4132834Y8323763D01*
X4132833Y8323763D01*
X4232349Y8308001D01*
X4365804Y8308001D01*
X4365804Y8308002D01*
X4615804Y8308002D01*
X4615805Y8308001D01*
X4749257Y8308001D01*
X4848769Y8323761D01*
X4848773Y8323763D01*
X4968725Y8384882D01*
X5063922Y8480079D01*
X5082037Y8515631D01*
X5557304Y8515631D01*
X5557305Y8515628D01*
X5560121Y8491339D01*
X5565093Y8480079D01*
X5603991Y8391984D01*
X5680788Y8315187D01*
X5780142Y8271318D01*
X5804431Y8268500D01*
X6171176Y8268501D01*
X6195466Y8271318D01*
X6294820Y8315187D01*
X6366384Y8386752D01*
X6420898Y8414528D01*
X6481330Y8404957D01*
X6518962Y8367326D01*
X6520028Y8368071D01*
X6524257Y8362031D01*
X6524595Y8361693D01*
X6524827Y8361217D01*
X6524993Y8360980D01*
X6609782Y8276191D01*
X6718442Y8225522D01*
X6718449Y8225520D01*
X6767965Y8219000D01*
X6822803Y8219000D01*
X6822804Y8219001D01*
X7072804Y8219001D01*
X7072805Y8219000D01*
X7127642Y8219000D01*
X7177158Y8225520D01*
X7177165Y8225522D01*
X7285825Y8276191D01*
X7370613Y8360979D01*
X7377151Y8375000D01*
X7766361Y8375000D01*
X7777759Y8317701D01*
X7786245Y8305001D01*
X7802853Y8246113D01*
X7786245Y8194999D01*
X7777759Y8182300D01*
X7766361Y8125000D01*
X8111803Y8125000D01*
X8111804Y8125001D01*
X8111804Y8374999D01*
X8111803Y8375000D01*
X7766361Y8375000D01*
X7377151Y8375000D01*
X7421282Y8469639D01*
X7421284Y8469646D01*
X7427804Y8519162D01*
X7427804Y8603999D01*
X7427803Y8604000D01*
X7072805Y8604000D01*
X7072804Y8603999D01*
X7072804Y8219001D01*
X6822804Y8219001D01*
X6822804Y8854001D01*
X7072804Y8854001D01*
X7072805Y8854000D01*
X7427803Y8854000D01*
X7427804Y8854001D01*
X7427804Y8938839D01*
X7421284Y8988355D01*
X7421282Y8988362D01*
X7370613Y9097022D01*
X7337878Y9129757D01*
X7310101Y9184274D01*
X7313493Y9205694D01*
X7261370Y9197442D01*
X7235024Y9205498D01*
X7177162Y9232480D01*
X7177158Y9232481D01*
X7127643Y9239000D01*
X7072805Y9239000D01*
X7072804Y9238999D01*
X7072804Y8854001D01*
X6822804Y8854001D01*
X6822804Y9238999D01*
X6822803Y9239000D01*
X6767965Y9239000D01*
X6718449Y9232481D01*
X6718442Y9232479D01*
X6609782Y9181810D01*
X6524993Y9097021D01*
X6520028Y9089929D01*
X6518357Y9091099D01*
X6484377Y9054664D01*
X6424315Y9042993D01*
X6368864Y9068854D01*
X6366410Y9071223D01*
X6294820Y9142813D01*
X6294818Y9142814D01*
X6288333Y9149299D01*
X6290669Y9151636D01*
X6263086Y9187458D01*
X6261380Y9248620D01*
X6282887Y9284837D01*
X6282514Y9285108D01*
X6285442Y9289140D01*
X6286351Y9290670D01*
X6287095Y9291413D01*
X6337500Y9390339D01*
X6354869Y9500000D01*
X6337500Y9609661D01*
X6287095Y9708587D01*
X6208587Y9787095D01*
X6109661Y9837500D01*
X6000000Y9854869D01*
X5890338Y9837500D01*
X5791413Y9787095D01*
X5712905Y9708587D01*
X5662500Y9609662D01*
X5662500Y9609661D01*
X5645131Y9500000D01*
X5662500Y9390339D01*
X5712904Y9291414D01*
X5712906Y9291412D01*
X5714761Y9288859D01*
X5715735Y9285860D01*
X5716443Y9284471D01*
X5716223Y9284359D01*
X5733667Y9230668D01*
X5714759Y9172478D01*
X5686960Y9150035D01*
X5688356Y9147997D01*
X5680790Y9142815D01*
X5603991Y9066016D01*
X5560121Y8966660D01*
X5557304Y8942378D01*
X5557304Y8515631D01*
X5082037Y8515631D01*
X5125041Y8600031D01*
X5140804Y8699547D01*
X5140804Y8857999D01*
X5140803Y8858000D01*
X4615805Y8858000D01*
X4615804Y8857999D01*
X4615804Y8308002D01*
X4365804Y8308002D01*
X4365804Y8857999D01*
X4365803Y8858000D01*
X3840806Y8858000D01*
X3840805Y8857999D01*
X3840805Y8699547D01*
X3840804Y8699547D01*
X3541304Y8699547D01*
X3541304Y9108001D01*
X3840804Y9108001D01*
X3840805Y9108000D01*
X4365803Y9108000D01*
X4365804Y9108001D01*
X4615804Y9108001D01*
X4615805Y9108000D01*
X5140802Y9108000D01*
X5140803Y9108001D01*
X5140803Y9266454D01*
X5125043Y9365966D01*
X5125041Y9365970D01*
X5063922Y9485922D01*
X4968725Y9581119D01*
X4848773Y9642238D01*
X4848774Y9642238D01*
X4749258Y9658000D01*
X4615805Y9658000D01*
X4615804Y9657999D01*
X4615804Y9108001D01*
X4365804Y9108001D01*
X4365804Y9657999D01*
X4365803Y9658000D01*
X4232351Y9658000D01*
X4232350Y9657999D01*
X4132838Y9642240D01*
X4132834Y9642238D01*
X4012882Y9581119D01*
X3917685Y9485922D01*
X3856566Y9365970D01*
X3840804Y9266454D01*
X3840804Y9108001D01*
X3541304Y9108001D01*
X3541304Y9268636D01*
X3530670Y9341625D01*
X3475630Y9454211D01*
X3387015Y9542826D01*
X3308685Y9581119D01*
X3274429Y9597866D01*
X3274430Y9597866D01*
X3256181Y9600525D01*
X3201440Y9608500D01*
X2680168Y9608500D01*
X2637929Y9602346D01*
X2607177Y9597866D01*
X2494594Y9542827D01*
X2405977Y9454210D01*
X2350938Y9341627D01*
X2350938Y9341625D01*
X2340304Y9268636D01*
X2340304Y8697364D01*
X475500Y8697364D01*
X475500Y11615587D01*
X494407Y11673778D01*
X504496Y11685591D01*
X1555496Y12736591D01*
X1610013Y12764368D01*
X1670445Y12754797D01*
X1713710Y12711532D01*
X1724500Y12666587D01*
X1724500Y12255111D01*
X1713710Y12210166D01*
X1712905Y12208588D01*
X1712905Y12208587D01*
X1695597Y12174617D01*
X1662500Y12109662D01*
X1645387Y12001614D01*
X1645131Y12000000D01*
X1662500Y11890339D01*
X1712905Y11791413D01*
X1791413Y11712905D01*
X1890339Y11662500D01*
X2000000Y11645131D01*
X2109661Y11662500D01*
X2208587Y11712905D01*
X2287095Y11791413D01*
X2337500Y11890339D01*
X2354869Y12000000D01*
X2354613Y12001614D01*
X2350786Y12025778D01*
X2337500Y12109661D01*
X2287095Y12208587D01*
X2287094Y12208588D01*
X2286290Y12210166D01*
X2275500Y12255111D01*
X2275500Y12413266D01*
X2294407Y12471457D01*
X2343907Y12507421D01*
X2405093Y12507421D01*
X2454593Y12471457D01*
X2471597Y12432581D01*
X2476232Y12409281D01*
X2476234Y12409276D01*
X2494447Y12382019D01*
X2509496Y12359496D01*
X2559278Y12326233D01*
X2569378Y12324224D01*
X2603172Y12317501D01*
X2603178Y12317501D01*
X2603180Y12317500D01*
X2603181Y12317500D01*
X3132819Y12317500D01*
X3132820Y12317500D01*
X3132821Y12317501D01*
X3132827Y12317501D01*
X3154623Y12321838D01*
X3176722Y12326233D01*
X3226504Y12359496D01*
X3259767Y12409278D01*
X3268500Y12453180D01*
X3268500Y13332820D01*
X3268499Y13332822D01*
X3268499Y13332828D01*
X3259767Y13376721D01*
X3259765Y13376725D01*
X3225761Y13427616D01*
X3209152Y13486505D01*
X3230330Y13543908D01*
X3281203Y13577901D01*
X3308076Y13581618D01*
X3427924Y13581618D01*
X3486115Y13562711D01*
X3522079Y13513211D01*
X3522079Y13452025D01*
X3510239Y13427616D01*
X3476234Y13376725D01*
X3476232Y13376721D01*
X3467500Y13332828D01*
X3467500Y12453173D01*
X3476232Y12409280D01*
X3476234Y12409276D01*
X3494447Y12382019D01*
X3509496Y12359496D01*
X3559278Y12326233D01*
X3569378Y12324224D01*
X3603172Y12317501D01*
X3603178Y12317501D01*
X3603180Y12317500D01*
X3603181Y12317500D01*
X4132819Y12317500D01*
X4132820Y12317500D01*
X4132821Y12317501D01*
X4132827Y12317501D01*
X4154623Y12321838D01*
X4176722Y12326233D01*
X4226504Y12359496D01*
X4259767Y12409278D01*
X4268500Y12453180D01*
X4268500Y12675500D01*
X4287407Y12733691D01*
X4336907Y12769655D01*
X4367500Y12774500D01*
X4510282Y12774500D01*
X4568473Y12755593D01*
X4600846Y12715489D01*
X4629383Y12650862D01*
X4629384Y12650859D01*
X4704859Y12575384D01*
X4742350Y12558830D01*
X4802501Y12532270D01*
X4806749Y12531778D01*
X4826377Y12529500D01*
X5181622Y12529501D01*
X5205498Y12532270D01*
X5303141Y12575384D01*
X5378616Y12650859D01*
X5421730Y12748502D01*
X5421730Y12748506D01*
X5423434Y12752364D01*
X5464235Y12797960D01*
X5524044Y12810865D01*
X5580016Y12786151D01*
X5604563Y12752365D01*
X5649382Y12650862D01*
X5649383Y12650861D01*
X5649384Y12650859D01*
X5724859Y12575384D01*
X5762350Y12558830D01*
X5822501Y12532270D01*
X5826749Y12531778D01*
X5846377Y12529500D01*
X6201622Y12529501D01*
X6225498Y12532270D01*
X6323141Y12575384D01*
X6398616Y12650859D01*
X6398616Y12650861D01*
X6401019Y12653263D01*
X6455535Y12681041D01*
X6515968Y12671470D01*
X6541027Y12653264D01*
X7049786Y12144505D01*
X7077563Y12089988D01*
X7067992Y12029556D01*
X7024727Y11986291D01*
X6979782Y11975501D01*
X6943622Y11975501D01*
X6943614Y11975500D01*
X6517718Y11975500D01*
X6459527Y11994407D01*
X6427154Y12034511D01*
X6398616Y12099140D01*
X6398616Y12099141D01*
X6323141Y12174616D01*
X6314370Y12178489D01*
X6225498Y12217731D01*
X6201626Y12220500D01*
X5846380Y12220500D01*
X5846377Y12220499D01*
X5822499Y12217730D01*
X5724860Y12174617D01*
X5649383Y12099140D01*
X5604564Y11997636D01*
X5563763Y11952041D01*
X5503954Y11939136D01*
X5447982Y11963851D01*
X5423436Y11997636D01*
X5378616Y12099140D01*
X5378616Y12099141D01*
X5303141Y12174616D01*
X5294370Y12178489D01*
X5205498Y12217731D01*
X5181626Y12220500D01*
X4826380Y12220500D01*
X4826377Y12220499D01*
X4802499Y12217730D01*
X4704860Y12174617D01*
X4704859Y12174616D01*
X4629384Y12099141D01*
X4600846Y12034511D01*
X4560047Y11988916D01*
X4510283Y11975500D01*
X3955143Y11975500D01*
X3872264Y11941171D01*
X3808829Y11877737D01*
X3808830Y11877736D01*
X3808829Y11877735D01*
X3740265Y11809171D01*
X3740264Y11809170D01*
X3740263Y11809171D01*
X3678591Y11747497D01*
X3624075Y11719719D01*
X3608587Y11718500D01*
X3603172Y11718500D01*
X3559279Y11709768D01*
X3559275Y11709766D01*
X3509498Y11676506D01*
X3509494Y11676502D01*
X3476234Y11626725D01*
X3476232Y11626721D01*
X3467500Y11582828D01*
X3467500Y11101413D01*
X3448593Y11043222D01*
X3399093Y11007258D01*
X3337907Y11007258D01*
X3298496Y11031409D01*
X3297496Y11032409D01*
X3269719Y11086926D01*
X3268500Y11102413D01*
X3268500Y11582819D01*
X3268499Y11582828D01*
X3259767Y11626721D01*
X3259765Y11626725D01*
X3253656Y11635868D01*
X3226504Y11676504D01*
X3204115Y11691464D01*
X3176724Y11709766D01*
X3176720Y11709768D01*
X3132827Y11718500D01*
X3132820Y11718500D01*
X2603180Y11718500D01*
X2603172Y11718500D01*
X2559279Y11709768D01*
X2559275Y11709766D01*
X2509498Y11676506D01*
X2509494Y11676502D01*
X2476234Y11626725D01*
X2476232Y11626721D01*
X2467500Y11582828D01*
X2467500Y10703173D01*
X2476232Y10659280D01*
X2476234Y10659276D01*
X2497942Y10626788D01*
X2509496Y10609496D01*
X2559278Y10576233D01*
X2570327Y10574036D01*
X2603172Y10567501D01*
X2603178Y10567501D01*
X2603180Y10567500D01*
X3083587Y10567500D01*
X3141778Y10548593D01*
X3153591Y10538504D01*
X3326829Y10365266D01*
X3326830Y10365264D01*
X3390264Y10301830D01*
X3424595Y10287610D01*
X3473146Y10267499D01*
X3473147Y10267499D01*
X3574378Y10267499D01*
X3574386Y10267500D01*
X4530152Y10267500D01*
X4588343Y10248593D01*
X4620716Y10208489D01*
X4629384Y10188859D01*
X4704859Y10113384D01*
X4741496Y10097207D01*
X4802501Y10070270D01*
X4806749Y10069778D01*
X4826377Y10067500D01*
X5181622Y10067501D01*
X5205498Y10070270D01*
X5303141Y10113384D01*
X5378616Y10188859D01*
X5421730Y10286502D01*
X5421730Y10286506D01*
X5423434Y10290364D01*
X5464235Y10335960D01*
X5524044Y10348865D01*
X5580016Y10324151D01*
X5604563Y10290365D01*
X5649382Y10188862D01*
X5649383Y10188861D01*
X5649384Y10188859D01*
X5724859Y10113384D01*
X5761496Y10097207D01*
X5822501Y10070270D01*
X5826749Y10069778D01*
X5846377Y10067500D01*
X6201622Y10067501D01*
X6225498Y10070270D01*
X6323141Y10113384D01*
X6390923Y10181167D01*
X6445437Y10208943D01*
X6505869Y10199372D01*
X6530929Y10181166D01*
X7339829Y9372266D01*
X7339830Y9372264D01*
X7346124Y9365970D01*
X7346873Y9365221D01*
X7374646Y9310702D01*
X7371252Y9289289D01*
X7423369Y9297542D01*
X7445761Y9291228D01*
X7486146Y9274499D01*
X7486148Y9274499D01*
X7587378Y9274499D01*
X7587386Y9274500D01*
X7725936Y9274500D01*
X7784127Y9255593D01*
X7820091Y9206093D01*
X7823034Y9156187D01*
X7811304Y9097216D01*
X7811304Y8902794D01*
X7811305Y8902784D01*
X7824387Y8837014D01*
X7825855Y8833469D01*
X7830652Y8772472D01*
X7816705Y8740587D01*
X7777759Y8682302D01*
X7766361Y8625000D01*
X8262804Y8625000D01*
X8320995Y8606093D01*
X8356959Y8556593D01*
X8361804Y8526000D01*
X8361804Y7974000D01*
X8342897Y7915809D01*
X8293397Y7879845D01*
X8262804Y7875000D01*
X7766361Y7875000D01*
X7777760Y7817696D01*
X7781328Y7809083D01*
X7786129Y7748086D01*
X7754159Y7695917D01*
X7749544Y7692424D01*
X7748290Y7691171D01*
X7748290Y7691170D01*
X7740909Y7683790D01*
X7686395Y7656014D01*
X7680932Y7655585D01*
X7568909Y7637841D01*
X7508477Y7647412D01*
X7465212Y7690677D01*
X7463698Y7693783D01*
X7428613Y7769022D01*
X7343825Y7853810D01*
X7235165Y7904479D01*
X7235158Y7904481D01*
X7185643Y7911000D01*
X7100805Y7911000D01*
X7100804Y7910999D01*
X7100804Y7405000D01*
X7081897Y7346809D01*
X7032397Y7310845D01*
X7001804Y7306000D01*
X6465805Y7306000D01*
X6465804Y7305999D01*
X6465804Y7251162D01*
X6472323Y7201646D01*
X6472325Y7201639D01*
X6522994Y7092979D01*
X6607783Y7008190D01*
X6614875Y7003224D01*
X6613703Y7001552D01*
X6650133Y6967587D01*
X6661813Y6907526D01*
X6635960Y6852071D01*
X6633554Y6849579D01*
X6583525Y6799550D01*
X6529008Y6771773D01*
X6468576Y6781344D01*
X6462177Y6785265D01*
X6458588Y6787094D01*
X6458587Y6787095D01*
X6359661Y6837500D01*
X6250000Y6854869D01*
X6249999Y6854869D01*
X6159435Y6840525D01*
X6099003Y6850096D01*
X6055738Y6893361D01*
X6046167Y6953793D01*
X6073944Y7008309D01*
X6158612Y7092977D01*
X6158613Y7092979D01*
X6209282Y7201639D01*
X6209284Y7201646D01*
X6215804Y7251162D01*
X6215804Y7305999D01*
X6215803Y7306000D01*
X5195805Y7306000D01*
X5195804Y7305999D01*
X5195804Y7251162D01*
X5202323Y7201646D01*
X5202325Y7201639D01*
X5252994Y7092979D01*
X5337783Y7008190D01*
X5344875Y7003224D01*
X5343703Y7001552D01*
X5380133Y6967587D01*
X5391813Y6907526D01*
X5365960Y6852071D01*
X5363554Y6849580D01*
X5291992Y6778018D01*
X5291991Y6778017D01*
X5291991Y6778016D01*
X5279241Y6749140D01*
X5248121Y6678660D01*
X5245304Y6654378D01*
X5245304Y6287631D01*
X5245305Y6287628D01*
X5248121Y6263339D01*
X5265271Y6224499D01*
X5291991Y6163984D01*
X5368788Y6087187D01*
X5468142Y6043318D01*
X5492431Y6040500D01*
X5593089Y6040501D01*
X5651278Y6021594D01*
X5687242Y5972095D01*
X5687243Y5910909D01*
X5681299Y5896558D01*
X5662500Y5859662D01*
X5647099Y5762423D01*
X5645131Y5750000D01*
X5657278Y5673306D01*
X5663719Y5632644D01*
X5661366Y5632272D01*
X5661358Y5582633D01*
X5637213Y5543239D01*
X5603992Y5510018D01*
X5603991Y5510017D01*
X5603991Y5510016D01*
X5582056Y5460339D01*
X5560121Y5410660D01*
X5557304Y5386378D01*
X5557304Y4959631D01*
X5557305Y4959628D01*
X5560121Y4935339D01*
X5590313Y4866962D01*
X5596521Y4806092D01*
X5565765Y4753199D01*
X5509793Y4728485D01*
X5461863Y4735509D01*
X5339169Y4786330D01*
X5339166Y4786331D01*
X5339165Y4786331D01*
X5195460Y4805250D01*
X5051751Y4786331D01*
X5051750Y4786330D01*
X4917838Y4730863D01*
X4917829Y4730858D01*
X4850123Y4678905D01*
X4792447Y4658481D01*
X4749870Y4666882D01*
X4658314Y4707308D01*
X4612720Y4748107D01*
X4599304Y4797871D01*
X4599304Y5245382D01*
X4615989Y5300384D01*
X4660130Y5366445D01*
X4660130Y5366446D01*
X4660132Y5366448D01*
X4674304Y5437695D01*
X4674303Y5673304D01*
X4667542Y5707294D01*
X4660132Y5744551D01*
X4660132Y5744552D01*
X4626293Y5795195D01*
X4609685Y5854080D01*
X4614191Y5874613D01*
X4613669Y5874716D01*
X4624303Y5928173D01*
X4624304Y5928182D01*
X4624304Y6403692D01*
X4625523Y6419180D01*
X4629296Y6443001D01*
X4625523Y6466823D01*
X4624304Y6482310D01*
X4624304Y6957819D01*
X4623827Y6962664D01*
X4626092Y6962888D01*
X4632224Y7014828D01*
X4652141Y7043413D01*
X4676594Y7067866D01*
X4720954Y7168334D01*
X4723803Y7192892D01*
X4723804Y7192894D01*
X4723804Y7205499D01*
X4723803Y7205500D01*
X3647804Y7205500D01*
X3589613Y7224407D01*
X3553649Y7273907D01*
X3548804Y7304500D01*
X3548804Y7455501D01*
X3798804Y7455501D01*
X3798805Y7455500D01*
X4198803Y7455500D01*
X4198804Y7455501D01*
X4448804Y7455501D01*
X4448805Y7455500D01*
X4723803Y7455500D01*
X4723804Y7455501D01*
X4723804Y7468106D01*
X4723803Y7468109D01*
X4720954Y7492667D01*
X4692990Y7556001D01*
X5195804Y7556001D01*
X5195805Y7556000D01*
X5580803Y7556000D01*
X5580804Y7556001D01*
X5830804Y7556001D01*
X5830805Y7556000D01*
X6215803Y7556000D01*
X6215804Y7556001D01*
X6465804Y7556001D01*
X6465805Y7556000D01*
X6850803Y7556000D01*
X6850804Y7556001D01*
X6850804Y7910999D01*
X6850803Y7911000D01*
X6765965Y7911000D01*
X6716449Y7904481D01*
X6716442Y7904479D01*
X6607782Y7853810D01*
X6522994Y7769022D01*
X6472325Y7660362D01*
X6472323Y7660355D01*
X6465804Y7610839D01*
X6465804Y7556001D01*
X6215804Y7556001D01*
X6215804Y7610839D01*
X6209284Y7660355D01*
X6209282Y7660362D01*
X6158613Y7769022D01*
X6073825Y7853810D01*
X5965165Y7904479D01*
X5965158Y7904481D01*
X5915643Y7911000D01*
X5830805Y7911000D01*
X5830804Y7910999D01*
X5830804Y7556001D01*
X5580804Y7556001D01*
X5580804Y7910999D01*
X5580803Y7911000D01*
X5495965Y7911000D01*
X5446449Y7904481D01*
X5446442Y7904479D01*
X5337782Y7853810D01*
X5252994Y7769022D01*
X5202325Y7660362D01*
X5202323Y7660355D01*
X5195804Y7610839D01*
X5195804Y7556001D01*
X4692990Y7556001D01*
X4676594Y7593134D01*
X4598937Y7670791D01*
X4498470Y7715151D01*
X4473912Y7718000D01*
X4448805Y7718000D01*
X4448804Y7717999D01*
X4448804Y7455501D01*
X4198804Y7455501D01*
X4198804Y7717999D01*
X4198803Y7718000D01*
X4173695Y7718000D01*
X4149137Y7715151D01*
X4040278Y7667085D01*
X4038870Y7670274D01*
X3996018Y7657672D01*
X3958549Y7669847D01*
X3957330Y7667085D01*
X3848470Y7715151D01*
X3823912Y7718000D01*
X3798805Y7718000D01*
X3798804Y7717999D01*
X3798804Y7455501D01*
X3548804Y7455501D01*
X3548804Y7717999D01*
X3548803Y7718000D01*
X3523695Y7718000D01*
X3499137Y7715151D01*
X3398668Y7670790D01*
X3376830Y7648952D01*
X3322313Y7621176D01*
X3261881Y7630748D01*
X3251827Y7636641D01*
X3225358Y7654327D01*
X3225357Y7654328D01*
X3225356Y7654328D01*
X3154109Y7668500D01*
X3154108Y7668500D01*
X2893502Y7668500D01*
X2893495Y7668499D01*
X2822252Y7654329D01*
X2822250Y7654328D01*
X2741463Y7600347D01*
X2741457Y7600341D01*
X2687477Y7519556D01*
X2687477Y7519554D01*
X2687476Y7519552D01*
X2680603Y7485000D01*
X2673304Y7448305D01*
X2673304Y7212699D01*
X2673305Y7212691D01*
X2687475Y7141449D01*
X2687476Y7141447D01*
X2721313Y7090808D01*
X2737922Y7031920D01*
X2733418Y7011387D01*
X2733939Y7011283D01*
X2723304Y6957828D01*
X2723304Y6482310D01*
X2722085Y6466823D01*
X2718312Y6443001D01*
X2722085Y6419180D01*
X2723304Y6403692D01*
X2723304Y5928173D01*
X2733939Y5874716D01*
X2731551Y5874242D01*
X2735263Y5827084D01*
X2721313Y5795193D01*
X2687478Y5744556D01*
X2687477Y5744554D01*
X2687476Y5744552D01*
X2682371Y5718886D01*
X2673304Y5673306D01*
X2673304Y5635623D01*
X2654397Y5577432D01*
X2644311Y5565624D01*
X2593942Y5515253D01*
X2593941Y5515254D01*
X2516446Y5437758D01*
X2516444Y5437756D01*
X2516443Y5437754D01*
X2474500Y5336496D01*
X2474500Y3695200D01*
X2486352Y3666587D01*
X2508867Y3612230D01*
X2516441Y3593944D01*
X2516443Y3593942D01*
X2715881Y3394503D01*
X2743658Y3339987D01*
X2734087Y3279555D01*
X2690822Y3236290D01*
X2645877Y3225500D01*
X2634413Y3225500D01*
X2576222Y3244407D01*
X2564409Y3254496D01*
X1633865Y4185040D01*
X1606088Y4239557D01*
X1605658Y4245018D01*
X1604303Y4253570D01*
X1587500Y4359661D01*
X1537095Y4458587D01*
X1458587Y4537095D01*
X1359661Y4587500D01*
X1250000Y4604869D01*
X1140338Y4587500D01*
X1041413Y4537095D01*
X962905Y4458587D01*
X912500Y4359662D01*
X896958Y4261532D01*
X895131Y4250000D01*
X912500Y4140339D01*
X962905Y4041413D01*
X1041413Y3962905D01*
X1139389Y3912984D01*
X1140339Y3912500D01*
X1257696Y3893912D01*
X1257256Y3891135D01*
X1303147Y3876224D01*
X1314960Y3866135D01*
X2308829Y2872266D01*
X2308830Y2872264D01*
X2337040Y2844054D01*
X2364816Y2789539D01*
X2355245Y2729107D01*
X2345577Y2713785D01*
X2298651Y2652630D01*
X2298646Y2652622D01*
X2243179Y2518710D01*
X2243178Y2518709D01*
X2224259Y2375001D01*
X2224259Y2375000D01*
X2243178Y2231292D01*
X2243179Y2231291D01*
X2289397Y2119708D01*
X2298648Y2097375D01*
X2386888Y1982379D01*
X2386892Y1982376D01*
X2386893Y1982375D01*
X2435767Y1944873D01*
X2470423Y1894449D01*
X2474500Y1866331D01*
X2474500Y-2054800D01*
X2476050Y-2058542D01*
X2503786Y-2125501D01*
X2503786Y-2125502D01*
X2516441Y-2156055D01*
X2516442Y-2156056D01*
X2516443Y-2156058D01*
X3343941Y-2983557D01*
X3373595Y-2995839D01*
X3373597Y-2995841D01*
X3373598Y-2995841D01*
X3409399Y-3010670D01*
X3445200Y-3025500D01*
X3445201Y-3025500D01*
X23554799Y-3025500D01*
X23554800Y-3025500D01*
X23656058Y-2983557D01*
X23733557Y-2906058D01*
X23733556Y-2906058D01*
X23983557Y-2656059D01*
X23995841Y-2626400D01*
X24025500Y-2554800D01*
X24025500Y-2263832D01*
X24044407Y-2205641D01*
X24093907Y-2169677D01*
X24155093Y-2169677D01*
X24201029Y-2201028D01*
X24209114Y-2210880D01*
X24209121Y-2210887D01*
X24273635Y-2263832D01*
X24361462Y-2335910D01*
X24535273Y-2428814D01*
X24723868Y-2486024D01*
X24723870Y-2486024D01*
X24723873Y-2486025D01*
X24919997Y-2505341D01*
X24920000Y-2505341D01*
X24920003Y-2505341D01*
X25116126Y-2486025D01*
X25116127Y-2486024D01*
X25116132Y-2486024D01*
X25304727Y-2428814D01*
X25478538Y-2335910D01*
X25630883Y-2210883D01*
X25755910Y-2058538D01*
X25848814Y-1884727D01*
X25906024Y-1696132D01*
X25916029Y-1594554D01*
X25925341Y-1500003D01*
X26454659Y-1500003D01*
X26473974Y-1696126D01*
X26473975Y-1696129D01*
X26531187Y-1884730D01*
X26531188Y-1884732D01*
X26602218Y-2017618D01*
X26624090Y-2058538D01*
X26624092Y-2058540D01*
X26624093Y-2058542D01*
X26749112Y-2210878D01*
X26749121Y-2210887D01*
X26813635Y-2263832D01*
X26901462Y-2335910D01*
X27075273Y-2428814D01*
X27263868Y-2486024D01*
X27263870Y-2486024D01*
X27263873Y-2486025D01*
X27459997Y-2505341D01*
X27460000Y-2505341D01*
X27460003Y-2505341D01*
X27656126Y-2486025D01*
X27656127Y-2486024D01*
X27656132Y-2486024D01*
X27844727Y-2428814D01*
X28018538Y-2335910D01*
X28170883Y-2210883D01*
X28295910Y-2058538D01*
X28388814Y-1884727D01*
X28446024Y-1696132D01*
X28456029Y-1594554D01*
X28465341Y-1500003D01*
X28465341Y-1499996D01*
X28446025Y-1303873D01*
X28446024Y-1303870D01*
X28446024Y-1303868D01*
X28388814Y-1115273D01*
X28295910Y-941462D01*
X28295906Y-941457D01*
X28170887Y-789121D01*
X28170878Y-789112D01*
X28018542Y-664093D01*
X28018540Y-664092D01*
X28018538Y-664090D01*
X27954936Y-630094D01*
X27844732Y-571188D01*
X27844730Y-571187D01*
X27656129Y-513975D01*
X27656126Y-513974D01*
X27460003Y-494659D01*
X27459997Y-494659D01*
X27263873Y-513974D01*
X27263870Y-513975D01*
X27075269Y-571187D01*
X27075267Y-571188D01*
X26901467Y-664087D01*
X26901457Y-664093D01*
X26749121Y-789112D01*
X26749112Y-789121D01*
X26624093Y-941457D01*
X26624087Y-941467D01*
X26531188Y-1115267D01*
X26531187Y-1115269D01*
X26473975Y-1303870D01*
X26473974Y-1303873D01*
X26454659Y-1499996D01*
X26454659Y-1500003D01*
X25925341Y-1500003D01*
X25925341Y-1499996D01*
X25906025Y-1303873D01*
X25906024Y-1303870D01*
X25906024Y-1303868D01*
X25848814Y-1115273D01*
X25829618Y-1079360D01*
X25818861Y-1019131D01*
X25845562Y-964079D01*
X25846871Y-962742D01*
X26483557Y-326058D01*
X26497322Y-292826D01*
X26525500Y-224800D01*
X26525500Y-98420D01*
X30749500Y-98420D01*
X30780289Y-292821D01*
X30841116Y-480025D01*
X30909893Y-615010D01*
X30930476Y-655405D01*
X31046172Y-814646D01*
X31185354Y-953828D01*
X31344595Y-1069524D01*
X31519975Y-1158884D01*
X31707174Y-1219709D01*
X31707175Y-1219709D01*
X31707178Y-1219710D01*
X31901580Y-1250500D01*
X31901583Y-1250500D01*
X32098420Y-1250500D01*
X32292821Y-1219710D01*
X32292822Y-1219709D01*
X32292826Y-1219709D01*
X32480025Y-1158884D01*
X32655405Y-1069524D01*
X32814646Y-953828D01*
X32953828Y-814646D01*
X33069524Y-655405D01*
X33158884Y-480025D01*
X33219709Y-292826D01*
X33220515Y-287736D01*
X33250500Y-98420D01*
X33250500Y98421D01*
X33219710Y292822D01*
X33219709Y292826D01*
X33158884Y480025D01*
X33069524Y655405D01*
X32953828Y814646D01*
X32814646Y953828D01*
X32655405Y1069524D01*
X32655404Y1069525D01*
X32655402Y1069526D01*
X32480025Y1158884D01*
X32292821Y1219711D01*
X32098420Y1250500D01*
X32098417Y1250500D01*
X31901583Y1250500D01*
X31901580Y1250500D01*
X31707178Y1219711D01*
X31519974Y1158884D01*
X31344597Y1069526D01*
X31185355Y953829D01*
X31046171Y814645D01*
X30930474Y655403D01*
X30841116Y480026D01*
X30780289Y292822D01*
X30749500Y98421D01*
X30749500Y-98420D01*
X26525500Y-98420D01*
X26525500Y324908D01*
X26544407Y383099D01*
X26593907Y419063D01*
X26655093Y419063D01*
X26701028Y387713D01*
X26749112Y329122D01*
X26749121Y329113D01*
X26865554Y233559D01*
X26901462Y204090D01*
X27075273Y111186D01*
X27263868Y53976D01*
X27263870Y53976D01*
X27263873Y53975D01*
X27459997Y34659D01*
X27460000Y34659D01*
X27460003Y34659D01*
X27656126Y53975D01*
X27656127Y53976D01*
X27656132Y53976D01*
X27844727Y111186D01*
X28018538Y204090D01*
X28170883Y329117D01*
X28295910Y481462D01*
X28388814Y655273D01*
X28446024Y843868D01*
X28446024Y843873D01*
X28446025Y843874D01*
X28465341Y1039997D01*
X28465341Y1040004D01*
X28446025Y1236127D01*
X28446024Y1236130D01*
X28446024Y1236132D01*
X28388814Y1424727D01*
X28295910Y1598538D01*
X28295185Y1599422D01*
X28170887Y1750879D01*
X28170878Y1750888D01*
X28018542Y1875907D01*
X28018540Y1875908D01*
X28018538Y1875910D01*
X27971718Y1900936D01*
X27844732Y1968812D01*
X27844730Y1968813D01*
X27844723Y1968815D01*
X27685498Y2017116D01*
X27656129Y2026025D01*
X27656126Y2026026D01*
X27460003Y2045341D01*
X27459997Y2045341D01*
X27263873Y2026026D01*
X27263870Y2026025D01*
X27075269Y1968813D01*
X27075267Y1968812D01*
X26901467Y1875913D01*
X26901457Y1875907D01*
X26749121Y1750888D01*
X26749112Y1750879D01*
X26701028Y1692288D01*
X26649496Y1659301D01*
X26588417Y1662903D01*
X26541120Y1701719D01*
X26525500Y1755093D01*
X26525500Y4719455D01*
X26544407Y4777646D01*
X26593907Y4813610D01*
X26655093Y4813610D01*
X26684768Y4797996D01*
X26722369Y4769143D01*
X26722371Y4769142D01*
X26722375Y4769139D01*
X26856291Y4713670D01*
X27000000Y4694750D01*
X27143709Y4713670D01*
X27277625Y4769139D01*
X27366081Y4837014D01*
X27392615Y4857374D01*
X27392616Y4857376D01*
X27392621Y4857379D01*
X27392624Y4857384D01*
X27394479Y4859238D01*
X27396164Y4860098D01*
X27397770Y4861329D01*
X27397998Y4861032D01*
X27448991Y4887024D01*
X27504480Y4879810D01*
X27519357Y4873242D01*
X27545009Y4861915D01*
X27570135Y4859000D01*
X27575538Y4859001D01*
X27633728Y4840101D01*
X27669698Y4790605D01*
X27669705Y4729420D01*
X27645551Y4689998D01*
X27559732Y4604179D01*
X27559724Y4604169D01*
X27488538Y4497634D01*
X27488534Y4497626D01*
X27439500Y4379248D01*
X27439499Y4379245D01*
X27439499Y4379244D01*
X27436631Y4364826D01*
X27415110Y4256634D01*
X27414500Y4253569D01*
X27414500Y4125431D01*
X27438584Y4004354D01*
X27439499Y3999758D01*
X27439500Y3999753D01*
X27488534Y3881375D01*
X27488538Y3881367D01*
X27506337Y3854730D01*
X27559724Y3774831D01*
X27650331Y3684224D01*
X27713848Y3641783D01*
X27756866Y3613039D01*
X27756870Y3613037D01*
X27756873Y3613035D01*
X27875256Y3563999D01*
X28000931Y3539000D01*
X28000932Y3539000D01*
X29229068Y3539000D01*
X29229069Y3539000D01*
X29354744Y3563999D01*
X29473127Y3613035D01*
X29579669Y3684224D01*
X29670276Y3774831D01*
X29741465Y3881373D01*
X29790501Y3999756D01*
X29815500Y4125431D01*
X31744500Y4125431D01*
X31768584Y4004354D01*
X31769499Y3999758D01*
X31769500Y3999753D01*
X31818534Y3881375D01*
X31818538Y3881367D01*
X31836337Y3854730D01*
X31889724Y3774831D01*
X31980331Y3684224D01*
X32043848Y3641783D01*
X32086866Y3613039D01*
X32086870Y3613037D01*
X32086873Y3613035D01*
X32205256Y3563999D01*
X32330931Y3539000D01*
X32330932Y3539000D01*
X33259068Y3539000D01*
X33259069Y3539000D01*
X33384744Y3563999D01*
X33503127Y3613035D01*
X33609669Y3684224D01*
X33700276Y3774831D01*
X33771465Y3881373D01*
X33820501Y3999756D01*
X33845500Y4125431D01*
X33845500Y4253569D01*
X33820501Y4379244D01*
X33771465Y4497627D01*
X33771463Y4497630D01*
X33771461Y4497634D01*
X33731672Y4557181D01*
X33700276Y4604169D01*
X33609669Y4694776D01*
X33557821Y4729420D01*
X33503133Y4765962D01*
X33503125Y4765966D01*
X33384747Y4815000D01*
X33384745Y4815001D01*
X33384744Y4815001D01*
X33259069Y4840000D01*
X32330931Y4840000D01*
X32330930Y4840000D01*
X32268093Y4827501D01*
X32205256Y4815001D01*
X32205255Y4815001D01*
X32205252Y4815000D01*
X32086874Y4765966D01*
X32086866Y4765962D01*
X31980331Y4694776D01*
X31980327Y4694773D01*
X31889727Y4604173D01*
X31889724Y4604169D01*
X31818538Y4497634D01*
X31818534Y4497626D01*
X31769500Y4379248D01*
X31769499Y4379245D01*
X31769499Y4379244D01*
X31766631Y4364826D01*
X31745110Y4256634D01*
X31744500Y4253569D01*
X31744500Y4125431D01*
X29815500Y4125431D01*
X29815500Y4253569D01*
X29790501Y4379244D01*
X29741465Y4497627D01*
X29741463Y4497630D01*
X29741461Y4497634D01*
X29701672Y4557181D01*
X29670276Y4604169D01*
X29579669Y4694776D01*
X29527821Y4729420D01*
X29473133Y4765962D01*
X29473125Y4765966D01*
X29354747Y4815000D01*
X29354745Y4815001D01*
X29354744Y4815001D01*
X29229069Y4840000D01*
X28804350Y4840000D01*
X28746159Y4858907D01*
X28710195Y4908407D01*
X28710195Y4969593D01*
X28713785Y4978988D01*
X28717206Y4986735D01*
X28762585Y5089509D01*
X28765272Y5112675D01*
X28790758Y5168296D01*
X28844072Y5198317D01*
X28904850Y5191266D01*
X28913110Y5187002D01*
X28931464Y5176405D01*
X29052399Y5144000D01*
X29052401Y5144000D01*
X29177599Y5144000D01*
X29177601Y5144000D01*
X29298536Y5176405D01*
X29406964Y5239005D01*
X29495495Y5327536D01*
X29558095Y5435964D01*
X29590500Y5556899D01*
X29590500Y5682101D01*
X29558095Y5803036D01*
X29495495Y5911464D01*
X29406964Y5999995D01*
X29298536Y6062595D01*
X29191024Y6091404D01*
X29139712Y6124727D01*
X29117786Y6181848D01*
X29133622Y6240949D01*
X29146641Y6257027D01*
X30233557Y7343942D01*
X30237365Y7353138D01*
X30243866Y7368829D01*
X30243866Y7368830D01*
X30251490Y7387236D01*
X30275500Y7445200D01*
X30275500Y9579299D01*
X30265998Y9602239D01*
X30239594Y9665983D01*
X30233557Y9680557D01*
X30233557Y9680558D01*
X29150983Y10763131D01*
X29123207Y10817647D01*
X29132778Y10878079D01*
X29176043Y10921344D01*
X29195355Y10928758D01*
X29298536Y10956405D01*
X29406964Y11019005D01*
X29495495Y11107536D01*
X29558095Y11215964D01*
X29590500Y11336899D01*
X29590500Y11462101D01*
X29558095Y11583036D01*
X29495495Y11691464D01*
X29406964Y11779995D01*
X29298536Y11842595D01*
X29177601Y11875000D01*
X29052399Y11875000D01*
X28931464Y11842595D01*
X28931462Y11842595D01*
X28931462Y11842594D01*
X28913109Y11831998D01*
X28853260Y11819279D01*
X28797365Y11844166D01*
X28766774Y11897155D01*
X28765271Y11906323D01*
X28762585Y11929491D01*
X28717206Y12032265D01*
X28717205Y12032266D01*
X28713785Y12040012D01*
X28707577Y12100881D01*
X28738333Y12153775D01*
X28794305Y12178489D01*
X28804350Y12179000D01*
X29229068Y12179000D01*
X29229069Y12179000D01*
X29354744Y12203999D01*
X29473127Y12253035D01*
X29579669Y12324224D01*
X29670276Y12414831D01*
X29741465Y12521373D01*
X29790501Y12639756D01*
X29815500Y12765431D01*
X31744500Y12765431D01*
X31767290Y12650859D01*
X31769499Y12639758D01*
X31769500Y12639753D01*
X31818534Y12521375D01*
X31818538Y12521367D01*
X31851888Y12471457D01*
X31889724Y12414831D01*
X31980331Y12324224D01*
X32028242Y12292211D01*
X32086866Y12253039D01*
X32086870Y12253037D01*
X32086873Y12253035D01*
X32205256Y12203999D01*
X32330931Y12179000D01*
X32330932Y12179000D01*
X33259068Y12179000D01*
X33259069Y12179000D01*
X33384744Y12203999D01*
X33503127Y12253035D01*
X33609669Y12324224D01*
X33700276Y12414831D01*
X33771465Y12521373D01*
X33820501Y12639756D01*
X33845500Y12765431D01*
X33845500Y12893569D01*
X33820501Y13019244D01*
X33771465Y13137627D01*
X33771463Y13137630D01*
X33771461Y13137634D01*
X33722466Y13210959D01*
X33700276Y13244169D01*
X33609669Y13334776D01*
X33546894Y13376721D01*
X33503133Y13405962D01*
X33503125Y13405966D01*
X33384747Y13455000D01*
X33384745Y13455001D01*
X33384744Y13455001D01*
X33259069Y13480000D01*
X32330931Y13480000D01*
X32330930Y13480000D01*
X32273118Y13468500D01*
X32205256Y13455001D01*
X32205255Y13455001D01*
X32205252Y13455000D01*
X32086874Y13405966D01*
X32086866Y13405962D01*
X31980331Y13334776D01*
X31980327Y13334773D01*
X31889727Y13244173D01*
X31889724Y13244169D01*
X31818538Y13137634D01*
X31818534Y13137626D01*
X31769500Y13019248D01*
X31769499Y13019245D01*
X31769499Y13019244D01*
X31744500Y12893569D01*
X31744500Y12765431D01*
X29815500Y12765431D01*
X29815500Y12893569D01*
X29790501Y13019244D01*
X29741465Y13137627D01*
X29741463Y13137630D01*
X29741461Y13137634D01*
X29692466Y13210959D01*
X29670276Y13244169D01*
X29579669Y13334776D01*
X29516894Y13376721D01*
X29473133Y13405962D01*
X29473125Y13405966D01*
X29354747Y13455000D01*
X29354745Y13455001D01*
X29354744Y13455001D01*
X29229069Y13480000D01*
X28000931Y13480000D01*
X28000930Y13480000D01*
X27943118Y13468500D01*
X27875256Y13455001D01*
X27875255Y13455001D01*
X27875252Y13455000D01*
X27756874Y13405966D01*
X27756866Y13405962D01*
X27650331Y13334776D01*
X27650327Y13334773D01*
X27559727Y13244173D01*
X27559724Y13244169D01*
X27488538Y13137634D01*
X27488534Y13137626D01*
X27439500Y13019248D01*
X27439499Y13019245D01*
X27439499Y13019244D01*
X27414500Y12893569D01*
X27414500Y12765431D01*
X27437290Y12650859D01*
X27439499Y12639758D01*
X27439500Y12639753D01*
X27488534Y12521375D01*
X27488538Y12521367D01*
X27521888Y12471457D01*
X27559724Y12414831D01*
X27559727Y12414828D01*
X27645551Y12329004D01*
X27673328Y12274487D01*
X27663757Y12214055D01*
X27620492Y12170790D01*
X27575559Y12160000D01*
X27570145Y12160000D01*
X27570136Y12159999D01*
X27545009Y12157086D01*
X27442235Y12111706D01*
X27362792Y12032263D01*
X27361913Y12030979D01*
X27360159Y12029630D01*
X27356308Y12025778D01*
X27355806Y12026280D01*
X27313426Y11993661D01*
X27252264Y11991970D01*
X27242361Y11995468D01*
X27143709Y12036330D01*
X27143706Y12036331D01*
X27143705Y12036331D01*
X27000000Y12055250D01*
X26856291Y12036331D01*
X26856290Y12036330D01*
X26722378Y11980863D01*
X26722370Y11980858D01*
X26684767Y11952004D01*
X26627091Y11931580D01*
X26568426Y11948958D01*
X26531178Y11997499D01*
X26525500Y12030546D01*
X26525500Y12054800D01*
X26491495Y12136894D01*
X26491495Y12136895D01*
X26483556Y12156061D01*
X26156061Y12483554D01*
X26156058Y12483557D01*
X26054800Y12525500D01*
X26054799Y12525500D01*
X23583411Y12525500D01*
X23525220Y12544407D01*
X23489256Y12593907D01*
X23489256Y12655093D01*
X23513408Y12694504D01*
X23574497Y12755593D01*
X23991170Y13172264D01*
X24003504Y13202041D01*
X24025500Y13255144D01*
X24025500Y14915587D01*
X24044407Y14973778D01*
X24054496Y14985591D01*
X24314409Y15245504D01*
X24368926Y15273281D01*
X24384413Y15274500D01*
X26000500Y15274500D01*
X26058691Y15255593D01*
X26094655Y15206093D01*
X26099500Y15175500D01*
X26099500Y15145726D01*
X26102353Y15115306D01*
X26102355Y15115297D01*
X26147207Y14987117D01*
X26227845Y14877856D01*
X26227847Y14877854D01*
X26227850Y14877850D01*
X26227853Y14877848D01*
X26227855Y14877846D01*
X26337116Y14797208D01*
X26337117Y14797208D01*
X26337118Y14797207D01*
X26465301Y14752354D01*
X26495725Y14749501D01*
X26495727Y14749500D01*
X26495734Y14749500D01*
X27504273Y14749500D01*
X27504273Y14749501D01*
X27534699Y14752354D01*
X27662882Y14797207D01*
X27772150Y14877850D01*
X27852793Y14987118D01*
X27897646Y15115301D01*
X27900499Y15145727D01*
X27900500Y15145727D01*
X27900500Y15854273D01*
X27900499Y15854275D01*
X27899994Y15859663D01*
X27897646Y15884699D01*
X27852793Y16012882D01*
X27836719Y16034661D01*
X27772154Y16122145D01*
X27772151Y16122148D01*
X27772150Y16122150D01*
X27772146Y16122153D01*
X27772144Y16122155D01*
X27662883Y16202793D01*
X27534703Y16247645D01*
X27534694Y16247647D01*
X27504274Y16250500D01*
X27504266Y16250500D01*
X26495734Y16250500D01*
X26495725Y16250500D01*
X26465305Y16247647D01*
X26465296Y16247645D01*
X26337116Y16202793D01*
X26227855Y16122155D01*
X26227845Y16122145D01*
X26147207Y16012884D01*
X26102355Y15884704D01*
X26102353Y15884695D01*
X26099500Y15854275D01*
X26099500Y15824500D01*
X26080593Y15766309D01*
X26031093Y15730345D01*
X26000500Y15725500D01*
X24306386Y15725500D01*
X24306378Y15725501D01*
X24294855Y15725501D01*
X24205145Y15725501D01*
X24205143Y15725501D01*
X24146542Y15701229D01*
X24146543Y15701228D01*
X24122264Y15691170D01*
X24122262Y15691169D01*
X24058829Y15627737D01*
X24058830Y15627736D01*
X24058829Y15627735D01*
X24058828Y15627735D01*
X23695002Y15263910D01*
X23640486Y15236133D01*
X23580054Y15245704D01*
X23554995Y15263910D01*
X23191170Y15627735D01*
X23191170Y15627736D01*
X23127736Y15691170D01*
X23103460Y15701226D01*
X23103458Y15701227D01*
X23103458Y15701228D01*
X23066793Y15716414D01*
X23044855Y15725501D01*
X22955145Y15725501D01*
X22943622Y15725501D01*
X22943614Y15725500D01*
X21499500Y15725500D01*
X21441309Y15744407D01*
X21405345Y15793907D01*
X21400500Y15824500D01*
X21400500Y15854273D01*
X21400499Y15854275D01*
X21399994Y15859663D01*
X21397646Y15884699D01*
X21352793Y16012882D01*
X21336719Y16034661D01*
X21272154Y16122145D01*
X21272151Y16122148D01*
X21272150Y16122150D01*
X21272146Y16122153D01*
X21272144Y16122155D01*
X21162883Y16202793D01*
X21034703Y16247645D01*
X21034694Y16247647D01*
X21004274Y16250500D01*
X21004266Y16250500D01*
X19995734Y16250500D01*
X19995725Y16250500D01*
X19965305Y16247647D01*
X19965296Y16247645D01*
X19837116Y16202793D01*
X19727855Y16122155D01*
X19727848Y16122148D01*
X19709155Y16096819D01*
X19659387Y16061227D01*
X19598203Y16061685D01*
X19548974Y16098018D01*
X19530500Y16155608D01*
X19530500Y16836946D01*
X19530501Y16836955D01*
X19530501Y16947937D01*
X19531197Y16947937D01*
X19531198Y16960062D01*
X19530501Y16960062D01*
X19530501Y17067497D01*
X19530500Y17067511D01*
X19530500Y17344393D01*
X19549407Y17402584D01*
X19598907Y17438548D01*
X19660093Y17438548D01*
X19709155Y17403181D01*
X19727850Y17377850D01*
X19727853Y17377848D01*
X19727855Y17377846D01*
X19837116Y17297208D01*
X19837117Y17297208D01*
X19837118Y17297207D01*
X19965301Y17252354D01*
X19995725Y17249501D01*
X19995727Y17249500D01*
X19995734Y17249500D01*
X21004273Y17249500D01*
X21004273Y17249501D01*
X21034699Y17252354D01*
X21162882Y17297207D01*
X21272150Y17377850D01*
X21352793Y17487118D01*
X21397646Y17615301D01*
X21400499Y17645727D01*
X21400500Y17645727D01*
X21400500Y17675500D01*
X21419407Y17733691D01*
X21468907Y17769655D01*
X21499500Y17774500D01*
X22365587Y17774500D01*
X22423778Y17755593D01*
X22435591Y17745504D01*
X22866135Y17314960D01*
X22893912Y17260443D01*
X22894341Y17254983D01*
X22904902Y17188309D01*
X22912500Y17140339D01*
X22962905Y17041413D01*
X23041413Y16962905D01*
X23140339Y16912500D01*
X23250000Y16895131D01*
X23359661Y16912500D01*
X23458587Y16962905D01*
X23537095Y17041413D01*
X23537097Y17041419D01*
X23541673Y17047715D01*
X23542841Y17046867D01*
X23580050Y17084079D01*
X23640482Y17093654D01*
X23695000Y17065879D01*
X23708241Y17047654D01*
X23708327Y17047715D01*
X23712903Y17041416D01*
X23712905Y17041413D01*
X23791413Y16962905D01*
X23890339Y16912500D01*
X24000000Y16895131D01*
X24109661Y16912500D01*
X24208587Y16962905D01*
X24287095Y17041413D01*
X24337500Y17140339D01*
X24354869Y17250000D01*
X24356088Y17257696D01*
X24358865Y17257257D01*
X24373776Y17303148D01*
X24383866Y17314961D01*
X24814410Y17745504D01*
X24868926Y17773281D01*
X24884413Y17774500D01*
X26000500Y17774500D01*
X26058691Y17755593D01*
X26094655Y17706093D01*
X26099500Y17675500D01*
X26099500Y17645726D01*
X26102353Y17615306D01*
X26102355Y17615297D01*
X26147207Y17487117D01*
X26227845Y17377856D01*
X26227847Y17377854D01*
X26227850Y17377850D01*
X26227853Y17377848D01*
X26227855Y17377846D01*
X26337116Y17297208D01*
X26337117Y17297208D01*
X26337118Y17297207D01*
X26465301Y17252354D01*
X26495725Y17249501D01*
X26495727Y17249500D01*
X26495734Y17249500D01*
X27504273Y17249500D01*
X27504273Y17249501D01*
X27534699Y17252354D01*
X27662882Y17297207D01*
X27772150Y17377850D01*
X27852793Y17487118D01*
X27897646Y17615301D01*
X27900499Y17645727D01*
X27900500Y17645727D01*
X27900500Y18354273D01*
X27900499Y18354275D01*
X27897646Y18384699D01*
X27852793Y18512882D01*
X27850792Y18515593D01*
X27813065Y18566712D01*
X27793723Y18624759D01*
X27812194Y18683090D01*
X27861424Y18719423D01*
X27892720Y18724500D01*
X28755587Y18724500D01*
X28813778Y18705593D01*
X28825590Y18695505D01*
X31742264Y15778830D01*
X31742265Y15778830D01*
X31742266Y15778829D01*
X31825143Y15744500D01*
X31825145Y15744500D01*
X31914854Y15744500D01*
X32449462Y15744500D01*
X32507653Y15725593D01*
X32543617Y15676093D01*
X32544199Y15674238D01*
X32571186Y15585273D01*
X32571188Y15585268D01*
X32615162Y15502999D01*
X32664090Y15411462D01*
X32664092Y15411460D01*
X32664093Y15411458D01*
X32789112Y15259122D01*
X32789121Y15259113D01*
X32941457Y15134094D01*
X32941462Y15134090D01*
X33115273Y15041186D01*
X33303868Y14983976D01*
X33303870Y14983976D01*
X33303873Y14983975D01*
X33499997Y14964659D01*
X33500000Y14964659D01*
X33500003Y14964659D01*
X33696126Y14983975D01*
X33696127Y14983976D01*
X33696132Y14983976D01*
X33884727Y15041186D01*
X34058538Y15134090D01*
X34210883Y15259117D01*
X34335910Y15411462D01*
X34428814Y15585273D01*
X34486024Y15773868D01*
X34489486Y15809013D01*
X34505341Y15969997D01*
X34505341Y15970004D01*
X34486025Y16166127D01*
X34486024Y16166130D01*
X34486024Y16166132D01*
X34428814Y16354727D01*
X34426783Y16358526D01*
X34382748Y16440910D01*
X34335910Y16528538D01*
X34335906Y16528543D01*
X34210887Y16680879D01*
X34210878Y16680888D01*
X34058542Y16805907D01*
X34058540Y16805908D01*
X34058538Y16805910D01*
X33996137Y16839264D01*
X33884732Y16898812D01*
X33884730Y16898813D01*
X33844469Y16911026D01*
X33745099Y16941170D01*
X33696129Y16956025D01*
X33696126Y16956026D01*
X33500003Y16975341D01*
X33499997Y16975341D01*
X33303873Y16956026D01*
X33303870Y16956025D01*
X33115269Y16898813D01*
X33115267Y16898812D01*
X32941467Y16805913D01*
X32941457Y16805907D01*
X32789121Y16680888D01*
X32789112Y16680879D01*
X32664093Y16528543D01*
X32664087Y16528533D01*
X32571188Y16354733D01*
X32571186Y16354728D01*
X32544199Y16265762D01*
X32509214Y16215565D01*
X32451406Y16195519D01*
X32449462Y16195500D01*
X32004414Y16195500D01*
X31946223Y16214407D01*
X31934410Y16224496D01*
X29081170Y19077735D01*
X29081170Y19077736D01*
X29053407Y19105499D01*
X29025632Y19160013D01*
X29035203Y19220445D01*
X29078468Y19263710D01*
X29123413Y19274500D01*
X32375588Y19274500D01*
X32433779Y19255593D01*
X32445592Y19245503D01*
X32597704Y19093390D01*
X32625481Y19038874D01*
X32615909Y18978442D01*
X32615011Y18976720D01*
X32571187Y18894730D01*
X32513975Y18706130D01*
X32513974Y18706127D01*
X32494659Y18510004D01*
X32494659Y18509997D01*
X32513974Y18313874D01*
X32513975Y18313871D01*
X32524098Y18280500D01*
X32565256Y18144820D01*
X32571187Y18125270D01*
X32571188Y18125268D01*
X32630029Y18015185D01*
X32664090Y17951462D01*
X32664092Y17951460D01*
X32664093Y17951458D01*
X32789112Y17799122D01*
X32789121Y17799113D01*
X32887334Y17718512D01*
X32941462Y17674090D01*
X33115273Y17581186D01*
X33303868Y17523976D01*
X33303870Y17523976D01*
X33303873Y17523975D01*
X33499997Y17504659D01*
X33500000Y17504659D01*
X33500003Y17504659D01*
X33696126Y17523975D01*
X33696127Y17523976D01*
X33696132Y17523976D01*
X33884727Y17581186D01*
X34058538Y17674090D01*
X34210883Y17799117D01*
X34335910Y17951462D01*
X34428814Y18125273D01*
X34486024Y18313868D01*
X34486593Y18319637D01*
X34505341Y18509997D01*
X34505341Y18510004D01*
X34486025Y18706127D01*
X34486024Y18706130D01*
X34486024Y18706132D01*
X34428814Y18894727D01*
X34426078Y18899845D01*
X34394193Y18959498D01*
X34335910Y19068538D01*
X34328361Y19077736D01*
X34210887Y19220879D01*
X34210878Y19220888D01*
X34058542Y19345907D01*
X34058540Y19345908D01*
X34058538Y19345910D01*
X33966718Y19394989D01*
X33884732Y19438812D01*
X33884730Y19438813D01*
X33819099Y19458722D01*
X33713884Y19490639D01*
X33696129Y19496025D01*
X33696126Y19496026D01*
X33500003Y19515341D01*
X33499997Y19515341D01*
X33303873Y19496026D01*
X33303870Y19496025D01*
X33115270Y19438813D01*
X33033280Y19394989D01*
X32973048Y19384234D01*
X32917997Y19410936D01*
X32916610Y19412296D01*
X32715095Y19613810D01*
X32701170Y19627735D01*
X32701170Y19627736D01*
X32637736Y19691170D01*
X32629413Y19694618D01*
X32613458Y19701227D01*
X32613458Y19701228D01*
X32579128Y19715447D01*
X32554855Y19725501D01*
X32465145Y19725501D01*
X32453622Y19725501D01*
X32453614Y19725500D01*
X27855819Y19725500D01*
X27797628Y19744407D01*
X27761664Y19793907D01*
X27761664Y19855093D01*
X27776164Y19883288D01*
X27852792Y19987117D01*
X27852791Y19987117D01*
X27852793Y19987118D01*
X27897646Y20115301D01*
X27900499Y20145727D01*
X27900500Y20145727D01*
X27900500Y20854273D01*
X27900499Y20854275D01*
X27899125Y20868927D01*
X27897646Y20884699D01*
X27852793Y21012882D01*
X27772150Y21122150D01*
X27772146Y21122153D01*
X27772144Y21122155D01*
X27662883Y21202793D01*
X27534703Y21247645D01*
X27534694Y21247647D01*
X27504274Y21250500D01*
X27504266Y21250500D01*
X26495734Y21250500D01*
X26495725Y21250500D01*
X26465305Y21247647D01*
X26465296Y21247645D01*
X26337116Y21202793D01*
X26227855Y21122155D01*
X26227845Y21122145D01*
X26147207Y21012884D01*
X26102355Y20884704D01*
X26102353Y20884695D01*
X26099500Y20854275D01*
X26099500Y20824500D01*
X26080593Y20766309D01*
X26031093Y20730345D01*
X26000500Y20725500D01*
X23884414Y20725500D01*
X23826223Y20744407D01*
X23814410Y20754496D01*
X23754496Y20814410D01*
X23726719Y20868927D01*
X23725500Y20884414D01*
X23725500Y22989364D01*
X24037500Y22989364D01*
X24041355Y22962907D01*
X24048134Y22916374D01*
X24066346Y22879122D01*
X24103174Y22803789D01*
X24191789Y22715174D01*
X24304375Y22660134D01*
X24377364Y22649500D01*
X24377367Y22649500D01*
X25498632Y22649500D01*
X25498636Y22649500D01*
X25571625Y22660134D01*
X25684211Y22715174D01*
X25772826Y22803789D01*
X25827866Y22916375D01*
X25831275Y22939775D01*
X25858373Y22994629D01*
X25912540Y23023081D01*
X25929240Y23024500D01*
X25938810Y23024500D01*
X25997001Y23005593D01*
X26008813Y22995504D01*
X26041410Y22962907D01*
X26041412Y22962906D01*
X26041413Y22962905D01*
X26140339Y22912500D01*
X26250000Y22895131D01*
X26359661Y22912500D01*
X26458587Y22962905D01*
X26537095Y23041413D01*
X26587500Y23140339D01*
X26604869Y23250000D01*
X26587500Y23359661D01*
X26537095Y23458587D01*
X26458587Y23537095D01*
X26359661Y23587500D01*
X26250000Y23604869D01*
X26140338Y23587500D01*
X26041410Y23537094D01*
X26008813Y23504496D01*
X25954296Y23476719D01*
X25938810Y23475500D01*
X25929240Y23475500D01*
X25871049Y23494407D01*
X25835085Y23543907D01*
X25831276Y23560220D01*
X25827866Y23583625D01*
X25772826Y23696211D01*
X25684211Y23784826D01*
X25571625Y23839866D01*
X25571626Y23839866D01*
X25553377Y23842525D01*
X25498636Y23850500D01*
X24377364Y23850500D01*
X24336154Y23844496D01*
X24304373Y23839866D01*
X24191790Y23784827D01*
X24103173Y23696210D01*
X24048134Y23583627D01*
X24048134Y23583625D01*
X24037500Y23510636D01*
X24037500Y22989364D01*
X23725500Y22989364D01*
X23725500Y24489364D01*
X24037500Y24489364D01*
X24048134Y24416375D01*
X24103174Y24303789D01*
X24191789Y24215174D01*
X24304375Y24160134D01*
X24377364Y24149500D01*
X24377367Y24149500D01*
X25498632Y24149500D01*
X25498636Y24149500D01*
X25571625Y24160134D01*
X25684211Y24215174D01*
X25772826Y24303789D01*
X25827866Y24416375D01*
X25831275Y24439775D01*
X25858373Y24494629D01*
X25912540Y24523081D01*
X25929240Y24524500D01*
X28035587Y24524500D01*
X28093778Y24505593D01*
X28105591Y24495504D01*
X31678829Y20922266D01*
X31678830Y20922264D01*
X31742264Y20858830D01*
X31742265Y20858830D01*
X31742266Y20858829D01*
X31825143Y20824500D01*
X31825145Y20824500D01*
X31914854Y20824500D01*
X32449462Y20824500D01*
X32507653Y20805593D01*
X32543617Y20756093D01*
X32544191Y20754262D01*
X32559091Y20705145D01*
X32571186Y20665273D01*
X32571188Y20665268D01*
X32600146Y20611092D01*
X32664090Y20491462D01*
X32664092Y20491460D01*
X32664093Y20491458D01*
X32789112Y20339122D01*
X32789121Y20339113D01*
X32908444Y20241187D01*
X32941462Y20214090D01*
X33115273Y20121186D01*
X33303868Y20063976D01*
X33303870Y20063976D01*
X33303873Y20063975D01*
X33499997Y20044659D01*
X33500000Y20044659D01*
X33500003Y20044659D01*
X33696126Y20063975D01*
X33696127Y20063976D01*
X33696132Y20063976D01*
X33884727Y20121186D01*
X34058538Y20214090D01*
X34210883Y20339117D01*
X34335910Y20491462D01*
X34428814Y20665273D01*
X34486024Y20853868D01*
X34486064Y20854266D01*
X34505341Y21049997D01*
X34505341Y21050004D01*
X34486025Y21246127D01*
X34486024Y21246130D01*
X34486024Y21246132D01*
X34428814Y21434727D01*
X34335910Y21608538D01*
X34283611Y21672264D01*
X34210887Y21760879D01*
X34210878Y21760888D01*
X34058542Y21885907D01*
X34058540Y21885908D01*
X34058538Y21885910D01*
X34017618Y21907782D01*
X33884732Y21978812D01*
X33884730Y21978813D01*
X33696129Y22036025D01*
X33696126Y22036026D01*
X33500003Y22055341D01*
X33499997Y22055341D01*
X33303873Y22036026D01*
X33303870Y22036025D01*
X33115269Y21978813D01*
X33115267Y21978812D01*
X32941467Y21885913D01*
X32941457Y21885907D01*
X32789121Y21760888D01*
X32789112Y21760879D01*
X32664093Y21608543D01*
X32664087Y21608533D01*
X32571188Y21434733D01*
X32571186Y21434728D01*
X32544199Y21345762D01*
X32509214Y21295565D01*
X32451406Y21275519D01*
X32449462Y21275500D01*
X32004413Y21275500D01*
X31946222Y21294407D01*
X31934409Y21304496D01*
X28361170Y24877735D01*
X28361170Y24877736D01*
X28297736Y24941170D01*
X28273460Y24951226D01*
X28273458Y24951227D01*
X28273458Y24951228D01*
X28239128Y24965447D01*
X28214855Y24975501D01*
X28125145Y24975501D01*
X28113622Y24975501D01*
X28113614Y24975500D01*
X25929240Y24975500D01*
X25871049Y24994407D01*
X25835085Y25043907D01*
X25831276Y25060220D01*
X25827866Y25083625D01*
X25772826Y25196211D01*
X25684211Y25284826D01*
X25571625Y25339866D01*
X25571626Y25339866D01*
X25553377Y25342525D01*
X25498636Y25350500D01*
X24377364Y25350500D01*
X24333570Y25344120D01*
X24304373Y25339866D01*
X24191790Y25284827D01*
X24103173Y25196210D01*
X24048134Y25083627D01*
X24048134Y25083625D01*
X24037500Y25010636D01*
X24037500Y24489364D01*
X23725500Y24489364D01*
X23725500Y25989364D01*
X24037500Y25989364D01*
X24045585Y25933874D01*
X24048134Y25916374D01*
X24087678Y25835487D01*
X24103174Y25803789D01*
X24191789Y25715174D01*
X24304375Y25660134D01*
X24377364Y25649500D01*
X24377367Y25649500D01*
X25498632Y25649500D01*
X25498636Y25649500D01*
X25571625Y25660134D01*
X25684211Y25715174D01*
X25772826Y25803789D01*
X25827866Y25916375D01*
X25831275Y25939775D01*
X25858373Y25994629D01*
X25912540Y26023081D01*
X25929240Y26024500D01*
X29075587Y26024500D01*
X29133778Y26005593D01*
X29145591Y25995504D01*
X31678829Y23462266D01*
X31678830Y23462264D01*
X31742264Y23398830D01*
X31742265Y23398830D01*
X31742266Y23398829D01*
X31766538Y23388775D01*
X31766539Y23388775D01*
X31825145Y23364499D01*
X31825146Y23364499D01*
X31926378Y23364499D01*
X31926386Y23364500D01*
X32449462Y23364500D01*
X32507653Y23345593D01*
X32543617Y23296093D01*
X32544199Y23294238D01*
X32571186Y23205273D01*
X32571188Y23205268D01*
X32605894Y23140339D01*
X32664090Y23031462D01*
X32664092Y23031460D01*
X32664093Y23031458D01*
X32789112Y22879122D01*
X32789121Y22879113D01*
X32817025Y22856213D01*
X32941462Y22754090D01*
X33115273Y22661186D01*
X33303868Y22603976D01*
X33303870Y22603976D01*
X33303873Y22603975D01*
X33499997Y22584659D01*
X33500000Y22584659D01*
X33500003Y22584659D01*
X33696126Y22603975D01*
X33696127Y22603976D01*
X33696132Y22603976D01*
X33884727Y22661186D01*
X34058538Y22754090D01*
X34210883Y22879117D01*
X34335910Y23031462D01*
X34428814Y23205273D01*
X34486024Y23393868D01*
X34492399Y23458587D01*
X34505341Y23589997D01*
X34505341Y23590004D01*
X34486025Y23786127D01*
X34486024Y23786130D01*
X34486024Y23786132D01*
X34428814Y23974727D01*
X34335910Y24148538D01*
X34335121Y24149500D01*
X34210887Y24300879D01*
X34210878Y24300888D01*
X34058542Y24425907D01*
X34058540Y24425908D01*
X34058538Y24425910D01*
X34002070Y24456093D01*
X33884732Y24518812D01*
X33884730Y24518813D01*
X33870660Y24523081D01*
X33696132Y24576024D01*
X33696129Y24576025D01*
X33696126Y24576026D01*
X33500003Y24595341D01*
X33499997Y24595341D01*
X33303873Y24576026D01*
X33303870Y24576025D01*
X33115269Y24518813D01*
X33115267Y24518812D01*
X32941467Y24425913D01*
X32941457Y24425907D01*
X32789121Y24300888D01*
X32789112Y24300879D01*
X32664093Y24148543D01*
X32664087Y24148533D01*
X32571188Y23974733D01*
X32571186Y23974728D01*
X32544199Y23885762D01*
X32509214Y23835565D01*
X32451406Y23815519D01*
X32449462Y23815500D01*
X32004413Y23815500D01*
X31946222Y23834407D01*
X31934409Y23844496D01*
X29401170Y26377735D01*
X29401170Y26377736D01*
X29337736Y26441170D01*
X29337732Y26441172D01*
X29313458Y26451227D01*
X29313458Y26451228D01*
X29279128Y26465447D01*
X29254855Y26475501D01*
X29165145Y26475501D01*
X29153622Y26475501D01*
X29153614Y26475500D01*
X25929240Y26475500D01*
X25871049Y26494407D01*
X25835085Y26543907D01*
X25831276Y26560220D01*
X25827866Y26583625D01*
X25772826Y26696211D01*
X25684211Y26784826D01*
X25571625Y26839866D01*
X25571626Y26839866D01*
X25553377Y26842525D01*
X25498636Y26850500D01*
X24377364Y26850500D01*
X24333570Y26844120D01*
X24304373Y26839866D01*
X24191790Y26784827D01*
X24103173Y26696210D01*
X24048134Y26583627D01*
X24048134Y26583626D01*
X24048134Y26583625D01*
X24037500Y26510636D01*
X24037500Y25989364D01*
X23725500Y25989364D01*
X23725500Y27365588D01*
X23744407Y27423779D01*
X23754497Y27435592D01*
X23814410Y27495504D01*
X23868927Y27523281D01*
X23884413Y27524500D01*
X23946760Y27524500D01*
X24004951Y27505593D01*
X24040915Y27456093D01*
X24044723Y27439781D01*
X24048134Y27416375D01*
X24103174Y27303789D01*
X24191789Y27215174D01*
X24304375Y27160134D01*
X24377364Y27149500D01*
X24377367Y27149500D01*
X25498632Y27149500D01*
X25498636Y27149500D01*
X25571625Y27160134D01*
X25684211Y27215174D01*
X25772826Y27303789D01*
X25827866Y27416375D01*
X25838500Y27489364D01*
X25838500Y28010636D01*
X25827866Y28083625D01*
X25772826Y28196211D01*
X25684211Y28284826D01*
X25571625Y28339866D01*
X25571626Y28339866D01*
X25553377Y28342525D01*
X25498636Y28350500D01*
X24377364Y28350500D01*
X24333570Y28344120D01*
X24304373Y28339866D01*
X24191790Y28284827D01*
X24103173Y28196210D01*
X24048134Y28083627D01*
X24048134Y28083625D01*
X24044724Y28060226D01*
X24017627Y28005371D01*
X23963460Y27976919D01*
X23946760Y27975500D01*
X23705143Y27975500D01*
X23622265Y27941172D01*
X23394503Y27713410D01*
X23339987Y27685633D01*
X23279555Y27695204D01*
X23236290Y27738469D01*
X23225500Y27783414D01*
X23225500Y28615587D01*
X23244407Y28673778D01*
X23254496Y28685591D01*
X23564409Y28995504D01*
X23618926Y29023281D01*
X23634413Y29024500D01*
X23946760Y29024500D01*
X24004951Y29005593D01*
X24040915Y28956093D01*
X24044723Y28939781D01*
X24046951Y28924496D01*
X24048134Y28916374D01*
X24103173Y28803791D01*
X24103174Y28803789D01*
X24191789Y28715174D01*
X24304375Y28660134D01*
X24377364Y28649500D01*
X24377367Y28649500D01*
X25498632Y28649500D01*
X25498636Y28649500D01*
X25571625Y28660134D01*
X25684211Y28715174D01*
X25772826Y28803789D01*
X25827866Y28916375D01*
X25838500Y28989364D01*
X25838500Y29510636D01*
X25827866Y29583625D01*
X25772826Y29696211D01*
X25684211Y29784826D01*
X25571625Y29839866D01*
X25571626Y29839866D01*
X25553377Y29842525D01*
X25498636Y29850500D01*
X24377364Y29850500D01*
X24333570Y29844120D01*
X24304373Y29839866D01*
X24191790Y29784827D01*
X24103173Y29696210D01*
X24048134Y29583627D01*
X24048134Y29583625D01*
X24044724Y29560226D01*
X24017627Y29505371D01*
X23963460Y29476919D01*
X23946760Y29475500D01*
X23556386Y29475500D01*
X23556378Y29475501D01*
X23544855Y29475501D01*
X23455146Y29475501D01*
X23455144Y29475501D01*
X23406594Y29455391D01*
X23372265Y29441172D01*
X23372263Y29441170D01*
X23308829Y29377737D01*
X23308830Y29377736D01*
X23308829Y29377735D01*
X22872265Y28941171D01*
X22872264Y28941170D01*
X22872263Y28941171D01*
X22808830Y28877738D01*
X22808830Y28877735D01*
X22774499Y28794855D01*
X22774499Y28693623D01*
X22774500Y28693614D01*
X22774500Y20884413D01*
X22755593Y20826222D01*
X22745504Y20814410D01*
X22685592Y20754497D01*
X22631076Y20726719D01*
X22615588Y20725500D01*
X21499500Y20725500D01*
X21441309Y20744407D01*
X21405345Y20793907D01*
X21400500Y20824500D01*
X21400500Y20854273D01*
X21400499Y20854275D01*
X21399125Y20868927D01*
X21397646Y20884699D01*
X21352793Y21012882D01*
X21272150Y21122150D01*
X21272146Y21122153D01*
X21272144Y21122155D01*
X21162883Y21202793D01*
X21034703Y21247645D01*
X21034694Y21247647D01*
X21004274Y21250500D01*
X21004266Y21250500D01*
X19995734Y21250500D01*
X19995725Y21250500D01*
X19965305Y21247647D01*
X19965296Y21247645D01*
X19837116Y21202793D01*
X19727855Y21122155D01*
X19727845Y21122145D01*
X19647207Y21012884D01*
X19602355Y20884704D01*
X19602353Y20884695D01*
X19599500Y20854275D01*
X19599500Y20145726D01*
X19602353Y20115306D01*
X19602355Y20115297D01*
X19647207Y19987117D01*
X19727845Y19877856D01*
X19727847Y19877854D01*
X19727850Y19877850D01*
X19808112Y19818614D01*
X19825788Y19805569D01*
X19861381Y19755802D01*
X19860923Y19694618D01*
X19837004Y19655910D01*
X19095416Y18914323D01*
X19040899Y18886546D01*
X18980467Y18896117D01*
X18937202Y18939382D01*
X18930744Y18960778D01*
X18929637Y18960476D01*
X18927682Y18967661D01*
X18927682Y18967662D01*
X18883813Y19067016D01*
X18812247Y19138582D01*
X18784472Y19193096D01*
X18794043Y19253528D01*
X18831674Y19291160D01*
X18830929Y19292224D01*
X18836966Y19296452D01*
X18837308Y19296793D01*
X18837789Y19297028D01*
X18838020Y19297190D01*
X18922809Y19381979D01*
X18973478Y19490639D01*
X18973480Y19490646D01*
X18980000Y19540162D01*
X18980000Y19594999D01*
X18979999Y19595000D01*
X17960001Y19595000D01*
X17960000Y19594999D01*
X17960000Y19540162D01*
X17966519Y19490646D01*
X17966520Y19490641D01*
X17973542Y19475582D01*
X17980996Y19414853D01*
X17951331Y19361340D01*
X17895878Y19335484D01*
X17867660Y19338204D01*
X17867356Y19336281D01*
X17859661Y19337500D01*
X17750000Y19354869D01*
X17640338Y19337500D01*
X17541413Y19287095D01*
X17462905Y19208587D01*
X17412500Y19109662D01*
X17395131Y19000001D01*
X17395131Y18999999D01*
X17407336Y18922937D01*
X17397764Y18862505D01*
X17354500Y18819240D01*
X17354499Y18819240D01*
X17329359Y18806431D01*
X17268927Y18796860D01*
X17239538Y18808362D01*
X17239372Y18807959D01*
X17230363Y18811691D01*
X17230361Y18811692D01*
X17230360Y18811692D01*
X17204683Y18816800D01*
X17151300Y18846698D01*
X17125686Y18902264D01*
X17125000Y18913897D01*
X17125000Y19037499D01*
X17124999Y19037500D01*
X16724000Y19037500D01*
X16665809Y19056407D01*
X16629845Y19105907D01*
X16625000Y19136500D01*
X16625000Y19287501D01*
X16875000Y19287501D01*
X16875001Y19287500D01*
X17124999Y19287500D01*
X17125000Y19287501D01*
X17125000Y19430426D01*
X17124999Y19430429D01*
X17122211Y19454461D01*
X17078794Y19552791D01*
X17002790Y19628795D01*
X16904460Y19672212D01*
X16880428Y19675000D01*
X16875001Y19675000D01*
X16875000Y19674999D01*
X16875000Y19287501D01*
X16625000Y19287501D01*
X16625000Y19674999D01*
X16624999Y19675000D01*
X16619571Y19675000D01*
X16595539Y19672212D01*
X16497202Y19628792D01*
X16497190Y19628783D01*
X16497169Y19628777D01*
X16488817Y19625089D01*
X16488336Y19626177D01*
X16438496Y19611503D01*
X16421938Y19613367D01*
X16360944Y19625500D01*
X16360942Y19625500D01*
X16139058Y19625500D01*
X16139057Y19625500D01*
X16139047Y19625499D01*
X16069640Y19611692D01*
X16069631Y19611689D01*
X16055000Y19601912D01*
X15996112Y19585304D01*
X15945000Y19601912D01*
X15930368Y19611689D01*
X15930363Y19611691D01*
X15930360Y19611692D01*
X15930359Y19611692D01*
X15860952Y19625499D01*
X15860942Y19625500D01*
X15639058Y19625500D01*
X15639057Y19625500D01*
X15639047Y19625499D01*
X15569640Y19611692D01*
X15569631Y19611689D01*
X15555000Y19601912D01*
X15496112Y19585304D01*
X15445000Y19601912D01*
X15430368Y19611689D01*
X15430363Y19611691D01*
X15430360Y19611692D01*
X15430359Y19611692D01*
X15360952Y19625499D01*
X15360942Y19625500D01*
X15139058Y19625500D01*
X15139057Y19625500D01*
X15139047Y19625499D01*
X15069640Y19611692D01*
X15069634Y19611690D01*
X14990912Y19559091D01*
X14990909Y19559088D01*
X14938310Y19480366D01*
X14938308Y19480360D01*
X14924501Y19410953D01*
X14924500Y19410941D01*
X14924500Y18974000D01*
X14905593Y18915809D01*
X14856093Y18879845D01*
X14825500Y18875000D01*
X14819571Y18875000D01*
X14795539Y18872212D01*
X14697209Y18828795D01*
X14621205Y18752791D01*
X14577788Y18654461D01*
X14575000Y18630429D01*
X14575000Y18625001D01*
X14575001Y18625000D01*
X15599999Y18625000D01*
X15611792Y18636794D01*
X15618907Y18658691D01*
X15668407Y18694655D01*
X15699000Y18699500D01*
X15860941Y18699500D01*
X15860942Y18699500D01*
X15930363Y18713309D01*
X15944997Y18723087D01*
X16003885Y18739697D01*
X16055003Y18723087D01*
X16069637Y18713309D01*
X16105743Y18706127D01*
X16139047Y18699502D01*
X16139052Y18699502D01*
X16139058Y18699500D01*
X16139059Y18699500D01*
X16350500Y18699500D01*
X16408691Y18680593D01*
X16444655Y18631093D01*
X16449500Y18600500D01*
X16449500Y18389060D01*
X16449501Y18389048D01*
X16463308Y18319641D01*
X16463311Y18319632D01*
X16473088Y18305000D01*
X16489696Y18246112D01*
X16473088Y18195000D01*
X16463311Y18180369D01*
X16463308Y18180360D01*
X16449501Y18110953D01*
X16449500Y18110941D01*
X16449500Y17889056D01*
X16461633Y17828062D01*
X16454441Y17767301D01*
X16446217Y17752810D01*
X16446208Y17752798D01*
X16402788Y17654461D01*
X16400000Y17630429D01*
X16400000Y17625001D01*
X16400001Y17625000D01*
X16938500Y17625000D01*
X16996691Y17606093D01*
X17032655Y17556593D01*
X17037500Y17526000D01*
X17037500Y17474000D01*
X17018593Y17415809D01*
X16969093Y17379845D01*
X16938500Y17375000D01*
X16400001Y17375000D01*
X16375000Y17349999D01*
X16375000Y16325001D01*
X16375001Y16325000D01*
X16380425Y16325000D01*
X16380428Y16325001D01*
X16404460Y16327789D01*
X16502792Y16371206D01*
X16502797Y16371209D01*
X16502804Y16371212D01*
X16511184Y16374911D01*
X16511665Y16373822D01*
X16561489Y16388498D01*
X16578060Y16386634D01*
X16597253Y16382816D01*
X16639050Y16374501D01*
X16639056Y16374501D01*
X16639058Y16374500D01*
X16639059Y16374500D01*
X16860941Y16374500D01*
X16860942Y16374500D01*
X16930363Y16388309D01*
X17009089Y16440911D01*
X17061691Y16519637D01*
X17075500Y16589058D01*
X17075500Y17026000D01*
X17094407Y17084191D01*
X17143907Y17120155D01*
X17174500Y17125000D01*
X17180425Y17125000D01*
X17180428Y17125001D01*
X17204460Y17127789D01*
X17293834Y17167251D01*
X17354703Y17173459D01*
X17407597Y17142703D01*
X17422031Y17121632D01*
X17458434Y17050187D01*
X17462905Y17041413D01*
X17541413Y16962905D01*
X17640339Y16912500D01*
X17750000Y16895131D01*
X17859661Y16912500D01*
X17871559Y16918563D01*
X17931989Y16928134D01*
X17986506Y16900358D01*
X18014285Y16845842D01*
X18006229Y16788514D01*
X17966519Y16703356D01*
X17966519Y16703355D01*
X17960000Y16653839D01*
X17960000Y16599001D01*
X17960001Y16599000D01*
X18496000Y16599000D01*
X18554191Y16580093D01*
X18590155Y16530593D01*
X18595000Y16500000D01*
X18595000Y15994001D01*
X18595001Y15994000D01*
X18680500Y15994000D01*
X18738691Y15975093D01*
X18774655Y15925593D01*
X18779500Y15895000D01*
X18779500Y15889413D01*
X18760593Y15831222D01*
X18750504Y15819409D01*
X17485592Y14554496D01*
X17431075Y14526719D01*
X17415588Y14525500D01*
X16391846Y14525500D01*
X16391838Y14525501D01*
X16380315Y14525501D01*
X16290606Y14525501D01*
X16290605Y14525501D01*
X16266955Y14515706D01*
X16266956Y14515705D01*
X16207724Y14491171D01*
X16144289Y14427737D01*
X16144290Y14427736D01*
X16144289Y14427735D01*
X13288899Y11572346D01*
X13238209Y11545252D01*
X13198817Y11537417D01*
X13166805Y11516027D01*
X13107917Y11499419D01*
X13056803Y11516027D01*
X13024789Y11537418D01*
X12959016Y11550500D01*
X12764597Y11550500D01*
X12764584Y11550498D01*
X12705615Y11538770D01*
X12644854Y11545963D01*
X12599925Y11587497D01*
X12587304Y11635868D01*
X12587304Y13416163D01*
X12603318Y13465451D01*
X12601808Y13466220D01*
X12605344Y13473161D01*
X12605346Y13473162D01*
X12655751Y13572088D01*
X12673120Y13681749D01*
X12655751Y13791410D01*
X12605346Y13890336D01*
X12526838Y13968844D01*
X12513349Y13975717D01*
X12470087Y14018980D01*
X12460515Y14079412D01*
X12488292Y14133928D01*
X12488293Y14133929D01*
X12620277Y14265913D01*
X13366170Y15011804D01*
X13366171Y15011806D01*
X13400500Y15094684D01*
X13400500Y15438811D01*
X13419407Y15497002D01*
X13429490Y15508809D01*
X13462095Y15541413D01*
X13512500Y15640339D01*
X13529869Y15750000D01*
X13512500Y15859661D01*
X13499302Y15885563D01*
X13489731Y15945992D01*
X13517507Y16000509D01*
X13519000Y16002002D01*
X13769000Y16002002D01*
X13769001Y16002001D01*
X13868251Y16002001D01*
X13868260Y16002002D01*
X13917041Y16008423D01*
X14024109Y16058350D01*
X14107650Y16141891D01*
X14157574Y16248953D01*
X14157576Y16248960D01*
X14163528Y16294162D01*
X17960000Y16294162D01*
X17966519Y16244646D01*
X17966521Y16244639D01*
X18017190Y16135979D01*
X18101978Y16051191D01*
X18210638Y16000522D01*
X18210645Y16000520D01*
X18260161Y15994000D01*
X18344999Y15994000D01*
X18345000Y15994001D01*
X18345000Y16348999D01*
X18344999Y16349000D01*
X17960001Y16349000D01*
X17960000Y16348999D01*
X17960000Y16294162D01*
X14163528Y16294162D01*
X14164000Y16297747D01*
X14164000Y16346999D01*
X14163999Y16347000D01*
X13769001Y16347000D01*
X13769000Y16346999D01*
X13769000Y16002002D01*
X13519000Y16002002D01*
X13519000Y16498000D01*
X13537907Y16556191D01*
X13556324Y16569572D01*
X14875000Y16569572D01*
X14877788Y16545540D01*
X14921205Y16447210D01*
X14997209Y16371206D01*
X15095539Y16327789D01*
X15119571Y16325001D01*
X15119575Y16325000D01*
X15124999Y16325000D01*
X15125000Y16325001D01*
X15375000Y16325001D01*
X15375001Y16325000D01*
X15380425Y16325000D01*
X15380428Y16325001D01*
X15404461Y16327789D01*
X15460010Y16352317D01*
X15520880Y16358526D01*
X15539990Y16352317D01*
X15595540Y16327789D01*
X15595537Y16327789D01*
X15619571Y16325001D01*
X15619575Y16325000D01*
X15624999Y16325000D01*
X15625000Y16325001D01*
X15875000Y16325001D01*
X15875001Y16325000D01*
X15880425Y16325000D01*
X15880428Y16325001D01*
X15904461Y16327789D01*
X15960010Y16352317D01*
X16020880Y16358526D01*
X16039990Y16352317D01*
X16095540Y16327789D01*
X16095537Y16327789D01*
X16119571Y16325001D01*
X16119575Y16325000D01*
X16124999Y16325000D01*
X16125000Y16325001D01*
X16125000Y16712499D01*
X16124999Y16712500D01*
X15875001Y16712500D01*
X15875000Y16712499D01*
X15875000Y16325001D01*
X15625000Y16325001D01*
X15625000Y16712499D01*
X15624999Y16712500D01*
X15375001Y16712500D01*
X15375000Y16712499D01*
X15375000Y16325001D01*
X15125000Y16325001D01*
X15125000Y16712499D01*
X15124999Y16712500D01*
X14875001Y16712500D01*
X14875000Y16712499D01*
X14875000Y16569572D01*
X13556324Y16569572D01*
X13587407Y16592155D01*
X13618000Y16597000D01*
X14163998Y16597000D01*
X14163999Y16597001D01*
X14163999Y16646251D01*
X14163998Y16646261D01*
X14157577Y16695042D01*
X14107650Y16802110D01*
X14024109Y16885651D01*
X13951481Y16919518D01*
X13906733Y16961246D01*
X13895058Y17021307D01*
X13920916Y17076760D01*
X13953332Y17099806D01*
X13978114Y17110749D01*
X13993141Y17117384D01*
X14068616Y17192859D01*
X14078608Y17215490D01*
X14119408Y17261083D01*
X14169172Y17274500D01*
X14616315Y17274500D01*
X14674506Y17255593D01*
X14686322Y17245501D01*
X14690908Y17240915D01*
X14690911Y17240911D01*
X14769637Y17188309D01*
X14795317Y17183201D01*
X14848699Y17153305D01*
X14874314Y17097739D01*
X14875000Y17086104D01*
X14875000Y16962501D01*
X14875001Y16962500D01*
X15624999Y16962500D01*
X15625000Y16962501D01*
X15875000Y16962501D01*
X15875001Y16962500D01*
X16124999Y16962500D01*
X16125000Y16962501D01*
X16125000Y17349999D01*
X16124999Y17350000D01*
X16119571Y17350000D01*
X16095539Y17347212D01*
X16095536Y17347211D01*
X16039987Y17322684D01*
X15979117Y17316477D01*
X15960013Y17322684D01*
X15904463Y17347211D01*
X15904460Y17347212D01*
X15880428Y17350000D01*
X15875001Y17350000D01*
X15875000Y17349999D01*
X15875000Y16962501D01*
X15625000Y16962501D01*
X15625000Y17349999D01*
X15613206Y17361793D01*
X15591309Y17368907D01*
X15555345Y17418407D01*
X15550500Y17449000D01*
X15550500Y17610941D01*
X15550498Y17610953D01*
X15540244Y17662500D01*
X15536691Y17680363D01*
X15526913Y17694997D01*
X15510303Y17753885D01*
X15526913Y17805003D01*
X15530828Y17810863D01*
X15536691Y17819637D01*
X15550500Y17889058D01*
X15550500Y18110942D01*
X15550499Y18110944D01*
X15550499Y18110950D01*
X15538367Y18171936D01*
X15545557Y18232698D01*
X15553791Y18247203D01*
X15553794Y18247208D01*
X15597211Y18345540D01*
X15599999Y18369572D01*
X15600000Y18369575D01*
X15600000Y18374999D01*
X15599999Y18375000D01*
X14575001Y18375000D01*
X14570228Y18370228D01*
X14556093Y18326722D01*
X14506593Y18290758D01*
X14445407Y18290758D01*
X14405996Y18314909D01*
X14143495Y18577410D01*
X14115718Y18631927D01*
X14114499Y18647414D01*
X14114499Y18935620D01*
X14114499Y18935622D01*
X14111730Y18959498D01*
X14103365Y18978442D01*
X14077288Y19037500D01*
X14068616Y19057141D01*
X13993141Y19132616D01*
X13993139Y19132617D01*
X13993138Y19132618D01*
X13953332Y19150194D01*
X13907736Y19190994D01*
X13894831Y19250803D01*
X13919545Y19306775D01*
X13951481Y19330482D01*
X14024109Y19364350D01*
X14107650Y19447891D01*
X14157574Y19554953D01*
X14157576Y19554960D01*
X14164000Y19603747D01*
X14164000Y19652999D01*
X14163999Y19653000D01*
X13618000Y19653000D01*
X13559809Y19671907D01*
X13523845Y19721407D01*
X13519000Y19752000D01*
X13519000Y19845001D01*
X17960000Y19845001D01*
X17960001Y19845000D01*
X18344999Y19845000D01*
X18345000Y19845001D01*
X18595000Y19845001D01*
X18595001Y19845000D01*
X18979999Y19845000D01*
X18980000Y19845001D01*
X18980000Y19899839D01*
X18973480Y19949355D01*
X18973478Y19949362D01*
X18922809Y20058022D01*
X18838021Y20142810D01*
X18729361Y20193479D01*
X18729354Y20193481D01*
X18679839Y20200000D01*
X18595001Y20200000D01*
X18595000Y20199999D01*
X18595000Y19845001D01*
X18345000Y19845001D01*
X18345000Y20199999D01*
X18344999Y20200000D01*
X18260161Y20200000D01*
X18210645Y20193481D01*
X18210638Y20193479D01*
X18101978Y20142810D01*
X18017190Y20058022D01*
X17966521Y19949362D01*
X17966519Y19949355D01*
X17960000Y19899839D01*
X17960000Y19845001D01*
X13519000Y19845001D01*
X13519000Y19903001D01*
X13769000Y19903001D01*
X13769001Y19903000D01*
X14163998Y19903000D01*
X14163999Y19903001D01*
X14163999Y19952251D01*
X14163998Y19952261D01*
X14157577Y20001042D01*
X14107650Y20108110D01*
X14024109Y20191651D01*
X13917047Y20241575D01*
X13917040Y20241577D01*
X13868254Y20248000D01*
X13769001Y20248000D01*
X13769000Y20247999D01*
X13769000Y19903001D01*
X13519000Y19903001D01*
X13519000Y20248000D01*
X13419748Y20248000D01*
X13419738Y20247999D01*
X13370959Y20241578D01*
X13263890Y20191651D01*
X13180349Y20108110D01*
X13164224Y20073529D01*
X13122496Y20028780D01*
X13062435Y20017106D01*
X13006982Y20042964D01*
X12977319Y20096478D01*
X12975500Y20115368D01*
X12975500Y23250000D01*
X13645131Y23250000D01*
X13662500Y23140339D01*
X13712905Y23041413D01*
X13791413Y22962905D01*
X13890339Y22912500D01*
X14000000Y22895131D01*
X14109661Y22912500D01*
X14208587Y22962905D01*
X14208589Y22962907D01*
X14241187Y22995504D01*
X14295704Y23023281D01*
X14311190Y23024500D01*
X21438810Y23024500D01*
X21497001Y23005593D01*
X21508813Y22995504D01*
X21541410Y22962907D01*
X21541412Y22962906D01*
X21541413Y22962905D01*
X21640339Y22912500D01*
X21750000Y22895131D01*
X21859661Y22912500D01*
X21958587Y22962905D01*
X22037095Y23041413D01*
X22087500Y23140339D01*
X22104869Y23250000D01*
X22087500Y23359661D01*
X22037095Y23458587D01*
X21958587Y23537095D01*
X21859661Y23587500D01*
X21750000Y23604869D01*
X21640338Y23587500D01*
X21541410Y23537094D01*
X21508813Y23504496D01*
X21454296Y23476719D01*
X21438810Y23475500D01*
X14311190Y23475500D01*
X14252999Y23494407D01*
X14241187Y23504496D01*
X14208589Y23537094D01*
X14109661Y23587500D01*
X14000000Y23604869D01*
X13890338Y23587500D01*
X13791413Y23537095D01*
X13712905Y23458587D01*
X13662500Y23359662D01*
X13652432Y23296093D01*
X13645131Y23250000D01*
X12975500Y23250000D01*
X12975500Y27585173D01*
X15137500Y27585173D01*
X15146232Y27541280D01*
X15146234Y27541276D01*
X15158258Y27523281D01*
X15179496Y27491496D01*
X15229278Y27458233D01*
X15240036Y27456093D01*
X15273172Y27449501D01*
X15273178Y27449501D01*
X15273180Y27449500D01*
X15273181Y27449500D01*
X18302819Y27449500D01*
X18302820Y27449500D01*
X18302821Y27449501D01*
X18302827Y27449501D01*
X18331198Y27455145D01*
X18346722Y27458233D01*
X18396504Y27491496D01*
X18429767Y27541278D01*
X18438500Y27585180D01*
X18438500Y30489364D01*
X24037500Y30489364D01*
X24048134Y30416375D01*
X24103174Y30303789D01*
X24191789Y30215174D01*
X24304375Y30160134D01*
X24377364Y30149500D01*
X24377367Y30149500D01*
X25498632Y30149500D01*
X25498636Y30149500D01*
X25571625Y30160134D01*
X25684211Y30215174D01*
X25772826Y30303789D01*
X25827866Y30416375D01*
X25831275Y30439775D01*
X25858373Y30494629D01*
X25912540Y30523081D01*
X25929240Y30524500D01*
X27115587Y30524500D01*
X27173778Y30505593D01*
X27185591Y30495504D01*
X31678829Y26002266D01*
X31678830Y26002264D01*
X31742264Y25938830D01*
X31776595Y25924610D01*
X31825146Y25904499D01*
X31825147Y25904499D01*
X31926378Y25904499D01*
X31926386Y25904500D01*
X32449462Y25904500D01*
X32507653Y25885593D01*
X32543617Y25836093D01*
X32544191Y25834262D01*
X32571186Y25745273D01*
X32571188Y25745268D01*
X32587274Y25715174D01*
X32664090Y25571462D01*
X32664092Y25571460D01*
X32664093Y25571458D01*
X32789112Y25419122D01*
X32789121Y25419113D01*
X32885684Y25339866D01*
X32941462Y25294090D01*
X33115273Y25201186D01*
X33303868Y25143976D01*
X33303870Y25143976D01*
X33303873Y25143975D01*
X33499997Y25124659D01*
X33500000Y25124659D01*
X33500003Y25124659D01*
X33696126Y25143975D01*
X33696127Y25143976D01*
X33696132Y25143976D01*
X33884727Y25201186D01*
X34058538Y25294090D01*
X34210883Y25419117D01*
X34335910Y25571462D01*
X34428814Y25745273D01*
X34486024Y25933868D01*
X34486606Y25939772D01*
X34505341Y26129997D01*
X34505341Y26130004D01*
X34486025Y26326127D01*
X34486024Y26326130D01*
X34486024Y26326132D01*
X34428814Y26514727D01*
X34335910Y26688538D01*
X34329613Y26696211D01*
X34210887Y26840879D01*
X34210878Y26840888D01*
X34058542Y26965907D01*
X34058540Y26965908D01*
X34058538Y26965910D01*
X34017618Y26987782D01*
X33884732Y27058812D01*
X33884730Y27058813D01*
X33696129Y27116025D01*
X33696126Y27116026D01*
X33500003Y27135341D01*
X33499997Y27135341D01*
X33303873Y27116026D01*
X33303870Y27116025D01*
X33115269Y27058813D01*
X33115267Y27058812D01*
X32941467Y26965913D01*
X32941457Y26965907D01*
X32789121Y26840888D01*
X32789112Y26840879D01*
X32664093Y26688543D01*
X32664087Y26688533D01*
X32571188Y26514733D01*
X32571186Y26514728D01*
X32559864Y26477403D01*
X32551924Y26451227D01*
X32544199Y26425762D01*
X32509214Y26375565D01*
X32451406Y26355519D01*
X32449462Y26355500D01*
X32004413Y26355500D01*
X31946222Y26374407D01*
X31934409Y26384496D01*
X27441170Y30877735D01*
X27441170Y30877736D01*
X27377736Y30941170D01*
X27377732Y30941172D01*
X27353458Y30951227D01*
X27353458Y30951228D01*
X27318775Y30965593D01*
X27294855Y30975501D01*
X27205145Y30975501D01*
X27193622Y30975501D01*
X27193614Y30975500D01*
X25929240Y30975500D01*
X25871049Y30994407D01*
X25835085Y31043907D01*
X25831276Y31060220D01*
X25827866Y31083625D01*
X25772826Y31196211D01*
X25684211Y31284826D01*
X25571625Y31339866D01*
X25571626Y31339866D01*
X25553377Y31342525D01*
X25498636Y31350500D01*
X24377364Y31350500D01*
X24333570Y31344120D01*
X24304373Y31339866D01*
X24191790Y31284827D01*
X24103173Y31196210D01*
X24048134Y31083627D01*
X24044725Y31060228D01*
X24037500Y31010636D01*
X24037500Y30489364D01*
X18438500Y30489364D01*
X18438500Y30614820D01*
X18438499Y30614822D01*
X18438499Y30614828D01*
X18429767Y30658721D01*
X18429765Y30658725D01*
X18396505Y30708502D01*
X18396504Y30708504D01*
X18395840Y30708948D01*
X18346724Y30741766D01*
X18346720Y30741768D01*
X18302827Y30750500D01*
X18302820Y30750500D01*
X15273180Y30750500D01*
X15273172Y30750500D01*
X15229279Y30741768D01*
X15229275Y30741766D01*
X15179498Y30708506D01*
X15179494Y30708502D01*
X15146234Y30658725D01*
X15146232Y30658721D01*
X15137500Y30614828D01*
X15137500Y27585173D01*
X12975500Y27585173D01*
X12975500Y28943614D01*
X12975501Y28943623D01*
X12975501Y29044855D01*
X12951225Y29103461D01*
X12951225Y29103462D01*
X12941171Y29127734D01*
X12941170Y29127735D01*
X12941170Y29127736D01*
X12877736Y29191170D01*
X12877734Y29191171D01*
X10079541Y31989364D01*
X24037500Y31989364D01*
X24048134Y31916375D01*
X24103174Y31803789D01*
X24191789Y31715174D01*
X24304375Y31660134D01*
X24377364Y31649500D01*
X24377367Y31649500D01*
X25498632Y31649500D01*
X25498636Y31649500D01*
X25571625Y31660134D01*
X25684211Y31715174D01*
X25772826Y31803789D01*
X25827866Y31916375D01*
X25831275Y31939775D01*
X25858373Y31994629D01*
X25912540Y32023081D01*
X25929240Y32024500D01*
X28155587Y32024500D01*
X28213778Y32005593D01*
X28225591Y31995504D01*
X31678829Y28542266D01*
X31678830Y28542264D01*
X31742264Y28478830D01*
X31776595Y28464610D01*
X31825146Y28444499D01*
X31825147Y28444499D01*
X31926378Y28444499D01*
X31926386Y28444500D01*
X32449462Y28444500D01*
X32507653Y28425593D01*
X32543617Y28376093D01*
X32544191Y28374262D01*
X32571186Y28285273D01*
X32571188Y28285268D01*
X32642218Y28152382D01*
X32664090Y28111462D01*
X32664092Y28111460D01*
X32664093Y28111458D01*
X32789112Y27959122D01*
X32789121Y27959113D01*
X32941457Y27834094D01*
X32941462Y27834090D01*
X33115273Y27741186D01*
X33303868Y27683976D01*
X33303870Y27683976D01*
X33303873Y27683975D01*
X33499997Y27664659D01*
X33500000Y27664659D01*
X33500003Y27664659D01*
X33696126Y27683975D01*
X33696127Y27683976D01*
X33696132Y27683976D01*
X33884727Y27741186D01*
X34058538Y27834090D01*
X34210883Y27959117D01*
X34335910Y28111462D01*
X34428814Y28285273D01*
X34486024Y28473868D01*
X34492761Y28542264D01*
X34505341Y28669997D01*
X34505341Y28670004D01*
X34486025Y28866127D01*
X34486024Y28866130D01*
X34486024Y28866132D01*
X34428814Y29054727D01*
X34335910Y29228538D01*
X34213466Y29377736D01*
X34210887Y29380879D01*
X34210878Y29380888D01*
X34058542Y29505907D01*
X34058540Y29505908D01*
X34058538Y29505910D01*
X34017618Y29527782D01*
X33884732Y29598812D01*
X33884730Y29598813D01*
X33696129Y29656025D01*
X33696126Y29656026D01*
X33500003Y29675341D01*
X33499997Y29675341D01*
X33303873Y29656026D01*
X33303870Y29656025D01*
X33115269Y29598813D01*
X33115267Y29598812D01*
X32941467Y29505913D01*
X32941457Y29505907D01*
X32789121Y29380888D01*
X32789112Y29380879D01*
X32664093Y29228543D01*
X32664087Y29228533D01*
X32571188Y29054733D01*
X32571186Y29054728D01*
X32544199Y28965762D01*
X32509214Y28915565D01*
X32451406Y28895519D01*
X32449462Y28895500D01*
X32004413Y28895500D01*
X31946222Y28914407D01*
X31934409Y28924496D01*
X28481170Y32377735D01*
X28481170Y32377736D01*
X28417736Y32441170D01*
X28417732Y32441172D01*
X28393458Y32451227D01*
X28393458Y32451228D01*
X28359128Y32465447D01*
X28334855Y32475501D01*
X28245145Y32475501D01*
X28233622Y32475501D01*
X28233614Y32475500D01*
X25929240Y32475500D01*
X25871049Y32494407D01*
X25835085Y32543907D01*
X25831276Y32560220D01*
X25827866Y32583625D01*
X25772826Y32696211D01*
X25684211Y32784826D01*
X25571625Y32839866D01*
X25571626Y32839866D01*
X25553377Y32842525D01*
X25498636Y32850500D01*
X24377364Y32850500D01*
X24333570Y32844120D01*
X24304373Y32839866D01*
X24191790Y32784827D01*
X24103173Y32696210D01*
X24048134Y32583627D01*
X24048134Y32583625D01*
X24037500Y32510636D01*
X24037500Y31989364D01*
X10079541Y31989364D01*
X9691170Y32377735D01*
X9691170Y32377736D01*
X9627736Y32441170D01*
X9627732Y32441172D01*
X9603458Y32451227D01*
X9603458Y32451228D01*
X9569128Y32465447D01*
X9544855Y32475501D01*
X9455145Y32475501D01*
X9443622Y32475501D01*
X9443614Y32475500D01*
X8429240Y32475500D01*
X8371049Y32494407D01*
X8335085Y32543907D01*
X8331276Y32560220D01*
X8327866Y32583625D01*
X8272826Y32696211D01*
X8184211Y32784826D01*
X8071625Y32839866D01*
X8071626Y32839866D01*
X8053377Y32842525D01*
X7998636Y32850500D01*
X6877364Y32850500D01*
X6833570Y32844120D01*
X6804373Y32839866D01*
X6691790Y32784827D01*
X6603173Y32696210D01*
X6548134Y32583627D01*
X6548134Y32583625D01*
X6544724Y32560226D01*
X6517627Y32505371D01*
X6463460Y32476919D01*
X6446760Y32475500D01*
X3306386Y32475500D01*
X3306378Y32475501D01*
X3294855Y32475501D01*
X3205146Y32475501D01*
X3205144Y32475501D01*
X3156594Y32455391D01*
X3122265Y32441172D01*
X3122263Y32441170D01*
X3058829Y32377737D01*
X3058830Y32377736D01*
X-382938Y28935968D01*
X-437455Y28908191D01*
X-497887Y28917762D01*
X-541152Y28961027D01*
X-547679Y28977234D01*
X-571186Y29054727D01*
X-664090Y29228538D01*
X-786534Y29377736D01*
X-789113Y29380879D01*
X-789122Y29380888D01*
X-941458Y29505907D01*
X-941460Y29505908D01*
X-941462Y29505910D01*
X-982382Y29527782D01*
X-1115268Y29598812D01*
X-1115270Y29598813D01*
X-1303871Y29656025D01*
X-1303874Y29656026D01*
X-1499997Y29675341D01*
X-1500003Y29675341D01*
X-1696127Y29656026D01*
X-1696130Y29656025D01*
X-1884731Y29598813D01*
X-1884733Y29598812D01*
X-2058533Y29505913D01*
X-2058543Y29505907D01*
X-2210879Y29380888D01*
X-2210888Y29380879D01*
X-2335907Y29228543D01*
X-2335913Y29228533D01*
X-2428812Y29054733D01*
X-2428813Y29054731D01*
X-2486025Y28866130D01*
X-2486026Y28866127D01*
X-2505341Y28670004D01*
X-2505341Y28669997D01*
X-2486026Y28473874D01*
X-2486025Y28473871D01*
X-2471380Y28425593D01*
X-2448601Y28350500D01*
X-2428813Y28285270D01*
X-2428812Y28285268D01*
X-2357782Y28152382D01*
X-2335910Y28111462D01*
X-2335908Y28111460D01*
X-2335907Y28111458D01*
X-2210888Y27959122D01*
X-2210879Y27959113D01*
X-2058543Y27834094D01*
X-2058538Y27834090D01*
X-1884727Y27741186D01*
X-1696132Y27683976D01*
X-1696130Y27683976D01*
X-1696127Y27683975D01*
X-1500003Y27664659D01*
X-1500000Y27664659D01*
X-1499997Y27664659D01*
X-1303874Y27683975D01*
X-1303873Y27683976D01*
X-1303868Y27683976D01*
X-1115273Y27741186D01*
X-941462Y27834090D01*
X-789117Y27959117D01*
X-664090Y28111462D01*
X-571186Y28285273D01*
X-544199Y28374239D01*
X-509214Y28424435D01*
X-451406Y28444481D01*
X-449462Y28444500D01*
X-386386Y28444500D01*
X-386378Y28444499D01*
X-374855Y28444499D01*
X-285146Y28444499D01*
X-285145Y28444499D01*
X-226540Y28468775D01*
X-202264Y28478830D01*
X-138830Y28542264D01*
X-138830Y28542265D01*
X-124924Y28556171D01*
X-124916Y28556181D01*
X3314409Y31995504D01*
X3368926Y32023281D01*
X3384413Y32024500D01*
X6446760Y32024500D01*
X6504951Y32005593D01*
X6540915Y31956093D01*
X6544723Y31939781D01*
X6548134Y31916375D01*
X6603174Y31803789D01*
X6691789Y31715174D01*
X6804375Y31660134D01*
X6877364Y31649500D01*
X6877367Y31649500D01*
X7998632Y31649500D01*
X7998636Y31649500D01*
X8071625Y31660134D01*
X8184211Y31715174D01*
X8272826Y31803789D01*
X8327866Y31916375D01*
X8331275Y31939775D01*
X8358373Y31994629D01*
X8412540Y32023081D01*
X8429240Y32024500D01*
X9365587Y32024500D01*
X9423778Y32005593D01*
X9435591Y31995504D01*
X12495504Y28935591D01*
X12523281Y28881074D01*
X12524500Y28865587D01*
X12524500Y28283414D01*
X12505593Y28225223D01*
X12456093Y28189259D01*
X12394907Y28189259D01*
X12355496Y28213410D01*
X9691170Y30877735D01*
X9691170Y30877736D01*
X9627736Y30941170D01*
X9627732Y30941172D01*
X9603458Y30951227D01*
X9603458Y30951228D01*
X9568775Y30965593D01*
X9544855Y30975501D01*
X9455145Y30975501D01*
X9443622Y30975501D01*
X9443614Y30975500D01*
X8429240Y30975500D01*
X8371049Y30994407D01*
X8335085Y31043907D01*
X8331276Y31060220D01*
X8327866Y31083625D01*
X8272826Y31196211D01*
X8184211Y31284826D01*
X8071625Y31339866D01*
X8071626Y31339866D01*
X8053377Y31342525D01*
X7998636Y31350500D01*
X6877364Y31350500D01*
X6833570Y31344120D01*
X6804373Y31339866D01*
X6691790Y31284827D01*
X6603173Y31196210D01*
X6548134Y31083627D01*
X6547210Y31077284D01*
X6544724Y31060226D01*
X6517627Y31005371D01*
X6463460Y30976919D01*
X6446760Y30975500D01*
X4346386Y30975500D01*
X4346378Y30975501D01*
X4334855Y30975501D01*
X4245146Y30975501D01*
X4245144Y30975501D01*
X4196594Y30955391D01*
X4162265Y30941172D01*
X4162263Y30941170D01*
X4098829Y30877737D01*
X4098830Y30877736D01*
X-382938Y26395968D01*
X-437455Y26368191D01*
X-497887Y26377762D01*
X-541152Y26421027D01*
X-547679Y26437234D01*
X-548873Y26441171D01*
X-571186Y26514727D01*
X-664090Y26688538D01*
X-670387Y26696211D01*
X-789113Y26840879D01*
X-789122Y26840888D01*
X-941458Y26965907D01*
X-941460Y26965908D01*
X-941462Y26965910D01*
X-982382Y26987782D01*
X-1115268Y27058812D01*
X-1115270Y27058813D01*
X-1303871Y27116025D01*
X-1303874Y27116026D01*
X-1499997Y27135341D01*
X-1500003Y27135341D01*
X-1696127Y27116026D01*
X-1696130Y27116025D01*
X-1884731Y27058813D01*
X-1884733Y27058812D01*
X-2058533Y26965913D01*
X-2058543Y26965907D01*
X-2210879Y26840888D01*
X-2210888Y26840879D01*
X-2335907Y26688543D01*
X-2335913Y26688533D01*
X-2428812Y26514733D01*
X-2428813Y26514731D01*
X-2486025Y26326130D01*
X-2486026Y26326127D01*
X-2505341Y26130004D01*
X-2505341Y26129997D01*
X-2486026Y25933874D01*
X-2486025Y25933871D01*
X-2428813Y25745270D01*
X-2428812Y25745268D01*
X-2412726Y25715174D01*
X-2335910Y25571462D01*
X-2335908Y25571460D01*
X-2335907Y25571458D01*
X-2210888Y25419122D01*
X-2210879Y25419113D01*
X-2114316Y25339866D01*
X-2058538Y25294090D01*
X-1884727Y25201186D01*
X-1696132Y25143976D01*
X-1696130Y25143976D01*
X-1696127Y25143975D01*
X-1500003Y25124659D01*
X-1500000Y25124659D01*
X-1499997Y25124659D01*
X-1303874Y25143975D01*
X-1303873Y25143976D01*
X-1303868Y25143976D01*
X-1115273Y25201186D01*
X-941462Y25294090D01*
X-789117Y25419117D01*
X-664090Y25571462D01*
X-571186Y25745273D01*
X-544199Y25834239D01*
X-509214Y25884435D01*
X-451406Y25904481D01*
X-449462Y25904500D01*
X-386386Y25904500D01*
X-386378Y25904499D01*
X-374855Y25904499D01*
X-285146Y25904499D01*
X-285145Y25904499D01*
X-226540Y25928775D01*
X-202264Y25938830D01*
X-138830Y26002264D01*
X-138830Y26002265D01*
X-124924Y26016171D01*
X-124916Y26016181D01*
X4354409Y30495504D01*
X4408926Y30523281D01*
X4424413Y30524500D01*
X6446760Y30524500D01*
X6504951Y30505593D01*
X6540915Y30456093D01*
X6544723Y30439781D01*
X6548134Y30416375D01*
X6603174Y30303789D01*
X6691789Y30215174D01*
X6804375Y30160134D01*
X6877364Y30149500D01*
X6877367Y30149500D01*
X7998632Y30149500D01*
X7998636Y30149500D01*
X8071625Y30160134D01*
X8184211Y30215174D01*
X8272826Y30303789D01*
X8327866Y30416375D01*
X8331275Y30439775D01*
X8358373Y30494629D01*
X8412540Y30523081D01*
X8429240Y30524500D01*
X9365587Y30524500D01*
X9423778Y30505593D01*
X9435591Y30495504D01*
X12070504Y27860591D01*
X12098281Y27806074D01*
X12099500Y27790587D01*
X12099500Y20311190D01*
X12080593Y20252999D01*
X12070504Y20241187D01*
X12037906Y20208590D01*
X11987500Y20109662D01*
X11987500Y20109661D01*
X11970131Y20000000D01*
X11987500Y19890339D01*
X12037905Y19791413D01*
X12060316Y19769002D01*
X12088092Y19714487D01*
X12078521Y19654055D01*
X12035256Y19610790D01*
X11990311Y19600000D01*
X11250001Y19600000D01*
X11250000Y19599999D01*
X11250000Y18994000D01*
X11231093Y18935809D01*
X11181593Y18899845D01*
X11151000Y18895000D01*
X9600001Y18895000D01*
X9600000Y18894999D01*
X9600000Y18620300D01*
X9611603Y18561964D01*
X9655806Y18495811D01*
X9655810Y18495807D01*
X9721962Y18451605D01*
X9728915Y18448725D01*
X9775442Y18408989D01*
X9789726Y18349494D01*
X9766312Y18292966D01*
X9746033Y18274945D01*
X9691499Y18238507D01*
X9691494Y18238502D01*
X9658234Y18188725D01*
X9658232Y18188721D01*
X9649500Y18144828D01*
X9649500Y18085190D01*
X9630593Y18026999D01*
X9581093Y17991035D01*
X9519907Y17991035D01*
X9480498Y18015185D01*
X9458589Y18037093D01*
X9458589Y18037094D01*
X9359661Y18087500D01*
X9250000Y18104869D01*
X9140338Y18087500D01*
X9041413Y18037095D01*
X8962905Y17958587D01*
X8912500Y17859662D01*
X8896183Y17756639D01*
X8895131Y17750000D01*
X8912500Y17640339D01*
X8962905Y17541413D01*
X9041413Y17462905D01*
X9140339Y17412500D01*
X9250000Y17395131D01*
X9359661Y17412500D01*
X9458587Y17462905D01*
X9480498Y17484817D01*
X9535013Y17512592D01*
X9595445Y17503021D01*
X9638710Y17459756D01*
X9649500Y17414811D01*
X9649500Y17355173D01*
X9658232Y17311280D01*
X9658234Y17311276D01*
X9682807Y17274500D01*
X9691496Y17261496D01*
X9741278Y17228233D01*
X9752327Y17226036D01*
X9785172Y17219501D01*
X9785178Y17219501D01*
X9785180Y17219500D01*
X9785181Y17219500D01*
X12464819Y17219500D01*
X12464820Y17219500D01*
X12464821Y17219501D01*
X12464827Y17219501D01*
X12486623Y17223838D01*
X12508722Y17228233D01*
X12558504Y17261496D01*
X12591767Y17311278D01*
X12595116Y17328118D01*
X12601450Y17359952D01*
X12603474Y17359550D01*
X12624684Y17408098D01*
X12677457Y17439060D01*
X12738351Y17433090D01*
X12768721Y17412374D01*
X12816829Y17364266D01*
X12816830Y17364264D01*
X12864364Y17316730D01*
X12892140Y17262215D01*
X12882569Y17201783D01*
X12846172Y17165387D01*
X12847373Y17163589D01*
X12839265Y17158172D01*
X12670560Y16989468D01*
X12616043Y16961691D01*
X12555611Y16971263D01*
X12545556Y16977156D01*
X12508723Y17001767D01*
X12508720Y17001768D01*
X12464827Y17010500D01*
X12464820Y17010500D01*
X9785180Y17010500D01*
X9785172Y17010500D01*
X9741279Y17001768D01*
X9741275Y17001766D01*
X9691498Y16968506D01*
X9691494Y16968502D01*
X9658234Y16918725D01*
X9654503Y16909716D01*
X9651341Y16911026D01*
X9629742Y16872481D01*
X9574171Y16846878D01*
X9547072Y16847414D01*
X9500002Y16854869D01*
X9500000Y16854869D01*
X9390338Y16837500D01*
X9291413Y16787095D01*
X9212905Y16708587D01*
X9162500Y16609662D01*
X9149977Y16530593D01*
X9145131Y16500000D01*
X9162500Y16390339D01*
X9212905Y16291413D01*
X9291413Y16212905D01*
X9390339Y16162500D01*
X9482630Y16147883D01*
X9499999Y16145131D01*
X9499999Y16145132D01*
X9500000Y16145131D01*
X9539358Y16151365D01*
X9599789Y16141794D01*
X9643054Y16098530D01*
X9651942Y16072900D01*
X9658232Y16041280D01*
X9658234Y16041276D01*
X9662654Y16034661D01*
X9691496Y15991496D01*
X9741278Y15958233D01*
X9752267Y15956047D01*
X9785172Y15949501D01*
X9785178Y15949501D01*
X9785180Y15949500D01*
X9785181Y15949500D01*
X11714811Y15949500D01*
X11773002Y15930593D01*
X11808966Y15881093D01*
X11808966Y15819907D01*
X11784813Y15780495D01*
X11758812Y15754495D01*
X11704295Y15726719D01*
X11688810Y15725500D01*
X8665064Y15725500D01*
X8606873Y15744407D01*
X8570909Y15793907D01*
X8570909Y15855093D01*
X8576854Y15869445D01*
X8587500Y15890339D01*
X8604869Y16000000D01*
X8604788Y16000509D01*
X8599379Y16034662D01*
X8587500Y16109661D01*
X8537095Y16208587D01*
X8537094Y16208588D01*
X8537093Y16208590D01*
X8504496Y16241187D01*
X8476719Y16295704D01*
X8475500Y16311190D01*
X8475500Y19145001D01*
X9600000Y19145001D01*
X9600001Y19145000D01*
X10999999Y19145000D01*
X11000000Y19145001D01*
X11000000Y19599999D01*
X10999999Y19600000D01*
X9780299Y19600000D01*
X9721963Y19588397D01*
X9655810Y19544194D01*
X9655806Y19544190D01*
X9611603Y19478037D01*
X9600000Y19419701D01*
X9600000Y19145001D01*
X8475500Y19145001D01*
X8475500Y20365587D01*
X8494407Y20423778D01*
X8504496Y20435591D01*
X10935040Y22866135D01*
X10989557Y22893912D01*
X10995017Y22894342D01*
X10999999Y22895132D01*
X11000000Y22895131D01*
X11109661Y22912500D01*
X11208587Y22962905D01*
X11287095Y23041413D01*
X11337500Y23140339D01*
X11354869Y23250000D01*
X11337500Y23359661D01*
X11287095Y23458587D01*
X11208587Y23537095D01*
X11109661Y23587500D01*
X11000000Y23604869D01*
X10890338Y23587500D01*
X10791413Y23537095D01*
X10712905Y23458587D01*
X10662500Y23359662D01*
X10643912Y23242304D01*
X10641133Y23242745D01*
X10626224Y23196855D01*
X10616135Y23185042D01*
X8122265Y20691171D01*
X8122264Y20691170D01*
X8122263Y20691171D01*
X8058831Y20627738D01*
X8058830Y20627736D01*
X8048772Y20603457D01*
X8024499Y20544857D01*
X8024499Y20443623D01*
X8024500Y20443614D01*
X8024500Y17905018D01*
X8005593Y17846827D01*
X7956093Y17810863D01*
X7894907Y17810863D01*
X7845407Y17846827D01*
X7837291Y17860073D01*
X7787096Y17958585D01*
X7787095Y17958587D01*
X7708587Y18037095D01*
X7609661Y18087500D01*
X7500000Y18104869D01*
X7499997Y18104869D01*
X7456783Y18098025D01*
X7396351Y18107597D01*
X7353087Y18150862D01*
X7344200Y18176487D01*
X7341767Y18188722D01*
X7308504Y18238504D01*
X7307840Y18238948D01*
X7258724Y18271766D01*
X7258720Y18271768D01*
X7214827Y18280500D01*
X7214820Y18280500D01*
X4535180Y18280500D01*
X4535172Y18280500D01*
X4491279Y18271768D01*
X4491275Y18271766D01*
X4441498Y18238506D01*
X4441494Y18238502D01*
X4408234Y18188725D01*
X4408232Y18188721D01*
X4399500Y18144828D01*
X4399500Y17355173D01*
X4408232Y17311280D01*
X4408234Y17311276D01*
X4432807Y17274500D01*
X4441496Y17261496D01*
X4491278Y17228233D01*
X4502327Y17226036D01*
X4535172Y17219501D01*
X4535178Y17219501D01*
X4535180Y17219500D01*
X4535181Y17219500D01*
X7214819Y17219500D01*
X7214820Y17219500D01*
X7214821Y17219501D01*
X7214827Y17219501D01*
X7236623Y17223838D01*
X7258722Y17228233D01*
X7308504Y17261496D01*
X7341767Y17311278D01*
X7344200Y17323511D01*
X7374095Y17376892D01*
X7429660Y17402509D01*
X7456783Y17401977D01*
X7500000Y17395131D01*
X7609661Y17412500D01*
X7708587Y17462905D01*
X7787095Y17541413D01*
X7837291Y17639930D01*
X7880555Y17683193D01*
X7940987Y17692764D01*
X7995504Y17664987D01*
X8023281Y17610470D01*
X8024500Y17594983D01*
X8024500Y16311190D01*
X8005593Y16252999D01*
X7995504Y16241187D01*
X7962906Y16208590D01*
X7912500Y16109662D01*
X7895212Y16000509D01*
X7895131Y16000000D01*
X7912500Y15890339D01*
X7914934Y15885561D01*
X7923146Y15869445D01*
X7932717Y15809013D01*
X7904939Y15754496D01*
X7850423Y15726719D01*
X7834936Y15725500D01*
X1689185Y15725500D01*
X1630994Y15744407D01*
X1595030Y15793907D01*
X1591404Y15839987D01*
X1606088Y15932696D01*
X1608864Y15932257D01*
X1623776Y15978149D01*
X1633866Y15989962D01*
X1869409Y16225504D01*
X1923925Y16253281D01*
X1939412Y16254500D01*
X4300500Y16254500D01*
X4358691Y16235593D01*
X4394655Y16186093D01*
X4399500Y16155500D01*
X4399500Y16085173D01*
X4408232Y16041280D01*
X4408234Y16041276D01*
X4412654Y16034661D01*
X4441496Y15991496D01*
X4491278Y15958233D01*
X4502267Y15956047D01*
X4535172Y15949501D01*
X4535178Y15949501D01*
X4535180Y15949500D01*
X4535181Y15949500D01*
X7214819Y15949500D01*
X7214820Y15949500D01*
X7214821Y15949501D01*
X7214827Y15949501D01*
X7236623Y15953838D01*
X7258722Y15958233D01*
X7308504Y15991496D01*
X7341767Y16041278D01*
X7350500Y16085180D01*
X7350500Y16874820D01*
X7350499Y16874822D01*
X7350499Y16874828D01*
X7341767Y16918721D01*
X7341765Y16918725D01*
X7315696Y16957740D01*
X7308504Y16968504D01*
X7277129Y16989468D01*
X7258724Y17001766D01*
X7258720Y17001768D01*
X7214827Y17010500D01*
X7214820Y17010500D01*
X4535180Y17010500D01*
X4535172Y17010500D01*
X4491279Y17001768D01*
X4491275Y17001766D01*
X4441498Y16968506D01*
X4441494Y16968502D01*
X4408234Y16918725D01*
X4408232Y16918721D01*
X4399500Y16874828D01*
X4399500Y16804500D01*
X4380593Y16746309D01*
X4331093Y16710345D01*
X4300500Y16705500D01*
X1861386Y16705500D01*
X1861378Y16705501D01*
X1849855Y16705501D01*
X1760146Y16705501D01*
X1760144Y16705501D01*
X1711594Y16685391D01*
X1677265Y16671172D01*
X1677263Y16671170D01*
X1613829Y16607737D01*
X1613830Y16607736D01*
X1314959Y16308865D01*
X1260442Y16281088D01*
X1254983Y16280659D01*
X1140338Y16262500D01*
X1041413Y16212095D01*
X962905Y16133587D01*
X912500Y16034662D01*
X899012Y15949500D01*
X895131Y15925000D01*
X912500Y15815339D01*
X962905Y15716413D01*
X1041413Y15637905D01*
X1061369Y15627737D01*
X1103892Y15606070D01*
X1147156Y15562805D01*
X1156727Y15502373D01*
X1128950Y15447857D01*
X-453457Y13865450D01*
X-507974Y13837673D01*
X-568406Y13847244D01*
X-610771Y13888785D01*
X-635395Y13934853D01*
X-664090Y13988538D01*
X-672092Y13998288D01*
X-789113Y14140879D01*
X-789122Y14140888D01*
X-941458Y14265907D01*
X-941460Y14265908D01*
X-941462Y14265910D01*
X-982382Y14287782D01*
X-1115268Y14358812D01*
X-1115270Y14358813D01*
X-1303871Y14416025D01*
X-1303874Y14416026D01*
X-1499997Y14435341D01*
X-1500003Y14435341D01*
X-1696127Y14416026D01*
X-1696130Y14416025D01*
X-1884731Y14358813D01*
X-1884733Y14358812D01*
X-2058533Y14265913D01*
X-2058543Y14265907D01*
X-2210879Y14140888D01*
X-2210888Y14140879D01*
X-2335907Y13988543D01*
X-2335913Y13988533D01*
X-2428812Y13814733D01*
X-2428813Y13814731D01*
X-2486025Y13626130D01*
X-2486026Y13626127D01*
X-2505341Y13430004D01*
X-2505341Y13429997D01*
X-2486026Y13233874D01*
X-2486025Y13233871D01*
X-2428813Y13045270D01*
X-2428812Y13045268D01*
X-2414901Y13019243D01*
X-2335910Y12871462D01*
X-2335908Y12871460D01*
X-2335907Y12871458D01*
X-2210888Y12719122D01*
X-2210879Y12719113D01*
X-2087063Y12617500D01*
X-2058538Y12594090D01*
X-1932412Y12526674D01*
X-1918521Y12519249D01*
X-1884727Y12501186D01*
X-1696132Y12443976D01*
X-1696130Y12443976D01*
X-1696127Y12443975D01*
X-1500003Y12424659D01*
X-1500000Y12424659D01*
X-1499997Y12424659D01*
X-1303874Y12443975D01*
X-1303873Y12443976D01*
X-1303868Y12443976D01*
X-1115273Y12501186D01*
X-1064646Y12528248D01*
X-1004413Y12539003D01*
X-949362Y12512302D01*
X-920519Y12458341D01*
X-928902Y12397733D01*
X-947974Y12370933D01*
X-1397311Y11921597D01*
X-1451827Y11893820D01*
X-1477017Y11893078D01*
X-1499996Y11895341D01*
X-1500004Y11895341D01*
X-1696127Y11876026D01*
X-1696130Y11876025D01*
X-1884731Y11818813D01*
X-1884733Y11818812D01*
X-2058533Y11725913D01*
X-2058543Y11725907D01*
X-2210879Y11600888D01*
X-2210888Y11600879D01*
X-2335907Y11448543D01*
X-2335913Y11448533D01*
X-2428812Y11274733D01*
X-2428813Y11274731D01*
X-2486025Y11086130D01*
X-2486026Y11086127D01*
X-2505341Y10890004D01*
X-2505341Y10889997D01*
X-2486026Y10693874D01*
X-2486025Y10693871D01*
X-2428813Y10505270D01*
X-2428812Y10505268D01*
X-2386765Y10426605D01*
X-2335910Y10331462D01*
X-2335908Y10331460D01*
X-2335907Y10331458D01*
X-2210888Y10179122D01*
X-2210879Y10179113D01*
X-2074879Y10067501D01*
X-2058538Y10054090D01*
X-1884727Y9961186D01*
X-1696132Y9903976D01*
X-1696130Y9903976D01*
X-1696127Y9903975D01*
X-1500003Y9884659D01*
X-1500000Y9884659D01*
X-1499997Y9884659D01*
X-1303874Y9903975D01*
X-1303873Y9903976D01*
X-1303868Y9903976D01*
X-1115273Y9961186D01*
X-941462Y10054090D01*
X-789117Y10179117D01*
X-664090Y10331462D01*
X-661811Y10335727D01*
X-617707Y10378134D01*
X-557099Y10386519D01*
X-503137Y10357677D01*
X-476434Y10302627D01*
X-475500Y10289060D01*
X-475500Y9734414D01*
X-494407Y9676223D01*
X-504497Y9664410D01*
X-916612Y9252296D01*
X-971128Y9224519D01*
X-1031560Y9234090D01*
X-1033283Y9234990D01*
X-1115268Y9278812D01*
X-1115270Y9278813D01*
X-1133553Y9284359D01*
X-1303868Y9336024D01*
X-1303871Y9336025D01*
X-1303874Y9336026D01*
X-1499997Y9355341D01*
X-1500003Y9355341D01*
X-1696127Y9336026D01*
X-1696130Y9336025D01*
X-1884731Y9278813D01*
X-1884733Y9278812D01*
X-2058533Y9185913D01*
X-2058543Y9185907D01*
X-2210879Y9060888D01*
X-2210888Y9060879D01*
X-2335907Y8908543D01*
X-2335913Y8908533D01*
X-2428812Y8734733D01*
X-2428813Y8734731D01*
X-2486025Y8546130D01*
X-2486026Y8546127D01*
X-2505341Y8350004D01*
X-2505341Y8349997D01*
X-2486026Y8153874D01*
X-2486025Y8153871D01*
X-2428813Y7965270D01*
X-2428812Y7965268D01*
X-2370790Y7856717D01*
X-2335910Y7791462D01*
X-2335908Y7791460D01*
X-2335907Y7791458D01*
X-2210888Y7639122D01*
X-2210879Y7639113D01*
X-2059826Y7515147D01*
X-2058538Y7514090D01*
X-1939886Y7450669D01*
X-1905453Y7432264D01*
X-1884727Y7421186D01*
X-1696132Y7363976D01*
X-1696130Y7363976D01*
X-1696127Y7363975D01*
X-1500003Y7344659D01*
X-1500000Y7344659D01*
X-1499997Y7344659D01*
X-1303874Y7363975D01*
X-1303873Y7363976D01*
X-1303868Y7363976D01*
X-1115273Y7421186D01*
X-941462Y7514090D01*
X-789117Y7639117D01*
X-664090Y7791462D01*
X-571186Y7965273D01*
X-513976Y8153868D01*
X-513747Y8156188D01*
X-494659Y8349997D01*
X-494659Y8350004D01*
X-513975Y8546127D01*
X-513976Y8546130D01*
X-513976Y8546132D01*
X-571186Y8734727D01*
X-615013Y8816722D01*
X-625768Y8876950D01*
X-599067Y8932002D01*
X-597705Y8933391D01*
X-144503Y9386592D01*
X-89987Y9414369D01*
X-29555Y9404798D01*
X13710Y9361533D01*
X24500Y9316588D01*
X24500Y7694414D01*
X5593Y7636223D01*
X-4496Y7624410D01*
X-916611Y6712296D01*
X-971128Y6684519D01*
X-1031560Y6694090D01*
X-1033283Y6694990D01*
X-1115268Y6738812D01*
X-1115270Y6738813D01*
X-1149317Y6749141D01*
X-1244504Y6778016D01*
X-1303871Y6796025D01*
X-1303874Y6796026D01*
X-1499997Y6815341D01*
X-1500003Y6815341D01*
X-1696127Y6796026D01*
X-1696130Y6796025D01*
X-1884731Y6738813D01*
X-1884733Y6738812D01*
X-2058533Y6645913D01*
X-2058543Y6645907D01*
X-2210879Y6520888D01*
X-2210888Y6520879D01*
X-2335907Y6368543D01*
X-2335913Y6368533D01*
X-2428812Y6194733D01*
X-2428813Y6194731D01*
X-2486025Y6006130D01*
X-2486026Y6006127D01*
X-2505341Y5810004D01*
X-2505341Y5809997D01*
X-3500000Y5809997D01*
X-3500000Y15969997D01*
X-2505341Y15969997D01*
X-2486026Y15773874D01*
X-2486025Y15773871D01*
X-2477087Y15744407D01*
X-2429490Y15587500D01*
X-2428813Y15585270D01*
X-2428812Y15585268D01*
X-2384838Y15502999D01*
X-2335910Y15411462D01*
X-2335908Y15411460D01*
X-2335907Y15411458D01*
X-2210888Y15259122D01*
X-2210879Y15259113D01*
X-2058543Y15134094D01*
X-2058538Y15134090D01*
X-1884727Y15041186D01*
X-1696132Y14983976D01*
X-1696130Y14983976D01*
X-1696127Y14983975D01*
X-1500003Y14964659D01*
X-1500000Y14964659D01*
X-1499997Y14964659D01*
X-1303874Y14983975D01*
X-1303873Y14983976D01*
X-1303868Y14983976D01*
X-1115273Y15041186D01*
X-941462Y15134090D01*
X-789117Y15259117D01*
X-664090Y15411462D01*
X-571186Y15585273D01*
X-544199Y15674239D01*
X-509214Y15724435D01*
X-451406Y15744481D01*
X-449462Y15744500D01*
X-386386Y15744500D01*
X-386378Y15744499D01*
X-374855Y15744499D01*
X-285146Y15744499D01*
X-285145Y15744499D01*
X-226540Y15768775D01*
X-202264Y15778830D01*
X-138830Y15842264D01*
X-138830Y15842265D01*
X-124924Y15856171D01*
X-124915Y15856181D01*
X2644077Y18625173D01*
X4399500Y18625173D01*
X4408232Y18581280D01*
X4408234Y18581276D01*
X4424789Y18556500D01*
X4441496Y18531496D01*
X4491278Y18498233D01*
X4502327Y18496036D01*
X4535172Y18489501D01*
X4535178Y18489501D01*
X4535180Y18489500D01*
X4535181Y18489500D01*
X7214819Y18489500D01*
X7214820Y18489500D01*
X7214821Y18489501D01*
X7214827Y18489501D01*
X7236623Y18493838D01*
X7258722Y18498233D01*
X7308504Y18531496D01*
X7341767Y18581278D01*
X7346162Y18603377D01*
X7350499Y18625173D01*
X7350500Y18625182D01*
X7350500Y19414819D01*
X7350499Y19414828D01*
X7343922Y19447891D01*
X7341767Y19458722D01*
X7308504Y19508504D01*
X7298272Y19515341D01*
X7258724Y19541766D01*
X7258720Y19541768D01*
X7214827Y19550500D01*
X7214820Y19550500D01*
X6285189Y19550500D01*
X6226998Y19569407D01*
X6191034Y19618907D01*
X6191034Y19680093D01*
X6215183Y19719502D01*
X6287095Y19791413D01*
X6337500Y19890339D01*
X6354869Y20000000D01*
X6337500Y20109661D01*
X6287095Y20208587D01*
X6208587Y20287095D01*
X6109661Y20337500D01*
X6000000Y20354869D01*
X5890338Y20337500D01*
X5791413Y20287095D01*
X5712905Y20208587D01*
X5662500Y20109662D01*
X5662500Y20109661D01*
X5645131Y20000000D01*
X5649824Y19970363D01*
X5651368Y19960618D01*
X5650686Y19925831D01*
X5649499Y19919860D01*
X5649499Y19818623D01*
X5649500Y19818614D01*
X5649500Y19649500D01*
X5630593Y19591309D01*
X5581093Y19555345D01*
X5550500Y19550500D01*
X4535172Y19550500D01*
X4491279Y19541768D01*
X4491275Y19541766D01*
X4441498Y19508506D01*
X4441494Y19508502D01*
X4408234Y19458725D01*
X4408232Y19458721D01*
X4399500Y19414828D01*
X4399500Y18625173D01*
X2644077Y18625173D01*
X5627734Y21608830D01*
X5627736Y21608830D01*
X5691170Y21672264D01*
X5702866Y21700500D01*
X5725501Y21755145D01*
X5725501Y21844855D01*
X5725501Y21852829D01*
X5725500Y21852843D01*
X5725500Y22989364D01*
X6537500Y22989364D01*
X6541355Y22962907D01*
X6548134Y22916374D01*
X6566346Y22879122D01*
X6603174Y22803789D01*
X6691789Y22715174D01*
X6804375Y22660134D01*
X6877364Y22649500D01*
X6877367Y22649500D01*
X7998632Y22649500D01*
X7998636Y22649500D01*
X8071625Y22660134D01*
X8184211Y22715174D01*
X8272826Y22803789D01*
X8298455Y22856215D01*
X8340997Y22900187D01*
X8401263Y22910757D01*
X8402785Y22910529D01*
X8500000Y22895131D01*
X8609661Y22912500D01*
X8708587Y22962905D01*
X8787095Y23041413D01*
X8837500Y23140339D01*
X8854869Y23250000D01*
X8837500Y23359661D01*
X8787095Y23458587D01*
X8708587Y23537095D01*
X8609661Y23587500D01*
X8500000Y23604869D01*
X8499999Y23604869D01*
X8402882Y23589487D01*
X8342450Y23599058D01*
X8299185Y23642323D01*
X8298454Y23643788D01*
X8293262Y23654409D01*
X8272826Y23696211D01*
X8184211Y23784826D01*
X8071625Y23839866D01*
X8071626Y23839866D01*
X8053377Y23842525D01*
X7998636Y23850500D01*
X6877364Y23850500D01*
X6836154Y23844496D01*
X6804373Y23839866D01*
X6691790Y23784827D01*
X6603173Y23696210D01*
X6548134Y23583627D01*
X6548134Y23583625D01*
X6537500Y23510636D01*
X6537500Y22989364D01*
X5725500Y22989364D01*
X5725500Y23865587D01*
X5744407Y23923778D01*
X5754496Y23935591D01*
X6314409Y24495504D01*
X6368926Y24523281D01*
X6384413Y24524500D01*
X6446760Y24524500D01*
X6504951Y24505593D01*
X6540915Y24456093D01*
X6544723Y24439781D01*
X6548134Y24416375D01*
X6603174Y24303789D01*
X6691789Y24215174D01*
X6804375Y24160134D01*
X6877364Y24149500D01*
X6877367Y24149500D01*
X7998632Y24149500D01*
X7998636Y24149500D01*
X8071625Y24160134D01*
X8184211Y24215174D01*
X8272826Y24303789D01*
X8327866Y24416375D01*
X8338500Y24489364D01*
X8338500Y25010636D01*
X8327866Y25083625D01*
X8272826Y25196211D01*
X8184211Y25284826D01*
X8071625Y25339866D01*
X8071626Y25339866D01*
X8053377Y25342525D01*
X7998636Y25350500D01*
X6877364Y25350500D01*
X6833570Y25344120D01*
X6804373Y25339866D01*
X6691790Y25284827D01*
X6603173Y25196210D01*
X6548134Y25083627D01*
X6548134Y25083625D01*
X6544724Y25060226D01*
X6517627Y25005371D01*
X6463460Y24976919D01*
X6446760Y24975500D01*
X6205143Y24975500D01*
X6122264Y24941171D01*
X6058829Y24877737D01*
X6058830Y24877736D01*
X6058829Y24877735D01*
X5372265Y24191171D01*
X5372264Y24191170D01*
X5372263Y24191171D01*
X5308830Y24127738D01*
X5308830Y24127735D01*
X5274499Y24044855D01*
X5274499Y23943623D01*
X5274500Y23943614D01*
X5274500Y21934413D01*
X5255593Y21876222D01*
X5245504Y21864409D01*
X-382938Y16235968D01*
X-437455Y16208191D01*
X-497887Y16217762D01*
X-541152Y16261027D01*
X-547679Y16277234D01*
X-551980Y16291413D01*
X-571186Y16354727D01*
X-573217Y16358526D01*
X-617252Y16440910D01*
X-664090Y16528538D01*
X-664094Y16528543D01*
X-789113Y16680879D01*
X-789122Y16680888D01*
X-941458Y16805907D01*
X-941460Y16805908D01*
X-941462Y16805910D01*
X-1003863Y16839264D01*
X-1115268Y16898812D01*
X-1115270Y16898813D01*
X-1155531Y16911026D01*
X-1254901Y16941170D01*
X-1303871Y16956025D01*
X-1303874Y16956026D01*
X-1499997Y16975341D01*
X-1500003Y16975341D01*
X-1696127Y16956026D01*
X-1696130Y16956025D01*
X-1884731Y16898813D01*
X-1884733Y16898812D01*
X-2058533Y16805913D01*
X-2058543Y16805907D01*
X-2210879Y16680888D01*
X-2210888Y16680879D01*
X-2335907Y16528543D01*
X-2335913Y16528533D01*
X-2428812Y16354733D01*
X-2428813Y16354731D01*
X-2486025Y16166130D01*
X-2486026Y16166127D01*
X-2505341Y15970004D01*
X-2505341Y15969997D01*
X-3500000Y15969997D01*
X-3500000Y18509997D01*
X-2505341Y18509997D01*
X-2486026Y18313874D01*
X-2486025Y18313871D01*
X-2475902Y18280500D01*
X-2434744Y18144820D01*
X-2428813Y18125270D01*
X-2428812Y18125268D01*
X-2369971Y18015185D01*
X-2335910Y17951462D01*
X-2335908Y17951460D01*
X-2335907Y17951458D01*
X-2210888Y17799122D01*
X-2210879Y17799113D01*
X-2112666Y17718512D01*
X-2058538Y17674090D01*
X-1884727Y17581186D01*
X-1696132Y17523976D01*
X-1696130Y17523976D01*
X-1696127Y17523975D01*
X-1500003Y17504659D01*
X-1500000Y17504659D01*
X-1499997Y17504659D01*
X-1303874Y17523975D01*
X-1303873Y17523976D01*
X-1303868Y17523976D01*
X-1115273Y17581186D01*
X-941462Y17674090D01*
X-789117Y17799117D01*
X-664090Y17951462D01*
X-571186Y18125273D01*
X-544199Y18214239D01*
X-509214Y18264435D01*
X-451406Y18284481D01*
X-449462Y18284500D01*
X-386386Y18284500D01*
X-386378Y18284499D01*
X-374855Y18284499D01*
X-285146Y18284499D01*
X-285145Y18284499D01*
X-226406Y18308830D01*
X-226405Y18308830D01*
X-211184Y18315136D01*
X-202264Y18318830D01*
X-138830Y18382264D01*
X-138830Y18382266D01*
X4877734Y23398830D01*
X4877736Y23398830D01*
X4941170Y23462264D01*
X4961206Y23510636D01*
X4975501Y23545145D01*
X4975501Y23634855D01*
X4975501Y23642829D01*
X4975500Y23642843D01*
X4975500Y24365588D01*
X4994407Y24423779D01*
X5004490Y24435586D01*
X6429451Y25860548D01*
X6483966Y25888323D01*
X6544398Y25878752D01*
X6587663Y25835487D01*
X6588392Y25834025D01*
X6603174Y25803789D01*
X6691789Y25715174D01*
X6804375Y25660134D01*
X6877364Y25649500D01*
X6877367Y25649500D01*
X7998632Y25649500D01*
X7998636Y25649500D01*
X8071625Y25660134D01*
X8184211Y25715174D01*
X8272826Y25803789D01*
X8327866Y25916375D01*
X8338500Y25989364D01*
X8338500Y26510636D01*
X8327866Y26583625D01*
X8272826Y26696211D01*
X8184211Y26784826D01*
X8071625Y26839866D01*
X8071626Y26839866D01*
X8053377Y26842525D01*
X7998636Y26850500D01*
X6877364Y26850500D01*
X6833570Y26844120D01*
X6804373Y26839866D01*
X6691790Y26784827D01*
X6603173Y26696210D01*
X6548134Y26583626D01*
X6548134Y26583625D01*
X6544725Y26560228D01*
X6517627Y26505372D01*
X6464675Y26477560D01*
X6464707Y26477403D01*
X6464178Y26477298D01*
X6463459Y26476920D01*
X6461397Y26476745D01*
X6455144Y26475502D01*
X6406594Y26455391D01*
X6372265Y26441172D01*
X6372263Y26441170D01*
X6308829Y26377737D01*
X6308830Y26377736D01*
X6308829Y26377735D01*
X4622265Y24691171D01*
X4622264Y24691170D01*
X4622263Y24691171D01*
X4558831Y24627738D01*
X4558830Y24627736D01*
X4548772Y24603457D01*
X4524499Y24544857D01*
X4524499Y24443623D01*
X4524500Y24443614D01*
X4524500Y23724413D01*
X4505593Y23666222D01*
X4495504Y23654409D01*
X-382938Y18775968D01*
X-437455Y18748191D01*
X-497887Y18757762D01*
X-541152Y18801027D01*
X-547679Y18817234D01*
X-571186Y18894727D01*
X-573922Y18899845D01*
X-605807Y18959498D01*
X-664090Y19068538D01*
X-671639Y19077736D01*
X-789113Y19220879D01*
X-789122Y19220888D01*
X-941458Y19345907D01*
X-941460Y19345908D01*
X-941462Y19345910D01*
X-1033282Y19394989D01*
X-1115268Y19438812D01*
X-1115270Y19438813D01*
X-1180901Y19458722D01*
X-1286116Y19490639D01*
X-1303871Y19496025D01*
X-1303874Y19496026D01*
X-1499997Y19515341D01*
X-1500003Y19515341D01*
X-1696127Y19496026D01*
X-1696130Y19496025D01*
X-1884731Y19438813D01*
X-1884733Y19438812D01*
X-2058533Y19345913D01*
X-2058543Y19345907D01*
X-2210879Y19220888D01*
X-2210888Y19220879D01*
X-2335907Y19068543D01*
X-2335913Y19068533D01*
X-2428812Y18894733D01*
X-2428813Y18894731D01*
X-2486025Y18706130D01*
X-2486026Y18706127D01*
X-2505341Y18510004D01*
X-2505341Y18509997D01*
X-3500000Y18509997D01*
X-3500000Y21049997D01*
X-2505341Y21049997D01*
X-2486026Y20853874D01*
X-2486025Y20853871D01*
X-2428813Y20665270D01*
X-2428812Y20665268D01*
X-2399854Y20611092D01*
X-2335910Y20491462D01*
X-2335908Y20491460D01*
X-2335907Y20491458D01*
X-2210888Y20339122D01*
X-2210879Y20339113D01*
X-2091556Y20241187D01*
X-2058538Y20214090D01*
X-1884727Y20121186D01*
X-1696132Y20063976D01*
X-1696130Y20063976D01*
X-1696127Y20063975D01*
X-1500003Y20044659D01*
X-1500000Y20044659D01*
X-1499997Y20044659D01*
X-1303874Y20063975D01*
X-1303873Y20063976D01*
X-1303868Y20063976D01*
X-1115273Y20121186D01*
X-941462Y20214090D01*
X-789117Y20339117D01*
X-664090Y20491462D01*
X-571186Y20665273D01*
X-544199Y20754239D01*
X-509214Y20804435D01*
X-451406Y20824481D01*
X-449462Y20824500D01*
X-386386Y20824500D01*
X-386378Y20824499D01*
X-374855Y20824499D01*
X-285146Y20824499D01*
X-285145Y20824499D01*
X-226540Y20848775D01*
X-202264Y20858830D01*
X-138830Y20922264D01*
X-138830Y20922265D01*
X-124924Y20936171D01*
X-124916Y20936181D01*
X6386765Y27447861D01*
X6441280Y27475636D01*
X6501712Y27466065D01*
X6544977Y27422800D01*
X6545707Y27421336D01*
X6603171Y27303794D01*
X6603172Y27303792D01*
X6603173Y27303791D01*
X6603174Y27303789D01*
X6691789Y27215174D01*
X6804375Y27160134D01*
X6877364Y27149500D01*
X6877367Y27149500D01*
X7998632Y27149500D01*
X7998636Y27149500D01*
X8071625Y27160134D01*
X8184211Y27215174D01*
X8272826Y27303789D01*
X8327866Y27416375D01*
X8338500Y27489364D01*
X8338500Y28010636D01*
X8327866Y28083625D01*
X8272826Y28196211D01*
X8184211Y28284826D01*
X8071625Y28339866D01*
X8071626Y28339866D01*
X8053377Y28342525D01*
X7998636Y28350500D01*
X6877364Y28350500D01*
X6833570Y28344120D01*
X6804373Y28339866D01*
X6691790Y28284827D01*
X6603173Y28196210D01*
X6548134Y28083627D01*
X6548134Y28083625D01*
X6544724Y28060226D01*
X6517627Y28005371D01*
X6463460Y27976919D01*
X6446760Y27975500D01*
X6426386Y27975500D01*
X6426378Y27975501D01*
X6414855Y27975501D01*
X6325145Y27975501D01*
X6305368Y27967309D01*
X6285591Y27959117D01*
X6242264Y27941171D01*
X6178829Y27877737D01*
X6178830Y27877736D01*
X-382938Y21315968D01*
X-437455Y21288191D01*
X-497887Y21297762D01*
X-541152Y21341027D01*
X-547679Y21357234D01*
X-571186Y21434727D01*
X-664090Y21608538D01*
X-716389Y21672264D01*
X-789113Y21760879D01*
X-789122Y21760888D01*
X-941458Y21885907D01*
X-941460Y21885908D01*
X-941462Y21885910D01*
X-982382Y21907782D01*
X-1115268Y21978812D01*
X-1115270Y21978813D01*
X-1303871Y22036025D01*
X-1303874Y22036026D01*
X-1499997Y22055341D01*
X-1500003Y22055341D01*
X-1696127Y22036026D01*
X-1696130Y22036025D01*
X-1884731Y21978813D01*
X-1884733Y21978812D01*
X-2058533Y21885913D01*
X-2058543Y21885907D01*
X-2210879Y21760888D01*
X-2210888Y21760879D01*
X-2335907Y21608543D01*
X-2335913Y21608533D01*
X-2428812Y21434733D01*
X-2428813Y21434731D01*
X-2486025Y21246130D01*
X-2486026Y21246127D01*
X-2505341Y21050004D01*
X-2505341Y21049997D01*
X-3500000Y21049997D01*
X-3500000Y23589997D01*
X-2505341Y23589997D01*
X-2486026Y23393874D01*
X-2486025Y23393871D01*
X-2428813Y23205270D01*
X-2428812Y23205268D01*
X-2394106Y23140339D01*
X-2335910Y23031462D01*
X-2335908Y23031460D01*
X-2335907Y23031458D01*
X-2210888Y22879122D01*
X-2210879Y22879113D01*
X-2182975Y22856213D01*
X-2058538Y22754090D01*
X-1884727Y22661186D01*
X-1696132Y22603976D01*
X-1696130Y22603976D01*
X-1696127Y22603975D01*
X-1500003Y22584659D01*
X-1500000Y22584659D01*
X-1499997Y22584659D01*
X-1303874Y22603975D01*
X-1303873Y22603976D01*
X-1303868Y22603976D01*
X-1115273Y22661186D01*
X-941462Y22754090D01*
X-789117Y22879117D01*
X-664090Y23031462D01*
X-571186Y23205273D01*
X-544199Y23294239D01*
X-509214Y23344435D01*
X-451406Y23364481D01*
X-449462Y23364500D01*
X-386386Y23364500D01*
X-386378Y23364499D01*
X-374855Y23364499D01*
X-285146Y23364499D01*
X-285145Y23364499D01*
X-226540Y23388775D01*
X-202264Y23398830D01*
X-138830Y23462264D01*
X-138830Y23462265D01*
X-124924Y23476171D01*
X-124916Y23476181D01*
X5394409Y28995504D01*
X5448926Y29023281D01*
X5464413Y29024500D01*
X6446760Y29024500D01*
X6504951Y29005593D01*
X6540915Y28956093D01*
X6544723Y28939781D01*
X6546951Y28924496D01*
X6548134Y28916374D01*
X6603173Y28803791D01*
X6603174Y28803789D01*
X6691789Y28715174D01*
X6804375Y28660134D01*
X6877364Y28649500D01*
X6877367Y28649500D01*
X7998632Y28649500D01*
X7998636Y28649500D01*
X8071625Y28660134D01*
X8184211Y28715174D01*
X8272826Y28803789D01*
X8327866Y28916375D01*
X8338500Y28989364D01*
X8338500Y29510636D01*
X8327866Y29583625D01*
X8272826Y29696211D01*
X8184211Y29784826D01*
X8071625Y29839866D01*
X8071626Y29839866D01*
X8053377Y29842525D01*
X7998636Y29850500D01*
X6877364Y29850500D01*
X6833570Y29844120D01*
X6804373Y29839866D01*
X6691790Y29784827D01*
X6603173Y29696210D01*
X6548134Y29583627D01*
X6548134Y29583625D01*
X6544724Y29560226D01*
X6517627Y29505371D01*
X6463460Y29476919D01*
X6446760Y29475500D01*
X5386386Y29475500D01*
X5386378Y29475501D01*
X5374855Y29475501D01*
X5285146Y29475501D01*
X5285144Y29475501D01*
X5236594Y29455391D01*
X5202265Y29441172D01*
X5202263Y29441170D01*
X5138829Y29377737D01*
X5138830Y29377736D01*
X-382938Y23855968D01*
X-437455Y23828191D01*
X-497887Y23837762D01*
X-541152Y23881027D01*
X-547679Y23897234D01*
X-571186Y23974727D01*
X-664090Y24148538D01*
X-664879Y24149500D01*
X-789113Y24300879D01*
X-789122Y24300888D01*
X-941458Y24425907D01*
X-941460Y24425908D01*
X-941462Y24425910D01*
X-997930Y24456093D01*
X-1115268Y24518812D01*
X-1115270Y24518813D01*
X-1129340Y24523081D01*
X-1303868Y24576024D01*
X-1303871Y24576025D01*
X-1303874Y24576026D01*
X-1499997Y24595341D01*
X-1500003Y24595341D01*
X-1696127Y24576026D01*
X-1696130Y24576025D01*
X-1884731Y24518813D01*
X-1884733Y24518812D01*
X-2058533Y24425913D01*
X-2058543Y24425907D01*
X-2210879Y24300888D01*
X-2210888Y24300879D01*
X-2335907Y24148543D01*
X-2335913Y24148533D01*
X-2428812Y23974733D01*
X-2428813Y23974731D01*
X-2486025Y23786130D01*
X-2486026Y23786127D01*
X-2505341Y23590004D01*
X-2505341Y23589997D01*
X-3500000Y23589997D01*
X-3500000Y31209997D01*
X-2505341Y31209997D01*
X-2486026Y31013874D01*
X-2486025Y31013871D01*
X-2428813Y30825270D01*
X-2428812Y30825268D01*
X-2388847Y30750500D01*
X-2335910Y30651462D01*
X-2335908Y30651460D01*
X-2335907Y30651458D01*
X-2210888Y30499122D01*
X-2210879Y30499113D01*
X-2110061Y30416374D01*
X-2058538Y30374090D01*
X-1884727Y30281186D01*
X-1696132Y30223976D01*
X-1696130Y30223976D01*
X-1696127Y30223975D01*
X-1500003Y30204659D01*
X-1500000Y30204659D01*
X-1499997Y30204659D01*
X-1303874Y30223975D01*
X-1303873Y30223976D01*
X-1303868Y30223976D01*
X-1115273Y30281186D01*
X-941462Y30374090D01*
X-789117Y30499117D01*
X-664090Y30651462D01*
X-571186Y30825273D01*
X-513976Y31013868D01*
X-507239Y31082264D01*
X-494659Y31209997D01*
X-494659Y31210004D01*
X-513975Y31406127D01*
X-513976Y31406130D01*
X-513976Y31406132D01*
X-571186Y31594727D01*
X-664090Y31768538D01*
X-693020Y31803789D01*
X-789113Y31920879D01*
X-789122Y31920888D01*
X-941458Y32045907D01*
X-941460Y32045908D01*
X-941462Y32045910D01*
X-982382Y32067782D01*
X-1115268Y32138812D01*
X-1115270Y32138813D01*
X-1303871Y32196025D01*
X-1303874Y32196026D01*
X-1499997Y32215341D01*
X-1500003Y32215341D01*
X-1696127Y32196026D01*
X-1696130Y32196025D01*
X-1884731Y32138813D01*
X-1884733Y32138812D01*
X-2058533Y32045913D01*
X-2058543Y32045907D01*
X-2210879Y31920888D01*
X-2210888Y31920879D01*
X-2335907Y31768543D01*
X-2335913Y31768533D01*
X-2428812Y31594733D01*
X-2428813Y31594731D01*
X-2486025Y31406130D01*
X-2486026Y31406127D01*
X-2505341Y31210004D01*
X-2505341Y31209997D01*
X-3500000Y31209997D01*
X-3500000Y32880300D01*
X-2550000Y32880300D01*
X-2538397Y32821964D01*
X-2494194Y32755811D01*
X-2494190Y32755807D01*
X-2428037Y32711604D01*
X-2369701Y32700001D01*
X-2369697Y32700000D01*
X-1625001Y32700000D01*
X-1625000Y32700001D01*
X-1625000Y33265856D01*
X-1565826Y33250000D01*
X-1434174Y33250000D01*
X-1375000Y33265856D01*
X-1375000Y32700001D01*
X-1374999Y32700000D01*
X-630303Y32700000D01*
X-630300Y32700001D01*
X-571964Y32711604D01*
X-505811Y32755807D01*
X-505807Y32755811D01*
X-461604Y32821964D01*
X-450001Y32880300D01*
X-450000Y32880303D01*
X-450000Y33624999D01*
X-450001Y33625000D01*
X-1015856Y33625000D01*
X-1000000Y33684174D01*
X-1000000Y33750000D01*
X5895131Y33750000D01*
X5912500Y33640339D01*
X5962905Y33541413D01*
X6041413Y33462905D01*
X6140339Y33412500D01*
X6250000Y33395131D01*
X6359661Y33412500D01*
X6413186Y33439772D01*
X6422385Y33444459D01*
X6482817Y33454031D01*
X6537333Y33426254D01*
X6556270Y33399733D01*
X6603174Y33303789D01*
X6691789Y33215174D01*
X6804375Y33160134D01*
X6877364Y33149500D01*
X6877367Y33149500D01*
X7998632Y33149500D01*
X7998636Y33149500D01*
X8071625Y33160134D01*
X8184211Y33215174D01*
X8272826Y33303789D01*
X8327866Y33416375D01*
X8338500Y33489364D01*
X24037500Y33489364D01*
X24042648Y33454031D01*
X24048134Y33416374D01*
X24080631Y33349901D01*
X24103174Y33303789D01*
X24191789Y33215174D01*
X24304375Y33160134D01*
X24377364Y33149500D01*
X24377367Y33149500D01*
X25498632Y33149500D01*
X25498636Y33149500D01*
X25571625Y33160134D01*
X25684211Y33215174D01*
X25772826Y33303789D01*
X25827866Y33416375D01*
X25831275Y33439775D01*
X25858373Y33494629D01*
X25912540Y33523081D01*
X25929240Y33524500D01*
X29195587Y33524500D01*
X29253778Y33505593D01*
X29265591Y33495504D01*
X31678829Y31082265D01*
X31678830Y31082264D01*
X31678829Y31082264D01*
X31742264Y31018830D01*
X31825143Y30984500D01*
X31825145Y30984500D01*
X32449462Y30984500D01*
X32507653Y30965593D01*
X32543617Y30916093D01*
X32544199Y30914238D01*
X32571186Y30825273D01*
X32571188Y30825268D01*
X32611153Y30750500D01*
X32664090Y30651462D01*
X32664092Y30651460D01*
X32664093Y30651458D01*
X32789112Y30499122D01*
X32789121Y30499113D01*
X32889939Y30416374D01*
X32941462Y30374090D01*
X33115273Y30281186D01*
X33303868Y30223976D01*
X33303870Y30223976D01*
X33303873Y30223975D01*
X33499997Y30204659D01*
X33500000Y30204659D01*
X33500003Y30204659D01*
X33696126Y30223975D01*
X33696127Y30223976D01*
X33696132Y30223976D01*
X33884727Y30281186D01*
X34058538Y30374090D01*
X34210883Y30499117D01*
X34335910Y30651462D01*
X34428814Y30825273D01*
X34486024Y31013868D01*
X34492761Y31082264D01*
X34505341Y31209997D01*
X34505341Y31210004D01*
X34486025Y31406127D01*
X34486024Y31406130D01*
X34486024Y31406132D01*
X34428814Y31594727D01*
X34335910Y31768538D01*
X34306980Y31803789D01*
X34210887Y31920879D01*
X34210878Y31920888D01*
X34058542Y32045907D01*
X34058540Y32045908D01*
X34058538Y32045910D01*
X34017618Y32067782D01*
X33884732Y32138812D01*
X33884730Y32138813D01*
X33696129Y32196025D01*
X33696126Y32196026D01*
X33500003Y32215341D01*
X33499997Y32215341D01*
X33303873Y32196026D01*
X33303870Y32196025D01*
X33115269Y32138813D01*
X33115267Y32138812D01*
X32941467Y32045913D01*
X32941457Y32045907D01*
X32789121Y31920888D01*
X32789112Y31920879D01*
X32664093Y31768543D01*
X32664087Y31768533D01*
X32571188Y31594733D01*
X32571186Y31594728D01*
X32544199Y31505762D01*
X32509214Y31455565D01*
X32451406Y31435519D01*
X32449462Y31435500D01*
X32004414Y31435500D01*
X31946223Y31454407D01*
X31934410Y31464496D01*
X29521170Y33877735D01*
X29521170Y33877736D01*
X29457736Y33941170D01*
X29453336Y33942993D01*
X29433458Y33951227D01*
X29433458Y33951228D01*
X29399128Y33965447D01*
X29374855Y33975501D01*
X29285145Y33975501D01*
X29273622Y33975501D01*
X29273614Y33975500D01*
X25929240Y33975500D01*
X25871049Y33994407D01*
X25835085Y34043907D01*
X25831276Y34060220D01*
X25827866Y34083625D01*
X25772826Y34196211D01*
X25684211Y34284826D01*
X25571625Y34339866D01*
X25571626Y34339866D01*
X25553377Y34342525D01*
X25498636Y34350500D01*
X24377364Y34350500D01*
X24333570Y34344120D01*
X24304373Y34339866D01*
X24191790Y34284827D01*
X24103173Y34196210D01*
X24048134Y34083627D01*
X24044725Y34060228D01*
X24037500Y34010636D01*
X24037500Y33489364D01*
X8338500Y33489364D01*
X8338500Y34010636D01*
X8327866Y34083625D01*
X8272826Y34196211D01*
X8184211Y34284826D01*
X8071625Y34339866D01*
X8071626Y34339866D01*
X8053377Y34342525D01*
X7998636Y34350500D01*
X6877364Y34350500D01*
X6833570Y34344120D01*
X6804373Y34339866D01*
X6691790Y34284827D01*
X6603171Y34196208D01*
X6556270Y34100270D01*
X6513727Y34056296D01*
X6453461Y34045727D01*
X6422386Y34055541D01*
X6359662Y34087500D01*
X6359663Y34087500D01*
X6250000Y34104869D01*
X6140338Y34087500D01*
X6041413Y34037095D01*
X5962905Y33958587D01*
X5912500Y33859662D01*
X5912500Y33859661D01*
X5895131Y33750000D01*
X-1000000Y33750000D01*
X-1000000Y33815826D01*
X-1015856Y33875000D01*
X-450001Y33875000D01*
X-450000Y33875001D01*
X-450000Y34619698D01*
X-450001Y34619701D01*
X-461604Y34678037D01*
X-505807Y34744190D01*
X-505811Y34744194D01*
X-571964Y34788397D01*
X-630300Y34800000D01*
X-1374999Y34800000D01*
X-1375000Y34799999D01*
X-1375000Y34234145D01*
X-1434174Y34250000D01*
X-1565826Y34250000D01*
X-1625000Y34234145D01*
X-1625000Y34799999D01*
X-1625001Y34800000D01*
X-2369701Y34800000D01*
X-2428037Y34788397D01*
X-2494190Y34744194D01*
X-2494194Y34744190D01*
X-2538397Y34678037D01*
X-2550000Y34619701D01*
X-2550000Y33875001D01*
X-2549999Y33875000D01*
X-1984144Y33875000D01*
X-2000000Y33815826D01*
X-2000000Y33684174D01*
X-1984144Y33625000D01*
X-2549999Y33625000D01*
X-2550000Y33624999D01*
X-2550000Y32880300D01*
X-3500000Y32880300D01*
X-3500000Y34991547D01*
X6488000Y34991547D01*
X6503760Y34892035D01*
X6503762Y34892031D01*
X6564881Y34772079D01*
X6660078Y34676882D01*
X6780030Y34615763D01*
X6780029Y34615763D01*
X6879545Y34600001D01*
X7312998Y34600001D01*
X7313000Y34600002D01*
X7563000Y34600002D01*
X7563001Y34600001D01*
X7996453Y34600001D01*
X8095965Y34615761D01*
X8095969Y34615763D01*
X8215921Y34676882D01*
X8311118Y34772079D01*
X8372237Y34892031D01*
X8387654Y34989364D01*
X24037500Y34989364D01*
X24048134Y34916375D01*
X24103174Y34803789D01*
X24191789Y34715174D01*
X24304375Y34660134D01*
X24377364Y34649500D01*
X24377367Y34649500D01*
X25498632Y34649500D01*
X25498636Y34649500D01*
X25571625Y34660134D01*
X25684211Y34715174D01*
X25772826Y34803789D01*
X25827866Y34916375D01*
X25831275Y34939775D01*
X25858373Y34994629D01*
X25912540Y35023081D01*
X25929240Y35024500D01*
X30365587Y35024500D01*
X30423778Y35005593D01*
X30435590Y34995505D01*
X31872264Y33558830D01*
X31872265Y33558830D01*
X31872266Y33558829D01*
X31955143Y33524500D01*
X31955145Y33524500D01*
X32044854Y33524500D01*
X32400500Y33524500D01*
X32458691Y33505593D01*
X32494655Y33456093D01*
X32499500Y33425500D01*
X32499500Y32885173D01*
X32508232Y32841280D01*
X32508233Y32841278D01*
X32541496Y32791496D01*
X32591278Y32758233D01*
X32602327Y32756036D01*
X32635172Y32749501D01*
X32635178Y32749501D01*
X32635180Y32749500D01*
X32635181Y32749500D01*
X34364819Y32749500D01*
X34364820Y32749500D01*
X34364821Y32749501D01*
X34364827Y32749501D01*
X34386623Y32753838D01*
X34408722Y32758233D01*
X34458504Y32791496D01*
X34491767Y32841278D01*
X34496162Y32863377D01*
X34500499Y32885173D01*
X34500500Y32885182D01*
X34500500Y34614819D01*
X34500499Y34614828D01*
X34491767Y34658721D01*
X34491765Y34658725D01*
X34458505Y34708502D01*
X34458504Y34708504D01*
X34448522Y34715174D01*
X34408724Y34741766D01*
X34408720Y34741768D01*
X34364827Y34750500D01*
X34364820Y34750500D01*
X32635180Y34750500D01*
X32635172Y34750500D01*
X32591279Y34741768D01*
X32591275Y34741766D01*
X32541498Y34708506D01*
X32541494Y34708502D01*
X32508234Y34658725D01*
X32508232Y34658721D01*
X32499500Y34614828D01*
X32499500Y34074500D01*
X32480593Y34016309D01*
X32431093Y33980345D01*
X32400500Y33975500D01*
X32134414Y33975500D01*
X32076223Y33994407D01*
X32064410Y34004496D01*
X30691170Y35377735D01*
X30691170Y35377736D01*
X30627736Y35441170D01*
X30603460Y35451226D01*
X30603458Y35451227D01*
X30603458Y35451228D01*
X30569128Y35465447D01*
X30544855Y35475501D01*
X30455145Y35475501D01*
X30443622Y35475501D01*
X30443614Y35475500D01*
X25929240Y35475500D01*
X25871049Y35494407D01*
X25835085Y35543907D01*
X25831276Y35560220D01*
X25827866Y35583625D01*
X25772826Y35696211D01*
X25684211Y35784826D01*
X25605881Y35823119D01*
X25571625Y35839866D01*
X25571626Y35839866D01*
X25553377Y35842525D01*
X25498636Y35850500D01*
X24377364Y35850500D01*
X24333570Y35844120D01*
X24304373Y35839866D01*
X24191790Y35784827D01*
X24103173Y35696210D01*
X24048134Y35583627D01*
X24048134Y35583625D01*
X24037500Y35510636D01*
X24037500Y34989364D01*
X8387654Y34989364D01*
X8388000Y34991547D01*
X8388000Y35124999D01*
X8387999Y35125000D01*
X7563001Y35125000D01*
X7563000Y35124999D01*
X7563000Y34600002D01*
X7313000Y34600002D01*
X7313000Y35124999D01*
X7312999Y35125000D01*
X6488002Y35125000D01*
X6488001Y35124999D01*
X6488001Y34991547D01*
X6488000Y34991547D01*
X-3500000Y34991547D01*
X-3500000Y35375001D01*
X6488000Y35375001D01*
X6488001Y35375000D01*
X7312999Y35375000D01*
X7313000Y35375001D01*
X7563000Y35375001D01*
X7563001Y35375000D01*
X8387998Y35375000D01*
X8387999Y35375001D01*
X8387999Y35508454D01*
X8372239Y35607966D01*
X8372237Y35607970D01*
X8311118Y35727922D01*
X8215921Y35823119D01*
X8095969Y35884238D01*
X8095970Y35884238D01*
X7996454Y35900000D01*
X7563001Y35900000D01*
X7563000Y35899999D01*
X7563000Y35375001D01*
X7313000Y35375001D01*
X7313000Y35899999D01*
X7312999Y35900000D01*
X6879547Y35900000D01*
X6879546Y35899999D01*
X6780034Y35884240D01*
X6780030Y35884238D01*
X6660078Y35823119D01*
X6564881Y35727922D01*
X6503762Y35607970D01*
X6488000Y35508454D01*
X6488000Y35375001D01*
X-3500000Y35375001D01*
X-3500000Y38901580D01*
X-1250500Y38901580D01*
X-1219711Y38707179D01*
X-1219709Y38707174D01*
X-1158884Y38519975D01*
X-1069524Y38344595D01*
X-953828Y38185354D01*
X-814646Y38046172D01*
X-655405Y37930476D01*
X-480025Y37841116D01*
X-292826Y37780291D01*
X-292825Y37780291D01*
X-292822Y37780290D01*
X-98420Y37749500D01*
X-98417Y37749500D01*
X98420Y37749500D01*
X292821Y37780290D01*
X292822Y37780291D01*
X292826Y37780291D01*
X480025Y37841116D01*
X655405Y37930476D01*
X814646Y38046172D01*
X953828Y38185354D01*
X1069524Y38344595D01*
X1158884Y38519975D01*
X1219709Y38707174D01*
X1250500Y38901583D01*
X1250500Y39098417D01*
X1250500Y39098421D01*
X1219710Y39292822D01*
X1219709Y39292826D01*
X1158884Y39480025D01*
X1069524Y39655405D01*
X953828Y39814646D01*
X814646Y39953828D01*
X655405Y40069524D01*
X655404Y40069525D01*
X655402Y40069526D01*
X480025Y40158884D01*
X292821Y40219711D01*
X98420Y40250500D01*
X98417Y40250500D01*
X-98417Y40250500D01*
X-98420Y40250500D01*
X-292822Y40219711D01*
X-480026Y40158884D01*
X-655403Y40069526D01*
X-814645Y39953829D01*
X-953829Y39814645D01*
X-1069526Y39655403D01*
X-1158884Y39480026D01*
X-1219711Y39292822D01*
X-1250500Y39098421D01*
X-1250500Y38901580D01*
X-3500000Y38901580D01*
X-3500000Y38999317D01*
X-3499992Y39000612D01*
X-3497662Y39178780D01*
X-3497129Y39187804D01*
X-3459823Y39542749D01*
X-3458206Y39552958D01*
X-3384135Y39901432D01*
X-3381457Y39911422D01*
X-3271374Y40250218D01*
X-3267661Y40259892D01*
X-3122766Y40585336D01*
X-3118074Y40594542D01*
X-2939952Y40903058D01*
X-2934325Y40911724D01*
X-2724912Y41199957D01*
X-2718416Y41207978D01*
X-2480035Y41472727D01*
X-2472727Y41480035D01*
X-2207978Y41718416D01*
X-2199957Y41724912D01*
X-1911724Y41934325D01*
X-1903058Y41939952D01*
X-1594542Y42118074D01*
X-1585336Y42122766D01*
X-1259890Y42267662D01*
X-1250218Y42271374D01*
X-911422Y42381457D01*
X-901432Y42384135D01*
X-552958Y42458206D01*
X-542749Y42459823D01*
X-187804Y42497129D01*
X-178780Y42497662D01*
X-612Y42499993D01*
X683Y42500000D01*
X7098993Y42500000D01*
X7157184Y42481093D01*
G37*
%TD.AperFunction*%
%TD*%
M02*
