%TF.GenerationSoftware,KiCad,Pcbnew,8.0.0*%
%TF.CreationDate,2024-04-21T21:54:23+01:00*%
%TF.ProjectId,Microll,4d696372-6f6c-46c2-9e6b-696361645f70,rev?*%
%TF.SameCoordinates,PX564eba0PY53724e0*%
%TF.FileFunction,Copper,L1,Top*%
%TF.FilePolarity,Positive*%
%FSLAX46Y46*%
G04 Gerber Fmt 4.6, Leading zero omitted, Abs format (unit mm)*
G04 Created by KiCad (PCBNEW 8.0.0) date 2024-04-21 21:54:23*
%MOMM*%
%LPD*%
G01*
G04 APERTURE LIST*
G04 Aperture macros list*
%AMRoundRect*
0 Rectangle with rounded corners*
0 $1 Rounding radius*
0 $2 $3 $4 $5 $6 $7 $8 $9 X,Y pos of 4 corners*
0 Add a 4 corners polygon primitive as box body*
4,1,4,$2,$3,$4,$5,$6,$7,$8,$9,$2,$3,0*
0 Add four circle primitives for the rounded corners*
1,1,$1+$1,$2,$3*
1,1,$1+$1,$4,$5*
1,1,$1+$1,$6,$7*
1,1,$1+$1,$8,$9*
0 Add four rect primitives between the rounded corners*
20,1,$1+$1,$2,$3,$4,$5,0*
20,1,$1+$1,$4,$5,$6,$7,0*
20,1,$1+$1,$6,$7,$8,$9,0*
20,1,$1+$1,$8,$9,$2,$3,0*%
G04 Aperture macros list end*
%TA.AperFunction,SMDPad,CuDef*%
%ADD10RoundRect,0.135000X-0.185000X0.135000X-0.185000X-0.135000X0.185000X-0.135000X0.185000X0.135000X0*%
%TD*%
%TA.AperFunction,SMDPad,CuDef*%
%ADD11RoundRect,0.225000X0.375000X-0.225000X0.375000X0.225000X-0.375000X0.225000X-0.375000X-0.225000X0*%
%TD*%
%TA.AperFunction,ComponentPad*%
%ADD12R,1.700000X1.700000*%
%TD*%
%TA.AperFunction,ComponentPad*%
%ADD13O,1.700000X1.700000*%
%TD*%
%TA.AperFunction,SMDPad,CuDef*%
%ADD14RoundRect,0.225000X-0.525000X-0.225000X0.525000X-0.225000X0.525000X0.225000X-0.525000X0.225000X0*%
%TD*%
%TA.AperFunction,SMDPad,CuDef*%
%ADD15RoundRect,0.175000X-0.175000X-0.175000X0.175000X-0.175000X0.175000X0.175000X-0.175000X0.175000X0*%
%TD*%
%TA.AperFunction,ComponentPad*%
%ADD16C,0.475000*%
%TD*%
%TA.AperFunction,SMDPad,CuDef*%
%ADD17R,3.000000X3.000000*%
%TD*%
%TA.AperFunction,SMDPad,CuDef*%
%ADD18RoundRect,0.225000X0.225000X0.250000X-0.225000X0.250000X-0.225000X-0.250000X0.225000X-0.250000X0*%
%TD*%
%TA.AperFunction,SMDPad,CuDef*%
%ADD19RoundRect,0.135000X-0.135000X-0.185000X0.135000X-0.185000X0.135000X0.185000X-0.135000X0.185000X0*%
%TD*%
%TA.AperFunction,SMDPad,CuDef*%
%ADD20RoundRect,0.140000X0.140000X0.170000X-0.140000X0.170000X-0.140000X-0.170000X0.140000X-0.170000X0*%
%TD*%
%TA.AperFunction,SMDPad,CuDef*%
%ADD21R,2.650000X0.760000*%
%TD*%
%TA.AperFunction,SMDPad,CuDef*%
%ADD22RoundRect,0.135000X0.185000X-0.135000X0.185000X0.135000X-0.185000X0.135000X-0.185000X-0.135000X0*%
%TD*%
%TA.AperFunction,SMDPad,CuDef*%
%ADD23RoundRect,0.140000X-0.140000X-0.170000X0.140000X-0.170000X0.140000X0.170000X-0.140000X0.170000X0*%
%TD*%
%TA.AperFunction,SMDPad,CuDef*%
%ADD24RoundRect,0.140000X0.170000X-0.140000X0.170000X0.140000X-0.170000X0.140000X-0.170000X-0.140000X0*%
%TD*%
%TA.AperFunction,SMDPad,CuDef*%
%ADD25RoundRect,0.140000X-0.170000X0.140000X-0.170000X-0.140000X0.170000X-0.140000X0.170000X0.140000X0*%
%TD*%
%TA.AperFunction,SMDPad,CuDef*%
%ADD26RoundRect,0.150000X0.425000X-0.150000X0.425000X0.150000X-0.425000X0.150000X-0.425000X-0.150000X0*%
%TD*%
%TA.AperFunction,SMDPad,CuDef*%
%ADD27RoundRect,0.075000X0.500000X-0.075000X0.500000X0.075000X-0.500000X0.075000X-0.500000X-0.075000X0*%
%TD*%
%TA.AperFunction,ComponentPad*%
%ADD28O,2.100000X1.000000*%
%TD*%
%TA.AperFunction,ComponentPad*%
%ADD29O,1.800000X1.000000*%
%TD*%
%TA.AperFunction,SMDPad,CuDef*%
%ADD30RoundRect,0.093750X-0.106250X0.093750X-0.106250X-0.093750X0.106250X-0.093750X0.106250X0.093750X0*%
%TD*%
%TA.AperFunction,ComponentPad*%
%ADD31C,0.500000*%
%TD*%
%TA.AperFunction,SMDPad,CuDef*%
%ADD32R,1.600000X1.000000*%
%TD*%
%TA.AperFunction,SMDPad,CuDef*%
%ADD33R,0.500000X0.375000*%
%TD*%
%TA.AperFunction,SMDPad,CuDef*%
%ADD34R,0.650000X0.300000*%
%TD*%
%TA.AperFunction,SMDPad,CuDef*%
%ADD35RoundRect,0.125000X-0.125000X-0.125000X0.125000X-0.125000X0.125000X0.125000X-0.125000X0.125000X0*%
%TD*%
%TA.AperFunction,SMDPad,CuDef*%
%ADD36RoundRect,0.300000X0.450000X-0.300000X0.450000X0.300000X-0.450000X0.300000X-0.450000X-0.300000X0*%
%TD*%
%TA.AperFunction,SMDPad,CuDef*%
%ADD37RoundRect,0.075000X-0.662500X-0.075000X0.662500X-0.075000X0.662500X0.075000X-0.662500X0.075000X0*%
%TD*%
%TA.AperFunction,SMDPad,CuDef*%
%ADD38RoundRect,0.075000X-0.075000X-0.662500X0.075000X-0.662500X0.075000X0.662500X-0.075000X0.662500X0*%
%TD*%
%TA.AperFunction,SMDPad,CuDef*%
%ADD39R,0.500000X0.850000*%
%TD*%
%TA.AperFunction,SMDPad,CuDef*%
%ADD40RoundRect,0.087500X0.087500X-0.225000X0.087500X0.225000X-0.087500X0.225000X-0.087500X-0.225000X0*%
%TD*%
%TA.AperFunction,SMDPad,CuDef*%
%ADD41RoundRect,0.087500X0.225000X-0.087500X0.225000X0.087500X-0.225000X0.087500X-0.225000X-0.087500X0*%
%TD*%
%TA.AperFunction,ViaPad*%
%ADD42C,0.400000*%
%TD*%
%TA.AperFunction,ViaPad*%
%ADD43C,0.800000*%
%TD*%
%TA.AperFunction,Conductor*%
%ADD44C,0.150000*%
%TD*%
%TA.AperFunction,Conductor*%
%ADD45C,0.250000*%
%TD*%
G04 APERTURE END LIST*
D10*
%TO.P,R7,1*%
%TO.N,Net-(J6-CC1)*%
X24779000Y6450000D03*
%TO.P,R7,2*%
%TO.N,GND*%
X24779000Y5430000D03*
%TD*%
D11*
%TO.P,D2,1,K*%
%TO.N,+5V*%
X20498000Y8634000D03*
%TO.P,D2,2,A*%
%TO.N,V_IN*%
X20498000Y11934000D03*
%TD*%
D12*
%TO.P,J1,1,Pin_1*%
%TO.N,+3.3V*%
X-1500000Y33750000D03*
D13*
%TO.P,J1,2,Pin_2*%
%TO.N,GND*%
X-1500000Y31210000D03*
%TO.P,J1,3,Pin_3*%
%TO.N,SDA*%
X-1500000Y28670000D03*
%TO.P,J1,4,Pin_4*%
%TO.N,SCL*%
X-1500000Y26130000D03*
%TO.P,J1,5,Pin_5*%
%TO.N,/GPIO6*%
X-1500000Y23590000D03*
%TO.P,J1,6,Pin_6*%
%TO.N,/GPIO7*%
X-1500000Y21050000D03*
%TO.P,J1,7,Pin_7*%
%TO.N,/GPIO8*%
X-1500000Y18510000D03*
%TO.P,J1,8,Pin_8*%
%TO.N,/GPIO9*%
X-1500000Y15970000D03*
%TO.P,J1,9,Pin_9*%
%TO.N,/PA13*%
X-1500000Y13430000D03*
%TO.P,J1,10,Pin_10*%
%TO.N,/BOOT*%
X-1500000Y10890000D03*
%TO.P,J1,11,Pin_11*%
%TO.N,/PB4*%
X-1500000Y8350000D03*
%TO.P,J1,12,Pin_12*%
%TO.N,/PB5*%
X-1500000Y5810000D03*
%TD*%
D14*
%TO.P,U1,1,3.3V*%
%TO.N,+3.3V*%
X7438000Y35250000D03*
%TO.P,U1,2,EN*%
%TO.N,/EN*%
X7438000Y33750000D03*
%TO.P,U1,3,GPIO4*%
%TO.N,SDA*%
X7438000Y32250000D03*
%TO.P,U1,4,GPIO5*%
%TO.N,SCL*%
X7438000Y30750000D03*
%TO.P,U1,5,GPIO6*%
%TO.N,/GPIO6*%
X7438000Y29250000D03*
%TO.P,U1,6,GPIO7*%
%TO.N,/GPIO7*%
X7438000Y27750000D03*
%TO.P,U1,7,GPIO8*%
%TO.N,/GPIO8*%
X7438000Y26250000D03*
%TO.P,U1,8,GPIO9*%
%TO.N,/GPIO9*%
X7438000Y24750000D03*
%TO.P,U1,9,GND*%
%TO.N,GND*%
X7438000Y23250000D03*
%TO.P,U1,10,GPIO10*%
%TO.N,/Blue*%
X24938000Y23250000D03*
%TO.P,U1,11,RXD*%
%TO.N,/Rx*%
X24938000Y24750000D03*
%TO.P,U1,12,TXD*%
%TO.N,/Tx*%
X24938000Y26250000D03*
%TO.P,U1,13,GPIO18*%
%TO.N,ESP32_USB-*%
X24938000Y27750000D03*
%TO.P,U1,14,GPIO19*%
%TO.N,ESP32_USB+*%
X24938000Y29250000D03*
%TO.P,U1,15,GPIO3*%
%TO.N,/GPIO3*%
X24938000Y30750000D03*
%TO.P,U1,16,GPIO2*%
%TO.N,/GPIO2*%
X24938000Y32250000D03*
%TO.P,U1,17,GPIO1*%
%TO.N,/GPIO1*%
X24938000Y33750000D03*
%TO.P,U1,18,GPIO0*%
%TO.N,/GPIO0*%
X24938000Y35250000D03*
D15*
%TO.P,U1,TP,TP*%
%TO.N,GND*%
X15688000Y30200000D03*
D16*
X15688000Y29650000D03*
D15*
X15688000Y29100000D03*
D16*
X15688000Y28550000D03*
D15*
X15688000Y28000000D03*
D16*
X16238000Y30200000D03*
X16238000Y29100000D03*
X16238000Y28000000D03*
D15*
X16788000Y30200000D03*
D16*
X16788000Y29650000D03*
D15*
X16788000Y29100000D03*
D17*
X16788000Y29100000D03*
D16*
X16788000Y28550000D03*
D15*
X16788000Y28000000D03*
D16*
X17338000Y30200000D03*
X17338000Y29100000D03*
X17338000Y28000000D03*
D15*
X17888000Y30200000D03*
D16*
X17888000Y29650000D03*
D15*
X17888000Y29100000D03*
D16*
X17888000Y28550000D03*
D15*
X17888000Y28000000D03*
%TD*%
D18*
%TO.P,C4,1*%
%TO.N,+3.3V*%
X4490804Y8983000D03*
%TO.P,C4,2*%
%TO.N,GND*%
X2940804Y8983000D03*
%TD*%
D19*
%TO.P,R3,1*%
%TO.N,Net-(D1-BK)*%
X5004000Y13000000D03*
%TO.P,R3,2*%
%TO.N,/Blue*%
X6024000Y13000000D03*
%TD*%
D20*
%TO.P,C1,1*%
%TO.N,+5V*%
X4449804Y4250000D03*
%TO.P,C1,2*%
%TO.N,GND*%
X3489804Y4250000D03*
%TD*%
D12*
%TO.P,J3,1,Pin_1*%
%TO.N,/GPIO0*%
X33500000Y33750000D03*
D13*
%TO.P,J3,2,Pin_2*%
%TO.N,/GPIO1*%
X33500000Y31210000D03*
%TO.P,J3,3,Pin_3*%
%TO.N,/GPIO2*%
X33500000Y28670000D03*
%TO.P,J3,4,Pin_4*%
%TO.N,/GPIO3*%
X33500000Y26130000D03*
%TO.P,J3,5,Pin_5*%
%TO.N,/Tx*%
X33500000Y23590000D03*
%TO.P,J3,6,Pin_6*%
%TO.N,/Rx*%
X33500000Y21050000D03*
%TO.P,J3,7,Pin_7*%
%TO.N,CAN_TX*%
X33500000Y18510000D03*
%TO.P,J3,8,Pin_8*%
%TO.N,CAN_RX*%
X33500000Y15970000D03*
%TD*%
D19*
%TO.P,R2,1*%
%TO.N,Net-(D1-GK)*%
X5004000Y11750000D03*
%TO.P,R2,2*%
%TO.N,/Green*%
X6024000Y11750000D03*
%TD*%
D21*
%TO.P,SW4,1*%
%TO.N,/EN*%
X5875000Y19020000D03*
%TO.P,SW4,2*%
%TO.N,GND*%
X5875000Y17750000D03*
%TO.P,SW4,3*%
%TO.N,/RESET*%
X5875000Y16480000D03*
%TO.P,SW4,4*%
%TO.N,GND*%
X11125000Y16480000D03*
%TO.P,SW4,5*%
%TO.N,/BOOT*%
X11125000Y17750000D03*
%TO.P,SW4,6*%
%TO.N,GND*%
X11125000Y19020000D03*
%TD*%
D22*
%TO.P,R6,1*%
%TO.N,Net-(J6-CC2)*%
X24779000Y10510000D03*
%TO.P,R6,2*%
%TO.N,GND*%
X24779000Y11530000D03*
%TD*%
D23*
%TO.P,C9,1*%
%TO.N,/EN*%
X9858000Y21460000D03*
%TO.P,C9,2*%
%TO.N,GND*%
X10818000Y21460000D03*
%TD*%
D20*
%TO.P,C8,1*%
%TO.N,/RESET*%
X6947804Y5173000D03*
%TO.P,C8,2*%
%TO.N,GND*%
X5987804Y5173000D03*
%TD*%
D19*
%TO.P,R8,1*%
%TO.N,+3.3V*%
X6145000Y21460000D03*
%TO.P,R8,2*%
%TO.N,/EN*%
X7165000Y21460000D03*
%TD*%
D24*
%TO.P,C6,1*%
%TO.N,+3.3V*%
X18470000Y16474000D03*
%TO.P,C6,2*%
%TO.N,GND*%
X18470000Y17434000D03*
%TD*%
D25*
%TO.P,C5,1*%
%TO.N,+3.3V*%
X6975804Y7431000D03*
%TO.P,C5,2*%
%TO.N,GND*%
X6975804Y6471000D03*
%TD*%
%TO.P,C2,1*%
%TO.N,+3.3V*%
X5705804Y7431000D03*
%TO.P,C2,2*%
%TO.N,GND*%
X5705804Y6471000D03*
%TD*%
D20*
%TO.P,C3,1*%
%TO.N,+3.3V*%
X6947804Y8729000D03*
%TO.P,C3,2*%
%TO.N,GND*%
X5987804Y8729000D03*
%TD*%
D12*
%TO.P,J2,1,Pin_1*%
%TO.N,/ADC1_IN0*%
X4600000Y1040000D03*
D13*
%TO.P,J2,2,Pin_2*%
%TO.N,/ADC1_IN1*%
X4600000Y-1500000D03*
%TO.P,J2,3,Pin_3*%
%TO.N,/PA2*%
X7140000Y1040000D03*
%TO.P,J2,4,Pin_4*%
%TO.N,/PA3*%
X7140000Y-1500000D03*
%TO.P,J2,5,Pin_5*%
%TO.N,/DAC1_OUT1*%
X9680000Y1040000D03*
%TO.P,J2,6,Pin_6*%
%TO.N,SPI_SCK*%
X9680000Y-1500000D03*
%TO.P,J2,7,Pin_7*%
%TO.N,SPI_MOSI*%
X12220000Y1040000D03*
%TO.P,J2,8,Pin_8*%
%TO.N,SPI_MISO*%
X12220000Y-1500000D03*
%TO.P,J2,9,Pin_9*%
%TO.N,/PB1*%
X14760000Y1040000D03*
%TO.P,J2,10,Pin_10*%
%TO.N,/PB0*%
X14760000Y-1500000D03*
%TO.P,J2,11,Pin_11*%
%TO.N,/PB14*%
X17300000Y1040000D03*
%TO.P,J2,12,Pin_12*%
%TO.N,/PB13*%
X17300000Y-1500000D03*
%TO.P,J2,13,Pin_13*%
%TO.N,/PA8*%
X19840000Y1040000D03*
%TO.P,J2,14,Pin_14*%
%TO.N,/PB15*%
X19840000Y-1500000D03*
%TO.P,J2,15,Pin_15*%
%TO.N,USART_RX*%
X22380000Y1040000D03*
%TO.P,J2,16,Pin_16*%
%TO.N,USART_TX*%
X22380000Y-1500000D03*
%TO.P,J2,17,Pin_17*%
%TO.N,+5V*%
X24920000Y1040000D03*
%TO.P,J2,18,Pin_18*%
%TO.N,V_IN*%
X24920000Y-1500000D03*
%TO.P,J2,19,Pin_19*%
%TO.N,GND*%
X27460000Y1040000D03*
%TO.P,J2,20,Pin_20*%
X27460000Y-1500000D03*
%TD*%
D26*
%TO.P,J6,A1,GND*%
%TO.N,GND*%
X28040000Y5309500D03*
%TO.P,J6,A4,VBUS*%
%TO.N,V_IN*%
X28040000Y6109500D03*
D27*
%TO.P,J6,A5,CC1*%
%TO.N,Net-(J6-CC1)*%
X28040000Y7259500D03*
%TO.P,J6,A6,D+*%
%TO.N,/D+*%
X28040000Y8259500D03*
%TO.P,J6,A7,D-*%
%TO.N,/D-*%
X28040000Y8759500D03*
%TO.P,J6,A8,SBU1*%
%TO.N,unconnected-(J6-SBU1-PadA8)*%
X28040000Y9759500D03*
D26*
%TO.P,J6,A9,VBUS*%
%TO.N,V_IN*%
X28040000Y10909500D03*
%TO.P,J6,A12,GND*%
%TO.N,GND*%
X28040000Y11709500D03*
%TO.P,J6,B1,GND*%
X28040000Y11709500D03*
%TO.P,J6,B4,VBUS*%
%TO.N,V_IN*%
X28040000Y10909500D03*
D27*
%TO.P,J6,B5,CC2*%
%TO.N,Net-(J6-CC2)*%
X28040000Y10259500D03*
%TO.P,J6,B6,D+*%
%TO.N,/D+*%
X28040000Y9259500D03*
%TO.P,J6,B7,D-*%
%TO.N,/D-*%
X28040000Y7759500D03*
%TO.P,J6,B8,SBU2*%
%TO.N,unconnected-(J6-SBU2-PadB8)*%
X28040000Y6759500D03*
D26*
%TO.P,J6,B9,VBUS*%
%TO.N,V_IN*%
X28040000Y6109500D03*
%TO.P,J6,B12,GND*%
%TO.N,GND*%
X28040000Y5309500D03*
D28*
%TO.P,J6,S1,SHIELD*%
%TO.N,unconnected-(J6-SHIELD-PadS1)*%
X28615000Y4189500D03*
D29*
%TO.N,unconnected-(J6-SHIELD-PadS1)_0*%
X32795000Y4189500D03*
D28*
%TO.N,unconnected-(J6-SHIELD-PadS1)_2*%
X28615000Y12829500D03*
D29*
%TO.N,unconnected-(J6-SHIELD-PadS1)_1*%
X32795000Y12829500D03*
%TD*%
D30*
%TO.P,U2,1,OUT*%
%TO.N,+3.3V*%
X4323804Y7330500D03*
%TO.P,U2,2,SNS*%
X3673804Y7330500D03*
%TO.P,U2,3,GND*%
%TO.N,GND*%
X3023804Y7330500D03*
%TO.P,U2,4,EN*%
%TO.N,+5V*%
X3023804Y5555500D03*
%TO.P,U2,5,GND*%
%TO.N,GND*%
X3673804Y5555500D03*
%TO.P,U2,6,IN*%
%TO.N,+5V*%
X4323804Y5555500D03*
D31*
%TO.P,U2,7,PAD*%
%TO.N,GND*%
X4223804Y6443000D03*
D32*
X3673804Y6443000D03*
D31*
X3123804Y6443000D03*
%TD*%
D33*
%TO.P,U4,1,I/O1*%
%TO.N,/D+*%
X24525000Y7972000D03*
D34*
%TO.P,U4,2,GND*%
%TO.N,GND*%
X24600000Y8509500D03*
D33*
%TO.P,U4,3,I/O2*%
%TO.N,/D-*%
X24525000Y9047000D03*
%TO.P,U4,4,I/O2*%
%TO.N,/USB-*%
X22825000Y9047000D03*
D34*
%TO.P,U4,5,VBUS*%
%TO.N,+5V*%
X22750000Y8509500D03*
D33*
%TO.P,U4,6,I/O1*%
%TO.N,/USB+*%
X22825000Y7972000D03*
%TD*%
D22*
%TO.P,R4,1*%
%TO.N,+3.3V*%
X13644000Y16472000D03*
%TO.P,R4,2*%
%TO.N,SDA*%
X13644000Y17492000D03*
%TD*%
D19*
%TO.P,R1,1*%
%TO.N,Net-(D1-RK)*%
X5004000Y10538000D03*
%TO.P,R1,2*%
%TO.N,/Red*%
X6024000Y10538000D03*
%TD*%
D35*
%TO.P,D3,1,K*%
%TO.N,+5V*%
X20414000Y5712000D03*
%TO.P,D3,2,A*%
%TO.N,GND*%
X22614000Y5712000D03*
%TD*%
D36*
%TO.P,U5,1*%
%TO.N,STM32_USB+*%
X20500000Y15500000D03*
%TO.P,U5,2*%
%TO.N,/USB+*%
X20500000Y18000000D03*
%TO.P,U5,3*%
%TO.N,ESP32_USB+*%
X20500000Y20500000D03*
%TO.P,U5,4*%
%TO.N,STM32_USB-*%
X27000000Y15500000D03*
%TO.P,U5,5*%
%TO.N,/USB-*%
X27000000Y18000000D03*
%TO.P,U5,6*%
%TO.N,ESP32_USB-*%
X27000000Y20500000D03*
%TD*%
D37*
%TO.P,U3,1,PC13*%
%TO.N,/Blue*%
X8969500Y11256000D03*
%TO.P,U3,2,P14-OSC32_IN*%
%TO.N,/Green*%
X8969500Y10756000D03*
%TO.P,U3,3,P15-OSC32_OUT*%
%TO.N,/Red*%
X8969500Y10256000D03*
%TO.P,U3,4,VBAT*%
%TO.N,unconnected-(U3-VBAT-Pad4)*%
X8969500Y9756000D03*
%TO.P,U3,5,VREF+*%
%TO.N,+3.3V*%
X8969500Y9256000D03*
%TO.P,U3,6,VDD/VDDA*%
X8969500Y8756000D03*
%TO.P,U3,7,VSS/VSSA*%
%TO.N,GND*%
X8969500Y8256000D03*
%TO.P,U3,8,PF0-OSC_IN*%
%TO.N,unconnected-(U3-PF0-OSC_IN-Pad8)*%
X8969500Y7756000D03*
%TO.P,U3,9,PF1-OSC_OUT*%
%TO.N,unconnected-(U3-PF1-OSC_OUT-Pad9)*%
X8969500Y7256000D03*
%TO.P,U3,10,PF2-NRST*%
%TO.N,/RESET*%
X8969500Y6756000D03*
%TO.P,U3,11,PA0*%
%TO.N,/ADC1_IN0*%
X8969500Y6256000D03*
%TO.P,U3,12,PA1*%
%TO.N,/ADC1_IN1*%
X8969500Y5756000D03*
D38*
%TO.P,U3,13,PA2*%
%TO.N,/PA2*%
X10382000Y4343500D03*
%TO.P,U3,14,PA3*%
%TO.N,/PA3*%
X10882000Y4343500D03*
%TO.P,U3,15,PA4*%
%TO.N,/DAC1_OUT1*%
X11382000Y4343500D03*
%TO.P,U3,16,PA5*%
%TO.N,SPI_SCK*%
X11882000Y4343500D03*
%TO.P,U3,17,PA6*%
%TO.N,SPI_MISO*%
X12382000Y4343500D03*
%TO.P,U3,18,PA7*%
%TO.N,SPI_MOSI*%
X12882000Y4343500D03*
%TO.P,U3,19,PB0*%
%TO.N,/PB0*%
X13382000Y4343500D03*
%TO.P,U3,20,PB1*%
%TO.N,/PB1*%
X13882000Y4343500D03*
%TO.P,U3,21,PB2*%
%TO.N,unconnected-(U3-PB2-Pad21)*%
X14382000Y4343500D03*
%TO.P,U3,22,PB10*%
%TO.N,unconnected-(U3-PB10-Pad22)*%
X14882000Y4343500D03*
%TO.P,U3,23,PB11*%
%TO.N,unconnected-(U3-PB11-Pad23)*%
X15382000Y4343500D03*
%TO.P,U3,24,PB12*%
%TO.N,unconnected-(U3-PB12-Pad24)*%
X15882000Y4343500D03*
D37*
%TO.P,U3,25,PB13*%
%TO.N,/PB13*%
X17294500Y5756000D03*
%TO.P,U3,26,PB14*%
%TO.N,/PB14*%
X17294500Y6256000D03*
%TO.P,U3,27,PB15*%
%TO.N,/PB15*%
X17294500Y6756000D03*
%TO.P,U3,28,PA8*%
%TO.N,/PA8*%
X17294500Y7256000D03*
%TO.P,U3,29,PA9*%
%TO.N,USART_TX*%
X17294500Y7756000D03*
%TO.P,U3,30,PC6*%
%TO.N,unconnected-(U3-PC6-Pad30)*%
X17294500Y8256000D03*
%TO.P,U3,31,PC7*%
%TO.N,unconnected-(U3-PC7-Pad31)*%
X17294500Y8756000D03*
%TO.P,U3,32,PA10*%
%TO.N,USART_RX*%
X17294500Y9256000D03*
%TO.P,U3,33,PA11*%
%TO.N,STM32_USB-*%
X17294500Y9756000D03*
%TO.P,U3,34,PA12*%
%TO.N,STM32_USB+*%
X17294500Y10256000D03*
%TO.P,U3,35,PA13*%
%TO.N,/PA13*%
X17294500Y10756000D03*
%TO.P,U3,36,PA14-BOOT0*%
%TO.N,/BOOT*%
X17294500Y11256000D03*
D38*
%TO.P,U3,37,PA15*%
%TO.N,unconnected-(U3-PA15-Pad37)*%
X15882000Y12668500D03*
%TO.P,U3,38,PD0*%
%TO.N,CAN_RX*%
X15382000Y12668500D03*
%TO.P,U3,39,PD1*%
%TO.N,CAN_TX*%
X14882000Y12668500D03*
%TO.P,U3,40,PD2*%
%TO.N,unconnected-(U3-PD2-Pad40)*%
X14382000Y12668500D03*
%TO.P,U3,41,PD3*%
%TO.N,unconnected-(U3-PD3-Pad41)*%
X13882000Y12668500D03*
%TO.P,U3,42,PB3*%
%TO.N,unconnected-(U3-PB3-Pad42)*%
X13382000Y12668500D03*
%TO.P,U3,43,PB4*%
%TO.N,/PB4*%
X12882000Y12668500D03*
%TO.P,U3,44,PB5*%
%TO.N,/PB5*%
X12382000Y12668500D03*
%TO.P,U3,45,PB6*%
%TO.N,unconnected-(U3-PB6-Pad45)*%
X11882000Y12668500D03*
%TO.P,U3,46,PB7*%
%TO.N,unconnected-(U3-PB7-Pad46)*%
X11382000Y12668500D03*
%TO.P,U3,47,PB8*%
%TO.N,SCL*%
X10882000Y12668500D03*
%TO.P,U3,48,PB9*%
%TO.N,SDA*%
X10382000Y12668500D03*
%TD*%
D25*
%TO.P,C7,1*%
%TO.N,+3.3V*%
X18470000Y19720000D03*
%TO.P,C7,2*%
%TO.N,GND*%
X18470000Y18760000D03*
%TD*%
D39*
%TO.P,D1,1,A*%
%TO.N,+5V*%
X2868000Y12893000D03*
%TO.P,D1,2,RK*%
%TO.N,Net-(D1-RK)*%
X2868000Y11143000D03*
%TO.P,D1,3,GK*%
%TO.N,Net-(D1-GK)*%
X3868000Y11143000D03*
%TO.P,D1,4,BK*%
%TO.N,Net-(D1-BK)*%
X3868000Y12893000D03*
%TD*%
D40*
%TO.P,U6,1,SDO/SA0*%
%TO.N,+3.3V*%
X15250000Y16837500D03*
%TO.P,U6,2,SDX*%
X15750000Y16837500D03*
%TO.P,U6,3,SCX*%
X16250000Y16837500D03*
%TO.P,U6,4,INT1*%
%TO.N,unconnected-(U6-INT1-Pad4)*%
X16750000Y16837500D03*
D41*
%TO.P,U6,5,VDDIO*%
%TO.N,+3.3V*%
X16912500Y17500000D03*
%TO.P,U6,6,GND*%
%TO.N,GND*%
X16912500Y18000000D03*
%TO.P,U6,7,GND*%
X16912500Y18500000D03*
D40*
%TO.P,U6,8,VDD*%
%TO.N,+3.3V*%
X16750000Y19162500D03*
%TO.P,U6,9,INT2*%
%TO.N,unconnected-(U6-INT2-Pad9)*%
X16250000Y19162500D03*
%TO.P,U6,10,NC*%
%TO.N,unconnected-(U6-NC-Pad10)*%
X15750000Y19162500D03*
%TO.P,U6,11,NC*%
%TO.N,unconnected-(U6-NC-Pad11)*%
X15250000Y19162500D03*
D41*
%TO.P,U6,12,CS*%
%TO.N,+3.3V*%
X15087500Y18500000D03*
%TO.P,U6,13,SCL*%
%TO.N,SCL*%
X15087500Y18000000D03*
%TO.P,U6,14,SDA*%
%TO.N,SDA*%
X15087500Y17500000D03*
%TD*%
D10*
%TO.P,R5,1*%
%TO.N,+3.3V*%
X13644000Y19778000D03*
%TO.P,R5,2*%
%TO.N,SCL*%
X13644000Y18758000D03*
%TD*%
D42*
%TO.N,GND*%
X3500000Y5000000D03*
D43*
X27000000Y5250000D03*
D42*
X25500000Y11500000D03*
D43*
X27000000Y11500000D03*
D42*
X7671000Y6855000D03*
X8500000Y23250000D03*
X10818000Y22067000D03*
X6000000Y9500000D03*
X6000000Y5750000D03*
X23292000Y5712000D03*
X25454500Y5454500D03*
X7671000Y7998000D03*
X25250000Y8500000D03*
X9500000Y16500000D03*
X17500000Y18000000D03*
X17750000Y17250000D03*
X11107397Y19786809D03*
X7500000Y17750000D03*
X17750000Y19000000D03*
X2940804Y8250000D03*
X6250000Y6500000D03*
X17500000Y18500000D03*
%TO.N,+5V*%
X2000000Y12000000D03*
D43*
X2779509Y2375000D03*
X5195460Y4250000D03*
D42*
%TO.N,/D+*%
X27000000Y9250000D03*
X25250000Y7949997D03*
%TO.N,SCL*%
X13540905Y18111999D03*
X12325000Y20000000D03*
X13395958Y15505674D03*
%TO.N,/RESET*%
X1250000Y15925000D03*
X1250000Y4250000D03*
%TO.N,/PB5*%
X9973721Y13744884D03*
X12132495Y13753293D03*
%TO.N,/PB4*%
X12479672Y14179873D03*
X10395777Y14241661D03*
%TO.N,/USB-*%
X23750000Y11500000D03*
X24000000Y17250000D03*
%TO.N,/USB+*%
X23250000Y17250000D03*
X23750000Y10750000D03*
%TO.N,/Blue*%
X11735000Y23250000D03*
X21750000Y23250000D03*
X26250000Y23250000D03*
X8814000Y12951000D03*
X14000000Y23250000D03*
X8814000Y15872000D03*
%TO.N,/BOOT*%
X17286980Y14725000D03*
X10784688Y14630571D03*
X12693227Y14686724D03*
X17294500Y13332000D03*
%TO.N,/EN*%
X6250000Y33750000D03*
X8560000Y21460000D03*
%TO.N,/PA13*%
X13137087Y15011518D03*
X18257000Y13287000D03*
X10897240Y15254281D03*
X17794980Y15146020D03*
%TD*%
D44*
%TO.N,GND*%
X6250000Y6500000D02*
X6221000Y6471000D01*
X16912500Y18500000D02*
X17500000Y18500000D01*
X11107397Y19786809D02*
X11107397Y19037603D01*
D45*
X3673804Y5555500D02*
X3673804Y6443000D01*
X27065000Y11565000D02*
X27000000Y11500000D01*
D44*
X11107397Y19037603D02*
X11125000Y19020000D01*
D45*
X25430000Y5430000D02*
X24779000Y5430000D01*
X24779000Y11530000D02*
X25470000Y11530000D01*
D44*
X10818000Y22067000D02*
X10818000Y21460000D01*
X7438000Y23250000D02*
X8500000Y23250000D01*
X17990000Y18760000D02*
X17750000Y19000000D01*
X18470000Y18760000D02*
X17990000Y18760000D01*
X5987804Y8729000D02*
X5987804Y9487804D01*
X3489804Y4989804D02*
X3489804Y4250000D01*
X5875000Y17750000D02*
X7500000Y17750000D01*
X8969500Y8256000D02*
X7929000Y8256000D01*
X3500000Y5000000D02*
X3489804Y4989804D01*
D45*
X28040000Y11565000D02*
X27065000Y11565000D01*
D44*
X6221000Y6471000D02*
X5705804Y6471000D01*
X7287000Y6471000D02*
X6975804Y6471000D01*
D45*
X25454500Y5454500D02*
X25430000Y5430000D01*
D44*
X18470000Y17434000D02*
X17934000Y17434000D01*
X7671000Y6855000D02*
X7287000Y6471000D01*
D45*
X25470000Y11530000D02*
X25500000Y11500000D01*
X24600000Y8509500D02*
X25240500Y8509500D01*
X25240500Y8509500D02*
X25250000Y8500000D01*
D44*
X5987804Y9487804D02*
X6000000Y9500000D01*
X3023804Y6543000D02*
X3123804Y6443000D01*
X7929000Y8256000D02*
X7671000Y7998000D01*
D45*
X22614000Y5712000D02*
X23292000Y5712000D01*
D44*
X11125000Y16480000D02*
X9520000Y16480000D01*
X2940804Y8250000D02*
X2940804Y8983000D01*
X3023804Y7330500D02*
X3023804Y6543000D01*
X16912500Y18000000D02*
X17500000Y18000000D01*
D45*
X27085000Y5165000D02*
X27000000Y5250000D01*
D44*
X5987804Y5737804D02*
X6000000Y5750000D01*
X5987804Y5173000D02*
X5987804Y5737804D01*
D45*
X28040000Y5165000D02*
X27085000Y5165000D01*
D44*
X9520000Y16480000D02*
X9500000Y16500000D01*
X17934000Y17434000D02*
X17750000Y17250000D01*
D45*
%TO.N,+5V*%
X4250000Y3500000D02*
X3000000Y3500000D01*
X20414000Y8550000D02*
X20414000Y5712000D01*
X2143000Y12893000D02*
X2868000Y12893000D01*
X20414000Y5546000D02*
X24920000Y1040000D01*
X4449804Y4250000D02*
X4449804Y3699804D01*
X4449804Y3699804D02*
X4250000Y3500000D01*
X2750000Y2345491D02*
X2750000Y-2000000D01*
X2750000Y-2000000D02*
X3500000Y-2750000D01*
X2750000Y3750000D02*
X2750000Y5281696D01*
X2750000Y5281696D02*
X3023804Y5555500D01*
X4323804Y5555500D02*
X4323804Y4376000D01*
X23750000Y-130000D02*
X24920000Y1040000D01*
X23500000Y-2750000D02*
X23750000Y-2500000D01*
X20414000Y5712000D02*
X20414000Y5546000D01*
X3500000Y-2750000D02*
X23500000Y-2750000D01*
X5195460Y4250000D02*
X4449804Y4250000D01*
X20498000Y8634000D02*
X20414000Y8550000D01*
X21780500Y8509500D02*
X21656000Y8634000D01*
X2000000Y12750000D02*
X2143000Y12893000D01*
X23750000Y-2500000D02*
X23750000Y-130000D01*
X2779509Y2375000D02*
X2750000Y2345491D01*
X22750000Y8509500D02*
X21780500Y8509500D01*
X4323804Y4376000D02*
X4449804Y4250000D01*
X21656000Y8634000D02*
X20498000Y8634000D01*
X2000000Y12000000D02*
X2000000Y12750000D01*
X3000000Y3500000D02*
X2750000Y3750000D01*
D44*
%TO.N,/D-*%
X27240000Y8534499D02*
X27240000Y7984501D01*
X27465001Y8759500D02*
X27240000Y8534499D01*
X26177501Y9047000D02*
X24525000Y9047000D01*
X27465001Y7759500D02*
X28040000Y7759500D01*
X27240000Y7984501D02*
X27465001Y7759500D01*
X27240000Y7984501D02*
X26177501Y9047000D01*
X28040000Y8759500D02*
X27465001Y8759500D01*
%TO.N,/D+*%
X25250000Y7949997D02*
X24547003Y7949997D01*
X27009500Y9259500D02*
X27000000Y9250000D01*
X28840000Y8484501D02*
X28614999Y8259500D01*
X24547003Y7949997D02*
X24525000Y7972000D01*
X28040000Y9259500D02*
X28541344Y9259500D01*
X28840000Y8960844D02*
X28840000Y8484501D01*
X28614999Y8259500D02*
X28040000Y8259500D01*
X28541344Y9259500D02*
X28840000Y8960844D01*
X28040000Y9259500D02*
X27009500Y9259500D01*
%TO.N,SDA*%
X12327000Y15575000D02*
X12675264Y15575000D01*
X11484158Y14732158D02*
X12327000Y15575000D01*
X10382000Y13626842D02*
X11484158Y14729000D01*
X13005000Y28745000D02*
X13005000Y17495000D01*
X7438000Y32250000D02*
X9500000Y32250000D01*
X9500000Y32250000D02*
X13005000Y28745000D01*
X2080000Y32250000D02*
X-1500000Y28670000D01*
X13005000Y17495000D02*
X13008000Y17492000D01*
X13008000Y17492000D02*
X13644000Y17492000D01*
X15087500Y17500000D02*
X13652000Y17500000D01*
X7438000Y32250000D02*
X2080000Y32250000D01*
X13652000Y17500000D02*
X13644000Y17492000D01*
X12675264Y15575000D02*
X13008000Y15907736D01*
X11484158Y14729000D02*
X11484158Y14732158D01*
X10382000Y12668500D02*
X10382000Y13626842D01*
X13008000Y15907736D02*
X13008000Y17492000D01*
%TO.N,SCL*%
X12535000Y15275000D02*
X10882000Y13622000D01*
X7438000Y30750000D02*
X3120000Y30750000D01*
X13030202Y15505674D02*
X12799528Y15275000D01*
X15087500Y18000000D02*
X14402000Y18000000D01*
X14402000Y18000000D02*
X13644000Y18758000D01*
X13540905Y18654905D02*
X13644000Y18758000D01*
X13540905Y18111999D02*
X13540905Y18654905D01*
X12799528Y15275000D02*
X12535000Y15275000D01*
X3120000Y30750000D02*
X-1500000Y26130000D01*
X10882000Y13622000D02*
X10882000Y12668500D01*
X9500000Y30750000D02*
X7438000Y30750000D01*
X12325000Y20000000D02*
X12325000Y27925000D01*
X12325000Y27925000D02*
X9500000Y30750000D01*
X13395958Y15505674D02*
X13030202Y15505674D01*
%TO.N,+3.3V*%
X7438000Y35250000D02*
X1170000Y35250000D01*
X-330000Y33750000D02*
X-1500000Y33750000D01*
X1170000Y35250000D02*
X-330000Y33750000D01*
%TO.N,/RESET*%
X1250000Y4250000D02*
X2500000Y3000000D01*
X1805000Y16480000D02*
X5875000Y16480000D01*
X8232001Y6756000D02*
X6947804Y5471803D01*
X6947804Y5471803D02*
X6947804Y5173000D01*
X8969500Y6756000D02*
X8232001Y6756000D01*
X2500000Y3000000D02*
X5500000Y3000000D01*
X1250000Y15925000D02*
X1805000Y16480000D01*
X6947804Y4447804D02*
X6947804Y5173000D01*
X5500000Y3000000D02*
X6947804Y4447804D01*
%TO.N,Net-(D1-RK)*%
X5004000Y10538000D02*
X4959000Y10493000D01*
X4959000Y10493000D02*
X3518000Y10493000D01*
X3518000Y10493000D02*
X2868000Y11143000D01*
%TO.N,Net-(D1-GK)*%
X3868000Y11618000D02*
X4000000Y11750000D01*
X4000000Y11750000D02*
X5004000Y11750000D01*
X3868000Y11143000D02*
X3868000Y11618000D01*
%TO.N,Net-(D1-BK)*%
X3975000Y13000000D02*
X3868000Y12893000D01*
X5004000Y13000000D02*
X3975000Y13000000D01*
%TO.N,/GPIO1*%
X24938000Y33750000D02*
X29330000Y33750000D01*
X29330000Y33750000D02*
X31870000Y31210000D01*
X31870000Y31210000D02*
X33500000Y31210000D01*
%TO.N,/GPIO2*%
X31870000Y28670000D02*
X33500000Y28670000D01*
X24938000Y32250000D02*
X28290000Y32250000D01*
X28290000Y32250000D02*
X31870000Y28670000D01*
%TO.N,/GPIO3*%
X31870000Y26130000D02*
X33500000Y26130000D01*
X27250000Y30750000D02*
X31870000Y26130000D01*
X24938000Y30750000D02*
X27250000Y30750000D01*
%TO.N,/Tx*%
X31870000Y23590000D02*
X33500000Y23590000D01*
X24938000Y26250000D02*
X29210000Y26250000D01*
X29210000Y26250000D02*
X31870000Y23590000D01*
%TO.N,/Rx*%
X31870000Y21050000D02*
X33500000Y21050000D01*
X28170000Y24750000D02*
X31870000Y21050000D01*
X24938000Y24750000D02*
X28170000Y24750000D01*
%TO.N,ESP32_USB-*%
X23500000Y27500000D02*
X23500000Y20750000D01*
X23500000Y20750000D02*
X23750000Y20500000D01*
X24938000Y27750000D02*
X23750000Y27750000D01*
X23750000Y27750000D02*
X23500000Y27500000D01*
X23750000Y20500000D02*
X27000000Y20500000D01*
%TO.N,ESP32_USB+*%
X23500000Y29250000D02*
X23000000Y28750000D01*
X23000000Y20750000D02*
X22750000Y20500000D01*
X22750000Y20500000D02*
X20500000Y20500000D01*
X23000000Y28750000D02*
X23000000Y20750000D01*
X24938000Y29250000D02*
X23500000Y29250000D01*
%TO.N,/GPIO7*%
X7438000Y27750000D02*
X5200000Y27750000D01*
X5200000Y27750000D02*
X-1500000Y21050000D01*
%TO.N,/GPIO8*%
X7438000Y26250000D02*
X6240000Y26250000D01*
X6240000Y26250000D02*
X-1500000Y18510000D01*
%TO.N,/GPIO0*%
X24938000Y35250000D02*
X30500000Y35250000D01*
X32000000Y33750000D02*
X33500000Y33750000D01*
X30500000Y35250000D02*
X32000000Y33750000D01*
%TO.N,/PB5*%
X12382000Y13503788D02*
X12382000Y12668500D01*
X250000Y11750000D02*
X250000Y7560000D01*
X2307118Y13807118D02*
X250000Y11750000D01*
X9911487Y13807118D02*
X2307118Y13807118D01*
X12132495Y13753293D02*
X12382000Y13503788D01*
X9973721Y13744884D02*
X9911487Y13807118D01*
X250000Y7560000D02*
X-1500000Y5810000D01*
%TO.N,/Red*%
X8969500Y10256000D02*
X6306000Y10256000D01*
X6306000Y10256000D02*
X6024000Y10538000D01*
%TO.N,/ADC1_IN0*%
X8969500Y6256000D02*
X8232001Y6256000D01*
X7452804Y5476803D02*
X7452804Y3892804D01*
X7452804Y3892804D02*
X4600000Y1040000D01*
X8232001Y6256000D02*
X7452804Y5476803D01*
%TO.N,/ADC1_IN1*%
X5766000Y1394000D02*
X5766000Y-334000D01*
X5766000Y-334000D02*
X4600000Y-1500000D01*
X8969500Y5756000D02*
X8969500Y4597500D01*
X8969500Y4597500D02*
X5766000Y1394000D01*
%TO.N,/PB4*%
X12479672Y14179873D02*
X12882000Y13777545D01*
X12882000Y13777545D02*
X12882000Y12668500D01*
X-250000Y9600000D02*
X-1500000Y8350000D01*
X-250000Y12101041D02*
X-250000Y9600000D01*
X10395777Y14241661D02*
X10330320Y14307118D01*
X1956077Y14307118D02*
X-250000Y12101041D01*
X10330320Y14307118D02*
X1956077Y14307118D01*
%TO.N,/DAC1_OUT1*%
X11382000Y2742000D02*
X9680000Y1040000D01*
X11382000Y4343500D02*
X11382000Y2742000D01*
%TO.N,SPI_SCK*%
X10795200Y-384800D02*
X9680000Y-1500000D01*
X11882000Y2817736D02*
X10795200Y1730936D01*
X11882000Y4343500D02*
X11882000Y2817736D01*
X10795200Y1730936D02*
X10795200Y-384800D01*
%TO.N,SPI_MISO*%
X12382000Y4343500D02*
X12382000Y2828400D01*
X11095200Y1541600D02*
X11095200Y-375200D01*
X12382000Y2828400D02*
X11095200Y1541600D01*
X11095200Y-375200D02*
X12220000Y-1500000D01*
%TO.N,SPI_MOSI*%
X12882000Y1702000D02*
X12220000Y1040000D01*
X12882000Y4343500D02*
X12882000Y1702000D01*
%TO.N,/PA8*%
X18939000Y6348999D02*
X18939000Y1941000D01*
X17294500Y7256000D02*
X18031999Y7256000D01*
X18939000Y1941000D02*
X19840000Y1040000D01*
X18031999Y7256000D02*
X18939000Y6348999D01*
%TO.N,Net-(J6-CC1)*%
X28040000Y7259500D02*
X27009500Y7259500D01*
X27009500Y7259500D02*
X26200000Y6450000D01*
X26200000Y6450000D02*
X24779000Y6450000D01*
%TO.N,/GPIO6*%
X7438000Y29250000D02*
X4160000Y29250000D01*
X4160000Y29250000D02*
X-1500000Y23590000D01*
%TO.N,/PB15*%
X18031999Y6756000D02*
X18639000Y6148999D01*
X18639000Y-299000D02*
X19840000Y-1500000D01*
X18639000Y6148999D02*
X18639000Y-299000D01*
X17294500Y6756000D02*
X18031999Y6756000D01*
%TO.N,/PB14*%
X18339000Y2079000D02*
X17300000Y1040000D01*
X17294500Y6256000D02*
X18031999Y6256000D01*
X18339000Y5948999D02*
X18339000Y2079000D01*
X18031999Y6256000D02*
X18339000Y5948999D01*
%TO.N,/PB13*%
X16225000Y-425000D02*
X17300000Y-1500000D01*
X17294500Y5756000D02*
X17294500Y2554780D01*
X16225000Y1485280D02*
X16225000Y-425000D01*
X17294500Y2554780D02*
X16225000Y1485280D01*
%TO.N,USART_TX*%
X17294500Y7756000D02*
X17958344Y7756000D01*
X21000000Y-120000D02*
X22380000Y-1500000D01*
X21000000Y2250000D02*
X21000000Y-120000D01*
X19239000Y4011000D02*
X21000000Y2250000D01*
X19239000Y6475344D02*
X19239000Y4011000D01*
X17958344Y7756000D02*
X19239000Y6475344D01*
%TO.N,USART_RX*%
X19609000Y7678999D02*
X19609000Y4891000D01*
X17294500Y9256000D02*
X18031999Y9256000D01*
X19609000Y4891000D02*
X22380000Y2120000D01*
X22380000Y2120000D02*
X22380000Y1040000D01*
X18031999Y9256000D02*
X19609000Y7678999D01*
%TO.N,STM32_USB-*%
X17294500Y9756000D02*
X18031999Y9756000D01*
X19750000Y12750000D02*
X23250000Y12750000D01*
X18031999Y9756000D02*
X18974000Y10698001D01*
X24250000Y15500000D02*
X27000000Y15500000D01*
X18974000Y11974000D02*
X19750000Y12750000D01*
X23800000Y15050000D02*
X24250000Y15500000D01*
X18974000Y10698001D02*
X18974000Y11974000D01*
X23250000Y12750000D02*
X23800000Y13300000D01*
X23800000Y13300000D02*
X23800000Y15050000D01*
%TO.N,STM32_USB+*%
X17294500Y10256000D02*
X18031999Y10256000D01*
X18031999Y10256000D02*
X18593000Y10817001D01*
X23125736Y13050000D02*
X23500000Y13424264D01*
X18593000Y10817001D02*
X18593000Y12093000D01*
X18593000Y12093000D02*
X19550000Y13050000D01*
X23000000Y15500000D02*
X20500000Y15500000D01*
X23500000Y15000000D02*
X23000000Y15500000D01*
X19550000Y13050000D02*
X23125736Y13050000D01*
X23500000Y13424264D02*
X23500000Y15000000D01*
%TO.N,CAN_RX*%
X33500000Y15970000D02*
X31870000Y15970000D01*
X19957536Y18950000D02*
X19305000Y18297464D01*
X17674265Y14000000D02*
X15976001Y14000000D01*
X19305000Y16893332D02*
X19305000Y15630735D01*
X19305000Y17014668D02*
X19300000Y17009668D01*
X19300000Y16898332D02*
X19305000Y16893332D01*
X15382000Y13405999D02*
X15382000Y12668500D01*
X19300000Y17009668D02*
X19300000Y16898332D01*
X15976001Y14000000D02*
X15382000Y13405999D01*
X19305000Y18297464D02*
X19305000Y17014668D01*
X31870000Y15970000D02*
X28890000Y18950000D01*
X28890000Y18950000D02*
X19957536Y18950000D01*
X19305000Y15630735D02*
X17674265Y14000000D01*
%TO.N,CAN_TX*%
X19005000Y15754999D02*
X17550001Y14300000D01*
X14882000Y13405999D02*
X14882000Y12668500D01*
X15776001Y14300000D02*
X14882000Y13405999D01*
X19005000Y18505000D02*
X19005000Y17138932D01*
X19000000Y16774068D02*
X19005000Y16769068D01*
X17550001Y14300000D02*
X15776001Y14300000D01*
X32510000Y19500000D02*
X20000000Y19500000D01*
X33500000Y18510000D02*
X32510000Y19500000D01*
X20000000Y19500000D02*
X19005000Y18505000D01*
X19000000Y17133932D02*
X19000000Y16774068D01*
X19005000Y16769068D02*
X19005000Y15754999D01*
X19005000Y17138932D02*
X19000000Y17133932D01*
%TO.N,/USB-*%
X22825000Y9047000D02*
X23297000Y9047000D01*
X23325000Y10573959D02*
X23325000Y11075000D01*
X23325000Y11075000D02*
X23750000Y11500000D01*
X23450000Y10448959D02*
X23325000Y10573959D01*
X24750000Y18000000D02*
X27000000Y18000000D01*
X23450000Y9200000D02*
X23450000Y10448959D01*
X24000000Y17250000D02*
X24750000Y18000000D01*
X23297000Y9047000D02*
X23450000Y9200000D01*
%TO.N,/USB+*%
X22825000Y7972000D02*
X23137500Y7972000D01*
X23250000Y17250000D02*
X22500000Y18000000D01*
X23750000Y8584500D02*
X23750000Y10750000D01*
X23137500Y7972000D02*
X23750000Y8584500D01*
X22500000Y18000000D02*
X20500000Y18000000D01*
%TO.N,/Green*%
X7018000Y10756000D02*
X6024000Y11750000D01*
X8969500Y10756000D02*
X7018000Y10756000D01*
%TO.N,/Blue*%
X10140000Y20190000D02*
X8814000Y18864000D01*
X8814000Y18864000D02*
X8814000Y15872000D01*
X7768000Y11256000D02*
X6024000Y13000000D01*
X11735000Y23250000D02*
X11735000Y20952000D01*
X26250000Y23250000D02*
X24938000Y23250000D01*
X11735000Y20952000D02*
X10973000Y20190000D01*
X8814000Y12951000D02*
X8765000Y13000000D01*
X10973000Y20190000D02*
X10140000Y20190000D01*
X8969500Y11256000D02*
X7768000Y11256000D01*
X8765000Y13000000D02*
X6024000Y13000000D01*
X14000000Y23250000D02*
X21750000Y23250000D01*
%TO.N,/PA2*%
X9477500Y4343500D02*
X7140000Y2006000D01*
X7140000Y2006000D02*
X7140000Y1040000D01*
X10382000Y4343500D02*
X9477500Y4343500D01*
%TO.N,/PA3*%
X10882000Y3081000D02*
X10211000Y2410000D01*
X10211000Y2410000D02*
X9322000Y2410000D01*
X8433000Y-207000D02*
X7140000Y-1500000D01*
X10882000Y4343500D02*
X10882000Y3081000D01*
X8433000Y1521000D02*
X8433000Y-207000D01*
X9322000Y2410000D02*
X8433000Y1521000D01*
%TO.N,/PB1*%
X13882000Y4343500D02*
X13882000Y1918000D01*
X13882000Y1918000D02*
X14760000Y1040000D01*
%TO.N,/PB0*%
X13382000Y4343500D02*
X13382000Y-122000D01*
X13382000Y-122000D02*
X14760000Y-1500000D01*
%TO.N,Net-(J6-CC2)*%
X26240500Y10259500D02*
X25990000Y10510000D01*
X25990000Y10510000D02*
X24779000Y10510000D01*
X28040000Y10259500D02*
X26240500Y10259500D01*
%TO.N,/GPIO9*%
X-1500000Y15972000D02*
X-1500000Y15970000D01*
X6250000Y24750000D02*
X3861000Y22361000D01*
X3861000Y22361000D02*
X3861000Y21333000D01*
X3861000Y21333000D02*
X-1500000Y15972000D01*
X7438000Y24750000D02*
X6250000Y24750000D01*
%TO.N,/BOOT*%
X12119000Y15875000D02*
X12551000Y15875000D01*
X12524000Y17750000D02*
X11125000Y17750000D01*
X12551000Y15875000D02*
X12675000Y15999000D01*
X15526737Y14475000D02*
X15776737Y14725000D01*
X10686259Y14729000D02*
X1953695Y14729000D01*
X17294500Y13332000D02*
X17294500Y11256000D01*
X10973000Y14729000D02*
X12119000Y15875000D01*
X12675000Y15999000D02*
X12675000Y17599000D01*
X12904951Y14475000D02*
X15526737Y14475000D01*
X1953695Y14729000D02*
X-1500000Y11275305D01*
X10784688Y14630571D02*
X10686259Y14729000D01*
X10784688Y14630571D02*
X10883117Y14729000D01*
X-1500000Y11275305D02*
X-1500000Y10890000D01*
X12693227Y14686724D02*
X12904951Y14475000D01*
X15776737Y14725000D02*
X17286980Y14725000D01*
X10883117Y14729000D02*
X10973000Y14729000D01*
X12675000Y17599000D02*
X12524000Y17750000D01*
%TO.N,/EN*%
X8560000Y21460000D02*
X8560000Y20063000D01*
X7517000Y19020000D02*
X5875000Y19020000D01*
X8560000Y21460000D02*
X7165000Y21460000D01*
X8560000Y21460000D02*
X9858000Y21460000D01*
X6250000Y33750000D02*
X7438000Y33750000D01*
X8560000Y20063000D02*
X7517000Y19020000D01*
D45*
%TO.N,V_IN*%
X22434000Y11934000D02*
X20498000Y11934000D01*
X26250000Y5454595D02*
X26250000Y-170000D01*
X26250000Y11295405D02*
X26250000Y12000000D01*
X26780405Y10765000D02*
X26250000Y11295405D01*
X22750000Y12250000D02*
X22434000Y11934000D01*
X28614999Y10909500D02*
X30000000Y9524499D01*
X28040000Y6109500D02*
X26904905Y6109500D01*
X26250000Y12000000D02*
X26000000Y12250000D01*
X30000000Y7500000D02*
X28609500Y6109500D01*
X30000000Y9524499D02*
X30000000Y7500000D01*
X26904905Y6109500D02*
X26250000Y5454595D01*
X28609500Y6109500D02*
X28040000Y6109500D01*
X26250000Y-170000D02*
X24920000Y-1500000D01*
X28040000Y10909500D02*
X28614999Y10909500D01*
X28040000Y10765000D02*
X26780405Y10765000D01*
X26000000Y12250000D02*
X22750000Y12250000D01*
D44*
%TO.N,/PA13*%
X13137087Y15011518D02*
X15446518Y15011518D01*
X15589000Y15154000D02*
X17787000Y15154000D01*
X224000Y15154000D02*
X-1500000Y13430000D01*
X10796959Y15154000D02*
X224000Y15154000D01*
X10897240Y15254281D02*
X10796959Y15154000D01*
X18031999Y10756000D02*
X17294500Y10756000D01*
X17787000Y15154000D02*
X17794980Y15146020D01*
X15446518Y15011518D02*
X15589000Y15154000D01*
X18257000Y13287000D02*
X18257000Y10981001D01*
X18257000Y10981001D02*
X18031999Y10756000D01*
%TD*%
%TA.AperFunction,Conductor*%
%TO.N,+3.3V*%
G36*
X7157184Y42481093D02*
G01*
X7193148Y42431593D01*
X7193148Y42370407D01*
X7188000Y42362007D01*
X7188000Y42350000D01*
X7188000Y36350000D01*
X7188001Y36350000D01*
X25187999Y36350000D01*
X25188000Y36350000D01*
X25188000Y38901580D01*
X30749500Y38901580D01*
X30780289Y38707179D01*
X30780291Y38707174D01*
X30841116Y38519975D01*
X30930476Y38344595D01*
X31046172Y38185354D01*
X31185354Y38046172D01*
X31344595Y37930476D01*
X31519975Y37841116D01*
X31707174Y37780291D01*
X31707175Y37780291D01*
X31707178Y37780290D01*
X31901580Y37749500D01*
X31901583Y37749500D01*
X32098420Y37749500D01*
X32292821Y37780290D01*
X32292822Y37780291D01*
X32292826Y37780291D01*
X32480025Y37841116D01*
X32655405Y37930476D01*
X32814646Y38046172D01*
X32953828Y38185354D01*
X33069524Y38344595D01*
X33158884Y38519975D01*
X33219709Y38707174D01*
X33250500Y38901583D01*
X33250500Y39098417D01*
X33250500Y39098421D01*
X33219710Y39292822D01*
X33219709Y39292826D01*
X33158884Y39480025D01*
X33069524Y39655405D01*
X32953828Y39814646D01*
X32814646Y39953828D01*
X32655405Y40069524D01*
X32655404Y40069525D01*
X32655402Y40069526D01*
X32480025Y40158884D01*
X32292821Y40219711D01*
X32098420Y40250500D01*
X32098417Y40250500D01*
X31901583Y40250500D01*
X31901580Y40250500D01*
X31707178Y40219711D01*
X31519974Y40158884D01*
X31344597Y40069526D01*
X31185355Y39953829D01*
X31046171Y39814645D01*
X30930474Y39655403D01*
X30841116Y39480026D01*
X30780289Y39292822D01*
X30749500Y39098421D01*
X30749500Y38901580D01*
X25188000Y38901580D01*
X25188000Y42350000D01*
X25188000Y42368293D01*
X25179226Y42385513D01*
X25188797Y42445945D01*
X25232062Y42489210D01*
X25277007Y42500000D01*
X31999317Y42500000D01*
X32000611Y42499993D01*
X32178777Y42497662D01*
X32187805Y42497129D01*
X32542745Y42459823D01*
X32552960Y42458205D01*
X32901426Y42384136D01*
X32911421Y42381457D01*
X33250217Y42271374D01*
X33259891Y42267661D01*
X33395823Y42207141D01*
X33585327Y42122769D01*
X33594548Y42118070D01*
X33903048Y41939957D01*
X33911732Y41934319D01*
X34199947Y41724919D01*
X34207986Y41718407D01*
X34472716Y41480044D01*
X34480043Y41472717D01*
X34718401Y41207994D01*
X34724923Y41199941D01*
X34934316Y40911736D01*
X34939959Y40903045D01*
X35118066Y40594555D01*
X35122771Y40585322D01*
X35267660Y40259892D01*
X35271373Y40250218D01*
X35381456Y39911422D01*
X35384139Y39901412D01*
X35458202Y39552971D01*
X35459823Y39542736D01*
X35497127Y39187818D01*
X35497661Y39178765D01*
X35499992Y39000612D01*
X35500000Y38999317D01*
X35500000Y684D01*
X35499992Y-611D01*
X35497661Y-178764D01*
X35497127Y-187817D01*
X35459823Y-542735D01*
X35458202Y-552970D01*
X35384139Y-901411D01*
X35381456Y-911421D01*
X35271373Y-1250217D01*
X35267660Y-1259891D01*
X35122771Y-1585321D01*
X35118066Y-1594554D01*
X34939959Y-1903044D01*
X34934316Y-1911735D01*
X34724923Y-2199940D01*
X34718401Y-2207993D01*
X34480043Y-2472716D01*
X34472716Y-2480043D01*
X34207993Y-2718401D01*
X34199940Y-2724923D01*
X33911735Y-2934316D01*
X33903044Y-2939959D01*
X33594554Y-3118066D01*
X33585321Y-3122771D01*
X33259891Y-3267660D01*
X33250217Y-3271373D01*
X32911421Y-3381456D01*
X32901411Y-3384139D01*
X32552970Y-3458202D01*
X32542735Y-3459823D01*
X32187817Y-3497127D01*
X32178764Y-3497661D01*
X32000612Y-3499992D01*
X31999317Y-3500000D01*
X683Y-3500000D01*
X-612Y-3499992D01*
X-178765Y-3497661D01*
X-187818Y-3497127D01*
X-542736Y-3459823D01*
X-552971Y-3458202D01*
X-901412Y-3384139D01*
X-911422Y-3381456D01*
X-1250218Y-3271373D01*
X-1259892Y-3267660D01*
X-1585322Y-3122771D01*
X-1594555Y-3118066D01*
X-1903045Y-2939959D01*
X-1911736Y-2934316D01*
X-1954330Y-2903369D01*
X-2199945Y-2724919D01*
X-2207989Y-2718405D01*
X-2472717Y-2480043D01*
X-2480044Y-2472716D01*
X-2715796Y-2210887D01*
X-2718407Y-2207986D01*
X-2724919Y-2199947D01*
X-2934319Y-1911732D01*
X-2939960Y-1903044D01*
X-2950532Y-1884732D01*
X-3118070Y-1594548D01*
X-3122772Y-1585321D01*
X-3160758Y-1500003D01*
X-3267661Y-1259891D01*
X-3271374Y-1250217D01*
X-3381457Y-911421D01*
X-3384136Y-901426D01*
X-3458205Y-552960D01*
X-3459823Y-542745D01*
X-3497129Y-187805D01*
X-3497662Y-178777D01*
X-3498713Y-98420D01*
X-1250500Y-98420D01*
X-1219711Y-292821D01*
X-1158884Y-480025D01*
X-1090107Y-615010D01*
X-1069524Y-655405D01*
X-953828Y-814646D01*
X-814646Y-953828D01*
X-655405Y-1069524D01*
X-480025Y-1158884D01*
X-292826Y-1219709D01*
X-292825Y-1219709D01*
X-292822Y-1219710D01*
X-98420Y-1250500D01*
X-98417Y-1250500D01*
X98420Y-1250500D01*
X292821Y-1219710D01*
X292822Y-1219709D01*
X292826Y-1219709D01*
X480025Y-1158884D01*
X655405Y-1069524D01*
X814646Y-953828D01*
X953828Y-814646D01*
X1069524Y-655405D01*
X1158884Y-480025D01*
X1219709Y-292826D01*
X1220292Y-289145D01*
X1250500Y-98420D01*
X1250500Y98421D01*
X1219710Y292822D01*
X1219709Y292826D01*
X1158884Y480025D01*
X1069524Y655405D01*
X953828Y814646D01*
X814646Y953828D01*
X655405Y1069524D01*
X655404Y1069525D01*
X655402Y1069526D01*
X480025Y1158884D01*
X292821Y1219711D01*
X98420Y1250500D01*
X98417Y1250500D01*
X-98417Y1250500D01*
X-98420Y1250500D01*
X-292822Y1219711D01*
X-480026Y1158884D01*
X-655403Y1069526D01*
X-814645Y953829D01*
X-953829Y814645D01*
X-1069526Y655403D01*
X-1158884Y480026D01*
X-1219711Y292822D01*
X-1250500Y98421D01*
X-1250500Y-98420D01*
X-3498713Y-98420D01*
X-3499992Y-611D01*
X-3500000Y684D01*
X-3500000Y5809997D01*
X-2505341Y5809997D01*
X-2486026Y5613874D01*
X-2486025Y5613871D01*
X-2469876Y5560637D01*
X-2430364Y5430381D01*
X-2428813Y5425270D01*
X-2428812Y5425268D01*
X-2376546Y5327487D01*
X-2335910Y5251462D01*
X-2335908Y5251460D01*
X-2335907Y5251458D01*
X-2210888Y5099122D01*
X-2210879Y5099113D01*
X-2073946Y4986735D01*
X-2058538Y4974090D01*
X-1986038Y4935338D01*
X-1887201Y4882508D01*
X-1884727Y4881186D01*
X-1696132Y4823976D01*
X-1696130Y4823976D01*
X-1696127Y4823975D01*
X-1500003Y4804659D01*
X-1500000Y4804659D01*
X-1499997Y4804659D01*
X-1303874Y4823975D01*
X-1303873Y4823976D01*
X-1303868Y4823976D01*
X-1115273Y4881186D01*
X-941462Y4974090D01*
X-789117Y5099117D01*
X-664090Y5251462D01*
X-571186Y5425273D01*
X-513976Y5613868D01*
X-512239Y5631498D01*
X-494659Y5809997D01*
X-494659Y5810004D01*
X-513975Y6006127D01*
X-513976Y6006130D01*
X-513976Y6006132D01*
X-571186Y6194727D01*
X-615013Y6276722D01*
X-625768Y6336950D01*
X-599067Y6392002D01*
X-597755Y6393342D01*
X377734Y7368830D01*
X377736Y7368830D01*
X441170Y7432264D01*
X461564Y7481500D01*
X475501Y7515146D01*
X475501Y7604855D01*
X475501Y7612829D01*
X475500Y7612843D01*
X475500Y8697364D01*
X2340304Y8697364D01*
X2345924Y8658790D01*
X2350938Y8624374D01*
X2392648Y8539055D01*
X2405978Y8511789D01*
X2494593Y8423174D01*
X2539078Y8401427D01*
X2583052Y8358883D01*
X2593621Y8298618D01*
X2593378Y8297000D01*
X2585935Y8250004D01*
X2585935Y8250001D01*
X2585935Y8250000D01*
X2603304Y8140339D01*
X2653709Y8041413D01*
X2732217Y7962905D01*
X2831143Y7912500D01*
X2940804Y7895131D01*
X3050465Y7912500D01*
X3149391Y7962905D01*
X3227899Y8041413D01*
X3278304Y8140339D01*
X3295673Y8250000D01*
X3295672Y8250004D01*
X3288229Y8296998D01*
X3297800Y8357431D01*
X3341064Y8400695D01*
X3342490Y8401408D01*
X3387015Y8423174D01*
X3475630Y8511789D01*
X3530670Y8624375D01*
X3541304Y8697364D01*
X3541304Y8699547D01*
X3840804Y8699547D01*
X3856564Y8600035D01*
X3856566Y8600031D01*
X3917685Y8480079D01*
X4012882Y8384882D01*
X4132834Y8323763D01*
X4132833Y8323763D01*
X4232349Y8308001D01*
X4365804Y8308001D01*
X4365804Y8308002D01*
X4615804Y8308002D01*
X4615805Y8308001D01*
X4749257Y8308001D01*
X4848769Y8323761D01*
X4848773Y8323763D01*
X4968725Y8384882D01*
X5063922Y8480079D01*
X5082037Y8515631D01*
X5557304Y8515631D01*
X5557305Y8515628D01*
X5560121Y8491339D01*
X5579624Y8447170D01*
X5603991Y8391984D01*
X5680788Y8315187D01*
X5780142Y8271318D01*
X5804431Y8268500D01*
X6171176Y8268501D01*
X6195466Y8271318D01*
X6294820Y8315187D01*
X6366384Y8386752D01*
X6420898Y8414528D01*
X6481330Y8404957D01*
X6518962Y8367326D01*
X6520028Y8368071D01*
X6524257Y8362031D01*
X6524595Y8361693D01*
X6524827Y8361217D01*
X6524993Y8360980D01*
X6609782Y8276191D01*
X6718442Y8225522D01*
X6718449Y8225520D01*
X6767965Y8219000D01*
X6822803Y8219000D01*
X6822804Y8219001D01*
X6822804Y8854001D01*
X7072804Y8854001D01*
X7072805Y8854000D01*
X7427803Y8854000D01*
X7427804Y8854001D01*
X7427804Y8938839D01*
X7421284Y8988355D01*
X7421282Y8988362D01*
X7370613Y9097022D01*
X7336635Y9131000D01*
X8036557Y9131000D01*
X8047955Y9073701D01*
X8056441Y9061001D01*
X8073049Y9002113D01*
X8056441Y8950999D01*
X8047955Y8938300D01*
X8036557Y8881000D01*
X8844499Y8881000D01*
X8844500Y8881001D01*
X9094500Y8881001D01*
X9094501Y8881000D01*
X9902443Y8881000D01*
X9891043Y8938302D01*
X9882561Y8950997D01*
X9865951Y9009885D01*
X9882561Y9061003D01*
X9891043Y9073699D01*
X9902443Y9131000D01*
X9094501Y9131000D01*
X9094500Y9130999D01*
X9094500Y8881001D01*
X8844500Y8881001D01*
X8844500Y9130999D01*
X8844499Y9131000D01*
X8036557Y9131000D01*
X7336635Y9131000D01*
X7285825Y9181810D01*
X7177165Y9232479D01*
X7177158Y9232481D01*
X7127643Y9239000D01*
X7072805Y9239000D01*
X7072804Y9238999D01*
X7072804Y8854001D01*
X6822804Y8854001D01*
X6822804Y9238999D01*
X6822803Y9239000D01*
X6767965Y9239000D01*
X6718449Y9232481D01*
X6718442Y9232479D01*
X6609782Y9181810D01*
X6524993Y9097021D01*
X6520028Y9089929D01*
X6518357Y9091099D01*
X6484377Y9054664D01*
X6424315Y9042993D01*
X6368864Y9068854D01*
X6366410Y9071223D01*
X6294820Y9142813D01*
X6294818Y9142814D01*
X6288333Y9149299D01*
X6290669Y9151636D01*
X6263086Y9187458D01*
X6261380Y9248620D01*
X6282887Y9284837D01*
X6282514Y9285108D01*
X6285442Y9289140D01*
X6286351Y9290670D01*
X6287095Y9291413D01*
X6337500Y9390339D01*
X6354869Y9500000D01*
X6337500Y9609661D01*
X6287095Y9708587D01*
X6208587Y9787095D01*
X6109661Y9837500D01*
X6000000Y9854869D01*
X5890338Y9837500D01*
X5791413Y9787095D01*
X5712905Y9708587D01*
X5662500Y9609662D01*
X5649641Y9528472D01*
X5645131Y9500000D01*
X5662500Y9390339D01*
X5712904Y9291414D01*
X5712906Y9291412D01*
X5714761Y9288859D01*
X5715735Y9285860D01*
X5716443Y9284471D01*
X5716223Y9284359D01*
X5733667Y9230668D01*
X5714759Y9172478D01*
X5686960Y9150035D01*
X5688356Y9147997D01*
X5680790Y9142815D01*
X5603991Y9066016D01*
X5560121Y8966660D01*
X5557304Y8942378D01*
X5557304Y8515631D01*
X5082037Y8515631D01*
X5125041Y8600031D01*
X5140804Y8699547D01*
X5140804Y8857999D01*
X5140803Y8858000D01*
X4615805Y8858000D01*
X4615804Y8857999D01*
X4615804Y8308002D01*
X4365804Y8308002D01*
X4365804Y8857999D01*
X4365803Y8858000D01*
X3840806Y8858000D01*
X3840805Y8857999D01*
X3840805Y8699547D01*
X3840804Y8699547D01*
X3541304Y8699547D01*
X3541304Y9108001D01*
X3840804Y9108001D01*
X3840805Y9108000D01*
X4365803Y9108000D01*
X4365804Y9108001D01*
X4615804Y9108001D01*
X4615805Y9108000D01*
X5140802Y9108000D01*
X5140803Y9108001D01*
X5140803Y9266454D01*
X5125043Y9365966D01*
X5125041Y9365970D01*
X5063922Y9485922D01*
X4968725Y9581119D01*
X4848773Y9642238D01*
X4848774Y9642238D01*
X4749258Y9658000D01*
X4615805Y9658000D01*
X4615804Y9657999D01*
X4615804Y9108001D01*
X4365804Y9108001D01*
X4365804Y9657999D01*
X4365803Y9658000D01*
X4232351Y9658000D01*
X4232350Y9657999D01*
X4132838Y9642240D01*
X4132834Y9642238D01*
X4012882Y9581119D01*
X3917685Y9485922D01*
X3856566Y9365970D01*
X3840804Y9266454D01*
X3840804Y9108001D01*
X3541304Y9108001D01*
X3541304Y9268636D01*
X3530670Y9341625D01*
X3475630Y9454211D01*
X3387015Y9542826D01*
X3349837Y9561001D01*
X3274429Y9597866D01*
X3274430Y9597866D01*
X3243679Y9602346D01*
X3201440Y9608500D01*
X2680168Y9608500D01*
X2637929Y9602346D01*
X2607177Y9597866D01*
X2494594Y9542827D01*
X2405977Y9454210D01*
X2350938Y9341627D01*
X2350938Y9341625D01*
X2340304Y9268636D01*
X2340304Y8697364D01*
X475500Y8697364D01*
X475500Y11615587D01*
X494407Y11673778D01*
X504496Y11685591D01*
X1555496Y12736591D01*
X1610013Y12764368D01*
X1670445Y12754797D01*
X1713710Y12711532D01*
X1724500Y12666587D01*
X1724500Y12255111D01*
X1713710Y12210166D01*
X1712905Y12208588D01*
X1712905Y12208587D01*
X1695597Y12174617D01*
X1662500Y12109662D01*
X1660834Y12099140D01*
X1645131Y12000000D01*
X1662500Y11890339D01*
X1712905Y11791413D01*
X1791413Y11712905D01*
X1890339Y11662500D01*
X2000000Y11645131D01*
X2109661Y11662500D01*
X2208587Y11712905D01*
X2287095Y11791413D01*
X2337500Y11890339D01*
X2354869Y12000000D01*
X2337500Y12109661D01*
X2287095Y12208587D01*
X2287094Y12208588D01*
X2286290Y12210166D01*
X2275500Y12255111D01*
X2275500Y12413266D01*
X2294407Y12471457D01*
X2343907Y12507421D01*
X2405093Y12507421D01*
X2454593Y12471457D01*
X2471597Y12432581D01*
X2476232Y12409281D01*
X2476232Y12409279D01*
X2476233Y12409278D01*
X2509496Y12359496D01*
X2559278Y12326233D01*
X2569378Y12324224D01*
X2603172Y12317501D01*
X2603178Y12317501D01*
X2603180Y12317500D01*
X2603181Y12317500D01*
X3132819Y12317500D01*
X3132820Y12317500D01*
X3132821Y12317501D01*
X3132827Y12317501D01*
X3154623Y12321838D01*
X3176722Y12326233D01*
X3226504Y12359496D01*
X3259767Y12409278D01*
X3268500Y12453180D01*
X3268500Y13332820D01*
X3268499Y13332822D01*
X3268499Y13332828D01*
X3259767Y13376721D01*
X3259765Y13376725D01*
X3225761Y13427616D01*
X3209152Y13486505D01*
X3230330Y13543908D01*
X3281203Y13577901D01*
X3308076Y13581618D01*
X3427924Y13581618D01*
X3486115Y13562711D01*
X3522079Y13513211D01*
X3522079Y13452025D01*
X3510239Y13427616D01*
X3476234Y13376725D01*
X3476232Y13376721D01*
X3467500Y13332828D01*
X3467500Y12453173D01*
X3476232Y12409280D01*
X3476233Y12409278D01*
X3509496Y12359496D01*
X3559278Y12326233D01*
X3569378Y12324224D01*
X3603172Y12317501D01*
X3603178Y12317501D01*
X3603180Y12317500D01*
X3603181Y12317500D01*
X4132819Y12317500D01*
X4132820Y12317500D01*
X4132821Y12317501D01*
X4132827Y12317501D01*
X4154623Y12321838D01*
X4176722Y12326233D01*
X4226504Y12359496D01*
X4259767Y12409278D01*
X4268500Y12453180D01*
X4268500Y12675500D01*
X4287407Y12733691D01*
X4336907Y12769655D01*
X4367500Y12774500D01*
X4510282Y12774500D01*
X4568473Y12755593D01*
X4600846Y12715489D01*
X4625342Y12660013D01*
X4629384Y12650859D01*
X4704859Y12575384D01*
X4742350Y12558830D01*
X4802501Y12532270D01*
X4806749Y12531778D01*
X4826377Y12529500D01*
X5181622Y12529501D01*
X5205498Y12532270D01*
X5303141Y12575384D01*
X5378616Y12650859D01*
X5421730Y12748502D01*
X5421730Y12748506D01*
X5423434Y12752364D01*
X5464235Y12797960D01*
X5524044Y12810865D01*
X5580016Y12786151D01*
X5604563Y12752365D01*
X5649382Y12650862D01*
X5649383Y12650861D01*
X5649384Y12650859D01*
X5724859Y12575384D01*
X5762350Y12558830D01*
X5822501Y12532270D01*
X5826749Y12531778D01*
X5846377Y12529500D01*
X6134585Y12529501D01*
X6192775Y12510594D01*
X6204589Y12500505D01*
X6321959Y12383135D01*
X6349736Y12328618D01*
X6340165Y12268186D01*
X6296900Y12224921D01*
X6236468Y12215350D01*
X6225972Y12217602D01*
X6225502Y12217730D01*
X6201626Y12220500D01*
X5846380Y12220500D01*
X5846377Y12220499D01*
X5822499Y12217730D01*
X5724860Y12174617D01*
X5649383Y12099140D01*
X5604564Y11997636D01*
X5563763Y11952041D01*
X5503954Y11939136D01*
X5447982Y11963851D01*
X5423436Y11997636D01*
X5378616Y12099140D01*
X5378616Y12099141D01*
X5303141Y12174616D01*
X5294370Y12178489D01*
X5205498Y12217731D01*
X5181626Y12220500D01*
X4826380Y12220500D01*
X4826377Y12220499D01*
X4802499Y12217730D01*
X4704860Y12174617D01*
X4704859Y12174616D01*
X4629384Y12099141D01*
X4600846Y12034511D01*
X4560047Y11988916D01*
X4510283Y11975500D01*
X3955143Y11975500D01*
X3872264Y11941171D01*
X3808829Y11877737D01*
X3808830Y11877736D01*
X3808829Y11877735D01*
X3740265Y11809171D01*
X3740264Y11809170D01*
X3740263Y11809171D01*
X3678591Y11747497D01*
X3624075Y11719719D01*
X3608587Y11718500D01*
X3603172Y11718500D01*
X3559279Y11709768D01*
X3559275Y11709766D01*
X3509498Y11676506D01*
X3509494Y11676502D01*
X3476234Y11626725D01*
X3476232Y11626721D01*
X3467500Y11582828D01*
X3467500Y11101413D01*
X3448593Y11043222D01*
X3399093Y11007258D01*
X3337907Y11007258D01*
X3298496Y11031409D01*
X3297496Y11032409D01*
X3269719Y11086926D01*
X3268500Y11102413D01*
X3268500Y11582819D01*
X3268499Y11582828D01*
X3259767Y11626721D01*
X3259765Y11626725D01*
X3257033Y11630814D01*
X3226504Y11676504D01*
X3204115Y11691464D01*
X3176724Y11709766D01*
X3176720Y11709768D01*
X3132827Y11718500D01*
X3132820Y11718500D01*
X2603180Y11718500D01*
X2603172Y11718500D01*
X2559279Y11709768D01*
X2559275Y11709766D01*
X2509498Y11676506D01*
X2509494Y11676502D01*
X2476234Y11626725D01*
X2476232Y11626721D01*
X2467500Y11582828D01*
X2467500Y10703173D01*
X2476232Y10659280D01*
X2476234Y10659276D01*
X2497942Y10626788D01*
X2509496Y10609496D01*
X2559278Y10576233D01*
X2570327Y10574036D01*
X2603172Y10567501D01*
X2603178Y10567501D01*
X2603180Y10567500D01*
X3083587Y10567500D01*
X3141778Y10548593D01*
X3153591Y10538504D01*
X3326829Y10365266D01*
X3326830Y10365264D01*
X3390264Y10301830D01*
X3424595Y10287610D01*
X3473146Y10267499D01*
X3473147Y10267499D01*
X3574378Y10267499D01*
X3574386Y10267500D01*
X4530152Y10267500D01*
X4588343Y10248593D01*
X4620716Y10208489D01*
X4629384Y10188859D01*
X4704859Y10113384D01*
X4743066Y10096514D01*
X4802501Y10070270D01*
X4806749Y10069778D01*
X4826377Y10067500D01*
X5181622Y10067501D01*
X5205498Y10070270D01*
X5303141Y10113384D01*
X5378616Y10188859D01*
X5421730Y10286502D01*
X5421730Y10286506D01*
X5423434Y10290364D01*
X5464235Y10335960D01*
X5524044Y10348865D01*
X5580016Y10324151D01*
X5604563Y10290365D01*
X5649382Y10188862D01*
X5649383Y10188861D01*
X5649384Y10188859D01*
X5724859Y10113384D01*
X5763066Y10096514D01*
X5822501Y10070270D01*
X5826749Y10069778D01*
X5846377Y10067500D01*
X6152122Y10067501D01*
X6190007Y10059965D01*
X6261143Y10030500D01*
X6261145Y10030500D01*
X6350854Y10030500D01*
X7996132Y10030500D01*
X8054323Y10011593D01*
X8090287Y9962093D01*
X8093230Y9912187D01*
X8081500Y9853216D01*
X8081500Y9658794D01*
X8081501Y9658784D01*
X8094583Y9593014D01*
X8096051Y9589469D01*
X8100848Y9528472D01*
X8086901Y9496587D01*
X8047955Y9438302D01*
X8036557Y9381000D01*
X9902443Y9381000D01*
X9891044Y9438300D01*
X9852099Y9496584D01*
X9835490Y9555472D01*
X9842952Y9589477D01*
X9844417Y9593015D01*
X9854196Y9642178D01*
X9857500Y9658789D01*
X9857499Y9853210D01*
X9856803Y9856707D01*
X9845769Y9912187D01*
X9844417Y9918986D01*
X9823026Y9950999D01*
X9806418Y10009886D01*
X9823027Y10061002D01*
X9827369Y10067500D01*
X9844417Y10093014D01*
X9857500Y10158789D01*
X9857499Y10353210D01*
X9844417Y10418986D01*
X9823026Y10450999D01*
X9806418Y10509886D01*
X9823027Y10561002D01*
X9827369Y10567500D01*
X9844417Y10593014D01*
X9857500Y10658789D01*
X9857499Y10853210D01*
X9844417Y10918986D01*
X9823026Y10950999D01*
X9806418Y11009886D01*
X9823027Y11061002D01*
X9844417Y11093014D01*
X9857500Y11158789D01*
X9857499Y11353210D01*
X9844417Y11418986D01*
X9794577Y11493577D01*
X9784355Y11500407D01*
X9719986Y11543418D01*
X9654212Y11556500D01*
X8284793Y11556500D01*
X8284783Y11556499D01*
X8219013Y11543417D01*
X8219010Y11543416D01*
X8151318Y11498185D01*
X8096317Y11481500D01*
X7902414Y11481500D01*
X7844223Y11500407D01*
X7832410Y11510496D01*
X7287656Y12055250D01*
X6737408Y12605497D01*
X6709632Y12660013D01*
X6719203Y12720445D01*
X6762468Y12763710D01*
X6807413Y12774500D01*
X8453811Y12774500D01*
X8512002Y12755593D01*
X8523815Y12745504D01*
X8526903Y12742416D01*
X8526905Y12742413D01*
X8605413Y12663905D01*
X8704339Y12613500D01*
X8814000Y12596131D01*
X8923661Y12613500D01*
X9022587Y12663905D01*
X9101095Y12742413D01*
X9151500Y12841339D01*
X9168869Y12951000D01*
X9151500Y13060661D01*
X9101095Y13159587D01*
X9022587Y13238095D01*
X8923661Y13288500D01*
X8814000Y13305869D01*
X8704338Y13288500D01*
X8681217Y13276719D01*
X8605413Y13238095D01*
X8605411Y13238094D01*
X8601872Y13236290D01*
X8556927Y13225500D01*
X6517718Y13225500D01*
X6459527Y13244407D01*
X6427154Y13284511D01*
X6408765Y13326156D01*
X6398616Y13349141D01*
X6335140Y13412617D01*
X6307365Y13467131D01*
X6316936Y13527563D01*
X6360201Y13570828D01*
X6405146Y13581618D01*
X9603255Y13581618D01*
X9661446Y13562711D01*
X9683346Y13540811D01*
X9686622Y13536302D01*
X9686624Y13536300D01*
X9686626Y13536297D01*
X9765134Y13457789D01*
X9864060Y13407384D01*
X9973721Y13390015D01*
X9981513Y13390015D01*
X9981513Y13386647D01*
X10027386Y13379412D01*
X10070680Y13336176D01*
X10081500Y13291172D01*
X10081500Y11983794D01*
X10081501Y11983784D01*
X10094583Y11918015D01*
X10094583Y11918014D01*
X10144423Y11843423D01*
X10156264Y11835511D01*
X10219013Y11793583D01*
X10235344Y11790335D01*
X10284789Y11780500D01*
X10479210Y11780501D01*
X10479214Y11780502D01*
X10479216Y11780502D01*
X10489870Y11782622D01*
X10544986Y11793583D01*
X10576998Y11814974D01*
X10635886Y11831582D01*
X10687001Y11814974D01*
X10719014Y11793583D01*
X10784789Y11780500D01*
X10979210Y11780501D01*
X10979214Y11780502D01*
X10979216Y11780502D01*
X10989870Y11782622D01*
X11044986Y11793583D01*
X11076998Y11814974D01*
X11135886Y11831582D01*
X11187001Y11814974D01*
X11219014Y11793583D01*
X11284789Y11780500D01*
X11479210Y11780501D01*
X11479214Y11780502D01*
X11479216Y11780502D01*
X11489870Y11782622D01*
X11544986Y11793583D01*
X11576998Y11814974D01*
X11635886Y11831582D01*
X11687001Y11814974D01*
X11719014Y11793583D01*
X11784789Y11780500D01*
X11979210Y11780501D01*
X11979214Y11780502D01*
X11979216Y11780502D01*
X11989870Y11782622D01*
X12044986Y11793583D01*
X12076998Y11814974D01*
X12135886Y11831582D01*
X12187001Y11814974D01*
X12219014Y11793583D01*
X12284789Y11780500D01*
X12479210Y11780501D01*
X12479214Y11780502D01*
X12479216Y11780502D01*
X12489870Y11782622D01*
X12544986Y11793583D01*
X12576998Y11814974D01*
X12635886Y11831582D01*
X12687001Y11814974D01*
X12719014Y11793583D01*
X12784789Y11780500D01*
X12979210Y11780501D01*
X12979214Y11780502D01*
X12979216Y11780502D01*
X12989870Y11782622D01*
X13044986Y11793583D01*
X13076998Y11814974D01*
X13135886Y11831582D01*
X13187001Y11814974D01*
X13219014Y11793583D01*
X13284789Y11780500D01*
X13479210Y11780501D01*
X13479214Y11780502D01*
X13479216Y11780502D01*
X13489870Y11782622D01*
X13544986Y11793583D01*
X13576998Y11814974D01*
X13635886Y11831582D01*
X13687001Y11814974D01*
X13719014Y11793583D01*
X13784789Y11780500D01*
X13979210Y11780501D01*
X13979214Y11780502D01*
X13979216Y11780502D01*
X13989870Y11782622D01*
X14044986Y11793583D01*
X14076998Y11814974D01*
X14135886Y11831582D01*
X14187001Y11814974D01*
X14219014Y11793583D01*
X14284789Y11780500D01*
X14479210Y11780501D01*
X14479214Y11780502D01*
X14479216Y11780502D01*
X14489870Y11782622D01*
X14544986Y11793583D01*
X14576998Y11814974D01*
X14635886Y11831582D01*
X14687001Y11814974D01*
X14719014Y11793583D01*
X14784789Y11780500D01*
X14979210Y11780501D01*
X14979214Y11780502D01*
X14979216Y11780502D01*
X14989870Y11782622D01*
X15044986Y11793583D01*
X15076998Y11814974D01*
X15135886Y11831582D01*
X15187001Y11814974D01*
X15219014Y11793583D01*
X15284789Y11780500D01*
X15479210Y11780501D01*
X15479214Y11780502D01*
X15479216Y11780502D01*
X15489870Y11782622D01*
X15544986Y11793583D01*
X15576998Y11814974D01*
X15635886Y11831582D01*
X15687001Y11814974D01*
X15719014Y11793583D01*
X15784789Y11780500D01*
X15979210Y11780501D01*
X15979214Y11780502D01*
X15979216Y11780502D01*
X15989870Y11782622D01*
X16044986Y11793583D01*
X16119577Y11843423D01*
X16169417Y11918014D01*
X16182500Y11983789D01*
X16182499Y13353210D01*
X16169417Y13418986D01*
X16119577Y13493577D01*
X16109237Y13500486D01*
X16044986Y13543418D01*
X16035977Y13547149D01*
X16037546Y13550940D01*
X16000904Y13571445D01*
X15975271Y13627002D01*
X15987189Y13687015D01*
X16003572Y13708668D01*
X16040411Y13745506D01*
X16094927Y13773281D01*
X16110413Y13774500D01*
X17002311Y13774500D01*
X17060502Y13755593D01*
X17096466Y13706093D01*
X17096466Y13644907D01*
X17072316Y13605499D01*
X17038263Y13571445D01*
X17007405Y13540587D01*
X16957000Y13441662D01*
X16942991Y13353211D01*
X16939631Y13332000D01*
X16957000Y13222339D01*
X17007405Y13123413D01*
X17040005Y13090813D01*
X17067781Y13036298D01*
X17069000Y13020811D01*
X17069000Y11655500D01*
X17050093Y11597309D01*
X17000593Y11561345D01*
X16970000Y11556500D01*
X16609793Y11556500D01*
X16609783Y11556499D01*
X16544013Y11543417D01*
X16469425Y11493579D01*
X16469421Y11493575D01*
X16419582Y11418987D01*
X16419582Y11418986D01*
X16406500Y11353216D01*
X16406500Y11158794D01*
X16406501Y11158784D01*
X16419583Y11093014D01*
X16419582Y11093014D01*
X16440973Y11061001D01*
X16457581Y11002113D01*
X16440973Y10950999D01*
X16419582Y10918986D01*
X16406500Y10853216D01*
X16406500Y10658794D01*
X16406501Y10658784D01*
X16419583Y10593014D01*
X16419582Y10593014D01*
X16440973Y10561001D01*
X16457581Y10502113D01*
X16440973Y10450999D01*
X16419582Y10418986D01*
X16406500Y10353216D01*
X16406500Y10158794D01*
X16406501Y10158784D01*
X16419583Y10093014D01*
X16419582Y10093014D01*
X16440973Y10061001D01*
X16457581Y10002113D01*
X16440973Y9950999D01*
X16419582Y9918986D01*
X16406500Y9853216D01*
X16406500Y9658794D01*
X16406501Y9658784D01*
X16419583Y9593014D01*
X16419582Y9593014D01*
X16440973Y9561001D01*
X16457581Y9502113D01*
X16440973Y9450999D01*
X16419582Y9418986D01*
X16406500Y9353216D01*
X16406500Y9158794D01*
X16406501Y9158784D01*
X16419583Y9093014D01*
X16419582Y9093014D01*
X16440973Y9061001D01*
X16457581Y9002113D01*
X16440973Y8950999D01*
X16419582Y8918986D01*
X16406500Y8853216D01*
X16406500Y8658794D01*
X16406501Y8658784D01*
X16419583Y8593014D01*
X16419582Y8593014D01*
X16440973Y8561001D01*
X16457581Y8502113D01*
X16440973Y8450999D01*
X16419582Y8418986D01*
X16406500Y8353216D01*
X16406500Y8158794D01*
X16406501Y8158784D01*
X16419583Y8093014D01*
X16419582Y8093014D01*
X16440973Y8061001D01*
X16457581Y8002113D01*
X16440973Y7950999D01*
X16419582Y7918986D01*
X16406500Y7853216D01*
X16406500Y7658794D01*
X16406501Y7658784D01*
X16419583Y7593014D01*
X16419582Y7593014D01*
X16440973Y7561001D01*
X16457581Y7502113D01*
X16440973Y7450999D01*
X16419582Y7418986D01*
X16406500Y7353216D01*
X16406500Y7158794D01*
X16406501Y7158784D01*
X16419583Y7093014D01*
X16419582Y7093014D01*
X16440973Y7061001D01*
X16457581Y7002113D01*
X16440973Y6950999D01*
X16419582Y6918986D01*
X16406500Y6853216D01*
X16406500Y6658794D01*
X16406501Y6658784D01*
X16419583Y6593014D01*
X16419582Y6593014D01*
X16440973Y6561001D01*
X16457581Y6502113D01*
X16440973Y6450999D01*
X16419582Y6418986D01*
X16406500Y6353216D01*
X16406500Y6158794D01*
X16406501Y6158784D01*
X16419583Y6093014D01*
X16419582Y6093014D01*
X16440973Y6061001D01*
X16457581Y6002113D01*
X16440973Y5950999D01*
X16419582Y5918986D01*
X16406500Y5853216D01*
X16406500Y5658794D01*
X16406501Y5658784D01*
X16415435Y5613868D01*
X16419583Y5593014D01*
X16469423Y5518423D01*
X16487836Y5506120D01*
X16544013Y5468583D01*
X16560344Y5465335D01*
X16609789Y5455500D01*
X16970000Y5455501D01*
X17028191Y5436594D01*
X17064155Y5387094D01*
X17069000Y5356501D01*
X17069000Y2689194D01*
X17050093Y2631003D01*
X17040004Y2619190D01*
X16097265Y1676451D01*
X16097264Y1676450D01*
X16097263Y1676451D01*
X16033830Y1613018D01*
X16033830Y1613015D01*
X15999499Y1530135D01*
X15999499Y1428903D01*
X15999500Y1428894D01*
X15999500Y-372157D01*
X15999499Y-372171D01*
X15999499Y-380145D01*
X15999499Y-469855D01*
X15999500Y-469857D01*
X16013202Y-502935D01*
X16013203Y-502938D01*
X16033828Y-552733D01*
X16033829Y-552734D01*
X16033830Y-552736D01*
X16097264Y-616170D01*
X16097265Y-616170D01*
X16397704Y-916609D01*
X16425481Y-971126D01*
X16415910Y-1031558D01*
X16415011Y-1033280D01*
X16371187Y-1115270D01*
X16313975Y-1303870D01*
X16313974Y-1303873D01*
X16294659Y-1499996D01*
X16294659Y-1500003D01*
X16313974Y-1696126D01*
X16313975Y-1696129D01*
X16371187Y-1884730D01*
X16371188Y-1884732D01*
X16442218Y-2017618D01*
X16464090Y-2058538D01*
X16464092Y-2058540D01*
X16464093Y-2058542D01*
X16589112Y-2210878D01*
X16589121Y-2210887D01*
X16696453Y-2298972D01*
X16729440Y-2350503D01*
X16725838Y-2411583D01*
X16687023Y-2458879D01*
X16633648Y-2474500D01*
X15426352Y-2474500D01*
X15368161Y-2455593D01*
X15332197Y-2406093D01*
X15332197Y-2344907D01*
X15363547Y-2298972D01*
X15470878Y-2210887D01*
X15470877Y-2210887D01*
X15470883Y-2210883D01*
X15595910Y-2058538D01*
X15688814Y-1884727D01*
X15746024Y-1696132D01*
X15756029Y-1594554D01*
X15765341Y-1500003D01*
X15765341Y-1499996D01*
X15746025Y-1303873D01*
X15746024Y-1303870D01*
X15746024Y-1303868D01*
X15688814Y-1115273D01*
X15595910Y-941462D01*
X15595906Y-941457D01*
X15470887Y-789121D01*
X15470878Y-789112D01*
X15318542Y-664093D01*
X15318540Y-664092D01*
X15318538Y-664090D01*
X15234009Y-618908D01*
X15144732Y-571188D01*
X15144730Y-571187D01*
X14956129Y-513975D01*
X14956126Y-513974D01*
X14760003Y-494659D01*
X14759997Y-494659D01*
X14563873Y-513974D01*
X14563870Y-513975D01*
X14375269Y-571187D01*
X14375267Y-571188D01*
X14293282Y-615010D01*
X14233049Y-625766D01*
X14177998Y-599064D01*
X14176610Y-597704D01*
X13636496Y-57590D01*
X13608719Y-3073D01*
X13607500Y12414D01*
X13607500Y725264D01*
X13626407Y783455D01*
X13675907Y819419D01*
X13737093Y819419D01*
X13786593Y783455D01*
X13801236Y754004D01*
X13813955Y712077D01*
X13831186Y655273D01*
X13831188Y655268D01*
X13891810Y541854D01*
X13924090Y481462D01*
X13924092Y481460D01*
X13924093Y481458D01*
X14049112Y329122D01*
X14049121Y329113D01*
X14106508Y282017D01*
X14201462Y204090D01*
X14375273Y111186D01*
X14563868Y53976D01*
X14563870Y53976D01*
X14563873Y53975D01*
X14759997Y34659D01*
X14760000Y34659D01*
X14760003Y34659D01*
X14956126Y53975D01*
X14956127Y53976D01*
X14956132Y53976D01*
X15144727Y111186D01*
X15318538Y204090D01*
X15470883Y329117D01*
X15595910Y481462D01*
X15688814Y655273D01*
X15746024Y843868D01*
X15765341Y1040000D01*
X15765341Y1040004D01*
X15746025Y1236127D01*
X15746024Y1236130D01*
X15746024Y1236132D01*
X15688814Y1424727D01*
X15595910Y1598538D01*
X15554714Y1648735D01*
X15470887Y1750879D01*
X15470878Y1750888D01*
X15318542Y1875907D01*
X15318540Y1875908D01*
X15318538Y1875910D01*
X15245391Y1915008D01*
X15144732Y1968812D01*
X15144730Y1968813D01*
X15144723Y1968815D01*
X14985498Y2017116D01*
X14956129Y2026025D01*
X14956126Y2026026D01*
X14760003Y2045341D01*
X14759997Y2045341D01*
X14563873Y2026026D01*
X14563870Y2026025D01*
X14419977Y1982375D01*
X14375277Y1968815D01*
X14375270Y1968813D01*
X14293280Y1924989D01*
X14233048Y1914234D01*
X14177997Y1940936D01*
X14176609Y1942296D01*
X14136496Y1982409D01*
X14108719Y2036926D01*
X14107500Y2052413D01*
X14107500Y3370133D01*
X14126407Y3428324D01*
X14175907Y3464288D01*
X14225811Y3467231D01*
X14284789Y3455500D01*
X14479210Y3455501D01*
X14479214Y3455502D01*
X14479216Y3455502D01*
X14489870Y3457622D01*
X14544986Y3468583D01*
X14576998Y3489974D01*
X14635886Y3506582D01*
X14687001Y3489974D01*
X14719014Y3468583D01*
X14784789Y3455500D01*
X14979210Y3455501D01*
X14979214Y3455502D01*
X14979216Y3455502D01*
X14989870Y3457622D01*
X15044986Y3468583D01*
X15076998Y3489974D01*
X15135886Y3506582D01*
X15187001Y3489974D01*
X15219014Y3468583D01*
X15284789Y3455500D01*
X15479210Y3455501D01*
X15479214Y3455502D01*
X15479216Y3455502D01*
X15489870Y3457622D01*
X15544986Y3468583D01*
X15576998Y3489974D01*
X15635886Y3506582D01*
X15687001Y3489974D01*
X15719014Y3468583D01*
X15784789Y3455500D01*
X15979210Y3455501D01*
X15979214Y3455502D01*
X15979216Y3455502D01*
X15989870Y3457622D01*
X16044986Y3468583D01*
X16119577Y3518423D01*
X16169417Y3593014D01*
X16182500Y3658789D01*
X16182499Y5028210D01*
X16169417Y5093986D01*
X16119577Y5168577D01*
X16107859Y5176407D01*
X16044986Y5218418D01*
X15979212Y5231500D01*
X15784793Y5231500D01*
X15784783Y5231499D01*
X15719013Y5218417D01*
X15687001Y5197027D01*
X15628113Y5180419D01*
X15576999Y5197027D01*
X15544985Y5218418D01*
X15479212Y5231500D01*
X15284793Y5231500D01*
X15284783Y5231499D01*
X15219013Y5218417D01*
X15187001Y5197027D01*
X15128113Y5180419D01*
X15076999Y5197027D01*
X15044985Y5218418D01*
X14979212Y5231500D01*
X14784793Y5231500D01*
X14784783Y5231499D01*
X14719013Y5218417D01*
X14687001Y5197027D01*
X14628113Y5180419D01*
X14576999Y5197027D01*
X14544985Y5218418D01*
X14479212Y5231500D01*
X14284793Y5231500D01*
X14284783Y5231499D01*
X14219013Y5218417D01*
X14187001Y5197027D01*
X14128113Y5180419D01*
X14076999Y5197027D01*
X14044985Y5218418D01*
X13979212Y5231500D01*
X13784793Y5231500D01*
X13784783Y5231499D01*
X13719013Y5218417D01*
X13687001Y5197027D01*
X13628113Y5180419D01*
X13576999Y5197027D01*
X13544985Y5218418D01*
X13479212Y5231500D01*
X13284793Y5231500D01*
X13284783Y5231499D01*
X13219013Y5218417D01*
X13187001Y5197027D01*
X13128113Y5180419D01*
X13076999Y5197027D01*
X13044985Y5218418D01*
X12979212Y5231500D01*
X12784793Y5231500D01*
X12784783Y5231499D01*
X12719013Y5218417D01*
X12687001Y5197027D01*
X12628113Y5180419D01*
X12576999Y5197027D01*
X12544985Y5218418D01*
X12479212Y5231500D01*
X12284793Y5231500D01*
X12284783Y5231499D01*
X12219013Y5218417D01*
X12187001Y5197027D01*
X12128113Y5180419D01*
X12076999Y5197027D01*
X12044985Y5218418D01*
X11979212Y5231500D01*
X11784793Y5231500D01*
X11784783Y5231499D01*
X11719013Y5218417D01*
X11687001Y5197027D01*
X11628113Y5180419D01*
X11576999Y5197027D01*
X11544985Y5218418D01*
X11479212Y5231500D01*
X11284793Y5231500D01*
X11284783Y5231499D01*
X11219013Y5218417D01*
X11187001Y5197027D01*
X11128113Y5180419D01*
X11076999Y5197027D01*
X11044985Y5218418D01*
X10979212Y5231500D01*
X10784793Y5231500D01*
X10784783Y5231499D01*
X10719013Y5218417D01*
X10687001Y5197027D01*
X10628113Y5180419D01*
X10576999Y5197027D01*
X10544985Y5218418D01*
X10479212Y5231500D01*
X10284793Y5231500D01*
X10284783Y5231499D01*
X10219013Y5218417D01*
X10144425Y5168579D01*
X10144421Y5168575D01*
X10094582Y5093987D01*
X10094582Y5093986D01*
X10081500Y5028216D01*
X10081500Y4668000D01*
X10062593Y4609809D01*
X10013093Y4573845D01*
X9982500Y4569000D01*
X9432643Y4569000D01*
X9349764Y4534671D01*
X9349003Y4534162D01*
X9347539Y4533750D01*
X9340755Y4530939D01*
X9340422Y4531742D01*
X9290115Y4517552D01*
X9232711Y4538728D01*
X9198717Y4589601D01*
X9195000Y4616476D01*
X9195000Y5356501D01*
X9213907Y5414692D01*
X9263407Y5450656D01*
X9294000Y5455501D01*
X9654206Y5455501D01*
X9654210Y5455501D01*
X9654214Y5455502D01*
X9654216Y5455502D01*
X9664870Y5457622D01*
X9719986Y5468583D01*
X9794577Y5518423D01*
X9844417Y5593014D01*
X9857500Y5658789D01*
X9857499Y5853210D01*
X9856215Y5859664D01*
X9850135Y5890237D01*
X9844417Y5918986D01*
X9823026Y5950999D01*
X9806418Y6009886D01*
X9823027Y6061002D01*
X9844417Y6093014D01*
X9857500Y6158789D01*
X9857499Y6353210D01*
X9854451Y6368533D01*
X9851176Y6385000D01*
X9844417Y6418986D01*
X9823026Y6450999D01*
X9806418Y6509886D01*
X9823027Y6561002D01*
X9844417Y6593014D01*
X9857500Y6658789D01*
X9857499Y6853210D01*
X9857180Y6854813D01*
X9848455Y6898682D01*
X9844417Y6918986D01*
X9823026Y6950999D01*
X9806418Y7009886D01*
X9823027Y7061002D01*
X9844417Y7093014D01*
X9857500Y7158789D01*
X9857499Y7353210D01*
X9856803Y7356707D01*
X9850732Y7387235D01*
X9844417Y7418986D01*
X9823026Y7450999D01*
X9806418Y7509886D01*
X9823027Y7561002D01*
X9825366Y7564502D01*
X9844417Y7593014D01*
X9857500Y7658789D01*
X9857499Y7853210D01*
X9856803Y7856707D01*
X9847302Y7904479D01*
X9844417Y7918986D01*
X9823026Y7950999D01*
X9806418Y8009886D01*
X9823027Y8061002D01*
X9825335Y8064456D01*
X9844417Y8093014D01*
X9857500Y8158789D01*
X9857499Y8353210D01*
X9857324Y8354088D01*
X9850828Y8386750D01*
X9844417Y8418986D01*
X9844414Y8418990D01*
X9842949Y8422529D01*
X9838150Y8483525D01*
X9852099Y8515416D01*
X9891044Y8573701D01*
X9902443Y8631000D01*
X8036557Y8631000D01*
X8042760Y8599816D01*
X8035570Y8539055D01*
X7994038Y8494125D01*
X7945663Y8481501D01*
X7884145Y8481501D01*
X7828827Y8458587D01*
X7828826Y8458587D01*
X7801264Y8447171D01*
X7737829Y8383737D01*
X7737830Y8383736D01*
X7735959Y8381865D01*
X7681442Y8354088D01*
X7675983Y8353659D01*
X7561337Y8335500D01*
X7551770Y8330625D01*
X7491338Y8321054D01*
X7436822Y8348832D01*
X7409045Y8403349D01*
X7417103Y8460676D01*
X7421283Y8469640D01*
X7421284Y8469646D01*
X7427804Y8519162D01*
X7427804Y8603999D01*
X7427803Y8604000D01*
X7072805Y8604000D01*
X7072804Y8603999D01*
X7072804Y8219001D01*
X7072805Y8219000D01*
X7127642Y8219000D01*
X7177158Y8225520D01*
X7177161Y8225521D01*
X7200406Y8236360D01*
X7261135Y8243819D01*
X7314650Y8214157D01*
X7340510Y8158705D01*
X7332997Y8116019D01*
X7335908Y8115073D01*
X7333500Y8107663D01*
X7315054Y7991203D01*
X7287276Y7936687D01*
X7232759Y7908910D01*
X7204355Y7908537D01*
X7185641Y7911000D01*
X7100805Y7911000D01*
X7100804Y7910999D01*
X7100804Y7556001D01*
X7100805Y7556000D01*
X7485803Y7556000D01*
X7485804Y7556001D01*
X7485804Y7556550D01*
X7504711Y7614741D01*
X7554211Y7650705D01*
X7600289Y7654331D01*
X7671000Y7643131D01*
X7780661Y7660500D01*
X7879587Y7710905D01*
X7912498Y7743817D01*
X7967012Y7771593D01*
X8027444Y7762022D01*
X8070709Y7718758D01*
X8081500Y7673817D01*
X8081500Y7658797D01*
X8081501Y7658784D01*
X8094583Y7593014D01*
X8094582Y7593014D01*
X8115973Y7561001D01*
X8132581Y7502113D01*
X8115973Y7450999D01*
X8094582Y7418986D01*
X8081500Y7353216D01*
X8081500Y7179189D01*
X8062593Y7120998D01*
X8013093Y7085034D01*
X7951907Y7085034D01*
X7912498Y7109184D01*
X7879587Y7142095D01*
X7780661Y7192500D01*
X7671000Y7209869D01*
X7670999Y7209869D01*
X7600291Y7198670D01*
X7539859Y7208241D01*
X7496594Y7251506D01*
X7485804Y7296451D01*
X7485804Y7305999D01*
X7485803Y7306000D01*
X6465805Y7306000D01*
X6465804Y7305999D01*
X6465804Y7251162D01*
X6472323Y7201646D01*
X6472325Y7201639D01*
X6522994Y7092979D01*
X6607783Y7008190D01*
X6614875Y7003224D01*
X6613703Y7001552D01*
X6650133Y6967587D01*
X6661813Y6907526D01*
X6635960Y6852071D01*
X6633554Y6849579D01*
X6583525Y6799550D01*
X6529008Y6771773D01*
X6468576Y6781344D01*
X6462177Y6785265D01*
X6458588Y6787094D01*
X6458587Y6787095D01*
X6359661Y6837500D01*
X6250000Y6854869D01*
X6249999Y6854869D01*
X6159435Y6840525D01*
X6099003Y6850096D01*
X6055738Y6893361D01*
X6046167Y6953793D01*
X6073944Y7008309D01*
X6158612Y7092977D01*
X6158613Y7092979D01*
X6209282Y7201639D01*
X6209284Y7201646D01*
X6215804Y7251162D01*
X6215804Y7305999D01*
X6215803Y7306000D01*
X5195805Y7306000D01*
X5195804Y7305999D01*
X5195804Y7251162D01*
X5202323Y7201646D01*
X5202325Y7201639D01*
X5252994Y7092979D01*
X5337783Y7008190D01*
X5344875Y7003224D01*
X5343703Y7001552D01*
X5380133Y6967587D01*
X5391813Y6907526D01*
X5365960Y6852071D01*
X5363554Y6849580D01*
X5291992Y6778018D01*
X5291991Y6778017D01*
X5291991Y6778016D01*
X5279241Y6749140D01*
X5248121Y6678660D01*
X5245304Y6654378D01*
X5245304Y6287631D01*
X5245305Y6287628D01*
X5248121Y6263339D01*
X5265271Y6224499D01*
X5291991Y6163984D01*
X5368788Y6087187D01*
X5468142Y6043318D01*
X5492431Y6040500D01*
X5593089Y6040501D01*
X5651278Y6021594D01*
X5687242Y5972095D01*
X5687243Y5910909D01*
X5681299Y5896558D01*
X5662501Y5859664D01*
X5662500Y5859664D01*
X5653648Y5803775D01*
X5645131Y5750000D01*
X5660553Y5652629D01*
X5663719Y5632644D01*
X5661366Y5632272D01*
X5661358Y5582633D01*
X5637213Y5543239D01*
X5603992Y5510018D01*
X5603991Y5510017D01*
X5603991Y5510016D01*
X5598368Y5497281D01*
X5560121Y5410660D01*
X5557304Y5386378D01*
X5557304Y4959631D01*
X5557305Y4959628D01*
X5560121Y4935339D01*
X5590313Y4866962D01*
X5596521Y4806092D01*
X5565765Y4753199D01*
X5509793Y4728485D01*
X5461863Y4735509D01*
X5339169Y4786330D01*
X5339166Y4786331D01*
X5339165Y4786331D01*
X5195460Y4805250D01*
X5051751Y4786331D01*
X5051750Y4786330D01*
X4917838Y4730863D01*
X4917829Y4730858D01*
X4850123Y4678905D01*
X4792447Y4658481D01*
X4749870Y4666882D01*
X4658314Y4707308D01*
X4612720Y4748107D01*
X4599304Y4797871D01*
X4599304Y5245382D01*
X4615989Y5300384D01*
X4634098Y5327485D01*
X4660132Y5366448D01*
X4674304Y5437695D01*
X4674303Y5673304D01*
X4660132Y5744552D01*
X4626293Y5795195D01*
X4609685Y5854080D01*
X4614191Y5874613D01*
X4613669Y5874716D01*
X4624303Y5928173D01*
X4624304Y5928182D01*
X4624304Y6403692D01*
X4625523Y6419180D01*
X4629296Y6443001D01*
X4625523Y6466823D01*
X4624304Y6482310D01*
X4624304Y6957819D01*
X4623827Y6962664D01*
X4626092Y6962888D01*
X4632224Y7014828D01*
X4652141Y7043413D01*
X4676594Y7067866D01*
X4720954Y7168334D01*
X4723803Y7192892D01*
X4723804Y7192894D01*
X4723804Y7205499D01*
X4723803Y7205500D01*
X3647804Y7205500D01*
X3589613Y7224407D01*
X3553649Y7273907D01*
X3548804Y7304500D01*
X3548804Y7455501D01*
X3798804Y7455501D01*
X3798805Y7455500D01*
X4198803Y7455500D01*
X4198804Y7455501D01*
X4448804Y7455501D01*
X4448805Y7455500D01*
X4723803Y7455500D01*
X4723804Y7455501D01*
X4723804Y7468106D01*
X4723803Y7468109D01*
X4720954Y7492667D01*
X4692990Y7556001D01*
X5195804Y7556001D01*
X5195805Y7556000D01*
X5580803Y7556000D01*
X5580804Y7556001D01*
X5830804Y7556001D01*
X5830805Y7556000D01*
X6215803Y7556000D01*
X6215804Y7556001D01*
X6465804Y7556001D01*
X6465805Y7556000D01*
X6850803Y7556000D01*
X6850804Y7556001D01*
X6850804Y7910999D01*
X6850803Y7911000D01*
X6765965Y7911000D01*
X6716449Y7904481D01*
X6716442Y7904479D01*
X6607782Y7853810D01*
X6522994Y7769022D01*
X6472325Y7660362D01*
X6472323Y7660355D01*
X6465804Y7610839D01*
X6465804Y7556001D01*
X6215804Y7556001D01*
X6215804Y7610839D01*
X6209284Y7660355D01*
X6209282Y7660362D01*
X6158613Y7769022D01*
X6073825Y7853810D01*
X5965165Y7904479D01*
X5965158Y7904481D01*
X5915643Y7911000D01*
X5830805Y7911000D01*
X5830804Y7910999D01*
X5830804Y7556001D01*
X5580804Y7556001D01*
X5580804Y7910999D01*
X5580803Y7911000D01*
X5495965Y7911000D01*
X5446449Y7904481D01*
X5446442Y7904479D01*
X5337782Y7853810D01*
X5252994Y7769022D01*
X5202325Y7660362D01*
X5202323Y7660355D01*
X5195804Y7610839D01*
X5195804Y7556001D01*
X4692990Y7556001D01*
X4676594Y7593134D01*
X4598937Y7670791D01*
X4498470Y7715151D01*
X4473912Y7718000D01*
X4448805Y7718000D01*
X4448804Y7717999D01*
X4448804Y7455501D01*
X4198804Y7455501D01*
X4198804Y7717999D01*
X4198803Y7718000D01*
X4173695Y7718000D01*
X4149137Y7715151D01*
X4040278Y7667085D01*
X4038870Y7670274D01*
X3996018Y7657672D01*
X3958549Y7669847D01*
X3957330Y7667085D01*
X3848470Y7715151D01*
X3823912Y7718000D01*
X3798805Y7718000D01*
X3798804Y7717999D01*
X3798804Y7455501D01*
X3548804Y7455501D01*
X3548804Y7717999D01*
X3548803Y7718000D01*
X3523695Y7718000D01*
X3499137Y7715151D01*
X3398668Y7670790D01*
X3376830Y7648952D01*
X3322313Y7621176D01*
X3261881Y7630748D01*
X3251827Y7636641D01*
X3225358Y7654327D01*
X3225357Y7654328D01*
X3225356Y7654328D01*
X3154109Y7668500D01*
X3154108Y7668500D01*
X2893502Y7668500D01*
X2893495Y7668499D01*
X2822252Y7654329D01*
X2822250Y7654328D01*
X2741463Y7600347D01*
X2741457Y7600341D01*
X2687477Y7519556D01*
X2687477Y7519554D01*
X2687476Y7519552D01*
X2680603Y7485000D01*
X2673304Y7448305D01*
X2673304Y7212699D01*
X2673305Y7212691D01*
X2687475Y7141449D01*
X2687476Y7141447D01*
X2721313Y7090808D01*
X2737922Y7031920D01*
X2733418Y7011387D01*
X2733939Y7011283D01*
X2723304Y6957828D01*
X2723304Y6482310D01*
X2722085Y6466823D01*
X2718312Y6443001D01*
X2722085Y6419180D01*
X2723304Y6403692D01*
X2723304Y5928173D01*
X2733939Y5874716D01*
X2731551Y5874242D01*
X2735263Y5827084D01*
X2721313Y5795193D01*
X2687478Y5744556D01*
X2687477Y5744554D01*
X2687476Y5744552D01*
X2682371Y5718886D01*
X2673304Y5673306D01*
X2673304Y5635623D01*
X2654397Y5577432D01*
X2644311Y5565624D01*
X2593942Y5515253D01*
X2593941Y5515254D01*
X2516446Y5437758D01*
X2516444Y5437756D01*
X2516443Y5437754D01*
X2474500Y5336496D01*
X2474500Y3695200D01*
X2516443Y3593942D01*
X2516446Y3593939D01*
X2715881Y3394503D01*
X2743658Y3339987D01*
X2734087Y3279555D01*
X2690822Y3236290D01*
X2645877Y3225500D01*
X2634413Y3225500D01*
X2576222Y3244407D01*
X2564409Y3254496D01*
X1633865Y4185040D01*
X1606088Y4239557D01*
X1605658Y4245018D01*
X1604303Y4253570D01*
X1587500Y4359661D01*
X1537095Y4458587D01*
X1458587Y4537095D01*
X1359661Y4587500D01*
X1250000Y4604869D01*
X1140338Y4587500D01*
X1041413Y4537095D01*
X962905Y4458587D01*
X912500Y4359662D01*
X912500Y4359661D01*
X895131Y4250000D01*
X912500Y4140339D01*
X962905Y4041413D01*
X1041413Y3962905D01*
X1139389Y3912984D01*
X1140339Y3912500D01*
X1257696Y3893912D01*
X1257256Y3891135D01*
X1303147Y3876224D01*
X1314960Y3866135D01*
X2308829Y2872266D01*
X2308830Y2872264D01*
X2337040Y2844054D01*
X2364816Y2789539D01*
X2355245Y2729107D01*
X2345577Y2713785D01*
X2298651Y2652630D01*
X2298646Y2652622D01*
X2243179Y2518710D01*
X2243178Y2518709D01*
X2224259Y2375001D01*
X2224259Y2375000D01*
X2243178Y2231292D01*
X2243179Y2231291D01*
X2289397Y2119708D01*
X2298648Y2097375D01*
X2386888Y1982379D01*
X2386892Y1982376D01*
X2386893Y1982375D01*
X2435767Y1944873D01*
X2470423Y1894449D01*
X2474500Y1866331D01*
X2474500Y-2054800D01*
X2476050Y-2058542D01*
X2503786Y-2125501D01*
X2503786Y-2125502D01*
X2516441Y-2156055D01*
X2516442Y-2156056D01*
X2516443Y-2156058D01*
X3343941Y-2983557D01*
X3373595Y-2995839D01*
X3373597Y-2995841D01*
X3373598Y-2995841D01*
X3409399Y-3010670D01*
X3445200Y-3025500D01*
X3445201Y-3025500D01*
X23554799Y-3025500D01*
X23554800Y-3025500D01*
X23656058Y-2983557D01*
X23733557Y-2906058D01*
X23733556Y-2906058D01*
X23983557Y-2656059D01*
X23995841Y-2626400D01*
X24025500Y-2554800D01*
X24025500Y-2263832D01*
X24044407Y-2205641D01*
X24093907Y-2169677D01*
X24155093Y-2169677D01*
X24201029Y-2201028D01*
X24209114Y-2210880D01*
X24209121Y-2210887D01*
X24273635Y-2263832D01*
X24361462Y-2335910D01*
X24535273Y-2428814D01*
X24723868Y-2486024D01*
X24723870Y-2486024D01*
X24723873Y-2486025D01*
X24919997Y-2505341D01*
X24920000Y-2505341D01*
X24920003Y-2505341D01*
X25116126Y-2486025D01*
X25116127Y-2486024D01*
X25116132Y-2486024D01*
X25304727Y-2428814D01*
X25478538Y-2335910D01*
X25630883Y-2210883D01*
X25755910Y-2058538D01*
X25848814Y-1884727D01*
X25906024Y-1696132D01*
X25916029Y-1594554D01*
X25925341Y-1500003D01*
X26454659Y-1500003D01*
X26473974Y-1696126D01*
X26473975Y-1696129D01*
X26531187Y-1884730D01*
X26531188Y-1884732D01*
X26602218Y-2017618D01*
X26624090Y-2058538D01*
X26624092Y-2058540D01*
X26624093Y-2058542D01*
X26749112Y-2210878D01*
X26749121Y-2210887D01*
X26813635Y-2263832D01*
X26901462Y-2335910D01*
X27075273Y-2428814D01*
X27263868Y-2486024D01*
X27263870Y-2486024D01*
X27263873Y-2486025D01*
X27459997Y-2505341D01*
X27460000Y-2505341D01*
X27460003Y-2505341D01*
X27656126Y-2486025D01*
X27656127Y-2486024D01*
X27656132Y-2486024D01*
X27844727Y-2428814D01*
X28018538Y-2335910D01*
X28170883Y-2210883D01*
X28295910Y-2058538D01*
X28388814Y-1884727D01*
X28446024Y-1696132D01*
X28456029Y-1594554D01*
X28465341Y-1500003D01*
X28465341Y-1499996D01*
X28446025Y-1303873D01*
X28446024Y-1303870D01*
X28446024Y-1303868D01*
X28388814Y-1115273D01*
X28295910Y-941462D01*
X28295906Y-941457D01*
X28170887Y-789121D01*
X28170878Y-789112D01*
X28018542Y-664093D01*
X28018540Y-664092D01*
X28018538Y-664090D01*
X27934009Y-618908D01*
X27844732Y-571188D01*
X27844730Y-571187D01*
X27656129Y-513975D01*
X27656126Y-513974D01*
X27460003Y-494659D01*
X27459997Y-494659D01*
X27263873Y-513974D01*
X27263870Y-513975D01*
X27075269Y-571187D01*
X27075267Y-571188D01*
X26901467Y-664087D01*
X26901457Y-664093D01*
X26749121Y-789112D01*
X26749112Y-789121D01*
X26624093Y-941457D01*
X26624087Y-941467D01*
X26531188Y-1115267D01*
X26531187Y-1115269D01*
X26473975Y-1303870D01*
X26473974Y-1303873D01*
X26454659Y-1499996D01*
X26454659Y-1500003D01*
X25925341Y-1500003D01*
X25925341Y-1499996D01*
X25906025Y-1303873D01*
X25906024Y-1303870D01*
X25906024Y-1303868D01*
X25848814Y-1115273D01*
X25829618Y-1079360D01*
X25818861Y-1019131D01*
X25845562Y-964079D01*
X25846871Y-962742D01*
X26483557Y-326058D01*
X26489724Y-311170D01*
X26525500Y-224800D01*
X26525500Y-98420D01*
X30749500Y-98420D01*
X30780289Y-292821D01*
X30841116Y-480025D01*
X30909893Y-615010D01*
X30930476Y-655405D01*
X31046172Y-814646D01*
X31185354Y-953828D01*
X31344595Y-1069524D01*
X31519975Y-1158884D01*
X31707174Y-1219709D01*
X31707175Y-1219709D01*
X31707178Y-1219710D01*
X31901580Y-1250500D01*
X31901583Y-1250500D01*
X32098420Y-1250500D01*
X32292821Y-1219710D01*
X32292822Y-1219709D01*
X32292826Y-1219709D01*
X32480025Y-1158884D01*
X32655405Y-1069524D01*
X32814646Y-953828D01*
X32953828Y-814646D01*
X33069524Y-655405D01*
X33158884Y-480025D01*
X33219709Y-292826D01*
X33220292Y-289145D01*
X33250500Y-98420D01*
X33250500Y98421D01*
X33219710Y292822D01*
X33219709Y292826D01*
X33158884Y480025D01*
X33069524Y655405D01*
X32953828Y814646D01*
X32814646Y953828D01*
X32655405Y1069524D01*
X32655404Y1069525D01*
X32655402Y1069526D01*
X32480025Y1158884D01*
X32292821Y1219711D01*
X32098420Y1250500D01*
X32098417Y1250500D01*
X31901583Y1250500D01*
X31901580Y1250500D01*
X31707178Y1219711D01*
X31519974Y1158884D01*
X31344597Y1069526D01*
X31185355Y953829D01*
X31046171Y814645D01*
X30930474Y655403D01*
X30841116Y480026D01*
X30780289Y292822D01*
X30749500Y98421D01*
X30749500Y-98420D01*
X26525500Y-98420D01*
X26525500Y324908D01*
X26544407Y383099D01*
X26593907Y419063D01*
X26655093Y419063D01*
X26701028Y387713D01*
X26749112Y329122D01*
X26749121Y329113D01*
X26806508Y282017D01*
X26901462Y204090D01*
X27075273Y111186D01*
X27263868Y53976D01*
X27263870Y53976D01*
X27263873Y53975D01*
X27459997Y34659D01*
X27460000Y34659D01*
X27460003Y34659D01*
X27656126Y53975D01*
X27656127Y53976D01*
X27656132Y53976D01*
X27844727Y111186D01*
X28018538Y204090D01*
X28170883Y329117D01*
X28295910Y481462D01*
X28388814Y655273D01*
X28446024Y843868D01*
X28465341Y1040000D01*
X28465341Y1040004D01*
X28446025Y1236127D01*
X28446024Y1236130D01*
X28446024Y1236132D01*
X28388814Y1424727D01*
X28295910Y1598538D01*
X28254714Y1648735D01*
X28170887Y1750879D01*
X28170878Y1750888D01*
X28018542Y1875907D01*
X28018540Y1875908D01*
X28018538Y1875910D01*
X27945391Y1915008D01*
X27844732Y1968812D01*
X27844730Y1968813D01*
X27844723Y1968815D01*
X27685498Y2017116D01*
X27656129Y2026025D01*
X27656126Y2026026D01*
X27460003Y2045341D01*
X27459997Y2045341D01*
X27263873Y2026026D01*
X27263870Y2026025D01*
X27075269Y1968813D01*
X27075267Y1968812D01*
X26901467Y1875913D01*
X26901457Y1875907D01*
X26749121Y1750888D01*
X26749112Y1750879D01*
X26701028Y1692288D01*
X26649496Y1659301D01*
X26588417Y1662903D01*
X26541120Y1701719D01*
X26525500Y1755093D01*
X26525500Y4719455D01*
X26544407Y4777646D01*
X26593907Y4813610D01*
X26655093Y4813610D01*
X26684768Y4797996D01*
X26722369Y4769143D01*
X26722371Y4769142D01*
X26722375Y4769139D01*
X26856291Y4713670D01*
X27000000Y4694750D01*
X27143709Y4713670D01*
X27277625Y4769139D01*
X27364741Y4835986D01*
X27392615Y4857374D01*
X27392616Y4857376D01*
X27392621Y4857379D01*
X27392624Y4857384D01*
X27394479Y4859238D01*
X27396164Y4860098D01*
X27397770Y4861329D01*
X27397998Y4861032D01*
X27448991Y4887024D01*
X27504480Y4879810D01*
X27519357Y4873242D01*
X27545009Y4861915D01*
X27570135Y4859000D01*
X27575538Y4859001D01*
X27633728Y4840101D01*
X27669698Y4790605D01*
X27669705Y4729420D01*
X27645551Y4689998D01*
X27559732Y4604179D01*
X27559724Y4604169D01*
X27488538Y4497634D01*
X27488534Y4497626D01*
X27439500Y4379248D01*
X27439499Y4379243D01*
X27415110Y4256634D01*
X27414500Y4253569D01*
X27414500Y4125431D01*
X27436996Y4012338D01*
X27439499Y3999758D01*
X27439500Y3999753D01*
X27488534Y3881375D01*
X27488538Y3881367D01*
X27510868Y3847949D01*
X27559724Y3774831D01*
X27650331Y3684224D01*
X27713848Y3641783D01*
X27756866Y3613039D01*
X27756870Y3613037D01*
X27756873Y3613035D01*
X27875256Y3563999D01*
X28000931Y3539000D01*
X28000932Y3539000D01*
X29229068Y3539000D01*
X29229069Y3539000D01*
X29354744Y3563999D01*
X29473127Y3613035D01*
X29579669Y3684224D01*
X29670276Y3774831D01*
X29741465Y3881373D01*
X29790501Y3999756D01*
X29815500Y4125431D01*
X31744500Y4125431D01*
X31766996Y4012338D01*
X31769499Y3999758D01*
X31769500Y3999753D01*
X31818534Y3881375D01*
X31818538Y3881367D01*
X31840868Y3847949D01*
X31889724Y3774831D01*
X31980331Y3684224D01*
X32043848Y3641783D01*
X32086866Y3613039D01*
X32086870Y3613037D01*
X32086873Y3613035D01*
X32205256Y3563999D01*
X32330931Y3539000D01*
X32330932Y3539000D01*
X33259068Y3539000D01*
X33259069Y3539000D01*
X33384744Y3563999D01*
X33503127Y3613035D01*
X33609669Y3684224D01*
X33700276Y3774831D01*
X33771465Y3881373D01*
X33820501Y3999756D01*
X33845500Y4125431D01*
X33845500Y4253569D01*
X33820501Y4379244D01*
X33771465Y4497627D01*
X33771463Y4497630D01*
X33771461Y4497634D01*
X33721943Y4571742D01*
X33700276Y4604169D01*
X33609669Y4694776D01*
X33557821Y4729420D01*
X33503133Y4765962D01*
X33503125Y4765966D01*
X33384747Y4815000D01*
X33384745Y4815001D01*
X33384744Y4815001D01*
X33259069Y4840000D01*
X32330931Y4840000D01*
X32330930Y4840000D01*
X32268093Y4827501D01*
X32205256Y4815001D01*
X32205255Y4815001D01*
X32205252Y4815000D01*
X32086874Y4765966D01*
X32086866Y4765962D01*
X31980331Y4694776D01*
X31980327Y4694773D01*
X31889727Y4604173D01*
X31889724Y4604169D01*
X31818538Y4497634D01*
X31818534Y4497626D01*
X31769500Y4379248D01*
X31769499Y4379243D01*
X31745110Y4256634D01*
X31744500Y4253569D01*
X31744500Y4125431D01*
X29815500Y4125431D01*
X29815500Y4253569D01*
X29790501Y4379244D01*
X29741465Y4497627D01*
X29741463Y4497630D01*
X29741461Y4497634D01*
X29691943Y4571742D01*
X29670276Y4604169D01*
X29579669Y4694776D01*
X29527821Y4729420D01*
X29473133Y4765962D01*
X29473125Y4765966D01*
X29354747Y4815000D01*
X29354745Y4815001D01*
X29354744Y4815001D01*
X29229069Y4840000D01*
X28804350Y4840000D01*
X28746159Y4858907D01*
X28710195Y4908407D01*
X28710195Y4969593D01*
X28713785Y4978988D01*
X28717206Y4986735D01*
X28762585Y5089509D01*
X28765272Y5112675D01*
X28790758Y5168296D01*
X28844072Y5198317D01*
X28904850Y5191266D01*
X28913110Y5187002D01*
X28931464Y5176405D01*
X29052399Y5144000D01*
X29052401Y5144000D01*
X29177599Y5144000D01*
X29177601Y5144000D01*
X29298536Y5176405D01*
X29406964Y5239005D01*
X29495495Y5327536D01*
X29558095Y5435964D01*
X29590500Y5556899D01*
X29590500Y5682101D01*
X29558095Y5803036D01*
X29495495Y5911464D01*
X29406964Y5999995D01*
X29298536Y6062595D01*
X29191024Y6091404D01*
X29139712Y6124727D01*
X29117786Y6181848D01*
X29133622Y6240949D01*
X29146641Y6257027D01*
X30233557Y7343942D01*
X30250040Y7383736D01*
X30275500Y7445200D01*
X30275500Y9579299D01*
X30267809Y9597866D01*
X30239594Y9665983D01*
X30233557Y9680557D01*
X30233557Y9680558D01*
X29150983Y10763131D01*
X29123207Y10817647D01*
X29132778Y10878079D01*
X29176043Y10921344D01*
X29195355Y10928758D01*
X29298536Y10956405D01*
X29406964Y11019005D01*
X29495495Y11107536D01*
X29558095Y11215964D01*
X29590500Y11336899D01*
X29590500Y11462101D01*
X29558095Y11583036D01*
X29495495Y11691464D01*
X29406964Y11779995D01*
X29298536Y11842595D01*
X29177601Y11875000D01*
X29052399Y11875000D01*
X28931464Y11842595D01*
X28931462Y11842595D01*
X28931462Y11842594D01*
X28913109Y11831998D01*
X28853260Y11819279D01*
X28797365Y11844166D01*
X28766774Y11897155D01*
X28765271Y11906323D01*
X28762585Y11929491D01*
X28717206Y12032265D01*
X28717205Y12032266D01*
X28713785Y12040012D01*
X28707577Y12100881D01*
X28738333Y12153775D01*
X28794305Y12178489D01*
X28804350Y12179000D01*
X29229068Y12179000D01*
X29229069Y12179000D01*
X29354744Y12203999D01*
X29473127Y12253035D01*
X29579669Y12324224D01*
X29670276Y12414831D01*
X29741465Y12521373D01*
X29790501Y12639756D01*
X29815500Y12765431D01*
X31744500Y12765431D01*
X31767290Y12650859D01*
X31769499Y12639758D01*
X31769500Y12639753D01*
X31818534Y12521375D01*
X31818538Y12521367D01*
X31851888Y12471457D01*
X31889724Y12414831D01*
X31980331Y12324224D01*
X32014481Y12301406D01*
X32086866Y12253039D01*
X32086870Y12253037D01*
X32086873Y12253035D01*
X32205256Y12203999D01*
X32330931Y12179000D01*
X32330932Y12179000D01*
X33259068Y12179000D01*
X33259069Y12179000D01*
X33384744Y12203999D01*
X33503127Y12253035D01*
X33609669Y12324224D01*
X33700276Y12414831D01*
X33771465Y12521373D01*
X33820501Y12639756D01*
X33845500Y12765431D01*
X33845500Y12893569D01*
X33820501Y13019244D01*
X33771465Y13137627D01*
X33771463Y13137630D01*
X33771461Y13137634D01*
X33728425Y13202041D01*
X33700276Y13244169D01*
X33609669Y13334776D01*
X33546894Y13376721D01*
X33503133Y13405962D01*
X33503125Y13405966D01*
X33384747Y13455000D01*
X33384745Y13455001D01*
X33384744Y13455001D01*
X33259069Y13480000D01*
X32330931Y13480000D01*
X32330930Y13480000D01*
X32273118Y13468500D01*
X32205256Y13455001D01*
X32205255Y13455001D01*
X32205252Y13455000D01*
X32086874Y13405966D01*
X32086866Y13405962D01*
X31980331Y13334776D01*
X31980327Y13334773D01*
X31889727Y13244173D01*
X31889724Y13244169D01*
X31818538Y13137634D01*
X31818534Y13137626D01*
X31769500Y13019248D01*
X31769499Y13019245D01*
X31769499Y13019244D01*
X31744500Y12893569D01*
X31744500Y12765431D01*
X29815500Y12765431D01*
X29815500Y12893569D01*
X29790501Y13019244D01*
X29741465Y13137627D01*
X29741463Y13137630D01*
X29741461Y13137634D01*
X29698425Y13202041D01*
X29670276Y13244169D01*
X29579669Y13334776D01*
X29516894Y13376721D01*
X29473133Y13405962D01*
X29473125Y13405966D01*
X29354747Y13455000D01*
X29354745Y13455001D01*
X29354744Y13455001D01*
X29229069Y13480000D01*
X28000931Y13480000D01*
X28000930Y13480000D01*
X27943118Y13468500D01*
X27875256Y13455001D01*
X27875255Y13455001D01*
X27875252Y13455000D01*
X27756874Y13405966D01*
X27756866Y13405962D01*
X27650331Y13334776D01*
X27650327Y13334773D01*
X27559727Y13244173D01*
X27559724Y13244169D01*
X27488538Y13137634D01*
X27488534Y13137626D01*
X27439500Y13019248D01*
X27439499Y13019245D01*
X27439499Y13019244D01*
X27414500Y12893569D01*
X27414500Y12765431D01*
X27437290Y12650859D01*
X27439499Y12639758D01*
X27439500Y12639753D01*
X27488534Y12521375D01*
X27488538Y12521367D01*
X27521888Y12471457D01*
X27559724Y12414831D01*
X27559727Y12414828D01*
X27645551Y12329004D01*
X27673328Y12274487D01*
X27663757Y12214055D01*
X27620492Y12170790D01*
X27575559Y12160000D01*
X27570145Y12160000D01*
X27570136Y12159999D01*
X27545009Y12157086D01*
X27442235Y12111706D01*
X27362792Y12032263D01*
X27361913Y12030979D01*
X27360159Y12029630D01*
X27356308Y12025778D01*
X27355806Y12026280D01*
X27313426Y11993661D01*
X27252264Y11991970D01*
X27242361Y11995468D01*
X27143709Y12036330D01*
X27143706Y12036331D01*
X27143705Y12036331D01*
X27000000Y12055250D01*
X26856291Y12036331D01*
X26856290Y12036330D01*
X26722378Y11980863D01*
X26722370Y11980858D01*
X26684767Y11952004D01*
X26627091Y11931580D01*
X26568426Y11948958D01*
X26531178Y11997499D01*
X26525500Y12030546D01*
X26525500Y12054800D01*
X26491097Y12137855D01*
X26491097Y12137856D01*
X26483556Y12156061D01*
X26156061Y12483554D01*
X26156058Y12483557D01*
X26054800Y12525500D01*
X26054799Y12525500D01*
X23583411Y12525500D01*
X23525220Y12544407D01*
X23489256Y12593907D01*
X23489256Y12655093D01*
X23513408Y12694504D01*
X23574497Y12755593D01*
X23991170Y13172264D01*
X24008396Y13213851D01*
X24025500Y13255144D01*
X24025500Y14915587D01*
X24044407Y14973778D01*
X24054496Y14985591D01*
X24314409Y15245504D01*
X24368926Y15273281D01*
X24384413Y15274500D01*
X26000500Y15274500D01*
X26058691Y15255593D01*
X26094655Y15206093D01*
X26099500Y15175500D01*
X26099500Y15145726D01*
X26102353Y15115306D01*
X26102355Y15115297D01*
X26147207Y14987117D01*
X26227845Y14877856D01*
X26227847Y14877854D01*
X26227850Y14877850D01*
X26227853Y14877848D01*
X26227855Y14877846D01*
X26337116Y14797208D01*
X26337117Y14797208D01*
X26337118Y14797207D01*
X26465301Y14752354D01*
X26495725Y14749501D01*
X26495727Y14749500D01*
X26495734Y14749500D01*
X27504273Y14749500D01*
X27504273Y14749501D01*
X27534699Y14752354D01*
X27662882Y14797207D01*
X27772150Y14877850D01*
X27852793Y14987118D01*
X27897646Y15115301D01*
X27900499Y15145727D01*
X27900500Y15145727D01*
X27900500Y15854273D01*
X27900499Y15854275D01*
X27897646Y15884695D01*
X27897646Y15884699D01*
X27852793Y16012882D01*
X27836719Y16034661D01*
X27772154Y16122145D01*
X27772151Y16122148D01*
X27772150Y16122150D01*
X27772146Y16122153D01*
X27772144Y16122155D01*
X27662883Y16202793D01*
X27534703Y16247645D01*
X27534694Y16247647D01*
X27504274Y16250500D01*
X27504266Y16250500D01*
X26495734Y16250500D01*
X26495725Y16250500D01*
X26465305Y16247647D01*
X26465296Y16247645D01*
X26337116Y16202793D01*
X26227855Y16122155D01*
X26227845Y16122145D01*
X26147207Y16012884D01*
X26102355Y15884704D01*
X26102353Y15884695D01*
X26099500Y15854275D01*
X26099500Y15824500D01*
X26080593Y15766309D01*
X26031093Y15730345D01*
X26000500Y15725500D01*
X24306386Y15725500D01*
X24306378Y15725501D01*
X24294855Y15725501D01*
X24205145Y15725501D01*
X24183208Y15716414D01*
X24150186Y15702736D01*
X24122264Y15691171D01*
X24058829Y15627737D01*
X24058830Y15627736D01*
X24058829Y15627735D01*
X24058828Y15627735D01*
X23695002Y15263910D01*
X23640486Y15236133D01*
X23580054Y15245704D01*
X23554995Y15263910D01*
X23191170Y15627735D01*
X23191170Y15627736D01*
X23127736Y15691170D01*
X23127734Y15691171D01*
X23127733Y15691172D01*
X23099814Y15702736D01*
X23066792Y15716414D01*
X23044855Y15725501D01*
X22955145Y15725501D01*
X22943622Y15725501D01*
X22943614Y15725500D01*
X21499500Y15725500D01*
X21441309Y15744407D01*
X21405345Y15793907D01*
X21400500Y15824500D01*
X21400500Y15854273D01*
X21400499Y15854275D01*
X21397646Y15884695D01*
X21397646Y15884699D01*
X21352793Y16012882D01*
X21336719Y16034661D01*
X21272154Y16122145D01*
X21272151Y16122148D01*
X21272150Y16122150D01*
X21272146Y16122153D01*
X21272144Y16122155D01*
X21162883Y16202793D01*
X21034703Y16247645D01*
X21034694Y16247647D01*
X21004274Y16250500D01*
X21004266Y16250500D01*
X19995734Y16250500D01*
X19995725Y16250500D01*
X19965305Y16247647D01*
X19965296Y16247645D01*
X19837116Y16202793D01*
X19727855Y16122155D01*
X19727848Y16122148D01*
X19709155Y16096819D01*
X19659387Y16061227D01*
X19598203Y16061685D01*
X19548974Y16098018D01*
X19530500Y16155608D01*
X19530500Y16836946D01*
X19530501Y16836955D01*
X19530501Y16947937D01*
X19531197Y16947937D01*
X19531198Y16960062D01*
X19530501Y16960062D01*
X19530501Y17067497D01*
X19530500Y17067511D01*
X19530500Y17344393D01*
X19549407Y17402584D01*
X19598907Y17438548D01*
X19660093Y17438548D01*
X19709155Y17403181D01*
X19727850Y17377850D01*
X19727853Y17377848D01*
X19727855Y17377846D01*
X19837116Y17297208D01*
X19837117Y17297208D01*
X19837118Y17297207D01*
X19965301Y17252354D01*
X19995725Y17249501D01*
X19995727Y17249500D01*
X19995734Y17249500D01*
X21004273Y17249500D01*
X21004273Y17249501D01*
X21034699Y17252354D01*
X21162882Y17297207D01*
X21272150Y17377850D01*
X21352793Y17487118D01*
X21397646Y17615301D01*
X21400499Y17645727D01*
X21400500Y17645727D01*
X21400500Y17675500D01*
X21419407Y17733691D01*
X21468907Y17769655D01*
X21499500Y17774500D01*
X22365587Y17774500D01*
X22423778Y17755593D01*
X22435591Y17745504D01*
X22866135Y17314960D01*
X22893912Y17260443D01*
X22894341Y17254983D01*
X22904902Y17188309D01*
X22912500Y17140339D01*
X22962905Y17041413D01*
X23041413Y16962905D01*
X23140339Y16912500D01*
X23250000Y16895131D01*
X23359661Y16912500D01*
X23458587Y16962905D01*
X23537095Y17041413D01*
X23537097Y17041419D01*
X23541673Y17047715D01*
X23542841Y17046867D01*
X23580050Y17084079D01*
X23640482Y17093654D01*
X23695000Y17065879D01*
X23708241Y17047654D01*
X23708327Y17047715D01*
X23712903Y17041416D01*
X23712905Y17041413D01*
X23791413Y16962905D01*
X23890339Y16912500D01*
X24000000Y16895131D01*
X24109661Y16912500D01*
X24208587Y16962905D01*
X24287095Y17041413D01*
X24337500Y17140339D01*
X24354869Y17250000D01*
X24356088Y17257696D01*
X24358865Y17257257D01*
X24373776Y17303148D01*
X24383866Y17314961D01*
X24814410Y17745504D01*
X24868926Y17773281D01*
X24884413Y17774500D01*
X26000500Y17774500D01*
X26058691Y17755593D01*
X26094655Y17706093D01*
X26099500Y17675500D01*
X26099500Y17645726D01*
X26102353Y17615306D01*
X26102355Y17615297D01*
X26147207Y17487117D01*
X26227845Y17377856D01*
X26227847Y17377854D01*
X26227850Y17377850D01*
X26227853Y17377848D01*
X26227855Y17377846D01*
X26337116Y17297208D01*
X26337117Y17297208D01*
X26337118Y17297207D01*
X26465301Y17252354D01*
X26495725Y17249501D01*
X26495727Y17249500D01*
X26495734Y17249500D01*
X27504273Y17249500D01*
X27504273Y17249501D01*
X27534699Y17252354D01*
X27662882Y17297207D01*
X27772150Y17377850D01*
X27852793Y17487118D01*
X27897646Y17615301D01*
X27900499Y17645727D01*
X27900500Y17645727D01*
X27900500Y18354273D01*
X27900499Y18354275D01*
X27897646Y18384699D01*
X27852793Y18512882D01*
X27850792Y18515593D01*
X27813065Y18566712D01*
X27793723Y18624759D01*
X27812194Y18683090D01*
X27861424Y18719423D01*
X27892720Y18724500D01*
X28755587Y18724500D01*
X28813778Y18705593D01*
X28825590Y18695505D01*
X31742264Y15778830D01*
X31742265Y15778830D01*
X31742266Y15778829D01*
X31825143Y15744500D01*
X31825145Y15744500D01*
X31914854Y15744500D01*
X32449462Y15744500D01*
X32507653Y15725593D01*
X32543617Y15676093D01*
X32544191Y15674262D01*
X32562067Y15615335D01*
X32571186Y15585273D01*
X32571188Y15585268D01*
X32615162Y15502999D01*
X32664090Y15411462D01*
X32664092Y15411460D01*
X32664093Y15411458D01*
X32789112Y15259122D01*
X32789121Y15259113D01*
X32941457Y15134094D01*
X32941462Y15134090D01*
X33074353Y15063058D01*
X33114511Y15041593D01*
X33115273Y15041186D01*
X33303868Y14983976D01*
X33303870Y14983976D01*
X33303873Y14983975D01*
X33499997Y14964659D01*
X33500000Y14964659D01*
X33500003Y14964659D01*
X33696126Y14983975D01*
X33696127Y14983976D01*
X33696132Y14983976D01*
X33884727Y15041186D01*
X34058538Y15134090D01*
X34210883Y15259117D01*
X34335910Y15411462D01*
X34428814Y15585273D01*
X34486024Y15773868D01*
X34488973Y15803805D01*
X34505341Y15969997D01*
X34505341Y15970004D01*
X34486025Y16166127D01*
X34486024Y16166130D01*
X34486024Y16166132D01*
X34428814Y16354727D01*
X34426783Y16358526D01*
X34382748Y16440910D01*
X34335910Y16528538D01*
X34335906Y16528543D01*
X34210887Y16680879D01*
X34210878Y16680888D01*
X34058542Y16805907D01*
X34058540Y16805908D01*
X34058538Y16805910D01*
X33983831Y16845842D01*
X33884732Y16898812D01*
X33884730Y16898813D01*
X33844469Y16911026D01*
X33696132Y16956024D01*
X33696129Y16956025D01*
X33696126Y16956026D01*
X33500003Y16975341D01*
X33499997Y16975341D01*
X33303873Y16956026D01*
X33303870Y16956025D01*
X33115269Y16898813D01*
X33115267Y16898812D01*
X32941467Y16805913D01*
X32941457Y16805907D01*
X32789121Y16680888D01*
X32789112Y16680879D01*
X32664093Y16528543D01*
X32664087Y16528533D01*
X32571188Y16354733D01*
X32571186Y16354728D01*
X32544199Y16265762D01*
X32509214Y16215565D01*
X32451406Y16195519D01*
X32449462Y16195500D01*
X32004414Y16195500D01*
X31946223Y16214407D01*
X31934410Y16224496D01*
X29081170Y19077735D01*
X29081170Y19077736D01*
X29053407Y19105499D01*
X29025632Y19160013D01*
X29035203Y19220445D01*
X29078468Y19263710D01*
X29123413Y19274500D01*
X32375588Y19274500D01*
X32433779Y19255593D01*
X32445592Y19245503D01*
X32597704Y19093390D01*
X32625481Y19038874D01*
X32615909Y18978442D01*
X32615011Y18976720D01*
X32571187Y18894730D01*
X32571187Y18894729D01*
X32571186Y18894727D01*
X32570439Y18892264D01*
X32513975Y18706130D01*
X32513974Y18706127D01*
X32494659Y18510004D01*
X32494659Y18509997D01*
X32513974Y18313874D01*
X32513975Y18313871D01*
X32513976Y18313868D01*
X32565256Y18144820D01*
X32571187Y18125270D01*
X32571188Y18125268D01*
X32618318Y18037095D01*
X32664090Y17951462D01*
X32664092Y17951460D01*
X32664093Y17951458D01*
X32789112Y17799122D01*
X32789121Y17799113D01*
X32887334Y17718512D01*
X32941462Y17674090D01*
X33115273Y17581186D01*
X33303868Y17523976D01*
X33303870Y17523976D01*
X33303873Y17523975D01*
X33499997Y17504659D01*
X33500000Y17504659D01*
X33500003Y17504659D01*
X33696126Y17523975D01*
X33696127Y17523976D01*
X33696132Y17523976D01*
X33884727Y17581186D01*
X34058538Y17674090D01*
X34210883Y17799117D01*
X34335910Y17951462D01*
X34428814Y18125273D01*
X34486024Y18313868D01*
X34486593Y18319637D01*
X34505341Y18509997D01*
X34505341Y18510004D01*
X34486025Y18706127D01*
X34486024Y18706130D01*
X34486024Y18706132D01*
X34428814Y18894727D01*
X34424785Y18902264D01*
X34394193Y18959498D01*
X34335910Y19068538D01*
X34328361Y19077736D01*
X34210887Y19220879D01*
X34210878Y19220888D01*
X34058542Y19345907D01*
X34058540Y19345908D01*
X34058538Y19345910D01*
X33966716Y19394990D01*
X33884732Y19438812D01*
X33884730Y19438813D01*
X33819099Y19458722D01*
X33713884Y19490639D01*
X33696129Y19496025D01*
X33696126Y19496026D01*
X33500003Y19515341D01*
X33499997Y19515341D01*
X33303873Y19496026D01*
X33303870Y19496025D01*
X33115270Y19438813D01*
X33033280Y19394989D01*
X32973048Y19384234D01*
X32917997Y19410936D01*
X32916610Y19412296D01*
X32715095Y19613810D01*
X32701170Y19627735D01*
X32701170Y19627736D01*
X32637736Y19691170D01*
X32629413Y19694618D01*
X32613458Y19701227D01*
X32613458Y19701228D01*
X32579128Y19715447D01*
X32554855Y19725501D01*
X32465145Y19725501D01*
X32453622Y19725501D01*
X32453614Y19725500D01*
X27855819Y19725500D01*
X27797628Y19744407D01*
X27761664Y19793907D01*
X27761664Y19855093D01*
X27776164Y19883288D01*
X27852792Y19987117D01*
X27852791Y19987117D01*
X27852793Y19987118D01*
X27897646Y20115301D01*
X27900499Y20145727D01*
X27900500Y20145727D01*
X27900500Y20854273D01*
X27900499Y20854275D01*
X27899125Y20868927D01*
X27897646Y20884699D01*
X27852793Y21012882D01*
X27828212Y21046188D01*
X27772154Y21122145D01*
X27772152Y21122147D01*
X27772150Y21122150D01*
X27772146Y21122153D01*
X27772144Y21122155D01*
X27662883Y21202793D01*
X27534703Y21247645D01*
X27534694Y21247647D01*
X27504274Y21250500D01*
X27504266Y21250500D01*
X26495734Y21250500D01*
X26495725Y21250500D01*
X26465305Y21247647D01*
X26465296Y21247645D01*
X26337116Y21202793D01*
X26227855Y21122155D01*
X26227845Y21122145D01*
X26147207Y21012884D01*
X26102355Y20884704D01*
X26102353Y20884695D01*
X26099500Y20854275D01*
X26099500Y20824500D01*
X26080593Y20766309D01*
X26031093Y20730345D01*
X26000500Y20725500D01*
X23884414Y20725500D01*
X23826223Y20744407D01*
X23814410Y20754496D01*
X23754496Y20814410D01*
X23726719Y20868927D01*
X23725500Y20884414D01*
X23725500Y22989364D01*
X24037500Y22989364D01*
X24038891Y22979818D01*
X24048134Y22916374D01*
X24066346Y22879122D01*
X24103174Y22803789D01*
X24191789Y22715174D01*
X24304375Y22660134D01*
X24377364Y22649500D01*
X24377367Y22649500D01*
X25498632Y22649500D01*
X25498636Y22649500D01*
X25571625Y22660134D01*
X25684211Y22715174D01*
X25772826Y22803789D01*
X25827866Y22916375D01*
X25831275Y22939775D01*
X25858373Y22994629D01*
X25912540Y23023081D01*
X25929240Y23024500D01*
X25938810Y23024500D01*
X25997001Y23005593D01*
X26008813Y22995504D01*
X26041410Y22962907D01*
X26041412Y22962906D01*
X26041413Y22962905D01*
X26140339Y22912500D01*
X26250000Y22895131D01*
X26359661Y22912500D01*
X26458587Y22962905D01*
X26537095Y23041413D01*
X26587500Y23140339D01*
X26604869Y23250000D01*
X26587500Y23359661D01*
X26537095Y23458587D01*
X26458587Y23537095D01*
X26359661Y23587500D01*
X26250000Y23604869D01*
X26140338Y23587500D01*
X26041410Y23537094D01*
X26008813Y23504496D01*
X25954296Y23476719D01*
X25938810Y23475500D01*
X25929240Y23475500D01*
X25871049Y23494407D01*
X25835085Y23543907D01*
X25831276Y23560220D01*
X25827866Y23583625D01*
X25772826Y23696211D01*
X25684211Y23784826D01*
X25571625Y23839866D01*
X25571626Y23839866D01*
X25553377Y23842525D01*
X25498636Y23850500D01*
X24377364Y23850500D01*
X24336154Y23844496D01*
X24304373Y23839866D01*
X24191790Y23784827D01*
X24103173Y23696210D01*
X24048134Y23583627D01*
X24048134Y23583625D01*
X24037500Y23510636D01*
X24037500Y22989364D01*
X23725500Y22989364D01*
X23725500Y24489364D01*
X24037500Y24489364D01*
X24048134Y24416375D01*
X24103174Y24303789D01*
X24191789Y24215174D01*
X24304375Y24160134D01*
X24377364Y24149500D01*
X24377367Y24149500D01*
X25498632Y24149500D01*
X25498636Y24149500D01*
X25571625Y24160134D01*
X25684211Y24215174D01*
X25772826Y24303789D01*
X25827866Y24416375D01*
X25831275Y24439775D01*
X25858373Y24494629D01*
X25912540Y24523081D01*
X25929240Y24524500D01*
X28035587Y24524500D01*
X28093778Y24505593D01*
X28105591Y24495504D01*
X31678829Y20922266D01*
X31678830Y20922264D01*
X31742264Y20858830D01*
X31742265Y20858830D01*
X31742266Y20858829D01*
X31825143Y20824500D01*
X31825145Y20824500D01*
X31914854Y20824500D01*
X32449462Y20824500D01*
X32507653Y20805593D01*
X32543617Y20756093D01*
X32544191Y20754262D01*
X32559091Y20705145D01*
X32571186Y20665273D01*
X32571188Y20665268D01*
X32600146Y20611092D01*
X32664090Y20491462D01*
X32664092Y20491460D01*
X32664093Y20491458D01*
X32789112Y20339122D01*
X32789121Y20339113D01*
X32908955Y20240768D01*
X32941462Y20214090D01*
X33013659Y20175500D01*
X33103630Y20127409D01*
X33115273Y20121186D01*
X33303868Y20063976D01*
X33303870Y20063976D01*
X33303873Y20063975D01*
X33499997Y20044659D01*
X33500000Y20044659D01*
X33500003Y20044659D01*
X33696126Y20063975D01*
X33696127Y20063976D01*
X33696132Y20063976D01*
X33884727Y20121186D01*
X34058538Y20214090D01*
X34210883Y20339117D01*
X34335910Y20491462D01*
X34428814Y20665273D01*
X34486024Y20853868D01*
X34486064Y20854266D01*
X34505341Y21049997D01*
X34505341Y21050004D01*
X34486025Y21246127D01*
X34486024Y21246130D01*
X34486024Y21246132D01*
X34428814Y21434727D01*
X34335910Y21608538D01*
X34335906Y21608543D01*
X34210887Y21760879D01*
X34210878Y21760888D01*
X34058542Y21885907D01*
X34058540Y21885908D01*
X34058538Y21885910D01*
X33986306Y21924519D01*
X33884732Y21978812D01*
X33884730Y21978813D01*
X33880820Y21979999D01*
X33696132Y22036024D01*
X33696129Y22036025D01*
X33696126Y22036026D01*
X33500003Y22055341D01*
X33499997Y22055341D01*
X33303873Y22036026D01*
X33303870Y22036025D01*
X33115269Y21978813D01*
X33115267Y21978812D01*
X32941467Y21885913D01*
X32941457Y21885907D01*
X32789121Y21760888D01*
X32789112Y21760879D01*
X32664093Y21608543D01*
X32664087Y21608533D01*
X32571188Y21434733D01*
X32571186Y21434728D01*
X32544199Y21345762D01*
X32509214Y21295565D01*
X32451406Y21275519D01*
X32449462Y21275500D01*
X32004413Y21275500D01*
X31946222Y21294407D01*
X31934409Y21304496D01*
X28361170Y24877735D01*
X28361170Y24877736D01*
X28297736Y24941170D01*
X28273460Y24951226D01*
X28273458Y24951227D01*
X28273458Y24951228D01*
X28239128Y24965447D01*
X28214855Y24975501D01*
X28125145Y24975501D01*
X28113622Y24975501D01*
X28113614Y24975500D01*
X25929240Y24975500D01*
X25871049Y24994407D01*
X25835085Y25043907D01*
X25831276Y25060220D01*
X25827866Y25083625D01*
X25772826Y25196211D01*
X25684211Y25284826D01*
X25571625Y25339866D01*
X25571626Y25339866D01*
X25553377Y25342525D01*
X25498636Y25350500D01*
X24377364Y25350500D01*
X24333570Y25344120D01*
X24304373Y25339866D01*
X24191790Y25284827D01*
X24103173Y25196210D01*
X24048134Y25083627D01*
X24048134Y25083625D01*
X24037500Y25010636D01*
X24037500Y24489364D01*
X23725500Y24489364D01*
X23725500Y25989364D01*
X24037500Y25989364D01*
X24045585Y25933874D01*
X24048134Y25916374D01*
X24088288Y25834238D01*
X24103174Y25803789D01*
X24191789Y25715174D01*
X24304375Y25660134D01*
X24377364Y25649500D01*
X24377367Y25649500D01*
X25498632Y25649500D01*
X25498636Y25649500D01*
X25571625Y25660134D01*
X25684211Y25715174D01*
X25772826Y25803789D01*
X25827866Y25916375D01*
X25831275Y25939775D01*
X25858373Y25994629D01*
X25912540Y26023081D01*
X25929240Y26024500D01*
X29075587Y26024500D01*
X29133778Y26005593D01*
X29145591Y25995504D01*
X31678829Y23462266D01*
X31678830Y23462264D01*
X31742264Y23398830D01*
X31742265Y23398830D01*
X31742266Y23398829D01*
X31766538Y23388775D01*
X31766539Y23388775D01*
X31825145Y23364499D01*
X31825146Y23364499D01*
X31926378Y23364499D01*
X31926386Y23364500D01*
X32449462Y23364500D01*
X32507653Y23345593D01*
X32543617Y23296093D01*
X32544199Y23294238D01*
X32571186Y23205273D01*
X32571188Y23205268D01*
X32605894Y23140339D01*
X32664090Y23031462D01*
X32664092Y23031460D01*
X32664093Y23031458D01*
X32789112Y22879122D01*
X32789121Y22879113D01*
X32817025Y22856213D01*
X32941462Y22754090D01*
X33115273Y22661186D01*
X33303868Y22603976D01*
X33303870Y22603976D01*
X33303873Y22603975D01*
X33499997Y22584659D01*
X33500000Y22584659D01*
X33500003Y22584659D01*
X33696126Y22603975D01*
X33696127Y22603976D01*
X33696132Y22603976D01*
X33884727Y22661186D01*
X34058538Y22754090D01*
X34210883Y22879117D01*
X34335910Y23031462D01*
X34428814Y23205273D01*
X34486024Y23393868D01*
X34492399Y23458587D01*
X34505341Y23589997D01*
X34505341Y23590004D01*
X34486025Y23786127D01*
X34486024Y23786130D01*
X34486024Y23786132D01*
X34428814Y23974727D01*
X34335910Y24148538D01*
X34335121Y24149500D01*
X34210887Y24300879D01*
X34210878Y24300888D01*
X34058542Y24425907D01*
X34058540Y24425908D01*
X34058538Y24425910D01*
X33966716Y24474990D01*
X33884732Y24518812D01*
X33884730Y24518813D01*
X33870660Y24523081D01*
X33696132Y24576024D01*
X33696129Y24576025D01*
X33696126Y24576026D01*
X33500003Y24595341D01*
X33499997Y24595341D01*
X33303873Y24576026D01*
X33303870Y24576025D01*
X33115269Y24518813D01*
X33115267Y24518812D01*
X32941467Y24425913D01*
X32941457Y24425907D01*
X32789121Y24300888D01*
X32789112Y24300879D01*
X32664093Y24148543D01*
X32664087Y24148533D01*
X32571188Y23974733D01*
X32571186Y23974728D01*
X32544199Y23885762D01*
X32509214Y23835565D01*
X32451406Y23815519D01*
X32449462Y23815500D01*
X32004413Y23815500D01*
X31946222Y23834407D01*
X31934409Y23844496D01*
X29401170Y26377735D01*
X29401170Y26377736D01*
X29337736Y26441170D01*
X29313460Y26451226D01*
X29313458Y26451227D01*
X29313458Y26451228D01*
X29279128Y26465447D01*
X29254855Y26475501D01*
X29165145Y26475501D01*
X29153622Y26475501D01*
X29153614Y26475500D01*
X25929240Y26475500D01*
X25871049Y26494407D01*
X25835085Y26543907D01*
X25831276Y26560220D01*
X25827866Y26583625D01*
X25772826Y26696211D01*
X25684211Y26784826D01*
X25571625Y26839866D01*
X25571626Y26839866D01*
X25553377Y26842525D01*
X25498636Y26850500D01*
X24377364Y26850500D01*
X24333570Y26844120D01*
X24304373Y26839866D01*
X24191790Y26784827D01*
X24103173Y26696210D01*
X24048134Y26583627D01*
X24048134Y26583625D01*
X24037500Y26510636D01*
X24037500Y25989364D01*
X23725500Y25989364D01*
X23725500Y27365588D01*
X23744407Y27423779D01*
X23754497Y27435592D01*
X23814410Y27495504D01*
X23868927Y27523281D01*
X23884413Y27524500D01*
X23946760Y27524500D01*
X24004951Y27505593D01*
X24040915Y27456093D01*
X24044723Y27439781D01*
X24048134Y27416375D01*
X24103174Y27303789D01*
X24191789Y27215174D01*
X24304375Y27160134D01*
X24377364Y27149500D01*
X24377367Y27149500D01*
X25498632Y27149500D01*
X25498636Y27149500D01*
X25571625Y27160134D01*
X25684211Y27215174D01*
X25772826Y27303789D01*
X25827866Y27416375D01*
X25838500Y27489364D01*
X25838500Y28010636D01*
X25827866Y28083625D01*
X25772826Y28196211D01*
X25684211Y28284826D01*
X25571625Y28339866D01*
X25571626Y28339866D01*
X25553377Y28342525D01*
X25498636Y28350500D01*
X24377364Y28350500D01*
X24333570Y28344120D01*
X24304373Y28339866D01*
X24191790Y28284827D01*
X24103173Y28196210D01*
X24048134Y28083627D01*
X24048134Y28083625D01*
X24044724Y28060226D01*
X24017627Y28005371D01*
X23963460Y27976919D01*
X23946760Y27975500D01*
X23705143Y27975500D01*
X23622265Y27941172D01*
X23394503Y27713410D01*
X23339987Y27685633D01*
X23279555Y27695204D01*
X23236290Y27738469D01*
X23225500Y27783414D01*
X23225500Y28615587D01*
X23244407Y28673778D01*
X23254496Y28685591D01*
X23564409Y28995504D01*
X23618926Y29023281D01*
X23634413Y29024500D01*
X23946760Y29024500D01*
X24004951Y29005593D01*
X24040915Y28956093D01*
X24044723Y28939781D01*
X24046951Y28924496D01*
X24048134Y28916374D01*
X24085737Y28839456D01*
X24103174Y28803789D01*
X24191789Y28715174D01*
X24304375Y28660134D01*
X24377364Y28649500D01*
X24377367Y28649500D01*
X25498632Y28649500D01*
X25498636Y28649500D01*
X25571625Y28660134D01*
X25684211Y28715174D01*
X25772826Y28803789D01*
X25827866Y28916375D01*
X25838500Y28989364D01*
X25838500Y29510636D01*
X25827866Y29583625D01*
X25772826Y29696211D01*
X25684211Y29784826D01*
X25571625Y29839866D01*
X25571626Y29839866D01*
X25553377Y29842525D01*
X25498636Y29850500D01*
X24377364Y29850500D01*
X24333570Y29844120D01*
X24304373Y29839866D01*
X24191790Y29784827D01*
X24103173Y29696210D01*
X24048134Y29583627D01*
X24048134Y29583625D01*
X24044724Y29560226D01*
X24017627Y29505371D01*
X23963460Y29476919D01*
X23946760Y29475500D01*
X23556386Y29475500D01*
X23556378Y29475501D01*
X23544855Y29475501D01*
X23455146Y29475501D01*
X23455144Y29475501D01*
X23406594Y29455391D01*
X23372265Y29441172D01*
X23372263Y29441170D01*
X23308829Y29377737D01*
X23308830Y29377736D01*
X23308829Y29377735D01*
X22872265Y28941171D01*
X22872264Y28941170D01*
X22872263Y28941171D01*
X22808830Y28877738D01*
X22808830Y28877735D01*
X22774499Y28794855D01*
X22774499Y28693623D01*
X22774500Y28693614D01*
X22774500Y20884413D01*
X22755593Y20826222D01*
X22745504Y20814410D01*
X22685592Y20754497D01*
X22631076Y20726719D01*
X22615588Y20725500D01*
X21499500Y20725500D01*
X21441309Y20744407D01*
X21405345Y20793907D01*
X21400500Y20824500D01*
X21400500Y20854273D01*
X21400499Y20854275D01*
X21399125Y20868927D01*
X21397646Y20884699D01*
X21352793Y21012882D01*
X21328212Y21046188D01*
X21272154Y21122145D01*
X21272152Y21122147D01*
X21272150Y21122150D01*
X21272146Y21122153D01*
X21272144Y21122155D01*
X21162883Y21202793D01*
X21034703Y21247645D01*
X21034694Y21247647D01*
X21004274Y21250500D01*
X21004266Y21250500D01*
X19995734Y21250500D01*
X19995725Y21250500D01*
X19965305Y21247647D01*
X19965296Y21247645D01*
X19837116Y21202793D01*
X19727855Y21122155D01*
X19727845Y21122145D01*
X19647207Y21012884D01*
X19602355Y20884704D01*
X19602353Y20884695D01*
X19599500Y20854275D01*
X19599500Y20145726D01*
X19602353Y20115306D01*
X19602355Y20115297D01*
X19647207Y19987117D01*
X19727845Y19877856D01*
X19727847Y19877854D01*
X19727850Y19877850D01*
X19822465Y19808021D01*
X19825788Y19805569D01*
X19861381Y19755802D01*
X19860923Y19694618D01*
X19837004Y19655910D01*
X19095416Y18914323D01*
X19040899Y18886546D01*
X18980467Y18896117D01*
X18937202Y18939382D01*
X18930744Y18960778D01*
X18929637Y18960476D01*
X18927682Y18967661D01*
X18927682Y18967662D01*
X18883813Y19067016D01*
X18812247Y19138582D01*
X18784472Y19193096D01*
X18794043Y19253528D01*
X18831674Y19291160D01*
X18830929Y19292224D01*
X18836966Y19296452D01*
X18837308Y19296793D01*
X18837789Y19297028D01*
X18838020Y19297190D01*
X18922809Y19381979D01*
X18973478Y19490639D01*
X18973480Y19490646D01*
X18980000Y19540162D01*
X18980000Y19594999D01*
X18979999Y19595000D01*
X17960001Y19595000D01*
X17960000Y19594999D01*
X17960000Y19540162D01*
X17966519Y19490646D01*
X17966520Y19490641D01*
X17973542Y19475582D01*
X17980996Y19414853D01*
X17951331Y19361340D01*
X17895878Y19335484D01*
X17867660Y19338204D01*
X17867356Y19336281D01*
X17859661Y19337500D01*
X17750000Y19354869D01*
X17640338Y19337500D01*
X17541413Y19287095D01*
X17462905Y19208587D01*
X17412500Y19109662D01*
X17395131Y19000001D01*
X17395131Y18999999D01*
X17407336Y18922937D01*
X17397764Y18862505D01*
X17354500Y18819240D01*
X17354499Y18819240D01*
X17329359Y18806431D01*
X17268927Y18796860D01*
X17239538Y18808362D01*
X17239372Y18807959D01*
X17230363Y18811691D01*
X17230361Y18811692D01*
X17230360Y18811692D01*
X17204683Y18816800D01*
X17151300Y18846698D01*
X17125686Y18902264D01*
X17125000Y18913897D01*
X17125000Y19037499D01*
X17124999Y19037500D01*
X16724000Y19037500D01*
X16665809Y19056407D01*
X16629845Y19105907D01*
X16625000Y19136500D01*
X16625000Y19287501D01*
X16875000Y19287501D01*
X16875001Y19287500D01*
X17124999Y19287500D01*
X17125000Y19287501D01*
X17125000Y19430426D01*
X17124999Y19430429D01*
X17122211Y19454461D01*
X17078794Y19552791D01*
X17002790Y19628795D01*
X16904460Y19672212D01*
X16880428Y19675000D01*
X16875001Y19675000D01*
X16875000Y19674999D01*
X16875000Y19287501D01*
X16625000Y19287501D01*
X16625000Y19674999D01*
X16624999Y19675000D01*
X16619571Y19675000D01*
X16595539Y19672212D01*
X16497202Y19628792D01*
X16497190Y19628783D01*
X16497169Y19628777D01*
X16488817Y19625089D01*
X16488336Y19626177D01*
X16438496Y19611503D01*
X16421938Y19613367D01*
X16360944Y19625500D01*
X16360942Y19625500D01*
X16139058Y19625500D01*
X16139057Y19625500D01*
X16139047Y19625499D01*
X16069640Y19611692D01*
X16069631Y19611689D01*
X16055000Y19601912D01*
X15996112Y19585304D01*
X15945000Y19601912D01*
X15930368Y19611689D01*
X15930363Y19611691D01*
X15930360Y19611692D01*
X15930359Y19611692D01*
X15860952Y19625499D01*
X15860942Y19625500D01*
X15639058Y19625500D01*
X15639057Y19625500D01*
X15639047Y19625499D01*
X15569640Y19611692D01*
X15569631Y19611689D01*
X15555000Y19601912D01*
X15496112Y19585304D01*
X15445000Y19601912D01*
X15430368Y19611689D01*
X15430363Y19611691D01*
X15430360Y19611692D01*
X15430359Y19611692D01*
X15360952Y19625499D01*
X15360942Y19625500D01*
X15139058Y19625500D01*
X15139057Y19625500D01*
X15139047Y19625499D01*
X15069640Y19611692D01*
X15069634Y19611690D01*
X14990912Y19559091D01*
X14990909Y19559088D01*
X14938310Y19480366D01*
X14938308Y19480360D01*
X14924501Y19410953D01*
X14924500Y19410941D01*
X14924500Y18974000D01*
X14905593Y18915809D01*
X14856093Y18879845D01*
X14825500Y18875000D01*
X14819571Y18875000D01*
X14795539Y18872212D01*
X14697209Y18828795D01*
X14621205Y18752791D01*
X14577788Y18654461D01*
X14575000Y18630429D01*
X14575000Y18625001D01*
X14575001Y18625000D01*
X15599999Y18625000D01*
X15611792Y18636794D01*
X15618907Y18658691D01*
X15668407Y18694655D01*
X15699000Y18699500D01*
X15860941Y18699500D01*
X15860942Y18699500D01*
X15930363Y18713309D01*
X15944997Y18723087D01*
X16003885Y18739697D01*
X16055003Y18723087D01*
X16069637Y18713309D01*
X16105743Y18706127D01*
X16139047Y18699502D01*
X16139052Y18699502D01*
X16139058Y18699500D01*
X16139059Y18699500D01*
X16350500Y18699500D01*
X16408691Y18680593D01*
X16444655Y18631093D01*
X16449500Y18600500D01*
X16449500Y18389060D01*
X16449501Y18389048D01*
X16463308Y18319641D01*
X16463311Y18319632D01*
X16473088Y18305000D01*
X16489696Y18246112D01*
X16473088Y18195000D01*
X16463311Y18180369D01*
X16463308Y18180360D01*
X16449501Y18110953D01*
X16449500Y18110941D01*
X16449500Y17889056D01*
X16461633Y17828062D01*
X16454441Y17767301D01*
X16446217Y17752810D01*
X16446208Y17752798D01*
X16402788Y17654461D01*
X16400000Y17630429D01*
X16400000Y17625001D01*
X16400001Y17625000D01*
X16938500Y17625000D01*
X16996691Y17606093D01*
X17032655Y17556593D01*
X17037500Y17526000D01*
X17037500Y17474000D01*
X17018593Y17415809D01*
X16969093Y17379845D01*
X16938500Y17375000D01*
X16400001Y17375000D01*
X16375000Y17349999D01*
X16375000Y16325001D01*
X16375001Y16325000D01*
X16380425Y16325000D01*
X16380428Y16325001D01*
X16404460Y16327789D01*
X16502792Y16371206D01*
X16502797Y16371209D01*
X16502804Y16371212D01*
X16511184Y16374911D01*
X16511665Y16373822D01*
X16561489Y16388498D01*
X16578060Y16386634D01*
X16597253Y16382816D01*
X16639050Y16374501D01*
X16639056Y16374501D01*
X16639058Y16374500D01*
X16639059Y16374500D01*
X16860941Y16374500D01*
X16860942Y16374500D01*
X16930363Y16388309D01*
X17009089Y16440911D01*
X17061691Y16519637D01*
X17075500Y16589058D01*
X17075500Y17026000D01*
X17094407Y17084191D01*
X17143907Y17120155D01*
X17174500Y17125000D01*
X17180425Y17125000D01*
X17180428Y17125001D01*
X17204460Y17127789D01*
X17293834Y17167251D01*
X17354703Y17173459D01*
X17407597Y17142703D01*
X17422031Y17121632D01*
X17457863Y17051309D01*
X17462905Y17041413D01*
X17541413Y16962905D01*
X17640339Y16912500D01*
X17750000Y16895131D01*
X17859661Y16912500D01*
X17871559Y16918563D01*
X17931989Y16928134D01*
X17986506Y16900358D01*
X18014285Y16845842D01*
X18006229Y16788514D01*
X17966519Y16703356D01*
X17966519Y16703355D01*
X17960000Y16653839D01*
X17960000Y16599001D01*
X17960001Y16599000D01*
X18496000Y16599000D01*
X18554191Y16580093D01*
X18590155Y16530593D01*
X18595000Y16500000D01*
X18595000Y15994001D01*
X18595001Y15994000D01*
X18680500Y15994000D01*
X18738691Y15975093D01*
X18774655Y15925593D01*
X18779500Y15895000D01*
X18779500Y15889413D01*
X18760593Y15831222D01*
X18750504Y15819409D01*
X18247158Y15316064D01*
X18192641Y15288287D01*
X18132209Y15297858D01*
X18088946Y15341121D01*
X18082075Y15354607D01*
X18003567Y15433115D01*
X17904641Y15483520D01*
X17794980Y15500889D01*
X17685318Y15483520D01*
X17586390Y15433114D01*
X17561772Y15408495D01*
X17507255Y15380719D01*
X17491770Y15379500D01*
X15645386Y15379500D01*
X15645378Y15379501D01*
X15633855Y15379501D01*
X15544145Y15379501D01*
X15544143Y15379501D01*
X15485542Y15355229D01*
X15485543Y15355228D01*
X15461264Y15345170D01*
X15461262Y15345169D01*
X15397834Y15281742D01*
X15397830Y15281737D01*
X15397830Y15281736D01*
X15397829Y15281735D01*
X15382107Y15266014D01*
X15327592Y15238237D01*
X15312105Y15237018D01*
X13813999Y15237018D01*
X13755808Y15255925D01*
X13719844Y15305425D01*
X13719844Y15366611D01*
X13725786Y15380958D01*
X13733458Y15396013D01*
X13750827Y15505674D01*
X13750285Y15509093D01*
X13745172Y15541376D01*
X13733458Y15615335D01*
X13683053Y15714261D01*
X13604545Y15792769D01*
X13530676Y15830407D01*
X13487412Y15873671D01*
X13477841Y15934103D01*
X13505618Y15988620D01*
X13519000Y16002002D01*
X13769000Y16002002D01*
X13769001Y16002001D01*
X13868251Y16002001D01*
X13868260Y16002002D01*
X13917041Y16008423D01*
X14024109Y16058350D01*
X14107650Y16141891D01*
X14157574Y16248953D01*
X14157576Y16248960D01*
X14163528Y16294162D01*
X17960000Y16294162D01*
X17966519Y16244646D01*
X17966521Y16244639D01*
X18017190Y16135979D01*
X18101978Y16051191D01*
X18210638Y16000522D01*
X18210645Y16000520D01*
X18260161Y15994000D01*
X18344999Y15994000D01*
X18345000Y15994001D01*
X18345000Y16348999D01*
X18344999Y16349000D01*
X17960001Y16349000D01*
X17960000Y16348999D01*
X17960000Y16294162D01*
X14163528Y16294162D01*
X14164000Y16297747D01*
X14164000Y16346999D01*
X14163999Y16347000D01*
X13769001Y16347000D01*
X13769000Y16346999D01*
X13769000Y16002002D01*
X13519000Y16002002D01*
X13519000Y16498000D01*
X13537907Y16556191D01*
X13556324Y16569572D01*
X14875000Y16569572D01*
X14877788Y16545540D01*
X14921205Y16447210D01*
X14997209Y16371206D01*
X15095539Y16327789D01*
X15119571Y16325001D01*
X15119575Y16325000D01*
X15124999Y16325000D01*
X15125000Y16325001D01*
X15375000Y16325001D01*
X15375001Y16325000D01*
X15380425Y16325000D01*
X15380428Y16325001D01*
X15404461Y16327789D01*
X15460010Y16352317D01*
X15520880Y16358526D01*
X15539990Y16352317D01*
X15595540Y16327789D01*
X15595537Y16327789D01*
X15619571Y16325001D01*
X15619575Y16325000D01*
X15624999Y16325000D01*
X15625000Y16325001D01*
X15875000Y16325001D01*
X15875001Y16325000D01*
X15880425Y16325000D01*
X15880428Y16325001D01*
X15904461Y16327789D01*
X15960010Y16352317D01*
X16020880Y16358526D01*
X16039990Y16352317D01*
X16095540Y16327789D01*
X16095537Y16327789D01*
X16119571Y16325001D01*
X16119575Y16325000D01*
X16124999Y16325000D01*
X16125000Y16325001D01*
X16125000Y16712499D01*
X16124999Y16712500D01*
X15875001Y16712500D01*
X15875000Y16712499D01*
X15875000Y16325001D01*
X15625000Y16325001D01*
X15625000Y16712499D01*
X15624999Y16712500D01*
X15375001Y16712500D01*
X15375000Y16712499D01*
X15375000Y16325001D01*
X15125000Y16325001D01*
X15125000Y16712499D01*
X15124999Y16712500D01*
X14875001Y16712500D01*
X14875000Y16712499D01*
X14875000Y16569572D01*
X13556324Y16569572D01*
X13587407Y16592155D01*
X13618000Y16597000D01*
X14163998Y16597000D01*
X14163999Y16597001D01*
X14163999Y16646251D01*
X14163998Y16646261D01*
X14157577Y16695042D01*
X14107650Y16802110D01*
X14024109Y16885651D01*
X13951481Y16919518D01*
X13906733Y16961246D01*
X13895058Y17021307D01*
X13920916Y17076760D01*
X13953332Y17099806D01*
X13978114Y17110749D01*
X13993141Y17117384D01*
X14068616Y17192859D01*
X14078608Y17215490D01*
X14119408Y17261083D01*
X14169172Y17274500D01*
X14616315Y17274500D01*
X14674506Y17255593D01*
X14686322Y17245501D01*
X14690908Y17240915D01*
X14690911Y17240911D01*
X14769637Y17188309D01*
X14795317Y17183201D01*
X14848699Y17153305D01*
X14874314Y17097739D01*
X14875000Y17086104D01*
X14875000Y16962501D01*
X14875001Y16962500D01*
X15624999Y16962500D01*
X15625000Y16962501D01*
X15875000Y16962501D01*
X15875001Y16962500D01*
X16124999Y16962500D01*
X16125000Y16962501D01*
X16125000Y17349999D01*
X16124999Y17350000D01*
X16119571Y17350000D01*
X16095539Y17347212D01*
X16095536Y17347211D01*
X16039987Y17322684D01*
X15979117Y17316477D01*
X15960013Y17322684D01*
X15904463Y17347211D01*
X15904460Y17347212D01*
X15880428Y17350000D01*
X15875001Y17350000D01*
X15875000Y17349999D01*
X15875000Y16962501D01*
X15625000Y16962501D01*
X15625000Y17349999D01*
X15613206Y17361793D01*
X15591309Y17368907D01*
X15555345Y17418407D01*
X15550500Y17449000D01*
X15550500Y17610941D01*
X15550498Y17610953D01*
X15537939Y17674088D01*
X15536691Y17680363D01*
X15526913Y17694997D01*
X15510303Y17753885D01*
X15526913Y17805003D01*
X15535472Y17817813D01*
X15536691Y17819637D01*
X15550500Y17889058D01*
X15550500Y18110942D01*
X15550499Y18110944D01*
X15550499Y18110950D01*
X15538367Y18171936D01*
X15545557Y18232698D01*
X15553791Y18247203D01*
X15553794Y18247208D01*
X15597211Y18345540D01*
X15599999Y18369572D01*
X15600000Y18369575D01*
X15600000Y18374999D01*
X15599999Y18375000D01*
X14575001Y18375000D01*
X14570228Y18370228D01*
X14556093Y18326722D01*
X14506593Y18290758D01*
X14445407Y18290758D01*
X14405996Y18314909D01*
X14143495Y18577410D01*
X14115718Y18631927D01*
X14114499Y18647414D01*
X14114499Y18935620D01*
X14114499Y18935622D01*
X14111730Y18959498D01*
X14103365Y18978442D01*
X14077288Y19037500D01*
X14068616Y19057141D01*
X13993141Y19132616D01*
X13993139Y19132617D01*
X13993138Y19132618D01*
X13953332Y19150194D01*
X13907736Y19190994D01*
X13894831Y19250803D01*
X13919545Y19306775D01*
X13951481Y19330482D01*
X14024109Y19364350D01*
X14107650Y19447891D01*
X14157574Y19554953D01*
X14157576Y19554960D01*
X14164000Y19603747D01*
X14164000Y19652999D01*
X14163999Y19653000D01*
X13618000Y19653000D01*
X13559809Y19671907D01*
X13523845Y19721407D01*
X13519000Y19752000D01*
X13519000Y19845001D01*
X17960000Y19845001D01*
X17960001Y19845000D01*
X18344999Y19845000D01*
X18345000Y19845001D01*
X18595000Y19845001D01*
X18595001Y19845000D01*
X18979999Y19845000D01*
X18980000Y19845001D01*
X18980000Y19899839D01*
X18973480Y19949355D01*
X18973478Y19949362D01*
X18922809Y20058022D01*
X18838021Y20142810D01*
X18729361Y20193479D01*
X18729354Y20193481D01*
X18679839Y20200000D01*
X18595001Y20200000D01*
X18595000Y20199999D01*
X18595000Y19845001D01*
X18345000Y19845001D01*
X18345000Y20199999D01*
X18344999Y20200000D01*
X18260161Y20200000D01*
X18210645Y20193481D01*
X18210638Y20193479D01*
X18101978Y20142810D01*
X18017190Y20058022D01*
X17966521Y19949362D01*
X17966519Y19949355D01*
X17960000Y19899839D01*
X17960000Y19845001D01*
X13519000Y19845001D01*
X13519000Y19903001D01*
X13769000Y19903001D01*
X13769001Y19903000D01*
X14163998Y19903000D01*
X14163999Y19903001D01*
X14163999Y19952251D01*
X14163998Y19952261D01*
X14157577Y20001042D01*
X14107650Y20108110D01*
X14024109Y20191651D01*
X13917047Y20241575D01*
X13917040Y20241577D01*
X13868254Y20248000D01*
X13769001Y20248000D01*
X13769000Y20247999D01*
X13769000Y19903001D01*
X13519000Y19903001D01*
X13519000Y20248000D01*
X13419748Y20248000D01*
X13419738Y20247999D01*
X13370958Y20241578D01*
X13363686Y20239458D01*
X13363304Y20240768D01*
X13310603Y20234300D01*
X13257091Y20263967D01*
X13231237Y20319422D01*
X13230500Y20331480D01*
X13230500Y23250000D01*
X13645131Y23250000D01*
X13662500Y23140339D01*
X13712905Y23041413D01*
X13791413Y22962905D01*
X13890339Y22912500D01*
X14000000Y22895131D01*
X14109661Y22912500D01*
X14208587Y22962905D01*
X14208589Y22962907D01*
X14241187Y22995504D01*
X14295704Y23023281D01*
X14311190Y23024500D01*
X21438810Y23024500D01*
X21497001Y23005593D01*
X21508813Y22995504D01*
X21541410Y22962907D01*
X21541412Y22962906D01*
X21541413Y22962905D01*
X21640339Y22912500D01*
X21750000Y22895131D01*
X21859661Y22912500D01*
X21958587Y22962905D01*
X22037095Y23041413D01*
X22087500Y23140339D01*
X22104869Y23250000D01*
X22087500Y23359661D01*
X22037095Y23458587D01*
X21958587Y23537095D01*
X21859661Y23587500D01*
X21750000Y23604869D01*
X21640338Y23587500D01*
X21541410Y23537094D01*
X21508813Y23504496D01*
X21454296Y23476719D01*
X21438810Y23475500D01*
X14311190Y23475500D01*
X14252999Y23494407D01*
X14241187Y23504496D01*
X14208589Y23537094D01*
X14109661Y23587500D01*
X14000000Y23604869D01*
X13890338Y23587500D01*
X13791413Y23537095D01*
X13712905Y23458587D01*
X13662500Y23359662D01*
X13652432Y23296093D01*
X13645131Y23250000D01*
X13230500Y23250000D01*
X13230500Y27585173D01*
X15137500Y27585173D01*
X15146232Y27541280D01*
X15146234Y27541276D01*
X15158258Y27523281D01*
X15179496Y27491496D01*
X15229278Y27458233D01*
X15240036Y27456093D01*
X15273172Y27449501D01*
X15273178Y27449501D01*
X15273180Y27449500D01*
X15273181Y27449500D01*
X18302819Y27449500D01*
X18302820Y27449500D01*
X18302821Y27449501D01*
X18302827Y27449501D01*
X18331198Y27455145D01*
X18346722Y27458233D01*
X18396504Y27491496D01*
X18429767Y27541278D01*
X18438500Y27585180D01*
X18438500Y30489364D01*
X24037500Y30489364D01*
X24048134Y30416375D01*
X24103174Y30303789D01*
X24191789Y30215174D01*
X24304375Y30160134D01*
X24377364Y30149500D01*
X24377367Y30149500D01*
X25498632Y30149500D01*
X25498636Y30149500D01*
X25571625Y30160134D01*
X25684211Y30215174D01*
X25772826Y30303789D01*
X25827866Y30416375D01*
X25831275Y30439775D01*
X25858373Y30494629D01*
X25912540Y30523081D01*
X25929240Y30524500D01*
X27115587Y30524500D01*
X27173778Y30505593D01*
X27185591Y30495504D01*
X31678829Y26002266D01*
X31678830Y26002264D01*
X31742264Y25938830D01*
X31776595Y25924610D01*
X31825146Y25904499D01*
X31825147Y25904499D01*
X31926378Y25904499D01*
X31926386Y25904500D01*
X32449462Y25904500D01*
X32507653Y25885593D01*
X32543617Y25836093D01*
X32544191Y25834262D01*
X32571186Y25745273D01*
X32571188Y25745268D01*
X32587274Y25715174D01*
X32664090Y25571462D01*
X32664092Y25571460D01*
X32664093Y25571458D01*
X32789112Y25419122D01*
X32789121Y25419113D01*
X32885684Y25339866D01*
X32941462Y25294090D01*
X33115273Y25201186D01*
X33303868Y25143976D01*
X33303870Y25143976D01*
X33303873Y25143975D01*
X33499997Y25124659D01*
X33500000Y25124659D01*
X33500003Y25124659D01*
X33696126Y25143975D01*
X33696127Y25143976D01*
X33696132Y25143976D01*
X33884727Y25201186D01*
X34058538Y25294090D01*
X34210883Y25419117D01*
X34335910Y25571462D01*
X34428814Y25745273D01*
X34486024Y25933868D01*
X34486606Y25939772D01*
X34505341Y26129997D01*
X34505341Y26130004D01*
X34486025Y26326127D01*
X34486024Y26326130D01*
X34486024Y26326132D01*
X34428814Y26514727D01*
X34335910Y26688538D01*
X34329613Y26696211D01*
X34210887Y26840879D01*
X34210878Y26840888D01*
X34058542Y26965907D01*
X34058540Y26965908D01*
X34058538Y26965910D01*
X33934339Y27032296D01*
X33884732Y27058812D01*
X33884730Y27058813D01*
X33696129Y27116025D01*
X33696126Y27116026D01*
X33500003Y27135341D01*
X33499997Y27135341D01*
X33303873Y27116026D01*
X33303870Y27116025D01*
X33115269Y27058813D01*
X33115267Y27058812D01*
X32941467Y26965913D01*
X32941457Y26965907D01*
X32789121Y26840888D01*
X32789112Y26840879D01*
X32664093Y26688543D01*
X32664087Y26688533D01*
X32571188Y26514733D01*
X32571186Y26514728D01*
X32571186Y26514727D01*
X32548873Y26441169D01*
X32544199Y26425762D01*
X32509214Y26375565D01*
X32451406Y26355519D01*
X32449462Y26355500D01*
X32004413Y26355500D01*
X31946222Y26374407D01*
X31934409Y26384496D01*
X27441170Y30877735D01*
X27441170Y30877736D01*
X27377736Y30941170D01*
X27377732Y30941172D01*
X27353458Y30951227D01*
X27353458Y30951228D01*
X27318775Y30965593D01*
X27294855Y30975501D01*
X27205145Y30975501D01*
X27193622Y30975501D01*
X27193614Y30975500D01*
X25929240Y30975500D01*
X25871049Y30994407D01*
X25835085Y31043907D01*
X25831276Y31060220D01*
X25827866Y31083625D01*
X25772826Y31196211D01*
X25684211Y31284826D01*
X25571625Y31339866D01*
X25571626Y31339866D01*
X25553377Y31342525D01*
X25498636Y31350500D01*
X24377364Y31350500D01*
X24333570Y31344120D01*
X24304373Y31339866D01*
X24191790Y31284827D01*
X24103173Y31196210D01*
X24048134Y31083627D01*
X24044725Y31060228D01*
X24037500Y31010636D01*
X24037500Y30489364D01*
X18438500Y30489364D01*
X18438500Y30614820D01*
X18438499Y30614822D01*
X18438499Y30614828D01*
X18429767Y30658721D01*
X18429765Y30658725D01*
X18396505Y30708502D01*
X18396504Y30708504D01*
X18395840Y30708948D01*
X18346724Y30741766D01*
X18346720Y30741768D01*
X18302827Y30750500D01*
X18302820Y30750500D01*
X15273180Y30750500D01*
X15273172Y30750500D01*
X15229279Y30741768D01*
X15229275Y30741766D01*
X15179498Y30708506D01*
X15179494Y30708502D01*
X15146234Y30658725D01*
X15146232Y30658721D01*
X15137500Y30614828D01*
X15137500Y27585173D01*
X13230500Y27585173D01*
X13230500Y28688614D01*
X13230501Y28688623D01*
X13230501Y28789854D01*
X13209955Y28839456D01*
X13196169Y28872738D01*
X13127093Y28941813D01*
X13127092Y28941813D01*
X10079541Y31989364D01*
X24037500Y31989364D01*
X24048134Y31916375D01*
X24103174Y31803789D01*
X24191789Y31715174D01*
X24304375Y31660134D01*
X24377364Y31649500D01*
X24377367Y31649500D01*
X25498632Y31649500D01*
X25498636Y31649500D01*
X25571625Y31660134D01*
X25684211Y31715174D01*
X25772826Y31803789D01*
X25827866Y31916375D01*
X25831275Y31939775D01*
X25858373Y31994629D01*
X25912540Y32023081D01*
X25929240Y32024500D01*
X28155587Y32024500D01*
X28213778Y32005593D01*
X28225591Y31995504D01*
X31678829Y28542266D01*
X31678830Y28542264D01*
X31742264Y28478830D01*
X31776595Y28464610D01*
X31825146Y28444499D01*
X31825147Y28444499D01*
X31926378Y28444499D01*
X31926386Y28444500D01*
X32449462Y28444500D01*
X32507653Y28425593D01*
X32543617Y28376093D01*
X32544191Y28374262D01*
X32571186Y28285273D01*
X32571188Y28285268D01*
X32618791Y28196210D01*
X32664090Y28111462D01*
X32664092Y28111460D01*
X32664093Y28111458D01*
X32789112Y27959122D01*
X32789121Y27959113D01*
X32941457Y27834094D01*
X32941462Y27834090D01*
X33115273Y27741186D01*
X33303868Y27683976D01*
X33303870Y27683976D01*
X33303873Y27683975D01*
X33499997Y27664659D01*
X33500000Y27664659D01*
X33500003Y27664659D01*
X33696126Y27683975D01*
X33696127Y27683976D01*
X33696132Y27683976D01*
X33884727Y27741186D01*
X34058538Y27834090D01*
X34210883Y27959117D01*
X34335910Y28111462D01*
X34428814Y28285273D01*
X34486024Y28473868D01*
X34492761Y28542264D01*
X34505341Y28669997D01*
X34505341Y28670004D01*
X34486025Y28866127D01*
X34486024Y28866130D01*
X34486024Y28866132D01*
X34428814Y29054727D01*
X34335910Y29228538D01*
X34335906Y29228543D01*
X34210887Y29380879D01*
X34210878Y29380888D01*
X34058542Y29505907D01*
X34058540Y29505908D01*
X34058538Y29505910D01*
X33966716Y29554990D01*
X33884732Y29598812D01*
X33884730Y29598813D01*
X33696129Y29656025D01*
X33696126Y29656026D01*
X33500003Y29675341D01*
X33499997Y29675341D01*
X33303873Y29656026D01*
X33303870Y29656025D01*
X33115269Y29598813D01*
X33115267Y29598812D01*
X32941467Y29505913D01*
X32941457Y29505907D01*
X32789121Y29380888D01*
X32789112Y29380879D01*
X32664093Y29228543D01*
X32664087Y29228533D01*
X32571188Y29054733D01*
X32571186Y29054728D01*
X32544199Y28965762D01*
X32509214Y28915565D01*
X32451406Y28895519D01*
X32449462Y28895500D01*
X32004413Y28895500D01*
X31946222Y28914407D01*
X31934409Y28924496D01*
X28481170Y32377735D01*
X28481170Y32377736D01*
X28417736Y32441170D01*
X28417732Y32441172D01*
X28393458Y32451227D01*
X28393458Y32451228D01*
X28359128Y32465447D01*
X28334855Y32475501D01*
X28245145Y32475501D01*
X28233622Y32475501D01*
X28233614Y32475500D01*
X25929240Y32475500D01*
X25871049Y32494407D01*
X25835085Y32543907D01*
X25831276Y32560220D01*
X25827866Y32583625D01*
X25772826Y32696211D01*
X25684211Y32784826D01*
X25571625Y32839866D01*
X25571626Y32839866D01*
X25553377Y32842525D01*
X25498636Y32850500D01*
X24377364Y32850500D01*
X24333570Y32844120D01*
X24304373Y32839866D01*
X24191790Y32784827D01*
X24103173Y32696210D01*
X24048134Y32583627D01*
X24048134Y32583625D01*
X24037500Y32510636D01*
X24037500Y31989364D01*
X10079541Y31989364D01*
X9691170Y32377735D01*
X9691170Y32377736D01*
X9627736Y32441170D01*
X9627732Y32441172D01*
X9603458Y32451227D01*
X9603458Y32451228D01*
X9569128Y32465447D01*
X9544855Y32475501D01*
X9455145Y32475501D01*
X9443622Y32475501D01*
X9443614Y32475500D01*
X8429240Y32475500D01*
X8371049Y32494407D01*
X8335085Y32543907D01*
X8331276Y32560220D01*
X8327866Y32583625D01*
X8272826Y32696211D01*
X8184211Y32784826D01*
X8071625Y32839866D01*
X8071626Y32839866D01*
X8053377Y32842525D01*
X7998636Y32850500D01*
X6877364Y32850500D01*
X6833570Y32844120D01*
X6804373Y32839866D01*
X6691790Y32784827D01*
X6603173Y32696210D01*
X6548134Y32583627D01*
X6548134Y32583625D01*
X6544724Y32560226D01*
X6517627Y32505371D01*
X6463460Y32476919D01*
X6446760Y32475500D01*
X2136386Y32475500D01*
X2136378Y32475501D01*
X2124855Y32475501D01*
X2035146Y32475501D01*
X2035144Y32475501D01*
X1986594Y32455391D01*
X1952265Y32441172D01*
X1952263Y32441170D01*
X1888829Y32377737D01*
X1888830Y32377736D01*
X1888829Y32377735D01*
X-916611Y29572296D01*
X-971128Y29544519D01*
X-1031560Y29554090D01*
X-1033283Y29554990D01*
X-1115268Y29598812D01*
X-1115270Y29598813D01*
X-1303871Y29656025D01*
X-1303874Y29656026D01*
X-1499997Y29675341D01*
X-1500003Y29675341D01*
X-1696127Y29656026D01*
X-1696130Y29656025D01*
X-1884731Y29598813D01*
X-1884733Y29598812D01*
X-2058533Y29505913D01*
X-2058543Y29505907D01*
X-2210879Y29380888D01*
X-2210888Y29380879D01*
X-2335907Y29228543D01*
X-2335913Y29228533D01*
X-2428812Y29054733D01*
X-2428813Y29054731D01*
X-2486025Y28866130D01*
X-2486026Y28866127D01*
X-2505341Y28670004D01*
X-2505341Y28669997D01*
X-2486026Y28473874D01*
X-2486025Y28473871D01*
X-2486024Y28473868D01*
X-2448601Y28350500D01*
X-2428813Y28285270D01*
X-2428812Y28285268D01*
X-2381209Y28196210D01*
X-2335910Y28111462D01*
X-2335908Y28111460D01*
X-2335907Y28111458D01*
X-2210888Y27959122D01*
X-2210879Y27959113D01*
X-2058543Y27834094D01*
X-2058538Y27834090D01*
X-1884727Y27741186D01*
X-1696132Y27683976D01*
X-1696130Y27683976D01*
X-1696127Y27683975D01*
X-1500003Y27664659D01*
X-1500000Y27664659D01*
X-1499997Y27664659D01*
X-1303874Y27683975D01*
X-1303873Y27683976D01*
X-1303868Y27683976D01*
X-1115273Y27741186D01*
X-941462Y27834090D01*
X-789117Y27959117D01*
X-664090Y28111462D01*
X-571186Y28285273D01*
X-513976Y28473868D01*
X-507239Y28542264D01*
X-494659Y28669997D01*
X-494659Y28670004D01*
X-513975Y28866127D01*
X-513976Y28866130D01*
X-513976Y28866132D01*
X-571186Y29054727D01*
X-615013Y29136722D01*
X-625768Y29196950D01*
X-599067Y29252002D01*
X-597756Y29253341D01*
X2144409Y31995504D01*
X2198926Y32023281D01*
X2214413Y32024500D01*
X6446760Y32024500D01*
X6504951Y32005593D01*
X6540915Y31956093D01*
X6544723Y31939781D01*
X6548134Y31916375D01*
X6603174Y31803789D01*
X6691789Y31715174D01*
X6804375Y31660134D01*
X6877364Y31649500D01*
X6877367Y31649500D01*
X7998632Y31649500D01*
X7998636Y31649500D01*
X8071625Y31660134D01*
X8184211Y31715174D01*
X8272826Y31803789D01*
X8327866Y31916375D01*
X8331275Y31939775D01*
X8358373Y31994629D01*
X8412540Y32023081D01*
X8429240Y32024500D01*
X9365587Y32024500D01*
X9423778Y32005593D01*
X9435591Y31995504D01*
X12750504Y28680591D01*
X12778281Y28626074D01*
X12779500Y28610587D01*
X12779500Y20280190D01*
X12760593Y20221999D01*
X12711093Y20186035D01*
X12649907Y20186035D01*
X12610496Y20210186D01*
X12579496Y20241186D01*
X12551719Y20295703D01*
X12550500Y20311190D01*
X12550500Y27969857D01*
X12516170Y28052736D01*
X12452736Y28116171D01*
X12452736Y28116170D01*
X12452735Y28116171D01*
X9691170Y30877735D01*
X9691170Y30877736D01*
X9627736Y30941170D01*
X9627732Y30941172D01*
X9603458Y30951227D01*
X9603458Y30951228D01*
X9568775Y30965593D01*
X9544855Y30975501D01*
X9455145Y30975501D01*
X9443622Y30975501D01*
X9443614Y30975500D01*
X8429240Y30975500D01*
X8371049Y30994407D01*
X8335085Y31043907D01*
X8331276Y31060220D01*
X8327866Y31083625D01*
X8272826Y31196211D01*
X8184211Y31284826D01*
X8071625Y31339866D01*
X8071626Y31339866D01*
X8053377Y31342525D01*
X7998636Y31350500D01*
X6877364Y31350500D01*
X6833570Y31344120D01*
X6804373Y31339866D01*
X6691790Y31284827D01*
X6603173Y31196210D01*
X6548134Y31083627D01*
X6547210Y31077284D01*
X6544724Y31060226D01*
X6517627Y31005371D01*
X6463460Y30976919D01*
X6446760Y30975500D01*
X3176386Y30975500D01*
X3176378Y30975501D01*
X3164855Y30975501D01*
X3075146Y30975501D01*
X3075144Y30975501D01*
X3026594Y30955391D01*
X2992265Y30941172D01*
X2992263Y30941170D01*
X2928829Y30877737D01*
X2928830Y30877736D01*
X2928829Y30877735D01*
X-916611Y27032296D01*
X-971128Y27004519D01*
X-1031560Y27014090D01*
X-1033283Y27014990D01*
X-1115268Y27058812D01*
X-1115270Y27058813D01*
X-1303871Y27116025D01*
X-1303874Y27116026D01*
X-1499997Y27135341D01*
X-1500003Y27135341D01*
X-1696127Y27116026D01*
X-1696130Y27116025D01*
X-1884731Y27058813D01*
X-1884733Y27058812D01*
X-2058533Y26965913D01*
X-2058543Y26965907D01*
X-2210879Y26840888D01*
X-2210888Y26840879D01*
X-2335907Y26688543D01*
X-2335913Y26688533D01*
X-2428812Y26514733D01*
X-2428813Y26514731D01*
X-2486025Y26326130D01*
X-2486026Y26326127D01*
X-2505341Y26130004D01*
X-2505341Y26129997D01*
X-2486026Y25933874D01*
X-2486025Y25933871D01*
X-2428813Y25745270D01*
X-2428812Y25745268D01*
X-2412726Y25715174D01*
X-2335910Y25571462D01*
X-2335908Y25571460D01*
X-2335907Y25571458D01*
X-2210888Y25419122D01*
X-2210879Y25419113D01*
X-2114316Y25339866D01*
X-2058538Y25294090D01*
X-1884727Y25201186D01*
X-1696132Y25143976D01*
X-1696130Y25143976D01*
X-1696127Y25143975D01*
X-1500003Y25124659D01*
X-1500000Y25124659D01*
X-1499997Y25124659D01*
X-1303874Y25143975D01*
X-1303873Y25143976D01*
X-1303868Y25143976D01*
X-1115273Y25201186D01*
X-941462Y25294090D01*
X-789117Y25419117D01*
X-664090Y25571462D01*
X-571186Y25745273D01*
X-513976Y25933868D01*
X-513394Y25939772D01*
X-494659Y26129997D01*
X-494659Y26130004D01*
X-513975Y26326127D01*
X-513976Y26326130D01*
X-513976Y26326132D01*
X-571186Y26514727D01*
X-615013Y26596722D01*
X-625768Y26656950D01*
X-599067Y26712002D01*
X-597756Y26713341D01*
X3184409Y30495504D01*
X3238926Y30523281D01*
X3254413Y30524500D01*
X6446760Y30524500D01*
X6504951Y30505593D01*
X6540915Y30456093D01*
X6544723Y30439781D01*
X6548134Y30416375D01*
X6603174Y30303789D01*
X6691789Y30215174D01*
X6804375Y30160134D01*
X6877364Y30149500D01*
X6877367Y30149500D01*
X7998632Y30149500D01*
X7998636Y30149500D01*
X8071625Y30160134D01*
X8184211Y30215174D01*
X8272826Y30303789D01*
X8327866Y30416375D01*
X8331275Y30439775D01*
X8358373Y30494629D01*
X8412540Y30523081D01*
X8429240Y30524500D01*
X9365587Y30524500D01*
X9423778Y30505593D01*
X9435591Y30495504D01*
X12070504Y27860591D01*
X12098281Y27806074D01*
X12099500Y27790587D01*
X12099500Y23618116D01*
X12080593Y23559925D01*
X12031093Y23523961D01*
X11969907Y23523961D01*
X11950641Y23533778D01*
X11950529Y23533557D01*
X11943588Y23537094D01*
X11943587Y23537095D01*
X11844661Y23587500D01*
X11735000Y23604869D01*
X11625338Y23587500D01*
X11526413Y23537095D01*
X11447905Y23458587D01*
X11397500Y23359662D01*
X11387432Y23296093D01*
X11380131Y23250000D01*
X11397500Y23140339D01*
X11447905Y23041413D01*
X11480505Y23008813D01*
X11508281Y22954298D01*
X11509500Y22938811D01*
X11509500Y21086413D01*
X11490593Y21028222D01*
X11480504Y21016409D01*
X10908591Y20444496D01*
X10854074Y20416719D01*
X10838587Y20415500D01*
X10095143Y20415500D01*
X10012264Y20381171D01*
X9948829Y20317737D01*
X9948830Y20317736D01*
X9948829Y20317735D01*
X8686265Y19055171D01*
X8686264Y19055170D01*
X8686263Y19055171D01*
X8622830Y18991738D01*
X8622830Y18991735D01*
X8588499Y18908855D01*
X8588499Y18807623D01*
X8588500Y18807614D01*
X8588500Y16183190D01*
X8569593Y16124999D01*
X8559504Y16113187D01*
X8526906Y16080590D01*
X8476500Y15981662D01*
X8467526Y15925000D01*
X8459131Y15872000D01*
X8476500Y15762339D01*
X8526905Y15663413D01*
X8605413Y15584905D01*
X8605415Y15584904D01*
X8641124Y15566709D01*
X8684389Y15523445D01*
X8693960Y15463013D01*
X8666182Y15408496D01*
X8611666Y15380719D01*
X8596179Y15379500D01*
X1304316Y15379500D01*
X1248103Y15397765D01*
X1240629Y15390290D01*
X1195684Y15379500D01*
X179143Y15379500D01*
X96264Y15345171D01*
X32829Y15281737D01*
X32830Y15281736D01*
X32829Y15281735D01*
X-916611Y14332296D01*
X-971128Y14304519D01*
X-1031560Y14314090D01*
X-1033283Y14314990D01*
X-1115268Y14358812D01*
X-1115270Y14358813D01*
X-1303871Y14416025D01*
X-1303874Y14416026D01*
X-1499997Y14435341D01*
X-1500003Y14435341D01*
X-1696127Y14416026D01*
X-1696130Y14416025D01*
X-1884731Y14358813D01*
X-1884733Y14358812D01*
X-2058533Y14265913D01*
X-2058543Y14265907D01*
X-2210879Y14140888D01*
X-2210888Y14140879D01*
X-2335907Y13988543D01*
X-2335913Y13988533D01*
X-2428812Y13814733D01*
X-2428813Y13814731D01*
X-2486025Y13626130D01*
X-2486026Y13626127D01*
X-2505341Y13430004D01*
X-2505341Y13429997D01*
X-2486026Y13233874D01*
X-2486025Y13233871D01*
X-2428813Y13045270D01*
X-2428812Y13045268D01*
X-2399964Y12991298D01*
X-2335910Y12871462D01*
X-2335908Y12871460D01*
X-2335907Y12871458D01*
X-2210888Y12719122D01*
X-2210879Y12719113D01*
X-2092868Y12622264D01*
X-2058538Y12594090D01*
X-1884727Y12501186D01*
X-1696132Y12443976D01*
X-1696130Y12443976D01*
X-1696127Y12443975D01*
X-1500003Y12424659D01*
X-1500000Y12424659D01*
X-1499997Y12424659D01*
X-1303874Y12443975D01*
X-1303873Y12443976D01*
X-1303868Y12443976D01*
X-1115273Y12501186D01*
X-941462Y12594090D01*
X-789117Y12719117D01*
X-664090Y12871462D01*
X-571186Y13045273D01*
X-513976Y13233868D01*
X-513559Y13238095D01*
X-494659Y13429997D01*
X-494659Y13430004D01*
X-513975Y13626127D01*
X-513976Y13626130D01*
X-513976Y13626132D01*
X-571186Y13814727D01*
X-615013Y13896722D01*
X-625768Y13956950D01*
X-599067Y14012002D01*
X-597705Y14013391D01*
X288410Y14899504D01*
X342926Y14927281D01*
X358413Y14928500D01*
X1595281Y14928500D01*
X1653472Y14909593D01*
X1689436Y14860093D01*
X1689436Y14798907D01*
X1665285Y14759496D01*
X-1196171Y11898041D01*
X-1250688Y11870264D01*
X-1294912Y11873307D01*
X-1300492Y11875000D01*
X-1303874Y11876026D01*
X-1499997Y11895341D01*
X-1500003Y11895341D01*
X-1696127Y11876026D01*
X-1696130Y11876025D01*
X-1884731Y11818813D01*
X-1884733Y11818812D01*
X-2058533Y11725913D01*
X-2058543Y11725907D01*
X-2210879Y11600888D01*
X-2210888Y11600879D01*
X-2335907Y11448543D01*
X-2335913Y11448533D01*
X-2428812Y11274733D01*
X-2428813Y11274731D01*
X-2486025Y11086130D01*
X-2486026Y11086127D01*
X-2505341Y10890004D01*
X-2505341Y10889997D01*
X-2486026Y10693874D01*
X-2486025Y10693871D01*
X-2460431Y10609499D01*
X-2429035Y10506000D01*
X-2428813Y10505270D01*
X-2428812Y10505268D01*
X-2382693Y10418987D01*
X-2335910Y10331462D01*
X-2335908Y10331460D01*
X-2335907Y10331458D01*
X-2210888Y10179122D01*
X-2210879Y10179113D01*
X-2074879Y10067501D01*
X-2058538Y10054090D01*
X-1884727Y9961186D01*
X-1696132Y9903976D01*
X-1696130Y9903976D01*
X-1696127Y9903975D01*
X-1500003Y9884659D01*
X-1500000Y9884659D01*
X-1499997Y9884659D01*
X-1303874Y9903975D01*
X-1303873Y9903976D01*
X-1303868Y9903976D01*
X-1115273Y9961186D01*
X-941462Y10054090D01*
X-789117Y10179117D01*
X-664090Y10331462D01*
X-661811Y10335727D01*
X-617707Y10378134D01*
X-557099Y10386519D01*
X-503137Y10357677D01*
X-476434Y10302627D01*
X-475500Y10289060D01*
X-475500Y9734414D01*
X-494407Y9676223D01*
X-504497Y9664410D01*
X-916612Y9252296D01*
X-971128Y9224519D01*
X-1031560Y9234090D01*
X-1033283Y9234990D01*
X-1115268Y9278812D01*
X-1115270Y9278813D01*
X-1133553Y9284359D01*
X-1303868Y9336024D01*
X-1303871Y9336025D01*
X-1303874Y9336026D01*
X-1499997Y9355341D01*
X-1500003Y9355341D01*
X-1696127Y9336026D01*
X-1696130Y9336025D01*
X-1884731Y9278813D01*
X-1884733Y9278812D01*
X-2058533Y9185913D01*
X-2058543Y9185907D01*
X-2210879Y9060888D01*
X-2210888Y9060879D01*
X-2335907Y8908543D01*
X-2335913Y8908533D01*
X-2428812Y8734733D01*
X-2428813Y8734731D01*
X-2486025Y8546130D01*
X-2486026Y8546127D01*
X-2505341Y8350004D01*
X-2505341Y8349997D01*
X-2486026Y8153874D01*
X-2486025Y8153871D01*
X-2486024Y8153868D01*
X-2448601Y8030500D01*
X-2428813Y7965270D01*
X-2428812Y7965268D01*
X-2367600Y7850750D01*
X-2335910Y7791462D01*
X-2335908Y7791460D01*
X-2335907Y7791458D01*
X-2210888Y7639122D01*
X-2210879Y7639113D01*
X-2063818Y7518423D01*
X-2058538Y7514090D01*
X-1935463Y7448305D01*
X-1905453Y7432264D01*
X-1884727Y7421186D01*
X-1696132Y7363976D01*
X-1696130Y7363976D01*
X-1696127Y7363975D01*
X-1500003Y7344659D01*
X-1500000Y7344659D01*
X-1499997Y7344659D01*
X-1303874Y7363975D01*
X-1303873Y7363976D01*
X-1303868Y7363976D01*
X-1115273Y7421186D01*
X-941462Y7514090D01*
X-789117Y7639117D01*
X-664090Y7791462D01*
X-571186Y7965273D01*
X-513976Y8153868D01*
X-513511Y8158584D01*
X-494659Y8349997D01*
X-494659Y8350004D01*
X-513975Y8546127D01*
X-513976Y8546130D01*
X-513976Y8546132D01*
X-571186Y8734727D01*
X-615013Y8816722D01*
X-625768Y8876950D01*
X-599067Y8932002D01*
X-597705Y8933391D01*
X-144503Y9386592D01*
X-89987Y9414369D01*
X-29555Y9404798D01*
X13710Y9361533D01*
X24500Y9316588D01*
X24500Y7694414D01*
X5593Y7636223D01*
X-4496Y7624410D01*
X-916611Y6712296D01*
X-971128Y6684519D01*
X-1031560Y6694090D01*
X-1033283Y6694990D01*
X-1115268Y6738812D01*
X-1115270Y6738813D01*
X-1149317Y6749141D01*
X-1244504Y6778016D01*
X-1303871Y6796025D01*
X-1303874Y6796026D01*
X-1499997Y6815341D01*
X-1500003Y6815341D01*
X-1696127Y6796026D01*
X-1696130Y6796025D01*
X-1884731Y6738813D01*
X-1884733Y6738812D01*
X-2058533Y6645913D01*
X-2058543Y6645907D01*
X-2210879Y6520888D01*
X-2210888Y6520879D01*
X-2335907Y6368543D01*
X-2335913Y6368533D01*
X-2428812Y6194733D01*
X-2428813Y6194731D01*
X-2486025Y6006130D01*
X-2486026Y6006127D01*
X-2505341Y5810004D01*
X-2505341Y5809997D01*
X-3500000Y5809997D01*
X-3500000Y15969997D01*
X-2505341Y15969997D01*
X-2486026Y15773874D01*
X-2486025Y15773871D01*
X-2486024Y15773868D01*
X-2429490Y15587500D01*
X-2428813Y15585270D01*
X-2428812Y15585268D01*
X-2384838Y15502999D01*
X-2335910Y15411462D01*
X-2335908Y15411460D01*
X-2335907Y15411458D01*
X-2210888Y15259122D01*
X-2210879Y15259113D01*
X-2058543Y15134094D01*
X-2058538Y15134090D01*
X-1925647Y15063058D01*
X-1885489Y15041593D01*
X-1884727Y15041186D01*
X-1696132Y14983976D01*
X-1696130Y14983976D01*
X-1696127Y14983975D01*
X-1500003Y14964659D01*
X-1500000Y14964659D01*
X-1499997Y14964659D01*
X-1303874Y14983975D01*
X-1303873Y14983976D01*
X-1303868Y14983976D01*
X-1115273Y15041186D01*
X-941462Y15134090D01*
X-789117Y15259117D01*
X-664090Y15411462D01*
X-571186Y15585273D01*
X-513976Y15773868D01*
X-511027Y15803805D01*
X-499091Y15925000D01*
X895131Y15925000D01*
X912500Y15815339D01*
X962905Y15716413D01*
X1041413Y15637905D01*
X1131937Y15591781D01*
X1140339Y15587500D01*
X1211171Y15576281D01*
X1246060Y15558504D01*
X1246125Y15558593D01*
X1288829Y15576281D01*
X1306447Y15579072D01*
X1359661Y15587500D01*
X1458587Y15637905D01*
X1537095Y15716413D01*
X1587500Y15815339D01*
X1604869Y15925000D01*
X1604869Y15925001D01*
X1606088Y15932696D01*
X1608864Y15932257D01*
X1623776Y15978149D01*
X1633866Y15989962D01*
X1869409Y16225504D01*
X1923925Y16253281D01*
X1939412Y16254500D01*
X4300500Y16254500D01*
X4358691Y16235593D01*
X4394655Y16186093D01*
X4399500Y16155500D01*
X4399500Y16085173D01*
X4408232Y16041280D01*
X4408234Y16041276D01*
X4412654Y16034661D01*
X4441496Y15991496D01*
X4491278Y15958233D01*
X4502267Y15956047D01*
X4535172Y15949501D01*
X4535178Y15949501D01*
X4535180Y15949500D01*
X4535181Y15949500D01*
X7214819Y15949500D01*
X7214820Y15949500D01*
X7214821Y15949501D01*
X7214827Y15949501D01*
X7236623Y15953838D01*
X7258722Y15958233D01*
X7308504Y15991496D01*
X7341767Y16041278D01*
X7348057Y16072900D01*
X7350499Y16085173D01*
X7350500Y16085182D01*
X7350500Y16874819D01*
X7350499Y16874828D01*
X7341767Y16918721D01*
X7341765Y16918725D01*
X7315696Y16957740D01*
X7308504Y16968504D01*
X7298272Y16975341D01*
X7258724Y17001766D01*
X7258720Y17001768D01*
X7214827Y17010500D01*
X7214820Y17010500D01*
X4535180Y17010500D01*
X4535172Y17010500D01*
X4491279Y17001768D01*
X4491275Y17001766D01*
X4441498Y16968506D01*
X4441494Y16968502D01*
X4408234Y16918725D01*
X4408232Y16918721D01*
X4399500Y16874828D01*
X4399500Y16804500D01*
X4380593Y16746309D01*
X4331093Y16710345D01*
X4300500Y16705500D01*
X1861386Y16705500D01*
X1861378Y16705501D01*
X1849855Y16705501D01*
X1760146Y16705501D01*
X1760144Y16705501D01*
X1711594Y16685391D01*
X1677265Y16671172D01*
X1677263Y16671170D01*
X1613829Y16607737D01*
X1613830Y16607736D01*
X1314959Y16308865D01*
X1260442Y16281088D01*
X1254983Y16280659D01*
X1140338Y16262500D01*
X1041413Y16212095D01*
X962905Y16133587D01*
X912500Y16034662D01*
X899012Y15949500D01*
X895131Y15925000D01*
X-499091Y15925000D01*
X-494659Y15969997D01*
X-494659Y15970004D01*
X-513975Y16166127D01*
X-513976Y16166130D01*
X-513976Y16166132D01*
X-571186Y16354727D01*
X-571189Y16354733D01*
X-615708Y16438023D01*
X-626464Y16498255D01*
X-599762Y16553307D01*
X-598451Y16554646D01*
X202076Y17355173D01*
X4399500Y17355173D01*
X4408232Y17311280D01*
X4408234Y17311276D01*
X4432807Y17274500D01*
X4441496Y17261496D01*
X4491278Y17228233D01*
X4502327Y17226036D01*
X4535172Y17219501D01*
X4535178Y17219501D01*
X4535180Y17219500D01*
X4535181Y17219500D01*
X7214819Y17219500D01*
X7214820Y17219500D01*
X7214821Y17219501D01*
X7214827Y17219501D01*
X7236623Y17223838D01*
X7258722Y17228233D01*
X7308504Y17261496D01*
X7341767Y17311278D01*
X7344200Y17323511D01*
X7374095Y17376892D01*
X7429660Y17402509D01*
X7456783Y17401977D01*
X7500000Y17395131D01*
X7609661Y17412500D01*
X7708587Y17462905D01*
X7787095Y17541413D01*
X7837500Y17640339D01*
X7854869Y17750000D01*
X7837500Y17859661D01*
X7787095Y17958587D01*
X7708587Y18037095D01*
X7609661Y18087500D01*
X7500000Y18104869D01*
X7499997Y18104869D01*
X7456783Y18098025D01*
X7396351Y18107597D01*
X7353087Y18150862D01*
X7344200Y18176487D01*
X7341767Y18188722D01*
X7308504Y18238504D01*
X7307840Y18238948D01*
X7258724Y18271766D01*
X7258720Y18271768D01*
X7214827Y18280500D01*
X7214820Y18280500D01*
X4535180Y18280500D01*
X4535172Y18280500D01*
X4491279Y18271768D01*
X4491275Y18271766D01*
X4441498Y18238506D01*
X4441494Y18238502D01*
X4408234Y18188725D01*
X4408232Y18188721D01*
X4399500Y18144828D01*
X4399500Y17355173D01*
X202076Y17355173D01*
X1472076Y18625173D01*
X4399500Y18625173D01*
X4408232Y18581280D01*
X4408234Y18581276D01*
X4422503Y18559921D01*
X4441496Y18531496D01*
X4491278Y18498233D01*
X4502327Y18496036D01*
X4535172Y18489501D01*
X4535178Y18489501D01*
X4535180Y18489500D01*
X4535181Y18489500D01*
X7214819Y18489500D01*
X7214820Y18489500D01*
X7214821Y18489501D01*
X7214827Y18489501D01*
X7236623Y18493838D01*
X7258722Y18498233D01*
X7308504Y18531496D01*
X7341767Y18581278D01*
X7346162Y18603377D01*
X7350499Y18625173D01*
X7350500Y18625182D01*
X7350500Y18695500D01*
X7369407Y18753691D01*
X7418907Y18789655D01*
X7449500Y18794500D01*
X7460614Y18794500D01*
X7460622Y18794499D01*
X7472145Y18794499D01*
X7561854Y18794499D01*
X7561855Y18794499D01*
X7628886Y18822265D01*
X7644736Y18828830D01*
X7708170Y18892264D01*
X7708170Y18892265D01*
X7722076Y18906171D01*
X7722085Y18906181D01*
X8687734Y19871830D01*
X8687736Y19871830D01*
X8751170Y19935264D01*
X8768863Y19977979D01*
X8785501Y20018146D01*
X8785501Y20107855D01*
X8785501Y20115829D01*
X8785500Y20115843D01*
X8785500Y21135500D01*
X8804407Y21193691D01*
X8853907Y21229655D01*
X8884500Y21234500D01*
X9360440Y21234500D01*
X9418631Y21215593D01*
X9451003Y21175491D01*
X9474187Y21122984D01*
X9550984Y21046187D01*
X9650338Y21002318D01*
X9674627Y20999500D01*
X10041372Y20999501D01*
X10065662Y21002318D01*
X10165016Y21046187D01*
X10241813Y21122984D01*
X10247434Y21135716D01*
X10288232Y21181312D01*
X10348040Y21194219D01*
X10404013Y21169508D01*
X10428562Y21135722D01*
X10434186Y21122986D01*
X10434187Y21122984D01*
X10510984Y21046187D01*
X10610338Y21002318D01*
X10634627Y20999500D01*
X11001372Y20999501D01*
X11025662Y21002318D01*
X11125016Y21046187D01*
X11201813Y21122984D01*
X11245682Y21222338D01*
X11248500Y21246627D01*
X11248499Y21673372D01*
X11245682Y21697662D01*
X11201813Y21797016D01*
X11167875Y21830954D01*
X11140100Y21885468D01*
X11149671Y21945900D01*
X11155500Y21957339D01*
X11172869Y22067000D01*
X11155500Y22176661D01*
X11105095Y22275587D01*
X11026587Y22354095D01*
X10927661Y22404500D01*
X10818000Y22421869D01*
X10708338Y22404500D01*
X10609413Y22354095D01*
X10530905Y22275587D01*
X10480500Y22176662D01*
X10463131Y22067001D01*
X10463131Y22067000D01*
X10480499Y21957342D01*
X10480499Y21957341D01*
X10480500Y21957339D01*
X10486327Y21945902D01*
X10486329Y21945899D01*
X10495899Y21885467D01*
X10468123Y21830954D01*
X10434188Y21797018D01*
X10434187Y21797017D01*
X10428564Y21784281D01*
X10387762Y21738687D01*
X10327953Y21725782D01*
X10271982Y21750497D01*
X10247436Y21784281D01*
X10241813Y21797015D01*
X10241813Y21797016D01*
X10165016Y21873813D01*
X10065662Y21917682D01*
X10065661Y21917683D01*
X10065659Y21917683D01*
X10041376Y21920500D01*
X9674630Y21920500D01*
X9674627Y21920499D01*
X9650338Y21917683D01*
X9550984Y21873813D01*
X9474187Y21797016D01*
X9451003Y21744511D01*
X9410204Y21698916D01*
X9360440Y21685500D01*
X8871190Y21685500D01*
X8812999Y21704407D01*
X8801187Y21714496D01*
X8768589Y21747094D01*
X8669661Y21797500D01*
X8560000Y21814869D01*
X8450338Y21797500D01*
X8351410Y21747094D01*
X8318813Y21714496D01*
X8264296Y21686719D01*
X8248810Y21685500D01*
X7658718Y21685500D01*
X7600527Y21704407D01*
X7568154Y21744511D01*
X7539616Y21809140D01*
X7539616Y21809141D01*
X7464141Y21884616D01*
X7462214Y21885467D01*
X7366498Y21927731D01*
X7342626Y21930500D01*
X6987380Y21930500D01*
X6987377Y21930499D01*
X6963499Y21927730D01*
X6865860Y21884617D01*
X6790383Y21809140D01*
X6772806Y21769332D01*
X6732005Y21723737D01*
X6672196Y21710832D01*
X6616224Y21735547D01*
X6592518Y21767481D01*
X6558650Y21840110D01*
X6475109Y21923651D01*
X6368047Y21973575D01*
X6368040Y21973577D01*
X6319254Y21980000D01*
X6270001Y21980000D01*
X6270000Y21979999D01*
X6270000Y20940002D01*
X6270001Y20940001D01*
X6319251Y20940001D01*
X6319260Y20940002D01*
X6368041Y20946423D01*
X6475109Y20996350D01*
X6558649Y21079890D01*
X6592516Y21152518D01*
X6634244Y21197267D01*
X6694305Y21208942D01*
X6749758Y21183085D01*
X6772805Y21150670D01*
X6790383Y21110861D01*
X6790384Y21110859D01*
X6865859Y21035384D01*
X6908833Y21016409D01*
X6963501Y20992270D01*
X6967749Y20991778D01*
X6987377Y20989500D01*
X7342622Y20989501D01*
X7366498Y20992270D01*
X7464141Y21035384D01*
X7539616Y21110859D01*
X7568153Y21175490D01*
X7608953Y21221084D01*
X7658717Y21234500D01*
X8235500Y21234500D01*
X8293691Y21215593D01*
X8329655Y21166093D01*
X8334500Y21135500D01*
X8334500Y20197413D01*
X8315593Y20139222D01*
X8305504Y20127409D01*
X7519504Y19341409D01*
X7464987Y19313632D01*
X7404555Y19323203D01*
X7361290Y19366468D01*
X7350500Y19411413D01*
X7350500Y19414819D01*
X7350499Y19414828D01*
X7343372Y19450655D01*
X7341767Y19458722D01*
X7308504Y19508504D01*
X7264607Y19537835D01*
X7258724Y19541766D01*
X7258720Y19541768D01*
X7214827Y19550500D01*
X7214820Y19550500D01*
X4535180Y19550500D01*
X4535172Y19550500D01*
X4491279Y19541768D01*
X4491275Y19541766D01*
X4441498Y19508506D01*
X4441494Y19508502D01*
X4408234Y19458725D01*
X4408232Y19458721D01*
X4399500Y19414828D01*
X4399500Y18625173D01*
X1472076Y18625173D01*
X3988734Y21141830D01*
X3988736Y21141830D01*
X4052170Y21205264D01*
X4064793Y21235740D01*
X5675001Y21235740D01*
X5681422Y21186959D01*
X5731349Y21079891D01*
X5814890Y20996350D01*
X5921952Y20946426D01*
X5921959Y20946424D01*
X5970745Y20940001D01*
X6020000Y20940002D01*
X6020000Y21334999D01*
X6019999Y21335000D01*
X5675002Y21335000D01*
X5675001Y21334999D01*
X5675001Y21235740D01*
X4064793Y21235740D01*
X4069303Y21246627D01*
X4086501Y21288145D01*
X4086501Y21377855D01*
X4086501Y21385829D01*
X4086500Y21385843D01*
X4086500Y21585001D01*
X5675000Y21585001D01*
X5675001Y21585000D01*
X6019999Y21585000D01*
X6020000Y21585001D01*
X6020000Y21980001D01*
X5970750Y21980000D01*
X5970737Y21979999D01*
X5921959Y21973578D01*
X5814890Y21923651D01*
X5731349Y21840110D01*
X5681425Y21733048D01*
X5681423Y21733041D01*
X5675000Y21684254D01*
X5675000Y21585001D01*
X4086500Y21585001D01*
X4086500Y22226587D01*
X4105407Y22284778D01*
X4115496Y22296591D01*
X4808269Y22989364D01*
X6537500Y22989364D01*
X6538891Y22979818D01*
X6548134Y22916374D01*
X6566346Y22879122D01*
X6603174Y22803789D01*
X6691789Y22715174D01*
X6804375Y22660134D01*
X6877364Y22649500D01*
X6877367Y22649500D01*
X7998632Y22649500D01*
X7998636Y22649500D01*
X8071625Y22660134D01*
X8184211Y22715174D01*
X8272826Y22803789D01*
X8298455Y22856215D01*
X8340997Y22900187D01*
X8401263Y22910757D01*
X8402785Y22910529D01*
X8500000Y22895131D01*
X8609661Y22912500D01*
X8708587Y22962905D01*
X8787095Y23041413D01*
X8837500Y23140339D01*
X8854869Y23250000D01*
X8837500Y23359661D01*
X8787095Y23458587D01*
X8708587Y23537095D01*
X8609661Y23587500D01*
X8500000Y23604869D01*
X8499999Y23604869D01*
X8402882Y23589487D01*
X8342450Y23599058D01*
X8299185Y23642323D01*
X8298454Y23643788D01*
X8272826Y23696210D01*
X8272826Y23696211D01*
X8184211Y23784826D01*
X8071625Y23839866D01*
X8071626Y23839866D01*
X8053377Y23842525D01*
X7998636Y23850500D01*
X6877364Y23850500D01*
X6836154Y23844496D01*
X6804373Y23839866D01*
X6691790Y23784827D01*
X6603173Y23696210D01*
X6548134Y23583627D01*
X6548134Y23583625D01*
X6537500Y23510636D01*
X6537500Y22989364D01*
X4808269Y22989364D01*
X6314409Y24495504D01*
X6368926Y24523281D01*
X6384413Y24524500D01*
X6446760Y24524500D01*
X6504951Y24505593D01*
X6540915Y24456093D01*
X6544723Y24439781D01*
X6548134Y24416375D01*
X6603174Y24303789D01*
X6691789Y24215174D01*
X6804375Y24160134D01*
X6877364Y24149500D01*
X6877367Y24149500D01*
X7998632Y24149500D01*
X7998636Y24149500D01*
X8071625Y24160134D01*
X8184211Y24215174D01*
X8272826Y24303789D01*
X8327866Y24416375D01*
X8338500Y24489364D01*
X8338500Y25010636D01*
X8327866Y25083625D01*
X8272826Y25196211D01*
X8184211Y25284826D01*
X8071625Y25339866D01*
X8071626Y25339866D01*
X8053377Y25342525D01*
X7998636Y25350500D01*
X6877364Y25350500D01*
X6833570Y25344120D01*
X6804373Y25339866D01*
X6691790Y25284827D01*
X6603173Y25196210D01*
X6548134Y25083627D01*
X6548134Y25083625D01*
X6544724Y25060226D01*
X6517627Y25005371D01*
X6463460Y24976919D01*
X6446760Y24975500D01*
X6205143Y24975500D01*
X6122264Y24941171D01*
X6058829Y24877737D01*
X6058830Y24877736D01*
X6058829Y24877735D01*
X3733265Y22552171D01*
X3733264Y22552170D01*
X3733263Y22552171D01*
X3669830Y22488738D01*
X3669830Y22488735D01*
X3635499Y22405855D01*
X3635499Y22304623D01*
X3635500Y22304614D01*
X3635500Y21467414D01*
X3616593Y21409223D01*
X3606504Y21397410D01*
X-917914Y16872993D01*
X-972431Y16845216D01*
X-1032863Y16854787D01*
X-1034586Y16855687D01*
X-1115268Y16898812D01*
X-1115270Y16898813D01*
X-1155531Y16911026D01*
X-1303868Y16956024D01*
X-1303871Y16956025D01*
X-1303874Y16956026D01*
X-1499997Y16975341D01*
X-1500003Y16975341D01*
X-1696127Y16956026D01*
X-1696130Y16956025D01*
X-1884731Y16898813D01*
X-1884733Y16898812D01*
X-2058533Y16805913D01*
X-2058543Y16805907D01*
X-2210879Y16680888D01*
X-2210888Y16680879D01*
X-2335907Y16528543D01*
X-2335913Y16528533D01*
X-2428812Y16354733D01*
X-2428813Y16354731D01*
X-2486025Y16166130D01*
X-2486026Y16166127D01*
X-2505341Y15970004D01*
X-2505341Y15969997D01*
X-3500000Y15969997D01*
X-3500000Y18509997D01*
X-2505341Y18509997D01*
X-2486026Y18313874D01*
X-2486025Y18313871D01*
X-2486024Y18313868D01*
X-2434744Y18144820D01*
X-2428813Y18125270D01*
X-2428812Y18125268D01*
X-2381682Y18037095D01*
X-2335910Y17951462D01*
X-2335908Y17951460D01*
X-2335907Y17951458D01*
X-2210888Y17799122D01*
X-2210879Y17799113D01*
X-2112666Y17718512D01*
X-2058538Y17674090D01*
X-1884727Y17581186D01*
X-1696132Y17523976D01*
X-1696130Y17523976D01*
X-1696127Y17523975D01*
X-1500003Y17504659D01*
X-1500000Y17504659D01*
X-1499997Y17504659D01*
X-1303874Y17523975D01*
X-1303873Y17523976D01*
X-1303868Y17523976D01*
X-1115273Y17581186D01*
X-941462Y17674090D01*
X-789117Y17799117D01*
X-664090Y17951462D01*
X-571186Y18125273D01*
X-513976Y18313868D01*
X-513407Y18319637D01*
X-494659Y18509997D01*
X-494659Y18510004D01*
X-513975Y18706127D01*
X-513976Y18706130D01*
X-513976Y18706132D01*
X-571186Y18894727D01*
X-615013Y18976722D01*
X-625768Y19036950D01*
X-599067Y19092002D01*
X-597755Y19093342D01*
X6304409Y25995504D01*
X6358926Y26023281D01*
X6374413Y26024500D01*
X6446760Y26024500D01*
X6504951Y26005593D01*
X6540915Y25956093D01*
X6544723Y25939781D01*
X6546934Y25924612D01*
X6548134Y25916374D01*
X6588288Y25834238D01*
X6603174Y25803789D01*
X6691789Y25715174D01*
X6804375Y25660134D01*
X6877364Y25649500D01*
X6877367Y25649500D01*
X7998632Y25649500D01*
X7998636Y25649500D01*
X8071625Y25660134D01*
X8184211Y25715174D01*
X8272826Y25803789D01*
X8327866Y25916375D01*
X8338500Y25989364D01*
X8338500Y26510636D01*
X8327866Y26583625D01*
X8272826Y26696211D01*
X8184211Y26784826D01*
X8071625Y26839866D01*
X8071626Y26839866D01*
X8053377Y26842525D01*
X7998636Y26850500D01*
X6877364Y26850500D01*
X6833570Y26844120D01*
X6804373Y26839866D01*
X6691790Y26784827D01*
X6603173Y26696210D01*
X6548134Y26583627D01*
X6548134Y26583625D01*
X6544724Y26560226D01*
X6517627Y26505371D01*
X6463460Y26476919D01*
X6446760Y26475500D01*
X6296386Y26475500D01*
X6296378Y26475501D01*
X6284855Y26475501D01*
X6195145Y26475501D01*
X6195143Y26475501D01*
X6136542Y26451229D01*
X6136543Y26451228D01*
X6112264Y26441170D01*
X6112262Y26441169D01*
X6048829Y26377737D01*
X6048830Y26377736D01*
X6048829Y26377735D01*
X-916611Y19412296D01*
X-971128Y19384519D01*
X-1031560Y19394090D01*
X-1033283Y19394990D01*
X-1115268Y19438812D01*
X-1115270Y19438813D01*
X-1180901Y19458722D01*
X-1286116Y19490639D01*
X-1303871Y19496025D01*
X-1303874Y19496026D01*
X-1499997Y19515341D01*
X-1500003Y19515341D01*
X-1696127Y19496026D01*
X-1696130Y19496025D01*
X-1884731Y19438813D01*
X-1884733Y19438812D01*
X-2058533Y19345913D01*
X-2058543Y19345907D01*
X-2210879Y19220888D01*
X-2210888Y19220879D01*
X-2335907Y19068543D01*
X-2335913Y19068533D01*
X-2428812Y18894733D01*
X-2428813Y18894731D01*
X-2486025Y18706130D01*
X-2486026Y18706127D01*
X-2505341Y18510004D01*
X-2505341Y18509997D01*
X-3500000Y18509997D01*
X-3500000Y21049997D01*
X-2505341Y21049997D01*
X-2486026Y20853874D01*
X-2486025Y20853871D01*
X-2428813Y20665270D01*
X-2428812Y20665268D01*
X-2399854Y20611092D01*
X-2335910Y20491462D01*
X-2335908Y20491460D01*
X-2335907Y20491458D01*
X-2210888Y20339122D01*
X-2210879Y20339113D01*
X-2091045Y20240768D01*
X-2058538Y20214090D01*
X-1986341Y20175500D01*
X-1896370Y20127409D01*
X-1884727Y20121186D01*
X-1696132Y20063976D01*
X-1696130Y20063976D01*
X-1696127Y20063975D01*
X-1500003Y20044659D01*
X-1500000Y20044659D01*
X-1499997Y20044659D01*
X-1303874Y20063975D01*
X-1303873Y20063976D01*
X-1303868Y20063976D01*
X-1115273Y20121186D01*
X-941462Y20214090D01*
X-789117Y20339117D01*
X-664090Y20491462D01*
X-571186Y20665273D01*
X-513976Y20853868D01*
X-513936Y20854266D01*
X-494659Y21049997D01*
X-494659Y21050004D01*
X-513975Y21246127D01*
X-513976Y21246130D01*
X-513976Y21246132D01*
X-571186Y21434727D01*
X-615013Y21516722D01*
X-625768Y21576950D01*
X-599067Y21632002D01*
X-597756Y21633341D01*
X5264409Y27495504D01*
X5318926Y27523281D01*
X5334413Y27524500D01*
X6446760Y27524500D01*
X6504951Y27505593D01*
X6540915Y27456093D01*
X6544723Y27439781D01*
X6548134Y27416375D01*
X6603174Y27303789D01*
X6691789Y27215174D01*
X6804375Y27160134D01*
X6877364Y27149500D01*
X6877367Y27149500D01*
X7998632Y27149500D01*
X7998636Y27149500D01*
X8071625Y27160134D01*
X8184211Y27215174D01*
X8272826Y27303789D01*
X8327866Y27416375D01*
X8338500Y27489364D01*
X8338500Y28010636D01*
X8327866Y28083625D01*
X8272826Y28196211D01*
X8184211Y28284826D01*
X8071625Y28339866D01*
X8071626Y28339866D01*
X8053377Y28342525D01*
X7998636Y28350500D01*
X6877364Y28350500D01*
X6833570Y28344120D01*
X6804373Y28339866D01*
X6691790Y28284827D01*
X6603173Y28196210D01*
X6548134Y28083627D01*
X6548134Y28083625D01*
X6544724Y28060226D01*
X6517627Y28005371D01*
X6463460Y27976919D01*
X6446760Y27975500D01*
X5256386Y27975500D01*
X5256378Y27975501D01*
X5244855Y27975501D01*
X5155145Y27975501D01*
X5141520Y27969857D01*
X5115591Y27959117D01*
X5072264Y27941171D01*
X5008829Y27877737D01*
X5008830Y27877736D01*
X5008829Y27877735D01*
X-916611Y21952296D01*
X-971128Y21924519D01*
X-1031560Y21934090D01*
X-1033283Y21934990D01*
X-1115268Y21978812D01*
X-1115270Y21978813D01*
X-1119180Y21979999D01*
X-1303868Y22036024D01*
X-1303871Y22036025D01*
X-1303874Y22036026D01*
X-1499997Y22055341D01*
X-1500003Y22055341D01*
X-1696127Y22036026D01*
X-1696130Y22036025D01*
X-1884731Y21978813D01*
X-1884733Y21978812D01*
X-2058533Y21885913D01*
X-2058543Y21885907D01*
X-2210879Y21760888D01*
X-2210888Y21760879D01*
X-2335907Y21608543D01*
X-2335913Y21608533D01*
X-2428812Y21434733D01*
X-2428813Y21434731D01*
X-2486025Y21246130D01*
X-2486026Y21246127D01*
X-2505341Y21050004D01*
X-2505341Y21049997D01*
X-3500000Y21049997D01*
X-3500000Y23589997D01*
X-2505341Y23589997D01*
X-2486026Y23393874D01*
X-2486025Y23393871D01*
X-2428813Y23205270D01*
X-2428812Y23205268D01*
X-2394106Y23140339D01*
X-2335910Y23031462D01*
X-2335908Y23031460D01*
X-2335907Y23031458D01*
X-2210888Y22879122D01*
X-2210879Y22879113D01*
X-2182975Y22856213D01*
X-2058538Y22754090D01*
X-1884727Y22661186D01*
X-1696132Y22603976D01*
X-1696130Y22603976D01*
X-1696127Y22603975D01*
X-1500003Y22584659D01*
X-1500000Y22584659D01*
X-1499997Y22584659D01*
X-1303874Y22603975D01*
X-1303873Y22603976D01*
X-1303868Y22603976D01*
X-1115273Y22661186D01*
X-941462Y22754090D01*
X-789117Y22879117D01*
X-664090Y23031462D01*
X-571186Y23205273D01*
X-513976Y23393868D01*
X-507601Y23458587D01*
X-494659Y23589997D01*
X-494659Y23590004D01*
X-513975Y23786127D01*
X-513976Y23786130D01*
X-513976Y23786132D01*
X-571186Y23974727D01*
X-615013Y24056722D01*
X-625768Y24116950D01*
X-599067Y24172002D01*
X-597756Y24173341D01*
X4224409Y28995504D01*
X4278926Y29023281D01*
X4294413Y29024500D01*
X6446760Y29024500D01*
X6504951Y29005593D01*
X6540915Y28956093D01*
X6544723Y28939781D01*
X6546951Y28924496D01*
X6548134Y28916374D01*
X6585737Y28839456D01*
X6603174Y28803789D01*
X6691789Y28715174D01*
X6804375Y28660134D01*
X6877364Y28649500D01*
X6877367Y28649500D01*
X7998632Y28649500D01*
X7998636Y28649500D01*
X8071625Y28660134D01*
X8184211Y28715174D01*
X8272826Y28803789D01*
X8327866Y28916375D01*
X8338500Y28989364D01*
X8338500Y29510636D01*
X8327866Y29583625D01*
X8272826Y29696211D01*
X8184211Y29784826D01*
X8071625Y29839866D01*
X8071626Y29839866D01*
X8053377Y29842525D01*
X7998636Y29850500D01*
X6877364Y29850500D01*
X6833570Y29844120D01*
X6804373Y29839866D01*
X6691790Y29784827D01*
X6603173Y29696210D01*
X6548134Y29583627D01*
X6548134Y29583625D01*
X6544724Y29560226D01*
X6517627Y29505371D01*
X6463460Y29476919D01*
X6446760Y29475500D01*
X4216386Y29475500D01*
X4216378Y29475501D01*
X4204855Y29475501D01*
X4115146Y29475501D01*
X4115144Y29475501D01*
X4066594Y29455391D01*
X4032265Y29441172D01*
X4032263Y29441170D01*
X3968829Y29377737D01*
X3968830Y29377736D01*
X3968829Y29377735D01*
X-916611Y24492296D01*
X-971128Y24464519D01*
X-1031560Y24474090D01*
X-1033283Y24474990D01*
X-1115268Y24518812D01*
X-1115270Y24518813D01*
X-1129340Y24523081D01*
X-1303868Y24576024D01*
X-1303871Y24576025D01*
X-1303874Y24576026D01*
X-1499997Y24595341D01*
X-1500003Y24595341D01*
X-1696127Y24576026D01*
X-1696130Y24576025D01*
X-1884731Y24518813D01*
X-1884733Y24518812D01*
X-2058533Y24425913D01*
X-2058543Y24425907D01*
X-2210879Y24300888D01*
X-2210888Y24300879D01*
X-2335907Y24148543D01*
X-2335913Y24148533D01*
X-2428812Y23974733D01*
X-2428813Y23974731D01*
X-2486025Y23786130D01*
X-2486026Y23786127D01*
X-2505341Y23590004D01*
X-2505341Y23589997D01*
X-3500000Y23589997D01*
X-3500000Y31209997D01*
X-2505341Y31209997D01*
X-2486026Y31013874D01*
X-2486025Y31013871D01*
X-2428813Y30825270D01*
X-2428812Y30825268D01*
X-2388847Y30750500D01*
X-2335910Y30651462D01*
X-2335908Y30651460D01*
X-2335907Y30651458D01*
X-2210888Y30499122D01*
X-2210879Y30499113D01*
X-2110061Y30416374D01*
X-2058538Y30374090D01*
X-1884727Y30281186D01*
X-1696132Y30223976D01*
X-1696130Y30223976D01*
X-1696127Y30223975D01*
X-1500003Y30204659D01*
X-1500000Y30204659D01*
X-1499997Y30204659D01*
X-1303874Y30223975D01*
X-1303873Y30223976D01*
X-1303868Y30223976D01*
X-1115273Y30281186D01*
X-941462Y30374090D01*
X-789117Y30499117D01*
X-664090Y30651462D01*
X-571186Y30825273D01*
X-513976Y31013868D01*
X-507239Y31082264D01*
X-494659Y31209997D01*
X-494659Y31210004D01*
X-513975Y31406127D01*
X-513976Y31406130D01*
X-513976Y31406132D01*
X-571186Y31594727D01*
X-664090Y31768538D01*
X-693020Y31803789D01*
X-789113Y31920879D01*
X-789122Y31920888D01*
X-941458Y32045907D01*
X-941460Y32045908D01*
X-941462Y32045910D01*
X-982382Y32067782D01*
X-1115268Y32138812D01*
X-1115270Y32138813D01*
X-1303871Y32196025D01*
X-1303874Y32196026D01*
X-1499997Y32215341D01*
X-1500003Y32215341D01*
X-1696127Y32196026D01*
X-1696130Y32196025D01*
X-1884731Y32138813D01*
X-1884733Y32138812D01*
X-2058533Y32045913D01*
X-2058543Y32045907D01*
X-2210879Y31920888D01*
X-2210888Y31920879D01*
X-2335907Y31768543D01*
X-2335913Y31768533D01*
X-2428812Y31594733D01*
X-2428813Y31594731D01*
X-2486025Y31406130D01*
X-2486026Y31406127D01*
X-2505341Y31210004D01*
X-2505341Y31209997D01*
X-3500000Y31209997D01*
X-3500000Y32880300D01*
X-2550000Y32880300D01*
X-2538397Y32821964D01*
X-2494194Y32755811D01*
X-2494190Y32755807D01*
X-2428037Y32711604D01*
X-2369701Y32700001D01*
X-2369697Y32700000D01*
X-1625001Y32700000D01*
X-1625000Y32700001D01*
X-1625000Y33265856D01*
X-1565826Y33250000D01*
X-1434174Y33250000D01*
X-1375000Y33265856D01*
X-1375000Y32700001D01*
X-1374999Y32700000D01*
X-630303Y32700000D01*
X-630300Y32700001D01*
X-571964Y32711604D01*
X-505811Y32755807D01*
X-505807Y32755811D01*
X-461604Y32821964D01*
X-450001Y32880300D01*
X-450000Y32880303D01*
X-450000Y33624999D01*
X-450001Y33625000D01*
X-1015856Y33625000D01*
X-1000000Y33684174D01*
X-1000000Y33750000D01*
X5895131Y33750000D01*
X5912500Y33640339D01*
X5962905Y33541413D01*
X6041413Y33462905D01*
X6140339Y33412500D01*
X6250000Y33395131D01*
X6359661Y33412500D01*
X6413186Y33439772D01*
X6422385Y33444459D01*
X6482817Y33454031D01*
X6537333Y33426254D01*
X6556270Y33399733D01*
X6603174Y33303789D01*
X6691789Y33215174D01*
X6804375Y33160134D01*
X6877364Y33149500D01*
X6877367Y33149500D01*
X7998632Y33149500D01*
X7998636Y33149500D01*
X8071625Y33160134D01*
X8184211Y33215174D01*
X8272826Y33303789D01*
X8327866Y33416375D01*
X8338500Y33489364D01*
X24037500Y33489364D01*
X24042648Y33454031D01*
X24048134Y33416374D01*
X24080631Y33349901D01*
X24103174Y33303789D01*
X24191789Y33215174D01*
X24304375Y33160134D01*
X24377364Y33149500D01*
X24377367Y33149500D01*
X25498632Y33149500D01*
X25498636Y33149500D01*
X25571625Y33160134D01*
X25684211Y33215174D01*
X25772826Y33303789D01*
X25827866Y33416375D01*
X25831275Y33439775D01*
X25858373Y33494629D01*
X25912540Y33523081D01*
X25929240Y33524500D01*
X29195587Y33524500D01*
X29253778Y33505593D01*
X29265591Y33495504D01*
X31678829Y31082265D01*
X31678830Y31082264D01*
X31678829Y31082264D01*
X31742264Y31018830D01*
X31825143Y30984500D01*
X31825145Y30984500D01*
X32449462Y30984500D01*
X32507653Y30965593D01*
X32543617Y30916093D01*
X32544199Y30914238D01*
X32571186Y30825273D01*
X32571188Y30825268D01*
X32611153Y30750500D01*
X32664090Y30651462D01*
X32664092Y30651460D01*
X32664093Y30651458D01*
X32789112Y30499122D01*
X32789121Y30499113D01*
X32889939Y30416374D01*
X32941462Y30374090D01*
X33115273Y30281186D01*
X33303868Y30223976D01*
X33303870Y30223976D01*
X33303873Y30223975D01*
X33499997Y30204659D01*
X33500000Y30204659D01*
X33500003Y30204659D01*
X33696126Y30223975D01*
X33696127Y30223976D01*
X33696132Y30223976D01*
X33884727Y30281186D01*
X34058538Y30374090D01*
X34210883Y30499117D01*
X34335910Y30651462D01*
X34428814Y30825273D01*
X34486024Y31013868D01*
X34492761Y31082264D01*
X34505341Y31209997D01*
X34505341Y31210004D01*
X34486025Y31406127D01*
X34486024Y31406130D01*
X34486024Y31406132D01*
X34428814Y31594727D01*
X34335910Y31768538D01*
X34306980Y31803789D01*
X34210887Y31920879D01*
X34210878Y31920888D01*
X34058542Y32045907D01*
X34058540Y32045908D01*
X34058538Y32045910D01*
X34017618Y32067782D01*
X33884732Y32138812D01*
X33884730Y32138813D01*
X33696129Y32196025D01*
X33696126Y32196026D01*
X33500003Y32215341D01*
X33499997Y32215341D01*
X33303873Y32196026D01*
X33303870Y32196025D01*
X33115269Y32138813D01*
X33115267Y32138812D01*
X32941467Y32045913D01*
X32941457Y32045907D01*
X32789121Y31920888D01*
X32789112Y31920879D01*
X32664093Y31768543D01*
X32664087Y31768533D01*
X32571188Y31594733D01*
X32571186Y31594728D01*
X32544199Y31505762D01*
X32509214Y31455565D01*
X32451406Y31435519D01*
X32449462Y31435500D01*
X32004414Y31435500D01*
X31946223Y31454407D01*
X31934410Y31464496D01*
X29521170Y33877735D01*
X29521170Y33877736D01*
X29457736Y33941170D01*
X29453336Y33942993D01*
X29433458Y33951227D01*
X29433458Y33951228D01*
X29399128Y33965447D01*
X29374855Y33975501D01*
X29285145Y33975501D01*
X29273622Y33975501D01*
X29273614Y33975500D01*
X25929240Y33975500D01*
X25871049Y33994407D01*
X25835085Y34043907D01*
X25831276Y34060220D01*
X25827866Y34083625D01*
X25772826Y34196211D01*
X25684211Y34284826D01*
X25571625Y34339866D01*
X25571626Y34339866D01*
X25553377Y34342525D01*
X25498636Y34350500D01*
X24377364Y34350500D01*
X24333570Y34344120D01*
X24304373Y34339866D01*
X24191790Y34284827D01*
X24103173Y34196210D01*
X24048134Y34083627D01*
X24044725Y34060228D01*
X24037500Y34010636D01*
X24037500Y33489364D01*
X8338500Y33489364D01*
X8338500Y34010636D01*
X8327866Y34083625D01*
X8272826Y34196211D01*
X8184211Y34284826D01*
X8071625Y34339866D01*
X8071626Y34339866D01*
X8053377Y34342525D01*
X7998636Y34350500D01*
X6877364Y34350500D01*
X6833570Y34344120D01*
X6804373Y34339866D01*
X6691790Y34284827D01*
X6603171Y34196208D01*
X6556270Y34100270D01*
X6513727Y34056296D01*
X6453461Y34045727D01*
X6422386Y34055541D01*
X6359662Y34087500D01*
X6359663Y34087500D01*
X6250000Y34104869D01*
X6140338Y34087500D01*
X6041413Y34037095D01*
X5962905Y33958587D01*
X5912500Y33859662D01*
X5912500Y33859661D01*
X5895131Y33750000D01*
X-1000000Y33750000D01*
X-1000000Y33815826D01*
X-1015856Y33875000D01*
X-450001Y33875000D01*
X-450000Y33875001D01*
X-450000Y34619698D01*
X-450001Y34619701D01*
X-461604Y34678037D01*
X-505807Y34744190D01*
X-505811Y34744194D01*
X-571964Y34788397D01*
X-630300Y34800000D01*
X-1374999Y34800000D01*
X-1375000Y34799999D01*
X-1375000Y34234145D01*
X-1434174Y34250000D01*
X-1565826Y34250000D01*
X-1625000Y34234145D01*
X-1625000Y34799999D01*
X-1625001Y34800000D01*
X-2369701Y34800000D01*
X-2428037Y34788397D01*
X-2494190Y34744194D01*
X-2494194Y34744190D01*
X-2538397Y34678037D01*
X-2550000Y34619701D01*
X-2550000Y33875001D01*
X-2549999Y33875000D01*
X-1984144Y33875000D01*
X-2000000Y33815826D01*
X-2000000Y33684174D01*
X-1984144Y33625000D01*
X-2549999Y33625000D01*
X-2550000Y33624999D01*
X-2550000Y32880300D01*
X-3500000Y32880300D01*
X-3500000Y34991547D01*
X6488000Y34991547D01*
X6503760Y34892035D01*
X6503762Y34892031D01*
X6564881Y34772079D01*
X6660078Y34676882D01*
X6780030Y34615763D01*
X6780029Y34615763D01*
X6879545Y34600001D01*
X7312998Y34600001D01*
X7313000Y34600002D01*
X7563000Y34600002D01*
X7563001Y34600001D01*
X7996453Y34600001D01*
X8095965Y34615761D01*
X8095969Y34615763D01*
X8215921Y34676882D01*
X8311118Y34772079D01*
X8372237Y34892031D01*
X8387654Y34989364D01*
X24037500Y34989364D01*
X24048134Y34916375D01*
X24103174Y34803789D01*
X24191789Y34715174D01*
X24304375Y34660134D01*
X24377364Y34649500D01*
X24377367Y34649500D01*
X25498632Y34649500D01*
X25498636Y34649500D01*
X25571625Y34660134D01*
X25684211Y34715174D01*
X25772826Y34803789D01*
X25827866Y34916375D01*
X25831275Y34939775D01*
X25858373Y34994629D01*
X25912540Y35023081D01*
X25929240Y35024500D01*
X30365587Y35024500D01*
X30423778Y35005593D01*
X30435590Y34995505D01*
X31872264Y33558830D01*
X31872265Y33558830D01*
X31872266Y33558829D01*
X31955143Y33524500D01*
X31955145Y33524500D01*
X32044854Y33524500D01*
X32400500Y33524500D01*
X32458691Y33505593D01*
X32494655Y33456093D01*
X32499500Y33425500D01*
X32499500Y32885173D01*
X32508232Y32841280D01*
X32508233Y32841278D01*
X32541496Y32791496D01*
X32591278Y32758233D01*
X32602327Y32756036D01*
X32635172Y32749501D01*
X32635178Y32749501D01*
X32635180Y32749500D01*
X32635181Y32749500D01*
X34364819Y32749500D01*
X34364820Y32749500D01*
X34364821Y32749501D01*
X34364827Y32749501D01*
X34386623Y32753838D01*
X34408722Y32758233D01*
X34458504Y32791496D01*
X34491767Y32841278D01*
X34496162Y32863377D01*
X34500499Y32885173D01*
X34500500Y32885182D01*
X34500500Y34614819D01*
X34500499Y34614828D01*
X34491767Y34658721D01*
X34491765Y34658725D01*
X34458505Y34708502D01*
X34458504Y34708504D01*
X34448522Y34715174D01*
X34408724Y34741766D01*
X34408720Y34741768D01*
X34364827Y34750500D01*
X34364820Y34750500D01*
X32635180Y34750500D01*
X32635172Y34750500D01*
X32591279Y34741768D01*
X32591275Y34741766D01*
X32541498Y34708506D01*
X32541494Y34708502D01*
X32508234Y34658725D01*
X32508232Y34658721D01*
X32499500Y34614828D01*
X32499500Y34074500D01*
X32480593Y34016309D01*
X32431093Y33980345D01*
X32400500Y33975500D01*
X32134414Y33975500D01*
X32076223Y33994407D01*
X32064410Y34004496D01*
X30691170Y35377735D01*
X30691170Y35377736D01*
X30627736Y35441170D01*
X30603460Y35451226D01*
X30603458Y35451227D01*
X30603458Y35451228D01*
X30569128Y35465447D01*
X30544855Y35475501D01*
X30455145Y35475501D01*
X30443622Y35475501D01*
X30443614Y35475500D01*
X25929240Y35475500D01*
X25871049Y35494407D01*
X25835085Y35543907D01*
X25831276Y35560220D01*
X25827866Y35583625D01*
X25772826Y35696211D01*
X25684211Y35784826D01*
X25605881Y35823119D01*
X25571625Y35839866D01*
X25571626Y35839866D01*
X25553377Y35842525D01*
X25498636Y35850500D01*
X24377364Y35850500D01*
X24333570Y35844120D01*
X24304373Y35839866D01*
X24191790Y35784827D01*
X24103173Y35696210D01*
X24048134Y35583627D01*
X24048134Y35583625D01*
X24037500Y35510636D01*
X24037500Y34989364D01*
X8387654Y34989364D01*
X8388000Y34991547D01*
X8388000Y35124999D01*
X8387999Y35125000D01*
X7563001Y35125000D01*
X7563000Y35124999D01*
X7563000Y34600002D01*
X7313000Y34600002D01*
X7313000Y35124999D01*
X7312999Y35125000D01*
X6488002Y35125000D01*
X6488001Y35124999D01*
X6488001Y34991547D01*
X6488000Y34991547D01*
X-3500000Y34991547D01*
X-3500000Y35375001D01*
X6488000Y35375001D01*
X6488001Y35375000D01*
X7312999Y35375000D01*
X7313000Y35375001D01*
X7563000Y35375001D01*
X7563001Y35375000D01*
X8387998Y35375000D01*
X8387999Y35375001D01*
X8387999Y35508454D01*
X8372239Y35607966D01*
X8372237Y35607970D01*
X8311118Y35727922D01*
X8215921Y35823119D01*
X8095969Y35884238D01*
X8095970Y35884238D01*
X7996454Y35900000D01*
X7563001Y35900000D01*
X7563000Y35899999D01*
X7563000Y35375001D01*
X7313000Y35375001D01*
X7313000Y35899999D01*
X7312999Y35900000D01*
X6879547Y35900000D01*
X6879546Y35899999D01*
X6780034Y35884240D01*
X6780030Y35884238D01*
X6660078Y35823119D01*
X6564881Y35727922D01*
X6503762Y35607970D01*
X6488000Y35508454D01*
X6488000Y35375001D01*
X-3500000Y35375001D01*
X-3500000Y38901580D01*
X-1250500Y38901580D01*
X-1219711Y38707179D01*
X-1219709Y38707174D01*
X-1158884Y38519975D01*
X-1069524Y38344595D01*
X-953828Y38185354D01*
X-814646Y38046172D01*
X-655405Y37930476D01*
X-480025Y37841116D01*
X-292826Y37780291D01*
X-292825Y37780291D01*
X-292822Y37780290D01*
X-98420Y37749500D01*
X-98417Y37749500D01*
X98420Y37749500D01*
X292821Y37780290D01*
X292822Y37780291D01*
X292826Y37780291D01*
X480025Y37841116D01*
X655405Y37930476D01*
X814646Y38046172D01*
X953828Y38185354D01*
X1069524Y38344595D01*
X1158884Y38519975D01*
X1219709Y38707174D01*
X1250500Y38901583D01*
X1250500Y39098417D01*
X1250500Y39098421D01*
X1219710Y39292822D01*
X1219709Y39292826D01*
X1158884Y39480025D01*
X1069524Y39655405D01*
X953828Y39814646D01*
X814646Y39953828D01*
X655405Y40069524D01*
X655404Y40069525D01*
X655402Y40069526D01*
X480025Y40158884D01*
X292821Y40219711D01*
X98420Y40250500D01*
X98417Y40250500D01*
X-98417Y40250500D01*
X-98420Y40250500D01*
X-292822Y40219711D01*
X-480026Y40158884D01*
X-655403Y40069526D01*
X-814645Y39953829D01*
X-953829Y39814645D01*
X-1069526Y39655403D01*
X-1158884Y39480026D01*
X-1219711Y39292822D01*
X-1250500Y39098421D01*
X-1250500Y38901580D01*
X-3500000Y38901580D01*
X-3500000Y38999317D01*
X-3499992Y39000612D01*
X-3497662Y39178780D01*
X-3497129Y39187804D01*
X-3459823Y39542749D01*
X-3458206Y39552958D01*
X-3384135Y39901432D01*
X-3381457Y39911422D01*
X-3271374Y40250218D01*
X-3267661Y40259892D01*
X-3122766Y40585336D01*
X-3118074Y40594542D01*
X-2939952Y40903058D01*
X-2934325Y40911724D01*
X-2724912Y41199957D01*
X-2718416Y41207978D01*
X-2480035Y41472727D01*
X-2472727Y41480035D01*
X-2207978Y41718416D01*
X-2199957Y41724912D01*
X-1911724Y41934325D01*
X-1903058Y41939952D01*
X-1594542Y42118074D01*
X-1585336Y42122766D01*
X-1259890Y42267662D01*
X-1250218Y42271374D01*
X-911422Y42381457D01*
X-901432Y42384135D01*
X-552958Y42458206D01*
X-542749Y42459823D01*
X-187804Y42497129D01*
X-178780Y42497662D01*
X-612Y42499993D01*
X683Y42500000D01*
X7098993Y42500000D01*
X7157184Y42481093D01*
G37*
%TD.AperFunction*%
%TD*%
M02*
