%TF.GenerationSoftware,KiCad,Pcbnew,8.0.4*%
%TF.CreationDate,2024-09-07T18:39:45+01:00*%
%TF.ProjectId,Microll,4d696372-6f6c-46c2-9e6b-696361645f70,rev?*%
%TF.SameCoordinates,PX564eba0PY53724e0*%
%TF.FileFunction,Legend,Top*%
%TF.FilePolarity,Positive*%
%FSLAX46Y46*%
G04 Gerber Fmt 4.6, Leading zero omitted, Abs format (unit mm)*
G04 Created by KiCad (PCBNEW 8.0.4) date 2024-09-07 18:39:45*
%MOMM*%
%LPD*%
G01*
G04 APERTURE LIST*
%ADD10C,0.300000*%
%ADD11C,0.100000*%
%ADD12C,0.150000*%
%ADD13C,0.120000*%
G04 APERTURE END LIST*
D10*
G36*
X175509652Y32458705D02*
G01*
X175509652Y32130076D01*
X174625981Y32130076D01*
X174552479Y32130831D01*
X174475222Y32133098D01*
X174394210Y32136877D01*
X174320243Y32141422D01*
X174309442Y32142166D01*
X174309442Y32133740D01*
X174386987Y32118212D01*
X174460489Y32100901D01*
X174505447Y32087578D01*
X175509652Y31741363D01*
X175509652Y31469521D01*
X174515705Y31117079D01*
X174443989Y31098119D01*
X174367260Y31081898D01*
X174309442Y31070550D01*
X174309442Y31061391D01*
X174389444Y31065998D01*
X174465685Y31069652D01*
X174549879Y31072710D01*
X174628955Y31074470D01*
X174692659Y31074947D01*
X175509652Y31074947D01*
X175509652Y30774894D01*
X174032471Y30774894D01*
X174032471Y31262525D01*
X174908081Y31564409D01*
X174980456Y31586799D01*
X175053004Y31604599D01*
X175119107Y31616800D01*
X175119107Y31623028D01*
X175045706Y31640716D01*
X174972071Y31660835D01*
X174905883Y31681646D01*
X174032471Y31983530D01*
X174032471Y32458705D01*
X175509652Y32458705D01*
G37*
G36*
X174266944Y32917026D02*
G01*
X174254945Y32842013D01*
X174218950Y32781838D01*
X174158118Y32739476D01*
X174101347Y32729448D01*
X174028910Y32746024D01*
X173984111Y32781838D01*
X173948664Y32846267D01*
X173938682Y32917026D01*
X173950039Y32992681D01*
X173984111Y33052581D01*
X174047357Y33096019D01*
X174101347Y33104605D01*
X174174725Y33088144D01*
X174220416Y33052581D01*
X174256720Y32988414D01*
X174266944Y32917026D01*
G37*
G36*
X175509652Y33077860D02*
G01*
X175509652Y32752162D01*
X174454522Y32752162D01*
X174454522Y33077860D01*
X175509652Y33077860D01*
G37*
G36*
X175468619Y34148377D02*
G01*
X175499788Y34078609D01*
X175518931Y34003602D01*
X175529069Y33927940D01*
X175533036Y33842916D01*
X175533099Y33830006D01*
X175529521Y33756248D01*
X175515782Y33673713D01*
X175491740Y33597696D01*
X175457393Y33528195D01*
X175412742Y33465212D01*
X175386553Y33436164D01*
X175328473Y33385117D01*
X175264416Y33344631D01*
X175194384Y33314706D01*
X175118374Y33295343D01*
X175036389Y33286542D01*
X175007732Y33285955D01*
X174926814Y33289891D01*
X174851441Y33301697D01*
X174768313Y33326255D01*
X174693172Y33362147D01*
X174626015Y33409374D01*
X174585681Y33447155D01*
X174533139Y33511431D01*
X174491468Y33583357D01*
X174460668Y33662934D01*
X174443305Y33735092D01*
X174433491Y33812564D01*
X174431075Y33878366D01*
X174433459Y33955025D01*
X174442023Y34030570D01*
X174461486Y34106906D01*
X174480901Y34148377D01*
X174759337Y34148377D01*
X174722243Y34082202D01*
X174698887Y34011448D01*
X174689270Y33936114D01*
X174688996Y33920498D01*
X174695255Y33846177D01*
X174716894Y33774407D01*
X174758548Y33708601D01*
X174768130Y33698115D01*
X174829426Y33651601D01*
X174905009Y33624394D01*
X174986117Y33616416D01*
X175064921Y33624072D01*
X175138465Y33650181D01*
X175198242Y33694818D01*
X175242045Y33755646D01*
X175267665Y33830327D01*
X175275178Y33910240D01*
X175268309Y33985760D01*
X175247701Y34060277D01*
X175213354Y34133794D01*
X175204836Y34148377D01*
X175468619Y34148377D01*
G37*
G36*
X174744683Y35043771D02*
G01*
X174718614Y34971566D01*
X174712443Y34906751D01*
X174723468Y34833609D01*
X174760296Y34769140D01*
X174790845Y34740788D01*
X174857306Y34704397D01*
X174932168Y34685794D01*
X175003336Y34681070D01*
X175509652Y34681070D01*
X175509652Y34355372D01*
X174454522Y34355372D01*
X174454522Y34681070D01*
X174646497Y34681070D01*
X174646497Y34685100D01*
X174573287Y34718442D01*
X174507020Y34768346D01*
X174461369Y34830100D01*
X174436334Y34903706D01*
X174431075Y34963537D01*
X174441305Y35038148D01*
X174443531Y35043771D01*
X174744683Y35043771D01*
G37*
G36*
X175046869Y36265860D02*
G01*
X175120591Y36254563D01*
X175201997Y36231066D01*
X175275701Y36196724D01*
X175341702Y36151536D01*
X175381424Y36115386D01*
X175432970Y36053678D01*
X175473851Y35983959D01*
X175504067Y35906228D01*
X175523619Y35820486D01*
X175531766Y35742915D01*
X175533099Y35693701D01*
X175529503Y35614024D01*
X175518716Y35539857D01*
X175496279Y35458129D01*
X175463487Y35384335D01*
X175420339Y35318475D01*
X175385820Y35278977D01*
X175326894Y35227680D01*
X175260575Y35186996D01*
X175186863Y35156926D01*
X175105758Y35137469D01*
X175032523Y35129361D01*
X174986117Y35128035D01*
X174907479Y35131854D01*
X174834369Y35143312D01*
X174753934Y35167144D01*
X174681458Y35201976D01*
X174616942Y35247807D01*
X174578354Y35284472D01*
X174528302Y35347138D01*
X174488606Y35417531D01*
X174459265Y35495653D01*
X174440280Y35581502D01*
X174432370Y35658947D01*
X174431239Y35701761D01*
X174688996Y35701761D01*
X174698043Y35628481D01*
X174732066Y35557505D01*
X174765566Y35522243D01*
X174831906Y35483397D01*
X174908378Y35463538D01*
X174982087Y35458495D01*
X175066522Y35464479D01*
X175148954Y35487457D01*
X175210778Y35527668D01*
X175256860Y35596363D01*
X175274033Y35673913D01*
X175275178Y35703593D01*
X175264591Y35783153D01*
X175225477Y35855168D01*
X175157541Y35904778D01*
X175076371Y35929469D01*
X174992555Y35937471D01*
X174974027Y35937700D01*
X174891913Y35931940D01*
X174811748Y35909820D01*
X174743552Y35863047D01*
X174702635Y35793694D01*
X174689274Y35716277D01*
X174688996Y35701761D01*
X174431239Y35701761D01*
X174431075Y35707989D01*
X174434671Y35787314D01*
X174445458Y35861111D01*
X174467895Y35942371D01*
X174500687Y36015671D01*
X174543835Y36081011D01*
X174578354Y36120149D01*
X174636919Y36170948D01*
X174702156Y36211236D01*
X174774065Y36241015D01*
X174852646Y36260283D01*
X174937899Y36269042D01*
X174967799Y36269626D01*
X175046869Y36265860D01*
G37*
G36*
X175509652Y36800121D02*
G01*
X175509652Y36474423D01*
X173938682Y36474423D01*
X173938682Y36800121D01*
X175509652Y36800121D01*
G37*
G36*
X175509652Y37396562D02*
G01*
X175509652Y37070864D01*
X173938682Y37070864D01*
X173938682Y37396562D01*
X175509652Y37396562D01*
G37*
G36*
X175709652Y26132187D02*
G01*
X175331564Y25902476D01*
X175267602Y25862012D01*
X175254627Y25853017D01*
X175196742Y25805024D01*
X175159739Y25754465D01*
X175146916Y25697679D01*
X175146916Y25607920D01*
X175709652Y25607920D01*
X175709652Y25274894D01*
X174232471Y25274894D01*
X174232471Y25758129D01*
X174490391Y25758129D01*
X174490391Y25607920D01*
X174888996Y25607920D01*
X174888996Y25752267D01*
X174880546Y25826576D01*
X174849331Y25898293D01*
X174828912Y25924092D01*
X174770158Y25969172D01*
X174694912Y25989458D01*
X174678336Y25990037D01*
X174605104Y25978940D01*
X174543434Y25939081D01*
X174505258Y25870233D01*
X174491125Y25786212D01*
X174490391Y25758129D01*
X174232471Y25758129D01*
X174232471Y25802459D01*
X174236013Y25898574D01*
X174246639Y25985235D01*
X174264349Y26062442D01*
X174298982Y26150678D01*
X174346208Y26222108D01*
X174406029Y26276730D01*
X174478443Y26314546D01*
X174563451Y26335555D01*
X174635471Y26340282D01*
X174709843Y26334328D01*
X174778354Y26316468D01*
X174848073Y26283830D01*
X174896689Y26249790D01*
X174951519Y26195359D01*
X174987914Y26145010D01*
X175023744Y26076074D01*
X175047631Y26008722D01*
X175051661Y26008722D01*
X175085000Y26072469D01*
X175135039Y26128605D01*
X175138856Y26132187D01*
X175196358Y26180873D01*
X175205168Y26187508D01*
X175265956Y26230023D01*
X175274411Y26235502D01*
X175709652Y26514671D01*
X175709652Y26132187D01*
G37*
G36*
X174513839Y27682640D02*
G01*
X174513839Y27261322D01*
X175709652Y27261322D01*
X175709652Y26927564D01*
X174513839Y26927564D01*
X174513839Y26508077D01*
X174232471Y26508077D01*
X174232471Y27682640D01*
X174513839Y27682640D01*
G37*
D11*
X28411027Y15340200D02*
X28482455Y15316391D01*
X28482455Y15316391D02*
X28601503Y15316391D01*
X28601503Y15316391D02*
X28649122Y15340200D01*
X28649122Y15340200D02*
X28672931Y15364010D01*
X28672931Y15364010D02*
X28696741Y15411629D01*
X28696741Y15411629D02*
X28696741Y15459248D01*
X28696741Y15459248D02*
X28672931Y15506867D01*
X28672931Y15506867D02*
X28649122Y15530677D01*
X28649122Y15530677D02*
X28601503Y15554486D01*
X28601503Y15554486D02*
X28506265Y15578296D01*
X28506265Y15578296D02*
X28458646Y15602105D01*
X28458646Y15602105D02*
X28434836Y15625915D01*
X28434836Y15625915D02*
X28411027Y15673534D01*
X28411027Y15673534D02*
X28411027Y15721153D01*
X28411027Y15721153D02*
X28434836Y15768772D01*
X28434836Y15768772D02*
X28458646Y15792581D01*
X28458646Y15792581D02*
X28506265Y15816391D01*
X28506265Y15816391D02*
X28625312Y15816391D01*
X28625312Y15816391D02*
X28696741Y15792581D01*
X28839598Y15816391D02*
X29125312Y15816391D01*
X28982455Y15316391D02*
X28982455Y15816391D01*
X29291978Y15316391D02*
X29291978Y15816391D01*
X29291978Y15816391D02*
X29458645Y15459248D01*
X29458645Y15459248D02*
X29625311Y15816391D01*
X29625311Y15816391D02*
X29625311Y15316391D01*
X29815788Y15816391D02*
X30125312Y15816391D01*
X30125312Y15816391D02*
X29958645Y15625915D01*
X29958645Y15625915D02*
X30030074Y15625915D01*
X30030074Y15625915D02*
X30077693Y15602105D01*
X30077693Y15602105D02*
X30101502Y15578296D01*
X30101502Y15578296D02*
X30125312Y15530677D01*
X30125312Y15530677D02*
X30125312Y15411629D01*
X30125312Y15411629D02*
X30101502Y15364010D01*
X30101502Y15364010D02*
X30077693Y15340200D01*
X30077693Y15340200D02*
X30030074Y15316391D01*
X30030074Y15316391D02*
X29887217Y15316391D01*
X29887217Y15316391D02*
X29839598Y15340200D01*
X29839598Y15340200D02*
X29815788Y15364010D01*
X30315788Y15768772D02*
X30339597Y15792581D01*
X30339597Y15792581D02*
X30387216Y15816391D01*
X30387216Y15816391D02*
X30506264Y15816391D01*
X30506264Y15816391D02*
X30553883Y15792581D01*
X30553883Y15792581D02*
X30577692Y15768772D01*
X30577692Y15768772D02*
X30601502Y15721153D01*
X30601502Y15721153D02*
X30601502Y15673534D01*
X30601502Y15673534D02*
X30577692Y15602105D01*
X30577692Y15602105D02*
X30291978Y15316391D01*
X30291978Y15316391D02*
X30601502Y15316391D01*
X783503Y17825896D02*
X854931Y17802086D01*
X854931Y17802086D02*
X878741Y17778277D01*
X878741Y17778277D02*
X902550Y17730658D01*
X902550Y17730658D02*
X902550Y17659229D01*
X902550Y17659229D02*
X878741Y17611610D01*
X878741Y17611610D02*
X854931Y17587800D01*
X854931Y17587800D02*
X807312Y17563991D01*
X807312Y17563991D02*
X616836Y17563991D01*
X616836Y17563991D02*
X616836Y18063991D01*
X616836Y18063991D02*
X783503Y18063991D01*
X783503Y18063991D02*
X831122Y18040181D01*
X831122Y18040181D02*
X854931Y18016372D01*
X854931Y18016372D02*
X878741Y17968753D01*
X878741Y17968753D02*
X878741Y17921134D01*
X878741Y17921134D02*
X854931Y17873515D01*
X854931Y17873515D02*
X831122Y17849705D01*
X831122Y17849705D02*
X783503Y17825896D01*
X783503Y17825896D02*
X616836Y17825896D01*
X1212074Y18063991D02*
X1307312Y18063991D01*
X1307312Y18063991D02*
X1354931Y18040181D01*
X1354931Y18040181D02*
X1402550Y17992562D01*
X1402550Y17992562D02*
X1426360Y17897324D01*
X1426360Y17897324D02*
X1426360Y17730658D01*
X1426360Y17730658D02*
X1402550Y17635420D01*
X1402550Y17635420D02*
X1354931Y17587800D01*
X1354931Y17587800D02*
X1307312Y17563991D01*
X1307312Y17563991D02*
X1212074Y17563991D01*
X1212074Y17563991D02*
X1164455Y17587800D01*
X1164455Y17587800D02*
X1116836Y17635420D01*
X1116836Y17635420D02*
X1093027Y17730658D01*
X1093027Y17730658D02*
X1093027Y17897324D01*
X1093027Y17897324D02*
X1116836Y17992562D01*
X1116836Y17992562D02*
X1164455Y18040181D01*
X1164455Y18040181D02*
X1212074Y18063991D01*
X1735884Y18063991D02*
X1831122Y18063991D01*
X1831122Y18063991D02*
X1878741Y18040181D01*
X1878741Y18040181D02*
X1926360Y17992562D01*
X1926360Y17992562D02*
X1950170Y17897324D01*
X1950170Y17897324D02*
X1950170Y17730658D01*
X1950170Y17730658D02*
X1926360Y17635420D01*
X1926360Y17635420D02*
X1878741Y17587800D01*
X1878741Y17587800D02*
X1831122Y17563991D01*
X1831122Y17563991D02*
X1735884Y17563991D01*
X1735884Y17563991D02*
X1688265Y17587800D01*
X1688265Y17587800D02*
X1640646Y17635420D01*
X1640646Y17635420D02*
X1616837Y17730658D01*
X1616837Y17730658D02*
X1616837Y17897324D01*
X1616837Y17897324D02*
X1640646Y17992562D01*
X1640646Y17992562D02*
X1688265Y18040181D01*
X1688265Y18040181D02*
X1735884Y18063991D01*
X2093028Y18063991D02*
X2378742Y18063991D01*
X2235885Y17563991D02*
X2235885Y18063991D01*
X572350Y16420991D02*
X405684Y16659086D01*
X286636Y16420991D02*
X286636Y16920991D01*
X286636Y16920991D02*
X477112Y16920991D01*
X477112Y16920991D02*
X524731Y16897181D01*
X524731Y16897181D02*
X548541Y16873372D01*
X548541Y16873372D02*
X572350Y16825753D01*
X572350Y16825753D02*
X572350Y16754324D01*
X572350Y16754324D02*
X548541Y16706705D01*
X548541Y16706705D02*
X524731Y16682896D01*
X524731Y16682896D02*
X477112Y16659086D01*
X477112Y16659086D02*
X286636Y16659086D01*
X786636Y16682896D02*
X953303Y16682896D01*
X1024731Y16420991D02*
X786636Y16420991D01*
X786636Y16420991D02*
X786636Y16920991D01*
X786636Y16920991D02*
X1024731Y16920991D01*
X1215208Y16444800D02*
X1286636Y16420991D01*
X1286636Y16420991D02*
X1405684Y16420991D01*
X1405684Y16420991D02*
X1453303Y16444800D01*
X1453303Y16444800D02*
X1477112Y16468610D01*
X1477112Y16468610D02*
X1500922Y16516229D01*
X1500922Y16516229D02*
X1500922Y16563848D01*
X1500922Y16563848D02*
X1477112Y16611467D01*
X1477112Y16611467D02*
X1453303Y16635277D01*
X1453303Y16635277D02*
X1405684Y16659086D01*
X1405684Y16659086D02*
X1310446Y16682896D01*
X1310446Y16682896D02*
X1262827Y16706705D01*
X1262827Y16706705D02*
X1239017Y16730515D01*
X1239017Y16730515D02*
X1215208Y16778134D01*
X1215208Y16778134D02*
X1215208Y16825753D01*
X1215208Y16825753D02*
X1239017Y16873372D01*
X1239017Y16873372D02*
X1262827Y16897181D01*
X1262827Y16897181D02*
X1310446Y16920991D01*
X1310446Y16920991D02*
X1429493Y16920991D01*
X1429493Y16920991D02*
X1500922Y16897181D01*
X1715207Y16682896D02*
X1881874Y16682896D01*
X1953302Y16420991D02*
X1715207Y16420991D01*
X1715207Y16420991D02*
X1715207Y16920991D01*
X1715207Y16920991D02*
X1953302Y16920991D01*
X2096160Y16920991D02*
X2381874Y16920991D01*
X2239017Y16420991D02*
X2239017Y16920991D01*
X28434836Y20578296D02*
X28601503Y20578296D01*
X28672931Y20316391D02*
X28434836Y20316391D01*
X28434836Y20316391D02*
X28434836Y20816391D01*
X28434836Y20816391D02*
X28672931Y20816391D01*
X28863408Y20340200D02*
X28934836Y20316391D01*
X28934836Y20316391D02*
X29053884Y20316391D01*
X29053884Y20316391D02*
X29101503Y20340200D01*
X29101503Y20340200D02*
X29125312Y20364010D01*
X29125312Y20364010D02*
X29149122Y20411629D01*
X29149122Y20411629D02*
X29149122Y20459248D01*
X29149122Y20459248D02*
X29125312Y20506867D01*
X29125312Y20506867D02*
X29101503Y20530677D01*
X29101503Y20530677D02*
X29053884Y20554486D01*
X29053884Y20554486D02*
X28958646Y20578296D01*
X28958646Y20578296D02*
X28911027Y20602105D01*
X28911027Y20602105D02*
X28887217Y20625915D01*
X28887217Y20625915D02*
X28863408Y20673534D01*
X28863408Y20673534D02*
X28863408Y20721153D01*
X28863408Y20721153D02*
X28887217Y20768772D01*
X28887217Y20768772D02*
X28911027Y20792581D01*
X28911027Y20792581D02*
X28958646Y20816391D01*
X28958646Y20816391D02*
X29077693Y20816391D01*
X29077693Y20816391D02*
X29149122Y20792581D01*
X29363407Y20316391D02*
X29363407Y20816391D01*
X29363407Y20816391D02*
X29553883Y20816391D01*
X29553883Y20816391D02*
X29601502Y20792581D01*
X29601502Y20792581D02*
X29625312Y20768772D01*
X29625312Y20768772D02*
X29649121Y20721153D01*
X29649121Y20721153D02*
X29649121Y20649724D01*
X29649121Y20649724D02*
X29625312Y20602105D01*
X29625312Y20602105D02*
X29601502Y20578296D01*
X29601502Y20578296D02*
X29553883Y20554486D01*
X29553883Y20554486D02*
X29363407Y20554486D01*
X29815788Y20816391D02*
X30125312Y20816391D01*
X30125312Y20816391D02*
X29958645Y20625915D01*
X29958645Y20625915D02*
X30030074Y20625915D01*
X30030074Y20625915D02*
X30077693Y20602105D01*
X30077693Y20602105D02*
X30101502Y20578296D01*
X30101502Y20578296D02*
X30125312Y20530677D01*
X30125312Y20530677D02*
X30125312Y20411629D01*
X30125312Y20411629D02*
X30101502Y20364010D01*
X30101502Y20364010D02*
X30077693Y20340200D01*
X30077693Y20340200D02*
X30030074Y20316391D01*
X30030074Y20316391D02*
X29887217Y20316391D01*
X29887217Y20316391D02*
X29839598Y20340200D01*
X29839598Y20340200D02*
X29815788Y20364010D01*
X30315788Y20768772D02*
X30339597Y20792581D01*
X30339597Y20792581D02*
X30387216Y20816391D01*
X30387216Y20816391D02*
X30506264Y20816391D01*
X30506264Y20816391D02*
X30553883Y20792581D01*
X30553883Y20792581D02*
X30577692Y20768772D01*
X30577692Y20768772D02*
X30601502Y20721153D01*
X30601502Y20721153D02*
X30601502Y20673534D01*
X30601502Y20673534D02*
X30577692Y20602105D01*
X30577692Y20602105D02*
X30291978Y20316391D01*
X30291978Y20316391D02*
X30601502Y20316391D01*
X1184836Y19028296D02*
X1351503Y19028296D01*
X1422931Y18766391D02*
X1184836Y18766391D01*
X1184836Y18766391D02*
X1184836Y19266391D01*
X1184836Y19266391D02*
X1422931Y19266391D01*
X1637217Y18766391D02*
X1637217Y19266391D01*
X1637217Y19266391D02*
X1922931Y18766391D01*
X1922931Y18766391D02*
X1922931Y19266391D01*
D12*
X4019819Y25586780D02*
X3019819Y25586780D01*
X3019819Y25586780D02*
X3734104Y25920113D01*
X3734104Y25920113D02*
X3019819Y26253446D01*
X3019819Y26253446D02*
X4019819Y26253446D01*
X4019819Y26729637D02*
X3353152Y26729637D01*
X3019819Y26729637D02*
X3067438Y26682018D01*
X3067438Y26682018D02*
X3115057Y26729637D01*
X3115057Y26729637D02*
X3067438Y26777256D01*
X3067438Y26777256D02*
X3019819Y26729637D01*
X3019819Y26729637D02*
X3115057Y26729637D01*
X3972200Y27634398D02*
X4019819Y27539160D01*
X4019819Y27539160D02*
X4019819Y27348684D01*
X4019819Y27348684D02*
X3972200Y27253446D01*
X3972200Y27253446D02*
X3924580Y27205827D01*
X3924580Y27205827D02*
X3829342Y27158208D01*
X3829342Y27158208D02*
X3543628Y27158208D01*
X3543628Y27158208D02*
X3448390Y27205827D01*
X3448390Y27205827D02*
X3400771Y27253446D01*
X3400771Y27253446D02*
X3353152Y27348684D01*
X3353152Y27348684D02*
X3353152Y27539160D01*
X3353152Y27539160D02*
X3400771Y27634398D01*
X4019819Y28062970D02*
X3353152Y28062970D01*
X3543628Y28062970D02*
X3448390Y28110589D01*
X3448390Y28110589D02*
X3400771Y28158208D01*
X3400771Y28158208D02*
X3353152Y28253446D01*
X3353152Y28253446D02*
X3353152Y28348684D01*
X4019819Y28824875D02*
X3972200Y28729637D01*
X3972200Y28729637D02*
X3924580Y28682018D01*
X3924580Y28682018D02*
X3829342Y28634399D01*
X3829342Y28634399D02*
X3543628Y28634399D01*
X3543628Y28634399D02*
X3448390Y28682018D01*
X3448390Y28682018D02*
X3400771Y28729637D01*
X3400771Y28729637D02*
X3353152Y28824875D01*
X3353152Y28824875D02*
X3353152Y28967732D01*
X3353152Y28967732D02*
X3400771Y29062970D01*
X3400771Y29062970D02*
X3448390Y29110589D01*
X3448390Y29110589D02*
X3543628Y29158208D01*
X3543628Y29158208D02*
X3829342Y29158208D01*
X3829342Y29158208D02*
X3924580Y29110589D01*
X3924580Y29110589D02*
X3972200Y29062970D01*
X3972200Y29062970D02*
X4019819Y28967732D01*
X4019819Y28967732D02*
X4019819Y28824875D01*
X4019819Y29729637D02*
X3972200Y29634399D01*
X3972200Y29634399D02*
X3876961Y29586780D01*
X3876961Y29586780D02*
X3019819Y29586780D01*
X4019819Y30253447D02*
X3972200Y30158209D01*
X3972200Y30158209D02*
X3876961Y30110590D01*
X3876961Y30110590D02*
X3019819Y30110590D01*
X3019819Y31253448D02*
X4019819Y31586781D01*
X4019819Y31586781D02*
X3019819Y31920114D01*
X3019819Y32158210D02*
X3019819Y32777257D01*
X3019819Y32777257D02*
X3400771Y32443924D01*
X3400771Y32443924D02*
X3400771Y32586781D01*
X3400771Y32586781D02*
X3448390Y32682019D01*
X3448390Y32682019D02*
X3496009Y32729638D01*
X3496009Y32729638D02*
X3591247Y32777257D01*
X3591247Y32777257D02*
X3829342Y32777257D01*
X3829342Y32777257D02*
X3924580Y32729638D01*
X3924580Y32729638D02*
X3972200Y32682019D01*
X3972200Y32682019D02*
X4019819Y32586781D01*
X4019819Y32586781D02*
X4019819Y32301067D01*
X4019819Y32301067D02*
X3972200Y32205829D01*
X3972200Y32205829D02*
X3924580Y32158210D01*
X738095Y7302181D02*
X738095Y6492658D01*
X738095Y6492658D02*
X785714Y6397420D01*
X785714Y6397420D02*
X833333Y6349800D01*
X833333Y6349800D02*
X928571Y6302181D01*
X928571Y6302181D02*
X1119047Y6302181D01*
X1119047Y6302181D02*
X1214285Y6349800D01*
X1214285Y6349800D02*
X1261904Y6397420D01*
X1261904Y6397420D02*
X1309523Y6492658D01*
X1309523Y6492658D02*
X1309523Y7302181D01*
X1738095Y7206943D02*
X1785714Y7254562D01*
X1785714Y7254562D02*
X1880952Y7302181D01*
X1880952Y7302181D02*
X2119047Y7302181D01*
X2119047Y7302181D02*
X2214285Y7254562D01*
X2214285Y7254562D02*
X2261904Y7206943D01*
X2261904Y7206943D02*
X2309523Y7111705D01*
X2309523Y7111705D02*
X2309523Y7016467D01*
X2309523Y7016467D02*
X2261904Y6873610D01*
X2261904Y6873610D02*
X1690476Y6302181D01*
X1690476Y6302181D02*
X2309523Y6302181D01*
X15238095Y21045181D02*
X15238095Y20235658D01*
X15238095Y20235658D02*
X15285714Y20140420D01*
X15285714Y20140420D02*
X15333333Y20092800D01*
X15333333Y20092800D02*
X15428571Y20045181D01*
X15428571Y20045181D02*
X15619047Y20045181D01*
X15619047Y20045181D02*
X15714285Y20092800D01*
X15714285Y20092800D02*
X15761904Y20140420D01*
X15761904Y20140420D02*
X15809523Y20235658D01*
X15809523Y20235658D02*
X15809523Y21045181D01*
X16714285Y21045181D02*
X16523809Y21045181D01*
X16523809Y21045181D02*
X16428571Y20997562D01*
X16428571Y20997562D02*
X16380952Y20949943D01*
X16380952Y20949943D02*
X16285714Y20807086D01*
X16285714Y20807086D02*
X16238095Y20616610D01*
X16238095Y20616610D02*
X16238095Y20235658D01*
X16238095Y20235658D02*
X16285714Y20140420D01*
X16285714Y20140420D02*
X16333333Y20092800D01*
X16333333Y20092800D02*
X16428571Y20045181D01*
X16428571Y20045181D02*
X16619047Y20045181D01*
X16619047Y20045181D02*
X16714285Y20092800D01*
X16714285Y20092800D02*
X16761904Y20140420D01*
X16761904Y20140420D02*
X16809523Y20235658D01*
X16809523Y20235658D02*
X16809523Y20473753D01*
X16809523Y20473753D02*
X16761904Y20568991D01*
X16761904Y20568991D02*
X16714285Y20616610D01*
X16714285Y20616610D02*
X16619047Y20664229D01*
X16619047Y20664229D02*
X16428571Y20664229D01*
X16428571Y20664229D02*
X16333333Y20616610D01*
X16333333Y20616610D02*
X16285714Y20568991D01*
X16285714Y20568991D02*
X16238095Y20473753D01*
D11*
X1766667Y20140200D02*
X1909524Y20092581D01*
X1909524Y20092581D02*
X2147619Y20092581D01*
X2147619Y20092581D02*
X2242857Y20140200D01*
X2242857Y20140200D02*
X2290476Y20187820D01*
X2290476Y20187820D02*
X2338095Y20283058D01*
X2338095Y20283058D02*
X2338095Y20378296D01*
X2338095Y20378296D02*
X2290476Y20473534D01*
X2290476Y20473534D02*
X2242857Y20521153D01*
X2242857Y20521153D02*
X2147619Y20568772D01*
X2147619Y20568772D02*
X1957143Y20616391D01*
X1957143Y20616391D02*
X1861905Y20664010D01*
X1861905Y20664010D02*
X1814286Y20711629D01*
X1814286Y20711629D02*
X1766667Y20806867D01*
X1766667Y20806867D02*
X1766667Y20902105D01*
X1766667Y20902105D02*
X1814286Y20997343D01*
X1814286Y20997343D02*
X1861905Y21044962D01*
X1861905Y21044962D02*
X1957143Y21092581D01*
X1957143Y21092581D02*
X2195238Y21092581D01*
X2195238Y21092581D02*
X2338095Y21044962D01*
X2671429Y21092581D02*
X2909524Y20092581D01*
X2909524Y20092581D02*
X3100000Y20806867D01*
X3100000Y20806867D02*
X3290476Y20092581D01*
X3290476Y20092581D02*
X3528572Y21092581D01*
X4338095Y20759248D02*
X4338095Y20092581D01*
X4100000Y21140200D02*
X3861905Y20425915D01*
X3861905Y20425915D02*
X4480952Y20425915D01*
D12*
X23288095Y10745181D02*
X23288095Y9935658D01*
X23288095Y9935658D02*
X23335714Y9840420D01*
X23335714Y9840420D02*
X23383333Y9792800D01*
X23383333Y9792800D02*
X23478571Y9745181D01*
X23478571Y9745181D02*
X23669047Y9745181D01*
X23669047Y9745181D02*
X23764285Y9792800D01*
X23764285Y9792800D02*
X23811904Y9840420D01*
X23811904Y9840420D02*
X23859523Y9935658D01*
X23859523Y9935658D02*
X23859523Y10745181D01*
X24383333Y9745181D02*
X24573809Y9745181D01*
X24573809Y9745181D02*
X24669047Y9792800D01*
X24669047Y9792800D02*
X24716666Y9840420D01*
X24716666Y9840420D02*
X24811904Y9983277D01*
X24811904Y9983277D02*
X24859523Y10173753D01*
X24859523Y10173753D02*
X24859523Y10554705D01*
X24859523Y10554705D02*
X24811904Y10649943D01*
X24811904Y10649943D02*
X24764285Y10697562D01*
X24764285Y10697562D02*
X24669047Y10745181D01*
X24669047Y10745181D02*
X24478571Y10745181D01*
X24478571Y10745181D02*
X24383333Y10697562D01*
X24383333Y10697562D02*
X24335714Y10649943D01*
X24335714Y10649943D02*
X24288095Y10554705D01*
X24288095Y10554705D02*
X24288095Y10316610D01*
X24288095Y10316610D02*
X24335714Y10221372D01*
X24335714Y10221372D02*
X24383333Y10173753D01*
X24383333Y10173753D02*
X24478571Y10126134D01*
X24478571Y10126134D02*
X24669047Y10126134D01*
X24669047Y10126134D02*
X24764285Y10173753D01*
X24764285Y10173753D02*
X24811904Y10221372D01*
X24811904Y10221372D02*
X24859523Y10316610D01*
X29738095Y24795181D02*
X29738095Y23985658D01*
X29738095Y23985658D02*
X29785714Y23890420D01*
X29785714Y23890420D02*
X29833333Y23842800D01*
X29833333Y23842800D02*
X29928571Y23795181D01*
X29928571Y23795181D02*
X30119047Y23795181D01*
X30119047Y23795181D02*
X30214285Y23842800D01*
X30214285Y23842800D02*
X30261904Y23890420D01*
X30261904Y23890420D02*
X30309523Y23985658D01*
X30309523Y23985658D02*
X30309523Y24795181D01*
X30928571Y24366610D02*
X30833333Y24414229D01*
X30833333Y24414229D02*
X30785714Y24461848D01*
X30785714Y24461848D02*
X30738095Y24557086D01*
X30738095Y24557086D02*
X30738095Y24604705D01*
X30738095Y24604705D02*
X30785714Y24699943D01*
X30785714Y24699943D02*
X30833333Y24747562D01*
X30833333Y24747562D02*
X30928571Y24795181D01*
X30928571Y24795181D02*
X31119047Y24795181D01*
X31119047Y24795181D02*
X31214285Y24747562D01*
X31214285Y24747562D02*
X31261904Y24699943D01*
X31261904Y24699943D02*
X31309523Y24604705D01*
X31309523Y24604705D02*
X31309523Y24557086D01*
X31309523Y24557086D02*
X31261904Y24461848D01*
X31261904Y24461848D02*
X31214285Y24414229D01*
X31214285Y24414229D02*
X31119047Y24366610D01*
X31119047Y24366610D02*
X30928571Y24366610D01*
X30928571Y24366610D02*
X30833333Y24318991D01*
X30833333Y24318991D02*
X30785714Y24271372D01*
X30785714Y24271372D02*
X30738095Y24176134D01*
X30738095Y24176134D02*
X30738095Y23985658D01*
X30738095Y23985658D02*
X30785714Y23890420D01*
X30785714Y23890420D02*
X30833333Y23842800D01*
X30833333Y23842800D02*
X30928571Y23795181D01*
X30928571Y23795181D02*
X31119047Y23795181D01*
X31119047Y23795181D02*
X31214285Y23842800D01*
X31214285Y23842800D02*
X31261904Y23890420D01*
X31261904Y23890420D02*
X31309523Y23985658D01*
X31309523Y23985658D02*
X31309523Y24176134D01*
X31309523Y24176134D02*
X31261904Y24271372D01*
X31261904Y24271372D02*
X31214285Y24318991D01*
X31214285Y24318991D02*
X31119047Y24366610D01*
X6263095Y14595181D02*
X6263095Y13785658D01*
X6263095Y13785658D02*
X6310714Y13690420D01*
X6310714Y13690420D02*
X6358333Y13642800D01*
X6358333Y13642800D02*
X6453571Y13595181D01*
X6453571Y13595181D02*
X6644047Y13595181D01*
X6644047Y13595181D02*
X6739285Y13642800D01*
X6739285Y13642800D02*
X6786904Y13690420D01*
X6786904Y13690420D02*
X6834523Y13785658D01*
X6834523Y13785658D02*
X6834523Y14595181D01*
X7739285Y14261848D02*
X7739285Y13595181D01*
X7501190Y14642800D02*
X7263095Y13928515D01*
X7263095Y13928515D02*
X7882142Y13928515D01*
X17588095Y13545181D02*
X17588095Y12735658D01*
X17588095Y12735658D02*
X17635714Y12640420D01*
X17635714Y12640420D02*
X17683333Y12592800D01*
X17683333Y12592800D02*
X17778571Y12545181D01*
X17778571Y12545181D02*
X17969047Y12545181D01*
X17969047Y12545181D02*
X18064285Y12592800D01*
X18064285Y12592800D02*
X18111904Y12640420D01*
X18111904Y12640420D02*
X18159523Y12735658D01*
X18159523Y12735658D02*
X18159523Y13545181D01*
X18540476Y13545181D02*
X19159523Y13545181D01*
X19159523Y13545181D02*
X18826190Y13164229D01*
X18826190Y13164229D02*
X18969047Y13164229D01*
X18969047Y13164229D02*
X19064285Y13116610D01*
X19064285Y13116610D02*
X19111904Y13068991D01*
X19111904Y13068991D02*
X19159523Y12973753D01*
X19159523Y12973753D02*
X19159523Y12735658D01*
X19159523Y12735658D02*
X19111904Y12640420D01*
X19111904Y12640420D02*
X19064285Y12592800D01*
X19064285Y12592800D02*
X18969047Y12545181D01*
X18969047Y12545181D02*
X18683333Y12545181D01*
X18683333Y12545181D02*
X18588095Y12592800D01*
X18588095Y12592800D02*
X18540476Y12640420D01*
D13*
%TO.C,U2*%
X4960000Y7700000D02*
X4960000Y5700000D01*
X2740000Y7700000D02*
X2740000Y5700000D01*
X5140000Y7940000D02*
X4860000Y7940000D01*
X4860000Y8220000D01*
X5140000Y7940000D01*
G36*
X5140000Y7940000D02*
G01*
X4860000Y7940000D01*
X4860000Y8220000D01*
X5140000Y7940000D01*
G37*
%TO.C,U6*%
X17360000Y16390000D02*
X17185000Y16390000D01*
X14640000Y17065000D02*
X14640000Y16690000D01*
X17360000Y17065000D02*
X17360000Y16390000D01*
X14640000Y18935000D02*
X14640000Y19610000D01*
X17360000Y18935000D02*
X17360000Y19610000D01*
X14640000Y19610000D02*
X14815000Y19610000D01*
X17360000Y19610000D02*
X17185000Y19610000D01*
X14640000Y16390000D02*
X14450000Y16250000D01*
X14450000Y16530000D01*
X14640000Y16390000D01*
G36*
X14640000Y16390000D02*
G01*
X14450000Y16250000D01*
X14450000Y16530000D01*
X14640000Y16390000D01*
G37*
%TO.C,SW4*%
X10354800Y15887000D02*
X10354800Y14911000D01*
X10354800Y20642000D02*
X10354800Y19667000D01*
X4833800Y14911000D02*
X10354800Y14911000D01*
X4833800Y15887000D02*
X4833800Y14911000D01*
X4833800Y20642000D02*
X10354800Y20642000D01*
X4833800Y20642000D02*
X4833800Y19727000D01*
X3643800Y19727000D02*
X4833800Y19727000D01*
%TO.C,U9*%
X23425000Y7516000D02*
X24475000Y7516000D01*
X23425000Y9496000D02*
X24725000Y9496000D01*
X24845000Y7236000D02*
X24845000Y7516000D01*
X25125000Y7516000D01*
X24845000Y7236000D01*
G36*
X24845000Y7236000D02*
G01*
X24845000Y7516000D01*
X25125000Y7516000D01*
X24845000Y7236000D01*
G37*
%TO.C,U8*%
X26840000Y23570000D02*
X26840000Y24980000D01*
X29160000Y23570000D02*
X29160000Y24980000D01*
X26840000Y24980000D02*
X27500000Y24980000D01*
X28500000Y24980000D02*
X29160000Y24980000D01*
X26860000Y23200000D02*
X26530000Y22960000D01*
X26530000Y23440000D01*
X26860000Y23200000D01*
G36*
X26860000Y23200000D02*
G01*
X26530000Y22960000D01*
X26530000Y23440000D01*
X26860000Y23200000D01*
G37*
%TO.C,U4*%
X8185000Y12460000D02*
X8185000Y11050000D01*
X5865000Y12450000D02*
X5865000Y11050000D01*
X8465000Y12590000D02*
X8135000Y12830000D01*
X8465000Y13070000D01*
X8465000Y12590000D01*
G36*
X8465000Y12590000D02*
G01*
X8135000Y12830000D01*
X8465000Y13070000D01*
X8465000Y12590000D01*
G37*
%TO.C,R11*%
X27846359Y22305000D02*
X28153641Y22305000D01*
X27846359Y21545000D02*
X28153641Y21545000D01*
%TO.C,R10*%
X9521359Y12545000D02*
X9828641Y12545000D01*
X9521359Y13305000D02*
X9828641Y13305000D01*
%TO.C,R9*%
X9521359Y14430000D02*
X9828641Y14430000D01*
X9521359Y13670000D02*
X9828641Y13670000D01*
%TO.C,R7*%
X25880000Y6093641D02*
X25880000Y5786359D01*
X25120000Y6093641D02*
X25120000Y5786359D01*
%TO.C,D2*%
X22350000Y7790000D02*
X22350000Y11800000D01*
X20350000Y7790000D02*
X22350000Y7790000D01*
X20350000Y7790000D02*
X20350000Y11800000D01*
%TO.C,J1*%
X-2830000Y32480000D02*
X-2830000Y4480000D01*
X-2830000Y32480000D02*
X-170000Y32480000D01*
X-2830000Y4480000D02*
X-170000Y4480000D01*
X-1500000Y35080000D02*
X-170000Y35080000D01*
X-170000Y35080000D02*
X-170000Y33750000D01*
X-170000Y32480000D02*
X-170000Y4480000D01*
%TO.C,U1*%
X7188000Y42350000D02*
X25188000Y42350000D01*
X7188000Y36350000D02*
X7188000Y42350000D01*
X7188000Y22350000D02*
X7188000Y22550000D01*
X25188000Y42350000D02*
X25188000Y36350000D01*
X25188000Y22350000D02*
X7188000Y22350000D01*
X25188000Y22350000D02*
X25188000Y22550000D01*
%TO.C,C4*%
X3840580Y9610000D02*
X3559420Y9610000D01*
X3840580Y8590000D02*
X3559420Y8590000D01*
%TO.C,R3*%
X4396359Y12620000D02*
X4703641Y12620000D01*
X4396359Y13380000D02*
X4703641Y13380000D01*
%TO.C,C1*%
X4082836Y4760000D02*
X3867164Y4760000D01*
X4082836Y4040000D02*
X3867164Y4040000D01*
%TO.C,J3*%
X32170000Y32480000D02*
X32170000Y14640000D01*
X32170000Y32480000D02*
X34830000Y32480000D01*
X32170000Y14640000D02*
X34830000Y14640000D01*
X33500000Y35080000D02*
X34830000Y35080000D01*
X34830000Y35080000D02*
X34830000Y33750000D01*
X34830000Y32480000D02*
X34830000Y14640000D01*
%TO.C,R2*%
X4396359Y12130000D02*
X4703641Y12130000D01*
X4396359Y11370000D02*
X4703641Y11370000D01*
%TO.C,R6*%
X25880000Y10846359D02*
X25880000Y11153641D01*
X25120000Y10846359D02*
X25120000Y11153641D01*
%TO.C,C9*%
X9042164Y21810000D02*
X9257836Y21810000D01*
X9042164Y21090000D02*
X9257836Y21090000D01*
%TO.C,C8*%
X7907836Y7060000D02*
X7692164Y7060000D01*
X7907836Y6340000D02*
X7692164Y6340000D01*
%TO.C,R8*%
X5446359Y21080000D02*
X5753641Y21080000D01*
X5446359Y21840000D02*
X5753641Y21840000D01*
%TO.C,C6*%
X18110000Y16846164D02*
X18110000Y17061836D01*
X18830000Y16846164D02*
X18830000Y17061836D01*
%TO.C,C5*%
X5640000Y8857836D02*
X5640000Y8642164D01*
X6360000Y8857836D02*
X6360000Y8642164D01*
%TO.C,C2*%
X5640000Y6607836D02*
X5640000Y6392164D01*
X6360000Y6607836D02*
X6360000Y6392164D01*
%TO.C,C3*%
X7915000Y8832836D02*
X7915000Y8617164D01*
X8635000Y8832836D02*
X8635000Y8617164D01*
%TO.C,J2*%
X3270000Y2370000D02*
X4600000Y2370000D01*
X3270000Y1040000D02*
X3270000Y2370000D01*
X3270000Y-230000D02*
X5870000Y-230000D01*
X3270000Y-2830000D02*
X3270000Y-230000D01*
X3270000Y-2830000D02*
X28790000Y-2830000D01*
X5870000Y2370000D02*
X28790000Y2370000D01*
X5870000Y-230000D02*
X5870000Y2370000D01*
X28790000Y-2830000D02*
X28790000Y2370000D01*
%TO.C,J6*%
X31620000Y13179500D02*
X29920000Y13179500D01*
X31620000Y3839500D02*
X29920000Y3839500D01*
%TO.C,R4*%
X13264000Y16828359D02*
X13264000Y17135641D01*
X14024000Y16828359D02*
X14024000Y17135641D01*
%TO.C,R1*%
X4396359Y10918000D02*
X4703641Y10918000D01*
X4396359Y10158000D02*
X4703641Y10158000D01*
%TO.C,D3*%
X20815000Y6562000D02*
X20815000Y4862000D01*
X20815000Y6562000D02*
X23475000Y6562000D01*
X20815000Y4862000D02*
X23475000Y4862000D01*
%TO.C,U5*%
X21000000Y21750000D02*
X26500000Y21750000D01*
X21000000Y21500000D02*
X21000000Y21750000D01*
X21000000Y14500000D02*
X21000000Y14250000D01*
X21000000Y14250000D02*
X26500000Y14250000D01*
X26500000Y21750000D02*
X26500000Y21500000D01*
X26500000Y14250000D02*
X26500000Y14500000D01*
%TO.C,U3*%
X10640000Y12110000D02*
X10640000Y11660000D01*
X10640000Y4890000D02*
X10640000Y5340000D01*
X11090000Y12110000D02*
X10640000Y12110000D01*
X11090000Y4890000D02*
X10640000Y4890000D01*
X17410000Y12110000D02*
X17860000Y12110000D01*
X17410000Y4890000D02*
X17860000Y4890000D01*
X17860000Y12110000D02*
X17860000Y11660000D01*
X17860000Y4890000D02*
X17860000Y5340000D01*
X10050000Y11660000D02*
X9710000Y12130000D01*
X10390000Y12130000D01*
X10050000Y11660000D01*
G36*
X10050000Y11660000D02*
G01*
X9710000Y12130000D01*
X10390000Y12130000D01*
X10050000Y11660000D01*
G37*
%TO.C,C7*%
X18110000Y19347836D02*
X18110000Y19132164D01*
X18830000Y19347836D02*
X18830000Y19132164D01*
%TO.C,D1*%
X1825000Y12168000D02*
X3225000Y12168000D01*
X2200000Y12168000D02*
X2850000Y12168000D01*
X2850000Y11868000D01*
X2200000Y11868000D01*
X2200000Y12168000D01*
G36*
X2200000Y12168000D02*
G01*
X2850000Y12168000D01*
X2850000Y11868000D01*
X2200000Y11868000D01*
X2200000Y12168000D01*
G37*
%TO.C,R5*%
X13264000Y19421641D02*
X13264000Y19114359D01*
X14024000Y19421641D02*
X14024000Y19114359D01*
%TD*%
M02*
