M48
; DRILL file {KiCad 8.0.0} date 2024-04-21T21:54:16+0100
; FORMAT={-:-/ absolute / inch / decimal}
; #@! TF.CreationDate,2024-04-21T21:54:16+01:00
; #@! TF.GenerationSoftware,Kicad,Pcbnew,8.0.0
; #@! TF.FileFunction,Plated,1,2,PTH
FMAT,2
INCH
; #@! TA.AperFunction,Plated,PTH,ViaDrill
T1C0.0079
; #@! TA.AperFunction,Plated,PTH,ComponentDrill
T2C0.0079
; #@! TA.AperFunction,Plated,PTH,ViaDrill
T3C0.0157
; #@! TA.AperFunction,Plated,PTH,ComponentDrill
T4C0.0236
; #@! TA.AperFunction,Plated,PTH,ComponentDrill
T5C0.0394
%
G90
G05
T1
X0.0492Y0.627
X0.0492Y0.1673
X0.0787Y0.4724
X0.1158Y0.3248
X0.1378Y0.1969
X0.2362Y0.374
X0.2362Y0.2264
X0.2461Y1.3287
X0.2461Y0.2559
X0.2953Y0.6988
X0.302Y0.3149
X0.302Y0.2699
X0.3346Y0.9154
X0.337Y0.8449
X0.347Y0.6249
X0.347Y0.5099
X0.374Y0.6496
X0.3927Y0.5411
X0.4093Y0.5607
X0.4246Y0.576
X0.4259Y0.8688
X0.429Y0.6006
X0.4373Y0.779
X0.462Y0.9154
X0.4777Y0.5415
X0.4852Y0.7874
X0.4913Y0.5583
X0.4997Y0.5782
X0.5172Y0.591
X0.5274Y0.6105
X0.5331Y0.7131
X0.5512Y0.9154
X0.6806Y0.5797
X0.6809Y0.5249
X0.689Y0.7283
X0.689Y0.7087
X0.6988Y0.748
X0.6988Y0.6791
X0.7006Y0.5963
X0.7188Y0.5231
X0.8563Y0.9154
X0.9154Y0.6791
X0.917Y0.2249
X0.935Y0.4528
X0.935Y0.4232
X0.9449Y0.6791
X0.9941Y0.3346
X0.9941Y0.313
X1.0021Y0.2147
X1.0039Y0.4528
X1.0335Y0.9154
X1.063Y0.3642
T2
X0.123Y0.2537
X0.1663Y0.2537
X0.6176Y1.1673
X0.6176Y1.124
X0.6393Y1.189
X0.6393Y1.1457
X0.6393Y1.1024
X0.6609Y1.1673
X0.6609Y1.124
X0.6826Y1.189
X0.6826Y1.1457
X0.6826Y1.1024
X0.7043Y1.1673
X0.7043Y1.124
T3
X0.1094Y0.0935
X0.2045Y0.1673
X1.063Y0.4528
X1.063Y0.2067
T5
X-0.0591Y1.3287
X-0.0591Y1.2287
X-0.0591Y1.1287
X-0.0591Y1.0287
X-0.0591Y0.9287
X-0.0591Y0.8287
X-0.0591Y0.7287
X-0.0591Y0.6287
X-0.0591Y0.5287
X-0.0591Y0.4287
X-0.0591Y0.3287
X-0.0591Y0.2287
X0.1811Y0.0409
X0.1811Y-0.0591
X0.2811Y0.0409
X0.2811Y-0.0591
X0.3811Y0.0409
X0.3811Y-0.0591
X0.4811Y0.0409
X0.4811Y-0.0591
X0.5811Y0.0409
X0.5811Y-0.0591
X0.6811Y0.0409
X0.6811Y-0.0591
X0.7811Y0.0409
X0.7811Y-0.0591
X0.8811Y0.0409
X0.8811Y-0.0591
X0.9811Y0.0409
X0.9811Y-0.0591
X1.0811Y0.0409
X1.0811Y-0.0591
X1.3189Y1.3287
X1.3189Y1.2287
X1.3189Y1.1287
X1.3189Y1.0287
X1.3189Y0.9287
X1.3189Y0.8287
X1.3189Y0.7287
X1.3189Y0.6287
T4
G00X1.1049Y0.5051
M15
G01X1.1482Y0.5051
M16
G05
G00X1.1049Y0.1649
M15
G01X1.1482Y0.1649
M16
G05
G00X1.2754Y0.5051
M15
G01X1.3069Y0.5051
M16
G05
G00X1.2754Y0.1649
M15
G01X1.3069Y0.1649
M16
G05
M30
