%TF.GenerationSoftware,KiCad,Pcbnew,8.0.4*%
%TF.CreationDate,2024-09-07T18:47:58+01:00*%
%TF.ProjectId,Microll,4d696372-6f6c-46c2-9e6b-696361645f70,rev?*%
%TF.SameCoordinates,PX564eba0PY53724e0*%
%TF.FileFunction,Copper,L1,Top*%
%TF.FilePolarity,Positive*%
%FSLAX46Y46*%
G04 Gerber Fmt 4.6, Leading zero omitted, Abs format (unit mm)*
G04 Created by KiCad (PCBNEW 8.0.4) date 2024-09-07 18:47:58*
%MOMM*%
%LPD*%
G01*
G04 APERTURE LIST*
G04 Aperture macros list*
%AMRoundRect*
0 Rectangle with rounded corners*
0 $1 Rounding radius*
0 $2 $3 $4 $5 $6 $7 $8 $9 X,Y pos of 4 corners*
0 Add a 4 corners polygon primitive as box body*
4,1,4,$2,$3,$4,$5,$6,$7,$8,$9,$2,$3,0*
0 Add four circle primitives for the rounded corners*
1,1,$1+$1,$2,$3*
1,1,$1+$1,$4,$5*
1,1,$1+$1,$6,$7*
1,1,$1+$1,$8,$9*
0 Add four rect primitives between the rounded corners*
20,1,$1+$1,$2,$3,$4,$5,0*
20,1,$1+$1,$4,$5,$6,$7,0*
20,1,$1+$1,$6,$7,$8,$9,0*
20,1,$1+$1,$8,$9,$2,$3,0*%
G04 Aperture macros list end*
%TA.AperFunction,SMDPad,CuDef*%
%ADD10RoundRect,0.135000X-0.185000X0.135000X-0.185000X-0.135000X0.185000X-0.135000X0.185000X0.135000X0*%
%TD*%
%TA.AperFunction,SMDPad,CuDef*%
%ADD11RoundRect,0.225000X0.375000X-0.225000X0.375000X0.225000X-0.375000X0.225000X-0.375000X-0.225000X0*%
%TD*%
%TA.AperFunction,SMDPad,CuDef*%
%ADD12RoundRect,0.112500X-0.112500X-0.237500X0.112500X-0.237500X0.112500X0.237500X-0.112500X0.237500X0*%
%TD*%
%TA.AperFunction,SMDPad,CuDef*%
%ADD13RoundRect,0.135000X-0.135000X-0.185000X0.135000X-0.185000X0.135000X0.185000X-0.135000X0.185000X0*%
%TD*%
%TA.AperFunction,ComponentPad*%
%ADD14O,1.700000X1.700000*%
%TD*%
%TA.AperFunction,ComponentPad*%
%ADD15R,1.700000X1.700000*%
%TD*%
%TA.AperFunction,SMDPad,CuDef*%
%ADD16RoundRect,0.175000X-0.175000X-0.175000X0.175000X-0.175000X0.175000X0.175000X-0.175000X0.175000X0*%
%TD*%
%TA.AperFunction,ComponentPad*%
%ADD17C,0.475000*%
%TD*%
%TA.AperFunction,SMDPad,CuDef*%
%ADD18R,3.000000X3.000000*%
%TD*%
%TA.AperFunction,SMDPad,CuDef*%
%ADD19RoundRect,0.225000X-0.525000X-0.225000X0.525000X-0.225000X0.525000X0.225000X-0.525000X0.225000X0*%
%TD*%
%TA.AperFunction,SMDPad,CuDef*%
%ADD20RoundRect,0.225000X0.225000X0.250000X-0.225000X0.250000X-0.225000X-0.250000X0.225000X-0.250000X0*%
%TD*%
%TA.AperFunction,SMDPad,CuDef*%
%ADD21RoundRect,0.093750X0.156250X0.093750X-0.156250X0.093750X-0.156250X-0.093750X0.156250X-0.093750X0*%
%TD*%
%TA.AperFunction,SMDPad,CuDef*%
%ADD22RoundRect,0.075000X0.250000X0.075000X-0.250000X0.075000X-0.250000X-0.075000X0.250000X-0.075000X0*%
%TD*%
%TA.AperFunction,SMDPad,CuDef*%
%ADD23RoundRect,0.140000X0.140000X0.170000X-0.140000X0.170000X-0.140000X-0.170000X0.140000X-0.170000X0*%
%TD*%
%TA.AperFunction,SMDPad,CuDef*%
%ADD24R,1.270000X0.760000*%
%TD*%
%TA.AperFunction,SMDPad,CuDef*%
%ADD25RoundRect,0.135000X0.185000X-0.135000X0.185000X0.135000X-0.185000X0.135000X-0.185000X-0.135000X0*%
%TD*%
%TA.AperFunction,SMDPad,CuDef*%
%ADD26RoundRect,0.140000X-0.140000X-0.170000X0.140000X-0.170000X0.140000X0.170000X-0.140000X0.170000X0*%
%TD*%
%TA.AperFunction,SMDPad,CuDef*%
%ADD27RoundRect,0.140000X0.170000X-0.140000X0.170000X0.140000X-0.170000X0.140000X-0.170000X-0.140000X0*%
%TD*%
%TA.AperFunction,SMDPad,CuDef*%
%ADD28RoundRect,0.140000X-0.170000X0.140000X-0.170000X-0.140000X0.170000X-0.140000X0.170000X0.140000X0*%
%TD*%
%TA.AperFunction,ComponentPad*%
%ADD29O,1.800000X1.000000*%
%TD*%
%TA.AperFunction,ComponentPad*%
%ADD30O,2.100000X1.000000*%
%TD*%
%TA.AperFunction,SMDPad,CuDef*%
%ADD31RoundRect,0.150000X0.425000X-0.150000X0.425000X0.150000X-0.425000X0.150000X-0.425000X-0.150000X0*%
%TD*%
%TA.AperFunction,SMDPad,CuDef*%
%ADD32RoundRect,0.075000X0.500000X-0.075000X0.500000X0.075000X-0.500000X0.075000X-0.500000X-0.075000X0*%
%TD*%
%TA.AperFunction,HeatsinkPad*%
%ADD33C,0.500000*%
%TD*%
%TA.AperFunction,HeatsinkPad*%
%ADD34R,1.600000X1.000000*%
%TD*%
%TA.AperFunction,SMDPad,CuDef*%
%ADD35RoundRect,0.093750X-0.106250X0.093750X-0.106250X-0.093750X0.106250X-0.093750X0.106250X0.093750X0*%
%TD*%
%TA.AperFunction,SMDPad,CuDef*%
%ADD36RoundRect,0.100000X-0.100000X0.225000X-0.100000X-0.225000X0.100000X-0.225000X0.100000X0.225000X0*%
%TD*%
%TA.AperFunction,SMDPad,CuDef*%
%ADD37RoundRect,0.125000X-0.125000X-0.125000X0.125000X-0.125000X0.125000X0.125000X-0.125000X0.125000X0*%
%TD*%
%TA.AperFunction,SMDPad,CuDef*%
%ADD38RoundRect,0.300000X0.450000X-0.300000X0.450000X0.300000X-0.450000X0.300000X-0.450000X-0.300000X0*%
%TD*%
%TA.AperFunction,SMDPad,CuDef*%
%ADD39RoundRect,0.075000X-0.075000X-0.662500X0.075000X-0.662500X0.075000X0.662500X-0.075000X0.662500X0*%
%TD*%
%TA.AperFunction,SMDPad,CuDef*%
%ADD40RoundRect,0.075000X-0.662500X-0.075000X0.662500X-0.075000X0.662500X0.075000X-0.662500X0.075000X0*%
%TD*%
%TA.AperFunction,SMDPad,CuDef*%
%ADD41R,0.500000X0.850000*%
%TD*%
%TA.AperFunction,SMDPad,CuDef*%
%ADD42RoundRect,0.087500X0.225000X-0.087500X0.225000X0.087500X-0.225000X0.087500X-0.225000X-0.087500X0*%
%TD*%
%TA.AperFunction,SMDPad,CuDef*%
%ADD43RoundRect,0.087500X0.087500X-0.225000X0.087500X0.225000X-0.087500X0.225000X-0.087500X-0.225000X0*%
%TD*%
%TA.AperFunction,ViaPad*%
%ADD44C,0.400000*%
%TD*%
%TA.AperFunction,ViaPad*%
%ADD45C,0.800000*%
%TD*%
%TA.AperFunction,Conductor*%
%ADD46C,0.150000*%
%TD*%
%TA.AperFunction,Conductor*%
%ADD47C,0.250000*%
%TD*%
G04 APERTURE END LIST*
D10*
%TO.P,R7,2*%
%TO.N,GND*%
X25500000Y5430000D03*
%TO.P,R7,1*%
%TO.N,Net-(J6-CC1)*%
X25500000Y6450000D03*
%TD*%
D11*
%TO.P,D2,2,A*%
%TO.N,V_IN*%
X21350000Y11800000D03*
%TO.P,D2,1,K*%
%TO.N,+5V*%
X21350000Y8500000D03*
%TD*%
D12*
%TO.P,U8,3,D*%
%TO.N,Net-(U8-D)*%
X28000000Y25250000D03*
%TO.P,U8,2,S*%
%TO.N,GND*%
X28650000Y23250000D03*
%TO.P,U8,1,G*%
%TO.N,/Blue*%
X27350000Y23250000D03*
%TD*%
D13*
%TO.P,R10,2*%
%TO.N,GND*%
X10185000Y12925000D03*
%TO.P,R10,1*%
%TO.N,/Green*%
X9165000Y12925000D03*
%TD*%
D14*
%TO.P,J1,12,Pin_12*%
%TO.N,/PB5*%
X-1500000Y5810000D03*
%TO.P,J1,11,Pin_11*%
%TO.N,/PB4*%
X-1500000Y8350000D03*
%TO.P,J1,10,Pin_10*%
%TO.N,/BOOT*%
X-1500000Y10890000D03*
%TO.P,J1,9,Pin_9*%
%TO.N,/PA13*%
X-1500000Y13430000D03*
%TO.P,J1,8,Pin_8*%
%TO.N,/GPIO9*%
X-1500000Y15970000D03*
%TO.P,J1,7,Pin_7*%
%TO.N,/GPIO8*%
X-1500000Y18510000D03*
%TO.P,J1,6,Pin_6*%
%TO.N,/GPIO7*%
X-1500000Y21050000D03*
%TO.P,J1,5,Pin_5*%
%TO.N,/GPIO6*%
X-1500000Y23590000D03*
%TO.P,J1,4,Pin_4*%
%TO.N,SCL*%
X-1500000Y26130000D03*
%TO.P,J1,3,Pin_3*%
%TO.N,SDA*%
X-1500000Y28670000D03*
%TO.P,J1,2,Pin_2*%
%TO.N,GND*%
X-1500000Y31210000D03*
D15*
%TO.P,J1,1,Pin_1*%
%TO.N,+3.3V*%
X-1500000Y33750000D03*
%TD*%
D13*
%TO.P,R11,2*%
%TO.N,GND*%
X28510000Y21925000D03*
%TO.P,R11,1*%
%TO.N,/Blue*%
X27490000Y21925000D03*
%TD*%
D16*
%TO.P,U1,TP,TP*%
%TO.N,GND*%
X17888000Y28000000D03*
D17*
X17888000Y28550000D03*
D16*
X17888000Y29100000D03*
D17*
X17888000Y29650000D03*
D16*
X17888000Y30200000D03*
D17*
X17338000Y28000000D03*
X17338000Y29100000D03*
X17338000Y30200000D03*
D16*
X16788000Y28000000D03*
D17*
X16788000Y28550000D03*
D18*
X16788000Y29100000D03*
D16*
X16788000Y29100000D03*
D17*
X16788000Y29650000D03*
D16*
X16788000Y30200000D03*
D17*
X16238000Y28000000D03*
X16238000Y29100000D03*
X16238000Y30200000D03*
D16*
X15688000Y28000000D03*
D17*
X15688000Y28550000D03*
D16*
X15688000Y29100000D03*
D17*
X15688000Y29650000D03*
D16*
X15688000Y30200000D03*
D19*
%TO.P,U1,18,GPIO0*%
%TO.N,/GPIO0*%
X24938000Y35250000D03*
%TO.P,U1,17,GPIO1*%
%TO.N,/GPIO1*%
X24938000Y33750000D03*
%TO.P,U1,16,GPIO2*%
%TO.N,/GPIO2*%
X24938000Y32250000D03*
%TO.P,U1,15,GPIO3*%
%TO.N,/GPIO3*%
X24938000Y30750000D03*
%TO.P,U1,14,GPIO19*%
%TO.N,ESP32_USB+*%
X24938000Y29250000D03*
%TO.P,U1,13,GPIO18*%
%TO.N,ESP32_USB-*%
X24938000Y27750000D03*
%TO.P,U1,12,TXD*%
%TO.N,/Tx*%
X24938000Y26250000D03*
%TO.P,U1,11,RXD*%
%TO.N,/Rx*%
X24938000Y24750000D03*
%TO.P,U1,10,GPIO10*%
%TO.N,/Blue*%
X24938000Y23250000D03*
%TO.P,U1,9,GND*%
%TO.N,GND*%
X7438000Y23250000D03*
%TO.P,U1,8,GPIO9*%
%TO.N,/GPIO9*%
X7438000Y24750000D03*
%TO.P,U1,7,GPIO8*%
%TO.N,/GPIO8*%
X7438000Y26250000D03*
%TO.P,U1,6,GPIO7*%
%TO.N,/GPIO7*%
X7438000Y27750000D03*
%TO.P,U1,5,GPIO6*%
%TO.N,/GPIO6*%
X7438000Y29250000D03*
%TO.P,U1,4,GPIO5*%
%TO.N,SCL*%
X7438000Y30750000D03*
%TO.P,U1,3,GPIO4*%
%TO.N,SDA*%
X7438000Y32250000D03*
%TO.P,U1,2,EN*%
%TO.N,/EN*%
X7438000Y33750000D03*
%TO.P,U1,1,3.3V*%
%TO.N,+3.3V*%
X7438000Y35250000D03*
%TD*%
D20*
%TO.P,C4,2*%
%TO.N,GND*%
X2925000Y9100000D03*
%TO.P,C4,1*%
%TO.N,+3.3V*%
X4475000Y9100000D03*
%TD*%
D13*
%TO.P,R3,2*%
%TO.N,Net-(U8-D)*%
X5060000Y13000000D03*
%TO.P,R3,1*%
%TO.N,Net-(D1-BK)*%
X4040000Y13000000D03*
%TD*%
D21*
%TO.P,U9,6,I/O1*%
%TO.N,/USB+*%
X23225000Y7968500D03*
D22*
%TO.P,U9,5,VBUS*%
%TO.N,+5V*%
X23150000Y8506000D03*
D21*
%TO.P,U9,4,I/O2*%
%TO.N,/USB-*%
X23225000Y9043500D03*
%TO.P,U9,3,I/O2*%
%TO.N,/D-*%
X24925000Y9043500D03*
D22*
%TO.P,U9,2,GND*%
%TO.N,GND*%
X25000000Y8506000D03*
D21*
%TO.P,U9,1,I/O1*%
%TO.N,/D+*%
X24925000Y7968500D03*
%TD*%
D23*
%TO.P,C1,2*%
%TO.N,GND*%
X3495000Y4400000D03*
%TO.P,C1,1*%
%TO.N,+5V*%
X4455000Y4400000D03*
%TD*%
D14*
%TO.P,J3,8,Pin_8*%
%TO.N,CAN_RX*%
X33500000Y15970000D03*
%TO.P,J3,7,Pin_7*%
%TO.N,CAN_TX*%
X33500000Y18510000D03*
%TO.P,J3,6,Pin_6*%
%TO.N,/Rx*%
X33500000Y21050000D03*
%TO.P,J3,5,Pin_5*%
%TO.N,/Tx*%
X33500000Y23590000D03*
%TO.P,J3,4,Pin_4*%
%TO.N,/GPIO3*%
X33500000Y26130000D03*
%TO.P,J3,3,Pin_3*%
%TO.N,/GPIO2*%
X33500000Y28670000D03*
%TO.P,J3,2,Pin_2*%
%TO.N,/GPIO1*%
X33500000Y31210000D03*
D15*
%TO.P,J3,1,Pin_1*%
%TO.N,/GPIO0*%
X33500000Y33750000D03*
%TD*%
D13*
%TO.P,R2,2*%
%TO.N,Net-(U4B-D)*%
X5060000Y11750000D03*
%TO.P,R2,1*%
%TO.N,Net-(D1-GK)*%
X4040000Y11750000D03*
%TD*%
D24*
%TO.P,SW4,6*%
%TO.N,GND*%
X11104800Y19047000D03*
%TO.P,SW4,5*%
%TO.N,/BOOT*%
X11094800Y17777000D03*
%TO.P,SW4,4*%
%TO.N,GND*%
X11094800Y16507000D03*
%TO.P,SW4,3*%
%TO.N,/RESET*%
X3484800Y16507000D03*
%TO.P,SW4,2*%
%TO.N,GND*%
X3484800Y17777000D03*
%TO.P,SW4,1*%
%TO.N,/EN*%
X3484800Y19047000D03*
%TD*%
D25*
%TO.P,R6,2*%
%TO.N,GND*%
X25500000Y11510000D03*
%TO.P,R6,1*%
%TO.N,Net-(J6-CC2)*%
X25500000Y10490000D03*
%TD*%
D13*
%TO.P,R9,2*%
%TO.N,GND*%
X10185000Y14050000D03*
%TO.P,R9,1*%
%TO.N,/Red*%
X9165000Y14050000D03*
%TD*%
D26*
%TO.P,C9,2*%
%TO.N,GND*%
X9630000Y21450000D03*
%TO.P,C9,1*%
%TO.N,/EN*%
X8670000Y21450000D03*
%TD*%
D23*
%TO.P,C8,2*%
%TO.N,GND*%
X7320000Y6700000D03*
%TO.P,C8,1*%
%TO.N,/RESET*%
X8280000Y6700000D03*
%TD*%
D13*
%TO.P,R8,2*%
%TO.N,/EN*%
X6110000Y21460000D03*
%TO.P,R8,1*%
%TO.N,+3.3V*%
X5090000Y21460000D03*
%TD*%
D27*
%TO.P,C6,2*%
%TO.N,GND*%
X18470000Y17434000D03*
%TO.P,C6,1*%
%TO.N,+3.3V*%
X18470000Y16474000D03*
%TD*%
D28*
%TO.P,C5,2*%
%TO.N,GND*%
X6000000Y8270000D03*
%TO.P,C5,1*%
%TO.N,+3.3V*%
X6000000Y9230000D03*
%TD*%
%TO.P,C2,2*%
%TO.N,GND*%
X6000000Y6020000D03*
%TO.P,C2,1*%
%TO.N,+3.3V*%
X6000000Y6980000D03*
%TD*%
%TO.P,C3,2*%
%TO.N,GND*%
X8275000Y8245000D03*
%TO.P,C3,1*%
%TO.N,+3.3V*%
X8275000Y9205000D03*
%TD*%
D14*
%TO.P,J2,20,Pin_20*%
%TO.N,GND*%
X27460000Y-1500000D03*
%TO.P,J2,19,Pin_19*%
X27460000Y1040000D03*
%TO.P,J2,18,Pin_18*%
%TO.N,V_IN*%
X24920000Y-1500000D03*
%TO.P,J2,17,Pin_17*%
%TO.N,+5V*%
X24920000Y1040000D03*
%TO.P,J2,16,Pin_16*%
%TO.N,USART_TX*%
X22380000Y-1500000D03*
%TO.P,J2,15,Pin_15*%
%TO.N,USART_RX*%
X22380000Y1040000D03*
%TO.P,J2,14,Pin_14*%
%TO.N,/PB15*%
X19840000Y-1500000D03*
%TO.P,J2,13,Pin_13*%
%TO.N,/PA8*%
X19840000Y1040000D03*
%TO.P,J2,12,Pin_12*%
%TO.N,/PB13*%
X17300000Y-1500000D03*
%TO.P,J2,11,Pin_11*%
%TO.N,/PB14*%
X17300000Y1040000D03*
%TO.P,J2,10,Pin_10*%
%TO.N,/PB0*%
X14760000Y-1500000D03*
%TO.P,J2,9,Pin_9*%
%TO.N,/PB1*%
X14760000Y1040000D03*
%TO.P,J2,8,Pin_8*%
%TO.N,SPI_MOSI*%
X12220000Y-1500000D03*
%TO.P,J2,7,Pin_7*%
%TO.N,SPI_MISO*%
X12220000Y1040000D03*
%TO.P,J2,6,Pin_6*%
%TO.N,SPI_SCK*%
X9680000Y-1500000D03*
%TO.P,J2,5,Pin_5*%
%TO.N,/DAC1_OUT1*%
X9680000Y1040000D03*
%TO.P,J2,4,Pin_4*%
%TO.N,/PA3*%
X7140000Y-1500000D03*
%TO.P,J2,3,Pin_3*%
%TO.N,/PA2*%
X7140000Y1040000D03*
%TO.P,J2,2,Pin_2*%
%TO.N,/ADC1_IN1*%
X4600000Y-1500000D03*
D15*
%TO.P,J2,1,Pin_1*%
%TO.N,/ADC1_IN0*%
X4600000Y1040000D03*
%TD*%
D29*
%TO.P,J6,S1,SHIELD*%
%TO.N,unconnected-(J6-SHIELD-PadS1)_2*%
X32795000Y12829500D03*
D30*
%TO.N,unconnected-(J6-SHIELD-PadS1)_3*%
X28615000Y12829500D03*
D29*
%TO.N,unconnected-(J6-SHIELD-PadS1)_1*%
X32795000Y4189500D03*
D30*
%TO.N,unconnected-(J6-SHIELD-PadS1)*%
X28615000Y4189500D03*
D31*
%TO.P,J6,B12,GND*%
%TO.N,GND*%
X28040000Y5309500D03*
%TO.P,J6,B9,VBUS*%
%TO.N,V_IN*%
X28040000Y6109500D03*
D32*
%TO.P,J6,B8,SBU2*%
%TO.N,unconnected-(J6-SBU2-PadB8)*%
X28040000Y6759500D03*
%TO.P,J6,B7,D-*%
%TO.N,/D-*%
X28040000Y7759500D03*
%TO.P,J6,B6,D+*%
%TO.N,/D+*%
X28040000Y9259500D03*
%TO.P,J6,B5,CC2*%
%TO.N,Net-(J6-CC2)*%
X28040000Y10259500D03*
D31*
%TO.P,J6,B4,VBUS*%
%TO.N,V_IN*%
X28040000Y10909500D03*
%TO.P,J6,B1,GND*%
%TO.N,GND*%
X28040000Y11709500D03*
%TO.P,J6,A12,GND*%
X28040000Y11709500D03*
%TO.P,J6,A9,VBUS*%
%TO.N,V_IN*%
X28040000Y10909500D03*
D32*
%TO.P,J6,A8,SBU1*%
%TO.N,unconnected-(J6-SBU1-PadA8)*%
X28040000Y9759500D03*
%TO.P,J6,A7,D-*%
%TO.N,/D-*%
X28040000Y8759500D03*
%TO.P,J6,A6,D+*%
%TO.N,/D+*%
X28040000Y8259500D03*
%TO.P,J6,A5,CC1*%
%TO.N,Net-(J6-CC1)*%
X28040000Y7259500D03*
D31*
%TO.P,J6,A4,VBUS*%
%TO.N,V_IN*%
X28040000Y6109500D03*
%TO.P,J6,A1,GND*%
%TO.N,GND*%
X28040000Y5309500D03*
%TD*%
D33*
%TO.P,U2,7,PAD*%
%TO.N,GND*%
X3300000Y6700000D03*
D34*
X3850000Y6700000D03*
D33*
X4400000Y6700000D03*
D35*
%TO.P,U2,6,IN*%
%TO.N,+5V*%
X4500000Y5812500D03*
%TO.P,U2,5,GND*%
%TO.N,GND*%
X3850000Y5812500D03*
%TO.P,U2,4,EN*%
%TO.N,+5V*%
X3200000Y5812500D03*
%TO.P,U2,3,GND*%
%TO.N,GND*%
X3200000Y7587500D03*
%TO.P,U2,2,SNS*%
%TO.N,+3.3V*%
X3850000Y7587500D03*
%TO.P,U2,1,OUT*%
X4500000Y7587500D03*
%TD*%
D36*
%TO.P,U4,6,D*%
%TO.N,Net-(U4A-D)*%
X7675000Y10800000D03*
%TO.P,U4,5,G*%
%TO.N,/Green*%
X7025000Y10800000D03*
%TO.P,U4,4,S*%
%TO.N,GND*%
X6375000Y10800000D03*
%TO.P,U4,3,D*%
%TO.N,Net-(U4B-D)*%
X6375000Y12700000D03*
%TO.P,U4,2,G*%
%TO.N,/Red*%
X7025000Y12700000D03*
%TO.P,U4,1,S*%
%TO.N,GND*%
X7675000Y12700000D03*
%TD*%
D25*
%TO.P,R4,2*%
%TO.N,SDA*%
X13644000Y17492000D03*
%TO.P,R4,1*%
%TO.N,+3.3V*%
X13644000Y16472000D03*
%TD*%
D13*
%TO.P,R1,2*%
%TO.N,Net-(U4A-D)*%
X5060000Y10538000D03*
%TO.P,R1,1*%
%TO.N,Net-(D1-RK)*%
X4040000Y10538000D03*
%TD*%
D37*
%TO.P,D3,2,A*%
%TO.N,GND*%
X23525000Y5712000D03*
%TO.P,D3,1,K*%
%TO.N,+5V*%
X21325000Y5712000D03*
%TD*%
D38*
%TO.P,U5,6*%
%TO.N,ESP32_USB-*%
X27000000Y20500000D03*
%TO.P,U5,5*%
%TO.N,/USB-*%
X27000000Y18000000D03*
%TO.P,U5,4*%
%TO.N,STM32_USB-*%
X27000000Y15500000D03*
%TO.P,U5,3*%
%TO.N,ESP32_USB+*%
X20500000Y20500000D03*
%TO.P,U5,2*%
%TO.N,/USB+*%
X20500000Y18000000D03*
%TO.P,U5,1*%
%TO.N,STM32_USB+*%
X20500000Y15500000D03*
%TD*%
D39*
%TO.P,U3,48,PB9*%
%TO.N,SDA*%
X11500000Y12662500D03*
%TO.P,U3,47,PB8*%
%TO.N,SCL*%
X12000000Y12662500D03*
%TO.P,U3,46,PB7*%
%TO.N,unconnected-(U3-PB7-Pad46)*%
X12500000Y12662500D03*
%TO.P,U3,45,PB6*%
%TO.N,unconnected-(U3-PB6-Pad45)*%
X13000000Y12662500D03*
%TO.P,U3,44,PB5*%
%TO.N,/PB5*%
X13500000Y12662500D03*
%TO.P,U3,43,PB4*%
%TO.N,/PB4*%
X14000000Y12662500D03*
%TO.P,U3,42,PB3*%
%TO.N,unconnected-(U3-PB3-Pad42)*%
X14500000Y12662500D03*
%TO.P,U3,41,PD3*%
%TO.N,unconnected-(U3-PD3-Pad41)*%
X15000000Y12662500D03*
%TO.P,U3,40,PD2*%
%TO.N,unconnected-(U3-PD2-Pad40)*%
X15500000Y12662500D03*
%TO.P,U3,39,PD1*%
%TO.N,CAN_TX*%
X16000000Y12662500D03*
%TO.P,U3,38,PD0*%
%TO.N,CAN_RX*%
X16500000Y12662500D03*
%TO.P,U3,37,PA15*%
%TO.N,unconnected-(U3-PA15-Pad37)*%
X17000000Y12662500D03*
D40*
%TO.P,U3,36,PA14-BOOT0*%
%TO.N,/BOOT*%
X18412500Y11250000D03*
%TO.P,U3,35,PA13*%
%TO.N,/PA13*%
X18412500Y10750000D03*
%TO.P,U3,34,PA12*%
%TO.N,STM32_USB+*%
X18412500Y10250000D03*
%TO.P,U3,33,PA11*%
%TO.N,STM32_USB-*%
X18412500Y9750000D03*
%TO.P,U3,32,PA10*%
%TO.N,USART_RX*%
X18412500Y9250000D03*
%TO.P,U3,31,PC7*%
%TO.N,unconnected-(U3-PC7-Pad31)*%
X18412500Y8750000D03*
%TO.P,U3,30,PC6*%
%TO.N,unconnected-(U3-PC6-Pad30)*%
X18412500Y8250000D03*
%TO.P,U3,29,PA9*%
%TO.N,USART_TX*%
X18412500Y7750000D03*
%TO.P,U3,28,PA8*%
%TO.N,/PA8*%
X18412500Y7250000D03*
%TO.P,U3,27,PB15*%
%TO.N,/PB15*%
X18412500Y6750000D03*
%TO.P,U3,26,PB14*%
%TO.N,/PB14*%
X18412500Y6250000D03*
%TO.P,U3,25,PB13*%
%TO.N,/PB13*%
X18412500Y5750000D03*
D39*
%TO.P,U3,24,PB12*%
%TO.N,unconnected-(U3-PB12-Pad24)*%
X17000000Y4337500D03*
%TO.P,U3,23,PB11*%
%TO.N,unconnected-(U3-PB11-Pad23)*%
X16500000Y4337500D03*
%TO.P,U3,22,PB10*%
%TO.N,unconnected-(U3-PB10-Pad22)*%
X16000000Y4337500D03*
%TO.P,U3,21,PB2*%
%TO.N,unconnected-(U3-PB2-Pad21)*%
X15500000Y4337500D03*
%TO.P,U3,20,PB1*%
%TO.N,/PB1*%
X15000000Y4337500D03*
%TO.P,U3,19,PB0*%
%TO.N,/PB0*%
X14500000Y4337500D03*
%TO.P,U3,18,PA7*%
%TO.N,SPI_MOSI*%
X14000000Y4337500D03*
%TO.P,U3,17,PA6*%
%TO.N,SPI_MISO*%
X13500000Y4337500D03*
%TO.P,U3,16,PA5*%
%TO.N,SPI_SCK*%
X13000000Y4337500D03*
%TO.P,U3,15,PA4*%
%TO.N,/DAC1_OUT1*%
X12500000Y4337500D03*
%TO.P,U3,14,PA3*%
%TO.N,/PA3*%
X12000000Y4337500D03*
%TO.P,U3,13,PA2*%
%TO.N,/PA2*%
X11500000Y4337500D03*
D40*
%TO.P,U3,12,PA1*%
%TO.N,/ADC1_IN1*%
X10087500Y5750000D03*
%TO.P,U3,11,PA0*%
%TO.N,/ADC1_IN0*%
X10087500Y6250000D03*
%TO.P,U3,10,PF2-NRST*%
%TO.N,/RESET*%
X10087500Y6750000D03*
%TO.P,U3,9,PF1-OSC_OUT*%
%TO.N,unconnected-(U3-PF1-OSC_OUT-Pad9)*%
X10087500Y7250000D03*
%TO.P,U3,8,PF0-OSC_IN*%
%TO.N,unconnected-(U3-PF0-OSC_IN-Pad8)*%
X10087500Y7750000D03*
%TO.P,U3,7,VSS/VSSA*%
%TO.N,GND*%
X10087500Y8250000D03*
%TO.P,U3,6,VDD/VDDA*%
%TO.N,+3.3V*%
X10087500Y8750000D03*
%TO.P,U3,5,VREF+*%
X10087500Y9250000D03*
%TO.P,U3,4,VBAT*%
%TO.N,unconnected-(U3-VBAT-Pad4)*%
X10087500Y9750000D03*
%TO.P,U3,3,P15-OSC32_OUT*%
%TO.N,unconnected-(U3-P15-OSC32_OUT-Pad3)*%
X10087500Y10250000D03*
%TO.P,U3,2,P14-OSC32_IN*%
%TO.N,/Red*%
X10087500Y10750000D03*
%TO.P,U3,1,PC13*%
%TO.N,/Green*%
X10087500Y11250000D03*
%TD*%
D28*
%TO.P,C7,2*%
%TO.N,GND*%
X18470000Y18760000D03*
%TO.P,C7,1*%
%TO.N,+3.3V*%
X18470000Y19720000D03*
%TD*%
D41*
%TO.P,D1,4,BK*%
%TO.N,Net-(D1-BK)*%
X3025000Y12893000D03*
%TO.P,D1,3,GK*%
%TO.N,Net-(D1-GK)*%
X3025000Y11143000D03*
%TO.P,D1,2,RK*%
%TO.N,Net-(D1-RK)*%
X2025000Y11143000D03*
%TO.P,D1,1,A*%
%TO.N,+5V*%
X2025000Y12893000D03*
%TD*%
D42*
%TO.P,U6,14,SDA*%
%TO.N,SDA*%
X15087500Y17500000D03*
%TO.P,U6,13,SCL*%
%TO.N,SCL*%
X15087500Y18000000D03*
%TO.P,U6,12,CS*%
%TO.N,+3.3V*%
X15087500Y18500000D03*
D43*
%TO.P,U6,11,NC*%
%TO.N,unconnected-(U6-NC-Pad11)*%
X15250000Y19162500D03*
%TO.P,U6,10,NC*%
%TO.N,unconnected-(U6-NC-Pad10)*%
X15750000Y19162500D03*
%TO.P,U6,9,INT2*%
%TO.N,unconnected-(U6-INT2-Pad9)*%
X16250000Y19162500D03*
%TO.P,U6,8,VDD*%
%TO.N,+3.3V*%
X16750000Y19162500D03*
D42*
%TO.P,U6,7,GND*%
%TO.N,GND*%
X16912500Y18500000D03*
%TO.P,U6,6,GND*%
X16912500Y18000000D03*
%TO.P,U6,5,VDDIO*%
%TO.N,+3.3V*%
X16912500Y17500000D03*
D43*
%TO.P,U6,4,INT1*%
%TO.N,unconnected-(U6-INT1-Pad4)*%
X16750000Y16837500D03*
%TO.P,U6,3,SCX*%
%TO.N,+3.3V*%
X16250000Y16837500D03*
%TO.P,U6,2,SDX*%
X15750000Y16837500D03*
%TO.P,U6,1,SDO/SA0*%
X15250000Y16837500D03*
%TD*%
D10*
%TO.P,R5,2*%
%TO.N,SCL*%
X13644000Y18758000D03*
%TO.P,R5,1*%
%TO.N,+3.3V*%
X13644000Y19778000D03*
%TD*%
D44*
%TO.N,GND*%
X28500000Y22500000D03*
X5450000Y6000000D03*
X3500000Y5000000D03*
D45*
X27000000Y5250000D03*
D44*
X24750000Y11500000D03*
D45*
X27000000Y11500000D03*
D44*
X8500000Y23250000D03*
X6750000Y8250000D03*
X24275000Y5712000D03*
X7350000Y6100000D03*
X24750000Y5430000D03*
X8975000Y8250000D03*
X25649479Y8500521D03*
X3200000Y8200000D03*
X5950521Y10800521D03*
X7675000Y13250000D03*
X10000000Y16500000D03*
X17500000Y18000000D03*
X10200000Y13500000D03*
X17750000Y17250000D03*
X10050000Y19047000D03*
X4500000Y17777000D03*
X17750000Y19000000D03*
X10200000Y21450000D03*
X17500000Y18500000D03*
X28025000Y23225000D03*
%TO.N,+5V*%
X2000000Y12000000D03*
D45*
X3137500Y2212500D03*
X4455000Y3500000D03*
D44*
%TO.N,/D+*%
X27000000Y9250000D03*
X25699997Y7949997D03*
%TO.N,SCL*%
X13650000Y18175000D03*
X12580000Y20000000D03*
X13650000Y15725000D03*
%TO.N,/RESET*%
X9300000Y16500000D03*
X11100000Y6750000D03*
%TO.N,/PB5*%
X11254267Y14541150D03*
X13500000Y13725000D03*
%TO.N,/PB4*%
X14000000Y14175000D03*
X11541538Y15010168D03*
%TO.N,/USB-*%
X24199997Y11500000D03*
X24200000Y17400000D03*
%TO.N,/USB+*%
X23400000Y17400000D03*
X24200007Y10949998D03*
%TO.N,/BOOT*%
X18400000Y11900000D03*
X18385317Y14785623D03*
X11915901Y15413101D03*
X14115242Y14712794D03*
%TO.N,/EN*%
X6250000Y33750000D03*
X7450000Y21460000D03*
%TO.N,/PA13*%
X19561942Y14335900D03*
X14143871Y15262050D03*
X12250000Y15850000D03*
X18675000Y15253152D03*
%TO.N,Net-(U8-D)*%
X5775000Y13000000D03*
X5775000Y16932000D03*
X12125000Y25250000D03*
X27350000Y25250000D03*
%TD*%
D46*
%TO.N,GND*%
X7320000Y6700000D02*
X7320000Y6130000D01*
X16912500Y18500000D02*
X17500000Y18500000D01*
D47*
X25490000Y11500000D02*
X25500000Y11510000D01*
X25644000Y8506000D02*
X25000000Y8506000D01*
X24770000Y5430000D02*
X25500000Y5430000D01*
X27065000Y11565000D02*
X27000000Y11500000D01*
D46*
X6000000Y6020000D02*
X5470000Y6020000D01*
X7675000Y12700000D02*
X7675000Y13250000D01*
X2940804Y8459196D02*
X3200000Y8200000D01*
X7438000Y23250000D02*
X8500000Y23250000D01*
X17990000Y18760000D02*
X17750000Y19000000D01*
D47*
X23500000Y5712000D02*
X24275000Y5712000D01*
D46*
X18470000Y18760000D02*
X17990000Y18760000D01*
X28510000Y21900000D02*
X28510000Y22490000D01*
X2940804Y9200000D02*
X2940804Y8459196D01*
X3489804Y4989804D02*
X3489804Y4250000D01*
X6730000Y8270000D02*
X6000000Y8270000D01*
X8975000Y8250000D02*
X10087500Y8250000D01*
X8275000Y8245000D02*
X8970000Y8245000D01*
X3500000Y5000000D02*
X3489804Y4989804D01*
D47*
X28040000Y11565000D02*
X27065000Y11565000D01*
D46*
X7320000Y6130000D02*
X7350000Y6100000D01*
X3200000Y8200000D02*
X3200000Y7587500D01*
X18470000Y17434000D02*
X17934000Y17434000D01*
X10000000Y16500000D02*
X11087800Y16500000D01*
D47*
X25649479Y8500521D02*
X25644000Y8506000D01*
D46*
X28510000Y22490000D02*
X28500000Y22500000D01*
X4500000Y17777000D02*
X4094800Y17777000D01*
X10185000Y13515000D02*
X10200000Y13500000D01*
X3850000Y5812500D02*
X3850000Y6700000D01*
X5951042Y10800000D02*
X5950521Y10800521D01*
X10185000Y12925000D02*
X10185000Y13485000D01*
X16912500Y18000000D02*
X17500000Y18000000D01*
X9630000Y21450000D02*
X10200000Y21450000D01*
D47*
X27085000Y5165000D02*
X27000000Y5250000D01*
D46*
X11087800Y16500000D02*
X11094800Y16507000D01*
X10185000Y14050000D02*
X10185000Y13515000D01*
D47*
X24750000Y11500000D02*
X25490000Y11500000D01*
D46*
X28650000Y23250000D02*
X28050000Y23250000D01*
X6750000Y8250000D02*
X6730000Y8270000D01*
X5470000Y6020000D02*
X5450000Y6000000D01*
D47*
X28040000Y5165000D02*
X27085000Y5165000D01*
D46*
X10185000Y13485000D02*
X10200000Y13500000D01*
X6375000Y10800000D02*
X5951042Y10800000D01*
X17934000Y17434000D02*
X17750000Y17250000D01*
X28050000Y23250000D02*
X28025000Y23225000D01*
X10050000Y19047000D02*
X11104800Y19047000D01*
X8970000Y8245000D02*
X8975000Y8250000D01*
D47*
%TO.N,+5V*%
X3137500Y2212500D02*
X3137500Y-2387500D01*
X24920000Y2117000D02*
X24920000Y1040000D01*
X4455000Y3500000D02*
X4455000Y5767500D01*
X23750000Y-2500000D02*
X23750000Y-130000D01*
X23144000Y8500000D02*
X23150000Y8506000D01*
X3494220Y3500000D02*
X2925000Y4069220D01*
X4455000Y3500000D02*
X3494220Y3500000D01*
X4455000Y5767500D02*
X4500000Y5812500D01*
X2925000Y5537500D02*
X3200000Y5812500D01*
X2925000Y4069220D02*
X2925000Y5537500D01*
X2000000Y12750000D02*
X2143000Y12893000D01*
X23500000Y-2750000D02*
X23750000Y-2500000D01*
X21350000Y5687000D02*
X24920000Y2117000D01*
X23750000Y-130000D02*
X24920000Y1040000D01*
X21350000Y8500000D02*
X21350000Y5687000D01*
X21350000Y8500000D02*
X23144000Y8500000D01*
X2000000Y12000000D02*
X2000000Y12750000D01*
X3137500Y-2387500D02*
X3500000Y-2750000D01*
X3500000Y-2750000D02*
X23500000Y-2750000D01*
D46*
%TO.N,/D-*%
X27240000Y7984501D02*
X26181001Y9043500D01*
X26181001Y9043500D02*
X24925000Y9043500D01*
X27240000Y8534499D02*
X27240000Y7984501D01*
X27465001Y8759500D02*
X27240000Y8534499D01*
X27465001Y7759500D02*
X28040000Y7759500D01*
X27240000Y7984501D02*
X27465001Y7759500D01*
X28040000Y8759500D02*
X27465001Y8759500D01*
%TO.N,/D+*%
X27009500Y9259500D02*
X27000000Y9250000D01*
X28840000Y8484501D02*
X28614999Y8259500D01*
X28040000Y9259500D02*
X28541344Y9259500D01*
X28840000Y8960844D02*
X28840000Y8484501D01*
X24925000Y7968500D02*
X25681494Y7968500D01*
X25681494Y7968500D02*
X25699997Y7949997D01*
X28614999Y8259500D02*
X28040000Y8259500D01*
X28541344Y9259500D02*
X28840000Y8960844D01*
X28040000Y9259500D02*
X27009500Y9259500D01*
%TO.N,SDA*%
X11500000Y12662500D02*
X11500000Y13725000D01*
X12675000Y14600000D02*
X13008000Y14933000D01*
X11500000Y13725000D02*
X12375000Y14600000D01*
X2080000Y32250000D02*
X-1500000Y28670000D01*
X13008000Y17492000D02*
X13644000Y17492000D01*
X13008000Y14933000D02*
X13008000Y17492000D01*
X15087500Y17500000D02*
X13652000Y17500000D01*
X13008000Y28742000D02*
X13008000Y17492000D01*
X7438000Y32250000D02*
X2080000Y32250000D01*
X13652000Y17500000D02*
X13644000Y17492000D01*
X7438000Y32250000D02*
X9500000Y32250000D01*
X12375000Y14600000D02*
X12675000Y14600000D01*
X9500000Y32250000D02*
X13008000Y28742000D01*
%TO.N,SCL*%
X7438000Y30750000D02*
X3120000Y30750000D01*
X15087500Y18000000D02*
X14402000Y18000000D01*
X12550000Y27700000D02*
X9500000Y30750000D01*
X13644000Y18181000D02*
X13644000Y18758000D01*
X14402000Y18000000D02*
X13644000Y18758000D01*
X13650000Y18175000D02*
X13644000Y18181000D01*
X13650000Y14650000D02*
X13650000Y15725000D01*
X3120000Y30750000D02*
X-1500000Y26130000D01*
X12580000Y20000000D02*
X12550000Y20030000D01*
X12000000Y13625000D02*
X12600000Y14225000D01*
X12000000Y12662500D02*
X12000000Y13625000D01*
X12550000Y20030000D02*
X12550000Y27700000D01*
X13225000Y14225000D02*
X13650000Y14650000D01*
X12600000Y14225000D02*
X13225000Y14225000D01*
X9500000Y30750000D02*
X7438000Y30750000D01*
%TO.N,+3.3V*%
X7438000Y35250000D02*
X1170000Y35250000D01*
X-330000Y33750000D02*
X-1500000Y33750000D01*
X1170000Y35250000D02*
X-330000Y33750000D01*
%TO.N,/RESET*%
X9293000Y16507000D02*
X9300000Y16500000D01*
X10087500Y6750000D02*
X8270000Y6750000D01*
X10087500Y6750000D02*
X11100000Y6750000D01*
X3484800Y16507000D02*
X9293000Y16507000D01*
%TO.N,Net-(D1-RK)*%
X2025000Y11143000D02*
X2025000Y10625000D01*
X2025000Y10625000D02*
X2157000Y10493000D01*
X2157000Y10493000D02*
X3995000Y10493000D01*
X3995000Y10493000D02*
X4040000Y10538000D01*
%TO.N,Net-(D1-GK)*%
X3025000Y11650000D02*
X3025000Y11143000D01*
X4040000Y11750000D02*
X3125000Y11750000D01*
X3125000Y11750000D02*
X3025000Y11650000D01*
%TO.N,Net-(D1-BK)*%
X4040000Y13000000D02*
X3132000Y13000000D01*
X3132000Y13000000D02*
X3025000Y12893000D01*
%TO.N,/GPIO1*%
X24938000Y33750000D02*
X29330000Y33750000D01*
X29330000Y33750000D02*
X31870000Y31210000D01*
X31870000Y31210000D02*
X33500000Y31210000D01*
%TO.N,/GPIO2*%
X31870000Y28670000D02*
X33500000Y28670000D01*
X24938000Y32250000D02*
X28290000Y32250000D01*
X28290000Y32250000D02*
X31870000Y28670000D01*
%TO.N,/GPIO3*%
X31870000Y26130000D02*
X33500000Y26130000D01*
X27250000Y30750000D02*
X31870000Y26130000D01*
X24938000Y30750000D02*
X27250000Y30750000D01*
%TO.N,/Tx*%
X31870000Y23590000D02*
X33500000Y23590000D01*
X24938000Y26250000D02*
X29210000Y26250000D01*
X29210000Y26250000D02*
X31870000Y23590000D01*
%TO.N,/Rx*%
X26550000Y24350000D02*
X28650000Y24350000D01*
X26150000Y24750000D02*
X26550000Y24350000D01*
X24938000Y24750000D02*
X26150000Y24750000D01*
X31950000Y21050000D02*
X33500000Y21050000D01*
X28650000Y24350000D02*
X31950000Y21050000D01*
%TO.N,ESP32_USB-*%
X23500000Y27500000D02*
X23500000Y20750000D01*
X23500000Y20750000D02*
X23750000Y20500000D01*
X24938000Y27750000D02*
X23750000Y27750000D01*
X23750000Y27750000D02*
X23500000Y27500000D01*
X23750000Y20500000D02*
X27000000Y20500000D01*
%TO.N,ESP32_USB+*%
X23500000Y29250000D02*
X23000000Y28750000D01*
X23000000Y20750000D02*
X22750000Y20500000D01*
X22750000Y20500000D02*
X20500000Y20500000D01*
X23000000Y28750000D02*
X23000000Y20750000D01*
X24938000Y29250000D02*
X23500000Y29250000D01*
%TO.N,/GPIO7*%
X7438000Y27750000D02*
X5200000Y27750000D01*
X5200000Y27750000D02*
X-1500000Y21050000D01*
%TO.N,/GPIO8*%
X7438000Y26250000D02*
X6240000Y26250000D01*
X6240000Y26250000D02*
X-1500000Y18510000D01*
%TO.N,/GPIO0*%
X24938000Y35250000D02*
X30500000Y35250000D01*
X32000000Y33750000D02*
X33500000Y33750000D01*
X30500000Y35250000D02*
X32000000Y33750000D01*
%TO.N,/PB5*%
X10895417Y14900000D02*
X2875000Y14900000D01*
X11254267Y14541150D02*
X10895417Y14900000D01*
X-25000Y12000000D02*
X-25000Y7285000D01*
X13500000Y13725000D02*
X13500000Y12662500D01*
X-25000Y7285000D02*
X-1500000Y5810000D01*
X2875000Y14900000D02*
X-25000Y12000000D01*
%TO.N,/Red*%
X7675000Y14050000D02*
X9165000Y14050000D01*
X9165000Y14050000D02*
X9165000Y14490000D01*
X11050000Y10875000D02*
X10925000Y10750000D01*
X10925000Y10750000D02*
X10087500Y10750000D01*
X9270000Y14595000D02*
X10480000Y14595000D01*
X7025000Y12700000D02*
X7025000Y13400000D01*
X10480000Y14595000D02*
X11050000Y14025000D01*
X7025000Y13400000D02*
X7675000Y14050000D01*
X11050000Y14025000D02*
X11050000Y10875000D01*
X9165000Y14490000D02*
X9270000Y14595000D01*
%TO.N,/ADC1_IN0*%
X9000000Y6000000D02*
X9000000Y5440000D01*
X9250000Y6250000D02*
X9000000Y6000000D01*
X10087500Y6250000D02*
X9250000Y6250000D01*
X9000000Y5440000D02*
X4600000Y1040000D01*
%TO.N,/ADC1_IN1*%
X5900000Y1650000D02*
X5900000Y-200000D01*
X5900000Y-200000D02*
X4600000Y-1500000D01*
X8325000Y4075000D02*
X5900000Y1650000D01*
X10087500Y5750000D02*
X10087500Y4662500D01*
X10087500Y4662500D02*
X9500000Y4075000D01*
X9500000Y4075000D02*
X8325000Y4075000D01*
%TO.N,/PB4*%
X2525000Y15225000D02*
X-425000Y12275000D01*
X14000000Y14175000D02*
X14000000Y12662500D01*
X-425000Y12275000D02*
X-425000Y9425000D01*
X11541538Y15010168D02*
X11326706Y15225000D01*
X11326706Y15225000D02*
X2525000Y15225000D01*
X-425000Y9425000D02*
X-1500000Y8350000D01*
%TO.N,/DAC1_OUT1*%
X9680000Y1040000D02*
X11382000Y2742000D01*
X11942000Y2742000D02*
X12500000Y3300000D01*
X11382000Y2742000D02*
X11942000Y2742000D01*
X12500000Y3300000D02*
X12500000Y4337500D01*
%TO.N,SPI_SCK*%
X13000000Y3375000D02*
X13000000Y4337500D01*
X10950000Y1325000D02*
X13000000Y3375000D01*
X9680000Y-1500000D02*
X10950000Y-230000D01*
X10950000Y-230000D02*
X10950000Y1325000D01*
%TO.N,SPI_MISO*%
X13500000Y3125000D02*
X13500000Y4337500D01*
X12220000Y1040000D02*
X12220000Y1845000D01*
X12220000Y1845000D02*
X13500000Y3125000D01*
%TO.N,SPI_MOSI*%
X12220000Y-1500000D02*
X13350000Y-370000D01*
X13350000Y2425000D02*
X14000000Y3075000D01*
X14000000Y3075000D02*
X14000000Y4337500D01*
X13350000Y-370000D02*
X13350000Y2425000D01*
%TO.N,/PA8*%
X20125000Y6550000D02*
X19425000Y7250000D01*
X19840000Y1040000D02*
X20125000Y1325000D01*
X20125000Y1325000D02*
X20125000Y6550000D01*
X19425000Y7250000D02*
X18412500Y7250000D01*
%TO.N,Net-(J6-CC1)*%
X27009500Y7259500D02*
X26200000Y6450000D01*
X28040000Y7259500D02*
X27009500Y7259500D01*
X26200000Y6450000D02*
X25500000Y6450000D01*
%TO.N,/GPIO6*%
X7438000Y29250000D02*
X4160000Y29250000D01*
X4160000Y29250000D02*
X-1500000Y23590000D01*
%TO.N,/PB15*%
X19825000Y6250000D02*
X19325000Y6750000D01*
X19840000Y-1500000D02*
X18765000Y-425000D01*
X18765000Y1865000D02*
X19825000Y2925000D01*
X19825000Y2925000D02*
X19825000Y6250000D01*
X19325000Y6750000D02*
X18412500Y6750000D01*
X18765000Y-425000D02*
X18765000Y1865000D01*
%TO.N,/PB14*%
X17300000Y1040000D02*
X19525000Y3265000D01*
X19350000Y6250000D02*
X18412500Y6250000D01*
X19525000Y6075000D02*
X19350000Y6250000D01*
X19525000Y3265000D02*
X19525000Y6075000D01*
%TO.N,/PB13*%
X16050000Y-250000D02*
X16050000Y1900000D01*
X18412500Y4262500D02*
X18412500Y5750000D01*
X16050000Y1900000D02*
X18412500Y4262500D01*
X17300000Y-1500000D02*
X16050000Y-250000D01*
%TO.N,USART_TX*%
X21175000Y4375000D02*
X20425000Y5125000D01*
X19475000Y7750000D02*
X18412500Y7750000D01*
X20425000Y5125000D02*
X20425000Y6800000D01*
X22380000Y-1500000D02*
X21175000Y-295000D01*
X20425000Y6800000D02*
X19475000Y7750000D01*
X21175000Y-295000D02*
X21175000Y4375000D01*
%TO.N,USART_RX*%
X22380000Y3870000D02*
X22380000Y1040000D01*
X18412500Y9250000D02*
X19325000Y9250000D01*
X19325000Y9250000D02*
X20725000Y7850000D01*
X20725000Y5525000D02*
X22380000Y3870000D01*
X20725000Y7850000D02*
X20725000Y5525000D01*
%TO.N,STM32_USB-*%
X20250000Y11942630D02*
X20250000Y10575736D01*
X21975000Y12475000D02*
X20782370Y12475000D01*
X23950000Y14450000D02*
X21975000Y12475000D01*
X20250000Y10575736D02*
X19424264Y9750000D01*
X23950000Y15250000D02*
X23950000Y14450000D01*
X27000000Y15500000D02*
X24200000Y15500000D01*
X19424264Y9750000D02*
X18412500Y9750000D01*
X20782370Y12475000D02*
X20250000Y11942630D01*
X24200000Y15500000D02*
X23950000Y15250000D01*
%TO.N,STM32_USB+*%
X19500000Y10250000D02*
X18412500Y10250000D01*
X19950000Y10700000D02*
X19500000Y10250000D01*
X19950000Y12066894D02*
X19950000Y10700000D01*
X23500000Y15500000D02*
X23650000Y15350000D01*
X20658106Y12775000D02*
X19950000Y12066894D01*
X20500000Y15500000D02*
X23500000Y15500000D01*
X23650000Y15350000D02*
X23650000Y14574264D01*
X23650000Y14574264D02*
X21850736Y12775000D01*
X21850736Y12775000D02*
X20658106Y12775000D01*
%TO.N,CAN_RX*%
X19400000Y18392464D02*
X19400000Y14775000D01*
X18625000Y14000000D02*
X16825000Y14000000D01*
X16500000Y13675000D02*
X16500000Y12662500D01*
X33500000Y15970000D02*
X31870000Y15970000D01*
X31870000Y15970000D02*
X28890000Y18950000D01*
X28890000Y18950000D02*
X19957536Y18950000D01*
X16825000Y14000000D02*
X16500000Y13675000D01*
X19957536Y18950000D02*
X19400000Y18392464D01*
X19400000Y14775000D02*
X18625000Y14000000D01*
%TO.N,CAN_TX*%
X19100000Y18600000D02*
X19100000Y14899264D01*
X33500000Y18510000D02*
X32510000Y19500000D01*
X18500736Y14300000D02*
X16450000Y14300000D01*
X16450000Y14300000D02*
X16000000Y13850000D01*
X32510000Y19500000D02*
X20000000Y19500000D01*
X16000000Y13850000D02*
X16000000Y12662500D01*
X19100000Y14899264D02*
X18500736Y14300000D01*
X20000000Y19500000D02*
X19100000Y18600000D01*
%TO.N,/USB-*%
X24800000Y18000000D02*
X27000000Y18000000D01*
X23898959Y11500000D02*
X23775000Y11376041D01*
X23775000Y9125000D02*
X23693500Y9043500D01*
X23693500Y9043500D02*
X23225000Y9043500D01*
X24200000Y17400000D02*
X24800000Y18000000D01*
X23775000Y11376041D02*
X23775000Y9125000D01*
X24199997Y11500000D02*
X23898959Y11500000D01*
%TO.N,/USB+*%
X23693500Y7968500D02*
X24200007Y8475007D01*
X22800000Y18000000D02*
X20500000Y18000000D01*
X23400000Y17400000D02*
X22800000Y18000000D01*
X24200007Y8475007D02*
X24200007Y10949998D01*
X23225000Y7968500D02*
X23693500Y7968500D01*
%TO.N,/Green*%
X10087500Y11250000D02*
X8935000Y11250000D01*
X8935000Y11250000D02*
X8725000Y11460000D01*
X8725000Y11460000D02*
X8725000Y12875000D01*
X8775000Y12925000D02*
X9165000Y12925000D01*
X8725000Y11460000D02*
X7185000Y11460000D01*
X7025000Y11300000D02*
X7025000Y10800000D01*
X8725000Y12875000D02*
X8775000Y12925000D01*
X7185000Y11460000D02*
X7025000Y11300000D01*
%TO.N,/Blue*%
X24938000Y23250000D02*
X27350000Y23250000D01*
X27490000Y21900000D02*
X27490000Y23110000D01*
X27490000Y23110000D02*
X27350000Y23250000D01*
%TO.N,/PA2*%
X7140000Y1115000D02*
X7140000Y1040000D01*
X10362500Y4337500D02*
X7140000Y1115000D01*
X11500000Y4337500D02*
X10362500Y4337500D01*
%TO.N,/PA3*%
X9993000Y3081000D02*
X11731000Y3081000D01*
X7140000Y-1500000D02*
X8433000Y-207000D01*
X8433000Y-207000D02*
X8433000Y1521000D01*
X12000000Y3350000D02*
X12000000Y4337500D01*
X8433000Y1521000D02*
X9993000Y3081000D01*
X11731000Y3081000D02*
X12000000Y3350000D01*
%TO.N,/PB1*%
X14760000Y2560000D02*
X14760000Y1040000D01*
X15000000Y2800000D02*
X15000000Y4337500D01*
X15000000Y2800000D02*
X14760000Y2560000D01*
%TO.N,/PB0*%
X13650000Y2125000D02*
X14500000Y2975000D01*
X14760000Y-1500000D02*
X13650000Y-390000D01*
X14500000Y2975000D02*
X14500000Y4337500D01*
X13650000Y-390000D02*
X13650000Y2125000D01*
%TO.N,Net-(J6-CC2)*%
X26240500Y10259500D02*
X26010000Y10490000D01*
X26010000Y10490000D02*
X25500000Y10490000D01*
X28040000Y10259500D02*
X26240500Y10259500D01*
%TO.N,/GPIO9*%
X6250000Y24750000D02*
X250000Y18750000D01*
X250000Y17720000D02*
X-1500000Y15970000D01*
X7438000Y24750000D02*
X6250000Y24750000D01*
X250000Y18750000D02*
X250000Y17720000D01*
%TO.N,/BOOT*%
X2175000Y15550000D02*
X-1500000Y11875000D01*
X18412500Y11250000D02*
X18412500Y11887500D01*
X18324694Y14725000D02*
X14127448Y14725000D01*
X12675000Y17599000D02*
X12524000Y17750000D01*
X18412500Y11887500D02*
X18400000Y11900000D01*
X12675000Y15673959D02*
X12675000Y17599000D01*
X11915901Y15413101D02*
X12414142Y15413101D01*
X12414142Y15413101D02*
X12675000Y15673959D01*
X18385317Y14785623D02*
X18324694Y14725000D01*
X12524000Y17750000D02*
X11125000Y17750000D01*
X14127448Y14725000D02*
X14115242Y14712794D01*
X-1500000Y11875000D02*
X-1500000Y10890000D01*
X11779002Y15550000D02*
X2175000Y15550000D01*
X11915901Y15413101D02*
X11779002Y15550000D01*
%TO.N,/EN*%
X6597000Y19047000D02*
X3484800Y19047000D01*
X7450000Y21460000D02*
X8660000Y21460000D01*
X7450000Y19900000D02*
X6597000Y19047000D01*
X6250000Y33750000D02*
X7438000Y33750000D01*
X8660000Y21460000D02*
X8670000Y21450000D01*
X7450000Y21460000D02*
X7450000Y19900000D01*
X6110000Y21460000D02*
X7450000Y21460000D01*
D47*
%TO.N,V_IN*%
X26250000Y5454595D02*
X26250000Y-170000D01*
X26250000Y12000000D02*
X26000000Y12250000D01*
X22750000Y12250000D02*
X22300000Y11800000D01*
X28040000Y10765000D02*
X26780405Y10765000D01*
X28614999Y10909500D02*
X30000000Y9524499D01*
X28040000Y6109500D02*
X26904905Y6109500D01*
X26250000Y11295405D02*
X26250000Y12000000D01*
X22300000Y11800000D02*
X21350000Y11800000D01*
X26000000Y12250000D02*
X22750000Y12250000D01*
X30000000Y7500000D02*
X28609500Y6109500D01*
X30000000Y9524499D02*
X30000000Y7500000D01*
X26780405Y10765000D02*
X26250000Y11295405D01*
X26904905Y6109500D02*
X26250000Y5454595D01*
X28609500Y6109500D02*
X28040000Y6109500D01*
X26250000Y-170000D02*
X24920000Y-1500000D01*
X28040000Y10909500D02*
X28614999Y10909500D01*
D46*
%TO.N,/PA13*%
X19561942Y14335900D02*
X19561942Y10961942D01*
X920000Y15850000D02*
X-1500000Y13430000D01*
X12250000Y15850000D02*
X920000Y15850000D01*
X19350000Y10750000D02*
X18412500Y10750000D01*
X18666102Y15262050D02*
X14143871Y15262050D01*
X19561942Y10961942D02*
X19350000Y10750000D01*
X18675000Y15253152D02*
X18666102Y15262050D01*
%TO.N,Net-(U4A-D)*%
X7525000Y10250000D02*
X5900000Y10250000D01*
X7675000Y10800000D02*
X7675000Y10400000D01*
X7675000Y10400000D02*
X7525000Y10250000D01*
X5612000Y10538000D02*
X5060000Y10538000D01*
X5900000Y10250000D02*
X5612000Y10538000D01*
%TO.N,Net-(U4B-D)*%
X6375000Y12700000D02*
X6375000Y12075000D01*
X6375000Y12075000D02*
X6050000Y11750000D01*
X6050000Y11750000D02*
X5060000Y11750000D01*
%TO.N,Net-(U8-D)*%
X11525000Y20150000D02*
X12160000Y20785000D01*
X7027719Y16932000D02*
X10245719Y20150000D01*
X12160000Y20785000D02*
X12160000Y25215000D01*
X5775000Y16932000D02*
X7027719Y16932000D01*
X12160000Y25215000D02*
X12125000Y25250000D01*
X10245719Y20150000D02*
X11525000Y20150000D01*
X28000000Y25250000D02*
X27350000Y25250000D01*
X5775000Y13000000D02*
X5060000Y13000000D01*
%TD*%
%TA.AperFunction,Conductor*%
%TO.N,+3.3V*%
G36*
X7157184Y42481093D02*
G01*
X7193148Y42431593D01*
X7193148Y42370407D01*
X7188000Y42362007D01*
X7188000Y42350000D01*
X7188000Y36350000D01*
X7188001Y36350000D01*
X25187999Y36350000D01*
X25188000Y36350000D01*
X25188000Y39098421D01*
X30749500Y39098421D01*
X30749500Y38901580D01*
X30780289Y38707179D01*
X30780291Y38707174D01*
X30841116Y38519975D01*
X30930476Y38344595D01*
X31046172Y38185354D01*
X31185354Y38046172D01*
X31344595Y37930476D01*
X31519975Y37841116D01*
X31707174Y37780291D01*
X31707175Y37780291D01*
X31707178Y37780290D01*
X31901580Y37749500D01*
X31901583Y37749500D01*
X32098420Y37749500D01*
X32292821Y37780290D01*
X32292822Y37780291D01*
X32292826Y37780291D01*
X32480025Y37841116D01*
X32655405Y37930476D01*
X32814646Y38046172D01*
X32953828Y38185354D01*
X33069524Y38344595D01*
X33158884Y38519975D01*
X33219709Y38707174D01*
X33250500Y38901583D01*
X33250500Y39098417D01*
X33250500Y39098421D01*
X33219710Y39292822D01*
X33219709Y39292826D01*
X33158884Y39480025D01*
X33069524Y39655405D01*
X32953828Y39814646D01*
X32814646Y39953828D01*
X32655405Y40069524D01*
X32655404Y40069525D01*
X32655402Y40069526D01*
X32480025Y40158884D01*
X32292821Y40219711D01*
X32098420Y40250500D01*
X32098417Y40250500D01*
X31901583Y40250500D01*
X31901580Y40250500D01*
X31707178Y40219711D01*
X31519974Y40158884D01*
X31344597Y40069526D01*
X31185355Y39953829D01*
X31046171Y39814645D01*
X30930474Y39655403D01*
X30841116Y39480026D01*
X30780289Y39292822D01*
X30749500Y39098421D01*
X25188000Y39098421D01*
X25188000Y42350000D01*
X25188000Y42368293D01*
X25179226Y42385513D01*
X25188797Y42445945D01*
X25232062Y42489210D01*
X25277007Y42500000D01*
X31999317Y42500000D01*
X32000611Y42499993D01*
X32178777Y42497662D01*
X32187805Y42497129D01*
X32542745Y42459823D01*
X32552960Y42458205D01*
X32901426Y42384136D01*
X32911421Y42381457D01*
X33250217Y42271374D01*
X33259891Y42267661D01*
X33395823Y42207141D01*
X33585327Y42122769D01*
X33594548Y42118070D01*
X33903048Y41939957D01*
X33911732Y41934319D01*
X34199947Y41724919D01*
X34207986Y41718407D01*
X34472716Y41480044D01*
X34480043Y41472717D01*
X34718401Y41207994D01*
X34724923Y41199941D01*
X34934316Y40911736D01*
X34939959Y40903045D01*
X35118066Y40594555D01*
X35122771Y40585322D01*
X35267660Y40259892D01*
X35271373Y40250218D01*
X35381456Y39911422D01*
X35384139Y39901412D01*
X35458202Y39552971D01*
X35459823Y39542736D01*
X35497127Y39187818D01*
X35497661Y39178765D01*
X35499992Y39000612D01*
X35500000Y38999317D01*
X35500000Y684D01*
X35499992Y-611D01*
X35497661Y-178764D01*
X35497127Y-187817D01*
X35459823Y-542735D01*
X35458202Y-552970D01*
X35384139Y-901411D01*
X35381456Y-911421D01*
X35271373Y-1250217D01*
X35267660Y-1259891D01*
X35122771Y-1585321D01*
X35118066Y-1594554D01*
X34939959Y-1903044D01*
X34934316Y-1911735D01*
X34724923Y-2199940D01*
X34718401Y-2207993D01*
X34480043Y-2472716D01*
X34472716Y-2480043D01*
X34207993Y-2718401D01*
X34199940Y-2724923D01*
X33911735Y-2934316D01*
X33903044Y-2939959D01*
X33594554Y-3118066D01*
X33585321Y-3122771D01*
X33259891Y-3267660D01*
X33250217Y-3271373D01*
X32911421Y-3381456D01*
X32901411Y-3384139D01*
X32552970Y-3458202D01*
X32542735Y-3459823D01*
X32187817Y-3497127D01*
X32178764Y-3497661D01*
X32000612Y-3499992D01*
X31999317Y-3500000D01*
X683Y-3500000D01*
X-612Y-3499992D01*
X-178765Y-3497661D01*
X-187818Y-3497127D01*
X-542736Y-3459823D01*
X-552971Y-3458202D01*
X-901412Y-3384139D01*
X-911422Y-3381456D01*
X-1250218Y-3271373D01*
X-1259892Y-3267660D01*
X-1585322Y-3122771D01*
X-1594555Y-3118066D01*
X-1903045Y-2939959D01*
X-1911736Y-2934316D01*
X-1954330Y-2903369D01*
X-2199945Y-2724919D01*
X-2207989Y-2718405D01*
X-2472717Y-2480043D01*
X-2480044Y-2472716D01*
X-2668124Y-2263832D01*
X-2718407Y-2207986D01*
X-2724919Y-2199947D01*
X-2934319Y-1911732D01*
X-2939960Y-1903044D01*
X-2950532Y-1884732D01*
X-3118070Y-1594548D01*
X-3122772Y-1585321D01*
X-3126643Y-1576627D01*
X-3214508Y-1379277D01*
X-3267661Y-1259891D01*
X-3271374Y-1250217D01*
X-3381457Y-911421D01*
X-3384136Y-901426D01*
X-3458205Y-552960D01*
X-3459823Y-542745D01*
X-3497129Y-187805D01*
X-3497662Y-178777D01*
X-3499992Y-611D01*
X-3500000Y684D01*
X-3500000Y98421D01*
X-1250500Y98421D01*
X-1250500Y-98420D01*
X-1219711Y-292821D01*
X-1158884Y-480025D01*
X-1090107Y-615010D01*
X-1069524Y-655405D01*
X-953828Y-814646D01*
X-814646Y-953828D01*
X-655405Y-1069524D01*
X-480025Y-1158884D01*
X-292826Y-1219709D01*
X-292825Y-1219709D01*
X-292822Y-1219710D01*
X-98420Y-1250500D01*
X-98417Y-1250500D01*
X98420Y-1250500D01*
X292821Y-1219710D01*
X292822Y-1219709D01*
X292826Y-1219709D01*
X480025Y-1158884D01*
X655405Y-1069524D01*
X814646Y-953828D01*
X953828Y-814646D01*
X1069524Y-655405D01*
X1158884Y-480025D01*
X1219709Y-292826D01*
X1220064Y-290587D01*
X1250500Y-98420D01*
X1250500Y98421D01*
X1219710Y292822D01*
X1219709Y292826D01*
X1158884Y480025D01*
X1069524Y655405D01*
X953828Y814646D01*
X814646Y953828D01*
X655405Y1069524D01*
X655404Y1069525D01*
X655402Y1069526D01*
X480025Y1158884D01*
X292821Y1219711D01*
X98420Y1250500D01*
X98417Y1250500D01*
X-98417Y1250500D01*
X-98420Y1250500D01*
X-292822Y1219711D01*
X-480026Y1158884D01*
X-655403Y1069526D01*
X-814645Y953829D01*
X-953829Y814645D01*
X-1069526Y655403D01*
X-1158884Y480026D01*
X-1219711Y292822D01*
X-1250500Y98421D01*
X-3500000Y98421D01*
X-3500000Y15970004D01*
X-2505341Y15970004D01*
X-2505341Y15969997D01*
X-2486026Y15773874D01*
X-2486025Y15773871D01*
X-2486024Y15773868D01*
X-2431918Y15595504D01*
X-2428813Y15585270D01*
X-2428812Y15585268D01*
X-2376580Y15487550D01*
X-2335910Y15411462D01*
X-2335908Y15411460D01*
X-2335907Y15411458D01*
X-2210888Y15259122D01*
X-2210879Y15259113D01*
X-2058543Y15134094D01*
X-2058538Y15134090D01*
X-1884727Y15041186D01*
X-1696132Y14983976D01*
X-1696130Y14983976D01*
X-1696127Y14983975D01*
X-1500003Y14964659D01*
X-1500000Y14964659D01*
X-1499997Y14964659D01*
X-1303874Y14983975D01*
X-1303873Y14983976D01*
X-1303868Y14983976D01*
X-1115273Y15041186D01*
X-941462Y15134090D01*
X-789117Y15259117D01*
X-664090Y15411462D01*
X-571186Y15585273D01*
X-513976Y15773868D01*
X-507988Y15834661D01*
X-494659Y15969997D01*
X-494659Y15970004D01*
X-513975Y16166127D01*
X-513976Y16166130D01*
X-513976Y16166132D01*
X-571186Y16354727D01*
X-615013Y16436722D01*
X-625768Y16496950D01*
X-599067Y16552002D01*
X-597755Y16553342D01*
X377734Y17528830D01*
X377736Y17528830D01*
X441170Y17592264D01*
X461631Y17641662D01*
X475501Y17675146D01*
X475501Y17764855D01*
X475501Y17772829D01*
X475500Y17772843D01*
X475500Y18171828D01*
X2699300Y18171828D01*
X2699300Y17382173D01*
X2708032Y17338280D01*
X2708034Y17338276D01*
X2738476Y17292717D01*
X2741296Y17288496D01*
X2791078Y17255233D01*
X2802127Y17253036D01*
X2834972Y17246501D01*
X2834978Y17246501D01*
X2834980Y17246500D01*
X2834981Y17246500D01*
X4134619Y17246500D01*
X4134620Y17246500D01*
X4134621Y17246501D01*
X4134627Y17246501D01*
X4156423Y17250838D01*
X4178522Y17255233D01*
X4228304Y17288496D01*
X4261567Y17338278D01*
X4266562Y17363391D01*
X4296458Y17416772D01*
X4352023Y17442388D01*
X4382434Y17439394D01*
X4382644Y17440719D01*
X4390338Y17439501D01*
X4390339Y17439500D01*
X4500000Y17422131D01*
X4609661Y17439500D01*
X4708587Y17489905D01*
X4787095Y17568413D01*
X4837500Y17667339D01*
X4854869Y17777000D01*
X4837500Y17886661D01*
X4787095Y17985587D01*
X4708587Y18064095D01*
X4609661Y18114500D01*
X4500000Y18131869D01*
X4390339Y18114500D01*
X4390338Y18114500D01*
X4382644Y18113281D01*
X4382250Y18115767D01*
X4333036Y18115782D01*
X4283548Y18151762D01*
X4266562Y18190611D01*
X4261567Y18215722D01*
X4228304Y18265504D01*
X4227099Y18266309D01*
X4178524Y18298766D01*
X4178520Y18298768D01*
X4134627Y18307500D01*
X4134620Y18307500D01*
X2834980Y18307500D01*
X2834972Y18307500D01*
X2791079Y18298768D01*
X2791075Y18298766D01*
X2741298Y18265506D01*
X2741294Y18265502D01*
X2708034Y18215725D01*
X2708032Y18215721D01*
X2699300Y18171828D01*
X475500Y18171828D01*
X475500Y18615587D01*
X494407Y18673778D01*
X504496Y18685591D01*
X1260733Y19441828D01*
X2699300Y19441828D01*
X2699300Y18652173D01*
X2708032Y18608280D01*
X2708034Y18608276D01*
X2713230Y18600500D01*
X2741296Y18558496D01*
X2791078Y18525233D01*
X2802127Y18523036D01*
X2834972Y18516501D01*
X2834978Y18516501D01*
X2834980Y18516500D01*
X2834981Y18516500D01*
X4134619Y18516500D01*
X4134620Y18516500D01*
X4134621Y18516501D01*
X4134627Y18516501D01*
X4156423Y18520838D01*
X4178522Y18525233D01*
X4228304Y18558496D01*
X4261567Y18608278D01*
X4266271Y18631927D01*
X4270299Y18652173D01*
X4270300Y18652182D01*
X4270300Y18722500D01*
X4289207Y18780691D01*
X4338707Y18816655D01*
X4369300Y18821500D01*
X6540614Y18821500D01*
X6540622Y18821499D01*
X6552145Y18821499D01*
X6641854Y18821499D01*
X6641855Y18821499D01*
X6700460Y18845775D01*
X6724736Y18855830D01*
X6788170Y18919264D01*
X6788170Y18919265D01*
X6802076Y18933171D01*
X6802085Y18933181D01*
X7577734Y19708830D01*
X7577736Y19708830D01*
X7641170Y19772264D01*
X7671298Y19845000D01*
X7675500Y19855144D01*
X7675500Y21135500D01*
X7694407Y21193691D01*
X7743907Y21229655D01*
X7774500Y21234500D01*
X8168024Y21234500D01*
X8226215Y21215593D01*
X8258588Y21175489D01*
X8282140Y21122150D01*
X8286187Y21112984D01*
X8362984Y21036187D01*
X8462338Y20992318D01*
X8486627Y20989500D01*
X8853372Y20989501D01*
X8877662Y20992318D01*
X8977016Y21036187D01*
X9053813Y21112984D01*
X9059434Y21125716D01*
X9100232Y21171312D01*
X9160040Y21184219D01*
X9216013Y21159508D01*
X9240562Y21125722D01*
X9242142Y21122145D01*
X9246187Y21112984D01*
X9322984Y21036187D01*
X9422338Y20992318D01*
X9446627Y20989500D01*
X9813372Y20989501D01*
X9837662Y20992318D01*
X9937016Y21036187D01*
X9989318Y21088490D01*
X10043833Y21116265D01*
X10082564Y21113218D01*
X10082644Y21113719D01*
X10089018Y21112710D01*
X10089912Y21112639D01*
X10090333Y21112503D01*
X10090339Y21112500D01*
X10200000Y21095131D01*
X10309661Y21112500D01*
X10408587Y21162905D01*
X10487095Y21241413D01*
X10537500Y21340339D01*
X10554869Y21450000D01*
X10537500Y21559661D01*
X10487095Y21658587D01*
X10408587Y21737095D01*
X10309661Y21787500D01*
X10200000Y21804869D01*
X10090339Y21787500D01*
X10089912Y21787361D01*
X10089462Y21787362D01*
X10082644Y21786281D01*
X10082472Y21787362D01*
X10028727Y21787362D01*
X9989318Y21811511D01*
X9937016Y21863813D01*
X9837662Y21907682D01*
X9837661Y21907683D01*
X9837659Y21907683D01*
X9813376Y21910500D01*
X9446630Y21910500D01*
X9446627Y21910499D01*
X9422338Y21907683D01*
X9322984Y21863813D01*
X9246186Y21787015D01*
X9240564Y21774281D01*
X9199762Y21728687D01*
X9139953Y21715782D01*
X9083982Y21740497D01*
X9059436Y21774281D01*
X9053813Y21787016D01*
X8977016Y21863813D01*
X8877662Y21907682D01*
X8877661Y21907683D01*
X8877659Y21907683D01*
X8853376Y21910500D01*
X8486630Y21910500D01*
X8486627Y21910499D01*
X8462338Y21907683D01*
X8362984Y21863813D01*
X8286186Y21787015D01*
X8267419Y21744511D01*
X8226619Y21698916D01*
X8176855Y21685500D01*
X7761190Y21685500D01*
X7702999Y21704407D01*
X7691187Y21714496D01*
X7658589Y21747094D01*
X7559661Y21797500D01*
X7450000Y21814869D01*
X7340338Y21797500D01*
X7241410Y21747094D01*
X7208813Y21714496D01*
X7154296Y21686719D01*
X7138810Y21685500D01*
X6603718Y21685500D01*
X6545527Y21704407D01*
X6513154Y21744511D01*
X6494232Y21787362D01*
X6484616Y21809141D01*
X6409141Y21884616D01*
X6409139Y21884617D01*
X6311498Y21927731D01*
X6287626Y21930500D01*
X5932380Y21930500D01*
X5932377Y21930499D01*
X5908499Y21927730D01*
X5810860Y21884617D01*
X5735383Y21809140D01*
X5717806Y21769332D01*
X5677005Y21723737D01*
X5617196Y21710832D01*
X5561224Y21735547D01*
X5537518Y21767481D01*
X5503650Y21840110D01*
X5420109Y21923651D01*
X5313047Y21973575D01*
X5313040Y21973577D01*
X5264254Y21980000D01*
X5215001Y21980000D01*
X5215000Y21979999D01*
X5215000Y20940002D01*
X5215001Y20940001D01*
X5264251Y20940001D01*
X5264260Y20940002D01*
X5313041Y20946423D01*
X5420109Y20996350D01*
X5503649Y21079890D01*
X5537516Y21152518D01*
X5579244Y21197267D01*
X5639305Y21208942D01*
X5694758Y21183085D01*
X5717805Y21150670D01*
X5732997Y21116265D01*
X5735384Y21110859D01*
X5810859Y21035384D01*
X5859680Y21013827D01*
X5908501Y20992270D01*
X5912749Y20991778D01*
X5932377Y20989500D01*
X6287622Y20989501D01*
X6311498Y20992270D01*
X6409141Y21035384D01*
X6484616Y21110859D01*
X6513153Y21175490D01*
X6553953Y21221084D01*
X6603717Y21234500D01*
X7125500Y21234500D01*
X7183691Y21215593D01*
X7219655Y21166093D01*
X7224500Y21135500D01*
X7224500Y20034413D01*
X7205593Y19976222D01*
X7195504Y19964409D01*
X6532591Y19301496D01*
X6478074Y19273719D01*
X6462587Y19272500D01*
X4369300Y19272500D01*
X4311109Y19291407D01*
X4275145Y19340907D01*
X4270300Y19371500D01*
X4270300Y19441819D01*
X4270299Y19441828D01*
X4261567Y19485721D01*
X4261565Y19485725D01*
X4241776Y19515341D01*
X4228304Y19535504D01*
X4202432Y19552791D01*
X4178524Y19568766D01*
X4178520Y19568768D01*
X4134627Y19577500D01*
X4134620Y19577500D01*
X2834980Y19577500D01*
X2834972Y19577500D01*
X2791079Y19568768D01*
X2791075Y19568766D01*
X2741298Y19535506D01*
X2741294Y19535502D01*
X2708034Y19485725D01*
X2708032Y19485721D01*
X2699300Y19441828D01*
X1260733Y19441828D01*
X3153904Y21334999D01*
X4620001Y21334999D01*
X4620001Y21235740D01*
X4626422Y21186959D01*
X4676349Y21079891D01*
X4759890Y20996350D01*
X4866952Y20946426D01*
X4866959Y20946424D01*
X4915745Y20940001D01*
X4965000Y20940002D01*
X4965000Y21334999D01*
X4964999Y21335000D01*
X4620002Y21335000D01*
X4620001Y21334999D01*
X3153904Y21334999D01*
X3503159Y21684254D01*
X4620000Y21684254D01*
X4620000Y21585001D01*
X4620001Y21585000D01*
X4964999Y21585000D01*
X4965000Y21585001D01*
X4965000Y21980001D01*
X4915750Y21980000D01*
X4915737Y21979999D01*
X4866959Y21973578D01*
X4759890Y21923651D01*
X4676349Y21840110D01*
X4626425Y21733048D01*
X4626423Y21733041D01*
X4620000Y21684254D01*
X3503159Y21684254D01*
X5329542Y23510636D01*
X6537500Y23510636D01*
X6537500Y22989364D01*
X6543991Y22944814D01*
X6548134Y22916374D01*
X6595783Y22818907D01*
X6603174Y22803789D01*
X6691789Y22715174D01*
X6804375Y22660134D01*
X6877364Y22649500D01*
X6877367Y22649500D01*
X7998632Y22649500D01*
X7998636Y22649500D01*
X8071625Y22660134D01*
X8184211Y22715174D01*
X8272826Y22803789D01*
X8298455Y22856215D01*
X8340997Y22900187D01*
X8401263Y22910757D01*
X8402785Y22910529D01*
X8500000Y22895131D01*
X8609661Y22912500D01*
X8708587Y22962905D01*
X8787095Y23041413D01*
X8837500Y23140339D01*
X8854869Y23250000D01*
X8837500Y23359661D01*
X8787095Y23458587D01*
X8708587Y23537095D01*
X8609661Y23587500D01*
X8500000Y23604869D01*
X8499999Y23604869D01*
X8402882Y23589487D01*
X8342450Y23599058D01*
X8299185Y23642323D01*
X8298454Y23643788D01*
X8272826Y23696210D01*
X8272826Y23696211D01*
X8184211Y23784826D01*
X8071625Y23839866D01*
X8071626Y23839866D01*
X8053377Y23842525D01*
X7998636Y23850500D01*
X6877364Y23850500D01*
X6836154Y23844496D01*
X6804373Y23839866D01*
X6691790Y23784827D01*
X6603173Y23696210D01*
X6548134Y23583627D01*
X6548134Y23583625D01*
X6537500Y23510636D01*
X5329542Y23510636D01*
X6314410Y24495504D01*
X6368927Y24523281D01*
X6384414Y24524500D01*
X6446760Y24524500D01*
X6504951Y24505593D01*
X6540915Y24456093D01*
X6544723Y24439781D01*
X6548134Y24416375D01*
X6603174Y24303789D01*
X6691789Y24215174D01*
X6804375Y24160134D01*
X6877364Y24149500D01*
X6877367Y24149500D01*
X7998632Y24149500D01*
X7998636Y24149500D01*
X8071625Y24160134D01*
X8184211Y24215174D01*
X8272826Y24303789D01*
X8327866Y24416375D01*
X8338500Y24489364D01*
X8338500Y25010636D01*
X8327866Y25083625D01*
X8272826Y25196211D01*
X8184211Y25284826D01*
X8071625Y25339866D01*
X8071626Y25339866D01*
X8053377Y25342525D01*
X7998636Y25350500D01*
X6877364Y25350500D01*
X6833570Y25344120D01*
X6804373Y25339866D01*
X6691790Y25284827D01*
X6603173Y25196210D01*
X6548134Y25083627D01*
X6548134Y25083625D01*
X6544724Y25060226D01*
X6517627Y25005371D01*
X6463460Y24976919D01*
X6446760Y24975500D01*
X6205143Y24975500D01*
X6122266Y24941172D01*
X6122264Y24941170D01*
X122265Y18941171D01*
X122264Y18941170D01*
X122263Y18941171D01*
X58830Y18877738D01*
X58830Y18877735D01*
X24499Y18794855D01*
X24499Y18693623D01*
X24500Y18693614D01*
X24500Y17854414D01*
X5593Y17796223D01*
X-4496Y17784410D01*
X-916611Y16872296D01*
X-971128Y16844519D01*
X-1031560Y16854090D01*
X-1033283Y16854990D01*
X-1115268Y16898812D01*
X-1115270Y16898813D01*
X-1125183Y16901820D01*
X-1303868Y16956024D01*
X-1303871Y16956025D01*
X-1303874Y16956026D01*
X-1499997Y16975341D01*
X-1500003Y16975341D01*
X-1696127Y16956026D01*
X-1696130Y16956025D01*
X-1884731Y16898813D01*
X-1884733Y16898812D01*
X-2058533Y16805913D01*
X-2058543Y16805907D01*
X-2210879Y16680888D01*
X-2210888Y16680879D01*
X-2335907Y16528543D01*
X-2335913Y16528533D01*
X-2428812Y16354733D01*
X-2428813Y16354731D01*
X-2486025Y16166130D01*
X-2486026Y16166127D01*
X-2505341Y15970004D01*
X-3500000Y15970004D01*
X-3500000Y18510004D01*
X-2505341Y18510004D01*
X-2505341Y18509997D01*
X-2486026Y18313874D01*
X-2486025Y18313871D01*
X-2428813Y18125270D01*
X-2428812Y18125268D01*
X-2396779Y18065339D01*
X-2335910Y17951462D01*
X-2335908Y17951460D01*
X-2335907Y17951458D01*
X-2210888Y17799122D01*
X-2210879Y17799113D01*
X-2112666Y17718512D01*
X-2058538Y17674090D01*
X-1935991Y17608587D01*
X-1905453Y17592264D01*
X-1884727Y17581186D01*
X-1696132Y17523976D01*
X-1696130Y17523976D01*
X-1696127Y17523975D01*
X-1500003Y17504659D01*
X-1500000Y17504659D01*
X-1499997Y17504659D01*
X-1303874Y17523975D01*
X-1303873Y17523976D01*
X-1303868Y17523976D01*
X-1115273Y17581186D01*
X-941462Y17674090D01*
X-789117Y17799117D01*
X-664090Y17951462D01*
X-571186Y18125273D01*
X-513976Y18313868D01*
X-513407Y18319637D01*
X-494659Y18509997D01*
X-494659Y18510004D01*
X-513975Y18706127D01*
X-513976Y18706130D01*
X-513976Y18706132D01*
X-571186Y18894727D01*
X-615013Y18976722D01*
X-625768Y19036950D01*
X-599067Y19092002D01*
X-597755Y19093342D01*
X6304409Y25995504D01*
X6358926Y26023281D01*
X6374413Y26024500D01*
X6446760Y26024500D01*
X6504951Y26005593D01*
X6540915Y25956093D01*
X6544723Y25939781D01*
X6546934Y25924612D01*
X6548134Y25916374D01*
X6588288Y25834238D01*
X6603174Y25803789D01*
X6691789Y25715174D01*
X6804375Y25660134D01*
X6877364Y25649500D01*
X6877367Y25649500D01*
X7998632Y25649500D01*
X7998636Y25649500D01*
X8071625Y25660134D01*
X8184211Y25715174D01*
X8272826Y25803789D01*
X8327866Y25916375D01*
X8338500Y25989364D01*
X8338500Y26510636D01*
X8327866Y26583625D01*
X8272826Y26696211D01*
X8184211Y26784826D01*
X8071625Y26839866D01*
X8071626Y26839866D01*
X8053377Y26842525D01*
X7998636Y26850500D01*
X6877364Y26850500D01*
X6833570Y26844120D01*
X6804373Y26839866D01*
X6691790Y26784827D01*
X6603173Y26696210D01*
X6548134Y26583627D01*
X6548134Y26583625D01*
X6544724Y26560226D01*
X6517627Y26505371D01*
X6463460Y26476919D01*
X6446760Y26475500D01*
X6296386Y26475500D01*
X6296378Y26475501D01*
X6284855Y26475501D01*
X6195145Y26475501D01*
X6195143Y26475501D01*
X6136542Y26451229D01*
X6136543Y26451228D01*
X6112264Y26441170D01*
X6112262Y26441169D01*
X6048829Y26377737D01*
X6048830Y26377736D01*
X6048829Y26377735D01*
X-916611Y19412296D01*
X-971128Y19384519D01*
X-1031560Y19394090D01*
X-1033283Y19394990D01*
X-1115268Y19438812D01*
X-1115270Y19438813D01*
X-1125183Y19441820D01*
X-1286116Y19490639D01*
X-1303871Y19496025D01*
X-1303874Y19496026D01*
X-1499997Y19515341D01*
X-1500003Y19515341D01*
X-1696127Y19496026D01*
X-1696130Y19496025D01*
X-1884731Y19438813D01*
X-1884733Y19438812D01*
X-2058533Y19345913D01*
X-2058543Y19345907D01*
X-2210879Y19220888D01*
X-2210888Y19220879D01*
X-2335907Y19068543D01*
X-2335913Y19068533D01*
X-2428812Y18894733D01*
X-2428813Y18894731D01*
X-2486025Y18706130D01*
X-2486026Y18706127D01*
X-2505341Y18510004D01*
X-3500000Y18510004D01*
X-3500000Y21050004D01*
X-2505341Y21050004D01*
X-2505341Y21049997D01*
X-2486026Y20853874D01*
X-2486025Y20853871D01*
X-2428813Y20665270D01*
X-2428812Y20665268D01*
X-2399854Y20611092D01*
X-2335910Y20491462D01*
X-2335908Y20491460D01*
X-2335907Y20491458D01*
X-2210888Y20339122D01*
X-2210879Y20339113D01*
X-2090331Y20240182D01*
X-2058538Y20214090D01*
X-1884727Y20121186D01*
X-1696132Y20063976D01*
X-1696130Y20063976D01*
X-1696127Y20063975D01*
X-1500003Y20044659D01*
X-1500000Y20044659D01*
X-1499997Y20044659D01*
X-1303874Y20063975D01*
X-1303873Y20063976D01*
X-1303868Y20063976D01*
X-1115273Y20121186D01*
X-941462Y20214090D01*
X-789117Y20339117D01*
X-664090Y20491462D01*
X-571186Y20665273D01*
X-513976Y20853868D01*
X-513936Y20854266D01*
X-494659Y21049997D01*
X-494659Y21050004D01*
X-513975Y21246127D01*
X-513976Y21246130D01*
X-513976Y21246132D01*
X-571186Y21434727D01*
X-615013Y21516722D01*
X-625768Y21576950D01*
X-599067Y21632002D01*
X-597756Y21633341D01*
X5264409Y27495504D01*
X5318926Y27523281D01*
X5334413Y27524500D01*
X6446760Y27524500D01*
X6504951Y27505593D01*
X6540915Y27456093D01*
X6544723Y27439781D01*
X6548134Y27416375D01*
X6603174Y27303789D01*
X6691789Y27215174D01*
X6804375Y27160134D01*
X6877364Y27149500D01*
X6877367Y27149500D01*
X7998632Y27149500D01*
X7998636Y27149500D01*
X8071625Y27160134D01*
X8184211Y27215174D01*
X8272826Y27303789D01*
X8327866Y27416375D01*
X8338500Y27489364D01*
X8338500Y28010636D01*
X8327866Y28083625D01*
X8272826Y28196211D01*
X8184211Y28284826D01*
X8071625Y28339866D01*
X8071626Y28339866D01*
X8053377Y28342525D01*
X7998636Y28350500D01*
X6877364Y28350500D01*
X6833570Y28344120D01*
X6804373Y28339866D01*
X6691790Y28284827D01*
X6603173Y28196210D01*
X6548134Y28083627D01*
X6548134Y28083625D01*
X6544724Y28060226D01*
X6517627Y28005371D01*
X6463460Y27976919D01*
X6446760Y27975500D01*
X5256386Y27975500D01*
X5256378Y27975501D01*
X5244855Y27975501D01*
X5155145Y27975501D01*
X5135368Y27967309D01*
X5115591Y27959117D01*
X5072264Y27941171D01*
X5008829Y27877737D01*
X5008830Y27877736D01*
X5008829Y27877735D01*
X-916611Y21952296D01*
X-971128Y21924519D01*
X-1031560Y21934090D01*
X-1033283Y21934990D01*
X-1115268Y21978812D01*
X-1115270Y21978813D01*
X-1119180Y21979999D01*
X-1303868Y22036024D01*
X-1303871Y22036025D01*
X-1303874Y22036026D01*
X-1499997Y22055341D01*
X-1500003Y22055341D01*
X-1696127Y22036026D01*
X-1696130Y22036025D01*
X-1884731Y21978813D01*
X-1884733Y21978812D01*
X-2058533Y21885913D01*
X-2058543Y21885907D01*
X-2210879Y21760888D01*
X-2210888Y21760879D01*
X-2335907Y21608543D01*
X-2335913Y21608533D01*
X-2428812Y21434733D01*
X-2428813Y21434731D01*
X-2486025Y21246130D01*
X-2486026Y21246127D01*
X-2505341Y21050004D01*
X-3500000Y21050004D01*
X-3500000Y23590004D01*
X-2505341Y23590004D01*
X-2505341Y23589997D01*
X-2486026Y23393874D01*
X-2486025Y23393871D01*
X-2428813Y23205270D01*
X-2428812Y23205268D01*
X-2394106Y23140339D01*
X-2335910Y23031462D01*
X-2335908Y23031460D01*
X-2335907Y23031458D01*
X-2210888Y22879122D01*
X-2210879Y22879113D01*
X-2058543Y22754094D01*
X-2058538Y22754090D01*
X-1884727Y22661186D01*
X-1696132Y22603976D01*
X-1696130Y22603976D01*
X-1696127Y22603975D01*
X-1500003Y22584659D01*
X-1500000Y22584659D01*
X-1499997Y22584659D01*
X-1303874Y22603975D01*
X-1303873Y22603976D01*
X-1303868Y22603976D01*
X-1115273Y22661186D01*
X-941462Y22754090D01*
X-789117Y22879117D01*
X-664090Y23031462D01*
X-571186Y23205273D01*
X-513976Y23393868D01*
X-507601Y23458587D01*
X-494659Y23589997D01*
X-494659Y23590004D01*
X-513975Y23786127D01*
X-513976Y23786130D01*
X-513976Y23786132D01*
X-571186Y23974727D01*
X-615013Y24056722D01*
X-625768Y24116950D01*
X-599067Y24172002D01*
X-597756Y24173341D01*
X4224409Y28995504D01*
X4278926Y29023281D01*
X4294413Y29024500D01*
X6446760Y29024500D01*
X6504951Y29005593D01*
X6540915Y28956093D01*
X6544723Y28939781D01*
X6546951Y28924496D01*
X6548134Y28916374D01*
X6603173Y28803791D01*
X6603174Y28803789D01*
X6691789Y28715174D01*
X6804375Y28660134D01*
X6877364Y28649500D01*
X6877367Y28649500D01*
X7998632Y28649500D01*
X7998636Y28649500D01*
X8071625Y28660134D01*
X8184211Y28715174D01*
X8272826Y28803789D01*
X8327866Y28916375D01*
X8338500Y28989364D01*
X8338500Y29510636D01*
X8327866Y29583625D01*
X8272826Y29696211D01*
X8184211Y29784826D01*
X8071625Y29839866D01*
X8071626Y29839866D01*
X8053377Y29842525D01*
X7998636Y29850500D01*
X6877364Y29850500D01*
X6833570Y29844120D01*
X6804373Y29839866D01*
X6691790Y29784827D01*
X6603173Y29696210D01*
X6548134Y29583627D01*
X6548134Y29583625D01*
X6544724Y29560226D01*
X6517627Y29505371D01*
X6463460Y29476919D01*
X6446760Y29475500D01*
X4216386Y29475500D01*
X4216378Y29475501D01*
X4204855Y29475501D01*
X4115146Y29475501D01*
X4115144Y29475501D01*
X4066594Y29455391D01*
X4032265Y29441172D01*
X4032263Y29441170D01*
X3968829Y29377737D01*
X3968830Y29377736D01*
X3968829Y29377735D01*
X-916611Y24492296D01*
X-971128Y24464519D01*
X-1031560Y24474090D01*
X-1033283Y24474990D01*
X-1115268Y24518812D01*
X-1115270Y24518813D01*
X-1129340Y24523081D01*
X-1222127Y24551228D01*
X-1303871Y24576025D01*
X-1303874Y24576026D01*
X-1499997Y24595341D01*
X-1500003Y24595341D01*
X-1696127Y24576026D01*
X-1696130Y24576025D01*
X-1884731Y24518813D01*
X-1884733Y24518812D01*
X-2058533Y24425913D01*
X-2058543Y24425907D01*
X-2210879Y24300888D01*
X-2210888Y24300879D01*
X-2335907Y24148543D01*
X-2335913Y24148533D01*
X-2428812Y23974733D01*
X-2428813Y23974731D01*
X-2486025Y23786130D01*
X-2486026Y23786127D01*
X-2505341Y23590004D01*
X-3500000Y23590004D01*
X-3500000Y28670004D01*
X-2505341Y28670004D01*
X-2505341Y28669997D01*
X-2486026Y28473874D01*
X-2486025Y28473871D01*
X-2486024Y28473868D01*
X-2448601Y28350500D01*
X-2428813Y28285270D01*
X-2428812Y28285268D01*
X-2381209Y28196210D01*
X-2335910Y28111462D01*
X-2335908Y28111460D01*
X-2335907Y28111458D01*
X-2210888Y27959122D01*
X-2210879Y27959113D01*
X-2058543Y27834094D01*
X-2058538Y27834090D01*
X-1963730Y27783414D01*
X-1891592Y27744855D01*
X-1884727Y27741186D01*
X-1696132Y27683976D01*
X-1696130Y27683976D01*
X-1696127Y27683975D01*
X-1500003Y27664659D01*
X-1500000Y27664659D01*
X-1499997Y27664659D01*
X-1303874Y27683975D01*
X-1303873Y27683976D01*
X-1303868Y27683976D01*
X-1115273Y27741186D01*
X-941462Y27834090D01*
X-789117Y27959117D01*
X-664090Y28111462D01*
X-571186Y28285273D01*
X-513976Y28473868D01*
X-507239Y28542264D01*
X-494659Y28669997D01*
X-494659Y28670004D01*
X-513975Y28866127D01*
X-513976Y28866130D01*
X-513976Y28866132D01*
X-571186Y29054727D01*
X-615013Y29136722D01*
X-625768Y29196950D01*
X-599067Y29252002D01*
X-597756Y29253341D01*
X2144409Y31995504D01*
X2198926Y32023281D01*
X2214413Y32024500D01*
X6446760Y32024500D01*
X6504951Y32005593D01*
X6540915Y31956093D01*
X6544723Y31939781D01*
X6548134Y31916375D01*
X6603174Y31803789D01*
X6691789Y31715174D01*
X6804375Y31660134D01*
X6877364Y31649500D01*
X6877367Y31649500D01*
X7998632Y31649500D01*
X7998636Y31649500D01*
X8071625Y31660134D01*
X8184211Y31715174D01*
X8272826Y31803789D01*
X8327866Y31916375D01*
X8331275Y31939775D01*
X8358373Y31994629D01*
X8412540Y32023081D01*
X8429240Y32024500D01*
X9365587Y32024500D01*
X9423778Y32005593D01*
X9435591Y31995504D01*
X12753504Y28677591D01*
X12781281Y28623074D01*
X12782500Y28607587D01*
X12782500Y28025414D01*
X12763593Y27967223D01*
X12714093Y27931259D01*
X12652907Y27931259D01*
X12613496Y27955410D01*
X9691170Y30877735D01*
X9691170Y30877736D01*
X9627736Y30941170D01*
X9627732Y30941172D01*
X9603458Y30951227D01*
X9603458Y30951228D01*
X9568775Y30965593D01*
X9544855Y30975501D01*
X9455145Y30975501D01*
X9443622Y30975501D01*
X9443614Y30975500D01*
X8429240Y30975500D01*
X8371049Y30994407D01*
X8335085Y31043907D01*
X8331276Y31060220D01*
X8327866Y31083625D01*
X8272826Y31196211D01*
X8184211Y31284826D01*
X8071625Y31339866D01*
X8071626Y31339866D01*
X8053377Y31342525D01*
X7998636Y31350500D01*
X6877364Y31350500D01*
X6833570Y31344120D01*
X6804373Y31339866D01*
X6691790Y31284827D01*
X6603173Y31196210D01*
X6548134Y31083627D01*
X6547210Y31077284D01*
X6544724Y31060226D01*
X6517627Y31005371D01*
X6463460Y30976919D01*
X6446760Y30975500D01*
X3176386Y30975500D01*
X3176378Y30975501D01*
X3164855Y30975501D01*
X3075146Y30975501D01*
X3075144Y30975501D01*
X3026594Y30955391D01*
X2992265Y30941172D01*
X2992263Y30941170D01*
X2928829Y30877737D01*
X2928830Y30877736D01*
X2928829Y30877735D01*
X-916611Y27032296D01*
X-971128Y27004519D01*
X-1031560Y27014090D01*
X-1033283Y27014990D01*
X-1115268Y27058812D01*
X-1115270Y27058813D01*
X-1303871Y27116025D01*
X-1303874Y27116026D01*
X-1499997Y27135341D01*
X-1500003Y27135341D01*
X-1696127Y27116026D01*
X-1696130Y27116025D01*
X-1884731Y27058813D01*
X-1884733Y27058812D01*
X-2058533Y26965913D01*
X-2058543Y26965907D01*
X-2210879Y26840888D01*
X-2210888Y26840879D01*
X-2335907Y26688543D01*
X-2335913Y26688533D01*
X-2428812Y26514733D01*
X-2428813Y26514731D01*
X-2486025Y26326130D01*
X-2486026Y26326127D01*
X-2505341Y26130004D01*
X-2505341Y26129997D01*
X-2486026Y25933874D01*
X-2486025Y25933871D01*
X-2428813Y25745270D01*
X-2428812Y25745268D01*
X-2392381Y25677112D01*
X-2335910Y25571462D01*
X-2335908Y25571460D01*
X-2335907Y25571458D01*
X-2210888Y25419122D01*
X-2210879Y25419113D01*
X-2114316Y25339866D01*
X-2058538Y25294090D01*
X-1884727Y25201186D01*
X-1696132Y25143976D01*
X-1696130Y25143976D01*
X-1696127Y25143975D01*
X-1500003Y25124659D01*
X-1500000Y25124659D01*
X-1499997Y25124659D01*
X-1303874Y25143975D01*
X-1303873Y25143976D01*
X-1303868Y25143976D01*
X-1115273Y25201186D01*
X-941462Y25294090D01*
X-789117Y25419117D01*
X-664090Y25571462D01*
X-571186Y25745273D01*
X-513976Y25933868D01*
X-513394Y25939772D01*
X-494659Y26129997D01*
X-494659Y26130004D01*
X-513975Y26326127D01*
X-513976Y26326130D01*
X-513976Y26326132D01*
X-571186Y26514727D01*
X-615013Y26596722D01*
X-625768Y26656950D01*
X-599067Y26712002D01*
X-597756Y26713341D01*
X3184409Y30495504D01*
X3238926Y30523281D01*
X3254413Y30524500D01*
X6446760Y30524500D01*
X6504951Y30505593D01*
X6540915Y30456093D01*
X6544723Y30439781D01*
X6548134Y30416375D01*
X6603174Y30303789D01*
X6691789Y30215174D01*
X6804375Y30160134D01*
X6877364Y30149500D01*
X6877367Y30149500D01*
X7998632Y30149500D01*
X7998636Y30149500D01*
X8071625Y30160134D01*
X8184211Y30215174D01*
X8272826Y30303789D01*
X8327866Y30416375D01*
X8331275Y30439775D01*
X8358373Y30494629D01*
X8412540Y30523081D01*
X8429240Y30524500D01*
X9365587Y30524500D01*
X9423778Y30505593D01*
X9435591Y30495504D01*
X12295504Y27635591D01*
X12323281Y27581074D01*
X12324500Y27565587D01*
X12324500Y25689185D01*
X12305593Y25630994D01*
X12256093Y25595030D01*
X12210012Y25591405D01*
X12125000Y25604869D01*
X12015338Y25587500D01*
X11916413Y25537095D01*
X11837905Y25458587D01*
X11787500Y25359662D01*
X11787500Y25359661D01*
X11770131Y25250000D01*
X11787500Y25140339D01*
X11837905Y25041413D01*
X11905505Y24973813D01*
X11933281Y24919298D01*
X11934500Y24903811D01*
X11934500Y20919413D01*
X11915593Y20861222D01*
X11905504Y20849409D01*
X11460591Y20404496D01*
X11406074Y20376719D01*
X11390587Y20375500D01*
X10200862Y20375500D01*
X10117983Y20341171D01*
X10054548Y20277737D01*
X10054549Y20277736D01*
X10054548Y20277735D01*
X8495519Y18718705D01*
X6963310Y17186496D01*
X6908793Y17158719D01*
X6893306Y17157500D01*
X6086190Y17157500D01*
X6027999Y17176407D01*
X6016187Y17186496D01*
X5983589Y17219094D01*
X5884661Y17269500D01*
X5775000Y17286869D01*
X5665338Y17269500D01*
X5566413Y17219095D01*
X5487905Y17140587D01*
X5437500Y17041662D01*
X5430190Y16995506D01*
X5420131Y16932000D01*
X5432328Y16854990D01*
X5433596Y16846988D01*
X5424025Y16786555D01*
X5380761Y16743291D01*
X5335815Y16732500D01*
X4369300Y16732500D01*
X4311109Y16751407D01*
X4275145Y16800907D01*
X4270300Y16831500D01*
X4270300Y16901819D01*
X4270299Y16901828D01*
X4261567Y16945721D01*
X4261565Y16945725D01*
X4228305Y16995502D01*
X4228304Y16995504D01*
X4189687Y17021307D01*
X4178524Y17028766D01*
X4178520Y17028768D01*
X4134627Y17037500D01*
X4134620Y17037500D01*
X2834980Y17037500D01*
X2834972Y17037500D01*
X2791079Y17028768D01*
X2791075Y17028766D01*
X2741298Y16995506D01*
X2741294Y16995502D01*
X2708034Y16945725D01*
X2708032Y16945721D01*
X2699300Y16901828D01*
X2699300Y16174500D01*
X2680393Y16116309D01*
X2630893Y16080345D01*
X2600300Y16075500D01*
X976386Y16075500D01*
X976378Y16075501D01*
X964855Y16075501D01*
X875146Y16075501D01*
X834313Y16058587D01*
X834312Y16058587D01*
X792264Y16041171D01*
X728829Y15977737D01*
X728830Y15977736D01*
X728829Y15977735D01*
X-916611Y14332296D01*
X-971128Y14304519D01*
X-1031560Y14314090D01*
X-1033283Y14314990D01*
X-1115268Y14358812D01*
X-1115270Y14358813D01*
X-1303871Y14416025D01*
X-1303874Y14416026D01*
X-1499997Y14435341D01*
X-1500003Y14435341D01*
X-1696127Y14416026D01*
X-1696130Y14416025D01*
X-1884731Y14358813D01*
X-1884733Y14358812D01*
X-2058533Y14265913D01*
X-2058543Y14265907D01*
X-2210879Y14140888D01*
X-2210888Y14140879D01*
X-2335907Y13988543D01*
X-2335913Y13988533D01*
X-2428812Y13814733D01*
X-2428813Y13814731D01*
X-2486025Y13626130D01*
X-2486026Y13626127D01*
X-2505341Y13430004D01*
X-2505341Y13429997D01*
X-2486026Y13233874D01*
X-2486025Y13233871D01*
X-2486024Y13233868D01*
X-2449262Y13112679D01*
X-2428813Y13045270D01*
X-2428812Y13045268D01*
X-2395826Y12983557D01*
X-2335910Y12871462D01*
X-2335908Y12871460D01*
X-2335907Y12871458D01*
X-2210888Y12719122D01*
X-2210879Y12719113D01*
X-2058543Y12594094D01*
X-2058538Y12594090D01*
X-1884727Y12501186D01*
X-1696132Y12443976D01*
X-1696130Y12443976D01*
X-1696127Y12443975D01*
X-1601528Y12434659D01*
X-1500000Y12424659D01*
X-1499998Y12424660D01*
X-1498248Y12424487D01*
X-1442191Y12399968D01*
X-1411251Y12347181D01*
X-1417248Y12286291D01*
X-1437947Y12255961D01*
X-1627735Y12066172D01*
X-1627735Y12066171D01*
X-1627736Y12066170D01*
X-1627737Y12066171D01*
X-1691170Y12002737D01*
X-1691170Y12002736D01*
X-1692303Y12000000D01*
X-1721509Y11929491D01*
X-1729232Y11910847D01*
X-1730905Y11911540D01*
X-1754993Y11868537D01*
X-1793448Y11846504D01*
X-1884730Y11818813D01*
X-1884733Y11818812D01*
X-2058533Y11725913D01*
X-2058543Y11725907D01*
X-2210879Y11600888D01*
X-2210888Y11600879D01*
X-2335907Y11448543D01*
X-2335913Y11448533D01*
X-2428812Y11274733D01*
X-2428813Y11274731D01*
X-2486025Y11086130D01*
X-2486026Y11086127D01*
X-2505341Y10890004D01*
X-2505341Y10889997D01*
X-2486026Y10693874D01*
X-2486025Y10693871D01*
X-2486024Y10693868D01*
X-2442534Y10550500D01*
X-2428813Y10505270D01*
X-2428812Y10505268D01*
X-2384597Y10422549D01*
X-2335910Y10331462D01*
X-2335908Y10331460D01*
X-2335907Y10331458D01*
X-2210888Y10179122D01*
X-2210879Y10179113D01*
X-2074879Y10067501D01*
X-2058538Y10054090D01*
X-1884727Y9961186D01*
X-1696132Y9903976D01*
X-1696130Y9903976D01*
X-1696127Y9903975D01*
X-1500003Y9884659D01*
X-1500000Y9884659D01*
X-1499997Y9884659D01*
X-1303874Y9903975D01*
X-1303873Y9903976D01*
X-1303868Y9903976D01*
X-1115273Y9961186D01*
X-941462Y10054090D01*
X-812305Y10160088D01*
X-755329Y10182387D01*
X-696126Y10166939D01*
X-657310Y10119642D01*
X-650500Y10083559D01*
X-650500Y9559413D01*
X-669407Y9501222D01*
X-679497Y9489409D01*
X-916611Y9252296D01*
X-971127Y9224519D01*
X-1031559Y9234090D01*
X-1033282Y9234990D01*
X-1115268Y9278812D01*
X-1115270Y9278813D01*
X-1143647Y9287421D01*
X-1246383Y9318586D01*
X-1303871Y9336025D01*
X-1303874Y9336026D01*
X-1499997Y9355341D01*
X-1500003Y9355341D01*
X-1696127Y9336026D01*
X-1696130Y9336025D01*
X-1884731Y9278813D01*
X-1884733Y9278812D01*
X-2058533Y9185913D01*
X-2058543Y9185907D01*
X-2210879Y9060888D01*
X-2210888Y9060879D01*
X-2335907Y8908543D01*
X-2335913Y8908533D01*
X-2428812Y8734733D01*
X-2428813Y8734731D01*
X-2486025Y8546130D01*
X-2486026Y8546127D01*
X-2505341Y8350004D01*
X-2505341Y8349997D01*
X-2486026Y8153874D01*
X-2486025Y8153871D01*
X-2485695Y8152784D01*
X-2436744Y7991413D01*
X-2428813Y7965270D01*
X-2428812Y7965268D01*
X-2362034Y7840336D01*
X-2335910Y7791462D01*
X-2335908Y7791460D01*
X-2335907Y7791458D01*
X-2210888Y7639122D01*
X-2210879Y7639113D01*
X-2058543Y7514094D01*
X-2058538Y7514090D01*
X-1938436Y7449894D01*
X-1892488Y7425334D01*
X-1884727Y7421186D01*
X-1696132Y7363976D01*
X-1696130Y7363976D01*
X-1696127Y7363975D01*
X-1500003Y7344659D01*
X-1500000Y7344659D01*
X-1499997Y7344659D01*
X-1303874Y7363975D01*
X-1303873Y7363976D01*
X-1303868Y7363976D01*
X-1115273Y7421186D01*
X-941462Y7514090D01*
X-789117Y7639117D01*
X-664090Y7791462D01*
X-571186Y7965273D01*
X-513976Y8153868D01*
X-513756Y8156093D01*
X-494659Y8349997D01*
X-494659Y8350004D01*
X-513975Y8546127D01*
X-513976Y8546130D01*
X-513976Y8546132D01*
X-571186Y8734727D01*
X-615013Y8816722D01*
X-625768Y8876950D01*
X-599067Y8932002D01*
X-597705Y8933391D01*
X-419503Y9111592D01*
X-364987Y9139369D01*
X-304555Y9129798D01*
X-261290Y9086533D01*
X-250500Y9041588D01*
X-250500Y7419414D01*
X-269407Y7361223D01*
X-279496Y7349410D01*
X-916611Y6712296D01*
X-971128Y6684519D01*
X-1031560Y6694090D01*
X-1033283Y6694990D01*
X-1115268Y6738812D01*
X-1115270Y6738813D01*
X-1149317Y6749141D01*
X-1303868Y6796024D01*
X-1303871Y6796025D01*
X-1303874Y6796026D01*
X-1499997Y6815341D01*
X-1500003Y6815341D01*
X-1696127Y6796026D01*
X-1696130Y6796025D01*
X-1884731Y6738813D01*
X-1884733Y6738812D01*
X-2058533Y6645913D01*
X-2058543Y6645907D01*
X-2210879Y6520888D01*
X-2210888Y6520879D01*
X-2335907Y6368543D01*
X-2335913Y6368533D01*
X-2428812Y6194733D01*
X-2428813Y6194731D01*
X-2486025Y6006130D01*
X-2486026Y6006127D01*
X-2505341Y5810004D01*
X-2505341Y5809997D01*
X-2486026Y5613874D01*
X-2486025Y5613871D01*
X-2486024Y5613868D01*
X-2430364Y5430381D01*
X-2428813Y5425270D01*
X-2428812Y5425268D01*
X-2376546Y5327487D01*
X-2335910Y5251462D01*
X-2335908Y5251460D01*
X-2335907Y5251458D01*
X-2210888Y5099122D01*
X-2210879Y5099113D01*
X-2073946Y4986735D01*
X-2058538Y4974090D01*
X-1935654Y4908407D01*
X-1900282Y4889500D01*
X-1884727Y4881186D01*
X-1696132Y4823976D01*
X-1696130Y4823976D01*
X-1696127Y4823975D01*
X-1500003Y4804659D01*
X-1500000Y4804659D01*
X-1499997Y4804659D01*
X-1303874Y4823975D01*
X-1303873Y4823976D01*
X-1303868Y4823976D01*
X-1115273Y4881186D01*
X-941462Y4974090D01*
X-789117Y5099117D01*
X-664090Y5251462D01*
X-571186Y5425273D01*
X-513976Y5613868D01*
X-513032Y5623445D01*
X-494659Y5809997D01*
X-494659Y5810004D01*
X-513975Y6006127D01*
X-513976Y6006130D01*
X-513976Y6006132D01*
X-571186Y6194727D01*
X-615013Y6276722D01*
X-625768Y6336950D01*
X-599067Y6392002D01*
X-597755Y6393342D01*
X102734Y7093830D01*
X102736Y7093830D01*
X166170Y7157264D01*
X189938Y7214645D01*
X200501Y7240145D01*
X200501Y7329855D01*
X200501Y7337829D01*
X200500Y7337843D01*
X200500Y9385636D01*
X2324500Y9385636D01*
X2324500Y8814364D01*
X2332328Y8760636D01*
X2335134Y8741374D01*
X2379281Y8651071D01*
X2390174Y8628789D01*
X2478789Y8540174D01*
X2591375Y8485134D01*
X2636392Y8478576D01*
X2691248Y8451476D01*
X2713582Y8418496D01*
X2737953Y8359660D01*
X2749632Y8331463D01*
X2749633Y8331462D01*
X2749634Y8331460D01*
X2813068Y8268026D01*
X2813069Y8268026D01*
X2816135Y8264960D01*
X2843912Y8210443D01*
X2844341Y8204983D01*
X2862500Y8090339D01*
X2912906Y7991411D01*
X2917486Y7985108D01*
X2916276Y7984229D01*
X2940090Y7937480D01*
X2930512Y7877049D01*
X2922409Y7865895D01*
X2923073Y7865451D01*
X2863673Y7776556D01*
X2863673Y7776554D01*
X2863672Y7776552D01*
X2856998Y7743000D01*
X2849500Y7705305D01*
X2849500Y7469699D01*
X2849501Y7469691D01*
X2863671Y7398449D01*
X2863672Y7398447D01*
X2871164Y7387235D01*
X2896438Y7349410D01*
X2897509Y7347808D01*
X2914118Y7288920D01*
X2909614Y7268387D01*
X2910135Y7268283D01*
X2899500Y7214828D01*
X2899500Y6739310D01*
X2898281Y6723823D01*
X2894508Y6700000D01*
X2898195Y6676719D01*
X2898281Y6676180D01*
X2899500Y6660692D01*
X2899500Y6185173D01*
X2910135Y6131716D01*
X2907747Y6131242D01*
X2911459Y6084084D01*
X2897509Y6052193D01*
X2863674Y6001556D01*
X2863673Y6001554D01*
X2863672Y6001552D01*
X2855304Y5959484D01*
X2849500Y5930306D01*
X2849500Y5892623D01*
X2830593Y5834432D01*
X2820507Y5822624D01*
X2768942Y5771057D01*
X2768941Y5771058D01*
X2691446Y5693562D01*
X2691444Y5693560D01*
X2691443Y5693558D01*
X2649500Y5592300D01*
X2649500Y4014420D01*
X2690737Y3914868D01*
X2690739Y3914854D01*
X2690742Y3914854D01*
X2691441Y3913165D01*
X2691442Y3913164D01*
X2691443Y3913162D01*
X3338162Y3266442D01*
X3338163Y3266442D01*
X3338164Y3266441D01*
X3439418Y3224500D01*
X3439420Y3224500D01*
X3923687Y3224500D01*
X3981878Y3205593D01*
X4002227Y3185770D01*
X4062379Y3107379D01*
X4177375Y3019139D01*
X4311291Y2963670D01*
X4455000Y2944750D01*
X4598709Y2963670D01*
X4732625Y3019139D01*
X4847621Y3107379D01*
X4935861Y3222375D01*
X4991330Y3356291D01*
X5010250Y3500000D01*
X5010173Y3500582D01*
X4991330Y3643709D01*
X4935861Y3777625D01*
X4847621Y3892621D01*
X4847618Y3892623D01*
X4847617Y3892625D01*
X4835799Y3901694D01*
X4801145Y3952120D01*
X4802749Y4013284D01*
X4826065Y4050237D01*
X4838813Y4062984D01*
X4882682Y4162338D01*
X4885500Y4186627D01*
X4885499Y4613372D01*
X4882682Y4637662D01*
X4838813Y4737016D01*
X4762016Y4813813D01*
X4762014Y4813814D01*
X4759496Y4816332D01*
X4731719Y4870849D01*
X4730500Y4886336D01*
X4730500Y5455099D01*
X4749407Y5513290D01*
X4774495Y5537413D01*
X4782344Y5542656D01*
X4836328Y5623448D01*
X4850500Y5694695D01*
X4850499Y5930304D01*
X4847676Y5944495D01*
X4839123Y5987500D01*
X4836637Y6000000D01*
X5095131Y6000000D01*
X5112500Y5890339D01*
X5162905Y5791413D01*
X5241413Y5712905D01*
X5340339Y5662500D01*
X5450000Y5645131D01*
X5559661Y5662500D01*
X5559666Y5662503D01*
X5560084Y5662638D01*
X5560531Y5662639D01*
X5567356Y5663719D01*
X5567527Y5662639D01*
X5621269Y5662639D01*
X5660679Y5638492D01*
X5662984Y5636187D01*
X5762338Y5592318D01*
X5786627Y5589500D01*
X6213372Y5589501D01*
X6237662Y5592318D01*
X6337016Y5636187D01*
X6413813Y5712984D01*
X6457682Y5812338D01*
X6460500Y5836627D01*
X6460499Y6203372D01*
X6457682Y6227662D01*
X6413813Y6327016D01*
X6342247Y6398582D01*
X6314472Y6453096D01*
X6324043Y6513528D01*
X6361674Y6551160D01*
X6360929Y6552224D01*
X6366966Y6556452D01*
X6367308Y6556793D01*
X6367789Y6557028D01*
X6368020Y6557190D01*
X6452809Y6641979D01*
X6503478Y6750639D01*
X6503480Y6750646D01*
X6510000Y6800162D01*
X6510000Y6854999D01*
X6509999Y6855000D01*
X5490001Y6855000D01*
X5490000Y6854999D01*
X5490000Y6800162D01*
X5496519Y6750646D01*
X5496521Y6750639D01*
X5547190Y6641979D01*
X5631979Y6557190D01*
X5639071Y6552224D01*
X5637899Y6550552D01*
X5674329Y6516587D01*
X5686009Y6456526D01*
X5660156Y6401071D01*
X5657750Y6398579D01*
X5627279Y6368108D01*
X5572762Y6340331D01*
X5541788Y6340331D01*
X5450001Y6354869D01*
X5450000Y6354869D01*
X5340338Y6337500D01*
X5241413Y6287095D01*
X5162905Y6208587D01*
X5112500Y6109662D01*
X5097099Y6012423D01*
X5095131Y6000000D01*
X4836637Y6000000D01*
X4836328Y6001552D01*
X4802489Y6052195D01*
X4785881Y6111080D01*
X4790387Y6131613D01*
X4789865Y6131716D01*
X4800499Y6185173D01*
X4800500Y6185182D01*
X4800500Y6660692D01*
X4801719Y6676180D01*
X4801805Y6676719D01*
X4805492Y6700000D01*
X4801719Y6723823D01*
X4800500Y6739310D01*
X4800500Y7159839D01*
X5490000Y7159839D01*
X5490000Y7105001D01*
X5490001Y7105000D01*
X5874999Y7105000D01*
X5875000Y7105001D01*
X5875000Y7459999D01*
X6125000Y7459999D01*
X6125000Y7105001D01*
X6125001Y7105000D01*
X6509999Y7105000D01*
X6510000Y7105001D01*
X6510000Y7159839D01*
X6503480Y7209355D01*
X6503478Y7209362D01*
X6452809Y7318022D01*
X6368021Y7402810D01*
X6259361Y7453479D01*
X6259354Y7453481D01*
X6209839Y7460000D01*
X6125001Y7460000D01*
X6125000Y7459999D01*
X5875000Y7459999D01*
X5874999Y7460000D01*
X5790161Y7460000D01*
X5740645Y7453481D01*
X5740638Y7453479D01*
X5631978Y7402810D01*
X5547190Y7318022D01*
X5496521Y7209362D01*
X5496519Y7209355D01*
X5490000Y7159839D01*
X4800500Y7159839D01*
X4800500Y7214819D01*
X4800023Y7219664D01*
X4802288Y7219888D01*
X4808420Y7271828D01*
X4828337Y7300413D01*
X4852790Y7324866D01*
X4897150Y7425334D01*
X4899999Y7449892D01*
X4900000Y7449894D01*
X4900000Y7462499D01*
X4899999Y7462500D01*
X3824000Y7462500D01*
X3765809Y7481407D01*
X3729845Y7530907D01*
X3725000Y7561500D01*
X3725000Y7974999D01*
X3975000Y7974999D01*
X3975000Y7712501D01*
X3975001Y7712500D01*
X4374999Y7712500D01*
X4375000Y7712501D01*
X4375000Y7974999D01*
X4625000Y7974999D01*
X4625000Y7712501D01*
X4625001Y7712500D01*
X4899999Y7712500D01*
X4900000Y7712501D01*
X4900000Y7725106D01*
X4899999Y7725109D01*
X4897150Y7749667D01*
X4852790Y7850134D01*
X4775133Y7927791D01*
X4674666Y7972151D01*
X4650108Y7975000D01*
X4625001Y7975000D01*
X4625000Y7974999D01*
X4375000Y7974999D01*
X4374999Y7975000D01*
X4349891Y7975000D01*
X4325333Y7972151D01*
X4216474Y7924085D01*
X4215066Y7927274D01*
X4172214Y7914672D01*
X4134745Y7926847D01*
X4133526Y7924085D01*
X4024666Y7972151D01*
X4000108Y7975000D01*
X3975001Y7975000D01*
X3975000Y7974999D01*
X3725000Y7974999D01*
X3724999Y7975000D01*
X3699891Y7975000D01*
X3675333Y7972151D01*
X3675326Y7972149D01*
X3672140Y7970742D01*
X3668970Y7970420D01*
X3668147Y7970195D01*
X3668109Y7970332D01*
X3611270Y7964541D01*
X3558380Y7995302D01*
X3533672Y8051277D01*
X3537008Y8082529D01*
X3536281Y8082644D01*
X3540010Y8106184D01*
X3554869Y8200000D01*
X3552742Y8213426D01*
X3550038Y8230500D01*
X3537500Y8309661D01*
X3487095Y8408587D01*
X3433360Y8462322D01*
X3405585Y8516836D01*
X3415156Y8577268D01*
X3433361Y8602325D01*
X3459826Y8628789D01*
X3514866Y8741375D01*
X3525500Y8814364D01*
X3525500Y8816547D01*
X3825000Y8816547D01*
X3840760Y8717035D01*
X3840762Y8717031D01*
X3901881Y8597079D01*
X3997078Y8501882D01*
X4117030Y8440763D01*
X4117029Y8440763D01*
X4216545Y8425001D01*
X4350000Y8425001D01*
X4350000Y8974999D01*
X4600000Y8974999D01*
X4600000Y8425002D01*
X4600001Y8425001D01*
X4733453Y8425001D01*
X4832965Y8440761D01*
X4832969Y8440763D01*
X4952921Y8501882D01*
X5048118Y8597079D01*
X5109237Y8717031D01*
X5125000Y8816547D01*
X5125000Y8974999D01*
X5124999Y8975000D01*
X4600001Y8975000D01*
X4600000Y8974999D01*
X4350000Y8974999D01*
X4349999Y8975000D01*
X3825002Y8975000D01*
X3825001Y8974999D01*
X3825001Y8816547D01*
X3825000Y8816547D01*
X3525500Y8816547D01*
X3525500Y9104999D01*
X5490000Y9104999D01*
X5490000Y9050162D01*
X5496519Y9000646D01*
X5496521Y9000639D01*
X5547190Y8891979D01*
X5631979Y8807190D01*
X5639071Y8802224D01*
X5637899Y8800552D01*
X5674329Y8766587D01*
X5686009Y8706526D01*
X5660156Y8651071D01*
X5657750Y8648580D01*
X5586188Y8577018D01*
X5586187Y8577017D01*
X5586187Y8577016D01*
X5575149Y8552018D01*
X5542317Y8477660D01*
X5539500Y8453378D01*
X5539500Y8086631D01*
X5539501Y8086628D01*
X5542317Y8062339D01*
X5566729Y8007053D01*
X5586187Y7962984D01*
X5662984Y7886187D01*
X5762338Y7842318D01*
X5786627Y7839500D01*
X6213372Y7839501D01*
X6237662Y7842318D01*
X6337016Y7886187D01*
X6407675Y7956847D01*
X6462189Y7984623D01*
X6522621Y7975052D01*
X6535869Y7966934D01*
X6541409Y7962909D01*
X6541413Y7962905D01*
X6640339Y7912500D01*
X6750000Y7895131D01*
X6859661Y7912500D01*
X6958587Y7962905D01*
X7037095Y8041413D01*
X7087500Y8140339D01*
X7104869Y8250000D01*
X7087500Y8359661D01*
X7037095Y8458587D01*
X6958587Y8537095D01*
X6859661Y8587500D01*
X6750000Y8604869D01*
X6640338Y8587500D01*
X6544575Y8538706D01*
X6484143Y8529135D01*
X6429626Y8556913D01*
X6417953Y8570971D01*
X6413813Y8577015D01*
X6413813Y8577016D01*
X6342247Y8648582D01*
X6314472Y8703096D01*
X6324043Y8763528D01*
X6361674Y8801160D01*
X6360929Y8802224D01*
X6366966Y8806452D01*
X6367308Y8806793D01*
X6367789Y8807028D01*
X6368020Y8807190D01*
X6452809Y8891979D01*
X6503478Y9000639D01*
X6503480Y9000646D01*
X6510000Y9050162D01*
X6510000Y9104999D01*
X6509999Y9105000D01*
X5490001Y9105000D01*
X5490000Y9104999D01*
X3525500Y9104999D01*
X3525500Y9383454D01*
X3825000Y9383454D01*
X3825000Y9225001D01*
X3825001Y9225000D01*
X4349999Y9225000D01*
X4350000Y9225001D01*
X4350000Y9774999D01*
X4600000Y9774999D01*
X4600000Y9225001D01*
X4600001Y9225000D01*
X5124998Y9225000D01*
X5124999Y9225001D01*
X5124999Y9383454D01*
X5120820Y9409839D01*
X5490000Y9409839D01*
X5490000Y9355001D01*
X5490001Y9355000D01*
X5874999Y9355000D01*
X5875000Y9355001D01*
X5875000Y9709999D01*
X6125000Y9709999D01*
X6125000Y9355001D01*
X6125001Y9355000D01*
X6509999Y9355000D01*
X6510000Y9355001D01*
X6510000Y9384839D01*
X7765000Y9384839D01*
X7765000Y9330001D01*
X7765001Y9330000D01*
X8149999Y9330000D01*
X8150000Y9330001D01*
X8150000Y9684999D01*
X8400000Y9684999D01*
X8400000Y9330001D01*
X8400001Y9330000D01*
X8784999Y9330000D01*
X8785000Y9330001D01*
X8785000Y9384839D01*
X8778480Y9434355D01*
X8778478Y9434362D01*
X8727809Y9543022D01*
X8643021Y9627810D01*
X8534361Y9678479D01*
X8534354Y9678481D01*
X8484839Y9685000D01*
X8400001Y9685000D01*
X8400000Y9684999D01*
X8150000Y9684999D01*
X8149999Y9685000D01*
X8065161Y9685000D01*
X8015645Y9678481D01*
X8015638Y9678479D01*
X7906978Y9627810D01*
X7822190Y9543022D01*
X7771521Y9434362D01*
X7771519Y9434355D01*
X7765000Y9384839D01*
X6510000Y9384839D01*
X6510000Y9409839D01*
X6503480Y9459355D01*
X6503478Y9459362D01*
X6452809Y9568022D01*
X6368021Y9652810D01*
X6259361Y9703479D01*
X6259354Y9703481D01*
X6209839Y9710000D01*
X6125001Y9710000D01*
X6125000Y9709999D01*
X5875000Y9709999D01*
X5874999Y9710000D01*
X5790161Y9710000D01*
X5740645Y9703481D01*
X5740638Y9703479D01*
X5631978Y9652810D01*
X5547190Y9568022D01*
X5496521Y9459362D01*
X5496519Y9459355D01*
X5490000Y9409839D01*
X5120820Y9409839D01*
X5109239Y9482966D01*
X5109237Y9482970D01*
X5048118Y9602922D01*
X4952921Y9698119D01*
X4832969Y9759238D01*
X4832970Y9759238D01*
X4733454Y9775000D01*
X4600001Y9775000D01*
X4600000Y9774999D01*
X4350000Y9774999D01*
X4349999Y9775000D01*
X4216547Y9775000D01*
X4216546Y9774999D01*
X4117034Y9759240D01*
X4117030Y9759238D01*
X3997078Y9698119D01*
X3901881Y9602922D01*
X3840762Y9482970D01*
X3825000Y9383454D01*
X3525500Y9383454D01*
X3525500Y9385636D01*
X3514866Y9458625D01*
X3459826Y9571211D01*
X3371211Y9659826D01*
X3292881Y9698119D01*
X3258625Y9714866D01*
X3258626Y9714866D01*
X3240377Y9717525D01*
X3185636Y9725500D01*
X2664364Y9725500D01*
X2620570Y9719120D01*
X2591373Y9714866D01*
X2478790Y9659827D01*
X2390173Y9571210D01*
X2335134Y9458627D01*
X2333155Y9445044D01*
X2324500Y9385636D01*
X200500Y9385636D01*
X200500Y11865587D01*
X219407Y11923778D01*
X229496Y11935591D01*
X1455496Y13161591D01*
X1510013Y13189368D01*
X1570445Y13179797D01*
X1613710Y13136532D01*
X1624500Y13091587D01*
X1624500Y12453173D01*
X1633232Y12409280D01*
X1633234Y12409276D01*
X1654628Y12377258D01*
X1666496Y12359496D01*
X1666499Y12359494D01*
X1680500Y12350139D01*
X1718380Y12302090D01*
X1724500Y12267823D01*
X1724500Y12255111D01*
X1713710Y12210166D01*
X1712905Y12208588D01*
X1712905Y12208587D01*
X1695597Y12174617D01*
X1662500Y12109662D01*
X1645131Y12000001D01*
X1645131Y12000000D01*
X1662500Y11890339D01*
X1704857Y11807208D01*
X1714428Y11746776D01*
X1686650Y11692259D01*
X1671653Y11679950D01*
X1666498Y11676506D01*
X1666494Y11676502D01*
X1633234Y11626725D01*
X1633232Y11626721D01*
X1624500Y11582828D01*
X1624500Y10703173D01*
X1633232Y10659280D01*
X1633234Y10659276D01*
X1657963Y10622266D01*
X1666496Y10609496D01*
X1716278Y10576233D01*
X1732568Y10572993D01*
X1756839Y10568164D01*
X1810223Y10538267D01*
X1828987Y10508954D01*
X1833829Y10497264D01*
X1897264Y10433830D01*
X1897265Y10433830D01*
X1965829Y10365266D01*
X1965830Y10365264D01*
X2029264Y10301830D01*
X2029265Y10301830D01*
X2029266Y10301829D01*
X2112143Y10267500D01*
X2112145Y10267500D01*
X3566152Y10267500D01*
X3624343Y10248593D01*
X3656716Y10208489D01*
X3665384Y10188859D01*
X3740859Y10113384D01*
X3779066Y10096514D01*
X3838501Y10070270D01*
X3842749Y10069778D01*
X3862377Y10067500D01*
X4217622Y10067501D01*
X4241498Y10070270D01*
X4339141Y10113384D01*
X4414616Y10188859D01*
X4457730Y10286502D01*
X4457730Y10286506D01*
X4459434Y10290364D01*
X4500235Y10335960D01*
X4560044Y10348865D01*
X4616016Y10324151D01*
X4640563Y10290365D01*
X4685382Y10188862D01*
X4685383Y10188861D01*
X4685384Y10188859D01*
X4760859Y10113384D01*
X4799066Y10096514D01*
X4858501Y10070270D01*
X4862749Y10069778D01*
X4882377Y10067500D01*
X5237622Y10067501D01*
X5261498Y10070270D01*
X5359141Y10113384D01*
X5434616Y10188859D01*
X5439834Y10200678D01*
X5480632Y10246271D01*
X5540441Y10259178D01*
X5596413Y10234466D01*
X5600402Y10230693D01*
X5708829Y10122266D01*
X5708830Y10122264D01*
X5772264Y10058830D01*
X5780357Y10055478D01*
X5783710Y10054089D01*
X5804632Y10045423D01*
X5855146Y10024499D01*
X5855147Y10024499D01*
X5956378Y10024499D01*
X5956386Y10024500D01*
X7468614Y10024500D01*
X7468622Y10024499D01*
X7480145Y10024499D01*
X7569854Y10024499D01*
X7569855Y10024499D01*
X7641292Y10054090D01*
X7652736Y10058830D01*
X7716170Y10122264D01*
X7716170Y10122266D01*
X7802734Y10208830D01*
X7802736Y10208830D01*
X7866170Y10272264D01*
X7877174Y10298830D01*
X7890404Y10330771D01*
X7926867Y10375201D01*
X7955601Y10394399D01*
X8010966Y10477260D01*
X8025500Y10550326D01*
X8025500Y11049674D01*
X8024440Y11055001D01*
X8012270Y11116185D01*
X8019460Y11176946D01*
X8060992Y11221876D01*
X8109367Y11234500D01*
X8590587Y11234500D01*
X8648778Y11215593D01*
X8660591Y11205504D01*
X8743829Y11122266D01*
X8743830Y11122264D01*
X8807264Y11058830D01*
X8814268Y11055929D01*
X8814270Y11055928D01*
X8829371Y11049673D01*
X8890145Y11024499D01*
X8890146Y11024499D01*
X8991378Y11024499D01*
X8991386Y11024500D01*
X9114132Y11024500D01*
X9172323Y11005593D01*
X9208287Y10956093D01*
X9211230Y10906187D01*
X9199500Y10847216D01*
X9199500Y10652794D01*
X9199501Y10652784D01*
X9212583Y10587014D01*
X9212582Y10587014D01*
X9233973Y10555001D01*
X9250581Y10496113D01*
X9233973Y10444999D01*
X9212582Y10412986D01*
X9199500Y10347216D01*
X9199500Y10152794D01*
X9199501Y10152784D01*
X9212583Y10087014D01*
X9212582Y10087014D01*
X9233973Y10055001D01*
X9250581Y9996113D01*
X9233973Y9944999D01*
X9212582Y9912986D01*
X9199500Y9847216D01*
X9199500Y9652794D01*
X9199501Y9652784D01*
X9212583Y9587014D01*
X9214051Y9583469D01*
X9218848Y9522472D01*
X9204901Y9490587D01*
X9165955Y9432302D01*
X9154557Y9375000D01*
X11020443Y9375000D01*
X11009044Y9432300D01*
X10970099Y9490584D01*
X10953490Y9549472D01*
X10960952Y9583477D01*
X10962417Y9587015D01*
X10975500Y9652789D01*
X10975499Y9847210D01*
X10973609Y9856711D01*
X10964209Y9903975D01*
X10962417Y9912986D01*
X10941026Y9944999D01*
X10924418Y10003886D01*
X10941027Y10055002D01*
X10943585Y10058830D01*
X10962417Y10087014D01*
X10975500Y10152789D01*
X10975499Y10347210D01*
X10962417Y10412986D01*
X10962415Y10412989D01*
X10961964Y10414080D01*
X10961809Y10416038D01*
X10960515Y10422549D01*
X10961285Y10422703D01*
X10957166Y10475077D01*
X10989138Y10527244D01*
X11015547Y10543426D01*
X11032625Y10550500D01*
X11052736Y10558830D01*
X11116170Y10622264D01*
X11116170Y10622265D01*
X11130076Y10636171D01*
X11130085Y10636181D01*
X11177734Y10683830D01*
X11177736Y10683830D01*
X11241170Y10747264D01*
X11260883Y10794855D01*
X11275501Y10830146D01*
X11275501Y10919855D01*
X11275501Y10927829D01*
X11275500Y10927843D01*
X11275500Y11679188D01*
X11294407Y11737379D01*
X11343907Y11773343D01*
X11393815Y11776285D01*
X11402789Y11774500D01*
X11597210Y11774501D01*
X11597214Y11774502D01*
X11597216Y11774502D01*
X11607870Y11776622D01*
X11662986Y11787583D01*
X11694998Y11808974D01*
X11753886Y11825582D01*
X11805001Y11808974D01*
X11837014Y11787583D01*
X11902789Y11774500D01*
X12097210Y11774501D01*
X12097214Y11774502D01*
X12097216Y11774502D01*
X12107870Y11776622D01*
X12162986Y11787583D01*
X12194998Y11808974D01*
X12253886Y11825582D01*
X12305001Y11808974D01*
X12337014Y11787583D01*
X12402789Y11774500D01*
X12597210Y11774501D01*
X12597214Y11774502D01*
X12597216Y11774502D01*
X12607870Y11776622D01*
X12662986Y11787583D01*
X12694998Y11808974D01*
X12753886Y11825582D01*
X12805001Y11808974D01*
X12837014Y11787583D01*
X12902789Y11774500D01*
X13097210Y11774501D01*
X13097214Y11774502D01*
X13097216Y11774502D01*
X13107870Y11776622D01*
X13162986Y11787583D01*
X13194998Y11808974D01*
X13253886Y11825582D01*
X13305001Y11808974D01*
X13337014Y11787583D01*
X13402789Y11774500D01*
X13597210Y11774501D01*
X13597214Y11774502D01*
X13597216Y11774502D01*
X13607870Y11776622D01*
X13662986Y11787583D01*
X13694998Y11808974D01*
X13753886Y11825582D01*
X13805001Y11808974D01*
X13837014Y11787583D01*
X13902789Y11774500D01*
X14097210Y11774501D01*
X14097214Y11774502D01*
X14097216Y11774502D01*
X14107870Y11776622D01*
X14162986Y11787583D01*
X14194998Y11808974D01*
X14253886Y11825582D01*
X14305001Y11808974D01*
X14337014Y11787583D01*
X14402789Y11774500D01*
X14597210Y11774501D01*
X14597214Y11774502D01*
X14597216Y11774502D01*
X14607870Y11776622D01*
X14662986Y11787583D01*
X14694998Y11808974D01*
X14753886Y11825582D01*
X14805001Y11808974D01*
X14837014Y11787583D01*
X14902789Y11774500D01*
X15097210Y11774501D01*
X15097214Y11774502D01*
X15097216Y11774502D01*
X15107870Y11776622D01*
X15162986Y11787583D01*
X15194998Y11808974D01*
X15253886Y11825582D01*
X15305001Y11808974D01*
X15337014Y11787583D01*
X15402789Y11774500D01*
X15597210Y11774501D01*
X15597214Y11774502D01*
X15597216Y11774502D01*
X15607870Y11776622D01*
X15662986Y11787583D01*
X15694998Y11808974D01*
X15753886Y11825582D01*
X15805001Y11808974D01*
X15837014Y11787583D01*
X15902789Y11774500D01*
X16097210Y11774501D01*
X16097214Y11774502D01*
X16097216Y11774502D01*
X16107870Y11776622D01*
X16162986Y11787583D01*
X16194998Y11808974D01*
X16253886Y11825582D01*
X16305001Y11808974D01*
X16337014Y11787583D01*
X16402789Y11774500D01*
X16597210Y11774501D01*
X16597214Y11774502D01*
X16597216Y11774502D01*
X16607870Y11776622D01*
X16662986Y11787583D01*
X16694998Y11808974D01*
X16753886Y11825582D01*
X16805001Y11808974D01*
X16837014Y11787583D01*
X16902789Y11774500D01*
X17097210Y11774501D01*
X17097214Y11774502D01*
X17097216Y11774502D01*
X17107870Y11776622D01*
X17162986Y11787583D01*
X17237577Y11837423D01*
X17287417Y11912014D01*
X17300500Y11977789D01*
X17300499Y13347210D01*
X17300364Y13347888D01*
X17296198Y13368834D01*
X17287417Y13412986D01*
X17237577Y13487577D01*
X17230485Y13492316D01*
X17162986Y13537418D01*
X17097215Y13550500D01*
X16933411Y13550500D01*
X16875220Y13569407D01*
X16839256Y13618907D01*
X16839256Y13680093D01*
X16863407Y13719502D01*
X16889412Y13745506D01*
X16943930Y13773282D01*
X16959413Y13774500D01*
X18568614Y13774500D01*
X18568622Y13774499D01*
X18580145Y13774499D01*
X18669854Y13774499D01*
X18669855Y13774499D01*
X18738021Y13802735D01*
X18752736Y13808830D01*
X18816170Y13872264D01*
X18816170Y13872266D01*
X19109764Y14165861D01*
X19164279Y14193636D01*
X19224711Y14184065D01*
X19267974Y14140802D01*
X19274847Y14127313D01*
X19307447Y14094713D01*
X19335223Y14040198D01*
X19336442Y14024711D01*
X19336442Y11606734D01*
X19317535Y11548543D01*
X19268035Y11512579D01*
X19206849Y11512579D01*
X19182441Y11524418D01*
X19162985Y11537418D01*
X19097215Y11550500D01*
X19097211Y11550500D01*
X18776849Y11550500D01*
X18718658Y11569407D01*
X18682694Y11618907D01*
X18682694Y11680093D01*
X18688640Y11694445D01*
X18704672Y11725911D01*
X18737500Y11790339D01*
X18754869Y11900000D01*
X18753824Y11906595D01*
X18748348Y11941172D01*
X18737500Y12009661D01*
X18687095Y12108587D01*
X18608587Y12187095D01*
X18509661Y12237500D01*
X18400000Y12254869D01*
X18290338Y12237500D01*
X18191413Y12187095D01*
X18112905Y12108587D01*
X18062500Y12009662D01*
X18045131Y11900001D01*
X18045131Y11900000D01*
X18062500Y11790337D01*
X18062501Y11790336D01*
X18111360Y11694445D01*
X18120932Y11634013D01*
X18093155Y11579497D01*
X18038638Y11551719D01*
X18023151Y11550500D01*
X17727793Y11550500D01*
X17727783Y11550499D01*
X17662013Y11537417D01*
X17587425Y11487579D01*
X17587421Y11487575D01*
X17537582Y11412987D01*
X17537582Y11412986D01*
X17524500Y11347216D01*
X17524500Y11152794D01*
X17524501Y11152784D01*
X17537583Y11087014D01*
X17537582Y11087014D01*
X17558973Y11055001D01*
X17575581Y10996113D01*
X17558973Y10944999D01*
X17537582Y10912986D01*
X17524500Y10847216D01*
X17524500Y10652794D01*
X17524501Y10652784D01*
X17537583Y10587014D01*
X17537582Y10587014D01*
X17558973Y10555001D01*
X17575581Y10496113D01*
X17558973Y10444999D01*
X17537582Y10412986D01*
X17524500Y10347216D01*
X17524500Y10152794D01*
X17524501Y10152784D01*
X17537583Y10087014D01*
X17537582Y10087014D01*
X17558973Y10055001D01*
X17575581Y9996113D01*
X17558973Y9944999D01*
X17537582Y9912986D01*
X17524500Y9847216D01*
X17524500Y9652794D01*
X17524501Y9652784D01*
X17537583Y9587014D01*
X17537582Y9587014D01*
X17558973Y9555001D01*
X17575581Y9496113D01*
X17558973Y9444999D01*
X17537582Y9412986D01*
X17524500Y9347216D01*
X17524500Y9152794D01*
X17524501Y9152784D01*
X17537583Y9087014D01*
X17537582Y9087014D01*
X17558973Y9055001D01*
X17575581Y8996113D01*
X17558973Y8944999D01*
X17537582Y8912986D01*
X17524500Y8847216D01*
X17524500Y8652794D01*
X17524501Y8652784D01*
X17537583Y8587014D01*
X17537582Y8587014D01*
X17558973Y8555001D01*
X17575581Y8496113D01*
X17558973Y8444999D01*
X17537582Y8412986D01*
X17524500Y8347216D01*
X17524500Y8152794D01*
X17524501Y8152784D01*
X17537583Y8087014D01*
X17537582Y8087014D01*
X17558973Y8055001D01*
X17575581Y7996113D01*
X17558973Y7944999D01*
X17537582Y7912986D01*
X17524500Y7847216D01*
X17524500Y7652794D01*
X17524501Y7652784D01*
X17537583Y7587014D01*
X17537582Y7587014D01*
X17558973Y7555001D01*
X17575581Y7496113D01*
X17558973Y7444999D01*
X17537582Y7412986D01*
X17524500Y7347216D01*
X17524500Y7152794D01*
X17524501Y7152784D01*
X17537583Y7087014D01*
X17537582Y7087014D01*
X17558973Y7055001D01*
X17575581Y6996113D01*
X17558973Y6944999D01*
X17537582Y6912986D01*
X17524500Y6847216D01*
X17524500Y6652794D01*
X17524501Y6652784D01*
X17537583Y6587014D01*
X17537582Y6587014D01*
X17558973Y6555001D01*
X17575581Y6496113D01*
X17558973Y6444999D01*
X17537582Y6412986D01*
X17524500Y6347216D01*
X17524500Y6152794D01*
X17524501Y6152784D01*
X17537583Y6087014D01*
X17537582Y6087014D01*
X17558973Y6055001D01*
X17575581Y5996113D01*
X17558973Y5944999D01*
X17537582Y5912986D01*
X17524500Y5847216D01*
X17524500Y5652794D01*
X17524501Y5652784D01*
X17533484Y5607622D01*
X17537583Y5587014D01*
X17587423Y5512423D01*
X17591955Y5509395D01*
X17662013Y5462583D01*
X17678344Y5459335D01*
X17727789Y5449500D01*
X18088000Y5449501D01*
X18146191Y5430594D01*
X18182155Y5381094D01*
X18187000Y5350501D01*
X18187000Y4396914D01*
X18168093Y4338723D01*
X18158004Y4326910D01*
X17469503Y3638410D01*
X17414986Y3610633D01*
X17354554Y3620204D01*
X17311289Y3663469D01*
X17300499Y3708411D01*
X17300499Y5022210D01*
X17287417Y5087986D01*
X17237577Y5162577D01*
X17229018Y5168296D01*
X17162986Y5212418D01*
X17097212Y5225500D01*
X16902793Y5225500D01*
X16902783Y5225499D01*
X16837013Y5212417D01*
X16805001Y5191027D01*
X16746113Y5174419D01*
X16694999Y5191027D01*
X16662985Y5212418D01*
X16597212Y5225500D01*
X16402793Y5225500D01*
X16402783Y5225499D01*
X16337013Y5212417D01*
X16305001Y5191027D01*
X16246113Y5174419D01*
X16194999Y5191027D01*
X16162985Y5212418D01*
X16097212Y5225500D01*
X15902793Y5225500D01*
X15902783Y5225499D01*
X15837013Y5212417D01*
X15805001Y5191027D01*
X15746113Y5174419D01*
X15694999Y5191027D01*
X15662985Y5212418D01*
X15597212Y5225500D01*
X15402793Y5225500D01*
X15402783Y5225499D01*
X15337013Y5212417D01*
X15305001Y5191027D01*
X15246113Y5174419D01*
X15194999Y5191027D01*
X15162985Y5212418D01*
X15097212Y5225500D01*
X14902793Y5225500D01*
X14902783Y5225499D01*
X14837013Y5212417D01*
X14805001Y5191027D01*
X14746113Y5174419D01*
X14694999Y5191027D01*
X14662985Y5212418D01*
X14597212Y5225500D01*
X14402793Y5225500D01*
X14402783Y5225499D01*
X14337013Y5212417D01*
X14305001Y5191027D01*
X14246113Y5174419D01*
X14194999Y5191027D01*
X14162985Y5212418D01*
X14097212Y5225500D01*
X13902793Y5225500D01*
X13902783Y5225499D01*
X13837013Y5212417D01*
X13805001Y5191027D01*
X13746113Y5174419D01*
X13694999Y5191027D01*
X13662985Y5212418D01*
X13597212Y5225500D01*
X13402793Y5225500D01*
X13402783Y5225499D01*
X13337013Y5212417D01*
X13305001Y5191027D01*
X13246113Y5174419D01*
X13194999Y5191027D01*
X13162985Y5212418D01*
X13097212Y5225500D01*
X12902793Y5225500D01*
X12902783Y5225499D01*
X12837013Y5212417D01*
X12805001Y5191027D01*
X12746113Y5174419D01*
X12694999Y5191027D01*
X12662985Y5212418D01*
X12597212Y5225500D01*
X12402793Y5225500D01*
X12402783Y5225499D01*
X12337013Y5212417D01*
X12305001Y5191027D01*
X12246113Y5174419D01*
X12194999Y5191027D01*
X12162985Y5212418D01*
X12097212Y5225500D01*
X11902793Y5225500D01*
X11902783Y5225499D01*
X11837013Y5212417D01*
X11805001Y5191027D01*
X11746113Y5174419D01*
X11694999Y5191027D01*
X11662985Y5212418D01*
X11597212Y5225500D01*
X11402793Y5225500D01*
X11402783Y5225499D01*
X11337013Y5212417D01*
X11262425Y5162579D01*
X11262421Y5162575D01*
X11212582Y5087987D01*
X11212582Y5087986D01*
X11199500Y5022216D01*
X11199500Y4662000D01*
X11180593Y4603809D01*
X11131093Y4567845D01*
X11100500Y4563000D01*
X10412000Y4563000D01*
X10353809Y4581907D01*
X10317845Y4631407D01*
X10313000Y4662000D01*
X10313000Y5350501D01*
X10331907Y5408692D01*
X10381407Y5444656D01*
X10412000Y5449501D01*
X10772206Y5449501D01*
X10772210Y5449501D01*
X10772214Y5449502D01*
X10772216Y5449502D01*
X10782870Y5451622D01*
X10837986Y5462583D01*
X10912577Y5512423D01*
X10962417Y5587014D01*
X10975500Y5652789D01*
X10975499Y5847210D01*
X10975056Y5849436D01*
X10966921Y5890339D01*
X10962417Y5912986D01*
X10941026Y5944999D01*
X10924418Y6003886D01*
X10941027Y6055002D01*
X10962417Y6087014D01*
X10975500Y6152789D01*
X10975499Y6298936D01*
X10994406Y6357126D01*
X11043906Y6393090D01*
X11089987Y6396717D01*
X11100000Y6395131D01*
X11209661Y6412500D01*
X11308587Y6462905D01*
X11387095Y6541413D01*
X11437500Y6640339D01*
X11454869Y6750000D01*
X11437500Y6859661D01*
X11387095Y6958587D01*
X11308587Y7037095D01*
X11209661Y7087500D01*
X11100000Y7104869D01*
X11099999Y7104869D01*
X11089982Y7103283D01*
X11029550Y7112857D01*
X10986287Y7156124D01*
X10975499Y7201062D01*
X10975499Y7347210D01*
X10975061Y7349410D01*
X10969295Y7378405D01*
X10962417Y7412986D01*
X10941026Y7444999D01*
X10924418Y7503886D01*
X10941027Y7555002D01*
X10945369Y7561500D01*
X10962417Y7587014D01*
X10975500Y7652789D01*
X10975499Y7847210D01*
X10974917Y7850134D01*
X10967747Y7886187D01*
X10962417Y7912986D01*
X10941026Y7944999D01*
X10924418Y8003886D01*
X10941027Y8055002D01*
X10944139Y8059659D01*
X10962417Y8087014D01*
X10975500Y8152789D01*
X10975499Y8347210D01*
X10974943Y8350004D01*
X10966818Y8390859D01*
X10962417Y8412986D01*
X10962414Y8412990D01*
X10960949Y8416529D01*
X10956150Y8477525D01*
X10970099Y8509416D01*
X11009044Y8567701D01*
X11020443Y8625000D01*
X9153914Y8625000D01*
X9103737Y8592880D01*
X9063253Y8590891D01*
X8975001Y8604869D01*
X8975000Y8604869D01*
X8865337Y8587500D01*
X8788977Y8548593D01*
X8728545Y8539022D01*
X8674031Y8566798D01*
X8617247Y8623582D01*
X8589472Y8678096D01*
X8599043Y8738528D01*
X8636674Y8776160D01*
X8635929Y8777224D01*
X8641966Y8781452D01*
X8642308Y8781793D01*
X8642789Y8782028D01*
X8643020Y8782190D01*
X8727809Y8866979D01*
X8731549Y8875000D01*
X9154557Y8875000D01*
X9962499Y8875000D01*
X9962500Y8875001D01*
X9962500Y9124999D01*
X10212500Y9124999D01*
X10212500Y8875001D01*
X10212501Y8875000D01*
X11020443Y8875000D01*
X11009043Y8932302D01*
X11000561Y8944997D01*
X10983951Y9003885D01*
X11000561Y9055003D01*
X11009043Y9067699D01*
X11020443Y9125000D01*
X10212501Y9125000D01*
X10212500Y9124999D01*
X9962500Y9124999D01*
X9962499Y9125000D01*
X9154557Y9125000D01*
X9165955Y9067701D01*
X9174441Y9055001D01*
X9191049Y8996113D01*
X9174441Y8944999D01*
X9165955Y8932300D01*
X9154557Y8875000D01*
X8731549Y8875000D01*
X8778478Y8975639D01*
X8778480Y8975646D01*
X8785000Y9025162D01*
X8785000Y9079999D01*
X8784999Y9080000D01*
X7765001Y9080000D01*
X7765000Y9079999D01*
X7765000Y9025162D01*
X7771519Y8975646D01*
X7771521Y8975639D01*
X7822190Y8866979D01*
X7906979Y8782190D01*
X7914071Y8777224D01*
X7912899Y8775552D01*
X7949329Y8741587D01*
X7961009Y8681526D01*
X7935156Y8626071D01*
X7932750Y8623580D01*
X7861188Y8552018D01*
X7817317Y8452660D01*
X7814500Y8428378D01*
X7814500Y8061631D01*
X7814501Y8061628D01*
X7817317Y8037339D01*
X7835879Y7995302D01*
X7861187Y7937984D01*
X7937984Y7861187D01*
X8037338Y7817318D01*
X8061627Y7814500D01*
X8488372Y7814501D01*
X8512662Y7817318D01*
X8612016Y7861187D01*
X8680656Y7929828D01*
X8735170Y7957604D01*
X8795600Y7948034D01*
X8865337Y7912501D01*
X8865339Y7912500D01*
X8947416Y7899500D01*
X8974999Y7895131D01*
X8974999Y7895132D01*
X8975000Y7895131D01*
X9084661Y7912500D01*
X9084662Y7912501D01*
X9085012Y7912556D01*
X9145444Y7902985D01*
X9188709Y7859721D01*
X9199500Y7814776D01*
X9199500Y7652794D01*
X9199501Y7652784D01*
X9212583Y7587014D01*
X9212582Y7587014D01*
X9233973Y7555001D01*
X9250581Y7496113D01*
X9233973Y7444999D01*
X9212582Y7412986D01*
X9199500Y7347216D01*
X9199500Y7152794D01*
X9199501Y7152784D01*
X9211231Y7093812D01*
X9204038Y7033051D01*
X9162505Y6988122D01*
X9114133Y6975500D01*
X8755483Y6975500D01*
X8697292Y6994407D01*
X8669002Y7029452D01*
X8668997Y7029448D01*
X8668947Y7029521D01*
X8664919Y7034511D01*
X8663813Y7037016D01*
X8587016Y7113813D01*
X8487662Y7157682D01*
X8487661Y7157683D01*
X8487659Y7157683D01*
X8463376Y7160500D01*
X8096630Y7160500D01*
X8096627Y7160499D01*
X8072338Y7157683D01*
X7972984Y7113813D01*
X7896186Y7037015D01*
X7890564Y7024281D01*
X7849762Y6978687D01*
X7789953Y6965782D01*
X7733982Y6990497D01*
X7709436Y7024281D01*
X7709339Y7024500D01*
X7703813Y7037016D01*
X7627016Y7113813D01*
X7527662Y7157682D01*
X7527661Y7157683D01*
X7527659Y7157683D01*
X7503376Y7160500D01*
X7136630Y7160500D01*
X7136627Y7160499D01*
X7112338Y7157683D01*
X7012984Y7113813D01*
X6936187Y7037016D01*
X6892317Y6937660D01*
X6889500Y6913378D01*
X6889500Y6486631D01*
X6889501Y6486628D01*
X6892317Y6462339D01*
X6905667Y6432105D01*
X6936187Y6362984D01*
X6988489Y6310682D01*
X7016265Y6256167D01*
X7013217Y6217436D01*
X7013719Y6217356D01*
X7012709Y6210982D01*
X7012639Y6210088D01*
X7012500Y6209661D01*
X7003492Y6152785D01*
X6995131Y6100000D01*
X7012500Y5990339D01*
X7062905Y5891413D01*
X7141413Y5812905D01*
X7240339Y5762500D01*
X7350000Y5745131D01*
X7459661Y5762500D01*
X7558587Y5812905D01*
X7637095Y5891413D01*
X7687500Y5990339D01*
X7704869Y6100000D01*
X7687500Y6209661D01*
X7673907Y6236338D01*
X7664336Y6296767D01*
X7692111Y6351283D01*
X7703813Y6362984D01*
X7709434Y6375716D01*
X7750232Y6421312D01*
X7810040Y6434219D01*
X7866013Y6409508D01*
X7890562Y6375722D01*
X7896186Y6362986D01*
X7896187Y6362984D01*
X7972984Y6286187D01*
X8072338Y6242318D01*
X8096627Y6239500D01*
X8463372Y6239501D01*
X8487662Y6242318D01*
X8587016Y6286187D01*
X8663813Y6362984D01*
X8707682Y6462338D01*
X8707682Y6462341D01*
X8709072Y6465488D01*
X8749873Y6511084D01*
X8799637Y6524500D01*
X8966587Y6524500D01*
X9024778Y6505593D01*
X9060742Y6456093D01*
X9060742Y6394907D01*
X9036590Y6355496D01*
X8872264Y6191172D01*
X8872265Y6191171D01*
X8872264Y6191170D01*
X8872263Y6191171D01*
X8808830Y6127737D01*
X8805566Y6119856D01*
X8774499Y6044855D01*
X8774499Y5943623D01*
X8774500Y5943614D01*
X8774500Y5574413D01*
X8755593Y5516222D01*
X8745504Y5504409D01*
X5310591Y2069496D01*
X5256074Y2041719D01*
X5240587Y2040500D01*
X3782993Y2040500D01*
X3724802Y2059407D01*
X3688838Y2108907D01*
X3684840Y2152421D01*
X3692750Y2212500D01*
X3673830Y2356209D01*
X3618361Y2490125D01*
X3530121Y2605121D01*
X3415125Y2693361D01*
X3415121Y2693363D01*
X3281209Y2748830D01*
X3281208Y2748831D01*
X3137500Y2767750D01*
X2993791Y2748831D01*
X2993790Y2748830D01*
X2859878Y2693363D01*
X2859874Y2693361D01*
X2744881Y2605123D01*
X2744877Y2605119D01*
X2656639Y2490126D01*
X2656637Y2490122D01*
X2601170Y2356210D01*
X2601169Y2356209D01*
X2582250Y2212501D01*
X2582250Y2212500D01*
X2601169Y2068792D01*
X2601170Y2068791D01*
X2649912Y1951114D01*
X2656639Y1934875D01*
X2744879Y1819879D01*
X2744883Y1819876D01*
X2744884Y1819875D01*
X2749911Y1816018D01*
X2823267Y1759729D01*
X2857923Y1709306D01*
X2862000Y1681188D01*
X2862000Y-2442300D01*
X2903943Y-2543558D01*
X2903946Y-2543561D01*
X3343938Y-2983555D01*
X3343939Y-2983555D01*
X3343941Y-2983557D01*
X3373595Y-2995839D01*
X3373597Y-2995841D01*
X3373598Y-2995841D01*
X3409399Y-3010670D01*
X3445200Y-3025500D01*
X3445201Y-3025500D01*
X23554799Y-3025500D01*
X23554800Y-3025500D01*
X23656058Y-2983557D01*
X23733557Y-2906058D01*
X23733556Y-2906058D01*
X23983557Y-2656059D01*
X23998055Y-2621057D01*
X24025500Y-2554800D01*
X24025500Y-2263832D01*
X24044407Y-2205641D01*
X24093907Y-2169677D01*
X24155093Y-2169677D01*
X24201029Y-2201028D01*
X24209114Y-2210880D01*
X24209121Y-2210887D01*
X24361457Y-2335906D01*
X24361462Y-2335910D01*
X24535273Y-2428814D01*
X24723868Y-2486024D01*
X24723870Y-2486024D01*
X24723873Y-2486025D01*
X24919997Y-2505341D01*
X24920000Y-2505341D01*
X24920003Y-2505341D01*
X25116126Y-2486025D01*
X25116127Y-2486024D01*
X25116132Y-2486024D01*
X25304727Y-2428814D01*
X25478538Y-2335910D01*
X25630883Y-2210883D01*
X25755910Y-2058538D01*
X25848814Y-1884727D01*
X25906024Y-1696132D01*
X25909477Y-1661079D01*
X25925341Y-1500003D01*
X25925341Y-1499996D01*
X26454659Y-1499996D01*
X26454659Y-1500003D01*
X26473974Y-1696126D01*
X26473975Y-1696129D01*
X26531187Y-1884730D01*
X26531188Y-1884732D01*
X26602218Y-2017618D01*
X26624090Y-2058538D01*
X26624092Y-2058540D01*
X26624093Y-2058542D01*
X26749112Y-2210878D01*
X26749121Y-2210887D01*
X26901457Y-2335906D01*
X26901462Y-2335910D01*
X27075273Y-2428814D01*
X27263868Y-2486024D01*
X27263870Y-2486024D01*
X27263873Y-2486025D01*
X27459997Y-2505341D01*
X27460000Y-2505341D01*
X27460003Y-2505341D01*
X27656126Y-2486025D01*
X27656127Y-2486024D01*
X27656132Y-2486024D01*
X27844727Y-2428814D01*
X28018538Y-2335910D01*
X28170883Y-2210883D01*
X28295910Y-2058538D01*
X28388814Y-1884727D01*
X28446024Y-1696132D01*
X28449477Y-1661079D01*
X28465341Y-1500003D01*
X28465341Y-1499996D01*
X28446025Y-1303873D01*
X28446024Y-1303870D01*
X28446024Y-1303868D01*
X28388814Y-1115273D01*
X28295910Y-941462D01*
X28295906Y-941457D01*
X28170887Y-789121D01*
X28170878Y-789112D01*
X28018542Y-664093D01*
X28018540Y-664092D01*
X28018538Y-664090D01*
X27934009Y-618908D01*
X27844732Y-571188D01*
X27844730Y-571187D01*
X27656129Y-513975D01*
X27656126Y-513974D01*
X27460003Y-494659D01*
X27459997Y-494659D01*
X27263873Y-513974D01*
X27263870Y-513975D01*
X27075269Y-571187D01*
X27075267Y-571188D01*
X26901467Y-664087D01*
X26901457Y-664093D01*
X26749121Y-789112D01*
X26749112Y-789121D01*
X26624093Y-941457D01*
X26624087Y-941467D01*
X26531188Y-1115267D01*
X26531187Y-1115269D01*
X26473975Y-1303870D01*
X26473974Y-1303873D01*
X26454659Y-1499996D01*
X25925341Y-1499996D01*
X25906025Y-1303873D01*
X25906024Y-1303870D01*
X25906024Y-1303868D01*
X25848814Y-1115273D01*
X25829618Y-1079360D01*
X25818861Y-1019131D01*
X25845562Y-964079D01*
X25846871Y-962742D01*
X26483557Y-326058D01*
X26483935Y-325146D01*
X26525500Y-224800D01*
X26525500Y324908D01*
X26544407Y383099D01*
X26593907Y419063D01*
X26655093Y419063D01*
X26701028Y387713D01*
X26749112Y329122D01*
X26749121Y329113D01*
X26865554Y233559D01*
X26901462Y204090D01*
X27075273Y111186D01*
X27263868Y53976D01*
X27263870Y53976D01*
X27263873Y53975D01*
X27459997Y34659D01*
X27460000Y34659D01*
X27460003Y34659D01*
X27656126Y53975D01*
X27656127Y53976D01*
X27656132Y53976D01*
X27802647Y98421D01*
X30749500Y98421D01*
X30749500Y-98420D01*
X30780289Y-292821D01*
X30841116Y-480025D01*
X30909893Y-615010D01*
X30930476Y-655405D01*
X31046172Y-814646D01*
X31185354Y-953828D01*
X31344595Y-1069524D01*
X31519975Y-1158884D01*
X31707174Y-1219709D01*
X31707175Y-1219709D01*
X31707178Y-1219710D01*
X31901580Y-1250500D01*
X31901583Y-1250500D01*
X32098420Y-1250500D01*
X32292821Y-1219710D01*
X32292822Y-1219709D01*
X32292826Y-1219709D01*
X32480025Y-1158884D01*
X32655405Y-1069524D01*
X32814646Y-953828D01*
X32953828Y-814646D01*
X33069524Y-655405D01*
X33158884Y-480025D01*
X33219709Y-292826D01*
X33220064Y-290587D01*
X33250500Y-98420D01*
X33250500Y98421D01*
X33219710Y292822D01*
X33219709Y292826D01*
X33158884Y480025D01*
X33069524Y655405D01*
X32953828Y814646D01*
X32814646Y953828D01*
X32655405Y1069524D01*
X32655404Y1069525D01*
X32655402Y1069526D01*
X32480025Y1158884D01*
X32292821Y1219711D01*
X32098420Y1250500D01*
X32098417Y1250500D01*
X31901583Y1250500D01*
X31901580Y1250500D01*
X31707178Y1219711D01*
X31519974Y1158884D01*
X31344597Y1069526D01*
X31185355Y953829D01*
X31046171Y814645D01*
X30930474Y655403D01*
X30841116Y480026D01*
X30780289Y292822D01*
X30749500Y98421D01*
X27802647Y98421D01*
X27844727Y111186D01*
X28018538Y204090D01*
X28170883Y329117D01*
X28295910Y481462D01*
X28388814Y655273D01*
X28446024Y843868D01*
X28465341Y1040000D01*
X28465341Y1040004D01*
X28446025Y1236127D01*
X28446024Y1236130D01*
X28446024Y1236132D01*
X28388814Y1424727D01*
X28380860Y1439607D01*
X28363572Y1471952D01*
X28295910Y1598538D01*
X28291043Y1604468D01*
X28170887Y1750879D01*
X28170878Y1750888D01*
X28018542Y1875907D01*
X28018540Y1875908D01*
X28018538Y1875910D01*
X27964451Y1904820D01*
X27844732Y1968812D01*
X27844730Y1968813D01*
X27842709Y1969426D01*
X27737042Y2001480D01*
X27656129Y2026025D01*
X27656126Y2026026D01*
X27460003Y2045341D01*
X27459997Y2045341D01*
X27263873Y2026026D01*
X27263870Y2026025D01*
X27075269Y1968813D01*
X27075267Y1968812D01*
X26901467Y1875913D01*
X26901457Y1875907D01*
X26749121Y1750888D01*
X26749112Y1750879D01*
X26701028Y1692288D01*
X26649496Y1659301D01*
X26588417Y1662903D01*
X26541120Y1701719D01*
X26525500Y1755093D01*
X26525500Y4719455D01*
X26544407Y4777646D01*
X26593907Y4813610D01*
X26655093Y4813610D01*
X26684768Y4797996D01*
X26722369Y4769143D01*
X26722371Y4769142D01*
X26722375Y4769139D01*
X26856291Y4713670D01*
X27000000Y4694750D01*
X27143709Y4713670D01*
X27277625Y4769139D01*
X27358291Y4831038D01*
X27392615Y4857374D01*
X27392616Y4857376D01*
X27392621Y4857379D01*
X27392624Y4857384D01*
X27394479Y4859238D01*
X27396164Y4860098D01*
X27397770Y4861329D01*
X27397998Y4861032D01*
X27448991Y4887024D01*
X27504480Y4879810D01*
X27519357Y4873242D01*
X27545009Y4861915D01*
X27570135Y4859000D01*
X27575538Y4859001D01*
X27633728Y4840101D01*
X27669698Y4790605D01*
X27669705Y4729420D01*
X27645551Y4689998D01*
X27559732Y4604179D01*
X27559724Y4604169D01*
X27488538Y4497634D01*
X27488534Y4497626D01*
X27439500Y4379248D01*
X27439499Y4379245D01*
X27439499Y4379244D01*
X27433638Y4349778D01*
X27417007Y4266170D01*
X27414500Y4253569D01*
X27414500Y4125431D01*
X27429457Y4050237D01*
X27439499Y3999758D01*
X27439500Y3999753D01*
X27488534Y3881375D01*
X27488538Y3881367D01*
X27509832Y3849499D01*
X27559724Y3774831D01*
X27650331Y3684224D01*
X27710965Y3643710D01*
X27756866Y3613039D01*
X27756870Y3613037D01*
X27756873Y3613035D01*
X27875256Y3563999D01*
X28000931Y3539000D01*
X28000932Y3539000D01*
X29229068Y3539000D01*
X29229069Y3539000D01*
X29354744Y3563999D01*
X29473127Y3613035D01*
X29579669Y3684224D01*
X29670276Y3774831D01*
X29741465Y3881373D01*
X29790501Y3999756D01*
X29815500Y4125431D01*
X29815500Y4253569D01*
X31744500Y4253569D01*
X31744500Y4125431D01*
X31759457Y4050237D01*
X31769499Y3999758D01*
X31769500Y3999753D01*
X31818534Y3881375D01*
X31818538Y3881367D01*
X31839832Y3849499D01*
X31889724Y3774831D01*
X31980331Y3684224D01*
X32040965Y3643710D01*
X32086866Y3613039D01*
X32086870Y3613037D01*
X32086873Y3613035D01*
X32205256Y3563999D01*
X32330931Y3539000D01*
X32330932Y3539000D01*
X33259068Y3539000D01*
X33259069Y3539000D01*
X33384744Y3563999D01*
X33503127Y3613035D01*
X33609669Y3684224D01*
X33700276Y3774831D01*
X33771465Y3881373D01*
X33820501Y3999756D01*
X33845500Y4125431D01*
X33845500Y4253569D01*
X33820501Y4379244D01*
X33771465Y4497627D01*
X33771463Y4497630D01*
X33771461Y4497634D01*
X33725665Y4566171D01*
X33700276Y4604169D01*
X33609669Y4694776D01*
X33546454Y4737015D01*
X33503133Y4765962D01*
X33503125Y4765966D01*
X33384747Y4815000D01*
X33384745Y4815001D01*
X33384744Y4815001D01*
X33259069Y4840000D01*
X32330931Y4840000D01*
X32330930Y4840000D01*
X32269242Y4827729D01*
X32205256Y4815001D01*
X32205255Y4815001D01*
X32205252Y4815000D01*
X32086874Y4765966D01*
X32086866Y4765962D01*
X31980331Y4694776D01*
X31980327Y4694773D01*
X31889727Y4604173D01*
X31889724Y4604169D01*
X31818538Y4497634D01*
X31818534Y4497626D01*
X31769500Y4379248D01*
X31769499Y4379245D01*
X31769499Y4379244D01*
X31763638Y4349778D01*
X31747007Y4266170D01*
X31744500Y4253569D01*
X29815500Y4253569D01*
X29790501Y4379244D01*
X29741465Y4497627D01*
X29741463Y4497630D01*
X29741461Y4497634D01*
X29695665Y4566171D01*
X29670276Y4604169D01*
X29579669Y4694776D01*
X29516454Y4737015D01*
X29473133Y4765962D01*
X29473125Y4765966D01*
X29354747Y4815000D01*
X29354745Y4815001D01*
X29354744Y4815001D01*
X29229069Y4840000D01*
X28804350Y4840000D01*
X28746159Y4858907D01*
X28710195Y4908407D01*
X28710195Y4969593D01*
X28713785Y4978988D01*
X28717206Y4986735D01*
X28762585Y5089509D01*
X28765272Y5112675D01*
X28790758Y5168296D01*
X28844072Y5198317D01*
X28904850Y5191266D01*
X28913110Y5187002D01*
X28931464Y5176405D01*
X29052399Y5144000D01*
X29052401Y5144000D01*
X29177599Y5144000D01*
X29177601Y5144000D01*
X29298536Y5176405D01*
X29406964Y5239005D01*
X29495495Y5327536D01*
X29558095Y5435964D01*
X29590500Y5556899D01*
X29590500Y5682101D01*
X29558095Y5803036D01*
X29495495Y5911464D01*
X29406964Y5999995D01*
X29298536Y6062595D01*
X29298533Y6062596D01*
X29298532Y6062597D01*
X29191027Y6091403D01*
X29139713Y6124727D01*
X29117787Y6181848D01*
X29133623Y6240949D01*
X29146647Y6257033D01*
X29594110Y6704496D01*
X30233557Y7343942D01*
X30241855Y7363976D01*
X30251490Y7387235D01*
X30262156Y7412986D01*
X30275500Y7445200D01*
X30275500Y9579299D01*
X30233557Y9680557D01*
X30233557Y9680558D01*
X29150983Y10763131D01*
X29123207Y10817647D01*
X29132778Y10878079D01*
X29176043Y10921344D01*
X29195355Y10928758D01*
X29298536Y10956405D01*
X29406964Y11019005D01*
X29495495Y11107536D01*
X29558095Y11215964D01*
X29590500Y11336899D01*
X29590500Y11462101D01*
X29558095Y11583036D01*
X29495495Y11691464D01*
X29406964Y11779995D01*
X29298536Y11842595D01*
X29177601Y11875000D01*
X29052399Y11875000D01*
X28931464Y11842595D01*
X28931462Y11842595D01*
X28931462Y11842594D01*
X28913109Y11831998D01*
X28853260Y11819279D01*
X28797365Y11844166D01*
X28766774Y11897155D01*
X28765271Y11906323D01*
X28762585Y11929491D01*
X28717206Y12032265D01*
X28717205Y12032266D01*
X28713785Y12040012D01*
X28707577Y12100881D01*
X28738333Y12153775D01*
X28794305Y12178489D01*
X28804350Y12179000D01*
X29229068Y12179000D01*
X29229069Y12179000D01*
X29354744Y12203999D01*
X29473127Y12253035D01*
X29579669Y12324224D01*
X29670276Y12414831D01*
X29741465Y12521373D01*
X29790501Y12639756D01*
X29815500Y12765431D01*
X29815500Y12893569D01*
X31744500Y12893569D01*
X31744500Y12765431D01*
X31769008Y12642222D01*
X31769499Y12639758D01*
X31769500Y12639753D01*
X31818534Y12521375D01*
X31818538Y12521367D01*
X31854556Y12467464D01*
X31889724Y12414831D01*
X31980331Y12324224D01*
X32024969Y12294398D01*
X32086866Y12253039D01*
X32086870Y12253037D01*
X32086873Y12253035D01*
X32205256Y12203999D01*
X32330931Y12179000D01*
X32330932Y12179000D01*
X33259068Y12179000D01*
X33259069Y12179000D01*
X33384744Y12203999D01*
X33503127Y12253035D01*
X33609669Y12324224D01*
X33700276Y12414831D01*
X33771465Y12521373D01*
X33820501Y12639756D01*
X33845500Y12765431D01*
X33845500Y12893569D01*
X33820501Y13019244D01*
X33771465Y13137627D01*
X33771461Y13137634D01*
X33728425Y13202041D01*
X33700276Y13244169D01*
X33609669Y13334776D01*
X33546894Y13376721D01*
X33503133Y13405962D01*
X33503125Y13405966D01*
X33384747Y13455000D01*
X33384745Y13455001D01*
X33384744Y13455001D01*
X33259069Y13480000D01*
X32330931Y13480000D01*
X32330930Y13480000D01*
X32275556Y13468985D01*
X32205256Y13455001D01*
X32205255Y13455001D01*
X32205252Y13455000D01*
X32086874Y13405966D01*
X32086866Y13405962D01*
X31980331Y13334776D01*
X31980327Y13334773D01*
X31889727Y13244173D01*
X31889724Y13244169D01*
X31818538Y13137634D01*
X31818535Y13137627D01*
X31769500Y13019248D01*
X31769499Y13019245D01*
X31769499Y13019244D01*
X31744500Y12893569D01*
X29815500Y12893569D01*
X29790501Y13019244D01*
X29741465Y13137627D01*
X29741461Y13137634D01*
X29698425Y13202041D01*
X29670276Y13244169D01*
X29579669Y13334776D01*
X29516894Y13376721D01*
X29473133Y13405962D01*
X29473125Y13405966D01*
X29354747Y13455000D01*
X29354745Y13455001D01*
X29354744Y13455001D01*
X29229069Y13480000D01*
X28000931Y13480000D01*
X28000930Y13480000D01*
X27945556Y13468985D01*
X27875256Y13455001D01*
X27875255Y13455001D01*
X27875252Y13455000D01*
X27756874Y13405966D01*
X27756866Y13405962D01*
X27650331Y13334776D01*
X27650327Y13334773D01*
X27559727Y13244173D01*
X27559724Y13244169D01*
X27488538Y13137634D01*
X27488535Y13137627D01*
X27439500Y13019248D01*
X27439499Y13019245D01*
X27439499Y13019244D01*
X27414500Y12893569D01*
X27414500Y12765431D01*
X27439008Y12642222D01*
X27439499Y12639758D01*
X27439500Y12639753D01*
X27488534Y12521375D01*
X27488538Y12521367D01*
X27524556Y12467464D01*
X27559724Y12414831D01*
X27559727Y12414828D01*
X27645551Y12329004D01*
X27673328Y12274487D01*
X27663757Y12214055D01*
X27620492Y12170790D01*
X27575559Y12160000D01*
X27570145Y12160000D01*
X27570136Y12159999D01*
X27545009Y12157086D01*
X27442235Y12111706D01*
X27362792Y12032263D01*
X27361913Y12030979D01*
X27360159Y12029630D01*
X27356308Y12025778D01*
X27355806Y12026280D01*
X27313426Y11993661D01*
X27252264Y11991970D01*
X27242361Y11995468D01*
X27143709Y12036330D01*
X27143706Y12036331D01*
X27143705Y12036331D01*
X27000000Y12055250D01*
X26856291Y12036331D01*
X26856290Y12036330D01*
X26722378Y11980863D01*
X26722370Y11980858D01*
X26684767Y11952004D01*
X26627091Y11931580D01*
X26568426Y11948958D01*
X26531178Y11997499D01*
X26525500Y12030546D01*
X26525500Y12054800D01*
X26492777Y12133801D01*
X26483558Y12156058D01*
X26156061Y12483554D01*
X26156058Y12483557D01*
X26054800Y12525500D01*
X22695200Y12525500D01*
X22695199Y12525500D01*
X22623599Y12495843D01*
X22623599Y12495842D01*
X22593941Y12483557D01*
X22593939Y12483556D01*
X22238524Y12128141D01*
X22184008Y12100364D01*
X22123576Y12109935D01*
X22080311Y12153200D01*
X22079581Y12154663D01*
X22078899Y12156058D01*
X22075683Y12162636D01*
X22067112Y12223215D01*
X22095786Y12277266D01*
X22097786Y12278880D01*
X22138761Y12319855D01*
X22166170Y12347264D01*
X22166170Y12347265D01*
X22180076Y12361171D01*
X22180085Y12361181D01*
X24077734Y14258830D01*
X24077736Y14258830D01*
X24141170Y14322264D01*
X24162807Y14374500D01*
X24175501Y14405146D01*
X24175501Y14494855D01*
X24175501Y14502829D01*
X24175500Y14502843D01*
X24175500Y15115588D01*
X24194407Y15173779D01*
X24204497Y15185592D01*
X24264410Y15245504D01*
X24318927Y15273281D01*
X24334413Y15274500D01*
X26000500Y15274500D01*
X26058691Y15255593D01*
X26094655Y15206093D01*
X26099500Y15175500D01*
X26099500Y15145726D01*
X26102353Y15115306D01*
X26102355Y15115297D01*
X26147207Y14987117D01*
X26227845Y14877856D01*
X26227847Y14877854D01*
X26227850Y14877850D01*
X26227853Y14877848D01*
X26227855Y14877846D01*
X26337116Y14797208D01*
X26337117Y14797208D01*
X26337118Y14797207D01*
X26465301Y14752354D01*
X26495725Y14749501D01*
X26495727Y14749500D01*
X26495734Y14749500D01*
X27504273Y14749500D01*
X27504273Y14749501D01*
X27534699Y14752354D01*
X27662882Y14797207D01*
X27772150Y14877850D01*
X27852793Y14987118D01*
X27897646Y15115301D01*
X27900499Y15145727D01*
X27900500Y15145727D01*
X27900500Y15854273D01*
X27900499Y15854275D01*
X27897646Y15884695D01*
X27897646Y15884699D01*
X27852793Y16012882D01*
X27843690Y16025216D01*
X27772154Y16122145D01*
X27772152Y16122147D01*
X27772150Y16122150D01*
X27772146Y16122153D01*
X27772144Y16122155D01*
X27662883Y16202793D01*
X27534703Y16247645D01*
X27534694Y16247647D01*
X27504274Y16250500D01*
X27504266Y16250500D01*
X26495734Y16250500D01*
X26495725Y16250500D01*
X26465305Y16247647D01*
X26465296Y16247645D01*
X26337116Y16202793D01*
X26227855Y16122155D01*
X26227845Y16122145D01*
X26147207Y16012884D01*
X26102355Y15884704D01*
X26102353Y15884695D01*
X26099500Y15854275D01*
X26099500Y15824500D01*
X26080593Y15766309D01*
X26031093Y15730345D01*
X26000500Y15725500D01*
X24155143Y15725500D01*
X24072264Y15691171D01*
X23920002Y15538910D01*
X23865485Y15511133D01*
X23805053Y15520705D01*
X23779998Y15538908D01*
X23777736Y15541170D01*
X23777734Y15541171D01*
X23691170Y15627735D01*
X23691170Y15627736D01*
X23627736Y15691170D01*
X23603460Y15701226D01*
X23603458Y15701227D01*
X23603458Y15701228D01*
X23564876Y15717208D01*
X23544855Y15725501D01*
X23455145Y15725501D01*
X23443622Y15725501D01*
X23443614Y15725500D01*
X21499500Y15725500D01*
X21441309Y15744407D01*
X21405345Y15793907D01*
X21400500Y15824500D01*
X21400500Y15854273D01*
X21400499Y15854275D01*
X21397646Y15884695D01*
X21397646Y15884699D01*
X21352793Y16012882D01*
X21343690Y16025216D01*
X21272154Y16122145D01*
X21272152Y16122147D01*
X21272150Y16122150D01*
X21272146Y16122153D01*
X21272144Y16122155D01*
X21162883Y16202793D01*
X21034703Y16247645D01*
X21034694Y16247647D01*
X21004274Y16250500D01*
X21004266Y16250500D01*
X19995734Y16250500D01*
X19995725Y16250500D01*
X19965305Y16247647D01*
X19965296Y16247645D01*
X19837118Y16202794D01*
X19783288Y16163065D01*
X19725240Y16143724D01*
X19666909Y16162196D01*
X19630577Y16211426D01*
X19625500Y16242721D01*
X19625500Y17257280D01*
X19644407Y17315471D01*
X19693907Y17351435D01*
X19755093Y17351435D01*
X19783288Y17336935D01*
X19837116Y17297208D01*
X19837117Y17297208D01*
X19837118Y17297207D01*
X19965301Y17252354D01*
X19995725Y17249501D01*
X19995727Y17249500D01*
X19995734Y17249500D01*
X21004273Y17249500D01*
X21004273Y17249501D01*
X21034699Y17252354D01*
X21162882Y17297207D01*
X21272150Y17377850D01*
X21352793Y17487118D01*
X21397646Y17615301D01*
X21400499Y17645727D01*
X21400500Y17645727D01*
X21400500Y17675500D01*
X21419407Y17733691D01*
X21468907Y17769655D01*
X21499500Y17774500D01*
X22665587Y17774500D01*
X22723778Y17755593D01*
X22735591Y17745504D01*
X23016135Y17464960D01*
X23043912Y17410443D01*
X23044341Y17404983D01*
X23058360Y17316477D01*
X23062500Y17290339D01*
X23112905Y17191413D01*
X23191413Y17112905D01*
X23290339Y17062500D01*
X23400000Y17045131D01*
X23509661Y17062500D01*
X23608587Y17112905D01*
X23687095Y17191413D01*
X23711791Y17239883D01*
X23755055Y17283146D01*
X23815487Y17292717D01*
X23870004Y17264939D01*
X23888208Y17239884D01*
X23912905Y17191413D01*
X23991413Y17112905D01*
X24090339Y17062500D01*
X24200000Y17045131D01*
X24309661Y17062500D01*
X24408587Y17112905D01*
X24487095Y17191413D01*
X24537500Y17290339D01*
X24554869Y17400000D01*
X24556088Y17407696D01*
X24558864Y17407257D01*
X24573776Y17453149D01*
X24583866Y17464962D01*
X24723774Y17604869D01*
X24864409Y17745504D01*
X24918925Y17773281D01*
X24934412Y17774500D01*
X26000500Y17774500D01*
X26058691Y17755593D01*
X26094655Y17706093D01*
X26099500Y17675500D01*
X26099500Y17645726D01*
X26102353Y17615306D01*
X26102355Y17615297D01*
X26147207Y17487117D01*
X26227845Y17377856D01*
X26227847Y17377854D01*
X26227850Y17377850D01*
X26227853Y17377848D01*
X26227855Y17377846D01*
X26337116Y17297208D01*
X26337117Y17297208D01*
X26337118Y17297207D01*
X26465301Y17252354D01*
X26495725Y17249501D01*
X26495727Y17249500D01*
X26495734Y17249500D01*
X27504273Y17249500D01*
X27504273Y17249501D01*
X27534699Y17252354D01*
X27662882Y17297207D01*
X27772150Y17377850D01*
X27852793Y17487118D01*
X27897646Y17615301D01*
X27900499Y17645727D01*
X27900500Y17645727D01*
X27900500Y18354273D01*
X27900499Y18354275D01*
X27900066Y18358894D01*
X27897646Y18384699D01*
X27852793Y18512882D01*
X27850792Y18515593D01*
X27813065Y18566712D01*
X27793723Y18624759D01*
X27812194Y18683090D01*
X27861424Y18719423D01*
X27892720Y18724500D01*
X28755587Y18724500D01*
X28813778Y18705593D01*
X28825590Y18695505D01*
X31742264Y15778830D01*
X31742265Y15778830D01*
X31742266Y15778829D01*
X31825143Y15744500D01*
X31825145Y15744500D01*
X31914854Y15744500D01*
X32449462Y15744500D01*
X32507653Y15725593D01*
X32543617Y15676093D01*
X32544191Y15674262D01*
X32565022Y15605593D01*
X32571186Y15585273D01*
X32571188Y15585268D01*
X32623420Y15487550D01*
X32664090Y15411462D01*
X32664092Y15411460D01*
X32664093Y15411458D01*
X32789112Y15259122D01*
X32789121Y15259113D01*
X32941457Y15134094D01*
X32941462Y15134090D01*
X33115273Y15041186D01*
X33303868Y14983976D01*
X33303870Y14983976D01*
X33303873Y14983975D01*
X33499997Y14964659D01*
X33500000Y14964659D01*
X33500003Y14964659D01*
X33696126Y14983975D01*
X33696127Y14983976D01*
X33696132Y14983976D01*
X33884727Y15041186D01*
X34058538Y15134090D01*
X34210883Y15259117D01*
X34335910Y15411462D01*
X34428814Y15585273D01*
X34486024Y15773868D01*
X34492012Y15834661D01*
X34505341Y15969997D01*
X34505341Y15970004D01*
X34486025Y16166127D01*
X34486024Y16166130D01*
X34486024Y16166132D01*
X34428814Y16354727D01*
X34426783Y16358526D01*
X34382748Y16440910D01*
X34335910Y16528538D01*
X34335906Y16528543D01*
X34210887Y16680879D01*
X34210878Y16680888D01*
X34058542Y16805907D01*
X34058540Y16805908D01*
X34058538Y16805910D01*
X33999437Y16837500D01*
X33884732Y16898812D01*
X33884730Y16898813D01*
X33874817Y16901820D01*
X33696132Y16956024D01*
X33696129Y16956025D01*
X33696126Y16956026D01*
X33500003Y16975341D01*
X33499997Y16975341D01*
X33303873Y16956026D01*
X33303870Y16956025D01*
X33115269Y16898813D01*
X33115267Y16898812D01*
X32941467Y16805913D01*
X32941457Y16805907D01*
X32789121Y16680888D01*
X32789112Y16680879D01*
X32664093Y16528543D01*
X32664087Y16528533D01*
X32571188Y16354733D01*
X32571186Y16354728D01*
X32563014Y16327789D01*
X32546850Y16274500D01*
X32544199Y16265762D01*
X32509214Y16215565D01*
X32451406Y16195519D01*
X32449462Y16195500D01*
X32004414Y16195500D01*
X31946223Y16214407D01*
X31934410Y16224496D01*
X29081170Y19077735D01*
X29081170Y19077736D01*
X29053407Y19105499D01*
X29025632Y19160013D01*
X29035203Y19220445D01*
X29078468Y19263710D01*
X29123413Y19274500D01*
X32375588Y19274500D01*
X32433779Y19255593D01*
X32445592Y19245503D01*
X32597704Y19093390D01*
X32625481Y19038874D01*
X32615909Y18978442D01*
X32615011Y18976720D01*
X32571187Y18894730D01*
X32513975Y18706130D01*
X32513974Y18706127D01*
X32494659Y18510004D01*
X32494659Y18509997D01*
X32513974Y18313874D01*
X32513975Y18313871D01*
X32571187Y18125270D01*
X32571188Y18125268D01*
X32603221Y18065339D01*
X32664090Y17951462D01*
X32664092Y17951460D01*
X32664093Y17951458D01*
X32789112Y17799122D01*
X32789121Y17799113D01*
X32887334Y17718512D01*
X32941462Y17674090D01*
X33064009Y17608587D01*
X33094547Y17592264D01*
X33115273Y17581186D01*
X33303868Y17523976D01*
X33303870Y17523976D01*
X33303873Y17523975D01*
X33499997Y17504659D01*
X33500000Y17504659D01*
X33500003Y17504659D01*
X33696126Y17523975D01*
X33696127Y17523976D01*
X33696132Y17523976D01*
X33884727Y17581186D01*
X34058538Y17674090D01*
X34210883Y17799117D01*
X34335910Y17951462D01*
X34428814Y18125273D01*
X34486024Y18313868D01*
X34486593Y18319637D01*
X34505341Y18509997D01*
X34505341Y18510004D01*
X34486025Y18706127D01*
X34486024Y18706130D01*
X34486024Y18706132D01*
X34428814Y18894727D01*
X34424785Y18902264D01*
X34394193Y18959498D01*
X34335910Y19068538D01*
X34321214Y19086445D01*
X34210887Y19220879D01*
X34210878Y19220888D01*
X34058542Y19345907D01*
X34058540Y19345908D01*
X34058538Y19345910D01*
X33986839Y19384234D01*
X33884732Y19438812D01*
X33884730Y19438813D01*
X33874817Y19441820D01*
X33713884Y19490639D01*
X33696129Y19496025D01*
X33696126Y19496026D01*
X33500003Y19515341D01*
X33499997Y19515341D01*
X33303873Y19496026D01*
X33303870Y19496025D01*
X33166854Y19454461D01*
X33125183Y19441820D01*
X33115270Y19438813D01*
X33033280Y19394989D01*
X32973048Y19384234D01*
X32917997Y19410936D01*
X32916610Y19412296D01*
X32715095Y19613810D01*
X32701170Y19627735D01*
X32701170Y19627736D01*
X32637736Y19691170D01*
X32629413Y19694618D01*
X32613458Y19701227D01*
X32613458Y19701228D01*
X32579128Y19715447D01*
X32554855Y19725501D01*
X32465145Y19725501D01*
X32453622Y19725501D01*
X32453614Y19725500D01*
X27855819Y19725500D01*
X27797628Y19744407D01*
X27761664Y19793907D01*
X27761664Y19855093D01*
X27776164Y19883288D01*
X27852792Y19987117D01*
X27852791Y19987117D01*
X27852793Y19987118D01*
X27897646Y20115301D01*
X27900499Y20145727D01*
X27900500Y20145727D01*
X27900500Y20854273D01*
X27900499Y20854275D01*
X27900072Y20858831D01*
X27897646Y20884699D01*
X27852793Y21012882D01*
X27835593Y21036187D01*
X27772154Y21122145D01*
X27772152Y21122147D01*
X27772150Y21122150D01*
X27772146Y21122153D01*
X27772144Y21122155D01*
X27662883Y21202793D01*
X27534703Y21247645D01*
X27534694Y21247647D01*
X27504274Y21250500D01*
X27504266Y21250500D01*
X26495734Y21250500D01*
X26495725Y21250500D01*
X26465305Y21247647D01*
X26465296Y21247645D01*
X26337116Y21202793D01*
X26227855Y21122155D01*
X26227845Y21122145D01*
X26147207Y21012884D01*
X26102355Y20884704D01*
X26102353Y20884695D01*
X26099500Y20854275D01*
X26099500Y20824500D01*
X26080593Y20766309D01*
X26031093Y20730345D01*
X26000500Y20725500D01*
X23884414Y20725500D01*
X23826223Y20744407D01*
X23814410Y20754496D01*
X23754496Y20814410D01*
X23726719Y20868927D01*
X23725500Y20884414D01*
X23725500Y25010636D01*
X24037500Y25010636D01*
X24037500Y24489364D01*
X24048134Y24416375D01*
X24103174Y24303789D01*
X24191789Y24215174D01*
X24304375Y24160134D01*
X24377364Y24149500D01*
X24377367Y24149500D01*
X25498632Y24149500D01*
X25498636Y24149500D01*
X25571625Y24160134D01*
X25684211Y24215174D01*
X25772826Y24303789D01*
X25827866Y24416375D01*
X25831275Y24439775D01*
X25858373Y24494629D01*
X25912540Y24523081D01*
X25929240Y24524500D01*
X26015588Y24524500D01*
X26073779Y24505593D01*
X26085592Y24495503D01*
X26422265Y24158829D01*
X26505143Y24124500D01*
X26505145Y24124500D01*
X26594854Y24124500D01*
X28515587Y24124500D01*
X28573778Y24105593D01*
X28585591Y24095504D01*
X28761591Y23919504D01*
X28789368Y23864987D01*
X28779797Y23804555D01*
X28736532Y23761290D01*
X28691588Y23750500D01*
X28511602Y23750500D01*
X28511595Y23750499D01*
X28434883Y23735241D01*
X28434881Y23735240D01*
X28347890Y23677114D01*
X28347885Y23677109D01*
X28285475Y23583706D01*
X28237425Y23545827D01*
X28176287Y23543425D01*
X28158214Y23550499D01*
X28149017Y23555185D01*
X28134661Y23562500D01*
X28134663Y23562500D01*
X28025000Y23579869D01*
X27915338Y23562500D01*
X27886361Y23547735D01*
X27850629Y23529529D01*
X27790198Y23519958D01*
X27735681Y23547735D01*
X27717147Y23582425D01*
X27713971Y23581109D01*
X27710239Y23590119D01*
X27652113Y23677110D01*
X27652112Y23677112D01*
X27565117Y23735240D01*
X27565113Y23735241D01*
X27488410Y23750499D01*
X27488402Y23750500D01*
X27488401Y23750500D01*
X27488400Y23750500D01*
X27211602Y23750500D01*
X27211595Y23750499D01*
X27134883Y23735241D01*
X27134881Y23735240D01*
X27047890Y23677114D01*
X27047886Y23677110D01*
X26989762Y23590121D01*
X26989759Y23590114D01*
X26982811Y23555185D01*
X26952914Y23501801D01*
X26897349Y23476186D01*
X26885714Y23475500D01*
X25929240Y23475500D01*
X25871049Y23494407D01*
X25835085Y23543907D01*
X25831276Y23560220D01*
X25827866Y23583625D01*
X25772826Y23696211D01*
X25684211Y23784826D01*
X25571625Y23839866D01*
X25571626Y23839866D01*
X25553377Y23842525D01*
X25498636Y23850500D01*
X24377364Y23850500D01*
X24336154Y23844496D01*
X24304373Y23839866D01*
X24191790Y23784827D01*
X24103173Y23696210D01*
X24048134Y23583627D01*
X24048134Y23583625D01*
X24037500Y23510636D01*
X24037500Y22989364D01*
X24043991Y22944814D01*
X24048134Y22916374D01*
X24095783Y22818907D01*
X24103174Y22803789D01*
X24191789Y22715174D01*
X24304375Y22660134D01*
X24377364Y22649500D01*
X24377367Y22649500D01*
X25498632Y22649500D01*
X25498636Y22649500D01*
X25571625Y22660134D01*
X25684211Y22715174D01*
X25772826Y22803789D01*
X25827866Y22916375D01*
X25831275Y22939775D01*
X25858373Y22994629D01*
X25912540Y23023081D01*
X25929240Y23024500D01*
X26885714Y23024500D01*
X26943905Y23005593D01*
X26979869Y22956093D01*
X26982812Y22944814D01*
X26989634Y22910514D01*
X26989760Y22909884D01*
X26989760Y22909882D01*
X27010622Y22878660D01*
X27047888Y22822888D01*
X27134883Y22764760D01*
X27184816Y22754828D01*
X27238198Y22724932D01*
X27263814Y22669367D01*
X27264500Y22657731D01*
X27264500Y22446640D01*
X27245593Y22388449D01*
X27205489Y22356076D01*
X27190860Y22349617D01*
X27115383Y22274140D01*
X27072269Y22176499D01*
X27072269Y22176498D01*
X27069500Y22152628D01*
X27069500Y21697381D01*
X27069501Y21697378D01*
X27072270Y21673500D01*
X27100957Y21608533D01*
X27115384Y21575859D01*
X27190859Y21500384D01*
X27239680Y21478827D01*
X27288501Y21457270D01*
X27292749Y21456778D01*
X27312377Y21454500D01*
X27667622Y21454501D01*
X27691498Y21457270D01*
X27789141Y21500384D01*
X27864616Y21575859D01*
X27907730Y21673502D01*
X27907730Y21673506D01*
X27909434Y21677364D01*
X27950235Y21722960D01*
X28010044Y21735865D01*
X28066016Y21711151D01*
X28090563Y21677365D01*
X28135382Y21575862D01*
X28135383Y21575861D01*
X28135384Y21575859D01*
X28210859Y21500384D01*
X28259680Y21478827D01*
X28308501Y21457270D01*
X28312749Y21456778D01*
X28332377Y21454500D01*
X28687622Y21454501D01*
X28711498Y21457270D01*
X28809141Y21500384D01*
X28884616Y21575859D01*
X28927730Y21673502D01*
X28930500Y21697377D01*
X28930499Y22152622D01*
X28927730Y22176498D01*
X28884616Y22274141D01*
X28878289Y22280468D01*
X28863455Y22295303D01*
X28835679Y22349820D01*
X28838242Y22382334D01*
X28836281Y22382644D01*
X28838536Y22396877D01*
X28854869Y22500000D01*
X28837500Y22609661D01*
X28837499Y22609663D01*
X28837499Y22609664D01*
X28825499Y22633214D01*
X28815925Y22693645D01*
X28843702Y22748163D01*
X28858706Y22760477D01*
X28865115Y22764760D01*
X28865117Y22764760D01*
X28952112Y22822888D01*
X29010240Y22909883D01*
X29025500Y22986599D01*
X29025499Y23416589D01*
X29044406Y23474779D01*
X29093906Y23510743D01*
X29155091Y23510743D01*
X29194503Y23486592D01*
X31758829Y20922266D01*
X31758830Y20922264D01*
X31822264Y20858830D01*
X31856595Y20844610D01*
X31905146Y20824499D01*
X31905147Y20824499D01*
X32006378Y20824499D01*
X32006386Y20824500D01*
X32449462Y20824500D01*
X32507653Y20805593D01*
X32543617Y20756093D01*
X32544191Y20754262D01*
X32559091Y20705145D01*
X32571186Y20665273D01*
X32571188Y20665268D01*
X32600146Y20611092D01*
X32664090Y20491462D01*
X32664092Y20491460D01*
X32664093Y20491458D01*
X32789112Y20339122D01*
X32789121Y20339113D01*
X32909669Y20240182D01*
X32941462Y20214090D01*
X33115273Y20121186D01*
X33303868Y20063976D01*
X33303870Y20063976D01*
X33303873Y20063975D01*
X33499997Y20044659D01*
X33500000Y20044659D01*
X33500003Y20044659D01*
X33696126Y20063975D01*
X33696127Y20063976D01*
X33696132Y20063976D01*
X33884727Y20121186D01*
X34058538Y20214090D01*
X34210883Y20339117D01*
X34335910Y20491462D01*
X34428814Y20665273D01*
X34486024Y20853868D01*
X34486064Y20854266D01*
X34505341Y21049997D01*
X34505341Y21050004D01*
X34486025Y21246127D01*
X34486024Y21246130D01*
X34486024Y21246132D01*
X34428814Y21434727D01*
X34420650Y21450000D01*
X34406942Y21475647D01*
X34335910Y21608538D01*
X34335906Y21608543D01*
X34210887Y21760879D01*
X34210878Y21760888D01*
X34058542Y21885907D01*
X34058540Y21885908D01*
X34058538Y21885910D01*
X33986306Y21924519D01*
X33884732Y21978812D01*
X33884730Y21978813D01*
X33880820Y21979999D01*
X33696132Y22036024D01*
X33696129Y22036025D01*
X33696126Y22036026D01*
X33500003Y22055341D01*
X33499997Y22055341D01*
X33303873Y22036026D01*
X33303870Y22036025D01*
X33115269Y21978813D01*
X33115267Y21978812D01*
X32941467Y21885913D01*
X32941457Y21885907D01*
X32789121Y21760888D01*
X32789112Y21760879D01*
X32664093Y21608543D01*
X32664087Y21608533D01*
X32571188Y21434733D01*
X32571186Y21434728D01*
X32544199Y21345762D01*
X32509214Y21295565D01*
X32451406Y21275519D01*
X32449462Y21275500D01*
X32084413Y21275500D01*
X32026222Y21294407D01*
X32014409Y21304496D01*
X28841170Y24477735D01*
X28841170Y24477736D01*
X28777736Y24541170D01*
X28753460Y24551226D01*
X28753458Y24551227D01*
X28753458Y24551228D01*
X28719128Y24565447D01*
X28694855Y24575501D01*
X28605145Y24575501D01*
X28593622Y24575501D01*
X28593614Y24575500D01*
X28255910Y24575500D01*
X28197719Y24594407D01*
X28161755Y24643907D01*
X28161755Y24705093D01*
X28197719Y24754593D01*
X28211200Y24762143D01*
X28215117Y24764760D01*
X28302112Y24822888D01*
X28360240Y24909883D01*
X28375500Y24986599D01*
X28375499Y25513400D01*
X28360240Y25590117D01*
X28358411Y25592854D01*
X28313456Y25660134D01*
X28302112Y25677112D01*
X28215117Y25735240D01*
X28215113Y25735241D01*
X28138410Y25750499D01*
X28138402Y25750500D01*
X28138401Y25750500D01*
X28138400Y25750500D01*
X27861602Y25750500D01*
X27861595Y25750499D01*
X27784883Y25735241D01*
X27784881Y25735240D01*
X27697890Y25677114D01*
X27697886Y25677110D01*
X27641588Y25592854D01*
X27593538Y25554975D01*
X27532400Y25552573D01*
X27514328Y25559646D01*
X27459661Y25587500D01*
X27350000Y25604869D01*
X27240338Y25587500D01*
X27141413Y25537095D01*
X27062905Y25458587D01*
X27012500Y25359662D01*
X27012500Y25359661D01*
X26995131Y25250000D01*
X27012500Y25140339D01*
X27062905Y25041413D01*
X27141413Y24962905D01*
X27240339Y24912500D01*
X27350000Y24895131D01*
X27459661Y24912500D01*
X27514328Y24940355D01*
X27574759Y24949926D01*
X27629276Y24922149D01*
X27641588Y24907146D01*
X27697884Y24822893D01*
X27697885Y24822892D01*
X27697888Y24822888D01*
X27739832Y24794862D01*
X27792991Y24759342D01*
X27791805Y24757569D01*
X27828501Y24726229D01*
X27842785Y24666734D01*
X27819371Y24610206D01*
X27767203Y24578236D01*
X27744090Y24575500D01*
X26684413Y24575500D01*
X26626222Y24594407D01*
X26614410Y24604496D01*
X26355095Y24863810D01*
X26341170Y24877735D01*
X26341170Y24877736D01*
X26277736Y24941170D01*
X26277732Y24941172D01*
X26253458Y24951227D01*
X26253458Y24951228D01*
X26219128Y24965447D01*
X26194855Y24975501D01*
X26105145Y24975501D01*
X26093622Y24975501D01*
X26093614Y24975500D01*
X25929240Y24975500D01*
X25871049Y24994407D01*
X25835085Y25043907D01*
X25831276Y25060220D01*
X25827866Y25083625D01*
X25772826Y25196211D01*
X25684211Y25284826D01*
X25571625Y25339866D01*
X25571626Y25339866D01*
X25553377Y25342525D01*
X25498636Y25350500D01*
X24377364Y25350500D01*
X24333570Y25344120D01*
X24304373Y25339866D01*
X24191790Y25284827D01*
X24103173Y25196210D01*
X24048134Y25083627D01*
X24048134Y25083625D01*
X24037500Y25010636D01*
X23725500Y25010636D01*
X23725500Y26510636D01*
X24037500Y26510636D01*
X24037500Y25989364D01*
X24045585Y25933874D01*
X24048134Y25916374D01*
X24088288Y25834238D01*
X24103174Y25803789D01*
X24191789Y25715174D01*
X24304375Y25660134D01*
X24377364Y25649500D01*
X24377367Y25649500D01*
X25498632Y25649500D01*
X25498636Y25649500D01*
X25571625Y25660134D01*
X25684211Y25715174D01*
X25772826Y25803789D01*
X25827866Y25916375D01*
X25831275Y25939775D01*
X25858373Y25994629D01*
X25912540Y26023081D01*
X25929240Y26024500D01*
X29075587Y26024500D01*
X29133778Y26005593D01*
X29145591Y25995504D01*
X31678829Y23462266D01*
X31678830Y23462264D01*
X31742264Y23398830D01*
X31742265Y23398830D01*
X31742266Y23398829D01*
X31766538Y23388775D01*
X31766539Y23388775D01*
X31825145Y23364499D01*
X31825146Y23364499D01*
X31926378Y23364499D01*
X31926386Y23364500D01*
X32449462Y23364500D01*
X32507653Y23345593D01*
X32543617Y23296093D01*
X32544199Y23294238D01*
X32571186Y23205273D01*
X32571188Y23205268D01*
X32605894Y23140339D01*
X32664090Y23031462D01*
X32664092Y23031460D01*
X32664093Y23031458D01*
X32789112Y22879122D01*
X32789121Y22879113D01*
X32941457Y22754094D01*
X32941462Y22754090D01*
X33115273Y22661186D01*
X33303868Y22603976D01*
X33303870Y22603976D01*
X33303873Y22603975D01*
X33499997Y22584659D01*
X33500000Y22584659D01*
X33500003Y22584659D01*
X33696126Y22603975D01*
X33696127Y22603976D01*
X33696132Y22603976D01*
X33884727Y22661186D01*
X34058538Y22754090D01*
X34210883Y22879117D01*
X34335910Y23031462D01*
X34428814Y23205273D01*
X34486024Y23393868D01*
X34492399Y23458587D01*
X34505341Y23589997D01*
X34505341Y23590004D01*
X34486025Y23786127D01*
X34486024Y23786130D01*
X34486024Y23786132D01*
X34428814Y23974727D01*
X34335910Y24148538D01*
X34327464Y24158830D01*
X34210887Y24300879D01*
X34210878Y24300888D01*
X34058542Y24425907D01*
X34058540Y24425908D01*
X34058538Y24425910D01*
X33966716Y24474990D01*
X33884732Y24518812D01*
X33884730Y24518813D01*
X33870660Y24523081D01*
X33777873Y24551228D01*
X33696129Y24576025D01*
X33696126Y24576026D01*
X33500003Y24595341D01*
X33499997Y24595341D01*
X33303873Y24576026D01*
X33303870Y24576025D01*
X33115269Y24518813D01*
X33115267Y24518812D01*
X32941467Y24425913D01*
X32941457Y24425907D01*
X32789121Y24300888D01*
X32789112Y24300879D01*
X32664093Y24148543D01*
X32664087Y24148533D01*
X32571188Y23974733D01*
X32571186Y23974728D01*
X32544199Y23885762D01*
X32509214Y23835565D01*
X32451406Y23815519D01*
X32449462Y23815500D01*
X32004413Y23815500D01*
X31946222Y23834407D01*
X31934409Y23844496D01*
X29401170Y26377735D01*
X29401170Y26377736D01*
X29337736Y26441170D01*
X29313460Y26451226D01*
X29313458Y26451227D01*
X29313458Y26451228D01*
X29279128Y26465447D01*
X29254855Y26475501D01*
X29165145Y26475501D01*
X29153622Y26475501D01*
X29153614Y26475500D01*
X25929240Y26475500D01*
X25871049Y26494407D01*
X25835085Y26543907D01*
X25831276Y26560220D01*
X25827866Y26583625D01*
X25772826Y26696211D01*
X25684211Y26784826D01*
X25571625Y26839866D01*
X25571626Y26839866D01*
X25553377Y26842525D01*
X25498636Y26850500D01*
X24377364Y26850500D01*
X24333570Y26844120D01*
X24304373Y26839866D01*
X24191790Y26784827D01*
X24103173Y26696210D01*
X24048134Y26583627D01*
X24048134Y26583625D01*
X24037500Y26510636D01*
X23725500Y26510636D01*
X23725500Y27365588D01*
X23744407Y27423779D01*
X23754497Y27435592D01*
X23814410Y27495504D01*
X23868927Y27523281D01*
X23884413Y27524500D01*
X23946760Y27524500D01*
X24004951Y27505593D01*
X24040915Y27456093D01*
X24044723Y27439781D01*
X24048134Y27416375D01*
X24103174Y27303789D01*
X24191789Y27215174D01*
X24304375Y27160134D01*
X24377364Y27149500D01*
X24377367Y27149500D01*
X25498632Y27149500D01*
X25498636Y27149500D01*
X25571625Y27160134D01*
X25684211Y27215174D01*
X25772826Y27303789D01*
X25827866Y27416375D01*
X25838500Y27489364D01*
X25838500Y28010636D01*
X25827866Y28083625D01*
X25772826Y28196211D01*
X25684211Y28284826D01*
X25571625Y28339866D01*
X25571626Y28339866D01*
X25553377Y28342525D01*
X25498636Y28350500D01*
X24377364Y28350500D01*
X24333570Y28344120D01*
X24304373Y28339866D01*
X24191790Y28284827D01*
X24103173Y28196210D01*
X24048134Y28083627D01*
X24048134Y28083625D01*
X24044724Y28060226D01*
X24017627Y28005371D01*
X23963460Y27976919D01*
X23946760Y27975500D01*
X23705143Y27975500D01*
X23622265Y27941172D01*
X23394503Y27713410D01*
X23339987Y27685633D01*
X23279555Y27695204D01*
X23236290Y27738469D01*
X23225500Y27783414D01*
X23225500Y28615587D01*
X23244407Y28673778D01*
X23254496Y28685591D01*
X23564409Y28995504D01*
X23618926Y29023281D01*
X23634413Y29024500D01*
X23946760Y29024500D01*
X24004951Y29005593D01*
X24040915Y28956093D01*
X24044723Y28939781D01*
X24046951Y28924496D01*
X24048134Y28916374D01*
X24103173Y28803791D01*
X24103174Y28803789D01*
X24191789Y28715174D01*
X24304375Y28660134D01*
X24377364Y28649500D01*
X24377367Y28649500D01*
X25498632Y28649500D01*
X25498636Y28649500D01*
X25571625Y28660134D01*
X25684211Y28715174D01*
X25772826Y28803789D01*
X25827866Y28916375D01*
X25838500Y28989364D01*
X25838500Y29510636D01*
X25827866Y29583625D01*
X25772826Y29696211D01*
X25684211Y29784826D01*
X25571625Y29839866D01*
X25571626Y29839866D01*
X25553377Y29842525D01*
X25498636Y29850500D01*
X24377364Y29850500D01*
X24333570Y29844120D01*
X24304373Y29839866D01*
X24191790Y29784827D01*
X24103173Y29696210D01*
X24048134Y29583627D01*
X24048134Y29583625D01*
X24044724Y29560226D01*
X24017627Y29505371D01*
X23963460Y29476919D01*
X23946760Y29475500D01*
X23556386Y29475500D01*
X23556378Y29475501D01*
X23544855Y29475501D01*
X23455146Y29475501D01*
X23455144Y29475501D01*
X23406594Y29455391D01*
X23372265Y29441172D01*
X23372263Y29441170D01*
X23308829Y29377737D01*
X23308830Y29377736D01*
X22808830Y28877737D01*
X22805516Y28869735D01*
X22774499Y28794855D01*
X22774499Y28693623D01*
X22774500Y28693614D01*
X22774500Y20884413D01*
X22755593Y20826222D01*
X22745504Y20814410D01*
X22685592Y20754497D01*
X22631076Y20726719D01*
X22615588Y20725500D01*
X21499500Y20725500D01*
X21441309Y20744407D01*
X21405345Y20793907D01*
X21400500Y20824500D01*
X21400500Y20854273D01*
X21400499Y20854275D01*
X21400072Y20858831D01*
X21397646Y20884699D01*
X21352793Y21012882D01*
X21335593Y21036187D01*
X21272154Y21122145D01*
X21272152Y21122147D01*
X21272150Y21122150D01*
X21272146Y21122153D01*
X21272144Y21122155D01*
X21162883Y21202793D01*
X21034703Y21247645D01*
X21034694Y21247647D01*
X21004274Y21250500D01*
X21004266Y21250500D01*
X19995734Y21250500D01*
X19995725Y21250500D01*
X19965305Y21247647D01*
X19965296Y21247645D01*
X19837116Y21202793D01*
X19727855Y21122155D01*
X19727845Y21122145D01*
X19647207Y21012884D01*
X19602355Y20884704D01*
X19602353Y20884695D01*
X19599500Y20854275D01*
X19599500Y20145726D01*
X19602353Y20115306D01*
X19602355Y20115297D01*
X19647207Y19987117D01*
X19727845Y19877856D01*
X19727847Y19877854D01*
X19727850Y19877850D01*
X19727853Y19877848D01*
X19727855Y19877846D01*
X19825787Y19805569D01*
X19861380Y19755802D01*
X19860922Y19694618D01*
X19837004Y19655912D01*
X19808831Y19627738D01*
X19808830Y19627736D01*
X19808829Y19627735D01*
X19095416Y18914323D01*
X19040899Y18886546D01*
X18980467Y18896117D01*
X18937202Y18939382D01*
X18930744Y18960778D01*
X18929637Y18960476D01*
X18927682Y18967661D01*
X18927682Y18967662D01*
X18883813Y19067016D01*
X18812247Y19138582D01*
X18784472Y19193096D01*
X18794043Y19253528D01*
X18831674Y19291160D01*
X18830929Y19292224D01*
X18836966Y19296452D01*
X18837308Y19296793D01*
X18837789Y19297028D01*
X18838020Y19297190D01*
X18922809Y19381979D01*
X18973478Y19490639D01*
X18973480Y19490646D01*
X18980000Y19540162D01*
X18980000Y19594999D01*
X18979999Y19595000D01*
X17960001Y19595000D01*
X17960000Y19594999D01*
X17960000Y19540162D01*
X17966519Y19490646D01*
X17966520Y19490641D01*
X17973542Y19475582D01*
X17980996Y19414853D01*
X17951331Y19361340D01*
X17895878Y19335484D01*
X17867660Y19338204D01*
X17867356Y19336281D01*
X17859661Y19337500D01*
X17750000Y19354869D01*
X17640338Y19337500D01*
X17541413Y19287095D01*
X17462905Y19208587D01*
X17412500Y19109662D01*
X17395131Y19000001D01*
X17395131Y18999999D01*
X17407336Y18922937D01*
X17397764Y18862505D01*
X17354500Y18819240D01*
X17354499Y18819240D01*
X17329359Y18806431D01*
X17268927Y18796860D01*
X17239538Y18808362D01*
X17239372Y18807959D01*
X17230363Y18811691D01*
X17230361Y18811692D01*
X17230360Y18811692D01*
X17204683Y18816800D01*
X17151300Y18846698D01*
X17125686Y18902264D01*
X17125000Y18913897D01*
X17125000Y19037499D01*
X17124999Y19037500D01*
X16724000Y19037500D01*
X16665809Y19056407D01*
X16629845Y19105907D01*
X16625000Y19136500D01*
X16625000Y19674999D01*
X16875000Y19674999D01*
X16875000Y19287501D01*
X16875001Y19287500D01*
X17124999Y19287500D01*
X17125000Y19287501D01*
X17125000Y19430426D01*
X17124999Y19430429D01*
X17122211Y19454461D01*
X17078794Y19552791D01*
X17002790Y19628795D01*
X16904460Y19672212D01*
X16880428Y19675000D01*
X16875001Y19675000D01*
X16875000Y19674999D01*
X16625000Y19674999D01*
X16624999Y19675000D01*
X16619571Y19675000D01*
X16595539Y19672212D01*
X16497202Y19628792D01*
X16497190Y19628783D01*
X16497169Y19628777D01*
X16488817Y19625089D01*
X16488336Y19626177D01*
X16438496Y19611503D01*
X16421938Y19613367D01*
X16360944Y19625500D01*
X16360942Y19625500D01*
X16139058Y19625500D01*
X16139057Y19625500D01*
X16139047Y19625499D01*
X16069640Y19611692D01*
X16069631Y19611689D01*
X16055000Y19601912D01*
X15996112Y19585304D01*
X15945000Y19601912D01*
X15930368Y19611689D01*
X15930363Y19611691D01*
X15930360Y19611692D01*
X15930359Y19611692D01*
X15860952Y19625499D01*
X15860942Y19625500D01*
X15639058Y19625500D01*
X15639057Y19625500D01*
X15639047Y19625499D01*
X15569640Y19611692D01*
X15569631Y19611689D01*
X15555000Y19601912D01*
X15496112Y19585304D01*
X15445000Y19601912D01*
X15430368Y19611689D01*
X15430363Y19611691D01*
X15430360Y19611692D01*
X15430359Y19611692D01*
X15360952Y19625499D01*
X15360942Y19625500D01*
X15139058Y19625500D01*
X15139057Y19625500D01*
X15139047Y19625499D01*
X15069640Y19611692D01*
X15069634Y19611690D01*
X14990912Y19559091D01*
X14990909Y19559088D01*
X14938310Y19480366D01*
X14938308Y19480360D01*
X14924501Y19410953D01*
X14924500Y19410941D01*
X14924500Y18974000D01*
X14905593Y18915809D01*
X14856093Y18879845D01*
X14825500Y18875000D01*
X14819571Y18875000D01*
X14795539Y18872212D01*
X14697209Y18828795D01*
X14621205Y18752791D01*
X14577788Y18654461D01*
X14575000Y18630429D01*
X14575000Y18625001D01*
X14575001Y18625000D01*
X15599999Y18625000D01*
X15611792Y18636794D01*
X15618907Y18658691D01*
X15668407Y18694655D01*
X15699000Y18699500D01*
X15860941Y18699500D01*
X15860942Y18699500D01*
X15930363Y18713309D01*
X15944997Y18723087D01*
X16003885Y18739697D01*
X16055003Y18723087D01*
X16069637Y18713309D01*
X16116766Y18703935D01*
X16139047Y18699502D01*
X16139052Y18699502D01*
X16139058Y18699500D01*
X16139059Y18699500D01*
X16350500Y18699500D01*
X16408691Y18680593D01*
X16444655Y18631093D01*
X16449500Y18600500D01*
X16449500Y18389060D01*
X16449501Y18389048D01*
X16463308Y18319641D01*
X16463311Y18319632D01*
X16473088Y18305000D01*
X16489696Y18246112D01*
X16473088Y18195000D01*
X16463311Y18180369D01*
X16463308Y18180360D01*
X16449501Y18110953D01*
X16449500Y18110941D01*
X16449500Y17889056D01*
X16461633Y17828062D01*
X16454441Y17767301D01*
X16446217Y17752810D01*
X16446208Y17752798D01*
X16402788Y17654461D01*
X16400000Y17630429D01*
X16400000Y17625001D01*
X16400001Y17625000D01*
X16938500Y17625000D01*
X16996691Y17606093D01*
X17032655Y17556593D01*
X17037500Y17526000D01*
X17037500Y17474000D01*
X17018593Y17415809D01*
X16969093Y17379845D01*
X16938500Y17375000D01*
X16400001Y17375000D01*
X16375000Y17349999D01*
X16375000Y16325001D01*
X16375001Y16325000D01*
X16380425Y16325000D01*
X16380428Y16325001D01*
X16404460Y16327789D01*
X16452497Y16348999D01*
X17960000Y16348999D01*
X17960000Y16294162D01*
X17966519Y16244646D01*
X17966521Y16244639D01*
X18017190Y16135979D01*
X18101978Y16051191D01*
X18210638Y16000522D01*
X18210645Y16000520D01*
X18260161Y15994000D01*
X18344999Y15994000D01*
X18345000Y15994001D01*
X18345000Y16348999D01*
X18344999Y16349000D01*
X17960001Y16349000D01*
X17960000Y16348999D01*
X16452497Y16348999D01*
X16502792Y16371206D01*
X16502797Y16371209D01*
X16502804Y16371212D01*
X16511184Y16374911D01*
X16511665Y16373822D01*
X16561489Y16388498D01*
X16578060Y16386634D01*
X16597253Y16382816D01*
X16639050Y16374501D01*
X16639056Y16374501D01*
X16639058Y16374500D01*
X16639059Y16374500D01*
X16860941Y16374500D01*
X16860942Y16374500D01*
X16930363Y16388309D01*
X17009089Y16440911D01*
X17061691Y16519637D01*
X17075500Y16589058D01*
X17075500Y17026000D01*
X17094407Y17084191D01*
X17143907Y17120155D01*
X17174500Y17125000D01*
X17180425Y17125000D01*
X17180428Y17125001D01*
X17204460Y17127789D01*
X17293834Y17167251D01*
X17354703Y17173459D01*
X17407597Y17142703D01*
X17422031Y17121632D01*
X17447574Y17071501D01*
X17462905Y17041413D01*
X17541413Y16962905D01*
X17640339Y16912500D01*
X17750000Y16895131D01*
X17859661Y16912500D01*
X17871559Y16918563D01*
X17931989Y16928134D01*
X17986506Y16900358D01*
X18014285Y16845842D01*
X18006229Y16788514D01*
X17966519Y16703356D01*
X17966519Y16703355D01*
X17960000Y16653839D01*
X17960000Y16599001D01*
X17960001Y16599000D01*
X18496000Y16599000D01*
X18554191Y16580093D01*
X18590155Y16530593D01*
X18595000Y16500000D01*
X18595000Y15994001D01*
X18595001Y15994000D01*
X18679838Y15994000D01*
X18729354Y16000520D01*
X18733655Y16002525D01*
X18794384Y16009985D01*
X18847900Y15980325D01*
X18873761Y15924874D01*
X18874500Y15912803D01*
X18874500Y15692337D01*
X18855593Y15634146D01*
X18806093Y15598182D01*
X18760012Y15594557D01*
X18675000Y15608021D01*
X18565338Y15590652D01*
X18466410Y15540246D01*
X18466410Y15540245D01*
X18442710Y15516545D01*
X18388193Y15488769D01*
X18372708Y15487550D01*
X14455061Y15487550D01*
X14396870Y15506457D01*
X14385058Y15516546D01*
X14352460Y15549144D01*
X14253532Y15599550D01*
X14143871Y15616919D01*
X14143869Y15616919D01*
X14118317Y15612872D01*
X14057885Y15622444D01*
X14014620Y15665708D01*
X14006464Y15717208D01*
X14004869Y15717208D01*
X14004869Y15725001D01*
X13989109Y15824500D01*
X13987500Y15834661D01*
X13948975Y15910271D01*
X13939404Y15970699D01*
X13967181Y16025216D01*
X13995346Y16044938D01*
X14024111Y16058352D01*
X14107650Y16141891D01*
X14157574Y16248953D01*
X14157576Y16248960D01*
X14164000Y16297747D01*
X14164000Y16346999D01*
X14163999Y16347000D01*
X13618000Y16347000D01*
X13559809Y16365907D01*
X13523845Y16415407D01*
X13519000Y16446000D01*
X13519000Y16498000D01*
X13537907Y16556191D01*
X13587407Y16592155D01*
X13618000Y16597000D01*
X14163998Y16597000D01*
X14163999Y16597001D01*
X14163999Y16646251D01*
X14163998Y16646261D01*
X14157577Y16695042D01*
X14149437Y16712499D01*
X14875000Y16712499D01*
X14875000Y16569572D01*
X14877788Y16545540D01*
X14921205Y16447210D01*
X14997209Y16371206D01*
X15095539Y16327789D01*
X15119571Y16325001D01*
X15119575Y16325000D01*
X15124999Y16325000D01*
X15125000Y16325001D01*
X15125000Y16712499D01*
X15375000Y16712499D01*
X15375000Y16325001D01*
X15375001Y16325000D01*
X15380425Y16325000D01*
X15380428Y16325001D01*
X15404461Y16327789D01*
X15460010Y16352317D01*
X15520880Y16358526D01*
X15539990Y16352317D01*
X15595540Y16327789D01*
X15595537Y16327789D01*
X15619571Y16325001D01*
X15619575Y16325000D01*
X15624999Y16325000D01*
X15625000Y16325001D01*
X15625000Y16712499D01*
X15875000Y16712499D01*
X15875000Y16325001D01*
X15875001Y16325000D01*
X15880425Y16325000D01*
X15880428Y16325001D01*
X15904461Y16327789D01*
X15960010Y16352317D01*
X16020880Y16358526D01*
X16039990Y16352317D01*
X16095540Y16327789D01*
X16095537Y16327789D01*
X16119571Y16325001D01*
X16119575Y16325000D01*
X16124999Y16325000D01*
X16125000Y16325001D01*
X16125000Y16712499D01*
X16124999Y16712500D01*
X15875001Y16712500D01*
X15875000Y16712499D01*
X15625000Y16712499D01*
X15624999Y16712500D01*
X15375001Y16712500D01*
X15375000Y16712499D01*
X15125000Y16712499D01*
X15124999Y16712500D01*
X14875001Y16712500D01*
X14875000Y16712499D01*
X14149437Y16712499D01*
X14107650Y16802110D01*
X14024109Y16885651D01*
X13951481Y16919518D01*
X13906733Y16961246D01*
X13895058Y17021307D01*
X13920916Y17076760D01*
X13953332Y17099806D01*
X13982999Y17112906D01*
X13993141Y17117384D01*
X14068616Y17192859D01*
X14078608Y17215490D01*
X14119408Y17261083D01*
X14169172Y17274500D01*
X14616315Y17274500D01*
X14674506Y17255593D01*
X14686322Y17245501D01*
X14690908Y17240915D01*
X14690911Y17240911D01*
X14769637Y17188309D01*
X14795317Y17183201D01*
X14848699Y17153305D01*
X14874314Y17097739D01*
X14875000Y17086104D01*
X14875000Y16962501D01*
X14875001Y16962500D01*
X15624999Y16962500D01*
X15625000Y16962501D01*
X15625000Y17349999D01*
X15875000Y17349999D01*
X15875000Y16962501D01*
X15875001Y16962500D01*
X16124999Y16962500D01*
X16125000Y16962501D01*
X16125000Y17349999D01*
X16124999Y17350000D01*
X16119571Y17350000D01*
X16095539Y17347212D01*
X16095536Y17347211D01*
X16039987Y17322684D01*
X15979117Y17316477D01*
X15960013Y17322684D01*
X15904463Y17347211D01*
X15904460Y17347212D01*
X15880428Y17350000D01*
X15875001Y17350000D01*
X15875000Y17349999D01*
X15625000Y17349999D01*
X15613206Y17361793D01*
X15591309Y17368907D01*
X15555345Y17418407D01*
X15550500Y17449000D01*
X15550500Y17610941D01*
X15550498Y17610953D01*
X15540244Y17662500D01*
X15536691Y17680363D01*
X15526913Y17694997D01*
X15510303Y17753885D01*
X15526913Y17805003D01*
X15535472Y17817813D01*
X15536691Y17819637D01*
X15550500Y17889058D01*
X15550500Y18110942D01*
X15550499Y18110944D01*
X15550499Y18110950D01*
X15542184Y18152747D01*
X15538367Y18171937D01*
X15545557Y18232698D01*
X15553791Y18247203D01*
X15553794Y18247208D01*
X15597211Y18345540D01*
X15599999Y18369572D01*
X15600000Y18369575D01*
X15600000Y18374999D01*
X15599999Y18375000D01*
X14575001Y18375000D01*
X14570228Y18370228D01*
X14556093Y18326722D01*
X14506593Y18290758D01*
X14445407Y18290758D01*
X14405996Y18314909D01*
X14143495Y18577410D01*
X14115718Y18631927D01*
X14114499Y18647414D01*
X14114499Y18935620D01*
X14114499Y18935622D01*
X14111730Y18959498D01*
X14103365Y18978442D01*
X14077288Y19037500D01*
X14068616Y19057141D01*
X13993141Y19132616D01*
X13993139Y19132617D01*
X13993138Y19132618D01*
X13953332Y19150194D01*
X13907736Y19190994D01*
X13894831Y19250803D01*
X13919545Y19306775D01*
X13951481Y19330482D01*
X14024109Y19364350D01*
X14107650Y19447891D01*
X14157574Y19554953D01*
X14157576Y19554960D01*
X14164000Y19603747D01*
X14164000Y19652999D01*
X14163999Y19653000D01*
X13618000Y19653000D01*
X13559809Y19671907D01*
X13523845Y19721407D01*
X13519000Y19752000D01*
X13519000Y19899839D01*
X17960000Y19899839D01*
X17960000Y19845001D01*
X17960001Y19845000D01*
X18344999Y19845000D01*
X18345000Y19845001D01*
X18345000Y20199999D01*
X18595000Y20199999D01*
X18595000Y19845001D01*
X18595001Y19845000D01*
X18979999Y19845000D01*
X18980000Y19845001D01*
X18980000Y19899839D01*
X18973480Y19949355D01*
X18973478Y19949362D01*
X18922809Y20058022D01*
X18838021Y20142810D01*
X18729361Y20193479D01*
X18729354Y20193481D01*
X18679839Y20200000D01*
X18595001Y20200000D01*
X18595000Y20199999D01*
X18345000Y20199999D01*
X18344999Y20200000D01*
X18260161Y20200000D01*
X18210645Y20193481D01*
X18210638Y20193479D01*
X18101978Y20142810D01*
X18017190Y20058022D01*
X17966521Y19949362D01*
X17966519Y19949355D01*
X17960000Y19899839D01*
X13519000Y19899839D01*
X13519000Y20247999D01*
X13769000Y20247999D01*
X13769000Y19903001D01*
X13769001Y19903000D01*
X14163998Y19903000D01*
X14163999Y19903001D01*
X14163999Y19952251D01*
X14163998Y19952261D01*
X14157577Y20001042D01*
X14107650Y20108110D01*
X14024109Y20191651D01*
X13917047Y20241575D01*
X13917040Y20241577D01*
X13868254Y20248000D01*
X13769001Y20248000D01*
X13769000Y20247999D01*
X13519000Y20247999D01*
X13519000Y20248000D01*
X13419748Y20248000D01*
X13419738Y20247999D01*
X13370958Y20241578D01*
X13363686Y20239458D01*
X13363014Y20241761D01*
X13313596Y20235701D01*
X13260086Y20265372D01*
X13234236Y20320828D01*
X13233500Y20332879D01*
X13233500Y28786857D01*
X13199171Y28869734D01*
X13199170Y28869735D01*
X13199170Y28869736D01*
X13135736Y28933170D01*
X13135734Y28933171D01*
X11454077Y30614828D01*
X15137500Y30614828D01*
X15137500Y27585173D01*
X15146232Y27541280D01*
X15146234Y27541276D01*
X15158258Y27523281D01*
X15179496Y27491496D01*
X15229278Y27458233D01*
X15240036Y27456093D01*
X15273172Y27449501D01*
X15273178Y27449501D01*
X15273180Y27449500D01*
X15273181Y27449500D01*
X18302819Y27449500D01*
X18302820Y27449500D01*
X18302821Y27449501D01*
X18302827Y27449501D01*
X18331198Y27455145D01*
X18346722Y27458233D01*
X18396504Y27491496D01*
X18429767Y27541278D01*
X18434603Y27565587D01*
X18438499Y27585173D01*
X18438500Y27585182D01*
X18438500Y30614819D01*
X18438499Y30614828D01*
X18429767Y30658721D01*
X18429765Y30658725D01*
X18396505Y30708502D01*
X18396504Y30708504D01*
X18395840Y30708948D01*
X18346724Y30741766D01*
X18346720Y30741768D01*
X18302827Y30750500D01*
X18302820Y30750500D01*
X15273180Y30750500D01*
X15273172Y30750500D01*
X15229279Y30741768D01*
X15229275Y30741766D01*
X15179498Y30708506D01*
X15179494Y30708502D01*
X15146234Y30658725D01*
X15146232Y30658721D01*
X15137500Y30614828D01*
X11454077Y30614828D01*
X11058269Y31010636D01*
X24037500Y31010636D01*
X24037500Y30489364D01*
X24048134Y30416375D01*
X24103174Y30303789D01*
X24191789Y30215174D01*
X24304375Y30160134D01*
X24377364Y30149500D01*
X24377367Y30149500D01*
X25498632Y30149500D01*
X25498636Y30149500D01*
X25571625Y30160134D01*
X25684211Y30215174D01*
X25772826Y30303789D01*
X25827866Y30416375D01*
X25831275Y30439775D01*
X25858373Y30494629D01*
X25912540Y30523081D01*
X25929240Y30524500D01*
X27115587Y30524500D01*
X27173778Y30505593D01*
X27185591Y30495504D01*
X31678829Y26002266D01*
X31678830Y26002264D01*
X31742264Y25938830D01*
X31776595Y25924610D01*
X31825146Y25904499D01*
X31825147Y25904499D01*
X31926378Y25904499D01*
X31926386Y25904500D01*
X32449462Y25904500D01*
X32507653Y25885593D01*
X32543617Y25836093D01*
X32544191Y25834262D01*
X32569600Y25750500D01*
X32571186Y25745273D01*
X32571188Y25745268D01*
X32607619Y25677112D01*
X32664090Y25571462D01*
X32664092Y25571460D01*
X32664093Y25571458D01*
X32789112Y25419122D01*
X32789121Y25419113D01*
X32885684Y25339866D01*
X32941462Y25294090D01*
X33115273Y25201186D01*
X33303868Y25143976D01*
X33303870Y25143976D01*
X33303873Y25143975D01*
X33499997Y25124659D01*
X33500000Y25124659D01*
X33500003Y25124659D01*
X33696126Y25143975D01*
X33696127Y25143976D01*
X33696132Y25143976D01*
X33884727Y25201186D01*
X34058538Y25294090D01*
X34210883Y25419117D01*
X34335910Y25571462D01*
X34428814Y25745273D01*
X34486024Y25933868D01*
X34486606Y25939772D01*
X34505341Y26129997D01*
X34505341Y26130004D01*
X34486025Y26326127D01*
X34486024Y26326130D01*
X34486024Y26326132D01*
X34428814Y26514727D01*
X34335910Y26688538D01*
X34329613Y26696211D01*
X34210887Y26840879D01*
X34210878Y26840888D01*
X34058542Y26965907D01*
X34058540Y26965908D01*
X34058538Y26965910D01*
X33934339Y27032296D01*
X33884732Y27058812D01*
X33884730Y27058813D01*
X33696129Y27116025D01*
X33696126Y27116026D01*
X33500003Y27135341D01*
X33499997Y27135341D01*
X33303873Y27116026D01*
X33303870Y27116025D01*
X33115269Y27058813D01*
X33115267Y27058812D01*
X32941467Y26965913D01*
X32941457Y26965907D01*
X32789121Y26840888D01*
X32789112Y26840879D01*
X32664093Y26688543D01*
X32664087Y26688533D01*
X32571188Y26514733D01*
X32571186Y26514728D01*
X32571186Y26514727D01*
X32548873Y26441169D01*
X32544199Y26425762D01*
X32509214Y26375565D01*
X32451406Y26355519D01*
X32449462Y26355500D01*
X32004413Y26355500D01*
X31946222Y26374407D01*
X31934409Y26384496D01*
X27441170Y30877735D01*
X27441170Y30877736D01*
X27377736Y30941170D01*
X27377732Y30941172D01*
X27353458Y30951227D01*
X27353458Y30951228D01*
X27318775Y30965593D01*
X27294855Y30975501D01*
X27205145Y30975501D01*
X27193622Y30975501D01*
X27193614Y30975500D01*
X25929240Y30975500D01*
X25871049Y30994407D01*
X25835085Y31043907D01*
X25831276Y31060220D01*
X25827866Y31083625D01*
X25772826Y31196211D01*
X25684211Y31284826D01*
X25571625Y31339866D01*
X25571626Y31339866D01*
X25553377Y31342525D01*
X25498636Y31350500D01*
X24377364Y31350500D01*
X24333570Y31344120D01*
X24304373Y31339866D01*
X24191790Y31284827D01*
X24103173Y31196210D01*
X24048134Y31083627D01*
X24044725Y31060228D01*
X24037500Y31010636D01*
X11058269Y31010636D01*
X9691170Y32377735D01*
X9691170Y32377736D01*
X9627736Y32441170D01*
X9627732Y32441172D01*
X9603458Y32451227D01*
X9603458Y32451228D01*
X9569128Y32465447D01*
X9544855Y32475501D01*
X9455145Y32475501D01*
X9443622Y32475501D01*
X9443614Y32475500D01*
X8429240Y32475500D01*
X8371049Y32494407D01*
X8359258Y32510636D01*
X24037500Y32510636D01*
X24037500Y31989364D01*
X24048134Y31916375D01*
X24103174Y31803789D01*
X24191789Y31715174D01*
X24304375Y31660134D01*
X24377364Y31649500D01*
X24377367Y31649500D01*
X25498632Y31649500D01*
X25498636Y31649500D01*
X25571625Y31660134D01*
X25684211Y31715174D01*
X25772826Y31803789D01*
X25827866Y31916375D01*
X25831275Y31939775D01*
X25858373Y31994629D01*
X25912540Y32023081D01*
X25929240Y32024500D01*
X28155587Y32024500D01*
X28213778Y32005593D01*
X28225591Y31995504D01*
X31678829Y28542266D01*
X31678830Y28542264D01*
X31742264Y28478830D01*
X31776595Y28464610D01*
X31825146Y28444499D01*
X31825147Y28444499D01*
X31926378Y28444499D01*
X31926386Y28444500D01*
X32449462Y28444500D01*
X32507653Y28425593D01*
X32543617Y28376093D01*
X32544191Y28374262D01*
X32571186Y28285273D01*
X32571188Y28285268D01*
X32618791Y28196210D01*
X32664090Y28111462D01*
X32664092Y28111460D01*
X32664093Y28111458D01*
X32789112Y27959122D01*
X32789121Y27959113D01*
X32941457Y27834094D01*
X32941462Y27834090D01*
X33036270Y27783414D01*
X33108408Y27744855D01*
X33115273Y27741186D01*
X33303868Y27683976D01*
X33303870Y27683976D01*
X33303873Y27683975D01*
X33499997Y27664659D01*
X33500000Y27664659D01*
X33500003Y27664659D01*
X33696126Y27683975D01*
X33696127Y27683976D01*
X33696132Y27683976D01*
X33884727Y27741186D01*
X34058538Y27834090D01*
X34210883Y27959117D01*
X34335910Y28111462D01*
X34428814Y28285273D01*
X34486024Y28473868D01*
X34492761Y28542264D01*
X34505341Y28669997D01*
X34505341Y28670004D01*
X34486025Y28866127D01*
X34486024Y28866130D01*
X34486024Y28866132D01*
X34428814Y29054727D01*
X34335910Y29228538D01*
X34335906Y29228543D01*
X34210887Y29380879D01*
X34210878Y29380888D01*
X34058542Y29505907D01*
X34058540Y29505908D01*
X34058538Y29505910D01*
X33966716Y29554990D01*
X33884732Y29598812D01*
X33884730Y29598813D01*
X33696129Y29656025D01*
X33696126Y29656026D01*
X33500003Y29675341D01*
X33499997Y29675341D01*
X33303873Y29656026D01*
X33303870Y29656025D01*
X33115269Y29598813D01*
X33115267Y29598812D01*
X32941467Y29505913D01*
X32941457Y29505907D01*
X32789121Y29380888D01*
X32789112Y29380879D01*
X32664093Y29228543D01*
X32664087Y29228533D01*
X32571188Y29054733D01*
X32571186Y29054728D01*
X32544199Y28965762D01*
X32509214Y28915565D01*
X32451406Y28895519D01*
X32449462Y28895500D01*
X32004413Y28895500D01*
X31946222Y28914407D01*
X31934409Y28924496D01*
X28481170Y32377735D01*
X28481170Y32377736D01*
X28417736Y32441170D01*
X28417732Y32441172D01*
X28393458Y32451227D01*
X28393458Y32451228D01*
X28359128Y32465447D01*
X28334855Y32475501D01*
X28245145Y32475501D01*
X28233622Y32475501D01*
X28233614Y32475500D01*
X25929240Y32475500D01*
X25871049Y32494407D01*
X25835085Y32543907D01*
X25831276Y32560220D01*
X25827866Y32583625D01*
X25772826Y32696211D01*
X25684211Y32784826D01*
X25571625Y32839866D01*
X25571626Y32839866D01*
X25553377Y32842525D01*
X25498636Y32850500D01*
X24377364Y32850500D01*
X24333570Y32844120D01*
X24304373Y32839866D01*
X24191790Y32784827D01*
X24103173Y32696210D01*
X24048134Y32583627D01*
X24048134Y32583625D01*
X24037500Y32510636D01*
X8359258Y32510636D01*
X8335085Y32543907D01*
X8331276Y32560220D01*
X8327866Y32583625D01*
X8272826Y32696211D01*
X8184211Y32784826D01*
X8071625Y32839866D01*
X8071626Y32839866D01*
X8053377Y32842525D01*
X7998636Y32850500D01*
X6877364Y32850500D01*
X6833570Y32844120D01*
X6804373Y32839866D01*
X6691790Y32784827D01*
X6603173Y32696210D01*
X6548134Y32583627D01*
X6548134Y32583625D01*
X6544724Y32560226D01*
X6517627Y32505371D01*
X6463460Y32476919D01*
X6446760Y32475500D01*
X2136386Y32475500D01*
X2136378Y32475501D01*
X2124855Y32475501D01*
X2035146Y32475501D01*
X2035144Y32475501D01*
X1986594Y32455391D01*
X1952265Y32441172D01*
X1952263Y32441170D01*
X1888829Y32377737D01*
X1888830Y32377736D01*
X1888829Y32377735D01*
X-916611Y29572296D01*
X-971128Y29544519D01*
X-1031560Y29554090D01*
X-1033283Y29554990D01*
X-1115268Y29598812D01*
X-1115270Y29598813D01*
X-1303871Y29656025D01*
X-1303874Y29656026D01*
X-1499997Y29675341D01*
X-1500003Y29675341D01*
X-1696127Y29656026D01*
X-1696130Y29656025D01*
X-1884731Y29598813D01*
X-1884733Y29598812D01*
X-2058533Y29505913D01*
X-2058543Y29505907D01*
X-2210879Y29380888D01*
X-2210888Y29380879D01*
X-2335907Y29228543D01*
X-2335913Y29228533D01*
X-2428812Y29054733D01*
X-2428813Y29054731D01*
X-2486025Y28866130D01*
X-2486026Y28866127D01*
X-2505341Y28670004D01*
X-3500000Y28670004D01*
X-3500000Y31210004D01*
X-2505341Y31210004D01*
X-2505341Y31209997D01*
X-2486026Y31013874D01*
X-2486025Y31013871D01*
X-2428813Y30825270D01*
X-2428812Y30825268D01*
X-2388847Y30750500D01*
X-2335910Y30651462D01*
X-2335908Y30651460D01*
X-2335907Y30651458D01*
X-2210888Y30499122D01*
X-2210879Y30499113D01*
X-2110061Y30416374D01*
X-2058538Y30374090D01*
X-1884727Y30281186D01*
X-1696132Y30223976D01*
X-1696130Y30223976D01*
X-1696127Y30223975D01*
X-1500003Y30204659D01*
X-1500000Y30204659D01*
X-1499997Y30204659D01*
X-1303874Y30223975D01*
X-1303873Y30223976D01*
X-1303868Y30223976D01*
X-1115273Y30281186D01*
X-941462Y30374090D01*
X-789117Y30499117D01*
X-664090Y30651462D01*
X-571186Y30825273D01*
X-513976Y31013868D01*
X-507239Y31082264D01*
X-494659Y31209997D01*
X-494659Y31210004D01*
X-513975Y31406127D01*
X-513976Y31406130D01*
X-513976Y31406132D01*
X-571186Y31594727D01*
X-664090Y31768538D01*
X-693020Y31803789D01*
X-789113Y31920879D01*
X-789122Y31920888D01*
X-941458Y32045907D01*
X-941460Y32045908D01*
X-941462Y32045910D01*
X-982382Y32067782D01*
X-1115268Y32138812D01*
X-1115270Y32138813D01*
X-1303871Y32196025D01*
X-1303874Y32196026D01*
X-1499997Y32215341D01*
X-1500003Y32215341D01*
X-1696127Y32196026D01*
X-1696130Y32196025D01*
X-1884731Y32138813D01*
X-1884733Y32138812D01*
X-2058533Y32045913D01*
X-2058543Y32045907D01*
X-2210879Y31920888D01*
X-2210888Y31920879D01*
X-2335907Y31768543D01*
X-2335913Y31768533D01*
X-2428812Y31594733D01*
X-2428813Y31594731D01*
X-2486025Y31406130D01*
X-2486026Y31406127D01*
X-2505341Y31210004D01*
X-3500000Y31210004D01*
X-3500000Y34619701D01*
X-2550000Y34619701D01*
X-2550000Y33875001D01*
X-2549999Y33875000D01*
X-1984144Y33875000D01*
X-2000000Y33815826D01*
X-2000000Y33684174D01*
X-1984144Y33625000D01*
X-2549999Y33625000D01*
X-2550000Y33624999D01*
X-2550000Y32880300D01*
X-2538397Y32821964D01*
X-2494194Y32755811D01*
X-2494190Y32755807D01*
X-2428037Y32711604D01*
X-2369701Y32700001D01*
X-2369697Y32700000D01*
X-1625001Y32700000D01*
X-1625000Y32700001D01*
X-1625000Y33265856D01*
X-1565826Y33250000D01*
X-1434174Y33250000D01*
X-1375000Y33265856D01*
X-1375000Y32700001D01*
X-1374999Y32700000D01*
X-630303Y32700000D01*
X-630300Y32700001D01*
X-571964Y32711604D01*
X-505811Y32755807D01*
X-505807Y32755811D01*
X-461604Y32821964D01*
X-450001Y32880300D01*
X-450000Y32880303D01*
X-450000Y33624999D01*
X-450001Y33625000D01*
X-1015856Y33625000D01*
X-1000000Y33684174D01*
X-1000000Y33750000D01*
X5895131Y33750000D01*
X5912500Y33640339D01*
X5962905Y33541413D01*
X6041413Y33462905D01*
X6140339Y33412500D01*
X6250000Y33395131D01*
X6359661Y33412500D01*
X6413186Y33439772D01*
X6422385Y33444459D01*
X6482817Y33454031D01*
X6537333Y33426254D01*
X6556270Y33399733D01*
X6603174Y33303789D01*
X6691789Y33215174D01*
X6804375Y33160134D01*
X6877364Y33149500D01*
X6877367Y33149500D01*
X7998632Y33149500D01*
X7998636Y33149500D01*
X8071625Y33160134D01*
X8184211Y33215174D01*
X8272826Y33303789D01*
X8327866Y33416375D01*
X8338500Y33489364D01*
X8338500Y34010636D01*
X24037500Y34010636D01*
X24037500Y33489364D01*
X24042648Y33454031D01*
X24048134Y33416374D01*
X24080631Y33349901D01*
X24103174Y33303789D01*
X24191789Y33215174D01*
X24304375Y33160134D01*
X24377364Y33149500D01*
X24377367Y33149500D01*
X25498632Y33149500D01*
X25498636Y33149500D01*
X25571625Y33160134D01*
X25684211Y33215174D01*
X25772826Y33303789D01*
X25827866Y33416375D01*
X25831275Y33439775D01*
X25858373Y33494629D01*
X25912540Y33523081D01*
X25929240Y33524500D01*
X29195587Y33524500D01*
X29253778Y33505593D01*
X29265591Y33495504D01*
X31678829Y31082265D01*
X31678830Y31082264D01*
X31678829Y31082264D01*
X31742264Y31018830D01*
X31825143Y30984500D01*
X31825145Y30984500D01*
X32449462Y30984500D01*
X32507653Y30965593D01*
X32543617Y30916093D01*
X32544199Y30914238D01*
X32571186Y30825273D01*
X32571188Y30825268D01*
X32611153Y30750500D01*
X32664090Y30651462D01*
X32664092Y30651460D01*
X32664093Y30651458D01*
X32789112Y30499122D01*
X32789121Y30499113D01*
X32889939Y30416374D01*
X32941462Y30374090D01*
X33115273Y30281186D01*
X33303868Y30223976D01*
X33303870Y30223976D01*
X33303873Y30223975D01*
X33499997Y30204659D01*
X33500000Y30204659D01*
X33500003Y30204659D01*
X33696126Y30223975D01*
X33696127Y30223976D01*
X33696132Y30223976D01*
X33884727Y30281186D01*
X34058538Y30374090D01*
X34210883Y30499117D01*
X34335910Y30651462D01*
X34428814Y30825273D01*
X34486024Y31013868D01*
X34492761Y31082264D01*
X34505341Y31209997D01*
X34505341Y31210004D01*
X34486025Y31406127D01*
X34486024Y31406130D01*
X34486024Y31406132D01*
X34428814Y31594727D01*
X34335910Y31768538D01*
X34306980Y31803789D01*
X34210887Y31920879D01*
X34210878Y31920888D01*
X34058542Y32045907D01*
X34058540Y32045908D01*
X34058538Y32045910D01*
X34017618Y32067782D01*
X33884732Y32138812D01*
X33884730Y32138813D01*
X33696129Y32196025D01*
X33696126Y32196026D01*
X33500003Y32215341D01*
X33499997Y32215341D01*
X33303873Y32196026D01*
X33303870Y32196025D01*
X33115269Y32138813D01*
X33115267Y32138812D01*
X32941467Y32045913D01*
X32941457Y32045907D01*
X32789121Y31920888D01*
X32789112Y31920879D01*
X32664093Y31768543D01*
X32664087Y31768533D01*
X32571188Y31594733D01*
X32571186Y31594728D01*
X32544199Y31505762D01*
X32509214Y31455565D01*
X32451406Y31435519D01*
X32449462Y31435500D01*
X32004414Y31435500D01*
X31946223Y31454407D01*
X31934410Y31464496D01*
X29521170Y33877735D01*
X29521170Y33877736D01*
X29457736Y33941170D01*
X29453336Y33942993D01*
X29433458Y33951227D01*
X29433458Y33951228D01*
X29399128Y33965447D01*
X29374855Y33975501D01*
X29285145Y33975501D01*
X29273622Y33975501D01*
X29273614Y33975500D01*
X25929240Y33975500D01*
X25871049Y33994407D01*
X25835085Y34043907D01*
X25831276Y34060220D01*
X25827866Y34083625D01*
X25772826Y34196211D01*
X25684211Y34284826D01*
X25571625Y34339866D01*
X25571626Y34339866D01*
X25553377Y34342525D01*
X25498636Y34350500D01*
X24377364Y34350500D01*
X24333570Y34344120D01*
X24304373Y34339866D01*
X24191790Y34284827D01*
X24103173Y34196210D01*
X24048134Y34083627D01*
X24044725Y34060228D01*
X24037500Y34010636D01*
X8338500Y34010636D01*
X8327866Y34083625D01*
X8272826Y34196211D01*
X8184211Y34284826D01*
X8071625Y34339866D01*
X8071626Y34339866D01*
X8053377Y34342525D01*
X7998636Y34350500D01*
X6877364Y34350500D01*
X6833570Y34344120D01*
X6804373Y34339866D01*
X6691790Y34284827D01*
X6603171Y34196208D01*
X6556270Y34100270D01*
X6513727Y34056296D01*
X6453461Y34045727D01*
X6422386Y34055541D01*
X6359662Y34087500D01*
X6359663Y34087500D01*
X6250000Y34104869D01*
X6140338Y34087500D01*
X6041413Y34037095D01*
X5962905Y33958587D01*
X5912500Y33859662D01*
X5912500Y33859661D01*
X5895131Y33750000D01*
X-1000000Y33750000D01*
X-1000000Y33815826D01*
X-1015856Y33875000D01*
X-450001Y33875000D01*
X-450000Y33875001D01*
X-450000Y34619698D01*
X-450001Y34619701D01*
X-461604Y34678037D01*
X-505807Y34744190D01*
X-505811Y34744194D01*
X-571964Y34788397D01*
X-630300Y34800000D01*
X-1374999Y34800000D01*
X-1375000Y34799999D01*
X-1375000Y34234145D01*
X-1434174Y34250000D01*
X-1565826Y34250000D01*
X-1625000Y34234145D01*
X-1625000Y34799999D01*
X-1625001Y34800000D01*
X-2369701Y34800000D01*
X-2428037Y34788397D01*
X-2494190Y34744194D01*
X-2494194Y34744190D01*
X-2538397Y34678037D01*
X-2550000Y34619701D01*
X-3500000Y34619701D01*
X-3500000Y34991547D01*
X6488000Y34991547D01*
X6503760Y34892035D01*
X6503762Y34892031D01*
X6564881Y34772079D01*
X6660078Y34676882D01*
X6780030Y34615763D01*
X6780029Y34615763D01*
X6879545Y34600001D01*
X7312998Y34600001D01*
X7313000Y34600002D01*
X7313000Y35124999D01*
X7563000Y35124999D01*
X7563000Y34600002D01*
X7563001Y34600001D01*
X7996453Y34600001D01*
X8095965Y34615761D01*
X8095969Y34615763D01*
X8215921Y34676882D01*
X8311118Y34772079D01*
X8372237Y34892031D01*
X8388000Y34991547D01*
X8388000Y35124999D01*
X8387999Y35125000D01*
X7563001Y35125000D01*
X7563000Y35124999D01*
X7313000Y35124999D01*
X7312999Y35125000D01*
X6488002Y35125000D01*
X6488001Y35124999D01*
X6488001Y34991547D01*
X6488000Y34991547D01*
X-3500000Y34991547D01*
X-3500000Y35508454D01*
X6488000Y35508454D01*
X6488000Y35375001D01*
X6488001Y35375000D01*
X7312999Y35375000D01*
X7313000Y35375001D01*
X7313000Y35899999D01*
X7563000Y35899999D01*
X7563000Y35375001D01*
X7563001Y35375000D01*
X8387998Y35375000D01*
X8387999Y35375001D01*
X8387999Y35508454D01*
X8387653Y35510636D01*
X24037500Y35510636D01*
X24037500Y34989364D01*
X24048134Y34916375D01*
X24103174Y34803789D01*
X24191789Y34715174D01*
X24304375Y34660134D01*
X24377364Y34649500D01*
X24377367Y34649500D01*
X25498632Y34649500D01*
X25498636Y34649500D01*
X25571625Y34660134D01*
X25684211Y34715174D01*
X25772826Y34803789D01*
X25827866Y34916375D01*
X25831275Y34939775D01*
X25858373Y34994629D01*
X25912540Y35023081D01*
X25929240Y35024500D01*
X30365587Y35024500D01*
X30423778Y35005593D01*
X30435590Y34995505D01*
X31872264Y33558830D01*
X31872265Y33558830D01*
X31872266Y33558829D01*
X31955143Y33524500D01*
X31955145Y33524500D01*
X32044854Y33524500D01*
X32400500Y33524500D01*
X32458691Y33505593D01*
X32494655Y33456093D01*
X32499500Y33425500D01*
X32499500Y32885173D01*
X32508232Y32841280D01*
X32508233Y32841278D01*
X32541496Y32791496D01*
X32591278Y32758233D01*
X32602327Y32756036D01*
X32635172Y32749501D01*
X32635178Y32749501D01*
X32635180Y32749500D01*
X32635181Y32749500D01*
X34364819Y32749500D01*
X34364820Y32749500D01*
X34364821Y32749501D01*
X34364827Y32749501D01*
X34386623Y32753838D01*
X34408722Y32758233D01*
X34458504Y32791496D01*
X34491767Y32841278D01*
X34496162Y32863377D01*
X34500499Y32885173D01*
X34500500Y32885182D01*
X34500500Y34614819D01*
X34500499Y34614828D01*
X34491767Y34658721D01*
X34491765Y34658725D01*
X34458505Y34708502D01*
X34458504Y34708504D01*
X34448522Y34715174D01*
X34408724Y34741766D01*
X34408720Y34741768D01*
X34364827Y34750500D01*
X34364820Y34750500D01*
X32635180Y34750500D01*
X32635172Y34750500D01*
X32591279Y34741768D01*
X32591275Y34741766D01*
X32541498Y34708506D01*
X32541494Y34708502D01*
X32508234Y34658725D01*
X32508232Y34658721D01*
X32499500Y34614828D01*
X32499500Y34074500D01*
X32480593Y34016309D01*
X32431093Y33980345D01*
X32400500Y33975500D01*
X32134414Y33975500D01*
X32076223Y33994407D01*
X32064410Y34004496D01*
X30691170Y35377735D01*
X30691170Y35377736D01*
X30627736Y35441170D01*
X30603460Y35451226D01*
X30603458Y35451227D01*
X30603458Y35451228D01*
X30569128Y35465447D01*
X30544855Y35475501D01*
X30455145Y35475501D01*
X30443622Y35475501D01*
X30443614Y35475500D01*
X25929240Y35475500D01*
X25871049Y35494407D01*
X25835085Y35543907D01*
X25831276Y35560220D01*
X25827866Y35583625D01*
X25772826Y35696211D01*
X25684211Y35784826D01*
X25605881Y35823119D01*
X25571625Y35839866D01*
X25571626Y35839866D01*
X25553377Y35842525D01*
X25498636Y35850500D01*
X24377364Y35850500D01*
X24333570Y35844120D01*
X24304373Y35839866D01*
X24191790Y35784827D01*
X24103173Y35696210D01*
X24048134Y35583627D01*
X24048134Y35583625D01*
X24037500Y35510636D01*
X8387653Y35510636D01*
X8372239Y35607966D01*
X8372237Y35607970D01*
X8311118Y35727922D01*
X8215921Y35823119D01*
X8095969Y35884238D01*
X8095970Y35884238D01*
X7996454Y35900000D01*
X7563001Y35900000D01*
X7563000Y35899999D01*
X7313000Y35899999D01*
X7312999Y35900000D01*
X6879547Y35900000D01*
X6879546Y35899999D01*
X6780034Y35884240D01*
X6780030Y35884238D01*
X6660078Y35823119D01*
X6564881Y35727922D01*
X6503762Y35607970D01*
X6488000Y35508454D01*
X-3500000Y35508454D01*
X-3500000Y38999317D01*
X-3499992Y39000612D01*
X-3498713Y39098421D01*
X-1250500Y39098421D01*
X-1250500Y38901580D01*
X-1219711Y38707179D01*
X-1219709Y38707174D01*
X-1158884Y38519975D01*
X-1069524Y38344595D01*
X-953828Y38185354D01*
X-814646Y38046172D01*
X-655405Y37930476D01*
X-480025Y37841116D01*
X-292826Y37780291D01*
X-292825Y37780291D01*
X-292822Y37780290D01*
X-98420Y37749500D01*
X-98417Y37749500D01*
X98420Y37749500D01*
X292821Y37780290D01*
X292822Y37780291D01*
X292826Y37780291D01*
X480025Y37841116D01*
X655405Y37930476D01*
X814646Y38046172D01*
X953828Y38185354D01*
X1069524Y38344595D01*
X1158884Y38519975D01*
X1219709Y38707174D01*
X1250500Y38901583D01*
X1250500Y39098417D01*
X1250500Y39098421D01*
X1219710Y39292822D01*
X1219709Y39292826D01*
X1158884Y39480025D01*
X1069524Y39655405D01*
X953828Y39814646D01*
X814646Y39953828D01*
X655405Y40069524D01*
X655404Y40069525D01*
X655402Y40069526D01*
X480025Y40158884D01*
X292821Y40219711D01*
X98420Y40250500D01*
X98417Y40250500D01*
X-98417Y40250500D01*
X-98420Y40250500D01*
X-292822Y40219711D01*
X-480026Y40158884D01*
X-655403Y40069526D01*
X-814645Y39953829D01*
X-953829Y39814645D01*
X-1069526Y39655403D01*
X-1158884Y39480026D01*
X-1219711Y39292822D01*
X-1250500Y39098421D01*
X-3498713Y39098421D01*
X-3497662Y39178780D01*
X-3497129Y39187804D01*
X-3459823Y39542749D01*
X-3458206Y39552958D01*
X-3384135Y39901432D01*
X-3381457Y39911422D01*
X-3271374Y40250218D01*
X-3267661Y40259892D01*
X-3122766Y40585336D01*
X-3118074Y40594542D01*
X-2939952Y40903058D01*
X-2934325Y40911724D01*
X-2724912Y41199957D01*
X-2718416Y41207978D01*
X-2480035Y41472727D01*
X-2472727Y41480035D01*
X-2207978Y41718416D01*
X-2199957Y41724912D01*
X-1911724Y41934325D01*
X-1903058Y41939952D01*
X-1594542Y42118074D01*
X-1585336Y42122766D01*
X-1259890Y42267662D01*
X-1250218Y42271374D01*
X-911422Y42381457D01*
X-901432Y42384135D01*
X-552958Y42458206D01*
X-542749Y42459823D01*
X-187804Y42497129D01*
X-178780Y42497662D01*
X-612Y42499993D01*
X683Y42500000D01*
X7098993Y42500000D01*
X7157184Y42481093D01*
G37*
%TD.AperFunction*%
%TD*%
M02*
