%TF.GenerationSoftware,KiCad,Pcbnew,8.0.0*%
%TF.CreationDate,2024-03-01T21:25:54+00:00*%
%TF.ProjectId,Microll,4d696372-6f6c-46c2-9e6b-696361645f70,rev?*%
%TF.SameCoordinates,PX564eba0PY53724e0*%
%TF.FileFunction,Soldermask,Top*%
%TF.FilePolarity,Negative*%
%FSLAX46Y46*%
G04 Gerber Fmt 4.6, Leading zero omitted, Abs format (unit mm)*
G04 Created by KiCad (PCBNEW 8.0.0) date 2024-03-01 21:25:54*
%MOMM*%
%LPD*%
G01*
G04 APERTURE LIST*
G04 Aperture macros list*
%AMRoundRect*
0 Rectangle with rounded corners*
0 $1 Rounding radius*
0 $2 $3 $4 $5 $6 $7 $8 $9 X,Y pos of 4 corners*
0 Add a 4 corners polygon primitive as box body*
4,1,4,$2,$3,$4,$5,$6,$7,$8,$9,$2,$3,0*
0 Add four circle primitives for the rounded corners*
1,1,$1+$1,$2,$3*
1,1,$1+$1,$4,$5*
1,1,$1+$1,$6,$7*
1,1,$1+$1,$8,$9*
0 Add four rect primitives between the rounded corners*
20,1,$1+$1,$2,$3,$4,$5,0*
20,1,$1+$1,$4,$5,$6,$7,0*
20,1,$1+$1,$6,$7,$8,$9,0*
20,1,$1+$1,$8,$9,$2,$3,0*%
%AMOutline5P*
0 Free polygon, 5 corners , with rotation*
0 The origin of the aperture is its center*
0 number of corners: always 5*
0 $1 to $10 corner X, Y*
0 $11 Rotation angle, in degrees counterclockwise*
0 create outline with 5 corners*
4,1,5,$1,$2,$3,$4,$5,$6,$7,$8,$9,$10,$1,$2,$11*%
%AMOutline6P*
0 Free polygon, 6 corners , with rotation*
0 The origin of the aperture is its center*
0 number of corners: always 6*
0 $1 to $12 corner X, Y*
0 $13 Rotation angle, in degrees counterclockwise*
0 create outline with 6 corners*
4,1,6,$1,$2,$3,$4,$5,$6,$7,$8,$9,$10,$11,$12,$1,$2,$13*%
%AMOutline7P*
0 Free polygon, 7 corners , with rotation*
0 The origin of the aperture is its center*
0 number of corners: always 7*
0 $1 to $14 corner X, Y*
0 $15 Rotation angle, in degrees counterclockwise*
0 create outline with 7 corners*
4,1,7,$1,$2,$3,$4,$5,$6,$7,$8,$9,$10,$11,$12,$13,$14,$1,$2,$15*%
%AMOutline8P*
0 Free polygon, 8 corners , with rotation*
0 The origin of the aperture is its center*
0 number of corners: always 8*
0 $1 to $16 corner X, Y*
0 $17 Rotation angle, in degrees counterclockwise*
0 create outline with 8 corners*
4,1,8,$1,$2,$3,$4,$5,$6,$7,$8,$9,$10,$11,$12,$13,$14,$15,$16,$1,$2,$17*%
%AMFreePoly0*
4,1,18,-0.275000,0.075000,-0.269291,0.103701,-0.253033,0.128033,-0.228701,0.144291,-0.200000,0.150000,0.200000,0.150000,0.228701,0.144291,0.253033,0.128033,0.269291,0.103701,0.275000,0.075000,0.275000,-0.075000,0.200000,-0.150000,-0.200000,-0.150000,-0.228701,-0.144291,-0.253033,-0.128033,-0.269291,-0.103701,-0.275000,-0.075000,-0.275000,0.075000,-0.275000,0.075000,$1*%
G04 Aperture macros list end*
%ADD10RoundRect,0.135000X-0.185000X0.135000X-0.185000X-0.135000X0.185000X-0.135000X0.185000X0.135000X0*%
%ADD11RoundRect,0.225000X0.375000X-0.225000X0.375000X0.225000X-0.375000X0.225000X-0.375000X-0.225000X0*%
%ADD12R,1.700000X1.700000*%
%ADD13O,1.700000X1.700000*%
%ADD14C,2.200000*%
%ADD15RoundRect,0.225000X-0.525000X-0.225000X0.525000X-0.225000X0.525000X0.225000X-0.525000X0.225000X0*%
%ADD16RoundRect,0.175000X-0.175000X-0.175000X0.175000X-0.175000X0.175000X0.175000X-0.175000X0.175000X0*%
%ADD17C,0.475000*%
%ADD18R,3.000000X3.000000*%
%ADD19RoundRect,0.225000X0.225000X0.250000X-0.225000X0.250000X-0.225000X-0.250000X0.225000X-0.250000X0*%
%ADD20RoundRect,0.135000X-0.135000X-0.185000X0.135000X-0.185000X0.135000X0.185000X-0.135000X0.185000X0*%
%ADD21RoundRect,0.140000X0.140000X0.170000X-0.140000X0.170000X-0.140000X-0.170000X0.140000X-0.170000X0*%
%ADD22R,2.650000X0.760000*%
%ADD23RoundRect,0.135000X0.185000X-0.135000X0.185000X0.135000X-0.185000X0.135000X-0.185000X-0.135000X0*%
%ADD24RoundRect,0.140000X0.170000X-0.140000X0.170000X0.140000X-0.170000X0.140000X-0.170000X-0.140000X0*%
%ADD25RoundRect,0.140000X-0.170000X0.140000X-0.170000X-0.140000X0.170000X-0.140000X0.170000X0.140000X0*%
%ADD26C,0.650000*%
%ADD27RoundRect,0.150000X0.425000X-0.150000X0.425000X0.150000X-0.425000X0.150000X-0.425000X-0.150000X0*%
%ADD28RoundRect,0.075000X0.500000X-0.075000X0.500000X0.075000X-0.500000X0.075000X-0.500000X-0.075000X0*%
%ADD29O,2.100000X1.000000*%
%ADD30O,1.800000X1.000000*%
%ADD31RoundRect,0.093750X-0.106250X0.093750X-0.106250X-0.093750X0.106250X-0.093750X0.106250X0.093750X0*%
%ADD32R,1.600000X1.000000*%
%ADD33R,0.500000X0.375000*%
%ADD34R,0.650000X0.300000*%
%ADD35RoundRect,0.125000X-0.125000X-0.125000X0.125000X-0.125000X0.125000X0.125000X-0.125000X0.125000X0*%
%ADD36RoundRect,0.300000X0.450000X-0.300000X0.450000X0.300000X-0.450000X0.300000X-0.450000X-0.300000X0*%
%ADD37FreePoly0,0.000000*%
%ADD38RoundRect,0.075000X-0.200000X-0.075000X0.200000X-0.075000X0.200000X0.075000X-0.200000X0.075000X0*%
%ADD39RoundRect,0.075000X0.075000X-0.200000X0.075000X0.200000X-0.075000X0.200000X-0.075000X-0.200000X0*%
%ADD40RoundRect,0.075000X0.200000X0.075000X-0.200000X0.075000X-0.200000X-0.075000X0.200000X-0.075000X0*%
%ADD41Outline5P,-2.800000X2.520000X-2.520000X2.800000X2.800000X2.800000X2.800000X-2.800000X-2.800000X-2.800000X0.000000*%
%ADD42R,0.500000X0.850000*%
%ADD43RoundRect,0.087500X0.087500X-0.225000X0.087500X0.225000X-0.087500X0.225000X-0.087500X-0.225000X0*%
%ADD44RoundRect,0.087500X0.225000X-0.087500X0.225000X0.087500X-0.225000X0.087500X-0.225000X-0.087500X0*%
G04 APERTURE END LIST*
D10*
%TO.C,R7*%
X24779000Y6450000D03*
X24779000Y5430000D03*
%TD*%
D11*
%TO.C,D2*%
X20250000Y8645000D03*
X20250000Y11945000D03*
%TD*%
D12*
%TO.C,J1*%
X-1500000Y33750000D03*
D13*
X-1500000Y31210000D03*
X-1500000Y28670000D03*
X-1500000Y26130000D03*
X-1500000Y23590000D03*
X-1500000Y21050000D03*
X-1500000Y18510000D03*
X-1500000Y15970000D03*
X-1500000Y13430000D03*
X-1500000Y10890000D03*
X-1500000Y8350000D03*
X-1500000Y5810000D03*
%TD*%
D14*
%TO.C,H3*%
X0Y39000000D03*
%TD*%
D15*
%TO.C,U1*%
X7438000Y35250000D03*
X7438000Y33750000D03*
X7438000Y32250000D03*
X7438000Y30750000D03*
X7438000Y29250000D03*
X7438000Y27750000D03*
X7438000Y26250000D03*
X7438000Y24750000D03*
X7438000Y23250000D03*
X24938000Y23250000D03*
X24938000Y24750000D03*
X24938000Y26250000D03*
X24938000Y27750000D03*
X24938000Y29250000D03*
X24938000Y30750000D03*
X24938000Y32250000D03*
X24938000Y33750000D03*
X24938000Y35250000D03*
D16*
X15688000Y30200000D03*
D17*
X15688000Y29650000D03*
D16*
X15688000Y29100000D03*
D17*
X15688000Y28550000D03*
D16*
X15688000Y28000000D03*
D17*
X16238000Y30200000D03*
X16238000Y29100000D03*
X16238000Y28000000D03*
D16*
X16788000Y30200000D03*
D17*
X16788000Y29650000D03*
D16*
X16788000Y29100000D03*
D18*
X16788000Y29100000D03*
D17*
X16788000Y28550000D03*
D16*
X16788000Y28000000D03*
D17*
X17338000Y30200000D03*
X17338000Y29100000D03*
X17338000Y28000000D03*
D16*
X17888000Y30200000D03*
D17*
X17888000Y29650000D03*
D16*
X17888000Y29100000D03*
D17*
X17888000Y28550000D03*
D16*
X17888000Y28000000D03*
%TD*%
D14*
%TO.C,H1*%
X0Y0D03*
%TD*%
D19*
%TO.C,C4*%
X4490804Y8983000D03*
X2940804Y8983000D03*
%TD*%
D20*
%TO.C,R3*%
X5004000Y13000000D03*
X6024000Y13000000D03*
%TD*%
D14*
%TO.C,H4*%
X32000000Y39000000D03*
%TD*%
D21*
%TO.C,C1*%
X4449804Y4250000D03*
X3489804Y4250000D03*
%TD*%
D12*
%TO.C,J3*%
X33500000Y33750000D03*
D13*
X33500000Y31210000D03*
X33500000Y28670000D03*
X33500000Y26130000D03*
X33500000Y23590000D03*
X33500000Y21050000D03*
X33500000Y18510000D03*
X33500000Y15970000D03*
%TD*%
D20*
%TO.C,R2*%
X5004000Y11750000D03*
X6024000Y11750000D03*
%TD*%
D22*
%TO.C,SW4*%
X5875000Y19020000D03*
X5875000Y17750000D03*
X5875000Y16480000D03*
X11125000Y16480000D03*
X11125000Y17750000D03*
X11125000Y19020000D03*
%TD*%
D14*
%TO.C,H2*%
X32000000Y0D03*
%TD*%
D23*
%TO.C,R6*%
X24779000Y10510000D03*
X24779000Y11530000D03*
%TD*%
D21*
%TO.C,C8*%
X6947804Y5173000D03*
X5987804Y5173000D03*
%TD*%
D24*
%TO.C,C6*%
X18470000Y16474000D03*
X18470000Y17434000D03*
%TD*%
D25*
%TO.C,C5*%
X6975804Y7431000D03*
X6975804Y6471000D03*
%TD*%
%TO.C,C2*%
X5705804Y7431000D03*
X5705804Y6471000D03*
%TD*%
D21*
%TO.C,C3*%
X6947804Y8729000D03*
X5987804Y8729000D03*
%TD*%
D12*
%TO.C,J2*%
X4600000Y1040000D03*
D13*
X4600000Y-1500000D03*
X7140000Y1040000D03*
X7140000Y-1500000D03*
X9680000Y1040000D03*
X9680000Y-1500000D03*
X12220000Y1040000D03*
X12220000Y-1500000D03*
X14760000Y1040000D03*
X14760000Y-1500000D03*
X17300000Y1040000D03*
X17300000Y-1500000D03*
X19840000Y1040000D03*
X19840000Y-1500000D03*
X22380000Y1040000D03*
X22380000Y-1500000D03*
X24920000Y1040000D03*
X24920000Y-1500000D03*
X27460000Y1040000D03*
X27460000Y-1500000D03*
%TD*%
D26*
%TO.C,J6*%
X29115000Y5619500D03*
X29115000Y11399500D03*
D27*
X28040000Y5309500D03*
X28040000Y6109500D03*
D28*
X28040000Y7259500D03*
X28040000Y8259500D03*
X28040000Y8759500D03*
X28040000Y9759500D03*
D27*
X28040000Y10909500D03*
X28040000Y11709500D03*
X28040000Y11709500D03*
X28040000Y10909500D03*
D28*
X28040000Y10259500D03*
X28040000Y9259500D03*
X28040000Y7759500D03*
X28040000Y6759500D03*
D27*
X28040000Y6109500D03*
X28040000Y5309500D03*
D29*
X28615000Y4189500D03*
D30*
X32795000Y4189500D03*
D29*
X28615000Y12829500D03*
D30*
X32795000Y12829500D03*
%TD*%
D31*
%TO.C,U2*%
X4323804Y7330500D03*
X3673804Y7330500D03*
X3023804Y7330500D03*
X3023804Y5555500D03*
X3673804Y5555500D03*
X4323804Y5555500D03*
D32*
X3673804Y6443000D03*
%TD*%
D33*
%TO.C,U4*%
X24525000Y7972000D03*
D34*
X24600000Y8509500D03*
D33*
X24525000Y9047000D03*
X22825000Y9047000D03*
D34*
X22750000Y8509500D03*
D33*
X22825000Y7972000D03*
%TD*%
D23*
%TO.C,R4*%
X13644000Y16472000D03*
X13644000Y17492000D03*
%TD*%
D20*
%TO.C,R1*%
X5004000Y10538000D03*
X6024000Y10538000D03*
%TD*%
D35*
%TO.C,D3*%
X19900000Y5750000D03*
X22100000Y5750000D03*
%TD*%
D36*
%TO.C,U5*%
X20500000Y15500000D03*
X20500000Y18000000D03*
X20500000Y20500000D03*
X27000000Y15500000D03*
X27000000Y18000000D03*
X27000000Y20500000D03*
%TD*%
D37*
%TO.C,U3*%
X8236804Y10500000D03*
D38*
X8236804Y10000000D03*
X8236804Y9500000D03*
X8236804Y9000000D03*
X8236804Y8500000D03*
X8236804Y8000000D03*
X8236804Y7500000D03*
X8236804Y7000000D03*
X8236804Y6500000D03*
X8236804Y6000000D03*
X8236804Y5500000D03*
X8236804Y5000000D03*
D39*
X8861804Y4375000D03*
X9361804Y4375000D03*
X9861804Y4375000D03*
X10361804Y4375000D03*
X10861804Y4375000D03*
X11361804Y4375000D03*
X11861804Y4375000D03*
X12361804Y4375000D03*
X12861804Y4375000D03*
X13361804Y4375000D03*
X13861804Y4375000D03*
X14361804Y4375000D03*
D40*
X14986804Y5000000D03*
X14986804Y5500000D03*
X14986804Y6000000D03*
X14986804Y6500000D03*
X14986804Y7000000D03*
X14986804Y7500000D03*
X14986804Y8000000D03*
X14986804Y8500000D03*
X14986804Y9000000D03*
X14986804Y9500000D03*
X14986804Y10000000D03*
X14986804Y10500000D03*
D39*
X14361804Y11125000D03*
X13861804Y11125000D03*
X13361804Y11125000D03*
X12861804Y11125000D03*
X12361804Y11125000D03*
X11861804Y11125000D03*
X11361804Y11125000D03*
X10861804Y11125000D03*
X10361804Y11125000D03*
X9861804Y11125000D03*
X9361804Y11125000D03*
X8861804Y11100000D03*
D41*
X11611804Y7750000D03*
%TD*%
D25*
%TO.C,C7*%
X18470000Y19720000D03*
X18470000Y18760000D03*
%TD*%
D42*
%TO.C,D1*%
X2868000Y12893000D03*
X2868000Y11143000D03*
X3868000Y11143000D03*
X3868000Y12893000D03*
%TD*%
D43*
%TO.C,U6*%
X15250000Y16837500D03*
X15750000Y16837500D03*
X16250000Y16837500D03*
X16750000Y16837500D03*
D44*
X16912500Y17500000D03*
X16912500Y18000000D03*
X16912500Y18500000D03*
D43*
X16750000Y19162500D03*
X16250000Y19162500D03*
X15750000Y19162500D03*
X15250000Y19162500D03*
D44*
X15087500Y18500000D03*
X15087500Y18000000D03*
X15087500Y17500000D03*
%TD*%
D10*
%TO.C,R5*%
X13644000Y19778000D03*
X13644000Y18758000D03*
%TD*%
M02*
