%TF.GenerationSoftware,KiCad,Pcbnew,8.0.0*%
%TF.CreationDate,2024-03-01T21:25:41+00:00*%
%TF.ProjectId,Microll,4d696372-6f6c-46c2-9e6b-696361645f70,rev?*%
%TF.SameCoordinates,PX564eba0PY53724e0*%
%TF.FileFunction,Drillmap*%
%TF.FilePolarity,Positive*%
%FSLAX45Y45*%
G04 Gerber Fmt 4.5, Leading zero omitted, Abs format (unit mm)*
G04 Created by KiCad (PCBNEW 8.0.0) date 2024-03-01 21:25:41*
%MOMM*%
%LPD*%
G01*
G04 APERTURE LIST*
%ADD10C,0.100000*%
%ADD11C,0.200000*%
G04 APERTURE END LIST*
D10*
X0Y4250000D02*
X3200000Y4250000D01*
X3200000Y4250000D02*
G75*
G02*
X3550000Y3900000I0J-350000D01*
G01*
X3550000Y0D02*
G75*
G02*
X3200000Y-350000I-350000J0D01*
G01*
X-350000Y0D02*
X-350000Y3900000D01*
X3550000Y3900000D02*
X3550000Y0D01*
X3200000Y-350000D02*
X0Y-350000D01*
X0Y-350000D02*
G75*
G02*
X-350000Y0I0J350000D01*
G01*
X-350000Y3900000D02*
G75*
G02*
X0Y4250000I350000J0D01*
G01*
D11*
D10*
X115000Y1602500D02*
X135000Y1582500D01*
X135000Y1602500D02*
X115000Y1582500D01*
X115000Y435000D02*
X135000Y415000D01*
X135000Y435000D02*
X115000Y415000D01*
X190000Y1210000D02*
X210000Y1190000D01*
X210000Y1210000D02*
X190000Y1190000D01*
X284080Y835000D02*
X304080Y815000D01*
X304080Y835000D02*
X284080Y815000D01*
X340000Y510000D02*
X360000Y490000D01*
X360000Y510000D02*
X340000Y490000D01*
X590000Y2010000D02*
X610000Y1990000D01*
X610000Y2010000D02*
X590000Y1990000D01*
X590000Y960000D02*
X610000Y940000D01*
X610000Y960000D02*
X590000Y940000D01*
X590000Y585000D02*
X610000Y565000D01*
X610000Y585000D02*
X590000Y565000D01*
X615000Y3385000D02*
X635000Y3365000D01*
X635000Y3385000D02*
X615000Y3365000D01*
X615000Y660000D02*
X635000Y640000D01*
X635000Y660000D02*
X615000Y640000D01*
X740000Y1785000D02*
X760000Y1765000D01*
X760000Y1785000D02*
X740000Y1765000D01*
X751180Y655890D02*
X771180Y635890D01*
X771180Y655890D02*
X751180Y635890D01*
X757595Y739993D02*
X777595Y719993D01*
X777595Y739993D02*
X757595Y719993D01*
X815000Y1610000D02*
X835000Y1590000D01*
X835000Y1610000D02*
X815000Y1590000D01*
X815000Y1348212D02*
X835000Y1328212D01*
X835000Y1348212D02*
X815000Y1328212D01*
X840000Y2335000D02*
X860000Y2315000D01*
X860000Y2335000D02*
X840000Y2315000D01*
X915000Y1785000D02*
X935000Y1765000D01*
X935000Y1785000D02*
X915000Y1765000D01*
X940000Y1660000D02*
X960000Y1640000D01*
X960000Y1660000D02*
X940000Y1640000D01*
X1059288Y1390712D02*
X1079288Y1370712D01*
X1079288Y1390712D02*
X1059288Y1370712D01*
X1071825Y1228175D02*
X1091825Y1208175D01*
X1091825Y1228175D02*
X1071825Y1208175D01*
X1090000Y2335000D02*
X1110000Y2315000D01*
X1110000Y2335000D02*
X1090000Y2315000D01*
X1109288Y1440712D02*
X1129288Y1420712D01*
X1129288Y1440712D02*
X1109288Y1420712D01*
X1121825Y1278175D02*
X1141825Y1258175D01*
X1141825Y1278175D02*
X1121825Y1258175D01*
X1140000Y1510000D02*
X1160000Y1490000D01*
X1160000Y1510000D02*
X1140000Y1490000D01*
X1171825Y1328175D02*
X1191825Y1308175D01*
X1191825Y1328175D02*
X1171825Y1308175D01*
X1190000Y1560000D02*
X1210000Y1540000D01*
X1210000Y1560000D02*
X1190000Y1540000D01*
X1221825Y1378175D02*
X1241825Y1358175D01*
X1241825Y1378175D02*
X1221825Y1358175D01*
X1222500Y2010000D02*
X1242500Y1990000D01*
X1242500Y2010000D02*
X1222500Y1990000D01*
X1307500Y1585000D02*
X1327500Y1565000D01*
X1327500Y1585000D02*
X1307500Y1565000D01*
X1344091Y1821200D02*
X1364091Y1801200D01*
X1364091Y1821200D02*
X1344091Y1801200D01*
X1390000Y2335000D02*
X1410000Y2315000D01*
X1410000Y2335000D02*
X1390000Y2315000D01*
X1490000Y1110000D02*
X1510000Y1090000D01*
X1510000Y1110000D02*
X1490000Y1090000D01*
X1740000Y1860000D02*
X1760000Y1840000D01*
X1760000Y1860000D02*
X1740000Y1840000D01*
X1740000Y1810000D02*
X1760000Y1790000D01*
X1760000Y1810000D02*
X1740000Y1790000D01*
X1765000Y1910000D02*
X1785000Y1890000D01*
X1785000Y1910000D02*
X1765000Y1890000D01*
X1765000Y1735000D02*
X1785000Y1715000D01*
X1785000Y1735000D02*
X1765000Y1715000D01*
X2165000Y2335000D02*
X2185000Y2315000D01*
X2185000Y2335000D02*
X2165000Y2315000D01*
X2265000Y585000D02*
X2285000Y565000D01*
X2285000Y585000D02*
X2265000Y565000D01*
X2315000Y1735000D02*
X2335000Y1715000D01*
X2335000Y1735000D02*
X2315000Y1715000D01*
X2365000Y1160000D02*
X2385000Y1140000D01*
X2385000Y1160000D02*
X2365000Y1140000D01*
X2365000Y1085000D02*
X2385000Y1065000D01*
X2385000Y1085000D02*
X2365000Y1065000D01*
X2390000Y1735000D02*
X2410000Y1715000D01*
X2410000Y1735000D02*
X2390000Y1715000D01*
X2515000Y860000D02*
X2535000Y840000D01*
X2535000Y860000D02*
X2515000Y840000D01*
X2515000Y805000D02*
X2535000Y785000D01*
X2535000Y805000D02*
X2515000Y785000D01*
X2540000Y1160000D02*
X2560000Y1140000D01*
X2560000Y1160000D02*
X2540000Y1140000D01*
X2540000Y560000D02*
X2560000Y540000D01*
X2560000Y560000D02*
X2540000Y540000D01*
X2615000Y2335000D02*
X2635000Y2315000D01*
X2635000Y2335000D02*
X2615000Y2315000D01*
X2690000Y935000D02*
X2710000Y915000D01*
X2710000Y935000D02*
X2690000Y915000D01*
X322380Y644300D02*
G75*
G02*
X302380Y644300I-10000J0D01*
G01*
X302380Y644300D02*
G75*
G02*
X322380Y644300I10000J0D01*
G01*
X432380Y644300D02*
G75*
G02*
X412380Y644300I-10000J0D01*
G01*
X412380Y644300D02*
G75*
G02*
X432380Y644300I10000J0D01*
G01*
X1578800Y2965000D02*
G75*
G02*
X1558800Y2965000I-10000J0D01*
G01*
X1558800Y2965000D02*
G75*
G02*
X1578800Y2965000I10000J0D01*
G01*
X1578800Y2855000D02*
G75*
G02*
X1558800Y2855000I-10000J0D01*
G01*
X1558800Y2855000D02*
G75*
G02*
X1578800Y2855000I10000J0D01*
G01*
X1633800Y3020000D02*
G75*
G02*
X1613800Y3020000I-10000J0D01*
G01*
X1613800Y3020000D02*
G75*
G02*
X1633800Y3020000I10000J0D01*
G01*
X1633800Y2910000D02*
G75*
G02*
X1613800Y2910000I-10000J0D01*
G01*
X1613800Y2910000D02*
G75*
G02*
X1633800Y2910000I10000J0D01*
G01*
X1633800Y2800000D02*
G75*
G02*
X1613800Y2800000I-10000J0D01*
G01*
X1613800Y2800000D02*
G75*
G02*
X1633800Y2800000I10000J0D01*
G01*
X1688800Y2965000D02*
G75*
G02*
X1668800Y2965000I-10000J0D01*
G01*
X1668800Y2965000D02*
G75*
G02*
X1688800Y2965000I10000J0D01*
G01*
X1688800Y2855000D02*
G75*
G02*
X1668800Y2855000I-10000J0D01*
G01*
X1668800Y2855000D02*
G75*
G02*
X1688800Y2855000I10000J0D01*
G01*
X1743800Y3020000D02*
G75*
G02*
X1723800Y3020000I-10000J0D01*
G01*
X1723800Y3020000D02*
G75*
G02*
X1743800Y3020000I10000J0D01*
G01*
X1743800Y2910000D02*
G75*
G02*
X1723800Y2910000I-10000J0D01*
G01*
X1723800Y2910000D02*
G75*
G02*
X1743800Y2910000I10000J0D01*
G01*
X1743800Y2800000D02*
G75*
G02*
X1723800Y2800000I-10000J0D01*
G01*
X1723800Y2800000D02*
G75*
G02*
X1743800Y2800000I10000J0D01*
G01*
X1798800Y2965000D02*
G75*
G02*
X1778800Y2965000I-10000J0D01*
G01*
X1778800Y2965000D02*
G75*
G02*
X1798800Y2965000I10000J0D01*
G01*
X1798800Y2855000D02*
G75*
G02*
X1778800Y2855000I-10000J0D01*
G01*
X1778800Y2855000D02*
G75*
G02*
X1798800Y2855000I10000J0D01*
G01*
X277951Y257500D02*
X277951Y217500D01*
X257951Y237500D02*
X297951Y237500D01*
X519546Y445000D02*
X519546Y405000D01*
X499546Y425000D02*
X539546Y425000D01*
X2700000Y1170000D02*
X2700000Y1130000D01*
X2680000Y1150000D02*
X2720000Y1150000D01*
X2700000Y545000D02*
X2700000Y505000D01*
X2680000Y525000D02*
X2720000Y525000D01*
X2882713Y1261737D02*
X2882713Y1304163D01*
X2840287Y1304163D01*
X2840287Y1261737D01*
X2882713Y1261737D01*
X2806500Y1252950D02*
X2916500Y1252950D01*
X2916500Y1312950D02*
G75*
G02*
X2916500Y1252950I0J-30000D01*
G01*
X2916500Y1312950D02*
X2806500Y1312950D01*
X2806500Y1312950D02*
G75*
G03*
X2806500Y1252950I0J-30000D01*
G01*
X2882713Y397737D02*
X2882713Y440163D01*
X2840287Y440163D01*
X2840287Y397737D01*
X2882713Y397737D01*
X2806500Y388950D02*
X2916500Y388950D01*
X2916500Y448950D02*
G75*
G02*
X2916500Y388950I0J-30000D01*
G01*
X2916500Y448950D02*
X2806500Y448950D01*
X2806500Y448950D02*
G75*
G03*
X2806500Y388950I0J-30000D01*
G01*
X3300713Y1261737D02*
X3300713Y1304163D01*
X3258287Y1304163D01*
X3258287Y1261737D01*
X3300713Y1261737D01*
X3239500Y1252950D02*
X3319500Y1252950D01*
X3319500Y1312950D02*
G75*
G02*
X3319500Y1252950I0J-30000D01*
G01*
X3319500Y1312950D02*
X3239500Y1312950D01*
X3239500Y1312950D02*
G75*
G03*
X3239500Y1252950I0J-30000D01*
G01*
X3300713Y397737D02*
X3300713Y440163D01*
X3258287Y440163D01*
X3258287Y397737D01*
X3300713Y397737D01*
X3239500Y388950D02*
X3319500Y388950D01*
X3319500Y448950D02*
G75*
G02*
X3319500Y388950I0J-30000D01*
G01*
X3319500Y448950D02*
X3239500Y448950D01*
X3239500Y448950D02*
G75*
G03*
X3239500Y388950I0J-30000D01*
G01*
X-150000Y3325000D02*
X-100000Y3375000D01*
X-150000Y3425000D01*
X-200000Y3375000D01*
X-150000Y3325000D01*
X-150000Y3071000D02*
X-100000Y3121000D01*
X-150000Y3171000D01*
X-200000Y3121000D01*
X-150000Y3071000D01*
X-150000Y2817000D02*
X-100000Y2867000D01*
X-150000Y2917000D01*
X-200000Y2867000D01*
X-150000Y2817000D01*
X-150000Y2563000D02*
X-100000Y2613000D01*
X-150000Y2663000D01*
X-200000Y2613000D01*
X-150000Y2563000D01*
X-150000Y2309000D02*
X-100000Y2359000D01*
X-150000Y2409000D01*
X-200000Y2359000D01*
X-150000Y2309000D01*
X-150000Y2055000D02*
X-100000Y2105000D01*
X-150000Y2155000D01*
X-200000Y2105000D01*
X-150000Y2055000D01*
X-150000Y1801000D02*
X-100000Y1851000D01*
X-150000Y1901000D01*
X-200000Y1851000D01*
X-150000Y1801000D01*
X-150000Y1547000D02*
X-100000Y1597000D01*
X-150000Y1647000D01*
X-200000Y1597000D01*
X-150000Y1547000D01*
X-150000Y1293000D02*
X-100000Y1343000D01*
X-150000Y1393000D01*
X-200000Y1343000D01*
X-150000Y1293000D01*
X-150000Y1039000D02*
X-100000Y1089000D01*
X-150000Y1139000D01*
X-200000Y1089000D01*
X-150000Y1039000D01*
X-150000Y785000D02*
X-100000Y835000D01*
X-150000Y885000D01*
X-200000Y835000D01*
X-150000Y785000D01*
X-150000Y531000D02*
X-100000Y581000D01*
X-150000Y631000D01*
X-200000Y581000D01*
X-150000Y531000D01*
X460000Y54000D02*
X510000Y104000D01*
X460000Y154000D01*
X410000Y104000D01*
X460000Y54000D01*
X460000Y-200000D02*
X510000Y-150000D01*
X460000Y-100000D01*
X410000Y-150000D01*
X460000Y-200000D01*
X714000Y54000D02*
X764000Y104000D01*
X714000Y154000D01*
X664000Y104000D01*
X714000Y54000D01*
X714000Y-200000D02*
X764000Y-150000D01*
X714000Y-100000D01*
X664000Y-150000D01*
X714000Y-200000D01*
X968000Y54000D02*
X1018000Y104000D01*
X968000Y154000D01*
X918000Y104000D01*
X968000Y54000D01*
X968000Y-200000D02*
X1018000Y-150000D01*
X968000Y-100000D01*
X918000Y-150000D01*
X968000Y-200000D01*
X1222000Y54000D02*
X1272000Y104000D01*
X1222000Y154000D01*
X1172000Y104000D01*
X1222000Y54000D01*
X1222000Y-200000D02*
X1272000Y-150000D01*
X1222000Y-100000D01*
X1172000Y-150000D01*
X1222000Y-200000D01*
X1476000Y54000D02*
X1526000Y104000D01*
X1476000Y154000D01*
X1426000Y104000D01*
X1476000Y54000D01*
X1476000Y-200000D02*
X1526000Y-150000D01*
X1476000Y-100000D01*
X1426000Y-150000D01*
X1476000Y-200000D01*
X1730000Y54000D02*
X1780000Y104000D01*
X1730000Y154000D01*
X1680000Y104000D01*
X1730000Y54000D01*
X1730000Y-200000D02*
X1780000Y-150000D01*
X1730000Y-100000D01*
X1680000Y-150000D01*
X1730000Y-200000D01*
X1984000Y54000D02*
X2034000Y104000D01*
X1984000Y154000D01*
X1934000Y104000D01*
X1984000Y54000D01*
X1984000Y-200000D02*
X2034000Y-150000D01*
X1984000Y-100000D01*
X1934000Y-150000D01*
X1984000Y-200000D01*
X2238000Y54000D02*
X2288000Y104000D01*
X2238000Y154000D01*
X2188000Y104000D01*
X2238000Y54000D01*
X2238000Y-200000D02*
X2288000Y-150000D01*
X2238000Y-100000D01*
X2188000Y-150000D01*
X2238000Y-200000D01*
X2492000Y54000D02*
X2542000Y104000D01*
X2492000Y154000D01*
X2442000Y104000D01*
X2492000Y54000D01*
X2492000Y-200000D02*
X2542000Y-150000D01*
X2492000Y-100000D01*
X2442000Y-150000D01*
X2492000Y-200000D01*
X2746000Y54000D02*
X2796000Y104000D01*
X2746000Y154000D01*
X2696000Y104000D01*
X2746000Y54000D01*
X2746000Y-200000D02*
X2796000Y-150000D01*
X2746000Y-100000D01*
X2696000Y-150000D01*
X2746000Y-200000D01*
X3350000Y3325000D02*
X3400000Y3375000D01*
X3350000Y3425000D01*
X3300000Y3375000D01*
X3350000Y3325000D01*
X3350000Y3071000D02*
X3400000Y3121000D01*
X3350000Y3171000D01*
X3300000Y3121000D01*
X3350000Y3071000D01*
X3350000Y2817000D02*
X3400000Y2867000D01*
X3350000Y2917000D01*
X3300000Y2867000D01*
X3350000Y2817000D01*
X3350000Y2563000D02*
X3400000Y2613000D01*
X3350000Y2663000D01*
X3300000Y2613000D01*
X3350000Y2563000D01*
X3350000Y2309000D02*
X3400000Y2359000D01*
X3350000Y2409000D01*
X3300000Y2359000D01*
X3350000Y2309000D01*
X3350000Y2055000D02*
X3400000Y2105000D01*
X3350000Y2155000D01*
X3300000Y2105000D01*
X3350000Y2055000D01*
X3350000Y1801000D02*
X3400000Y1851000D01*
X3350000Y1901000D01*
X3300000Y1851000D01*
X3350000Y1801000D01*
X3350000Y1547000D02*
X3400000Y1597000D01*
X3350000Y1647000D01*
X3300000Y1597000D01*
X3350000Y1547000D01*
D11*
X-94223Y-666484D02*
X-94223Y-466484D01*
X-94223Y-466484D02*
X-46604Y-466484D01*
X-46604Y-466484D02*
X-18033Y-476008D01*
X-18033Y-476008D02*
X1015Y-495055D01*
X1015Y-495055D02*
X10539Y-514103D01*
X10539Y-514103D02*
X20063Y-552198D01*
X20063Y-552198D02*
X20063Y-580770D01*
X20063Y-580770D02*
X10539Y-618865D01*
X10539Y-618865D02*
X1015Y-637912D01*
X1015Y-637912D02*
X-18033Y-656960D01*
X-18033Y-656960D02*
X-46604Y-666484D01*
X-46604Y-666484D02*
X-94223Y-666484D01*
X105777Y-666484D02*
X105777Y-533150D01*
X105777Y-571246D02*
X115301Y-552198D01*
X115301Y-552198D02*
X124824Y-542674D01*
X124824Y-542674D02*
X143872Y-533150D01*
X143872Y-533150D02*
X162920Y-533150D01*
X229586Y-666484D02*
X229586Y-533150D01*
X229586Y-466484D02*
X220062Y-476008D01*
X220062Y-476008D02*
X229586Y-485531D01*
X229586Y-485531D02*
X239110Y-476008D01*
X239110Y-476008D02*
X229586Y-466484D01*
X229586Y-466484D02*
X229586Y-485531D01*
X353396Y-666484D02*
X334348Y-656960D01*
X334348Y-656960D02*
X324824Y-637912D01*
X324824Y-637912D02*
X324824Y-466484D01*
X458158Y-666484D02*
X439110Y-656960D01*
X439110Y-656960D02*
X429586Y-637912D01*
X429586Y-637912D02*
X429586Y-466484D01*
X686729Y-666484D02*
X686729Y-466484D01*
X686729Y-466484D02*
X753396Y-609341D01*
X753396Y-609341D02*
X820062Y-466484D01*
X820062Y-466484D02*
X820062Y-666484D01*
X1001015Y-666484D02*
X1001015Y-561722D01*
X1001015Y-561722D02*
X991491Y-542674D01*
X991491Y-542674D02*
X972443Y-533150D01*
X972443Y-533150D02*
X934348Y-533150D01*
X934348Y-533150D02*
X915301Y-542674D01*
X1001015Y-656960D02*
X981967Y-666484D01*
X981967Y-666484D02*
X934348Y-666484D01*
X934348Y-666484D02*
X915301Y-656960D01*
X915301Y-656960D02*
X905777Y-637912D01*
X905777Y-637912D02*
X905777Y-618865D01*
X905777Y-618865D02*
X915301Y-599817D01*
X915301Y-599817D02*
X934348Y-590293D01*
X934348Y-590293D02*
X981967Y-590293D01*
X981967Y-590293D02*
X1001015Y-580770D01*
X1096253Y-533150D02*
X1096253Y-733150D01*
X1096253Y-542674D02*
X1115301Y-533150D01*
X1115301Y-533150D02*
X1153396Y-533150D01*
X1153396Y-533150D02*
X1172444Y-542674D01*
X1172444Y-542674D02*
X1181967Y-552198D01*
X1181967Y-552198D02*
X1191491Y-571246D01*
X1191491Y-571246D02*
X1191491Y-628389D01*
X1191491Y-628389D02*
X1181967Y-647436D01*
X1181967Y-647436D02*
X1172444Y-656960D01*
X1172444Y-656960D02*
X1153396Y-666484D01*
X1153396Y-666484D02*
X1115301Y-666484D01*
X1115301Y-666484D02*
X1096253Y-656960D01*
X1277205Y-647436D02*
X1286729Y-656960D01*
X1286729Y-656960D02*
X1277205Y-666484D01*
X1277205Y-666484D02*
X1267682Y-656960D01*
X1267682Y-656960D02*
X1277205Y-647436D01*
X1277205Y-647436D02*
X1277205Y-666484D01*
X1277205Y-542674D02*
X1286729Y-552198D01*
X1286729Y-552198D02*
X1277205Y-561722D01*
X1277205Y-561722D02*
X1267682Y-552198D01*
X1267682Y-552198D02*
X1277205Y-542674D01*
X1277205Y-542674D02*
X1277205Y-561722D01*
D10*
X-375000Y-985000D02*
X-355000Y-1005000D01*
X-355000Y-985000D02*
X-375000Y-1005000D01*
D11*
X-56128Y-886484D02*
X-37080Y-886484D01*
X-37080Y-886484D02*
X-18033Y-896008D01*
X-18033Y-896008D02*
X-8509Y-905531D01*
X-8509Y-905531D02*
X1015Y-924579D01*
X1015Y-924579D02*
X10539Y-962674D01*
X10539Y-962674D02*
X10539Y-1010293D01*
X10539Y-1010293D02*
X1015Y-1048388D01*
X1015Y-1048388D02*
X-8509Y-1067436D01*
X-8509Y-1067436D02*
X-18033Y-1076960D01*
X-18033Y-1076960D02*
X-37080Y-1086484D01*
X-37080Y-1086484D02*
X-56128Y-1086484D01*
X-56128Y-1086484D02*
X-75176Y-1076960D01*
X-75176Y-1076960D02*
X-84699Y-1067436D01*
X-84699Y-1067436D02*
X-94223Y-1048388D01*
X-94223Y-1048388D02*
X-103747Y-1010293D01*
X-103747Y-1010293D02*
X-103747Y-962674D01*
X-103747Y-962674D02*
X-94223Y-924579D01*
X-94223Y-924579D02*
X-84699Y-905531D01*
X-84699Y-905531D02*
X-75176Y-896008D01*
X-75176Y-896008D02*
X-56128Y-886484D01*
X96253Y-1067436D02*
X105777Y-1076960D01*
X105777Y-1076960D02*
X96253Y-1086484D01*
X96253Y-1086484D02*
X86729Y-1076960D01*
X86729Y-1076960D02*
X96253Y-1067436D01*
X96253Y-1067436D02*
X96253Y-1086484D01*
X181967Y-905531D02*
X191491Y-896008D01*
X191491Y-896008D02*
X210539Y-886484D01*
X210539Y-886484D02*
X258158Y-886484D01*
X258158Y-886484D02*
X277205Y-896008D01*
X277205Y-896008D02*
X286729Y-905531D01*
X286729Y-905531D02*
X296253Y-924579D01*
X296253Y-924579D02*
X296253Y-943627D01*
X296253Y-943627D02*
X286729Y-972198D01*
X286729Y-972198D02*
X172444Y-1086484D01*
X172444Y-1086484D02*
X296253Y-1086484D01*
X420062Y-886484D02*
X439110Y-886484D01*
X439110Y-886484D02*
X458158Y-896008D01*
X458158Y-896008D02*
X467682Y-905531D01*
X467682Y-905531D02*
X477205Y-924579D01*
X477205Y-924579D02*
X486729Y-962674D01*
X486729Y-962674D02*
X486729Y-1010293D01*
X486729Y-1010293D02*
X477205Y-1048388D01*
X477205Y-1048388D02*
X467682Y-1067436D01*
X467682Y-1067436D02*
X458158Y-1076960D01*
X458158Y-1076960D02*
X439110Y-1086484D01*
X439110Y-1086484D02*
X420062Y-1086484D01*
X420062Y-1086484D02*
X401015Y-1076960D01*
X401015Y-1076960D02*
X391491Y-1067436D01*
X391491Y-1067436D02*
X381967Y-1048388D01*
X381967Y-1048388D02*
X372443Y-1010293D01*
X372443Y-1010293D02*
X372443Y-962674D01*
X372443Y-962674D02*
X381967Y-924579D01*
X381967Y-924579D02*
X391491Y-905531D01*
X391491Y-905531D02*
X401015Y-896008D01*
X401015Y-896008D02*
X420062Y-886484D01*
X610539Y-886484D02*
X629586Y-886484D01*
X629586Y-886484D02*
X648634Y-896008D01*
X648634Y-896008D02*
X658158Y-905531D01*
X658158Y-905531D02*
X667682Y-924579D01*
X667682Y-924579D02*
X677205Y-962674D01*
X677205Y-962674D02*
X677205Y-1010293D01*
X677205Y-1010293D02*
X667682Y-1048388D01*
X667682Y-1048388D02*
X658158Y-1067436D01*
X658158Y-1067436D02*
X648634Y-1076960D01*
X648634Y-1076960D02*
X629586Y-1086484D01*
X629586Y-1086484D02*
X610539Y-1086484D01*
X610539Y-1086484D02*
X591491Y-1076960D01*
X591491Y-1076960D02*
X581967Y-1067436D01*
X581967Y-1067436D02*
X572444Y-1048388D01*
X572444Y-1048388D02*
X562920Y-1010293D01*
X562920Y-1010293D02*
X562920Y-962674D01*
X562920Y-962674D02*
X572444Y-924579D01*
X572444Y-924579D02*
X581967Y-905531D01*
X581967Y-905531D02*
X591491Y-896008D01*
X591491Y-896008D02*
X610539Y-886484D01*
X762920Y-1086484D02*
X762920Y-953150D01*
X762920Y-972198D02*
X772443Y-962674D01*
X772443Y-962674D02*
X791491Y-953150D01*
X791491Y-953150D02*
X820063Y-953150D01*
X820063Y-953150D02*
X839110Y-962674D01*
X839110Y-962674D02*
X848634Y-981722D01*
X848634Y-981722D02*
X848634Y-1086484D01*
X848634Y-981722D02*
X858158Y-962674D01*
X858158Y-962674D02*
X877205Y-953150D01*
X877205Y-953150D02*
X905777Y-953150D01*
X905777Y-953150D02*
X924824Y-962674D01*
X924824Y-962674D02*
X934348Y-981722D01*
X934348Y-981722D02*
X934348Y-1086484D01*
X1029586Y-1086484D02*
X1029586Y-953150D01*
X1029586Y-972198D02*
X1039110Y-962674D01*
X1039110Y-962674D02*
X1058158Y-953150D01*
X1058158Y-953150D02*
X1086729Y-953150D01*
X1086729Y-953150D02*
X1105777Y-962674D01*
X1105777Y-962674D02*
X1115301Y-981722D01*
X1115301Y-981722D02*
X1115301Y-1086484D01*
X1115301Y-981722D02*
X1124825Y-962674D01*
X1124825Y-962674D02*
X1143872Y-953150D01*
X1143872Y-953150D02*
X1172444Y-953150D01*
X1172444Y-953150D02*
X1191491Y-962674D01*
X1191491Y-962674D02*
X1201015Y-981722D01*
X1201015Y-981722D02*
X1201015Y-1086484D01*
X1591491Y-876960D02*
X1420063Y-1134103D01*
X1848634Y-886484D02*
X1867682Y-886484D01*
X1867682Y-886484D02*
X1886729Y-896008D01*
X1886729Y-896008D02*
X1896253Y-905531D01*
X1896253Y-905531D02*
X1905777Y-924579D01*
X1905777Y-924579D02*
X1915301Y-962674D01*
X1915301Y-962674D02*
X1915301Y-1010293D01*
X1915301Y-1010293D02*
X1905777Y-1048388D01*
X1905777Y-1048388D02*
X1896253Y-1067436D01*
X1896253Y-1067436D02*
X1886729Y-1076960D01*
X1886729Y-1076960D02*
X1867682Y-1086484D01*
X1867682Y-1086484D02*
X1848634Y-1086484D01*
X1848634Y-1086484D02*
X1829586Y-1076960D01*
X1829586Y-1076960D02*
X1820063Y-1067436D01*
X1820063Y-1067436D02*
X1810539Y-1048388D01*
X1810539Y-1048388D02*
X1801015Y-1010293D01*
X1801015Y-1010293D02*
X1801015Y-962674D01*
X1801015Y-962674D02*
X1810539Y-924579D01*
X1810539Y-924579D02*
X1820063Y-905531D01*
X1820063Y-905531D02*
X1829586Y-896008D01*
X1829586Y-896008D02*
X1848634Y-886484D01*
X2001015Y-1067436D02*
X2010539Y-1076960D01*
X2010539Y-1076960D02*
X2001015Y-1086484D01*
X2001015Y-1086484D02*
X1991491Y-1076960D01*
X1991491Y-1076960D02*
X2001015Y-1067436D01*
X2001015Y-1067436D02*
X2001015Y-1086484D01*
X2134348Y-886484D02*
X2153396Y-886484D01*
X2153396Y-886484D02*
X2172444Y-896008D01*
X2172444Y-896008D02*
X2181968Y-905531D01*
X2181968Y-905531D02*
X2191491Y-924579D01*
X2191491Y-924579D02*
X2201015Y-962674D01*
X2201015Y-962674D02*
X2201015Y-1010293D01*
X2201015Y-1010293D02*
X2191491Y-1048388D01*
X2191491Y-1048388D02*
X2181968Y-1067436D01*
X2181968Y-1067436D02*
X2172444Y-1076960D01*
X2172444Y-1076960D02*
X2153396Y-1086484D01*
X2153396Y-1086484D02*
X2134348Y-1086484D01*
X2134348Y-1086484D02*
X2115301Y-1076960D01*
X2115301Y-1076960D02*
X2105777Y-1067436D01*
X2105777Y-1067436D02*
X2096253Y-1048388D01*
X2096253Y-1048388D02*
X2086729Y-1010293D01*
X2086729Y-1010293D02*
X2086729Y-962674D01*
X2086729Y-962674D02*
X2096253Y-924579D01*
X2096253Y-924579D02*
X2105777Y-905531D01*
X2105777Y-905531D02*
X2115301Y-896008D01*
X2115301Y-896008D02*
X2134348Y-886484D01*
X2324825Y-886484D02*
X2343872Y-886484D01*
X2343872Y-886484D02*
X2362920Y-896008D01*
X2362920Y-896008D02*
X2372444Y-905531D01*
X2372444Y-905531D02*
X2381968Y-924579D01*
X2381968Y-924579D02*
X2391491Y-962674D01*
X2391491Y-962674D02*
X2391491Y-1010293D01*
X2391491Y-1010293D02*
X2381968Y-1048388D01*
X2381968Y-1048388D02*
X2372444Y-1067436D01*
X2372444Y-1067436D02*
X2362920Y-1076960D01*
X2362920Y-1076960D02*
X2343872Y-1086484D01*
X2343872Y-1086484D02*
X2324825Y-1086484D01*
X2324825Y-1086484D02*
X2305777Y-1076960D01*
X2305777Y-1076960D02*
X2296253Y-1067436D01*
X2296253Y-1067436D02*
X2286729Y-1048388D01*
X2286729Y-1048388D02*
X2277206Y-1010293D01*
X2277206Y-1010293D02*
X2277206Y-962674D01*
X2277206Y-962674D02*
X2286729Y-924579D01*
X2286729Y-924579D02*
X2296253Y-905531D01*
X2296253Y-905531D02*
X2305777Y-896008D01*
X2305777Y-896008D02*
X2324825Y-886484D01*
X2458158Y-886484D02*
X2591491Y-886484D01*
X2591491Y-886484D02*
X2505777Y-1086484D01*
X2677206Y-1086484D02*
X2715301Y-1086484D01*
X2715301Y-1086484D02*
X2734349Y-1076960D01*
X2734349Y-1076960D02*
X2743872Y-1067436D01*
X2743872Y-1067436D02*
X2762920Y-1038865D01*
X2762920Y-1038865D02*
X2772444Y-1000769D01*
X2772444Y-1000769D02*
X2772444Y-924579D01*
X2772444Y-924579D02*
X2762920Y-905531D01*
X2762920Y-905531D02*
X2753396Y-896008D01*
X2753396Y-896008D02*
X2734349Y-886484D01*
X2734349Y-886484D02*
X2696253Y-886484D01*
X2696253Y-886484D02*
X2677206Y-896008D01*
X2677206Y-896008D02*
X2667682Y-905531D01*
X2667682Y-905531D02*
X2658158Y-924579D01*
X2658158Y-924579D02*
X2658158Y-972198D01*
X2658158Y-972198D02*
X2667682Y-991246D01*
X2667682Y-991246D02*
X2677206Y-1000769D01*
X2677206Y-1000769D02*
X2696253Y-1010293D01*
X2696253Y-1010293D02*
X2734349Y-1010293D01*
X2734349Y-1010293D02*
X2753396Y-1000769D01*
X2753396Y-1000769D02*
X2762920Y-991246D01*
X2762920Y-991246D02*
X2772444Y-972198D01*
X2848634Y-886484D02*
X2848634Y-924579D01*
X2924825Y-886484D02*
X2924825Y-924579D01*
X3220063Y-1162674D02*
X3210539Y-1153150D01*
X3210539Y-1153150D02*
X3191491Y-1124579D01*
X3191491Y-1124579D02*
X3181968Y-1105531D01*
X3181968Y-1105531D02*
X3172444Y-1076960D01*
X3172444Y-1076960D02*
X3162920Y-1029341D01*
X3162920Y-1029341D02*
X3162920Y-991246D01*
X3162920Y-991246D02*
X3172444Y-943627D01*
X3172444Y-943627D02*
X3181968Y-915055D01*
X3181968Y-915055D02*
X3191491Y-896008D01*
X3191491Y-896008D02*
X3210539Y-867436D01*
X3210539Y-867436D02*
X3220063Y-857912D01*
X3381968Y-953150D02*
X3381968Y-1086484D01*
X3334348Y-876960D02*
X3286729Y-1019817D01*
X3286729Y-1019817D02*
X3410539Y-1019817D01*
X3515301Y-972198D02*
X3496253Y-962674D01*
X3496253Y-962674D02*
X3486729Y-953150D01*
X3486729Y-953150D02*
X3477206Y-934103D01*
X3477206Y-934103D02*
X3477206Y-924579D01*
X3477206Y-924579D02*
X3486729Y-905531D01*
X3486729Y-905531D02*
X3496253Y-896008D01*
X3496253Y-896008D02*
X3515301Y-886484D01*
X3515301Y-886484D02*
X3553396Y-886484D01*
X3553396Y-886484D02*
X3572444Y-896008D01*
X3572444Y-896008D02*
X3581968Y-905531D01*
X3581968Y-905531D02*
X3591491Y-924579D01*
X3591491Y-924579D02*
X3591491Y-934103D01*
X3591491Y-934103D02*
X3581968Y-953150D01*
X3581968Y-953150D02*
X3572444Y-962674D01*
X3572444Y-962674D02*
X3553396Y-972198D01*
X3553396Y-972198D02*
X3515301Y-972198D01*
X3515301Y-972198D02*
X3496253Y-981722D01*
X3496253Y-981722D02*
X3486729Y-991246D01*
X3486729Y-991246D02*
X3477206Y-1010293D01*
X3477206Y-1010293D02*
X3477206Y-1048388D01*
X3477206Y-1048388D02*
X3486729Y-1067436D01*
X3486729Y-1067436D02*
X3496253Y-1076960D01*
X3496253Y-1076960D02*
X3515301Y-1086484D01*
X3515301Y-1086484D02*
X3553396Y-1086484D01*
X3553396Y-1086484D02*
X3572444Y-1076960D01*
X3572444Y-1076960D02*
X3581968Y-1067436D01*
X3581968Y-1067436D02*
X3591491Y-1048388D01*
X3591491Y-1048388D02*
X3591491Y-1010293D01*
X3591491Y-1010293D02*
X3581968Y-991246D01*
X3581968Y-991246D02*
X3572444Y-981722D01*
X3572444Y-981722D02*
X3553396Y-972198D01*
X3829587Y-1086484D02*
X3829587Y-886484D01*
X3915301Y-1086484D02*
X3915301Y-981722D01*
X3915301Y-981722D02*
X3905777Y-962674D01*
X3905777Y-962674D02*
X3886730Y-953150D01*
X3886730Y-953150D02*
X3858158Y-953150D01*
X3858158Y-953150D02*
X3839110Y-962674D01*
X3839110Y-962674D02*
X3829587Y-972198D01*
X4039110Y-1086484D02*
X4020063Y-1076960D01*
X4020063Y-1076960D02*
X4010539Y-1067436D01*
X4010539Y-1067436D02*
X4001015Y-1048388D01*
X4001015Y-1048388D02*
X4001015Y-991246D01*
X4001015Y-991246D02*
X4010539Y-972198D01*
X4010539Y-972198D02*
X4020063Y-962674D01*
X4020063Y-962674D02*
X4039110Y-953150D01*
X4039110Y-953150D02*
X4067682Y-953150D01*
X4067682Y-953150D02*
X4086730Y-962674D01*
X4086730Y-962674D02*
X4096253Y-972198D01*
X4096253Y-972198D02*
X4105777Y-991246D01*
X4105777Y-991246D02*
X4105777Y-1048388D01*
X4105777Y-1048388D02*
X4096253Y-1067436D01*
X4096253Y-1067436D02*
X4086730Y-1076960D01*
X4086730Y-1076960D02*
X4067682Y-1086484D01*
X4067682Y-1086484D02*
X4039110Y-1086484D01*
X4220063Y-1086484D02*
X4201015Y-1076960D01*
X4201015Y-1076960D02*
X4191491Y-1057912D01*
X4191491Y-1057912D02*
X4191491Y-886484D01*
X4372444Y-1076960D02*
X4353396Y-1086484D01*
X4353396Y-1086484D02*
X4315301Y-1086484D01*
X4315301Y-1086484D02*
X4296253Y-1076960D01*
X4296253Y-1076960D02*
X4286730Y-1057912D01*
X4286730Y-1057912D02*
X4286730Y-981722D01*
X4286730Y-981722D02*
X4296253Y-962674D01*
X4296253Y-962674D02*
X4315301Y-953150D01*
X4315301Y-953150D02*
X4353396Y-953150D01*
X4353396Y-953150D02*
X4372444Y-962674D01*
X4372444Y-962674D02*
X4381968Y-981722D01*
X4381968Y-981722D02*
X4381968Y-1000769D01*
X4381968Y-1000769D02*
X4286730Y-1019817D01*
X4458158Y-1076960D02*
X4477206Y-1086484D01*
X4477206Y-1086484D02*
X4515301Y-1086484D01*
X4515301Y-1086484D02*
X4534349Y-1076960D01*
X4534349Y-1076960D02*
X4543873Y-1057912D01*
X4543873Y-1057912D02*
X4543873Y-1048388D01*
X4543873Y-1048388D02*
X4534349Y-1029341D01*
X4534349Y-1029341D02*
X4515301Y-1019817D01*
X4515301Y-1019817D02*
X4486730Y-1019817D01*
X4486730Y-1019817D02*
X4467682Y-1010293D01*
X4467682Y-1010293D02*
X4458158Y-991246D01*
X4458158Y-991246D02*
X4458158Y-981722D01*
X4458158Y-981722D02*
X4467682Y-962674D01*
X4467682Y-962674D02*
X4486730Y-953150D01*
X4486730Y-953150D02*
X4515301Y-953150D01*
X4515301Y-953150D02*
X4534349Y-962674D01*
X4610539Y-1162674D02*
X4620063Y-1153150D01*
X4620063Y-1153150D02*
X4639111Y-1124579D01*
X4639111Y-1124579D02*
X4648634Y-1105531D01*
X4648634Y-1105531D02*
X4658158Y-1076960D01*
X4658158Y-1076960D02*
X4667682Y-1029341D01*
X4667682Y-1029341D02*
X4667682Y-991246D01*
X4667682Y-991246D02*
X4658158Y-943627D01*
X4658158Y-943627D02*
X4648634Y-915055D01*
X4648634Y-915055D02*
X4639111Y-896008D01*
X4639111Y-896008D02*
X4620063Y-867436D01*
X4620063Y-867436D02*
X4610539Y-857912D01*
D10*
X-355000Y-1259000D02*
G75*
G02*
X-375000Y-1259000I-10000J0D01*
G01*
X-375000Y-1259000D02*
G75*
G02*
X-355000Y-1259000I10000J0D01*
G01*
D11*
X-56128Y-1150484D02*
X-37080Y-1150484D01*
X-37080Y-1150484D02*
X-18033Y-1160008D01*
X-18033Y-1160008D02*
X-8509Y-1169531D01*
X-8509Y-1169531D02*
X1015Y-1188579D01*
X1015Y-1188579D02*
X10539Y-1226674D01*
X10539Y-1226674D02*
X10539Y-1274293D01*
X10539Y-1274293D02*
X1015Y-1312389D01*
X1015Y-1312389D02*
X-8509Y-1331436D01*
X-8509Y-1331436D02*
X-18033Y-1340960D01*
X-18033Y-1340960D02*
X-37080Y-1350484D01*
X-37080Y-1350484D02*
X-56128Y-1350484D01*
X-56128Y-1350484D02*
X-75176Y-1340960D01*
X-75176Y-1340960D02*
X-84699Y-1331436D01*
X-84699Y-1331436D02*
X-94223Y-1312389D01*
X-94223Y-1312389D02*
X-103747Y-1274293D01*
X-103747Y-1274293D02*
X-103747Y-1226674D01*
X-103747Y-1226674D02*
X-94223Y-1188579D01*
X-94223Y-1188579D02*
X-84699Y-1169531D01*
X-84699Y-1169531D02*
X-75176Y-1160008D01*
X-75176Y-1160008D02*
X-56128Y-1150484D01*
X96253Y-1331436D02*
X105777Y-1340960D01*
X105777Y-1340960D02*
X96253Y-1350484D01*
X96253Y-1350484D02*
X86729Y-1340960D01*
X86729Y-1340960D02*
X96253Y-1331436D01*
X96253Y-1331436D02*
X96253Y-1350484D01*
X181967Y-1169531D02*
X191491Y-1160008D01*
X191491Y-1160008D02*
X210539Y-1150484D01*
X210539Y-1150484D02*
X258158Y-1150484D01*
X258158Y-1150484D02*
X277205Y-1160008D01*
X277205Y-1160008D02*
X286729Y-1169531D01*
X286729Y-1169531D02*
X296253Y-1188579D01*
X296253Y-1188579D02*
X296253Y-1207627D01*
X296253Y-1207627D02*
X286729Y-1236198D01*
X286729Y-1236198D02*
X172444Y-1350484D01*
X172444Y-1350484D02*
X296253Y-1350484D01*
X420062Y-1150484D02*
X439110Y-1150484D01*
X439110Y-1150484D02*
X458158Y-1160008D01*
X458158Y-1160008D02*
X467682Y-1169531D01*
X467682Y-1169531D02*
X477205Y-1188579D01*
X477205Y-1188579D02*
X486729Y-1226674D01*
X486729Y-1226674D02*
X486729Y-1274293D01*
X486729Y-1274293D02*
X477205Y-1312389D01*
X477205Y-1312389D02*
X467682Y-1331436D01*
X467682Y-1331436D02*
X458158Y-1340960D01*
X458158Y-1340960D02*
X439110Y-1350484D01*
X439110Y-1350484D02*
X420062Y-1350484D01*
X420062Y-1350484D02*
X401015Y-1340960D01*
X401015Y-1340960D02*
X391491Y-1331436D01*
X391491Y-1331436D02*
X381967Y-1312389D01*
X381967Y-1312389D02*
X372443Y-1274293D01*
X372443Y-1274293D02*
X372443Y-1226674D01*
X372443Y-1226674D02*
X381967Y-1188579D01*
X381967Y-1188579D02*
X391491Y-1169531D01*
X391491Y-1169531D02*
X401015Y-1160008D01*
X401015Y-1160008D02*
X420062Y-1150484D01*
X610539Y-1150484D02*
X629586Y-1150484D01*
X629586Y-1150484D02*
X648634Y-1160008D01*
X648634Y-1160008D02*
X658158Y-1169531D01*
X658158Y-1169531D02*
X667682Y-1188579D01*
X667682Y-1188579D02*
X677205Y-1226674D01*
X677205Y-1226674D02*
X677205Y-1274293D01*
X677205Y-1274293D02*
X667682Y-1312389D01*
X667682Y-1312389D02*
X658158Y-1331436D01*
X658158Y-1331436D02*
X648634Y-1340960D01*
X648634Y-1340960D02*
X629586Y-1350484D01*
X629586Y-1350484D02*
X610539Y-1350484D01*
X610539Y-1350484D02*
X591491Y-1340960D01*
X591491Y-1340960D02*
X581967Y-1331436D01*
X581967Y-1331436D02*
X572444Y-1312389D01*
X572444Y-1312389D02*
X562920Y-1274293D01*
X562920Y-1274293D02*
X562920Y-1226674D01*
X562920Y-1226674D02*
X572444Y-1188579D01*
X572444Y-1188579D02*
X581967Y-1169531D01*
X581967Y-1169531D02*
X591491Y-1160008D01*
X591491Y-1160008D02*
X610539Y-1150484D01*
X762920Y-1350484D02*
X762920Y-1217150D01*
X762920Y-1236198D02*
X772443Y-1226674D01*
X772443Y-1226674D02*
X791491Y-1217150D01*
X791491Y-1217150D02*
X820063Y-1217150D01*
X820063Y-1217150D02*
X839110Y-1226674D01*
X839110Y-1226674D02*
X848634Y-1245722D01*
X848634Y-1245722D02*
X848634Y-1350484D01*
X848634Y-1245722D02*
X858158Y-1226674D01*
X858158Y-1226674D02*
X877205Y-1217150D01*
X877205Y-1217150D02*
X905777Y-1217150D01*
X905777Y-1217150D02*
X924824Y-1226674D01*
X924824Y-1226674D02*
X934348Y-1245722D01*
X934348Y-1245722D02*
X934348Y-1350484D01*
X1029586Y-1350484D02*
X1029586Y-1217150D01*
X1029586Y-1236198D02*
X1039110Y-1226674D01*
X1039110Y-1226674D02*
X1058158Y-1217150D01*
X1058158Y-1217150D02*
X1086729Y-1217150D01*
X1086729Y-1217150D02*
X1105777Y-1226674D01*
X1105777Y-1226674D02*
X1115301Y-1245722D01*
X1115301Y-1245722D02*
X1115301Y-1350484D01*
X1115301Y-1245722D02*
X1124825Y-1226674D01*
X1124825Y-1226674D02*
X1143872Y-1217150D01*
X1143872Y-1217150D02*
X1172444Y-1217150D01*
X1172444Y-1217150D02*
X1191491Y-1226674D01*
X1191491Y-1226674D02*
X1201015Y-1245722D01*
X1201015Y-1245722D02*
X1201015Y-1350484D01*
X1591491Y-1140960D02*
X1420063Y-1398103D01*
X1848634Y-1150484D02*
X1867682Y-1150484D01*
X1867682Y-1150484D02*
X1886729Y-1160008D01*
X1886729Y-1160008D02*
X1896253Y-1169531D01*
X1896253Y-1169531D02*
X1905777Y-1188579D01*
X1905777Y-1188579D02*
X1915301Y-1226674D01*
X1915301Y-1226674D02*
X1915301Y-1274293D01*
X1915301Y-1274293D02*
X1905777Y-1312389D01*
X1905777Y-1312389D02*
X1896253Y-1331436D01*
X1896253Y-1331436D02*
X1886729Y-1340960D01*
X1886729Y-1340960D02*
X1867682Y-1350484D01*
X1867682Y-1350484D02*
X1848634Y-1350484D01*
X1848634Y-1350484D02*
X1829586Y-1340960D01*
X1829586Y-1340960D02*
X1820063Y-1331436D01*
X1820063Y-1331436D02*
X1810539Y-1312389D01*
X1810539Y-1312389D02*
X1801015Y-1274293D01*
X1801015Y-1274293D02*
X1801015Y-1226674D01*
X1801015Y-1226674D02*
X1810539Y-1188579D01*
X1810539Y-1188579D02*
X1820063Y-1169531D01*
X1820063Y-1169531D02*
X1829586Y-1160008D01*
X1829586Y-1160008D02*
X1848634Y-1150484D01*
X2001015Y-1331436D02*
X2010539Y-1340960D01*
X2010539Y-1340960D02*
X2001015Y-1350484D01*
X2001015Y-1350484D02*
X1991491Y-1340960D01*
X1991491Y-1340960D02*
X2001015Y-1331436D01*
X2001015Y-1331436D02*
X2001015Y-1350484D01*
X2134348Y-1150484D02*
X2153396Y-1150484D01*
X2153396Y-1150484D02*
X2172444Y-1160008D01*
X2172444Y-1160008D02*
X2181968Y-1169531D01*
X2181968Y-1169531D02*
X2191491Y-1188579D01*
X2191491Y-1188579D02*
X2201015Y-1226674D01*
X2201015Y-1226674D02*
X2201015Y-1274293D01*
X2201015Y-1274293D02*
X2191491Y-1312389D01*
X2191491Y-1312389D02*
X2181968Y-1331436D01*
X2181968Y-1331436D02*
X2172444Y-1340960D01*
X2172444Y-1340960D02*
X2153396Y-1350484D01*
X2153396Y-1350484D02*
X2134348Y-1350484D01*
X2134348Y-1350484D02*
X2115301Y-1340960D01*
X2115301Y-1340960D02*
X2105777Y-1331436D01*
X2105777Y-1331436D02*
X2096253Y-1312389D01*
X2096253Y-1312389D02*
X2086729Y-1274293D01*
X2086729Y-1274293D02*
X2086729Y-1226674D01*
X2086729Y-1226674D02*
X2096253Y-1188579D01*
X2096253Y-1188579D02*
X2105777Y-1169531D01*
X2105777Y-1169531D02*
X2115301Y-1160008D01*
X2115301Y-1160008D02*
X2134348Y-1150484D01*
X2324825Y-1150484D02*
X2343872Y-1150484D01*
X2343872Y-1150484D02*
X2362920Y-1160008D01*
X2362920Y-1160008D02*
X2372444Y-1169531D01*
X2372444Y-1169531D02*
X2381968Y-1188579D01*
X2381968Y-1188579D02*
X2391491Y-1226674D01*
X2391491Y-1226674D02*
X2391491Y-1274293D01*
X2391491Y-1274293D02*
X2381968Y-1312389D01*
X2381968Y-1312389D02*
X2372444Y-1331436D01*
X2372444Y-1331436D02*
X2362920Y-1340960D01*
X2362920Y-1340960D02*
X2343872Y-1350484D01*
X2343872Y-1350484D02*
X2324825Y-1350484D01*
X2324825Y-1350484D02*
X2305777Y-1340960D01*
X2305777Y-1340960D02*
X2296253Y-1331436D01*
X2296253Y-1331436D02*
X2286729Y-1312389D01*
X2286729Y-1312389D02*
X2277206Y-1274293D01*
X2277206Y-1274293D02*
X2277206Y-1226674D01*
X2277206Y-1226674D02*
X2286729Y-1188579D01*
X2286729Y-1188579D02*
X2296253Y-1169531D01*
X2296253Y-1169531D02*
X2305777Y-1160008D01*
X2305777Y-1160008D02*
X2324825Y-1150484D01*
X2458158Y-1150484D02*
X2591491Y-1150484D01*
X2591491Y-1150484D02*
X2505777Y-1350484D01*
X2677206Y-1350484D02*
X2715301Y-1350484D01*
X2715301Y-1350484D02*
X2734349Y-1340960D01*
X2734349Y-1340960D02*
X2743872Y-1331436D01*
X2743872Y-1331436D02*
X2762920Y-1302865D01*
X2762920Y-1302865D02*
X2772444Y-1264770D01*
X2772444Y-1264770D02*
X2772444Y-1188579D01*
X2772444Y-1188579D02*
X2762920Y-1169531D01*
X2762920Y-1169531D02*
X2753396Y-1160008D01*
X2753396Y-1160008D02*
X2734349Y-1150484D01*
X2734349Y-1150484D02*
X2696253Y-1150484D01*
X2696253Y-1150484D02*
X2677206Y-1160008D01*
X2677206Y-1160008D02*
X2667682Y-1169531D01*
X2667682Y-1169531D02*
X2658158Y-1188579D01*
X2658158Y-1188579D02*
X2658158Y-1236198D01*
X2658158Y-1236198D02*
X2667682Y-1255246D01*
X2667682Y-1255246D02*
X2677206Y-1264770D01*
X2677206Y-1264770D02*
X2696253Y-1274293D01*
X2696253Y-1274293D02*
X2734349Y-1274293D01*
X2734349Y-1274293D02*
X2753396Y-1264770D01*
X2753396Y-1264770D02*
X2762920Y-1255246D01*
X2762920Y-1255246D02*
X2772444Y-1236198D01*
X2848634Y-1150484D02*
X2848634Y-1188579D01*
X2924825Y-1150484D02*
X2924825Y-1188579D01*
X3220063Y-1426674D02*
X3210539Y-1417150D01*
X3210539Y-1417150D02*
X3191491Y-1388579D01*
X3191491Y-1388579D02*
X3181968Y-1369531D01*
X3181968Y-1369531D02*
X3172444Y-1340960D01*
X3172444Y-1340960D02*
X3162920Y-1293341D01*
X3162920Y-1293341D02*
X3162920Y-1255246D01*
X3162920Y-1255246D02*
X3172444Y-1207627D01*
X3172444Y-1207627D02*
X3181968Y-1179055D01*
X3181968Y-1179055D02*
X3191491Y-1160008D01*
X3191491Y-1160008D02*
X3210539Y-1131436D01*
X3210539Y-1131436D02*
X3220063Y-1121912D01*
X3401015Y-1350484D02*
X3286729Y-1350484D01*
X3343872Y-1350484D02*
X3343872Y-1150484D01*
X3343872Y-1150484D02*
X3324825Y-1179055D01*
X3324825Y-1179055D02*
X3305777Y-1198103D01*
X3305777Y-1198103D02*
X3286729Y-1207627D01*
X3572444Y-1217150D02*
X3572444Y-1350484D01*
X3524825Y-1140960D02*
X3477206Y-1283817D01*
X3477206Y-1283817D02*
X3601015Y-1283817D01*
X3829587Y-1350484D02*
X3829587Y-1150484D01*
X3915301Y-1350484D02*
X3915301Y-1245722D01*
X3915301Y-1245722D02*
X3905777Y-1226674D01*
X3905777Y-1226674D02*
X3886730Y-1217150D01*
X3886730Y-1217150D02*
X3858158Y-1217150D01*
X3858158Y-1217150D02*
X3839110Y-1226674D01*
X3839110Y-1226674D02*
X3829587Y-1236198D01*
X4039110Y-1350484D02*
X4020063Y-1340960D01*
X4020063Y-1340960D02*
X4010539Y-1331436D01*
X4010539Y-1331436D02*
X4001015Y-1312389D01*
X4001015Y-1312389D02*
X4001015Y-1255246D01*
X4001015Y-1255246D02*
X4010539Y-1236198D01*
X4010539Y-1236198D02*
X4020063Y-1226674D01*
X4020063Y-1226674D02*
X4039110Y-1217150D01*
X4039110Y-1217150D02*
X4067682Y-1217150D01*
X4067682Y-1217150D02*
X4086730Y-1226674D01*
X4086730Y-1226674D02*
X4096253Y-1236198D01*
X4096253Y-1236198D02*
X4105777Y-1255246D01*
X4105777Y-1255246D02*
X4105777Y-1312389D01*
X4105777Y-1312389D02*
X4096253Y-1331436D01*
X4096253Y-1331436D02*
X4086730Y-1340960D01*
X4086730Y-1340960D02*
X4067682Y-1350484D01*
X4067682Y-1350484D02*
X4039110Y-1350484D01*
X4220063Y-1350484D02*
X4201015Y-1340960D01*
X4201015Y-1340960D02*
X4191491Y-1321912D01*
X4191491Y-1321912D02*
X4191491Y-1150484D01*
X4372444Y-1340960D02*
X4353396Y-1350484D01*
X4353396Y-1350484D02*
X4315301Y-1350484D01*
X4315301Y-1350484D02*
X4296253Y-1340960D01*
X4296253Y-1340960D02*
X4286730Y-1321912D01*
X4286730Y-1321912D02*
X4286730Y-1245722D01*
X4286730Y-1245722D02*
X4296253Y-1226674D01*
X4296253Y-1226674D02*
X4315301Y-1217150D01*
X4315301Y-1217150D02*
X4353396Y-1217150D01*
X4353396Y-1217150D02*
X4372444Y-1226674D01*
X4372444Y-1226674D02*
X4381968Y-1245722D01*
X4381968Y-1245722D02*
X4381968Y-1264770D01*
X4381968Y-1264770D02*
X4286730Y-1283817D01*
X4458158Y-1340960D02*
X4477206Y-1350484D01*
X4477206Y-1350484D02*
X4515301Y-1350484D01*
X4515301Y-1350484D02*
X4534349Y-1340960D01*
X4534349Y-1340960D02*
X4543873Y-1321912D01*
X4543873Y-1321912D02*
X4543873Y-1312389D01*
X4543873Y-1312389D02*
X4534349Y-1293341D01*
X4534349Y-1293341D02*
X4515301Y-1283817D01*
X4515301Y-1283817D02*
X4486730Y-1283817D01*
X4486730Y-1283817D02*
X4467682Y-1274293D01*
X4467682Y-1274293D02*
X4458158Y-1255246D01*
X4458158Y-1255246D02*
X4458158Y-1245722D01*
X4458158Y-1245722D02*
X4467682Y-1226674D01*
X4467682Y-1226674D02*
X4486730Y-1217150D01*
X4486730Y-1217150D02*
X4515301Y-1217150D01*
X4515301Y-1217150D02*
X4534349Y-1226674D01*
X4610539Y-1426674D02*
X4620063Y-1417150D01*
X4620063Y-1417150D02*
X4639111Y-1388579D01*
X4639111Y-1388579D02*
X4648634Y-1369531D01*
X4648634Y-1369531D02*
X4658158Y-1340960D01*
X4658158Y-1340960D02*
X4667682Y-1293341D01*
X4667682Y-1293341D02*
X4667682Y-1255246D01*
X4667682Y-1255246D02*
X4658158Y-1207627D01*
X4658158Y-1207627D02*
X4648634Y-1179055D01*
X4648634Y-1179055D02*
X4639111Y-1160008D01*
X4639111Y-1160008D02*
X4620063Y-1131436D01*
X4620063Y-1131436D02*
X4610539Y-1121912D01*
D10*
X-375000Y-1503000D02*
X-375000Y-1543000D01*
X-395000Y-1523000D02*
X-355000Y-1523000D01*
D11*
X-56128Y-1414484D02*
X-37080Y-1414484D01*
X-37080Y-1414484D02*
X-18033Y-1424008D01*
X-18033Y-1424008D02*
X-8509Y-1433531D01*
X-8509Y-1433531D02*
X1015Y-1452579D01*
X1015Y-1452579D02*
X10539Y-1490674D01*
X10539Y-1490674D02*
X10539Y-1538293D01*
X10539Y-1538293D02*
X1015Y-1576388D01*
X1015Y-1576388D02*
X-8509Y-1595436D01*
X-8509Y-1595436D02*
X-18033Y-1604960D01*
X-18033Y-1604960D02*
X-37080Y-1614484D01*
X-37080Y-1614484D02*
X-56128Y-1614484D01*
X-56128Y-1614484D02*
X-75176Y-1604960D01*
X-75176Y-1604960D02*
X-84699Y-1595436D01*
X-84699Y-1595436D02*
X-94223Y-1576388D01*
X-94223Y-1576388D02*
X-103747Y-1538293D01*
X-103747Y-1538293D02*
X-103747Y-1490674D01*
X-103747Y-1490674D02*
X-94223Y-1452579D01*
X-94223Y-1452579D02*
X-84699Y-1433531D01*
X-84699Y-1433531D02*
X-75176Y-1424008D01*
X-75176Y-1424008D02*
X-56128Y-1414484D01*
X96253Y-1595436D02*
X105777Y-1604960D01*
X105777Y-1604960D02*
X96253Y-1614484D01*
X96253Y-1614484D02*
X86729Y-1604960D01*
X86729Y-1604960D02*
X96253Y-1595436D01*
X96253Y-1595436D02*
X96253Y-1614484D01*
X277205Y-1481150D02*
X277205Y-1614484D01*
X229586Y-1404960D02*
X181967Y-1547817D01*
X181967Y-1547817D02*
X305777Y-1547817D01*
X420062Y-1414484D02*
X439110Y-1414484D01*
X439110Y-1414484D02*
X458158Y-1424008D01*
X458158Y-1424008D02*
X467682Y-1433531D01*
X467682Y-1433531D02*
X477205Y-1452579D01*
X477205Y-1452579D02*
X486729Y-1490674D01*
X486729Y-1490674D02*
X486729Y-1538293D01*
X486729Y-1538293D02*
X477205Y-1576388D01*
X477205Y-1576388D02*
X467682Y-1595436D01*
X467682Y-1595436D02*
X458158Y-1604960D01*
X458158Y-1604960D02*
X439110Y-1614484D01*
X439110Y-1614484D02*
X420062Y-1614484D01*
X420062Y-1614484D02*
X401015Y-1604960D01*
X401015Y-1604960D02*
X391491Y-1595436D01*
X391491Y-1595436D02*
X381967Y-1576388D01*
X381967Y-1576388D02*
X372443Y-1538293D01*
X372443Y-1538293D02*
X372443Y-1490674D01*
X372443Y-1490674D02*
X381967Y-1452579D01*
X381967Y-1452579D02*
X391491Y-1433531D01*
X391491Y-1433531D02*
X401015Y-1424008D01*
X401015Y-1424008D02*
X420062Y-1414484D01*
X610539Y-1414484D02*
X629586Y-1414484D01*
X629586Y-1414484D02*
X648634Y-1424008D01*
X648634Y-1424008D02*
X658158Y-1433531D01*
X658158Y-1433531D02*
X667682Y-1452579D01*
X667682Y-1452579D02*
X677205Y-1490674D01*
X677205Y-1490674D02*
X677205Y-1538293D01*
X677205Y-1538293D02*
X667682Y-1576388D01*
X667682Y-1576388D02*
X658158Y-1595436D01*
X658158Y-1595436D02*
X648634Y-1604960D01*
X648634Y-1604960D02*
X629586Y-1614484D01*
X629586Y-1614484D02*
X610539Y-1614484D01*
X610539Y-1614484D02*
X591491Y-1604960D01*
X591491Y-1604960D02*
X581967Y-1595436D01*
X581967Y-1595436D02*
X572444Y-1576388D01*
X572444Y-1576388D02*
X562920Y-1538293D01*
X562920Y-1538293D02*
X562920Y-1490674D01*
X562920Y-1490674D02*
X572444Y-1452579D01*
X572444Y-1452579D02*
X581967Y-1433531D01*
X581967Y-1433531D02*
X591491Y-1424008D01*
X591491Y-1424008D02*
X610539Y-1414484D01*
X762920Y-1614484D02*
X762920Y-1481150D01*
X762920Y-1500198D02*
X772443Y-1490674D01*
X772443Y-1490674D02*
X791491Y-1481150D01*
X791491Y-1481150D02*
X820063Y-1481150D01*
X820063Y-1481150D02*
X839110Y-1490674D01*
X839110Y-1490674D02*
X848634Y-1509722D01*
X848634Y-1509722D02*
X848634Y-1614484D01*
X848634Y-1509722D02*
X858158Y-1490674D01*
X858158Y-1490674D02*
X877205Y-1481150D01*
X877205Y-1481150D02*
X905777Y-1481150D01*
X905777Y-1481150D02*
X924824Y-1490674D01*
X924824Y-1490674D02*
X934348Y-1509722D01*
X934348Y-1509722D02*
X934348Y-1614484D01*
X1029586Y-1614484D02*
X1029586Y-1481150D01*
X1029586Y-1500198D02*
X1039110Y-1490674D01*
X1039110Y-1490674D02*
X1058158Y-1481150D01*
X1058158Y-1481150D02*
X1086729Y-1481150D01*
X1086729Y-1481150D02*
X1105777Y-1490674D01*
X1105777Y-1490674D02*
X1115301Y-1509722D01*
X1115301Y-1509722D02*
X1115301Y-1614484D01*
X1115301Y-1509722D02*
X1124825Y-1490674D01*
X1124825Y-1490674D02*
X1143872Y-1481150D01*
X1143872Y-1481150D02*
X1172444Y-1481150D01*
X1172444Y-1481150D02*
X1191491Y-1490674D01*
X1191491Y-1490674D02*
X1201015Y-1509722D01*
X1201015Y-1509722D02*
X1201015Y-1614484D01*
X1591491Y-1404960D02*
X1420063Y-1662103D01*
X1848634Y-1414484D02*
X1867682Y-1414484D01*
X1867682Y-1414484D02*
X1886729Y-1424008D01*
X1886729Y-1424008D02*
X1896253Y-1433531D01*
X1896253Y-1433531D02*
X1905777Y-1452579D01*
X1905777Y-1452579D02*
X1915301Y-1490674D01*
X1915301Y-1490674D02*
X1915301Y-1538293D01*
X1915301Y-1538293D02*
X1905777Y-1576388D01*
X1905777Y-1576388D02*
X1896253Y-1595436D01*
X1896253Y-1595436D02*
X1886729Y-1604960D01*
X1886729Y-1604960D02*
X1867682Y-1614484D01*
X1867682Y-1614484D02*
X1848634Y-1614484D01*
X1848634Y-1614484D02*
X1829586Y-1604960D01*
X1829586Y-1604960D02*
X1820063Y-1595436D01*
X1820063Y-1595436D02*
X1810539Y-1576388D01*
X1810539Y-1576388D02*
X1801015Y-1538293D01*
X1801015Y-1538293D02*
X1801015Y-1490674D01*
X1801015Y-1490674D02*
X1810539Y-1452579D01*
X1810539Y-1452579D02*
X1820063Y-1433531D01*
X1820063Y-1433531D02*
X1829586Y-1424008D01*
X1829586Y-1424008D02*
X1848634Y-1414484D01*
X2001015Y-1595436D02*
X2010539Y-1604960D01*
X2010539Y-1604960D02*
X2001015Y-1614484D01*
X2001015Y-1614484D02*
X1991491Y-1604960D01*
X1991491Y-1604960D02*
X2001015Y-1595436D01*
X2001015Y-1595436D02*
X2001015Y-1614484D01*
X2134348Y-1414484D02*
X2153396Y-1414484D01*
X2153396Y-1414484D02*
X2172444Y-1424008D01*
X2172444Y-1424008D02*
X2181968Y-1433531D01*
X2181968Y-1433531D02*
X2191491Y-1452579D01*
X2191491Y-1452579D02*
X2201015Y-1490674D01*
X2201015Y-1490674D02*
X2201015Y-1538293D01*
X2201015Y-1538293D02*
X2191491Y-1576388D01*
X2191491Y-1576388D02*
X2181968Y-1595436D01*
X2181968Y-1595436D02*
X2172444Y-1604960D01*
X2172444Y-1604960D02*
X2153396Y-1614484D01*
X2153396Y-1614484D02*
X2134348Y-1614484D01*
X2134348Y-1614484D02*
X2115301Y-1604960D01*
X2115301Y-1604960D02*
X2105777Y-1595436D01*
X2105777Y-1595436D02*
X2096253Y-1576388D01*
X2096253Y-1576388D02*
X2086729Y-1538293D01*
X2086729Y-1538293D02*
X2086729Y-1490674D01*
X2086729Y-1490674D02*
X2096253Y-1452579D01*
X2096253Y-1452579D02*
X2105777Y-1433531D01*
X2105777Y-1433531D02*
X2115301Y-1424008D01*
X2115301Y-1424008D02*
X2134348Y-1414484D01*
X2391491Y-1614484D02*
X2277206Y-1614484D01*
X2334348Y-1614484D02*
X2334348Y-1414484D01*
X2334348Y-1414484D02*
X2315301Y-1443055D01*
X2315301Y-1443055D02*
X2296253Y-1462103D01*
X2296253Y-1462103D02*
X2277206Y-1471627D01*
X2572444Y-1414484D02*
X2477206Y-1414484D01*
X2477206Y-1414484D02*
X2467682Y-1509722D01*
X2467682Y-1509722D02*
X2477206Y-1500198D01*
X2477206Y-1500198D02*
X2496253Y-1490674D01*
X2496253Y-1490674D02*
X2543872Y-1490674D01*
X2543872Y-1490674D02*
X2562920Y-1500198D01*
X2562920Y-1500198D02*
X2572444Y-1509722D01*
X2572444Y-1509722D02*
X2581968Y-1528769D01*
X2581968Y-1528769D02*
X2581968Y-1576388D01*
X2581968Y-1576388D02*
X2572444Y-1595436D01*
X2572444Y-1595436D02*
X2562920Y-1604960D01*
X2562920Y-1604960D02*
X2543872Y-1614484D01*
X2543872Y-1614484D02*
X2496253Y-1614484D01*
X2496253Y-1614484D02*
X2477206Y-1604960D01*
X2477206Y-1604960D02*
X2467682Y-1595436D01*
X2648634Y-1414484D02*
X2781968Y-1414484D01*
X2781968Y-1414484D02*
X2696253Y-1614484D01*
X2848634Y-1414484D02*
X2848634Y-1452579D01*
X2924825Y-1414484D02*
X2924825Y-1452579D01*
X3220063Y-1690674D02*
X3210539Y-1681150D01*
X3210539Y-1681150D02*
X3191491Y-1652579D01*
X3191491Y-1652579D02*
X3181968Y-1633531D01*
X3181968Y-1633531D02*
X3172444Y-1604960D01*
X3172444Y-1604960D02*
X3162920Y-1557341D01*
X3162920Y-1557341D02*
X3162920Y-1519246D01*
X3162920Y-1519246D02*
X3172444Y-1471627D01*
X3172444Y-1471627D02*
X3181968Y-1443055D01*
X3181968Y-1443055D02*
X3191491Y-1424008D01*
X3191491Y-1424008D02*
X3210539Y-1395436D01*
X3210539Y-1395436D02*
X3220063Y-1385912D01*
X3381968Y-1481150D02*
X3381968Y-1614484D01*
X3334348Y-1404960D02*
X3286729Y-1547817D01*
X3286729Y-1547817D02*
X3410539Y-1547817D01*
X3639110Y-1614484D02*
X3639110Y-1414484D01*
X3724825Y-1614484D02*
X3724825Y-1509722D01*
X3724825Y-1509722D02*
X3715301Y-1490674D01*
X3715301Y-1490674D02*
X3696253Y-1481150D01*
X3696253Y-1481150D02*
X3667682Y-1481150D01*
X3667682Y-1481150D02*
X3648634Y-1490674D01*
X3648634Y-1490674D02*
X3639110Y-1500198D01*
X3848634Y-1614484D02*
X3829587Y-1604960D01*
X3829587Y-1604960D02*
X3820063Y-1595436D01*
X3820063Y-1595436D02*
X3810539Y-1576388D01*
X3810539Y-1576388D02*
X3810539Y-1519246D01*
X3810539Y-1519246D02*
X3820063Y-1500198D01*
X3820063Y-1500198D02*
X3829587Y-1490674D01*
X3829587Y-1490674D02*
X3848634Y-1481150D01*
X3848634Y-1481150D02*
X3877206Y-1481150D01*
X3877206Y-1481150D02*
X3896253Y-1490674D01*
X3896253Y-1490674D02*
X3905777Y-1500198D01*
X3905777Y-1500198D02*
X3915301Y-1519246D01*
X3915301Y-1519246D02*
X3915301Y-1576388D01*
X3915301Y-1576388D02*
X3905777Y-1595436D01*
X3905777Y-1595436D02*
X3896253Y-1604960D01*
X3896253Y-1604960D02*
X3877206Y-1614484D01*
X3877206Y-1614484D02*
X3848634Y-1614484D01*
X4029587Y-1614484D02*
X4010539Y-1604960D01*
X4010539Y-1604960D02*
X4001015Y-1585912D01*
X4001015Y-1585912D02*
X4001015Y-1414484D01*
X4181968Y-1604960D02*
X4162920Y-1614484D01*
X4162920Y-1614484D02*
X4124825Y-1614484D01*
X4124825Y-1614484D02*
X4105777Y-1604960D01*
X4105777Y-1604960D02*
X4096253Y-1585912D01*
X4096253Y-1585912D02*
X4096253Y-1509722D01*
X4096253Y-1509722D02*
X4105777Y-1490674D01*
X4105777Y-1490674D02*
X4124825Y-1481150D01*
X4124825Y-1481150D02*
X4162920Y-1481150D01*
X4162920Y-1481150D02*
X4181968Y-1490674D01*
X4181968Y-1490674D02*
X4191491Y-1509722D01*
X4191491Y-1509722D02*
X4191491Y-1528769D01*
X4191491Y-1528769D02*
X4096253Y-1547817D01*
X4267682Y-1604960D02*
X4286730Y-1614484D01*
X4286730Y-1614484D02*
X4324825Y-1614484D01*
X4324825Y-1614484D02*
X4343873Y-1604960D01*
X4343873Y-1604960D02*
X4353396Y-1585912D01*
X4353396Y-1585912D02*
X4353396Y-1576388D01*
X4353396Y-1576388D02*
X4343873Y-1557341D01*
X4343873Y-1557341D02*
X4324825Y-1547817D01*
X4324825Y-1547817D02*
X4296253Y-1547817D01*
X4296253Y-1547817D02*
X4277206Y-1538293D01*
X4277206Y-1538293D02*
X4267682Y-1519246D01*
X4267682Y-1519246D02*
X4267682Y-1509722D01*
X4267682Y-1509722D02*
X4277206Y-1490674D01*
X4277206Y-1490674D02*
X4296253Y-1481150D01*
X4296253Y-1481150D02*
X4324825Y-1481150D01*
X4324825Y-1481150D02*
X4343873Y-1490674D01*
X4420063Y-1690674D02*
X4429587Y-1681150D01*
X4429587Y-1681150D02*
X4448634Y-1652579D01*
X4448634Y-1652579D02*
X4458158Y-1633531D01*
X4458158Y-1633531D02*
X4467682Y-1604960D01*
X4467682Y-1604960D02*
X4477206Y-1557341D01*
X4477206Y-1557341D02*
X4477206Y-1519246D01*
X4477206Y-1519246D02*
X4467682Y-1471627D01*
X4467682Y-1471627D02*
X4458158Y-1443055D01*
X4458158Y-1443055D02*
X4448634Y-1424008D01*
X4448634Y-1424008D02*
X4429587Y-1395436D01*
X4429587Y-1395436D02*
X4420063Y-1385912D01*
D10*
X-363787Y-1808213D02*
X-363787Y-1765787D01*
X-406213Y-1765787D01*
X-406213Y-1808213D01*
X-363787Y-1808213D01*
D11*
X-56128Y-1678484D02*
X-37080Y-1678484D01*
X-37080Y-1678484D02*
X-18033Y-1688008D01*
X-18033Y-1688008D02*
X-8509Y-1697531D01*
X-8509Y-1697531D02*
X1015Y-1716579D01*
X1015Y-1716579D02*
X10539Y-1754674D01*
X10539Y-1754674D02*
X10539Y-1802293D01*
X10539Y-1802293D02*
X1015Y-1840388D01*
X1015Y-1840388D02*
X-8509Y-1859436D01*
X-8509Y-1859436D02*
X-18033Y-1868960D01*
X-18033Y-1868960D02*
X-37080Y-1878484D01*
X-37080Y-1878484D02*
X-56128Y-1878484D01*
X-56128Y-1878484D02*
X-75176Y-1868960D01*
X-75176Y-1868960D02*
X-84699Y-1859436D01*
X-84699Y-1859436D02*
X-94223Y-1840388D01*
X-94223Y-1840388D02*
X-103747Y-1802293D01*
X-103747Y-1802293D02*
X-103747Y-1754674D01*
X-103747Y-1754674D02*
X-94223Y-1716579D01*
X-94223Y-1716579D02*
X-84699Y-1697531D01*
X-84699Y-1697531D02*
X-75176Y-1688008D01*
X-75176Y-1688008D02*
X-56128Y-1678484D01*
X96253Y-1859436D02*
X105777Y-1868960D01*
X105777Y-1868960D02*
X96253Y-1878484D01*
X96253Y-1878484D02*
X86729Y-1868960D01*
X86729Y-1868960D02*
X96253Y-1859436D01*
X96253Y-1859436D02*
X96253Y-1878484D01*
X277205Y-1678484D02*
X239110Y-1678484D01*
X239110Y-1678484D02*
X220062Y-1688008D01*
X220062Y-1688008D02*
X210539Y-1697531D01*
X210539Y-1697531D02*
X191491Y-1726103D01*
X191491Y-1726103D02*
X181967Y-1764198D01*
X181967Y-1764198D02*
X181967Y-1840388D01*
X181967Y-1840388D02*
X191491Y-1859436D01*
X191491Y-1859436D02*
X201015Y-1868960D01*
X201015Y-1868960D02*
X220062Y-1878484D01*
X220062Y-1878484D02*
X258158Y-1878484D01*
X258158Y-1878484D02*
X277205Y-1868960D01*
X277205Y-1868960D02*
X286729Y-1859436D01*
X286729Y-1859436D02*
X296253Y-1840388D01*
X296253Y-1840388D02*
X296253Y-1792769D01*
X296253Y-1792769D02*
X286729Y-1773722D01*
X286729Y-1773722D02*
X277205Y-1764198D01*
X277205Y-1764198D02*
X258158Y-1754674D01*
X258158Y-1754674D02*
X220062Y-1754674D01*
X220062Y-1754674D02*
X201015Y-1764198D01*
X201015Y-1764198D02*
X191491Y-1773722D01*
X191491Y-1773722D02*
X181967Y-1792769D01*
X420062Y-1678484D02*
X439110Y-1678484D01*
X439110Y-1678484D02*
X458158Y-1688008D01*
X458158Y-1688008D02*
X467682Y-1697531D01*
X467682Y-1697531D02*
X477205Y-1716579D01*
X477205Y-1716579D02*
X486729Y-1754674D01*
X486729Y-1754674D02*
X486729Y-1802293D01*
X486729Y-1802293D02*
X477205Y-1840388D01*
X477205Y-1840388D02*
X467682Y-1859436D01*
X467682Y-1859436D02*
X458158Y-1868960D01*
X458158Y-1868960D02*
X439110Y-1878484D01*
X439110Y-1878484D02*
X420062Y-1878484D01*
X420062Y-1878484D02*
X401015Y-1868960D01*
X401015Y-1868960D02*
X391491Y-1859436D01*
X391491Y-1859436D02*
X381967Y-1840388D01*
X381967Y-1840388D02*
X372443Y-1802293D01*
X372443Y-1802293D02*
X372443Y-1754674D01*
X372443Y-1754674D02*
X381967Y-1716579D01*
X381967Y-1716579D02*
X391491Y-1697531D01*
X391491Y-1697531D02*
X401015Y-1688008D01*
X401015Y-1688008D02*
X420062Y-1678484D01*
X610539Y-1678484D02*
X629586Y-1678484D01*
X629586Y-1678484D02*
X648634Y-1688008D01*
X648634Y-1688008D02*
X658158Y-1697531D01*
X658158Y-1697531D02*
X667682Y-1716579D01*
X667682Y-1716579D02*
X677205Y-1754674D01*
X677205Y-1754674D02*
X677205Y-1802293D01*
X677205Y-1802293D02*
X667682Y-1840388D01*
X667682Y-1840388D02*
X658158Y-1859436D01*
X658158Y-1859436D02*
X648634Y-1868960D01*
X648634Y-1868960D02*
X629586Y-1878484D01*
X629586Y-1878484D02*
X610539Y-1878484D01*
X610539Y-1878484D02*
X591491Y-1868960D01*
X591491Y-1868960D02*
X581967Y-1859436D01*
X581967Y-1859436D02*
X572444Y-1840388D01*
X572444Y-1840388D02*
X562920Y-1802293D01*
X562920Y-1802293D02*
X562920Y-1754674D01*
X562920Y-1754674D02*
X572444Y-1716579D01*
X572444Y-1716579D02*
X581967Y-1697531D01*
X581967Y-1697531D02*
X591491Y-1688008D01*
X591491Y-1688008D02*
X610539Y-1678484D01*
X762920Y-1878484D02*
X762920Y-1745150D01*
X762920Y-1764198D02*
X772443Y-1754674D01*
X772443Y-1754674D02*
X791491Y-1745150D01*
X791491Y-1745150D02*
X820063Y-1745150D01*
X820063Y-1745150D02*
X839110Y-1754674D01*
X839110Y-1754674D02*
X848634Y-1773722D01*
X848634Y-1773722D02*
X848634Y-1878484D01*
X848634Y-1773722D02*
X858158Y-1754674D01*
X858158Y-1754674D02*
X877205Y-1745150D01*
X877205Y-1745150D02*
X905777Y-1745150D01*
X905777Y-1745150D02*
X924824Y-1754674D01*
X924824Y-1754674D02*
X934348Y-1773722D01*
X934348Y-1773722D02*
X934348Y-1878484D01*
X1029586Y-1878484D02*
X1029586Y-1745150D01*
X1029586Y-1764198D02*
X1039110Y-1754674D01*
X1039110Y-1754674D02*
X1058158Y-1745150D01*
X1058158Y-1745150D02*
X1086729Y-1745150D01*
X1086729Y-1745150D02*
X1105777Y-1754674D01*
X1105777Y-1754674D02*
X1115301Y-1773722D01*
X1115301Y-1773722D02*
X1115301Y-1878484D01*
X1115301Y-1773722D02*
X1124825Y-1754674D01*
X1124825Y-1754674D02*
X1143872Y-1745150D01*
X1143872Y-1745150D02*
X1172444Y-1745150D01*
X1172444Y-1745150D02*
X1191491Y-1754674D01*
X1191491Y-1754674D02*
X1201015Y-1773722D01*
X1201015Y-1773722D02*
X1201015Y-1878484D01*
X1591491Y-1668960D02*
X1420063Y-1926103D01*
X1848634Y-1678484D02*
X1867682Y-1678484D01*
X1867682Y-1678484D02*
X1886729Y-1688008D01*
X1886729Y-1688008D02*
X1896253Y-1697531D01*
X1896253Y-1697531D02*
X1905777Y-1716579D01*
X1905777Y-1716579D02*
X1915301Y-1754674D01*
X1915301Y-1754674D02*
X1915301Y-1802293D01*
X1915301Y-1802293D02*
X1905777Y-1840388D01*
X1905777Y-1840388D02*
X1896253Y-1859436D01*
X1896253Y-1859436D02*
X1886729Y-1868960D01*
X1886729Y-1868960D02*
X1867682Y-1878484D01*
X1867682Y-1878484D02*
X1848634Y-1878484D01*
X1848634Y-1878484D02*
X1829586Y-1868960D01*
X1829586Y-1868960D02*
X1820063Y-1859436D01*
X1820063Y-1859436D02*
X1810539Y-1840388D01*
X1810539Y-1840388D02*
X1801015Y-1802293D01*
X1801015Y-1802293D02*
X1801015Y-1754674D01*
X1801015Y-1754674D02*
X1810539Y-1716579D01*
X1810539Y-1716579D02*
X1820063Y-1697531D01*
X1820063Y-1697531D02*
X1829586Y-1688008D01*
X1829586Y-1688008D02*
X1848634Y-1678484D01*
X2001015Y-1859436D02*
X2010539Y-1868960D01*
X2010539Y-1868960D02*
X2001015Y-1878484D01*
X2001015Y-1878484D02*
X1991491Y-1868960D01*
X1991491Y-1868960D02*
X2001015Y-1859436D01*
X2001015Y-1859436D02*
X2001015Y-1878484D01*
X2134348Y-1678484D02*
X2153396Y-1678484D01*
X2153396Y-1678484D02*
X2172444Y-1688008D01*
X2172444Y-1688008D02*
X2181968Y-1697531D01*
X2181968Y-1697531D02*
X2191491Y-1716579D01*
X2191491Y-1716579D02*
X2201015Y-1754674D01*
X2201015Y-1754674D02*
X2201015Y-1802293D01*
X2201015Y-1802293D02*
X2191491Y-1840388D01*
X2191491Y-1840388D02*
X2181968Y-1859436D01*
X2181968Y-1859436D02*
X2172444Y-1868960D01*
X2172444Y-1868960D02*
X2153396Y-1878484D01*
X2153396Y-1878484D02*
X2134348Y-1878484D01*
X2134348Y-1878484D02*
X2115301Y-1868960D01*
X2115301Y-1868960D02*
X2105777Y-1859436D01*
X2105777Y-1859436D02*
X2096253Y-1840388D01*
X2096253Y-1840388D02*
X2086729Y-1802293D01*
X2086729Y-1802293D02*
X2086729Y-1754674D01*
X2086729Y-1754674D02*
X2096253Y-1716579D01*
X2096253Y-1716579D02*
X2105777Y-1697531D01*
X2105777Y-1697531D02*
X2115301Y-1688008D01*
X2115301Y-1688008D02*
X2134348Y-1678484D01*
X2277206Y-1697531D02*
X2286729Y-1688008D01*
X2286729Y-1688008D02*
X2305777Y-1678484D01*
X2305777Y-1678484D02*
X2353396Y-1678484D01*
X2353396Y-1678484D02*
X2372444Y-1688008D01*
X2372444Y-1688008D02*
X2381968Y-1697531D01*
X2381968Y-1697531D02*
X2391491Y-1716579D01*
X2391491Y-1716579D02*
X2391491Y-1735627D01*
X2391491Y-1735627D02*
X2381968Y-1764198D01*
X2381968Y-1764198D02*
X2267682Y-1878484D01*
X2267682Y-1878484D02*
X2391491Y-1878484D01*
X2458158Y-1678484D02*
X2581968Y-1678484D01*
X2581968Y-1678484D02*
X2515301Y-1754674D01*
X2515301Y-1754674D02*
X2543872Y-1754674D01*
X2543872Y-1754674D02*
X2562920Y-1764198D01*
X2562920Y-1764198D02*
X2572444Y-1773722D01*
X2572444Y-1773722D02*
X2581968Y-1792769D01*
X2581968Y-1792769D02*
X2581968Y-1840388D01*
X2581968Y-1840388D02*
X2572444Y-1859436D01*
X2572444Y-1859436D02*
X2562920Y-1868960D01*
X2562920Y-1868960D02*
X2543872Y-1878484D01*
X2543872Y-1878484D02*
X2486729Y-1878484D01*
X2486729Y-1878484D02*
X2467682Y-1868960D01*
X2467682Y-1868960D02*
X2458158Y-1859436D01*
X2753396Y-1678484D02*
X2715301Y-1678484D01*
X2715301Y-1678484D02*
X2696253Y-1688008D01*
X2696253Y-1688008D02*
X2686729Y-1697531D01*
X2686729Y-1697531D02*
X2667682Y-1726103D01*
X2667682Y-1726103D02*
X2658158Y-1764198D01*
X2658158Y-1764198D02*
X2658158Y-1840388D01*
X2658158Y-1840388D02*
X2667682Y-1859436D01*
X2667682Y-1859436D02*
X2677206Y-1868960D01*
X2677206Y-1868960D02*
X2696253Y-1878484D01*
X2696253Y-1878484D02*
X2734349Y-1878484D01*
X2734349Y-1878484D02*
X2753396Y-1868960D01*
X2753396Y-1868960D02*
X2762920Y-1859436D01*
X2762920Y-1859436D02*
X2772444Y-1840388D01*
X2772444Y-1840388D02*
X2772444Y-1792769D01*
X2772444Y-1792769D02*
X2762920Y-1773722D01*
X2762920Y-1773722D02*
X2753396Y-1764198D01*
X2753396Y-1764198D02*
X2734349Y-1754674D01*
X2734349Y-1754674D02*
X2696253Y-1754674D01*
X2696253Y-1754674D02*
X2677206Y-1764198D01*
X2677206Y-1764198D02*
X2667682Y-1773722D01*
X2667682Y-1773722D02*
X2658158Y-1792769D01*
X2848634Y-1678484D02*
X2848634Y-1716579D01*
X2924825Y-1678484D02*
X2924825Y-1716579D01*
X3220063Y-1954674D02*
X3210539Y-1945150D01*
X3210539Y-1945150D02*
X3191491Y-1916579D01*
X3191491Y-1916579D02*
X3181968Y-1897531D01*
X3181968Y-1897531D02*
X3172444Y-1868960D01*
X3172444Y-1868960D02*
X3162920Y-1821341D01*
X3162920Y-1821341D02*
X3162920Y-1783246D01*
X3162920Y-1783246D02*
X3172444Y-1735627D01*
X3172444Y-1735627D02*
X3181968Y-1707055D01*
X3181968Y-1707055D02*
X3191491Y-1688008D01*
X3191491Y-1688008D02*
X3210539Y-1659436D01*
X3210539Y-1659436D02*
X3220063Y-1649912D01*
X3334348Y-1678484D02*
X3353396Y-1678484D01*
X3353396Y-1678484D02*
X3372444Y-1688008D01*
X3372444Y-1688008D02*
X3381968Y-1697531D01*
X3381968Y-1697531D02*
X3391491Y-1716579D01*
X3391491Y-1716579D02*
X3401015Y-1754674D01*
X3401015Y-1754674D02*
X3401015Y-1802293D01*
X3401015Y-1802293D02*
X3391491Y-1840388D01*
X3391491Y-1840388D02*
X3381968Y-1859436D01*
X3381968Y-1859436D02*
X3372444Y-1868960D01*
X3372444Y-1868960D02*
X3353396Y-1878484D01*
X3353396Y-1878484D02*
X3334348Y-1878484D01*
X3334348Y-1878484D02*
X3315301Y-1868960D01*
X3315301Y-1868960D02*
X3305777Y-1859436D01*
X3305777Y-1859436D02*
X3296253Y-1840388D01*
X3296253Y-1840388D02*
X3286729Y-1802293D01*
X3286729Y-1802293D02*
X3286729Y-1754674D01*
X3286729Y-1754674D02*
X3296253Y-1716579D01*
X3296253Y-1716579D02*
X3305777Y-1697531D01*
X3305777Y-1697531D02*
X3315301Y-1688008D01*
X3315301Y-1688008D02*
X3334348Y-1678484D01*
X3639110Y-1878484D02*
X3639110Y-1678484D01*
X3724825Y-1878484D02*
X3724825Y-1773722D01*
X3724825Y-1773722D02*
X3715301Y-1754674D01*
X3715301Y-1754674D02*
X3696253Y-1745150D01*
X3696253Y-1745150D02*
X3667682Y-1745150D01*
X3667682Y-1745150D02*
X3648634Y-1754674D01*
X3648634Y-1754674D02*
X3639110Y-1764198D01*
X3848634Y-1878484D02*
X3829587Y-1868960D01*
X3829587Y-1868960D02*
X3820063Y-1859436D01*
X3820063Y-1859436D02*
X3810539Y-1840388D01*
X3810539Y-1840388D02*
X3810539Y-1783246D01*
X3810539Y-1783246D02*
X3820063Y-1764198D01*
X3820063Y-1764198D02*
X3829587Y-1754674D01*
X3829587Y-1754674D02*
X3848634Y-1745150D01*
X3848634Y-1745150D02*
X3877206Y-1745150D01*
X3877206Y-1745150D02*
X3896253Y-1754674D01*
X3896253Y-1754674D02*
X3905777Y-1764198D01*
X3905777Y-1764198D02*
X3915301Y-1783246D01*
X3915301Y-1783246D02*
X3915301Y-1840388D01*
X3915301Y-1840388D02*
X3905777Y-1859436D01*
X3905777Y-1859436D02*
X3896253Y-1868960D01*
X3896253Y-1868960D02*
X3877206Y-1878484D01*
X3877206Y-1878484D02*
X3848634Y-1878484D01*
X4029587Y-1878484D02*
X4010539Y-1868960D01*
X4010539Y-1868960D02*
X4001015Y-1849912D01*
X4001015Y-1849912D02*
X4001015Y-1678484D01*
X4181968Y-1868960D02*
X4162920Y-1878484D01*
X4162920Y-1878484D02*
X4124825Y-1878484D01*
X4124825Y-1878484D02*
X4105777Y-1868960D01*
X4105777Y-1868960D02*
X4096253Y-1849912D01*
X4096253Y-1849912D02*
X4096253Y-1773722D01*
X4096253Y-1773722D02*
X4105777Y-1754674D01*
X4105777Y-1754674D02*
X4124825Y-1745150D01*
X4124825Y-1745150D02*
X4162920Y-1745150D01*
X4162920Y-1745150D02*
X4181968Y-1754674D01*
X4181968Y-1754674D02*
X4191491Y-1773722D01*
X4191491Y-1773722D02*
X4191491Y-1792769D01*
X4191491Y-1792769D02*
X4096253Y-1811817D01*
X4267682Y-1868960D02*
X4286730Y-1878484D01*
X4286730Y-1878484D02*
X4324825Y-1878484D01*
X4324825Y-1878484D02*
X4343873Y-1868960D01*
X4343873Y-1868960D02*
X4353396Y-1849912D01*
X4353396Y-1849912D02*
X4353396Y-1840388D01*
X4353396Y-1840388D02*
X4343873Y-1821341D01*
X4343873Y-1821341D02*
X4324825Y-1811817D01*
X4324825Y-1811817D02*
X4296253Y-1811817D01*
X4296253Y-1811817D02*
X4277206Y-1802293D01*
X4277206Y-1802293D02*
X4267682Y-1783246D01*
X4267682Y-1783246D02*
X4267682Y-1773722D01*
X4267682Y-1773722D02*
X4277206Y-1754674D01*
X4277206Y-1754674D02*
X4296253Y-1745150D01*
X4296253Y-1745150D02*
X4324825Y-1745150D01*
X4324825Y-1745150D02*
X4343873Y-1754674D01*
X4591492Y-1802293D02*
X4743873Y-1802293D01*
X4667682Y-1878484D02*
X4667682Y-1726103D01*
X5077206Y-1745150D02*
X5077206Y-1878484D01*
X5029587Y-1668960D02*
X4981968Y-1811817D01*
X4981968Y-1811817D02*
X5105777Y-1811817D01*
X5324825Y-1868960D02*
X5343873Y-1878484D01*
X5343873Y-1878484D02*
X5381968Y-1878484D01*
X5381968Y-1878484D02*
X5401016Y-1868960D01*
X5401016Y-1868960D02*
X5410539Y-1849912D01*
X5410539Y-1849912D02*
X5410539Y-1840388D01*
X5410539Y-1840388D02*
X5401016Y-1821341D01*
X5401016Y-1821341D02*
X5381968Y-1811817D01*
X5381968Y-1811817D02*
X5353396Y-1811817D01*
X5353396Y-1811817D02*
X5334349Y-1802293D01*
X5334349Y-1802293D02*
X5324825Y-1783246D01*
X5324825Y-1783246D02*
X5324825Y-1773722D01*
X5324825Y-1773722D02*
X5334349Y-1754674D01*
X5334349Y-1754674D02*
X5353396Y-1745150D01*
X5353396Y-1745150D02*
X5381968Y-1745150D01*
X5381968Y-1745150D02*
X5401016Y-1754674D01*
X5524825Y-1878484D02*
X5505777Y-1868960D01*
X5505777Y-1868960D02*
X5496254Y-1849912D01*
X5496254Y-1849912D02*
X5496254Y-1678484D01*
X5629587Y-1878484D02*
X5610539Y-1868960D01*
X5610539Y-1868960D02*
X5601015Y-1859436D01*
X5601015Y-1859436D02*
X5591492Y-1840388D01*
X5591492Y-1840388D02*
X5591492Y-1783246D01*
X5591492Y-1783246D02*
X5601015Y-1764198D01*
X5601015Y-1764198D02*
X5610539Y-1754674D01*
X5610539Y-1754674D02*
X5629587Y-1745150D01*
X5629587Y-1745150D02*
X5658158Y-1745150D01*
X5658158Y-1745150D02*
X5677206Y-1754674D01*
X5677206Y-1754674D02*
X5686730Y-1764198D01*
X5686730Y-1764198D02*
X5696254Y-1783246D01*
X5696254Y-1783246D02*
X5696254Y-1840388D01*
X5696254Y-1840388D02*
X5686730Y-1859436D01*
X5686730Y-1859436D02*
X5677206Y-1868960D01*
X5677206Y-1868960D02*
X5658158Y-1878484D01*
X5658158Y-1878484D02*
X5629587Y-1878484D01*
X5753396Y-1745150D02*
X5829587Y-1745150D01*
X5781968Y-1678484D02*
X5781968Y-1849912D01*
X5781968Y-1849912D02*
X5791492Y-1868960D01*
X5791492Y-1868960D02*
X5810539Y-1878484D01*
X5810539Y-1878484D02*
X5829587Y-1878484D01*
X5886730Y-1868960D02*
X5905777Y-1878484D01*
X5905777Y-1878484D02*
X5943873Y-1878484D01*
X5943873Y-1878484D02*
X5962920Y-1868960D01*
X5962920Y-1868960D02*
X5972444Y-1849912D01*
X5972444Y-1849912D02*
X5972444Y-1840388D01*
X5972444Y-1840388D02*
X5962920Y-1821341D01*
X5962920Y-1821341D02*
X5943873Y-1811817D01*
X5943873Y-1811817D02*
X5915301Y-1811817D01*
X5915301Y-1811817D02*
X5896254Y-1802293D01*
X5896254Y-1802293D02*
X5886730Y-1783246D01*
X5886730Y-1783246D02*
X5886730Y-1773722D01*
X5886730Y-1773722D02*
X5896254Y-1754674D01*
X5896254Y-1754674D02*
X5915301Y-1745150D01*
X5915301Y-1745150D02*
X5943873Y-1745150D01*
X5943873Y-1745150D02*
X5962920Y-1754674D01*
X6039111Y-1954674D02*
X6048635Y-1945150D01*
X6048635Y-1945150D02*
X6067682Y-1916579D01*
X6067682Y-1916579D02*
X6077206Y-1897531D01*
X6077206Y-1897531D02*
X6086730Y-1868960D01*
X6086730Y-1868960D02*
X6096254Y-1821341D01*
X6096254Y-1821341D02*
X6096254Y-1783246D01*
X6096254Y-1783246D02*
X6086730Y-1735627D01*
X6086730Y-1735627D02*
X6077206Y-1707055D01*
X6077206Y-1707055D02*
X6067682Y-1688008D01*
X6067682Y-1688008D02*
X6048635Y-1659436D01*
X6048635Y-1659436D02*
X6039111Y-1649912D01*
D10*
X-405000Y-2101000D02*
X-355000Y-2051000D01*
X-405000Y-2001000D01*
X-455000Y-2051000D01*
X-405000Y-2101000D01*
D11*
X10539Y-2142484D02*
X-103747Y-2142484D01*
X-46604Y-2142484D02*
X-46604Y-1942484D01*
X-46604Y-1942484D02*
X-65652Y-1971055D01*
X-65652Y-1971055D02*
X-84699Y-1990103D01*
X-84699Y-1990103D02*
X-103747Y-1999627D01*
X96253Y-2123436D02*
X105777Y-2132960D01*
X105777Y-2132960D02*
X96253Y-2142484D01*
X96253Y-2142484D02*
X86729Y-2132960D01*
X86729Y-2132960D02*
X96253Y-2123436D01*
X96253Y-2123436D02*
X96253Y-2142484D01*
X229586Y-1942484D02*
X248634Y-1942484D01*
X248634Y-1942484D02*
X267682Y-1952008D01*
X267682Y-1952008D02*
X277205Y-1961531D01*
X277205Y-1961531D02*
X286729Y-1980579D01*
X286729Y-1980579D02*
X296253Y-2018674D01*
X296253Y-2018674D02*
X296253Y-2066293D01*
X296253Y-2066293D02*
X286729Y-2104389D01*
X286729Y-2104389D02*
X277205Y-2123436D01*
X277205Y-2123436D02*
X267682Y-2132960D01*
X267682Y-2132960D02*
X248634Y-2142484D01*
X248634Y-2142484D02*
X229586Y-2142484D01*
X229586Y-2142484D02*
X210539Y-2132960D01*
X210539Y-2132960D02*
X201015Y-2123436D01*
X201015Y-2123436D02*
X191491Y-2104389D01*
X191491Y-2104389D02*
X181967Y-2066293D01*
X181967Y-2066293D02*
X181967Y-2018674D01*
X181967Y-2018674D02*
X191491Y-1980579D01*
X191491Y-1980579D02*
X201015Y-1961531D01*
X201015Y-1961531D02*
X210539Y-1952008D01*
X210539Y-1952008D02*
X229586Y-1942484D01*
X420062Y-1942484D02*
X439110Y-1942484D01*
X439110Y-1942484D02*
X458158Y-1952008D01*
X458158Y-1952008D02*
X467682Y-1961531D01*
X467682Y-1961531D02*
X477205Y-1980579D01*
X477205Y-1980579D02*
X486729Y-2018674D01*
X486729Y-2018674D02*
X486729Y-2066293D01*
X486729Y-2066293D02*
X477205Y-2104389D01*
X477205Y-2104389D02*
X467682Y-2123436D01*
X467682Y-2123436D02*
X458158Y-2132960D01*
X458158Y-2132960D02*
X439110Y-2142484D01*
X439110Y-2142484D02*
X420062Y-2142484D01*
X420062Y-2142484D02*
X401015Y-2132960D01*
X401015Y-2132960D02*
X391491Y-2123436D01*
X391491Y-2123436D02*
X381967Y-2104389D01*
X381967Y-2104389D02*
X372443Y-2066293D01*
X372443Y-2066293D02*
X372443Y-2018674D01*
X372443Y-2018674D02*
X381967Y-1980579D01*
X381967Y-1980579D02*
X391491Y-1961531D01*
X391491Y-1961531D02*
X401015Y-1952008D01*
X401015Y-1952008D02*
X420062Y-1942484D01*
X610539Y-1942484D02*
X629586Y-1942484D01*
X629586Y-1942484D02*
X648634Y-1952008D01*
X648634Y-1952008D02*
X658158Y-1961531D01*
X658158Y-1961531D02*
X667682Y-1980579D01*
X667682Y-1980579D02*
X677205Y-2018674D01*
X677205Y-2018674D02*
X677205Y-2066293D01*
X677205Y-2066293D02*
X667682Y-2104389D01*
X667682Y-2104389D02*
X658158Y-2123436D01*
X658158Y-2123436D02*
X648634Y-2132960D01*
X648634Y-2132960D02*
X629586Y-2142484D01*
X629586Y-2142484D02*
X610539Y-2142484D01*
X610539Y-2142484D02*
X591491Y-2132960D01*
X591491Y-2132960D02*
X581967Y-2123436D01*
X581967Y-2123436D02*
X572444Y-2104389D01*
X572444Y-2104389D02*
X562920Y-2066293D01*
X562920Y-2066293D02*
X562920Y-2018674D01*
X562920Y-2018674D02*
X572444Y-1980579D01*
X572444Y-1980579D02*
X581967Y-1961531D01*
X581967Y-1961531D02*
X591491Y-1952008D01*
X591491Y-1952008D02*
X610539Y-1942484D01*
X762920Y-2142484D02*
X762920Y-2009150D01*
X762920Y-2028198D02*
X772443Y-2018674D01*
X772443Y-2018674D02*
X791491Y-2009150D01*
X791491Y-2009150D02*
X820063Y-2009150D01*
X820063Y-2009150D02*
X839110Y-2018674D01*
X839110Y-2018674D02*
X848634Y-2037722D01*
X848634Y-2037722D02*
X848634Y-2142484D01*
X848634Y-2037722D02*
X858158Y-2018674D01*
X858158Y-2018674D02*
X877205Y-2009150D01*
X877205Y-2009150D02*
X905777Y-2009150D01*
X905777Y-2009150D02*
X924824Y-2018674D01*
X924824Y-2018674D02*
X934348Y-2037722D01*
X934348Y-2037722D02*
X934348Y-2142484D01*
X1029586Y-2142484D02*
X1029586Y-2009150D01*
X1029586Y-2028198D02*
X1039110Y-2018674D01*
X1039110Y-2018674D02*
X1058158Y-2009150D01*
X1058158Y-2009150D02*
X1086729Y-2009150D01*
X1086729Y-2009150D02*
X1105777Y-2018674D01*
X1105777Y-2018674D02*
X1115301Y-2037722D01*
X1115301Y-2037722D02*
X1115301Y-2142484D01*
X1115301Y-2037722D02*
X1124825Y-2018674D01*
X1124825Y-2018674D02*
X1143872Y-2009150D01*
X1143872Y-2009150D02*
X1172444Y-2009150D01*
X1172444Y-2009150D02*
X1191491Y-2018674D01*
X1191491Y-2018674D02*
X1201015Y-2037722D01*
X1201015Y-2037722D02*
X1201015Y-2142484D01*
X1591491Y-1932960D02*
X1420063Y-2190103D01*
X1848634Y-1942484D02*
X1867682Y-1942484D01*
X1867682Y-1942484D02*
X1886729Y-1952008D01*
X1886729Y-1952008D02*
X1896253Y-1961531D01*
X1896253Y-1961531D02*
X1905777Y-1980579D01*
X1905777Y-1980579D02*
X1915301Y-2018674D01*
X1915301Y-2018674D02*
X1915301Y-2066293D01*
X1915301Y-2066293D02*
X1905777Y-2104389D01*
X1905777Y-2104389D02*
X1896253Y-2123436D01*
X1896253Y-2123436D02*
X1886729Y-2132960D01*
X1886729Y-2132960D02*
X1867682Y-2142484D01*
X1867682Y-2142484D02*
X1848634Y-2142484D01*
X1848634Y-2142484D02*
X1829586Y-2132960D01*
X1829586Y-2132960D02*
X1820063Y-2123436D01*
X1820063Y-2123436D02*
X1810539Y-2104389D01*
X1810539Y-2104389D02*
X1801015Y-2066293D01*
X1801015Y-2066293D02*
X1801015Y-2018674D01*
X1801015Y-2018674D02*
X1810539Y-1980579D01*
X1810539Y-1980579D02*
X1820063Y-1961531D01*
X1820063Y-1961531D02*
X1829586Y-1952008D01*
X1829586Y-1952008D02*
X1848634Y-1942484D01*
X2001015Y-2123436D02*
X2010539Y-2132960D01*
X2010539Y-2132960D02*
X2001015Y-2142484D01*
X2001015Y-2142484D02*
X1991491Y-2132960D01*
X1991491Y-2132960D02*
X2001015Y-2123436D01*
X2001015Y-2123436D02*
X2001015Y-2142484D01*
X2134348Y-1942484D02*
X2153396Y-1942484D01*
X2153396Y-1942484D02*
X2172444Y-1952008D01*
X2172444Y-1952008D02*
X2181968Y-1961531D01*
X2181968Y-1961531D02*
X2191491Y-1980579D01*
X2191491Y-1980579D02*
X2201015Y-2018674D01*
X2201015Y-2018674D02*
X2201015Y-2066293D01*
X2201015Y-2066293D02*
X2191491Y-2104389D01*
X2191491Y-2104389D02*
X2181968Y-2123436D01*
X2181968Y-2123436D02*
X2172444Y-2132960D01*
X2172444Y-2132960D02*
X2153396Y-2142484D01*
X2153396Y-2142484D02*
X2134348Y-2142484D01*
X2134348Y-2142484D02*
X2115301Y-2132960D01*
X2115301Y-2132960D02*
X2105777Y-2123436D01*
X2105777Y-2123436D02*
X2096253Y-2104389D01*
X2096253Y-2104389D02*
X2086729Y-2066293D01*
X2086729Y-2066293D02*
X2086729Y-2018674D01*
X2086729Y-2018674D02*
X2096253Y-1980579D01*
X2096253Y-1980579D02*
X2105777Y-1961531D01*
X2105777Y-1961531D02*
X2115301Y-1952008D01*
X2115301Y-1952008D02*
X2134348Y-1942484D01*
X2267682Y-1942484D02*
X2391491Y-1942484D01*
X2391491Y-1942484D02*
X2324825Y-2018674D01*
X2324825Y-2018674D02*
X2353396Y-2018674D01*
X2353396Y-2018674D02*
X2372444Y-2028198D01*
X2372444Y-2028198D02*
X2381968Y-2037722D01*
X2381968Y-2037722D02*
X2391491Y-2056769D01*
X2391491Y-2056769D02*
X2391491Y-2104389D01*
X2391491Y-2104389D02*
X2381968Y-2123436D01*
X2381968Y-2123436D02*
X2372444Y-2132960D01*
X2372444Y-2132960D02*
X2353396Y-2142484D01*
X2353396Y-2142484D02*
X2296253Y-2142484D01*
X2296253Y-2142484D02*
X2277206Y-2132960D01*
X2277206Y-2132960D02*
X2267682Y-2123436D01*
X2486729Y-2142484D02*
X2524825Y-2142484D01*
X2524825Y-2142484D02*
X2543872Y-2132960D01*
X2543872Y-2132960D02*
X2553396Y-2123436D01*
X2553396Y-2123436D02*
X2572444Y-2094865D01*
X2572444Y-2094865D02*
X2581968Y-2056769D01*
X2581968Y-2056769D02*
X2581968Y-1980579D01*
X2581968Y-1980579D02*
X2572444Y-1961531D01*
X2572444Y-1961531D02*
X2562920Y-1952008D01*
X2562920Y-1952008D02*
X2543872Y-1942484D01*
X2543872Y-1942484D02*
X2505777Y-1942484D01*
X2505777Y-1942484D02*
X2486729Y-1952008D01*
X2486729Y-1952008D02*
X2477206Y-1961531D01*
X2477206Y-1961531D02*
X2467682Y-1980579D01*
X2467682Y-1980579D02*
X2467682Y-2028198D01*
X2467682Y-2028198D02*
X2477206Y-2047246D01*
X2477206Y-2047246D02*
X2486729Y-2056769D01*
X2486729Y-2056769D02*
X2505777Y-2066293D01*
X2505777Y-2066293D02*
X2543872Y-2066293D01*
X2543872Y-2066293D02*
X2562920Y-2056769D01*
X2562920Y-2056769D02*
X2572444Y-2047246D01*
X2572444Y-2047246D02*
X2581968Y-2028198D01*
X2753396Y-2009150D02*
X2753396Y-2142484D01*
X2705777Y-1932960D02*
X2658158Y-2075817D01*
X2658158Y-2075817D02*
X2781968Y-2075817D01*
X2848634Y-1942484D02*
X2848634Y-1980579D01*
X2924825Y-1942484D02*
X2924825Y-1980579D01*
X3220063Y-2218674D02*
X3210539Y-2209150D01*
X3210539Y-2209150D02*
X3191491Y-2180579D01*
X3191491Y-2180579D02*
X3181968Y-2161531D01*
X3181968Y-2161531D02*
X3172444Y-2132960D01*
X3172444Y-2132960D02*
X3162920Y-2085341D01*
X3162920Y-2085341D02*
X3162920Y-2047246D01*
X3162920Y-2047246D02*
X3172444Y-1999627D01*
X3172444Y-1999627D02*
X3181968Y-1971055D01*
X3181968Y-1971055D02*
X3191491Y-1952008D01*
X3191491Y-1952008D02*
X3210539Y-1923436D01*
X3210539Y-1923436D02*
X3220063Y-1913912D01*
X3381968Y-2009150D02*
X3381968Y-2142484D01*
X3334348Y-1932960D02*
X3286729Y-2075817D01*
X3286729Y-2075817D02*
X3410539Y-2075817D01*
X3524825Y-1942484D02*
X3543872Y-1942484D01*
X3543872Y-1942484D02*
X3562920Y-1952008D01*
X3562920Y-1952008D02*
X3572444Y-1961531D01*
X3572444Y-1961531D02*
X3581968Y-1980579D01*
X3581968Y-1980579D02*
X3591491Y-2018674D01*
X3591491Y-2018674D02*
X3591491Y-2066293D01*
X3591491Y-2066293D02*
X3581968Y-2104389D01*
X3581968Y-2104389D02*
X3572444Y-2123436D01*
X3572444Y-2123436D02*
X3562920Y-2132960D01*
X3562920Y-2132960D02*
X3543872Y-2142484D01*
X3543872Y-2142484D02*
X3524825Y-2142484D01*
X3524825Y-2142484D02*
X3505777Y-2132960D01*
X3505777Y-2132960D02*
X3496253Y-2123436D01*
X3496253Y-2123436D02*
X3486729Y-2104389D01*
X3486729Y-2104389D02*
X3477206Y-2066293D01*
X3477206Y-2066293D02*
X3477206Y-2018674D01*
X3477206Y-2018674D02*
X3486729Y-1980579D01*
X3486729Y-1980579D02*
X3496253Y-1961531D01*
X3496253Y-1961531D02*
X3505777Y-1952008D01*
X3505777Y-1952008D02*
X3524825Y-1942484D01*
X3829587Y-2142484D02*
X3829587Y-1942484D01*
X3915301Y-2142484D02*
X3915301Y-2037722D01*
X3915301Y-2037722D02*
X3905777Y-2018674D01*
X3905777Y-2018674D02*
X3886730Y-2009150D01*
X3886730Y-2009150D02*
X3858158Y-2009150D01*
X3858158Y-2009150D02*
X3839110Y-2018674D01*
X3839110Y-2018674D02*
X3829587Y-2028198D01*
X4039110Y-2142484D02*
X4020063Y-2132960D01*
X4020063Y-2132960D02*
X4010539Y-2123436D01*
X4010539Y-2123436D02*
X4001015Y-2104389D01*
X4001015Y-2104389D02*
X4001015Y-2047246D01*
X4001015Y-2047246D02*
X4010539Y-2028198D01*
X4010539Y-2028198D02*
X4020063Y-2018674D01*
X4020063Y-2018674D02*
X4039110Y-2009150D01*
X4039110Y-2009150D02*
X4067682Y-2009150D01*
X4067682Y-2009150D02*
X4086730Y-2018674D01*
X4086730Y-2018674D02*
X4096253Y-2028198D01*
X4096253Y-2028198D02*
X4105777Y-2047246D01*
X4105777Y-2047246D02*
X4105777Y-2104389D01*
X4105777Y-2104389D02*
X4096253Y-2123436D01*
X4096253Y-2123436D02*
X4086730Y-2132960D01*
X4086730Y-2132960D02*
X4067682Y-2142484D01*
X4067682Y-2142484D02*
X4039110Y-2142484D01*
X4220063Y-2142484D02*
X4201015Y-2132960D01*
X4201015Y-2132960D02*
X4191491Y-2113912D01*
X4191491Y-2113912D02*
X4191491Y-1942484D01*
X4372444Y-2132960D02*
X4353396Y-2142484D01*
X4353396Y-2142484D02*
X4315301Y-2142484D01*
X4315301Y-2142484D02*
X4296253Y-2132960D01*
X4296253Y-2132960D02*
X4286730Y-2113912D01*
X4286730Y-2113912D02*
X4286730Y-2037722D01*
X4286730Y-2037722D02*
X4296253Y-2018674D01*
X4296253Y-2018674D02*
X4315301Y-2009150D01*
X4315301Y-2009150D02*
X4353396Y-2009150D01*
X4353396Y-2009150D02*
X4372444Y-2018674D01*
X4372444Y-2018674D02*
X4381968Y-2037722D01*
X4381968Y-2037722D02*
X4381968Y-2056769D01*
X4381968Y-2056769D02*
X4286730Y-2075817D01*
X4458158Y-2132960D02*
X4477206Y-2142484D01*
X4477206Y-2142484D02*
X4515301Y-2142484D01*
X4515301Y-2142484D02*
X4534349Y-2132960D01*
X4534349Y-2132960D02*
X4543873Y-2113912D01*
X4543873Y-2113912D02*
X4543873Y-2104389D01*
X4543873Y-2104389D02*
X4534349Y-2085341D01*
X4534349Y-2085341D02*
X4515301Y-2075817D01*
X4515301Y-2075817D02*
X4486730Y-2075817D01*
X4486730Y-2075817D02*
X4467682Y-2066293D01*
X4467682Y-2066293D02*
X4458158Y-2047246D01*
X4458158Y-2047246D02*
X4458158Y-2037722D01*
X4458158Y-2037722D02*
X4467682Y-2018674D01*
X4467682Y-2018674D02*
X4486730Y-2009150D01*
X4486730Y-2009150D02*
X4515301Y-2009150D01*
X4515301Y-2009150D02*
X4534349Y-2018674D01*
X4610539Y-2218674D02*
X4620063Y-2209150D01*
X4620063Y-2209150D02*
X4639111Y-2180579D01*
X4639111Y-2180579D02*
X4648634Y-2161531D01*
X4648634Y-2161531D02*
X4658158Y-2132960D01*
X4658158Y-2132960D02*
X4667682Y-2085341D01*
X4667682Y-2085341D02*
X4667682Y-2047246D01*
X4667682Y-2047246D02*
X4658158Y-1999627D01*
X4658158Y-1999627D02*
X4648634Y-1971055D01*
X4648634Y-1971055D02*
X4639111Y-1952008D01*
X4639111Y-1952008D02*
X4620063Y-1923436D01*
X4620063Y-1923436D02*
X4610539Y-1913912D01*
M02*
