%TF.GenerationSoftware,KiCad,Pcbnew,7.0.10*%
%TF.CreationDate,2024-01-28T17:09:24+00:00*%
%TF.ProjectId,Microll,4d696372-6f6c-46c2-9e6b-696361645f70,rev?*%
%TF.SameCoordinates,PX6422c40PY7f13bd0*%
%TF.FileFunction,Legend,Bot*%
%TF.FilePolarity,Positive*%
%FSLAX46Y46*%
G04 Gerber Fmt 4.6, Leading zero omitted, Abs format (unit mm)*
G04 Created by KiCad (PCBNEW 7.0.10) date 2024-01-28 17:09:24*
%MOMM*%
%LPD*%
G01*
G04 APERTURE LIST*
%ADD10C,0.080000*%
%ADD11C,0.150000*%
%ADD12C,0.120000*%
G04 APERTURE END LIST*
D10*
X3561654Y16384731D02*
X3561654Y16984731D01*
X3561654Y16984731D02*
X3333083Y16984731D01*
X3333083Y16984731D02*
X3275940Y16956160D01*
X3275940Y16956160D02*
X3247369Y16927588D01*
X3247369Y16927588D02*
X3218797Y16870445D01*
X3218797Y16870445D02*
X3218797Y16784731D01*
X3218797Y16784731D02*
X3247369Y16727588D01*
X3247369Y16727588D02*
X3275940Y16699017D01*
X3275940Y16699017D02*
X3333083Y16670445D01*
X3333083Y16670445D02*
X3561654Y16670445D01*
X2761654Y16699017D02*
X2675940Y16670445D01*
X2675940Y16670445D02*
X2647369Y16641874D01*
X2647369Y16641874D02*
X2618797Y16584731D01*
X2618797Y16584731D02*
X2618797Y16499017D01*
X2618797Y16499017D02*
X2647369Y16441874D01*
X2647369Y16441874D02*
X2675940Y16413302D01*
X2675940Y16413302D02*
X2733083Y16384731D01*
X2733083Y16384731D02*
X2961654Y16384731D01*
X2961654Y16384731D02*
X2961654Y16984731D01*
X2961654Y16984731D02*
X2761654Y16984731D01*
X2761654Y16984731D02*
X2704512Y16956160D01*
X2704512Y16956160D02*
X2675940Y16927588D01*
X2675940Y16927588D02*
X2647369Y16870445D01*
X2647369Y16870445D02*
X2647369Y16813302D01*
X2647369Y16813302D02*
X2675940Y16756160D01*
X2675940Y16756160D02*
X2704512Y16727588D01*
X2704512Y16727588D02*
X2761654Y16699017D01*
X2761654Y16699017D02*
X2961654Y16699017D01*
X2047369Y16384731D02*
X2390226Y16384731D01*
X2218797Y16384731D02*
X2218797Y16984731D01*
X2218797Y16984731D02*
X2275940Y16899017D01*
X2275940Y16899017D02*
X2333083Y16841874D01*
X2333083Y16841874D02*
X2390226Y16813302D01*
X1847368Y16984731D02*
X1475940Y16984731D01*
X1475940Y16984731D02*
X1675940Y16756160D01*
X1675940Y16756160D02*
X1590225Y16756160D01*
X1590225Y16756160D02*
X1533083Y16727588D01*
X1533083Y16727588D02*
X1504511Y16699017D01*
X1504511Y16699017D02*
X1475940Y16641874D01*
X1475940Y16641874D02*
X1475940Y16499017D01*
X1475940Y16499017D02*
X1504511Y16441874D01*
X1504511Y16441874D02*
X1533083Y16413302D01*
X1533083Y16413302D02*
X1590225Y16384731D01*
X1590225Y16384731D02*
X1761654Y16384731D01*
X1761654Y16384731D02*
X1818797Y16413302D01*
X1818797Y16413302D02*
X1847368Y16441874D01*
X4665268Y4011655D02*
X4693840Y4040227D01*
X4693840Y4040227D02*
X4722411Y4125941D01*
X4722411Y4125941D02*
X4722411Y4183084D01*
X4722411Y4183084D02*
X4693840Y4268798D01*
X4693840Y4268798D02*
X4636697Y4325941D01*
X4636697Y4325941D02*
X4579554Y4354512D01*
X4579554Y4354512D02*
X4465268Y4383084D01*
X4465268Y4383084D02*
X4379554Y4383084D01*
X4379554Y4383084D02*
X4265268Y4354512D01*
X4265268Y4354512D02*
X4208125Y4325941D01*
X4208125Y4325941D02*
X4150982Y4268798D01*
X4150982Y4268798D02*
X4122411Y4183084D01*
X4122411Y4183084D02*
X4122411Y4125941D01*
X4122411Y4125941D02*
X4150982Y4040227D01*
X4150982Y4040227D02*
X4179554Y4011655D01*
X4550982Y3783084D02*
X4550982Y3497369D01*
X4722411Y3840227D02*
X4122411Y3640227D01*
X4122411Y3640227D02*
X4722411Y3440227D01*
X4722411Y3240226D02*
X4122411Y3240226D01*
X4122411Y3240226D02*
X4722411Y2897369D01*
X4722411Y2897369D02*
X4122411Y2897369D01*
X4779554Y2754512D02*
X4779554Y2297370D01*
X4722411Y1811655D02*
X4436697Y2011655D01*
X4722411Y2154512D02*
X4122411Y2154512D01*
X4122411Y2154512D02*
X4122411Y1925941D01*
X4122411Y1925941D02*
X4150982Y1868798D01*
X4150982Y1868798D02*
X4179554Y1840227D01*
X4179554Y1840227D02*
X4236697Y1811655D01*
X4236697Y1811655D02*
X4322411Y1811655D01*
X4322411Y1811655D02*
X4379554Y1840227D01*
X4379554Y1840227D02*
X4408125Y1868798D01*
X4408125Y1868798D02*
X4436697Y1925941D01*
X4436697Y1925941D02*
X4436697Y2154512D01*
X4122411Y1611655D02*
X4722411Y1211655D01*
X4122411Y1211655D02*
X4722411Y1611655D01*
X3810225Y25360925D02*
X3810225Y25960925D01*
X3810225Y25960925D02*
X3610225Y25532354D01*
X3610225Y25532354D02*
X3410225Y25960925D01*
X3410225Y25960925D02*
X3410225Y25360925D01*
X3010226Y25960925D02*
X2895940Y25960925D01*
X2895940Y25960925D02*
X2838797Y25932354D01*
X2838797Y25932354D02*
X2781654Y25875211D01*
X2781654Y25875211D02*
X2753083Y25760925D01*
X2753083Y25760925D02*
X2753083Y25560925D01*
X2753083Y25560925D02*
X2781654Y25446639D01*
X2781654Y25446639D02*
X2838797Y25389496D01*
X2838797Y25389496D02*
X2895940Y25360925D01*
X2895940Y25360925D02*
X3010226Y25360925D01*
X3010226Y25360925D02*
X3067369Y25389496D01*
X3067369Y25389496D02*
X3124511Y25446639D01*
X3124511Y25446639D02*
X3153083Y25560925D01*
X3153083Y25560925D02*
X3153083Y25760925D01*
X3153083Y25760925D02*
X3124511Y25875211D01*
X3124511Y25875211D02*
X3067369Y25932354D01*
X3067369Y25932354D02*
X3010226Y25960925D01*
X2524512Y25389496D02*
X2438798Y25360925D01*
X2438798Y25360925D02*
X2295940Y25360925D01*
X2295940Y25360925D02*
X2238798Y25389496D01*
X2238798Y25389496D02*
X2210226Y25418068D01*
X2210226Y25418068D02*
X2181655Y25475211D01*
X2181655Y25475211D02*
X2181655Y25532354D01*
X2181655Y25532354D02*
X2210226Y25589496D01*
X2210226Y25589496D02*
X2238798Y25618068D01*
X2238798Y25618068D02*
X2295940Y25646639D01*
X2295940Y25646639D02*
X2410226Y25675211D01*
X2410226Y25675211D02*
X2467369Y25703782D01*
X2467369Y25703782D02*
X2495940Y25732354D01*
X2495940Y25732354D02*
X2524512Y25789496D01*
X2524512Y25789496D02*
X2524512Y25846639D01*
X2524512Y25846639D02*
X2495940Y25903782D01*
X2495940Y25903782D02*
X2467369Y25932354D01*
X2467369Y25932354D02*
X2410226Y25960925D01*
X2410226Y25960925D02*
X2267369Y25960925D01*
X2267369Y25960925D02*
X2181655Y25932354D01*
X1924511Y25360925D02*
X1924511Y25960925D01*
X3810225Y22827589D02*
X3810225Y23427589D01*
X3810225Y23427589D02*
X3581654Y23427589D01*
X3581654Y23427589D02*
X3524511Y23399018D01*
X3524511Y23399018D02*
X3495940Y23370446D01*
X3495940Y23370446D02*
X3467368Y23313303D01*
X3467368Y23313303D02*
X3467368Y23227589D01*
X3467368Y23227589D02*
X3495940Y23170446D01*
X3495940Y23170446D02*
X3524511Y23141875D01*
X3524511Y23141875D02*
X3581654Y23113303D01*
X3581654Y23113303D02*
X3810225Y23113303D01*
X3010225Y23141875D02*
X2924511Y23113303D01*
X2924511Y23113303D02*
X2895940Y23084732D01*
X2895940Y23084732D02*
X2867368Y23027589D01*
X2867368Y23027589D02*
X2867368Y22941875D01*
X2867368Y22941875D02*
X2895940Y22884732D01*
X2895940Y22884732D02*
X2924511Y22856160D01*
X2924511Y22856160D02*
X2981654Y22827589D01*
X2981654Y22827589D02*
X3210225Y22827589D01*
X3210225Y22827589D02*
X3210225Y23427589D01*
X3210225Y23427589D02*
X3010225Y23427589D01*
X3010225Y23427589D02*
X2953083Y23399018D01*
X2953083Y23399018D02*
X2924511Y23370446D01*
X2924511Y23370446D02*
X2895940Y23313303D01*
X2895940Y23313303D02*
X2895940Y23256160D01*
X2895940Y23256160D02*
X2924511Y23199018D01*
X2924511Y23199018D02*
X2953083Y23170446D01*
X2953083Y23170446D02*
X3010225Y23141875D01*
X3010225Y23141875D02*
X3210225Y23141875D01*
X2295940Y22827589D02*
X2638797Y22827589D01*
X2467368Y22827589D02*
X2467368Y23427589D01*
X2467368Y23427589D02*
X2524511Y23341875D01*
X2524511Y23341875D02*
X2581654Y23284732D01*
X2581654Y23284732D02*
X2638797Y23256160D01*
X3838797Y27922828D02*
X3753083Y27894257D01*
X3753083Y27894257D02*
X3610225Y27894257D01*
X3610225Y27894257D02*
X3553083Y27922828D01*
X3553083Y27922828D02*
X3524511Y27951400D01*
X3524511Y27951400D02*
X3495940Y28008543D01*
X3495940Y28008543D02*
X3495940Y28065686D01*
X3495940Y28065686D02*
X3524511Y28122828D01*
X3524511Y28122828D02*
X3553083Y28151400D01*
X3553083Y28151400D02*
X3610225Y28179971D01*
X3610225Y28179971D02*
X3724511Y28208543D01*
X3724511Y28208543D02*
X3781654Y28237114D01*
X3781654Y28237114D02*
X3810225Y28265686D01*
X3810225Y28265686D02*
X3838797Y28322828D01*
X3838797Y28322828D02*
X3838797Y28379971D01*
X3838797Y28379971D02*
X3810225Y28437114D01*
X3810225Y28437114D02*
X3781654Y28465686D01*
X3781654Y28465686D02*
X3724511Y28494257D01*
X3724511Y28494257D02*
X3581654Y28494257D01*
X3581654Y28494257D02*
X3495940Y28465686D01*
X2895939Y27951400D02*
X2924511Y27922828D01*
X2924511Y27922828D02*
X3010225Y27894257D01*
X3010225Y27894257D02*
X3067368Y27894257D01*
X3067368Y27894257D02*
X3153082Y27922828D01*
X3153082Y27922828D02*
X3210225Y27979971D01*
X3210225Y27979971D02*
X3238796Y28037114D01*
X3238796Y28037114D02*
X3267368Y28151400D01*
X3267368Y28151400D02*
X3267368Y28237114D01*
X3267368Y28237114D02*
X3238796Y28351400D01*
X3238796Y28351400D02*
X3210225Y28408543D01*
X3210225Y28408543D02*
X3153082Y28465686D01*
X3153082Y28465686D02*
X3067368Y28494257D01*
X3067368Y28494257D02*
X3010225Y28494257D01*
X3010225Y28494257D02*
X2924511Y28465686D01*
X2924511Y28465686D02*
X2895939Y28437114D01*
X2638796Y27894257D02*
X2638796Y28494257D01*
X2295939Y27894257D02*
X2553082Y28237114D01*
X2295939Y28494257D02*
X2638796Y28151400D01*
X25795938Y26684733D02*
X25995938Y26970447D01*
X26138795Y26684733D02*
X26138795Y27284733D01*
X26138795Y27284733D02*
X25910224Y27284733D01*
X25910224Y27284733D02*
X25853081Y27256162D01*
X25853081Y27256162D02*
X25824510Y27227590D01*
X25824510Y27227590D02*
X25795938Y27170447D01*
X25795938Y27170447D02*
X25795938Y27084733D01*
X25795938Y27084733D02*
X25824510Y27027590D01*
X25824510Y27027590D02*
X25853081Y26999019D01*
X25853081Y26999019D02*
X25910224Y26970447D01*
X25910224Y26970447D02*
X26138795Y26970447D01*
X25595938Y26684733D02*
X25281653Y27084733D01*
X25595938Y27084733D02*
X25281653Y26684733D01*
X12193840Y2683084D02*
X12222411Y2597369D01*
X12222411Y2597369D02*
X12222411Y2454512D01*
X12222411Y2454512D02*
X12193840Y2397369D01*
X12193840Y2397369D02*
X12165268Y2368798D01*
X12165268Y2368798D02*
X12108125Y2340227D01*
X12108125Y2340227D02*
X12050982Y2340227D01*
X12050982Y2340227D02*
X11993840Y2368798D01*
X11993840Y2368798D02*
X11965268Y2397369D01*
X11965268Y2397369D02*
X11936697Y2454512D01*
X11936697Y2454512D02*
X11908125Y2568798D01*
X11908125Y2568798D02*
X11879554Y2625941D01*
X11879554Y2625941D02*
X11850982Y2654512D01*
X11850982Y2654512D02*
X11793840Y2683084D01*
X11793840Y2683084D02*
X11736697Y2683084D01*
X11736697Y2683084D02*
X11679554Y2654512D01*
X11679554Y2654512D02*
X11650982Y2625941D01*
X11650982Y2625941D02*
X11622411Y2568798D01*
X11622411Y2568798D02*
X11622411Y2425941D01*
X11622411Y2425941D02*
X11650982Y2340227D01*
X12165268Y1740226D02*
X12193840Y1768798D01*
X12193840Y1768798D02*
X12222411Y1854512D01*
X12222411Y1854512D02*
X12222411Y1911655D01*
X12222411Y1911655D02*
X12193840Y1997369D01*
X12193840Y1997369D02*
X12136697Y2054512D01*
X12136697Y2054512D02*
X12079554Y2083083D01*
X12079554Y2083083D02*
X11965268Y2111655D01*
X11965268Y2111655D02*
X11879554Y2111655D01*
X11879554Y2111655D02*
X11765268Y2083083D01*
X11765268Y2083083D02*
X11708125Y2054512D01*
X11708125Y2054512D02*
X11650982Y1997369D01*
X11650982Y1997369D02*
X11622411Y1911655D01*
X11622411Y1911655D02*
X11622411Y1854512D01*
X11622411Y1854512D02*
X11650982Y1768798D01*
X11650982Y1768798D02*
X11679554Y1740226D01*
X12222411Y1197369D02*
X12222411Y1483083D01*
X12222411Y1483083D02*
X11622411Y1483083D01*
X5865268Y3811655D02*
X5893840Y3840227D01*
X5893840Y3840227D02*
X5922411Y3925941D01*
X5922411Y3925941D02*
X5922411Y3983084D01*
X5922411Y3983084D02*
X5893840Y4068798D01*
X5893840Y4068798D02*
X5836697Y4125941D01*
X5836697Y4125941D02*
X5779554Y4154512D01*
X5779554Y4154512D02*
X5665268Y4183084D01*
X5665268Y4183084D02*
X5579554Y4183084D01*
X5579554Y4183084D02*
X5465268Y4154512D01*
X5465268Y4154512D02*
X5408125Y4125941D01*
X5408125Y4125941D02*
X5350982Y4068798D01*
X5350982Y4068798D02*
X5322411Y3983084D01*
X5322411Y3983084D02*
X5322411Y3925941D01*
X5322411Y3925941D02*
X5350982Y3840227D01*
X5350982Y3840227D02*
X5379554Y3811655D01*
X5750982Y3583084D02*
X5750982Y3297369D01*
X5922411Y3640227D02*
X5322411Y3440227D01*
X5322411Y3440227D02*
X5922411Y3240227D01*
X5922411Y3040226D02*
X5322411Y3040226D01*
X5322411Y3040226D02*
X5922411Y2697369D01*
X5922411Y2697369D02*
X5322411Y2697369D01*
X5979554Y2554512D02*
X5979554Y2097370D01*
X5322411Y2040227D02*
X5322411Y1697369D01*
X5922411Y1868798D02*
X5322411Y1868798D01*
X5322411Y1554512D02*
X5922411Y1154512D01*
X5322411Y1154512D02*
X5922411Y1554512D01*
X8522411Y2654512D02*
X7922411Y2654512D01*
X7922411Y2654512D02*
X7922411Y2425941D01*
X7922411Y2425941D02*
X7950982Y2368798D01*
X7950982Y2368798D02*
X7979554Y2340227D01*
X7979554Y2340227D02*
X8036697Y2311655D01*
X8036697Y2311655D02*
X8122411Y2311655D01*
X8122411Y2311655D02*
X8179554Y2340227D01*
X8179554Y2340227D02*
X8208125Y2368798D01*
X8208125Y2368798D02*
X8236697Y2425941D01*
X8236697Y2425941D02*
X8236697Y2654512D01*
X8208125Y1854512D02*
X8236697Y1768798D01*
X8236697Y1768798D02*
X8265268Y1740227D01*
X8265268Y1740227D02*
X8322411Y1711655D01*
X8322411Y1711655D02*
X8408125Y1711655D01*
X8408125Y1711655D02*
X8465268Y1740227D01*
X8465268Y1740227D02*
X8493840Y1768798D01*
X8493840Y1768798D02*
X8522411Y1825941D01*
X8522411Y1825941D02*
X8522411Y2054512D01*
X8522411Y2054512D02*
X7922411Y2054512D01*
X7922411Y2054512D02*
X7922411Y1854512D01*
X7922411Y1854512D02*
X7950982Y1797369D01*
X7950982Y1797369D02*
X7979554Y1768798D01*
X7979554Y1768798D02*
X8036697Y1740227D01*
X8036697Y1740227D02*
X8093840Y1740227D01*
X8093840Y1740227D02*
X8150982Y1768798D01*
X8150982Y1768798D02*
X8179554Y1797369D01*
X8179554Y1797369D02*
X8208125Y1854512D01*
X8208125Y1854512D02*
X8208125Y2054512D01*
X7922411Y1511655D02*
X7922411Y1140227D01*
X7922411Y1140227D02*
X8150982Y1340227D01*
X8150982Y1340227D02*
X8150982Y1254512D01*
X8150982Y1254512D02*
X8179554Y1197369D01*
X8179554Y1197369D02*
X8208125Y1168798D01*
X8208125Y1168798D02*
X8265268Y1140227D01*
X8265268Y1140227D02*
X8408125Y1140227D01*
X8408125Y1140227D02*
X8465268Y1168798D01*
X8465268Y1168798D02*
X8493840Y1197369D01*
X8493840Y1197369D02*
X8522411Y1254512D01*
X8522411Y1254512D02*
X8522411Y1425941D01*
X8522411Y1425941D02*
X8493840Y1483084D01*
X8493840Y1483084D02*
X8465268Y1511655D01*
X5618797Y7984731D02*
X5618797Y7499017D01*
X5618797Y7499017D02*
X5590226Y7441874D01*
X5590226Y7441874D02*
X5561655Y7413302D01*
X5561655Y7413302D02*
X5504512Y7384731D01*
X5504512Y7384731D02*
X5390226Y7384731D01*
X5390226Y7384731D02*
X5333083Y7413302D01*
X5333083Y7413302D02*
X5304512Y7441874D01*
X5304512Y7441874D02*
X5275940Y7499017D01*
X5275940Y7499017D02*
X5275940Y7984731D01*
X5018798Y7413302D02*
X4933084Y7384731D01*
X4933084Y7384731D02*
X4790226Y7384731D01*
X4790226Y7384731D02*
X4733084Y7413302D01*
X4733084Y7413302D02*
X4704512Y7441874D01*
X4704512Y7441874D02*
X4675941Y7499017D01*
X4675941Y7499017D02*
X4675941Y7556160D01*
X4675941Y7556160D02*
X4704512Y7613302D01*
X4704512Y7613302D02*
X4733084Y7641874D01*
X4733084Y7641874D02*
X4790226Y7670445D01*
X4790226Y7670445D02*
X4904512Y7699017D01*
X4904512Y7699017D02*
X4961655Y7727588D01*
X4961655Y7727588D02*
X4990226Y7756160D01*
X4990226Y7756160D02*
X5018798Y7813302D01*
X5018798Y7813302D02*
X5018798Y7870445D01*
X5018798Y7870445D02*
X4990226Y7927588D01*
X4990226Y7927588D02*
X4961655Y7956160D01*
X4961655Y7956160D02*
X4904512Y7984731D01*
X4904512Y7984731D02*
X4761655Y7984731D01*
X4761655Y7984731D02*
X4675941Y7956160D01*
X4447369Y7556160D02*
X4161655Y7556160D01*
X4504512Y7384731D02*
X4304512Y7984731D01*
X4304512Y7984731D02*
X4104512Y7384731D01*
X3561654Y7384731D02*
X3761654Y7670445D01*
X3904511Y7384731D02*
X3904511Y7984731D01*
X3904511Y7984731D02*
X3675940Y7984731D01*
X3675940Y7984731D02*
X3618797Y7956160D01*
X3618797Y7956160D02*
X3590226Y7927588D01*
X3590226Y7927588D02*
X3561654Y7870445D01*
X3561654Y7870445D02*
X3561654Y7784731D01*
X3561654Y7784731D02*
X3590226Y7727588D01*
X3590226Y7727588D02*
X3618797Y7699017D01*
X3618797Y7699017D02*
X3675940Y7670445D01*
X3675940Y7670445D02*
X3904511Y7670445D01*
X3390226Y7984731D02*
X3047369Y7984731D01*
X3218797Y7384731D02*
X3218797Y7984731D01*
X2990226Y7327588D02*
X2533083Y7327588D01*
X2047368Y7384731D02*
X2247368Y7670445D01*
X2390225Y7384731D02*
X2390225Y7984731D01*
X2390225Y7984731D02*
X2161654Y7984731D01*
X2161654Y7984731D02*
X2104511Y7956160D01*
X2104511Y7956160D02*
X2075940Y7927588D01*
X2075940Y7927588D02*
X2047368Y7870445D01*
X2047368Y7870445D02*
X2047368Y7784731D01*
X2047368Y7784731D02*
X2075940Y7727588D01*
X2075940Y7727588D02*
X2104511Y7699017D01*
X2104511Y7699017D02*
X2161654Y7670445D01*
X2161654Y7670445D02*
X2390225Y7670445D01*
X1847368Y7984731D02*
X1447368Y7384731D01*
X1447368Y7984731D02*
X1847368Y7384731D01*
X7322411Y2654512D02*
X6722411Y2654512D01*
X6722411Y2654512D02*
X6722411Y2425941D01*
X6722411Y2425941D02*
X6750982Y2368798D01*
X6750982Y2368798D02*
X6779554Y2340227D01*
X6779554Y2340227D02*
X6836697Y2311655D01*
X6836697Y2311655D02*
X6922411Y2311655D01*
X6922411Y2311655D02*
X6979554Y2340227D01*
X6979554Y2340227D02*
X7008125Y2368798D01*
X7008125Y2368798D02*
X7036697Y2425941D01*
X7036697Y2425941D02*
X7036697Y2654512D01*
X7322411Y2054512D02*
X6722411Y2054512D01*
X6722411Y2054512D02*
X6722411Y1911655D01*
X6722411Y1911655D02*
X6750982Y1825941D01*
X6750982Y1825941D02*
X6808125Y1768798D01*
X6808125Y1768798D02*
X6865268Y1740227D01*
X6865268Y1740227D02*
X6979554Y1711655D01*
X6979554Y1711655D02*
X7065268Y1711655D01*
X7065268Y1711655D02*
X7179554Y1740227D01*
X7179554Y1740227D02*
X7236697Y1768798D01*
X7236697Y1768798D02*
X7293840Y1825941D01*
X7293840Y1825941D02*
X7322411Y1911655D01*
X7322411Y1911655D02*
X7322411Y2054512D01*
X6722411Y1511655D02*
X6722411Y1140227D01*
X6722411Y1140227D02*
X6950982Y1340227D01*
X6950982Y1340227D02*
X6950982Y1254512D01*
X6950982Y1254512D02*
X6979554Y1197369D01*
X6979554Y1197369D02*
X7008125Y1168798D01*
X7008125Y1168798D02*
X7065268Y1140227D01*
X7065268Y1140227D02*
X7208125Y1140227D01*
X7208125Y1140227D02*
X7265268Y1168798D01*
X7265268Y1168798D02*
X7293840Y1197369D01*
X7293840Y1197369D02*
X7322411Y1254512D01*
X7322411Y1254512D02*
X7322411Y1425941D01*
X7322411Y1425941D02*
X7293840Y1483084D01*
X7293840Y1483084D02*
X7265268Y1511655D01*
X2904511Y12527589D02*
X2904511Y13127589D01*
X2904511Y13127589D02*
X2675940Y13127589D01*
X2675940Y13127589D02*
X2618797Y13099018D01*
X2618797Y13099018D02*
X2590226Y13070446D01*
X2590226Y13070446D02*
X2561654Y13013303D01*
X2561654Y13013303D02*
X2561654Y12927589D01*
X2561654Y12927589D02*
X2590226Y12870446D01*
X2590226Y12870446D02*
X2618797Y12841875D01*
X2618797Y12841875D02*
X2675940Y12813303D01*
X2675940Y12813303D02*
X2904511Y12813303D01*
X2333083Y12699018D02*
X2047369Y12699018D01*
X2390226Y12527589D02*
X2190226Y13127589D01*
X2190226Y13127589D02*
X1990226Y12527589D01*
X1704511Y12870446D02*
X1761654Y12899018D01*
X1761654Y12899018D02*
X1790225Y12927589D01*
X1790225Y12927589D02*
X1818797Y12984732D01*
X1818797Y12984732D02*
X1818797Y13013303D01*
X1818797Y13013303D02*
X1790225Y13070446D01*
X1790225Y13070446D02*
X1761654Y13099018D01*
X1761654Y13099018D02*
X1704511Y13127589D01*
X1704511Y13127589D02*
X1590225Y13127589D01*
X1590225Y13127589D02*
X1533083Y13099018D01*
X1533083Y13099018D02*
X1504511Y13070446D01*
X1504511Y13070446D02*
X1475940Y13013303D01*
X1475940Y13013303D02*
X1475940Y12984732D01*
X1475940Y12984732D02*
X1504511Y12927589D01*
X1504511Y12927589D02*
X1533083Y12899018D01*
X1533083Y12899018D02*
X1590225Y12870446D01*
X1590225Y12870446D02*
X1704511Y12870446D01*
X1704511Y12870446D02*
X1761654Y12841875D01*
X1761654Y12841875D02*
X1790225Y12813303D01*
X1790225Y12813303D02*
X1818797Y12756160D01*
X1818797Y12756160D02*
X1818797Y12641875D01*
X1818797Y12641875D02*
X1790225Y12584732D01*
X1790225Y12584732D02*
X1761654Y12556160D01*
X1761654Y12556160D02*
X1704511Y12527589D01*
X1704511Y12527589D02*
X1590225Y12527589D01*
X1590225Y12527589D02*
X1533083Y12556160D01*
X1533083Y12556160D02*
X1504511Y12584732D01*
X1504511Y12584732D02*
X1475940Y12641875D01*
X1475940Y12641875D02*
X1475940Y12756160D01*
X1475940Y12756160D02*
X1504511Y12813303D01*
X1504511Y12813303D02*
X1533083Y12841875D01*
X1533083Y12841875D02*
X1590225Y12870446D01*
X26081653Y28570447D02*
X25738796Y28570447D01*
X25910224Y27970447D02*
X25910224Y28570447D01*
X25595938Y27970447D02*
X25281653Y28370447D01*
X25595938Y28370447D02*
X25281653Y27970447D01*
X13493840Y2683084D02*
X13522411Y2597369D01*
X13522411Y2597369D02*
X13522411Y2454512D01*
X13522411Y2454512D02*
X13493840Y2397369D01*
X13493840Y2397369D02*
X13465268Y2368798D01*
X13465268Y2368798D02*
X13408125Y2340227D01*
X13408125Y2340227D02*
X13350982Y2340227D01*
X13350982Y2340227D02*
X13293840Y2368798D01*
X13293840Y2368798D02*
X13265268Y2397369D01*
X13265268Y2397369D02*
X13236697Y2454512D01*
X13236697Y2454512D02*
X13208125Y2568798D01*
X13208125Y2568798D02*
X13179554Y2625941D01*
X13179554Y2625941D02*
X13150982Y2654512D01*
X13150982Y2654512D02*
X13093840Y2683084D01*
X13093840Y2683084D02*
X13036697Y2683084D01*
X13036697Y2683084D02*
X12979554Y2654512D01*
X12979554Y2654512D02*
X12950982Y2625941D01*
X12950982Y2625941D02*
X12922411Y2568798D01*
X12922411Y2568798D02*
X12922411Y2425941D01*
X12922411Y2425941D02*
X12950982Y2340227D01*
X13522411Y2083083D02*
X12922411Y2083083D01*
X12922411Y2083083D02*
X12922411Y1940226D01*
X12922411Y1940226D02*
X12950982Y1854512D01*
X12950982Y1854512D02*
X13008125Y1797369D01*
X13008125Y1797369D02*
X13065268Y1768798D01*
X13065268Y1768798D02*
X13179554Y1740226D01*
X13179554Y1740226D02*
X13265268Y1740226D01*
X13265268Y1740226D02*
X13379554Y1768798D01*
X13379554Y1768798D02*
X13436697Y1797369D01*
X13436697Y1797369D02*
X13493840Y1854512D01*
X13493840Y1854512D02*
X13522411Y1940226D01*
X13522411Y1940226D02*
X13522411Y2083083D01*
X13350982Y1511655D02*
X13350982Y1225940D01*
X13522411Y1568798D02*
X12922411Y1368798D01*
X12922411Y1368798D02*
X13522411Y1168798D01*
D11*
X18858458Y38980181D02*
X18620363Y37980181D01*
X18620363Y37980181D02*
X18429887Y38694467D01*
X18429887Y38694467D02*
X18239411Y37980181D01*
X18239411Y37980181D02*
X18001316Y38980181D01*
X17191792Y37980181D02*
X17191792Y38503991D01*
X17191792Y38503991D02*
X17239411Y38599229D01*
X17239411Y38599229D02*
X17334649Y38646848D01*
X17334649Y38646848D02*
X17525125Y38646848D01*
X17525125Y38646848D02*
X17620363Y38599229D01*
X17191792Y38027800D02*
X17287030Y37980181D01*
X17287030Y37980181D02*
X17525125Y37980181D01*
X17525125Y37980181D02*
X17620363Y38027800D01*
X17620363Y38027800D02*
X17667982Y38123039D01*
X17667982Y38123039D02*
X17667982Y38218277D01*
X17667982Y38218277D02*
X17620363Y38313515D01*
X17620363Y38313515D02*
X17525125Y38361134D01*
X17525125Y38361134D02*
X17287030Y38361134D01*
X17287030Y38361134D02*
X17191792Y38408753D01*
X16810839Y38646848D02*
X16572744Y37980181D01*
X16334649Y38646848D02*
X16572744Y37980181D01*
X16572744Y37980181D02*
X16667982Y37742086D01*
X16667982Y37742086D02*
X16715601Y37694467D01*
X16715601Y37694467D02*
X16810839Y37646848D01*
X16048934Y38980181D02*
X15810839Y37980181D01*
X15810839Y37980181D02*
X15620363Y38694467D01*
X15620363Y38694467D02*
X15429887Y37980181D01*
X15429887Y37980181D02*
X15191792Y38980181D01*
X14382268Y37980181D02*
X14382268Y38503991D01*
X14382268Y38503991D02*
X14429887Y38599229D01*
X14429887Y38599229D02*
X14525125Y38646848D01*
X14525125Y38646848D02*
X14715601Y38646848D01*
X14715601Y38646848D02*
X14810839Y38599229D01*
X14382268Y38027800D02*
X14477506Y37980181D01*
X14477506Y37980181D02*
X14715601Y37980181D01*
X14715601Y37980181D02*
X14810839Y38027800D01*
X14810839Y38027800D02*
X14858458Y38123039D01*
X14858458Y38123039D02*
X14858458Y38218277D01*
X14858458Y38218277D02*
X14810839Y38313515D01*
X14810839Y38313515D02*
X14715601Y38361134D01*
X14715601Y38361134D02*
X14477506Y38361134D01*
X14477506Y38361134D02*
X14382268Y38408753D01*
X14001315Y38646848D02*
X13763220Y37980181D01*
X13525125Y38646848D02*
X13763220Y37980181D01*
X13763220Y37980181D02*
X13858458Y37742086D01*
X13858458Y37742086D02*
X13906077Y37694467D01*
X13906077Y37694467D02*
X14001315Y37646848D01*
X13239410Y38980181D02*
X13001315Y37980181D01*
X13001315Y37980181D02*
X12810839Y38694467D01*
X12810839Y38694467D02*
X12620363Y37980181D01*
X12620363Y37980181D02*
X12382268Y38980181D01*
X11572744Y37980181D02*
X11572744Y38503991D01*
X11572744Y38503991D02*
X11620363Y38599229D01*
X11620363Y38599229D02*
X11715601Y38646848D01*
X11715601Y38646848D02*
X11906077Y38646848D01*
X11906077Y38646848D02*
X12001315Y38599229D01*
X11572744Y38027800D02*
X11667982Y37980181D01*
X11667982Y37980181D02*
X11906077Y37980181D01*
X11906077Y37980181D02*
X12001315Y38027800D01*
X12001315Y38027800D02*
X12048934Y38123039D01*
X12048934Y38123039D02*
X12048934Y38218277D01*
X12048934Y38218277D02*
X12001315Y38313515D01*
X12001315Y38313515D02*
X11906077Y38361134D01*
X11906077Y38361134D02*
X11667982Y38361134D01*
X11667982Y38361134D02*
X11572744Y38408753D01*
X11191791Y38646848D02*
X10953696Y37980181D01*
X10715601Y38646848D02*
X10953696Y37980181D01*
X10953696Y37980181D02*
X11048934Y37742086D01*
X11048934Y37742086D02*
X11096553Y37694467D01*
X11096553Y37694467D02*
X11191791Y37646848D01*
D10*
X3810225Y30427589D02*
X3810225Y31027589D01*
X3810225Y31027589D02*
X3581654Y31027589D01*
X3581654Y31027589D02*
X3524511Y30999018D01*
X3524511Y30999018D02*
X3495940Y30970446D01*
X3495940Y30970446D02*
X3467368Y30913303D01*
X3467368Y30913303D02*
X3467368Y30827589D01*
X3467368Y30827589D02*
X3495940Y30770446D01*
X3495940Y30770446D02*
X3524511Y30741875D01*
X3524511Y30741875D02*
X3581654Y30713303D01*
X3581654Y30713303D02*
X3810225Y30713303D01*
X3238797Y30599018D02*
X2953083Y30599018D01*
X3295940Y30427589D02*
X3095940Y31027589D01*
X3095940Y31027589D02*
X2895940Y30427589D01*
X2753082Y31027589D02*
X2381654Y31027589D01*
X2381654Y31027589D02*
X2581654Y30799018D01*
X2581654Y30799018D02*
X2495939Y30799018D01*
X2495939Y30799018D02*
X2438797Y30770446D01*
X2438797Y30770446D02*
X2410225Y30741875D01*
X2410225Y30741875D02*
X2381654Y30684732D01*
X2381654Y30684732D02*
X2381654Y30541875D01*
X2381654Y30541875D02*
X2410225Y30484732D01*
X2410225Y30484732D02*
X2438797Y30456160D01*
X2438797Y30456160D02*
X2495939Y30427589D01*
X2495939Y30427589D02*
X2667368Y30427589D01*
X2667368Y30427589D02*
X2724511Y30456160D01*
X2724511Y30456160D02*
X2753082Y30484732D01*
X27995939Y23399018D02*
X28053082Y23427589D01*
X28053082Y23427589D02*
X28138796Y23427589D01*
X28138796Y23427589D02*
X28224510Y23399018D01*
X28224510Y23399018D02*
X28281653Y23341875D01*
X28281653Y23341875D02*
X28310224Y23284732D01*
X28310224Y23284732D02*
X28338796Y23170446D01*
X28338796Y23170446D02*
X28338796Y23084732D01*
X28338796Y23084732D02*
X28310224Y22970446D01*
X28310224Y22970446D02*
X28281653Y22913303D01*
X28281653Y22913303D02*
X28224510Y22856160D01*
X28224510Y22856160D02*
X28138796Y22827589D01*
X28138796Y22827589D02*
X28081653Y22827589D01*
X28081653Y22827589D02*
X27995939Y22856160D01*
X27995939Y22856160D02*
X27967367Y22884732D01*
X27967367Y22884732D02*
X27967367Y23084732D01*
X27967367Y23084732D02*
X28081653Y23084732D01*
X27710224Y22827589D02*
X27710224Y23427589D01*
X27710224Y23427589D02*
X27481653Y23427589D01*
X27481653Y23427589D02*
X27424510Y23399018D01*
X27424510Y23399018D02*
X27395939Y23370446D01*
X27395939Y23370446D02*
X27367367Y23313303D01*
X27367367Y23313303D02*
X27367367Y23227589D01*
X27367367Y23227589D02*
X27395939Y23170446D01*
X27395939Y23170446D02*
X27424510Y23141875D01*
X27424510Y23141875D02*
X27481653Y23113303D01*
X27481653Y23113303D02*
X27710224Y23113303D01*
X27110224Y22827589D02*
X27110224Y23427589D01*
X26710225Y23427589D02*
X26595939Y23427589D01*
X26595939Y23427589D02*
X26538796Y23399018D01*
X26538796Y23399018D02*
X26481653Y23341875D01*
X26481653Y23341875D02*
X26453082Y23227589D01*
X26453082Y23227589D02*
X26453082Y23027589D01*
X26453082Y23027589D02*
X26481653Y22913303D01*
X26481653Y22913303D02*
X26538796Y22856160D01*
X26538796Y22856160D02*
X26595939Y22827589D01*
X26595939Y22827589D02*
X26710225Y22827589D01*
X26710225Y22827589D02*
X26767368Y22856160D01*
X26767368Y22856160D02*
X26824510Y22913303D01*
X26824510Y22913303D02*
X26853082Y23027589D01*
X26853082Y23027589D02*
X26853082Y23227589D01*
X26853082Y23227589D02*
X26824510Y23341875D01*
X26824510Y23341875D02*
X26767368Y23399018D01*
X26767368Y23399018D02*
X26710225Y23427589D01*
X25881654Y22827589D02*
X26224511Y22827589D01*
X26053082Y22827589D02*
X26053082Y23427589D01*
X26053082Y23427589D02*
X26110225Y23341875D01*
X26110225Y23341875D02*
X26167368Y23284732D01*
X26167368Y23284732D02*
X26224511Y23256160D01*
X25510225Y23427589D02*
X25453082Y23427589D01*
X25453082Y23427589D02*
X25395939Y23399018D01*
X25395939Y23399018D02*
X25367368Y23370446D01*
X25367368Y23370446D02*
X25338796Y23313303D01*
X25338796Y23313303D02*
X25310225Y23199018D01*
X25310225Y23199018D02*
X25310225Y23056160D01*
X25310225Y23056160D02*
X25338796Y22941875D01*
X25338796Y22941875D02*
X25367368Y22884732D01*
X25367368Y22884732D02*
X25395939Y22856160D01*
X25395939Y22856160D02*
X25453082Y22827589D01*
X25453082Y22827589D02*
X25510225Y22827589D01*
X25510225Y22827589D02*
X25567368Y22856160D01*
X25567368Y22856160D02*
X25595939Y22884732D01*
X25595939Y22884732D02*
X25624510Y22941875D01*
X25624510Y22941875D02*
X25653082Y23056160D01*
X25653082Y23056160D02*
X25653082Y23199018D01*
X25653082Y23199018D02*
X25624510Y23313303D01*
X25624510Y23313303D02*
X25595939Y23370446D01*
X25595939Y23370446D02*
X25567368Y23399018D01*
X25567368Y23399018D02*
X25510225Y23427589D01*
X27424510Y29827590D02*
X27481653Y29856161D01*
X27481653Y29856161D02*
X27567367Y29856161D01*
X27567367Y29856161D02*
X27653081Y29827590D01*
X27653081Y29827590D02*
X27710224Y29770447D01*
X27710224Y29770447D02*
X27738795Y29713304D01*
X27738795Y29713304D02*
X27767367Y29599018D01*
X27767367Y29599018D02*
X27767367Y29513304D01*
X27767367Y29513304D02*
X27738795Y29399018D01*
X27738795Y29399018D02*
X27710224Y29341875D01*
X27710224Y29341875D02*
X27653081Y29284732D01*
X27653081Y29284732D02*
X27567367Y29256161D01*
X27567367Y29256161D02*
X27510224Y29256161D01*
X27510224Y29256161D02*
X27424510Y29284732D01*
X27424510Y29284732D02*
X27395938Y29313304D01*
X27395938Y29313304D02*
X27395938Y29513304D01*
X27395938Y29513304D02*
X27510224Y29513304D01*
X27138795Y29256161D02*
X27138795Y29856161D01*
X27138795Y29856161D02*
X26910224Y29856161D01*
X26910224Y29856161D02*
X26853081Y29827590D01*
X26853081Y29827590D02*
X26824510Y29799018D01*
X26824510Y29799018D02*
X26795938Y29741875D01*
X26795938Y29741875D02*
X26795938Y29656161D01*
X26795938Y29656161D02*
X26824510Y29599018D01*
X26824510Y29599018D02*
X26853081Y29570447D01*
X26853081Y29570447D02*
X26910224Y29541875D01*
X26910224Y29541875D02*
X27138795Y29541875D01*
X26538795Y29256161D02*
X26538795Y29856161D01*
X26138796Y29856161D02*
X26024510Y29856161D01*
X26024510Y29856161D02*
X25967367Y29827590D01*
X25967367Y29827590D02*
X25910224Y29770447D01*
X25910224Y29770447D02*
X25881653Y29656161D01*
X25881653Y29656161D02*
X25881653Y29456161D01*
X25881653Y29456161D02*
X25910224Y29341875D01*
X25910224Y29341875D02*
X25967367Y29284732D01*
X25967367Y29284732D02*
X26024510Y29256161D01*
X26024510Y29256161D02*
X26138796Y29256161D01*
X26138796Y29256161D02*
X26195939Y29284732D01*
X26195939Y29284732D02*
X26253081Y29341875D01*
X26253081Y29341875D02*
X26281653Y29456161D01*
X26281653Y29456161D02*
X26281653Y29656161D01*
X26281653Y29656161D02*
X26253081Y29770447D01*
X26253081Y29770447D02*
X26195939Y29827590D01*
X26195939Y29827590D02*
X26138796Y29856161D01*
X25681653Y29856161D02*
X25310225Y29856161D01*
X25310225Y29856161D02*
X25510225Y29627590D01*
X25510225Y29627590D02*
X25424510Y29627590D01*
X25424510Y29627590D02*
X25367368Y29599018D01*
X25367368Y29599018D02*
X25338796Y29570447D01*
X25338796Y29570447D02*
X25310225Y29513304D01*
X25310225Y29513304D02*
X25310225Y29370447D01*
X25310225Y29370447D02*
X25338796Y29313304D01*
X25338796Y29313304D02*
X25367368Y29284732D01*
X25367368Y29284732D02*
X25424510Y29256161D01*
X25424510Y29256161D02*
X25595939Y29256161D01*
X25595939Y29256161D02*
X25653082Y29284732D01*
X25653082Y29284732D02*
X25681653Y29313304D01*
X5475940Y9270447D02*
X5475940Y8784733D01*
X5475940Y8784733D02*
X5447369Y8727590D01*
X5447369Y8727590D02*
X5418798Y8699018D01*
X5418798Y8699018D02*
X5361655Y8670447D01*
X5361655Y8670447D02*
X5247369Y8670447D01*
X5247369Y8670447D02*
X5190226Y8699018D01*
X5190226Y8699018D02*
X5161655Y8727590D01*
X5161655Y8727590D02*
X5133083Y8784733D01*
X5133083Y8784733D02*
X5133083Y9270447D01*
X4875941Y8699018D02*
X4790227Y8670447D01*
X4790227Y8670447D02*
X4647369Y8670447D01*
X4647369Y8670447D02*
X4590227Y8699018D01*
X4590227Y8699018D02*
X4561655Y8727590D01*
X4561655Y8727590D02*
X4533084Y8784733D01*
X4533084Y8784733D02*
X4533084Y8841876D01*
X4533084Y8841876D02*
X4561655Y8899018D01*
X4561655Y8899018D02*
X4590227Y8927590D01*
X4590227Y8927590D02*
X4647369Y8956161D01*
X4647369Y8956161D02*
X4761655Y8984733D01*
X4761655Y8984733D02*
X4818798Y9013304D01*
X4818798Y9013304D02*
X4847369Y9041876D01*
X4847369Y9041876D02*
X4875941Y9099018D01*
X4875941Y9099018D02*
X4875941Y9156161D01*
X4875941Y9156161D02*
X4847369Y9213304D01*
X4847369Y9213304D02*
X4818798Y9241876D01*
X4818798Y9241876D02*
X4761655Y9270447D01*
X4761655Y9270447D02*
X4618798Y9270447D01*
X4618798Y9270447D02*
X4533084Y9241876D01*
X4304512Y8841876D02*
X4018798Y8841876D01*
X4361655Y8670447D02*
X4161655Y9270447D01*
X4161655Y9270447D02*
X3961655Y8670447D01*
X3418797Y8670447D02*
X3618797Y8956161D01*
X3761654Y8670447D02*
X3761654Y9270447D01*
X3761654Y9270447D02*
X3533083Y9270447D01*
X3533083Y9270447D02*
X3475940Y9241876D01*
X3475940Y9241876D02*
X3447369Y9213304D01*
X3447369Y9213304D02*
X3418797Y9156161D01*
X3418797Y9156161D02*
X3418797Y9070447D01*
X3418797Y9070447D02*
X3447369Y9013304D01*
X3447369Y9013304D02*
X3475940Y8984733D01*
X3475940Y8984733D02*
X3533083Y8956161D01*
X3533083Y8956161D02*
X3761654Y8956161D01*
X3247369Y9270447D02*
X2904512Y9270447D01*
X3075940Y8670447D02*
X3075940Y9270447D01*
X2847369Y8613304D02*
X2390226Y8613304D01*
X2333083Y9270447D02*
X1990226Y9270447D01*
X2161654Y8670447D02*
X2161654Y9270447D01*
X1847368Y9270447D02*
X1447368Y8670447D01*
X1447368Y9270447D02*
X1847368Y8670447D01*
X3810225Y26627591D02*
X3810225Y27227591D01*
X3810225Y27227591D02*
X3610225Y26799020D01*
X3610225Y26799020D02*
X3410225Y27227591D01*
X3410225Y27227591D02*
X3410225Y26627591D01*
X3124511Y26627591D02*
X3124511Y27227591D01*
X2867369Y26656162D02*
X2781655Y26627591D01*
X2781655Y26627591D02*
X2638797Y26627591D01*
X2638797Y26627591D02*
X2581655Y26656162D01*
X2581655Y26656162D02*
X2553083Y26684734D01*
X2553083Y26684734D02*
X2524512Y26741877D01*
X2524512Y26741877D02*
X2524512Y26799020D01*
X2524512Y26799020D02*
X2553083Y26856162D01*
X2553083Y26856162D02*
X2581655Y26884734D01*
X2581655Y26884734D02*
X2638797Y26913305D01*
X2638797Y26913305D02*
X2753083Y26941877D01*
X2753083Y26941877D02*
X2810226Y26970448D01*
X2810226Y26970448D02*
X2838797Y26999020D01*
X2838797Y26999020D02*
X2867369Y27056162D01*
X2867369Y27056162D02*
X2867369Y27113305D01*
X2867369Y27113305D02*
X2838797Y27170448D01*
X2838797Y27170448D02*
X2810226Y27199020D01*
X2810226Y27199020D02*
X2753083Y27227591D01*
X2753083Y27227591D02*
X2610226Y27227591D01*
X2610226Y27227591D02*
X2524512Y27199020D01*
X2153083Y27227591D02*
X2038797Y27227591D01*
X2038797Y27227591D02*
X1981654Y27199020D01*
X1981654Y27199020D02*
X1924511Y27141877D01*
X1924511Y27141877D02*
X1895940Y27027591D01*
X1895940Y27027591D02*
X1895940Y26827591D01*
X1895940Y26827591D02*
X1924511Y26713305D01*
X1924511Y26713305D02*
X1981654Y26656162D01*
X1981654Y26656162D02*
X2038797Y26627591D01*
X2038797Y26627591D02*
X2153083Y26627591D01*
X2153083Y26627591D02*
X2210226Y26656162D01*
X2210226Y26656162D02*
X2267368Y26713305D01*
X2267368Y26713305D02*
X2295940Y26827591D01*
X2295940Y26827591D02*
X2295940Y27027591D01*
X2295940Y27027591D02*
X2267368Y27141877D01*
X2267368Y27141877D02*
X2210226Y27199020D01*
X2210226Y27199020D02*
X2153083Y27227591D01*
X9722411Y2654512D02*
X9122411Y2654512D01*
X9122411Y2654512D02*
X9122411Y2425941D01*
X9122411Y2425941D02*
X9150982Y2368798D01*
X9150982Y2368798D02*
X9179554Y2340227D01*
X9179554Y2340227D02*
X9236697Y2311655D01*
X9236697Y2311655D02*
X9322411Y2311655D01*
X9322411Y2311655D02*
X9379554Y2340227D01*
X9379554Y2340227D02*
X9408125Y2368798D01*
X9408125Y2368798D02*
X9436697Y2425941D01*
X9436697Y2425941D02*
X9436697Y2654512D01*
X9408125Y1854512D02*
X9436697Y1768798D01*
X9436697Y1768798D02*
X9465268Y1740227D01*
X9465268Y1740227D02*
X9522411Y1711655D01*
X9522411Y1711655D02*
X9608125Y1711655D01*
X9608125Y1711655D02*
X9665268Y1740227D01*
X9665268Y1740227D02*
X9693840Y1768798D01*
X9693840Y1768798D02*
X9722411Y1825941D01*
X9722411Y1825941D02*
X9722411Y2054512D01*
X9722411Y2054512D02*
X9122411Y2054512D01*
X9122411Y2054512D02*
X9122411Y1854512D01*
X9122411Y1854512D02*
X9150982Y1797369D01*
X9150982Y1797369D02*
X9179554Y1768798D01*
X9179554Y1768798D02*
X9236697Y1740227D01*
X9236697Y1740227D02*
X9293840Y1740227D01*
X9293840Y1740227D02*
X9350982Y1768798D01*
X9350982Y1768798D02*
X9379554Y1797369D01*
X9379554Y1797369D02*
X9408125Y1854512D01*
X9408125Y1854512D02*
X9408125Y2054512D01*
X9322411Y1197369D02*
X9722411Y1197369D01*
X9093840Y1340227D02*
X9522411Y1483084D01*
X9522411Y1483084D02*
X9522411Y1111655D01*
X27424510Y24684734D02*
X27481653Y24713305D01*
X27481653Y24713305D02*
X27567367Y24713305D01*
X27567367Y24713305D02*
X27653081Y24684734D01*
X27653081Y24684734D02*
X27710224Y24627591D01*
X27710224Y24627591D02*
X27738795Y24570448D01*
X27738795Y24570448D02*
X27767367Y24456162D01*
X27767367Y24456162D02*
X27767367Y24370448D01*
X27767367Y24370448D02*
X27738795Y24256162D01*
X27738795Y24256162D02*
X27710224Y24199019D01*
X27710224Y24199019D02*
X27653081Y24141876D01*
X27653081Y24141876D02*
X27567367Y24113305D01*
X27567367Y24113305D02*
X27510224Y24113305D01*
X27510224Y24113305D02*
X27424510Y24141876D01*
X27424510Y24141876D02*
X27395938Y24170448D01*
X27395938Y24170448D02*
X27395938Y24370448D01*
X27395938Y24370448D02*
X27510224Y24370448D01*
X27138795Y24113305D02*
X27138795Y24713305D01*
X27138795Y24713305D02*
X26910224Y24713305D01*
X26910224Y24713305D02*
X26853081Y24684734D01*
X26853081Y24684734D02*
X26824510Y24656162D01*
X26824510Y24656162D02*
X26795938Y24599019D01*
X26795938Y24599019D02*
X26795938Y24513305D01*
X26795938Y24513305D02*
X26824510Y24456162D01*
X26824510Y24456162D02*
X26853081Y24427591D01*
X26853081Y24427591D02*
X26910224Y24399019D01*
X26910224Y24399019D02*
X27138795Y24399019D01*
X26538795Y24113305D02*
X26538795Y24713305D01*
X26138796Y24713305D02*
X26024510Y24713305D01*
X26024510Y24713305D02*
X25967367Y24684734D01*
X25967367Y24684734D02*
X25910224Y24627591D01*
X25910224Y24627591D02*
X25881653Y24513305D01*
X25881653Y24513305D02*
X25881653Y24313305D01*
X25881653Y24313305D02*
X25910224Y24199019D01*
X25910224Y24199019D02*
X25967367Y24141876D01*
X25967367Y24141876D02*
X26024510Y24113305D01*
X26024510Y24113305D02*
X26138796Y24113305D01*
X26138796Y24113305D02*
X26195939Y24141876D01*
X26195939Y24141876D02*
X26253081Y24199019D01*
X26253081Y24199019D02*
X26281653Y24313305D01*
X26281653Y24313305D02*
X26281653Y24513305D01*
X26281653Y24513305D02*
X26253081Y24627591D01*
X26253081Y24627591D02*
X26195939Y24684734D01*
X26195939Y24684734D02*
X26138796Y24713305D01*
X25538796Y24456162D02*
X25595939Y24484734D01*
X25595939Y24484734D02*
X25624510Y24513305D01*
X25624510Y24513305D02*
X25653082Y24570448D01*
X25653082Y24570448D02*
X25653082Y24599019D01*
X25653082Y24599019D02*
X25624510Y24656162D01*
X25624510Y24656162D02*
X25595939Y24684734D01*
X25595939Y24684734D02*
X25538796Y24713305D01*
X25538796Y24713305D02*
X25424510Y24713305D01*
X25424510Y24713305D02*
X25367368Y24684734D01*
X25367368Y24684734D02*
X25338796Y24656162D01*
X25338796Y24656162D02*
X25310225Y24599019D01*
X25310225Y24599019D02*
X25310225Y24570448D01*
X25310225Y24570448D02*
X25338796Y24513305D01*
X25338796Y24513305D02*
X25367368Y24484734D01*
X25367368Y24484734D02*
X25424510Y24456162D01*
X25424510Y24456162D02*
X25538796Y24456162D01*
X25538796Y24456162D02*
X25595939Y24427591D01*
X25595939Y24427591D02*
X25624510Y24399019D01*
X25624510Y24399019D02*
X25653082Y24341876D01*
X25653082Y24341876D02*
X25653082Y24227591D01*
X25653082Y24227591D02*
X25624510Y24170448D01*
X25624510Y24170448D02*
X25595939Y24141876D01*
X25595939Y24141876D02*
X25538796Y24113305D01*
X25538796Y24113305D02*
X25424510Y24113305D01*
X25424510Y24113305D02*
X25367368Y24141876D01*
X25367368Y24141876D02*
X25338796Y24170448D01*
X25338796Y24170448D02*
X25310225Y24227591D01*
X25310225Y24227591D02*
X25310225Y24341876D01*
X25310225Y24341876D02*
X25338796Y24399019D01*
X25338796Y24399019D02*
X25367368Y24427591D01*
X25367368Y24427591D02*
X25424510Y24456162D01*
X5475940Y10127590D02*
X5190226Y10127590D01*
X5533083Y9956161D02*
X5333083Y10556161D01*
X5333083Y10556161D02*
X5133083Y9956161D01*
X4933082Y9956161D02*
X4933082Y10556161D01*
X4933082Y10556161D02*
X4790225Y10556161D01*
X4790225Y10556161D02*
X4704511Y10527590D01*
X4704511Y10527590D02*
X4647368Y10470447D01*
X4647368Y10470447D02*
X4618797Y10413304D01*
X4618797Y10413304D02*
X4590225Y10299018D01*
X4590225Y10299018D02*
X4590225Y10213304D01*
X4590225Y10213304D02*
X4618797Y10099018D01*
X4618797Y10099018D02*
X4647368Y10041875D01*
X4647368Y10041875D02*
X4704511Y9984732D01*
X4704511Y9984732D02*
X4790225Y9956161D01*
X4790225Y9956161D02*
X4933082Y9956161D01*
X3990225Y10013304D02*
X4018797Y9984732D01*
X4018797Y9984732D02*
X4104511Y9956161D01*
X4104511Y9956161D02*
X4161654Y9956161D01*
X4161654Y9956161D02*
X4247368Y9984732D01*
X4247368Y9984732D02*
X4304511Y10041875D01*
X4304511Y10041875D02*
X4333082Y10099018D01*
X4333082Y10099018D02*
X4361654Y10213304D01*
X4361654Y10213304D02*
X4361654Y10299018D01*
X4361654Y10299018D02*
X4333082Y10413304D01*
X4333082Y10413304D02*
X4304511Y10470447D01*
X4304511Y10470447D02*
X4247368Y10527590D01*
X4247368Y10527590D02*
X4161654Y10556161D01*
X4161654Y10556161D02*
X4104511Y10556161D01*
X4104511Y10556161D02*
X4018797Y10527590D01*
X4018797Y10527590D02*
X3990225Y10499018D01*
X3418797Y9956161D02*
X3761654Y9956161D01*
X3590225Y9956161D02*
X3590225Y10556161D01*
X3590225Y10556161D02*
X3647368Y10470447D01*
X3647368Y10470447D02*
X3704511Y10413304D01*
X3704511Y10413304D02*
X3761654Y10384732D01*
X3304511Y9899018D02*
X2847368Y9899018D01*
X2704510Y9956161D02*
X2704510Y10556161D01*
X2418796Y9956161D02*
X2418796Y10556161D01*
X2418796Y10556161D02*
X2075939Y9956161D01*
X2075939Y9956161D02*
X2075939Y10556161D01*
X1675940Y10556161D02*
X1618797Y10556161D01*
X1618797Y10556161D02*
X1561654Y10527590D01*
X1561654Y10527590D02*
X1533083Y10499018D01*
X1533083Y10499018D02*
X1504511Y10441875D01*
X1504511Y10441875D02*
X1475940Y10327590D01*
X1475940Y10327590D02*
X1475940Y10184732D01*
X1475940Y10184732D02*
X1504511Y10070447D01*
X1504511Y10070447D02*
X1533083Y10013304D01*
X1533083Y10013304D02*
X1561654Y9984732D01*
X1561654Y9984732D02*
X1618797Y9956161D01*
X1618797Y9956161D02*
X1675940Y9956161D01*
X1675940Y9956161D02*
X1733083Y9984732D01*
X1733083Y9984732D02*
X1761654Y10013304D01*
X1761654Y10013304D02*
X1790225Y10070447D01*
X1790225Y10070447D02*
X1818797Y10184732D01*
X1818797Y10184732D02*
X1818797Y10327590D01*
X1818797Y10327590D02*
X1790225Y10441875D01*
X1790225Y10441875D02*
X1761654Y10499018D01*
X1761654Y10499018D02*
X1733083Y10527590D01*
X1733083Y10527590D02*
X1675940Y10556161D01*
X3810225Y29160923D02*
X3810225Y29760923D01*
X3810225Y29760923D02*
X3667368Y29760923D01*
X3667368Y29760923D02*
X3581654Y29732352D01*
X3581654Y29732352D02*
X3524511Y29675209D01*
X3524511Y29675209D02*
X3495940Y29618066D01*
X3495940Y29618066D02*
X3467368Y29503780D01*
X3467368Y29503780D02*
X3467368Y29418066D01*
X3467368Y29418066D02*
X3495940Y29303780D01*
X3495940Y29303780D02*
X3524511Y29246637D01*
X3524511Y29246637D02*
X3581654Y29189494D01*
X3581654Y29189494D02*
X3667368Y29160923D01*
X3667368Y29160923D02*
X3810225Y29160923D01*
X3238797Y29332352D02*
X2953083Y29332352D01*
X3295940Y29160923D02*
X3095940Y29760923D01*
X3095940Y29760923D02*
X2895940Y29160923D01*
X2353082Y29218066D02*
X2381654Y29189494D01*
X2381654Y29189494D02*
X2467368Y29160923D01*
X2467368Y29160923D02*
X2524511Y29160923D01*
X2524511Y29160923D02*
X2610225Y29189494D01*
X2610225Y29189494D02*
X2667368Y29246637D01*
X2667368Y29246637D02*
X2695939Y29303780D01*
X2695939Y29303780D02*
X2724511Y29418066D01*
X2724511Y29418066D02*
X2724511Y29503780D01*
X2724511Y29503780D02*
X2695939Y29618066D01*
X2695939Y29618066D02*
X2667368Y29675209D01*
X2667368Y29675209D02*
X2610225Y29732352D01*
X2610225Y29732352D02*
X2524511Y29760923D01*
X2524511Y29760923D02*
X2467368Y29760923D01*
X2467368Y29760923D02*
X2381654Y29732352D01*
X2381654Y29732352D02*
X2353082Y29703780D01*
X1781654Y29160923D02*
X2124511Y29160923D01*
X1953082Y29160923D02*
X1953082Y29760923D01*
X1953082Y29760923D02*
X2010225Y29675209D01*
X2010225Y29675209D02*
X2067368Y29618066D01*
X2067368Y29618066D02*
X2124511Y29589494D01*
X27424510Y25970448D02*
X27481653Y25999019D01*
X27481653Y25999019D02*
X27567367Y25999019D01*
X27567367Y25999019D02*
X27653081Y25970448D01*
X27653081Y25970448D02*
X27710224Y25913305D01*
X27710224Y25913305D02*
X27738795Y25856162D01*
X27738795Y25856162D02*
X27767367Y25741876D01*
X27767367Y25741876D02*
X27767367Y25656162D01*
X27767367Y25656162D02*
X27738795Y25541876D01*
X27738795Y25541876D02*
X27710224Y25484733D01*
X27710224Y25484733D02*
X27653081Y25427590D01*
X27653081Y25427590D02*
X27567367Y25399019D01*
X27567367Y25399019D02*
X27510224Y25399019D01*
X27510224Y25399019D02*
X27424510Y25427590D01*
X27424510Y25427590D02*
X27395938Y25456162D01*
X27395938Y25456162D02*
X27395938Y25656162D01*
X27395938Y25656162D02*
X27510224Y25656162D01*
X27138795Y25399019D02*
X27138795Y25999019D01*
X27138795Y25999019D02*
X26910224Y25999019D01*
X26910224Y25999019D02*
X26853081Y25970448D01*
X26853081Y25970448D02*
X26824510Y25941876D01*
X26824510Y25941876D02*
X26795938Y25884733D01*
X26795938Y25884733D02*
X26795938Y25799019D01*
X26795938Y25799019D02*
X26824510Y25741876D01*
X26824510Y25741876D02*
X26853081Y25713305D01*
X26853081Y25713305D02*
X26910224Y25684733D01*
X26910224Y25684733D02*
X27138795Y25684733D01*
X26538795Y25399019D02*
X26538795Y25999019D01*
X26138796Y25999019D02*
X26024510Y25999019D01*
X26024510Y25999019D02*
X25967367Y25970448D01*
X25967367Y25970448D02*
X25910224Y25913305D01*
X25910224Y25913305D02*
X25881653Y25799019D01*
X25881653Y25799019D02*
X25881653Y25599019D01*
X25881653Y25599019D02*
X25910224Y25484733D01*
X25910224Y25484733D02*
X25967367Y25427590D01*
X25967367Y25427590D02*
X26024510Y25399019D01*
X26024510Y25399019D02*
X26138796Y25399019D01*
X26138796Y25399019D02*
X26195939Y25427590D01*
X26195939Y25427590D02*
X26253081Y25484733D01*
X26253081Y25484733D02*
X26281653Y25599019D01*
X26281653Y25599019D02*
X26281653Y25799019D01*
X26281653Y25799019D02*
X26253081Y25913305D01*
X26253081Y25913305D02*
X26195939Y25970448D01*
X26195939Y25970448D02*
X26138796Y25999019D01*
X25681653Y25999019D02*
X25281653Y25999019D01*
X25281653Y25999019D02*
X25538796Y25399019D01*
X5475940Y11413304D02*
X5190226Y11413304D01*
X5533083Y11241875D02*
X5333083Y11841875D01*
X5333083Y11841875D02*
X5133083Y11241875D01*
X4933082Y11241875D02*
X4933082Y11841875D01*
X4933082Y11841875D02*
X4790225Y11841875D01*
X4790225Y11841875D02*
X4704511Y11813304D01*
X4704511Y11813304D02*
X4647368Y11756161D01*
X4647368Y11756161D02*
X4618797Y11699018D01*
X4618797Y11699018D02*
X4590225Y11584732D01*
X4590225Y11584732D02*
X4590225Y11499018D01*
X4590225Y11499018D02*
X4618797Y11384732D01*
X4618797Y11384732D02*
X4647368Y11327589D01*
X4647368Y11327589D02*
X4704511Y11270446D01*
X4704511Y11270446D02*
X4790225Y11241875D01*
X4790225Y11241875D02*
X4933082Y11241875D01*
X3990225Y11299018D02*
X4018797Y11270446D01*
X4018797Y11270446D02*
X4104511Y11241875D01*
X4104511Y11241875D02*
X4161654Y11241875D01*
X4161654Y11241875D02*
X4247368Y11270446D01*
X4247368Y11270446D02*
X4304511Y11327589D01*
X4304511Y11327589D02*
X4333082Y11384732D01*
X4333082Y11384732D02*
X4361654Y11499018D01*
X4361654Y11499018D02*
X4361654Y11584732D01*
X4361654Y11584732D02*
X4333082Y11699018D01*
X4333082Y11699018D02*
X4304511Y11756161D01*
X4304511Y11756161D02*
X4247368Y11813304D01*
X4247368Y11813304D02*
X4161654Y11841875D01*
X4161654Y11841875D02*
X4104511Y11841875D01*
X4104511Y11841875D02*
X4018797Y11813304D01*
X4018797Y11813304D02*
X3990225Y11784732D01*
X3418797Y11241875D02*
X3761654Y11241875D01*
X3590225Y11241875D02*
X3590225Y11841875D01*
X3590225Y11841875D02*
X3647368Y11756161D01*
X3647368Y11756161D02*
X3704511Y11699018D01*
X3704511Y11699018D02*
X3761654Y11670446D01*
X3304511Y11184732D02*
X2847368Y11184732D01*
X2704510Y11241875D02*
X2704510Y11841875D01*
X2418796Y11241875D02*
X2418796Y11841875D01*
X2418796Y11841875D02*
X2075939Y11241875D01*
X2075939Y11241875D02*
X2075939Y11841875D01*
X1475940Y11241875D02*
X1818797Y11241875D01*
X1647368Y11241875D02*
X1647368Y11841875D01*
X1647368Y11841875D02*
X1704511Y11756161D01*
X1704511Y11756161D02*
X1761654Y11699018D01*
X1761654Y11699018D02*
X1818797Y11670446D01*
X11022411Y2654512D02*
X10422411Y2654512D01*
X10422411Y2654512D02*
X10422411Y2425941D01*
X10422411Y2425941D02*
X10450982Y2368798D01*
X10450982Y2368798D02*
X10479554Y2340227D01*
X10479554Y2340227D02*
X10536697Y2311655D01*
X10536697Y2311655D02*
X10622411Y2311655D01*
X10622411Y2311655D02*
X10679554Y2340227D01*
X10679554Y2340227D02*
X10708125Y2368798D01*
X10708125Y2368798D02*
X10736697Y2425941D01*
X10736697Y2425941D02*
X10736697Y2654512D01*
X10708125Y1854512D02*
X10736697Y1768798D01*
X10736697Y1768798D02*
X10765268Y1740227D01*
X10765268Y1740227D02*
X10822411Y1711655D01*
X10822411Y1711655D02*
X10908125Y1711655D01*
X10908125Y1711655D02*
X10965268Y1740227D01*
X10965268Y1740227D02*
X10993840Y1768798D01*
X10993840Y1768798D02*
X11022411Y1825941D01*
X11022411Y1825941D02*
X11022411Y2054512D01*
X11022411Y2054512D02*
X10422411Y2054512D01*
X10422411Y2054512D02*
X10422411Y1854512D01*
X10422411Y1854512D02*
X10450982Y1797369D01*
X10450982Y1797369D02*
X10479554Y1768798D01*
X10479554Y1768798D02*
X10536697Y1740227D01*
X10536697Y1740227D02*
X10593840Y1740227D01*
X10593840Y1740227D02*
X10650982Y1768798D01*
X10650982Y1768798D02*
X10679554Y1797369D01*
X10679554Y1797369D02*
X10708125Y1854512D01*
X10708125Y1854512D02*
X10708125Y2054512D01*
X10422411Y1168798D02*
X10422411Y1454512D01*
X10422411Y1454512D02*
X10708125Y1483084D01*
X10708125Y1483084D02*
X10679554Y1454512D01*
X10679554Y1454512D02*
X10650982Y1397369D01*
X10650982Y1397369D02*
X10650982Y1254512D01*
X10650982Y1254512D02*
X10679554Y1197369D01*
X10679554Y1197369D02*
X10708125Y1168798D01*
X10708125Y1168798D02*
X10765268Y1140227D01*
X10765268Y1140227D02*
X10908125Y1140227D01*
X10908125Y1140227D02*
X10965268Y1168798D01*
X10965268Y1168798D02*
X10993840Y1197369D01*
X10993840Y1197369D02*
X11022411Y1254512D01*
X11022411Y1254512D02*
X11022411Y1397369D01*
X11022411Y1397369D02*
X10993840Y1454512D01*
X10993840Y1454512D02*
X10965268Y1483084D01*
X27424510Y31113304D02*
X27481653Y31141875D01*
X27481653Y31141875D02*
X27567367Y31141875D01*
X27567367Y31141875D02*
X27653081Y31113304D01*
X27653081Y31113304D02*
X27710224Y31056161D01*
X27710224Y31056161D02*
X27738795Y30999018D01*
X27738795Y30999018D02*
X27767367Y30884732D01*
X27767367Y30884732D02*
X27767367Y30799018D01*
X27767367Y30799018D02*
X27738795Y30684732D01*
X27738795Y30684732D02*
X27710224Y30627589D01*
X27710224Y30627589D02*
X27653081Y30570446D01*
X27653081Y30570446D02*
X27567367Y30541875D01*
X27567367Y30541875D02*
X27510224Y30541875D01*
X27510224Y30541875D02*
X27424510Y30570446D01*
X27424510Y30570446D02*
X27395938Y30599018D01*
X27395938Y30599018D02*
X27395938Y30799018D01*
X27395938Y30799018D02*
X27510224Y30799018D01*
X27138795Y30541875D02*
X27138795Y31141875D01*
X27138795Y31141875D02*
X26910224Y31141875D01*
X26910224Y31141875D02*
X26853081Y31113304D01*
X26853081Y31113304D02*
X26824510Y31084732D01*
X26824510Y31084732D02*
X26795938Y31027589D01*
X26795938Y31027589D02*
X26795938Y30941875D01*
X26795938Y30941875D02*
X26824510Y30884732D01*
X26824510Y30884732D02*
X26853081Y30856161D01*
X26853081Y30856161D02*
X26910224Y30827589D01*
X26910224Y30827589D02*
X27138795Y30827589D01*
X26538795Y30541875D02*
X26538795Y31141875D01*
X26138796Y31141875D02*
X26024510Y31141875D01*
X26024510Y31141875D02*
X25967367Y31113304D01*
X25967367Y31113304D02*
X25910224Y31056161D01*
X25910224Y31056161D02*
X25881653Y30941875D01*
X25881653Y30941875D02*
X25881653Y30741875D01*
X25881653Y30741875D02*
X25910224Y30627589D01*
X25910224Y30627589D02*
X25967367Y30570446D01*
X25967367Y30570446D02*
X26024510Y30541875D01*
X26024510Y30541875D02*
X26138796Y30541875D01*
X26138796Y30541875D02*
X26195939Y30570446D01*
X26195939Y30570446D02*
X26253081Y30627589D01*
X26253081Y30627589D02*
X26281653Y30741875D01*
X26281653Y30741875D02*
X26281653Y30941875D01*
X26281653Y30941875D02*
X26253081Y31056161D01*
X26253081Y31056161D02*
X26195939Y31113304D01*
X26195939Y31113304D02*
X26138796Y31141875D01*
X25653082Y31084732D02*
X25624510Y31113304D01*
X25624510Y31113304D02*
X25567368Y31141875D01*
X25567368Y31141875D02*
X25424510Y31141875D01*
X25424510Y31141875D02*
X25367368Y31113304D01*
X25367368Y31113304D02*
X25338796Y31084732D01*
X25338796Y31084732D02*
X25310225Y31027589D01*
X25310225Y31027589D02*
X25310225Y30970446D01*
X25310225Y30970446D02*
X25338796Y30884732D01*
X25338796Y30884732D02*
X25681653Y30541875D01*
X25681653Y30541875D02*
X25310225Y30541875D01*
X3561654Y13813303D02*
X3561654Y14413303D01*
X3561654Y14413303D02*
X3333083Y14413303D01*
X3333083Y14413303D02*
X3275940Y14384732D01*
X3275940Y14384732D02*
X3247369Y14356160D01*
X3247369Y14356160D02*
X3218797Y14299017D01*
X3218797Y14299017D02*
X3218797Y14213303D01*
X3218797Y14213303D02*
X3247369Y14156160D01*
X3247369Y14156160D02*
X3275940Y14127589D01*
X3275940Y14127589D02*
X3333083Y14099017D01*
X3333083Y14099017D02*
X3561654Y14099017D01*
X2761654Y14127589D02*
X2675940Y14099017D01*
X2675940Y14099017D02*
X2647369Y14070446D01*
X2647369Y14070446D02*
X2618797Y14013303D01*
X2618797Y14013303D02*
X2618797Y13927589D01*
X2618797Y13927589D02*
X2647369Y13870446D01*
X2647369Y13870446D02*
X2675940Y13841874D01*
X2675940Y13841874D02*
X2733083Y13813303D01*
X2733083Y13813303D02*
X2961654Y13813303D01*
X2961654Y13813303D02*
X2961654Y14413303D01*
X2961654Y14413303D02*
X2761654Y14413303D01*
X2761654Y14413303D02*
X2704512Y14384732D01*
X2704512Y14384732D02*
X2675940Y14356160D01*
X2675940Y14356160D02*
X2647369Y14299017D01*
X2647369Y14299017D02*
X2647369Y14241874D01*
X2647369Y14241874D02*
X2675940Y14184732D01*
X2675940Y14184732D02*
X2704512Y14156160D01*
X2704512Y14156160D02*
X2761654Y14127589D01*
X2761654Y14127589D02*
X2961654Y14127589D01*
X2047369Y13813303D02*
X2390226Y13813303D01*
X2218797Y13813303D02*
X2218797Y14413303D01*
X2218797Y14413303D02*
X2275940Y14327589D01*
X2275940Y14327589D02*
X2333083Y14270446D01*
X2333083Y14270446D02*
X2390226Y14241874D01*
X1504511Y14413303D02*
X1790225Y14413303D01*
X1790225Y14413303D02*
X1818797Y14127589D01*
X1818797Y14127589D02*
X1790225Y14156160D01*
X1790225Y14156160D02*
X1733083Y14184732D01*
X1733083Y14184732D02*
X1590225Y14184732D01*
X1590225Y14184732D02*
X1533083Y14156160D01*
X1533083Y14156160D02*
X1504511Y14127589D01*
X1504511Y14127589D02*
X1475940Y14070446D01*
X1475940Y14070446D02*
X1475940Y13927589D01*
X1475940Y13927589D02*
X1504511Y13870446D01*
X1504511Y13870446D02*
X1533083Y13841874D01*
X1533083Y13841874D02*
X1590225Y13813303D01*
X1590225Y13813303D02*
X1733083Y13813303D01*
X1733083Y13813303D02*
X1790225Y13841874D01*
X1790225Y13841874D02*
X1818797Y13870446D01*
X3561654Y15099017D02*
X3561654Y15699017D01*
X3561654Y15699017D02*
X3333083Y15699017D01*
X3333083Y15699017D02*
X3275940Y15670446D01*
X3275940Y15670446D02*
X3247369Y15641874D01*
X3247369Y15641874D02*
X3218797Y15584731D01*
X3218797Y15584731D02*
X3218797Y15499017D01*
X3218797Y15499017D02*
X3247369Y15441874D01*
X3247369Y15441874D02*
X3275940Y15413303D01*
X3275940Y15413303D02*
X3333083Y15384731D01*
X3333083Y15384731D02*
X3561654Y15384731D01*
X2761654Y15413303D02*
X2675940Y15384731D01*
X2675940Y15384731D02*
X2647369Y15356160D01*
X2647369Y15356160D02*
X2618797Y15299017D01*
X2618797Y15299017D02*
X2618797Y15213303D01*
X2618797Y15213303D02*
X2647369Y15156160D01*
X2647369Y15156160D02*
X2675940Y15127588D01*
X2675940Y15127588D02*
X2733083Y15099017D01*
X2733083Y15099017D02*
X2961654Y15099017D01*
X2961654Y15099017D02*
X2961654Y15699017D01*
X2961654Y15699017D02*
X2761654Y15699017D01*
X2761654Y15699017D02*
X2704512Y15670446D01*
X2704512Y15670446D02*
X2675940Y15641874D01*
X2675940Y15641874D02*
X2647369Y15584731D01*
X2647369Y15584731D02*
X2647369Y15527588D01*
X2647369Y15527588D02*
X2675940Y15470446D01*
X2675940Y15470446D02*
X2704512Y15441874D01*
X2704512Y15441874D02*
X2761654Y15413303D01*
X2761654Y15413303D02*
X2961654Y15413303D01*
X2047369Y15099017D02*
X2390226Y15099017D01*
X2218797Y15099017D02*
X2218797Y15699017D01*
X2218797Y15699017D02*
X2275940Y15613303D01*
X2275940Y15613303D02*
X2333083Y15556160D01*
X2333083Y15556160D02*
X2390226Y15527588D01*
X1533083Y15499017D02*
X1533083Y15099017D01*
X1675940Y15727588D02*
X1818797Y15299017D01*
X1818797Y15299017D02*
X1447368Y15299017D01*
X3810225Y24094259D02*
X3810225Y24694259D01*
X3810225Y24694259D02*
X3581654Y24694259D01*
X3581654Y24694259D02*
X3524511Y24665688D01*
X3524511Y24665688D02*
X3495940Y24637116D01*
X3495940Y24637116D02*
X3467368Y24579973D01*
X3467368Y24579973D02*
X3467368Y24494259D01*
X3467368Y24494259D02*
X3495940Y24437116D01*
X3495940Y24437116D02*
X3524511Y24408545D01*
X3524511Y24408545D02*
X3581654Y24379973D01*
X3581654Y24379973D02*
X3810225Y24379973D01*
X3010225Y24408545D02*
X2924511Y24379973D01*
X2924511Y24379973D02*
X2895940Y24351402D01*
X2895940Y24351402D02*
X2867368Y24294259D01*
X2867368Y24294259D02*
X2867368Y24208545D01*
X2867368Y24208545D02*
X2895940Y24151402D01*
X2895940Y24151402D02*
X2924511Y24122830D01*
X2924511Y24122830D02*
X2981654Y24094259D01*
X2981654Y24094259D02*
X3210225Y24094259D01*
X3210225Y24094259D02*
X3210225Y24694259D01*
X3210225Y24694259D02*
X3010225Y24694259D01*
X3010225Y24694259D02*
X2953083Y24665688D01*
X2953083Y24665688D02*
X2924511Y24637116D01*
X2924511Y24637116D02*
X2895940Y24579973D01*
X2895940Y24579973D02*
X2895940Y24522830D01*
X2895940Y24522830D02*
X2924511Y24465688D01*
X2924511Y24465688D02*
X2953083Y24437116D01*
X2953083Y24437116D02*
X3010225Y24408545D01*
X3010225Y24408545D02*
X3210225Y24408545D01*
X2495940Y24694259D02*
X2438797Y24694259D01*
X2438797Y24694259D02*
X2381654Y24665688D01*
X2381654Y24665688D02*
X2353083Y24637116D01*
X2353083Y24637116D02*
X2324511Y24579973D01*
X2324511Y24579973D02*
X2295940Y24465688D01*
X2295940Y24465688D02*
X2295940Y24322830D01*
X2295940Y24322830D02*
X2324511Y24208545D01*
X2324511Y24208545D02*
X2353083Y24151402D01*
X2353083Y24151402D02*
X2381654Y24122830D01*
X2381654Y24122830D02*
X2438797Y24094259D01*
X2438797Y24094259D02*
X2495940Y24094259D01*
X2495940Y24094259D02*
X2553083Y24122830D01*
X2553083Y24122830D02*
X2581654Y24151402D01*
X2581654Y24151402D02*
X2610225Y24208545D01*
X2610225Y24208545D02*
X2638797Y24322830D01*
X2638797Y24322830D02*
X2638797Y24465688D01*
X2638797Y24465688D02*
X2610225Y24579973D01*
X2610225Y24579973D02*
X2581654Y24637116D01*
X2581654Y24637116D02*
X2553083Y24665688D01*
X2553083Y24665688D02*
X2495940Y24694259D01*
X27424510Y32399018D02*
X27481653Y32427589D01*
X27481653Y32427589D02*
X27567367Y32427589D01*
X27567367Y32427589D02*
X27653081Y32399018D01*
X27653081Y32399018D02*
X27710224Y32341875D01*
X27710224Y32341875D02*
X27738795Y32284732D01*
X27738795Y32284732D02*
X27767367Y32170446D01*
X27767367Y32170446D02*
X27767367Y32084732D01*
X27767367Y32084732D02*
X27738795Y31970446D01*
X27738795Y31970446D02*
X27710224Y31913303D01*
X27710224Y31913303D02*
X27653081Y31856160D01*
X27653081Y31856160D02*
X27567367Y31827589D01*
X27567367Y31827589D02*
X27510224Y31827589D01*
X27510224Y31827589D02*
X27424510Y31856160D01*
X27424510Y31856160D02*
X27395938Y31884732D01*
X27395938Y31884732D02*
X27395938Y32084732D01*
X27395938Y32084732D02*
X27510224Y32084732D01*
X27138795Y31827589D02*
X27138795Y32427589D01*
X27138795Y32427589D02*
X26910224Y32427589D01*
X26910224Y32427589D02*
X26853081Y32399018D01*
X26853081Y32399018D02*
X26824510Y32370446D01*
X26824510Y32370446D02*
X26795938Y32313303D01*
X26795938Y32313303D02*
X26795938Y32227589D01*
X26795938Y32227589D02*
X26824510Y32170446D01*
X26824510Y32170446D02*
X26853081Y32141875D01*
X26853081Y32141875D02*
X26910224Y32113303D01*
X26910224Y32113303D02*
X27138795Y32113303D01*
X26538795Y31827589D02*
X26538795Y32427589D01*
X26138796Y32427589D02*
X26024510Y32427589D01*
X26024510Y32427589D02*
X25967367Y32399018D01*
X25967367Y32399018D02*
X25910224Y32341875D01*
X25910224Y32341875D02*
X25881653Y32227589D01*
X25881653Y32227589D02*
X25881653Y32027589D01*
X25881653Y32027589D02*
X25910224Y31913303D01*
X25910224Y31913303D02*
X25967367Y31856160D01*
X25967367Y31856160D02*
X26024510Y31827589D01*
X26024510Y31827589D02*
X26138796Y31827589D01*
X26138796Y31827589D02*
X26195939Y31856160D01*
X26195939Y31856160D02*
X26253081Y31913303D01*
X26253081Y31913303D02*
X26281653Y32027589D01*
X26281653Y32027589D02*
X26281653Y32227589D01*
X26281653Y32227589D02*
X26253081Y32341875D01*
X26253081Y32341875D02*
X26195939Y32399018D01*
X26195939Y32399018D02*
X26138796Y32427589D01*
X25310225Y31827589D02*
X25653082Y31827589D01*
X25481653Y31827589D02*
X25481653Y32427589D01*
X25481653Y32427589D02*
X25538796Y32341875D01*
X25538796Y32341875D02*
X25595939Y32284732D01*
X25595939Y32284732D02*
X25653082Y32256160D01*
D11*
X16454819Y32833334D02*
X17169104Y32833334D01*
X17169104Y32833334D02*
X17311961Y32880953D01*
X17311961Y32880953D02*
X17407200Y32976191D01*
X17407200Y32976191D02*
X17454819Y33119048D01*
X17454819Y33119048D02*
X17454819Y33214286D01*
X17454819Y32357143D02*
X16454819Y32357143D01*
X16454819Y32357143D02*
X16454819Y31976191D01*
X16454819Y31976191D02*
X16502438Y31880953D01*
X16502438Y31880953D02*
X16550057Y31833334D01*
X16550057Y31833334D02*
X16645295Y31785715D01*
X16645295Y31785715D02*
X16788152Y31785715D01*
X16788152Y31785715D02*
X16883390Y31833334D01*
X16883390Y31833334D02*
X16931009Y31880953D01*
X16931009Y31880953D02*
X16978628Y31976191D01*
X16978628Y31976191D02*
X16978628Y32357143D01*
X17454819Y30833334D02*
X17454819Y31404762D01*
X17454819Y31119048D02*
X16454819Y31119048D01*
X16454819Y31119048D02*
X16597676Y31214286D01*
X16597676Y31214286D02*
X16692914Y31309524D01*
X16692914Y31309524D02*
X16740533Y31404762D01*
X14454819Y29733333D02*
X14454819Y29114286D01*
X14454819Y29114286D02*
X14835771Y29447619D01*
X14835771Y29447619D02*
X14835771Y29304762D01*
X14835771Y29304762D02*
X14883390Y29209524D01*
X14883390Y29209524D02*
X14931009Y29161905D01*
X14931009Y29161905D02*
X15026247Y29114286D01*
X15026247Y29114286D02*
X15264342Y29114286D01*
X15264342Y29114286D02*
X15359580Y29161905D01*
X15359580Y29161905D02*
X15407200Y29209524D01*
X15407200Y29209524D02*
X15454819Y29304762D01*
X15454819Y29304762D02*
X15454819Y29590476D01*
X15454819Y29590476D02*
X15407200Y29685714D01*
X15407200Y29685714D02*
X15359580Y29733333D01*
X15454819Y34314286D02*
X15454819Y34885714D01*
X15454819Y34600000D02*
X14454819Y34600000D01*
X14454819Y34600000D02*
X14597676Y34695238D01*
X14597676Y34695238D02*
X14692914Y34790476D01*
X14692914Y34790476D02*
X14740533Y34885714D01*
X1433333Y6095181D02*
X1433333Y5380896D01*
X1433333Y5380896D02*
X1480952Y5238039D01*
X1480952Y5238039D02*
X1576190Y5142800D01*
X1576190Y5142800D02*
X1719047Y5095181D01*
X1719047Y5095181D02*
X1814285Y5095181D01*
X957142Y5095181D02*
X957142Y6095181D01*
X957142Y6095181D02*
X576190Y6095181D01*
X576190Y6095181D02*
X480952Y6047562D01*
X480952Y6047562D02*
X433333Y5999943D01*
X433333Y5999943D02*
X385714Y5904705D01*
X385714Y5904705D02*
X385714Y5761848D01*
X385714Y5761848D02*
X433333Y5666610D01*
X433333Y5666610D02*
X480952Y5618991D01*
X480952Y5618991D02*
X576190Y5571372D01*
X576190Y5571372D02*
X957142Y5571372D01*
X4761Y5999943D02*
X-42858Y6047562D01*
X-42858Y6047562D02*
X-138096Y6095181D01*
X-138096Y6095181D02*
X-376191Y6095181D01*
X-376191Y6095181D02*
X-471429Y6047562D01*
X-471429Y6047562D02*
X-519048Y5999943D01*
X-519048Y5999943D02*
X-566667Y5904705D01*
X-566667Y5904705D02*
X-566667Y5809467D01*
X-566667Y5809467D02*
X-519048Y5666610D01*
X-519048Y5666610D02*
X52380Y5095181D01*
X52380Y5095181D02*
X-566667Y5095181D01*
X3533332Y3895181D02*
X2914285Y3895181D01*
X2914285Y3895181D02*
X3247618Y3514229D01*
X3247618Y3514229D02*
X3104761Y3514229D01*
X3104761Y3514229D02*
X3009523Y3466610D01*
X3009523Y3466610D02*
X2961904Y3418991D01*
X2961904Y3418991D02*
X2914285Y3323753D01*
X2914285Y3323753D02*
X2914285Y3085658D01*
X2914285Y3085658D02*
X2961904Y2990420D01*
X2961904Y2990420D02*
X3009523Y2942800D01*
X3009523Y2942800D02*
X3104761Y2895181D01*
X3104761Y2895181D02*
X3390475Y2895181D01*
X3390475Y2895181D02*
X3485713Y2942800D01*
X3485713Y2942800D02*
X3533332Y2990420D01*
X-2285715Y2895181D02*
X-1714287Y2895181D01*
X-2000001Y2895181D02*
X-2000001Y3895181D01*
X-2000001Y3895181D02*
X-1904763Y3752324D01*
X-1904763Y3752324D02*
X-1809525Y3657086D01*
X-1809525Y3657086D02*
X-1714287Y3609467D01*
D12*
%TO.C,JP1*%
X15300000Y34050000D02*
X14700000Y34050000D01*
X14000000Y33400000D02*
X14000000Y30600000D01*
X16000000Y30600000D02*
X16000000Y33400000D01*
X14700000Y29950000D02*
X15300000Y29950000D01*
X16000000Y33350000D02*
G75*
G03*
X15300000Y34050000I-699999J1D01*
G01*
X14700000Y34050000D02*
G75*
G03*
X14000000Y33350000I-1J-699999D01*
G01*
X15300000Y29950000D02*
G75*
G03*
X16000000Y30650000I0J700000D01*
G01*
X14000000Y30650000D02*
G75*
G03*
X14700000Y29950000I700000J0D01*
G01*
%TO.C,JP2*%
X-1450000Y3650000D02*
X-1450000Y3050000D01*
X-800000Y2350000D02*
X2000000Y2350000D01*
X2000000Y4350000D02*
X-800000Y4350000D01*
X2650000Y3050000D02*
X2650000Y3650000D01*
X-750000Y4350000D02*
G75*
G03*
X-1450000Y3650000I-1J-699999D01*
G01*
X-1450000Y3050000D02*
G75*
G03*
X-750000Y2350000I699999J-1D01*
G01*
X2650000Y3650000D02*
G75*
G03*
X1950000Y4350000I-700000J0D01*
G01*
X1950000Y2350000D02*
G75*
G03*
X2650000Y3050000I0J700000D01*
G01*
%TD*%
M02*
